<svg xmlns="http://www.w3.org/2000/svg" width="430.667" height="430.667" viewBox="0 0 323 323" xmlns:v="https://vecta.io/nano"><style><![CDATA[.B{dominant-baseline:auto}]]></style><path d="M103 19.7l-83 83v117l83 83h117l83-83v-117l-83-83z" fill="#fff" stroke="#fff" stroke-linejoin="round" stroke-width="39.5" paint-order="markers stroke fill" class="B"/><g transform="matrix(.878 0 0 .878 19.7 19.7)"><path d="M94.5 0L0 94.5l.001 134L94.5 323h134l94.5-94.5v-134L228.5.001z" fill="maroon" paint-order="markers stroke fill" class="B"/><path d="M225 8.45L98 8.452l-89.6 89.6.002 127 89.6 89.6h127l89.6-89.6-.002-127-6.87-6.87z" fill="#d40000" paint-order="markers stroke fill" class="B"/><path d="M107 87.3c-2.26-.094-4.56.335-6.9 1.32-3.044 1.272-2.834 1.732-3.854 2.612l-3.45 3.17c-2.57 2.45-5.66 5.56-8.7 8.7s-6 6.3-8.3 8.9c-1.16 1.3-2.14 2.45-2.96 3.48a24.79 24.79 0 0 0-1.15 1.55c-.367.548-.83.73-1.4 3.02-1.52 5.8.25 11.1 3.23 18.2.006.013.007.018.01.024 8.47 20.3 26.9 43.5 48 64.1s44.6 38.3 64.8 45.9c4.132 1.56 8.162 2.25 11.702 1.76l.014-.002.016-.002c2.07-.295 5.68-1.73 8.28-3.88s5.6-5.18 11.3-10.8c6.48-6.48 10-9.95 12.6-13.8 2.52-3.9 2.6-9.9 1.64-12.9l-.03-.098-.033-.096c-.913-2.62-1.64-3.1-2.6-4.28-.942-1.18-2.1-2.48-3.55-4.06-2.9-3.15-7.02-7.35-12.5-12.8l-.006-.006-.006-.004c-10.1-10-14.1-15.6-21.9-18-3.9-1.23-8.83-.037-11.7 1.88-2.87 1.9-4.86 4.08-7.46 6.65l-.018.02-.373.373-29.7-29.7.89-.922c3.06-3.17 4.76-4.66 6.4-7.35 1.64-2.7 1.88-6.17 1.88-8.04v-6.8l-17.912-18.012-11.8-11.5-4.13-3.85c-.558-.502-1.04-.927-1.5-1.3-.464-.385-.477-.584-2-1.4l-.1-.047-.1-.045c-2.2-1.1-4.44-1.72-6.7-1.82zm76.4-10.2c-2.9.19-6.04 1.4-7.92 3.27-2.66 2.66-3.72 6.38-3.72 9.57 0 4.77-2.54 11.3-9.75 20.4-7.77 9.8-10.3 16.5-10.3 26.6 0 3.46.012 5.75.38 8.12.362 2.35 1.28 4.63 2.2 6.34 4.26 8.2 12 13.8 21.3 15.8l.008.002.01.002c1.4.298 2.52.558 3.9.73s3.48.516 6.27-.977 4.14-4.46 4.55-5.97c.402-1.52.46-2.46.6-3.54v-.014c.18-1.45 1.03-5.4 1.62-7.34.05-.16.26-.59.326-.783.358 1 1.1 2.67 1.24 3.2l.016.062c.488 1.95.896 5.6.896 5.4v11.3l12.057-1.508c8.16-1.14 14.2-3.8 18.9-8.45l.057-.055.055-.057c3.4-3.48 5.65-7.23 7.1-11.9l.016-.057.018-.055c1.37-4.64 1.8-8.48 1.42-14.2l.002.006c-.396-6.18-1.5-11.7-3.46-16.3-.974-2.3-2.13-4.43-3.95-6.37s-4.77-3.9-8.46-3.9c-3.6 0-3.96.923-4.84 1.43s-1.6 1.02-2.4 1.62c-.157.12-.346.308-.506.432-1.48-11.7-6.96-22-16.2-28.4l-.004-.004c-2.85-1.95-5.34-3.48-8.72-4.18-.847-.173-1.78-.222-2.74-.158z" fill="maroon" paint-order="markers stroke fill" class="B"/><path d="M103 95.7c-2.53 1.06-24.8 24.1-25.3 26.2-.774 2.9.07 6.7 2.9 13.4 15.4 36.9 71.9 92 108 106 3.73 1.4 5.42 1.7 7.95 1.34 2.96-.422 3.94-1.27 15.2-12.5 12.9-12.9 13.8-14.4 12.3-19-.563-1.62-5.9-7.4-16.8-18.2-20.3-20.1-19.7-19.9-30.3-9.5l-5.77 5.77-40.4-40.4 6.12-6.33c6.12-6.33 6.12-6.33 6.12-10.1v-3.66l-15.6-15.8c-8.66-8.66-16.5-16.2-17.6-16.7-2.1-1.06-5.07-1.2-7.25-.28zm77.8-9.92c-.985.985-1.48 2.4-1.48 4.15 0 7.32-3.66 15.3-11.4 25.1-7.53 9.5-8.66 12.4-8.66 21.8 0 6.76.21 8.16 1.7 10.9 3.3 6.4 8.6 10.3 16.1 11.9 5.63 1.2 5.56 1.2 6.12-3.24.282-2.25 1.13-6.12 1.9-8.66 1.55-4.93 6.4-15.1 7.6-15.8.985-.633 7.32 12.9 8.73 18.7.633 2.53 1.13 5.77 1.13 7.25v2.67l3.38-.422c7.53-1.06 10.7-2.46 14.6-6.33 3.1-3.17 3.94-4.57 5.28-8.87 1.27-4.3 1.48-6.12 1.13-11.5-.704-11-4.22-19.4-8.23-19.4-.844 0-3.8 2.25-7.04 5.28-8.6 8.02-8.37 8.02-7.95-.563.704-13.5-4.08-24.6-13.3-31-4.93-3.38-7.67-3.94-9.64-1.97z" fill="#fff" paint-order="markers stroke fill"/><path d="M222 121c.01-.006-.046.17-.492.344L222 121zm-136.9 4c-.16.3-.26.343-.258.34l.258-.34zM199 137c.024-.035.042.067-.207.34L199 137zm19 76c.005.016.01.005.014.02z" paint-order="markers stroke fill" fill="maroon" class="B"/></g></svg>