<svg width="36" height="36" viewBox="0 0 36 36" fill="none" xmlns="http://www.w3.org/2000/svg">
<g id="carbon:add-alt">
<path id="Vector" d="M18 4.5C25.425 4.5 31.5 10.575 31.5 18C31.5 25.425 25.425 31.5 18 31.5C10.575 31.5 4.5 25.425 4.5 18C4.5 10.575 10.575 4.5 18 4.5ZM18 2.25C9.3375 2.25 2.25 9.3375 2.25 18C2.25 26.6625 9.3375 33.75 18 33.75C26.6625 33.75 33.75 26.6625 33.75 18C33.75 9.3375 26.6625 2.25 18 2.25Z" fill="#1A5A96"/>
<path id="Vector_2" d="M27 16.875H19.125V9H16.875V16.875H9V19.125H16.875V27H19.125V19.125H27V16.875Z" fill="#1A5A96"/>
</g>
</svg>
