<svg width="24" height="24" viewBox="0 0 24 24" fill="none" xmlns="http://www.w3.org/2000/svg">
<g id="Advice">
<g id="Group">
<path id="Vector" d="M8.79288 12.8438L5.41797 16.2188V12.8438H3.73047C2.7985 12.8438 2.04297 12.0882 2.04297 11.1563V4.40625C2.04297 3.47429 2.7985 2.71875 3.73047 2.71875H13.8555C14.7874 2.71875 15.543 3.47429 15.543 4.40625V11.1563C15.543 12.0882 14.7874 12.8438 13.8555 12.8438H8.79288Z" stroke="#242424" stroke-width="1.3" stroke-miterlimit="10" stroke-linecap="round" stroke-linejoin="round"/>
<path id="Vector_2" d="M10.3125 16.2188C10.3125 17.1507 11.068 17.9063 12 17.9063H15.3751L18.75 21.2813V17.9063H20.2688C21.2007 17.9063 21.9563 17.1507 21.9563 16.2188V9.46875C21.9563 8.53679 21.2007 7.78125 20.2688 7.78125H18.5813" stroke="#242424" stroke-width="1.3" stroke-miterlimit="10" stroke-linecap="round" stroke-linejoin="round"/>
</g>
</g>
</svg>
