<svg width="16" height="16" viewBox="0 0 16 16" fill="none" xmlns="http://www.w3.org/2000/svg">
<g id="Details 16x16">
<path id="Vector" d="M1 13.9998H15V14.9998H1V13.9998ZM13.5 5.49979C13.6326 5.49979 13.7598 5.44711 13.8536 5.35334C13.9473 5.25957 14 5.1324 14 4.99979V3.49979C14 3.39703 13.9683 3.29678 13.9092 3.21269C13.8502 3.12859 13.7666 3.06472 13.67 3.02979L8.17 1.02979C8.06015 0.990071 7.93985 0.990071 7.83 1.02979L2.33 3.02979C2.23336 3.06472 2.14984 3.12859 2.09079 3.21269C2.03175 3.29678 2.00004 3.39703 2 3.49979V4.99979C2 5.1324 2.05268 5.25957 2.14645 5.35334C2.24021 5.44711 2.36739 5.49979 2.5 5.49979H3V11.9998H2V12.9998H14V11.9998H13V5.49979H13.5ZM3 3.84979L8 2.02979L13 3.84979V4.49979H3V3.84979ZM9 11.9998H7V5.49979H9V11.9998ZM4 5.49979H6V11.9998H4V5.49979ZM12 11.9998H10V5.49979H12V11.9998Z" fill="#484848"/>
</g>
</svg>
