<svg width="16" height="17" viewBox="0 0 16 17" fill="none" xmlns="http://www.w3.org/2000/svg">
    <g id="Evac Icon 2">
    <g id="Group 625885">
    <path id="Vector" d="M8.335 1.5C6.98317 1.5 5.66169 1.90087 4.53768 2.65191C3.41367 3.40294 2.53761 4.47043 2.02029 5.71936C1.50296 6.96829 1.36761 8.34258 1.63134 9.66844C1.89507 10.9943 2.54604 12.2122 3.50193 13.1681C4.45782 14.124 5.6757 14.7749 7.00156 15.0387C8.32742 15.3024 9.70171 15.167 10.9506 14.6497C12.1996 14.1324 13.2671 13.2563 14.0181 12.1323C14.7691 11.0083 15.17 9.68683 15.17 8.335C15.17 6.52224 14.4499 4.78374 13.1681 3.50192C11.8863 2.22011 10.1478 1.5 8.335 1.5ZM8.335 14.1936C7.17629 14.1936 6.04359 13.85 5.08015 13.2062C4.11672 12.5625 3.36581 11.6475 2.92239 10.577C2.47897 9.50646 2.36295 8.3285 2.589 7.19205C2.81506 6.0556 3.37303 5.0117 4.19237 4.19236C5.0117 3.37303 6.0556 2.81505 7.19205 2.589C8.3285 2.36294 9.50647 2.47896 10.577 2.92239C11.6475 3.36581 12.5625 4.11671 13.2062 5.08015C13.85 6.04359 14.1936 7.17628 14.1936 8.335C14.1936 9.88879 13.5763 11.3789 12.4776 12.4776C11.3789 13.5763 9.88879 14.1936 8.335 14.1936Z" fill="#666666"/>
    <path id="Vector_2" d="M7.84668 4.91741C7.84668 4.64778 8.06526 4.4292 8.33489 4.4292C8.60453 4.4292 8.82311 4.64778 8.82311 4.91741V9.31134C8.82311 9.58097 8.60453 9.79956 8.33489 9.79956C8.06526 9.79956 7.84668 9.58097 7.84668 9.31134V4.91741Z" fill="#666666"/>
    <path id="Vector_3" d="M8.33486 11.2644C8.19002 11.2644 8.04843 11.3074 7.92801 11.3878C7.80758 11.4683 7.71371 11.5827 7.65828 11.7165C7.60286 11.8503 7.58835 11.9975 7.61661 12.1396C7.64487 12.2817 7.71461 12.4121 7.81703 12.5146C7.91945 12.617 8.04994 12.6867 8.19199 12.715C8.33405 12.7432 8.48129 12.7287 8.61511 12.6733C8.74892 12.6179 8.8633 12.524 8.94376 12.4036C9.02423 12.2832 9.06718 12.1416 9.06718 11.9967C9.06718 11.8025 8.99003 11.6162 8.85269 11.4789C8.71535 11.3416 8.52908 11.2644 8.33486 11.2644Z" fill="#666666"/>
    </g>
    </g>
    </svg>