<svg xmlns="http://www.w3.org/2000/svg" width="24" height="24" viewBox="0 0 24 24" fill="none">
    <path d="M13.72 9.22C13.7887 9.14631 13.8715 9.08721 13.9635 9.04622C14.0555 9.00523 14.1548 8.98318 14.2555 8.98141C14.3562 8.97963 14.4562 8.99816 14.5496 9.03588C14.643 9.0736 14.7278 9.12974 14.799 9.20096C14.8703 9.27218 14.9264 9.35701 14.9641 9.4504C15.0018 9.54379 15.0204 9.64382 15.0186 9.74452C15.0168 9.84522 14.9948 9.94454 14.9538 10.0365C14.9128 10.1285 14.8537 10.2113 14.78 10.28L10.28 14.78C10.2113 14.8537 10.1285 14.9128 10.0365 14.9538C9.94454 14.9948 9.84522 15.0168 9.74452 15.0186C9.64382 15.0204 9.54379 15.0018 9.4504 14.9641C9.35701 14.9264 9.27218 14.8703 9.20096 14.799C9.12974 14.7278 9.0736 14.643 9.03588 14.5496C8.99816 14.4562 8.97963 14.3562 8.98141 14.2555C8.98318 14.1548 9.00523 14.0555 9.04622 13.9635C9.08721 13.8715 9.14631 13.7887 9.22 13.72L13.72 9.22ZM17.75 2C18.8772 2 19.9582 2.44777 20.7552 3.2448C21.5522 4.04183 22 5.12283 22 6.25V7.25C22 15.396 15.396 22 7.25 22H6.25C5.12283 22 4.04183 21.5522 3.2448 20.7552C2.44777 19.9582 2 18.8772 2 17.75V16.75C2 8.604 8.604 2 16.75 2H17.75ZM20.5 6.25C20.5 5.52065 20.2103 4.82118 19.6945 4.30546C19.1788 3.78973 18.4793 3.5 17.75 3.5H16.75C16.347 3.5 15.948 3.518 15.554 3.553L20.447 8.446C20.482 8.052 20.5 7.653 20.5 7.25V6.25ZM20.153 10.274L13.726 3.847C11.3069 4.41596 9.09608 5.65281 7.34546 7.4167C5.59483 9.18059 4.37469 11.4006 3.824 13.824L10.176 20.176C12.5994 19.6254 14.8195 18.4053 16.5834 16.6547C18.3473 14.904 19.5841 12.6932 20.153 10.274ZM3.543 15.665C3.515 16.023 3.5 16.385 3.5 16.75V17.75C3.5 18.4793 3.78973 19.1788 4.30546 19.6945C4.82118 20.2103 5.52065 20.5 6.25 20.5H7.25C7.615 20.5 7.977 20.485 8.335 20.456L3.543 15.665Z" fill="#548ADB"/>
    </svg>