<svg xmlns="http://www.w3.org/2000/svg" width="24" height="24" viewBox="0 0 24 24" fill="none">
    <path d="M12 15.75C11.7775 15.75 11.56 15.816 11.375 15.9396C11.19 16.0632 11.0458 16.2389 10.9606 16.4445C10.8755 16.65 10.8532 16.8762 10.8966 17.0945C10.94 17.3127 11.0472 17.5132 11.2045 17.6705C11.3618 17.8278 11.5623 17.935 11.7805 17.9784C11.9988 18.0218 12.225 17.9995 12.4305 17.9144C12.6361 17.8292 12.8118 17.685 12.9354 17.5C13.059 17.315 13.125 17.0975 13.125 16.875C13.125 16.5766 13.0065 16.2905 12.7955 16.0795C12.5845 15.8685 12.2984 15.75 12 15.75ZM11.25 6H12.75V13.5H11.25V6Z" fill="black"/>
    <path d="M17.25 21.75H6.74998C6.61888 21.75 6.49005 21.7157 6.37635 21.6504C6.26266 21.5852 6.16805 21.4912 6.10198 21.378L0.851978 12.378C0.785032 12.2633 0.749756 12.1328 0.749756 12C0.749756 11.8672 0.785032 11.7367 0.851978 11.622L6.10198 2.622C6.16805 2.50877 6.26266 2.41483 6.37635 2.34956C6.49005 2.28429 6.61888 2.24996 6.74998 2.25H17.25C17.3811 2.24996 17.5099 2.28429 17.6236 2.34956C17.7373 2.41483 17.8319 2.50877 17.898 2.622L23.148 11.622C23.2149 11.7367 23.2502 11.8672 23.2502 12C23.2502 12.1328 23.2149 12.2633 23.148 12.378L17.898 21.378C17.8319 21.4912 17.7373 21.5852 17.6236 21.6504C17.5099 21.7157 17.3811 21.75 17.25 21.75ZM7.18048 20.25H16.8195L21.6315 12L16.8195 3.75H7.18048L2.36848 12L7.18048 20.25Z" fill="black"/>
    </svg>