<svg width="24" height="24" viewBox="0 0 24 24" fill="none" xmlns="http://www.w3.org/2000/svg">
<g id="Authorities">
<path id="Vector" d="M1.5 21.0002H22.5V22.5002H1.5V21.0002ZM20.25 8.25017C20.4489 8.25017 20.6397 8.17115 20.7803 8.0305C20.921 7.88985 21 7.69908 21 7.50017V5.25017C20.9999 5.09603 20.9524 4.94566 20.8638 4.81952C20.7752 4.69337 20.65 4.59758 20.505 4.54517L12.255 1.54517C12.0902 1.48559 11.9098 1.48559 11.745 1.54517L3.495 4.54517C3.35005 4.59758 3.22476 4.69337 3.13619 4.81952C3.04762 4.94566 3.00007 5.09603 3 5.25017V7.50017C3 7.69908 3.07902 7.88985 3.21967 8.0305C3.36032 8.17115 3.55109 8.25017 3.75 8.25017H4.5V18.0002H3V19.5002H21V18.0002H19.5V8.25017H20.25ZM4.5 5.77517L12 3.04517L19.5 5.77517V6.75017H4.5V5.77517ZM13.5 18.0002H10.5V8.25017H13.5V18.0002ZM6 8.25017H9V18.0002H6V8.25017ZM18 18.0002H15V8.25017H18V18.0002Z" fill="#242424"/>
</g>
</svg>
