<svg width="132" height="132" viewBox="0 0 132 132" fill="none" xmlns="http://www.w3.org/2000/svg">
<g clip-path="url(#clip0_1311_1550)">
<path d="M116.851 72.4463L114.14 64.1786C113.737 62.9512 112.592 62.1215 111.3 62.1215H105.586L105.337 61.8942L96.9084 54.2081C96.4267 53.7689 95.8167 53.5009 95.1726 53.4407L80.8416 53.4278V49.6976C80.8416 47.9459 79.4216 46.5259 77.6699 46.5259H75.6269V42.5607H113.969C115.62 42.5607 116.958 41.2227 116.958 39.5724C116.958 37.9221 115.62 36.5841 113.969 36.5841H75.3321C74.8506 35.5795 73.8272 34.8838 72.6388 34.8838C71.4505 34.8838 70.4269 35.5795 69.9456 36.5841H31.3079C29.6576 36.5841 28.3196 37.9221 28.3196 39.5724C28.3196 41.2227 29.6576 42.5607 31.3079 42.5607H69.6506V46.5259H67.6074C65.8557 46.5259 64.4356 47.9459 64.4356 49.6976V53.4276H61.1083C60.4702 53.4276 59.8488 53.6318 59.3353 54.0105L54.1779 57.8124L30.8997 61.8246L25.8489 53.7828C25.3023 52.9122 24.3464 52.3839 23.3184 52.3839H17.9884C17.1465 52.3839 16.3436 52.7389 15.7772 53.3619C15.2109 53.9846 14.9338 54.8175 15.0134 55.6556L17.002 76.5229C17.1483 78.0565 18.4362 79.2277 19.977 79.2277H28.118C28.7904 79.2277 29.443 79.001 29.9707 78.584L31.7752 77.1582L54.4881 78.3882L68.4995 86.6932V91.1392H66.3766C64.7263 91.1392 63.3883 92.4771 63.3883 94.1274C63.3883 95.7778 64.7263 97.1157 66.3766 97.1157H99.3888C101.039 97.1157 102.377 95.7778 102.377 94.1274C102.377 92.4771 101.039 91.1392 99.3888 91.1392H97.2658V88.3292L115.687 75.8516C116.792 75.1033 117.267 73.7138 116.851 72.4463ZM70.4917 76.4614H57.222C54.5877 76.4614 52.4519 74.3258 52.4519 71.6913C52.4519 69.0568 54.5875 66.9212 57.222 66.9212H70.4917V76.4614ZM74.476 66.9212H75.7755C77.3549 66.9212 78.6449 68.1474 78.7532 69.6991H80.2778C81.3779 69.6991 82.27 70.591 82.27 71.6913C82.27 72.7916 81.3779 73.6835 80.2778 73.6835H78.7532C78.6449 75.2354 77.3549 76.4614 75.7755 76.4614H74.476V66.9212ZM93.2814 91.1392H72.4838V86.9177H93.2814V91.1392ZM85.0543 65.1097V59.4043H93.737L99.9936 65.1097H85.0543Z" fill="black"/>
</g>
<defs>
<clipPath id="clip0_1311_1550">
<rect width="102" height="102" fill="white" transform="translate(15 15)"/>
</clipPath>
</defs>
</svg>
