<svg width="41" height="41" viewBox="0 0 41 41" fill="none" xmlns="http://www.w3.org/2000/svg">
<g id="Aviation">
<g id="Group 93">
<g id="Group">
<g id="Group_2">
<path id="Vector" d="M35.3546 22.3813L34.5572 19.9496C34.4389 19.5886 34.102 19.3446 33.7221 19.3446H32.0415L31.9682 19.2777L29.4891 17.0171C29.3474 16.8879 29.168 16.8091 28.9786 16.7914L24.7636 16.7876V15.6905C24.7636 15.1753 24.346 14.7576 23.8308 14.7576H23.2299V13.5914H34.5071C34.9925 13.5914 35.386 13.1979 35.386 12.7125C35.386 12.2271 34.9925 11.8336 34.5071 11.8336H23.1432C23.0015 11.5381 22.7005 11.3335 22.351 11.3335C22.0015 11.3335 21.7005 11.5381 21.5589 11.8336H10.1949C9.70948 11.8336 9.31597 12.2271 9.31597 12.7125C9.31597 13.1979 9.70948 13.5914 10.1949 13.5914H21.4721V14.7576H20.8712C20.356 14.7576 19.9383 15.1753 19.9383 15.6905V16.7876H18.9597C18.772 16.7876 18.5893 16.8476 18.4382 16.959L16.9213 18.0772L10.0748 19.2573L8.58929 16.892C8.42851 16.636 8.14738 16.4806 7.84504 16.4806H6.27737C6.02975 16.4806 5.79362 16.585 5.62704 16.7682C5.46046 16.9514 5.37895 17.1964 5.40239 17.4429L5.98727 23.5803C6.03028 24.0314 6.40909 24.3758 6.86225 24.3758H9.25667C9.45443 24.3758 9.64638 24.3091 9.80159 24.1865L10.3323 23.7672L17.0126 24.1289L21.1336 26.5716V27.8792H20.5092C20.0238 27.8792 19.6303 28.2727 19.6303 28.7581C19.6303 29.2435 20.0238 29.637 20.5092 29.637H30.2187C30.7041 29.637 31.0976 29.2435 31.0976 28.7581C31.0976 28.2727 30.7041 27.8792 30.2187 27.8792H29.5942V27.0527L35.0124 23.3828C35.3372 23.1628 35.4769 22.7541 35.3546 22.3813ZM21.7195 23.5622H17.8167C17.0419 23.5622 16.4137 22.9341 16.4137 22.1592C16.4137 21.3844 17.0418 20.7563 17.8167 20.7563H21.7195V23.5622ZM22.8914 20.7563H23.2736C23.7381 20.7563 24.1175 21.1169 24.1494 21.5733H24.5978C24.9214 21.5733 25.1837 21.8356 25.1837 22.1592C25.1837 22.4828 24.9214 22.7452 24.5978 22.7452H24.1494C24.1175 23.2016 23.7381 23.5622 23.2736 23.5622H22.8914V20.7563ZM28.4224 27.8792H22.3054V26.6376H28.4224V27.8792ZM26.0026 20.2235V18.5454H28.5564L30.3966 20.2235H26.0026Z" fill="#1A5A96"/>
</g>
</g>
</g>
</g>
</svg>
