<svg width="26" height="16" viewBox="0 0 26 16" fill="none" xmlns="http://www.w3.org/2000/svg">
<g id="Group 93">
<g id="Group">
<g id="Group_2">
<path id="Vector" d="M25.3278 9.56261L24.6706 7.55831C24.5731 7.26077 24.2954 7.05962 23.9823 7.05962H22.597L22.5366 7.00451L20.4933 5.14123C20.3765 5.03474 20.2286 4.96978 20.0725 4.9552L16.5983 4.95206V4.04778C16.5983 3.62312 16.2541 3.27887 15.8294 3.27887H15.3342V2.3176H24.6293C25.0294 2.3176 25.3537 1.99325 25.3537 1.59317C25.3537 1.19309 25.0294 0.868743 24.6293 0.868743H15.2627C15.1459 0.62519 14.8979 0.456543 14.6098 0.456543C14.3217 0.456543 14.0735 0.62519 13.9569 0.868743H4.59014C4.19007 0.868743 3.86572 1.19309 3.86572 1.59317C3.86572 1.99325 4.19007 2.3176 4.59014 2.3176H13.8853V3.27887H13.39C12.9654 3.27887 12.6211 3.62312 12.6211 4.04778V4.95201H11.8145C11.6598 4.95201 11.5092 5.00151 11.3847 5.09332L10.1344 6.01499L4.49119 6.98766L3.26676 5.03812C3.13423 4.82707 2.90251 4.69899 2.65331 4.69899H1.36117C1.15708 4.69899 0.962445 4.78505 0.825142 4.93607C0.687838 5.08704 0.62066 5.28897 0.639978 5.49215L1.12206 10.5509C1.15751 10.9227 1.46974 11.2066 1.84325 11.2066H3.81684C3.97984 11.2066 4.13805 11.1516 4.26599 11.0505L4.70344 10.7049L10.2096 11.0031L13.6063 13.0164V14.0942H13.0917C12.6916 14.0942 12.3672 14.4186 12.3672 14.8186C12.3672 15.2187 12.6916 15.5431 13.0917 15.5431H21.0946C21.4947 15.5431 21.819 15.2187 21.819 14.8186C21.819 14.4186 21.4947 14.0942 21.0946 14.0942H20.5799V13.413L25.0458 10.3881C25.3135 10.2067 25.4287 9.86987 25.3278 9.56261ZM14.0892 10.536H10.8723C10.2337 10.536 9.71596 10.0182 9.71596 9.37958C9.71596 8.74092 10.2337 8.22319 10.8723 8.22319H14.0892V10.536ZM15.0551 8.22319H15.3702C15.7531 8.22319 16.0658 8.52045 16.092 8.89662H16.4617C16.7283 8.89662 16.9446 9.11284 16.9446 9.37958C16.9446 9.64631 16.7283 9.86253 16.4617 9.86253H16.092C16.0658 10.2387 15.7531 10.536 15.3702 10.536H15.0551V8.22319ZM19.614 14.0942H14.5722V13.0708H19.614V14.0942ZM17.6196 7.78405V6.40092H19.7245L21.2412 7.78405H17.6196Z" fill="white"/>
</g>
</g>
</g>
</svg>
