<svg width="24" height="24" viewBox="0 0 24 24" fill="none" xmlns="http://www.w3.org/2000/svg">
<g id="Back Arrow">
<path id="Icon" d="M16.5 19.4333C16.5 19.5868 16.4474 19.7196 16.3423 19.8318C16.2371 19.9439 16.1126 20 15.9688 20C15.8249 20 15.7004 19.9439 15.5952 19.8318L8.15771 11.8984C8.05257 11.7863 8 11.6535 8 11.5C8 11.3465 8.05257 11.2137 8.15771 11.1016L15.5952 3.16823C15.7004 3.05608 15.8249 3 15.9688 3C16.1126 3 16.2371 3.05608 16.3423 3.16823C16.4474 3.28038 16.5 3.41319 16.5 3.56667C16.5 3.72014 16.4474 3.85295 16.3423 3.9651L9.28662 11.5L16.3423 19.0349C16.4474 19.147 16.5 19.2799 16.5 19.4333Z" fill="#242424" stroke="#242424" stroke-width="0.5"/>
</g>
</svg>
