<svg width="16" height="16" viewBox="0 0 16 16" fill="none" xmlns="http://www.w3.org/2000/svg">
<path d="M1.5 8C1.5 9.28558 1.88122 10.5423 2.59545 11.6112C3.30968 12.6801 4.32484 13.5132 5.51256 14.0052C6.70028 14.4972 8.00721 14.6259 9.26809 14.3751C10.529 14.1243 11.6872 13.5052 12.5962 12.5962C13.5052 11.6872 14.1243 10.529 14.3751 9.26809C14.6259 8.00721 14.4972 6.70028 14.0052 5.51256C13.5132 4.32484 12.6801 3.30968 11.6112 2.59545C10.5423 1.88122 9.28558 1.5 8 1.5C6.27609 1.5 4.62279 2.18482 3.40381 3.40381C2.18482 4.62279 1.5 6.27609 1.5 8ZM12.2482 11.5982L4.40179 3.75179C5.46994 2.86268 6.83182 2.40488 8.22015 2.46825C9.60847 2.53162 10.923 3.11157 11.9057 4.09429C12.8884 5.07701 13.4684 6.39152 13.5317 7.77985C13.5951 9.16817 13.1373 10.5301 12.2482 11.5982ZM4.39714 12.2529C3.27279 11.2981 2.57297 9.93635 2.45112 8.46633C2.32927 6.99631 2.79534 5.53796 3.74714 4.41107L11.5889 12.2529C10.5834 13.1025 9.30947 13.5687 7.99303 13.5687C6.67659 13.5687 5.40268 13.1025 4.39714 12.2529Z" fill="#666666"/>
</svg>
