<svg width="14" height="14" viewBox="0 0 14 14" fill="none" xmlns="http://www.w3.org/2000/svg">
<path id="Vector" d="M0.5 7C0.5 8.28558 0.881218 9.54228 1.59545 10.6112C2.30968 11.6801 3.32484 12.5132 4.51256 13.0052C5.70028 13.4972 7.00721 13.6259 8.26809 13.3751C9.52896 13.1243 10.6872 12.5052 11.5962 11.5962C12.5052 10.6872 13.1243 9.52896 13.3751 8.26809C13.6259 7.00721 13.4972 5.70028 13.0052 4.51256C12.5132 3.32484 11.6801 2.30968 10.6112 1.59545C9.54228 0.881218 8.28558 0.5 7 0.5C5.27609 0.5 3.62279 1.18482 2.40381 2.40381C1.18482 3.62279 0.5 5.27609 0.5 7ZM11.2482 10.5982L3.40179 2.75179C4.46994 1.86268 5.83182 1.40488 7.22015 1.46825C8.60847 1.53162 9.92299 2.11157 10.9057 3.09429C11.8884 4.07701 12.4684 5.39152 12.5317 6.77985C12.5951 8.16817 12.1373 9.53006 11.2482 10.5982ZM3.39714 11.2529C2.27279 10.2981 1.57297 8.93635 1.45112 7.46633C1.32927 5.99631 1.79534 4.53796 2.74714 3.41107L10.5889 11.2529C9.58339 12.1025 8.30947 12.5687 6.99303 12.5687C5.67659 12.5687 4.40268 12.1025 3.39714 11.2529Z" fill="#666666"/>
</svg>
