<svg width="20" height="20" viewBox="0 0 20 20" fill="none" xmlns="http://www.w3.org/2000/svg">
<g id="oui:check-in-circle-filled" clip-path="url(#clip0_4361_25389)">
<path id="Vector" fill-rule="evenodd" clip-rule="evenodd" d="M10 20C7.34784 20 4.8043 18.9464 2.92893 17.0711C1.05357 15.1957 0 12.6522 0 10C0 7.34784 1.05357 4.8043 2.92893 2.92893C4.8043 1.05357 7.34784 0 10 0C12.6522 0 15.1957 1.05357 17.0711 2.92893C18.9464 4.8043 20 7.34784 20 10C20 12.6522 18.9464 15.1957 17.0711 17.0711C15.1957 18.9464 12.6522 20 10 20ZM14.5625 6.42875L8.6375 12.25L5.4375 9.1075C5.31861 8.99422 5.15991 8.93229 4.99572 8.93509C4.83153 8.93789 4.67504 9.00519 4.56008 9.12245C4.44512 9.23972 4.38092 9.39751 4.38138 9.56172C4.38183 9.72594 4.44689 9.88338 4.5625 10L8.19875 13.5713C8.31558 13.6858 8.47265 13.7499 8.63625 13.7499C8.79985 13.7499 8.95692 13.6858 9.07375 13.5713L15.4375 7.32125C15.4975 7.26412 15.5455 7.19563 15.5787 7.11978C15.612 7.04393 15.6299 6.96222 15.6313 6.8794C15.6327 6.79659 15.6176 6.71432 15.587 6.63737C15.5563 6.56043 15.5107 6.49035 15.4527 6.43121C15.3947 6.37206 15.3255 6.32503 15.2492 6.29285C15.1729 6.26067 15.0909 6.24398 15.0081 6.24375C14.9253 6.24352 14.8432 6.25976 14.7667 6.29152C14.6902 6.32328 14.6208 6.36993 14.5625 6.42875Z" fill="black"/>
</g>
<defs>
<clipPath id="clip0_4361_25389">
<rect width="20" height="20" fill="white"/>
</clipPath>
</defs>
</svg>
