<svg xmlns="http://www.w3.org/2000/svg" width="28" height="28" viewBox="0 0 28 28" fill="none">
    <path d="M3.5 21H12.25V22.75H3.5V21ZM3.5 15.75H12.25V17.5H3.5V15.75ZM22.75 12.25H5.25C4.78587 12.25 4.34075 12.0656 4.01256 11.7374C3.68437 11.4092 3.5 10.9641 3.5 10.5V5.25C3.5 4.78587 3.68437 4.34075 4.01256 4.01256C4.34075 3.68437 4.78587 3.5 5.25 3.5H22.75C23.2141 3.5 23.6592 3.68437 23.9874 4.01256C24.3156 4.34075 24.5 4.78587 24.5 5.25V10.5C24.5 10.9641 24.3156 11.4092 23.9874 11.7374C23.6592 12.0656 23.2141 12.25 22.75 12.25ZM5.25 5.25V10.5H22.75V5.25H5.25ZM22.75 24.5H17.5C17.0359 24.5 16.5908 24.3156 16.2626 23.9874C15.9344 23.6592 15.75 23.2141 15.75 22.75V17.5C15.75 17.0359 15.9344 16.5908 16.2626 16.2626C16.5908 15.9344 17.0359 15.75 17.5 15.75H22.75C23.2141 15.75 23.6592 15.9344 23.9874 16.2626C24.3156 16.5908 24.5 17.0359 24.5 17.5V22.75C24.5 23.2141 24.3156 23.6592 23.9874 23.9874C23.6592 24.3156 23.2141 24.5 22.75 24.5ZM17.5 17.5V22.75H22.75V17.5H17.5Z" fill="#1A5A96"/>
    </svg>