<svg width="32" height="32" viewBox="0 0 32 32" fill="none" xmlns="http://www.w3.org/2000/svg">
<rect x="1.5" y="1.5" width="29" height="29" rx="14.5" fill="#1A5A96"/>
<rect x="1.5" y="1.5" width="29" height="29" rx="14.5" stroke="#FDFDFD" stroke-width="3"/>
<path d="M16 6.8125C14.0862 6.81476 12.2514 7.57603 10.8981 8.92932C9.54479 10.2826 8.78352 12.1174 8.78126 14.0312C8.77897 15.5952 9.28984 17.1168 10.2355 18.3625C10.2355 18.3625 10.4324 18.6217 10.4645 18.6591L15.6186 24.7377C15.8183 24.9732 16.1817 24.9732 16.3814 24.7377L21.5381 18.6558C21.567 18.6211 21.7645 18.3625 21.7645 18.3625L21.7652 18.3605C22.7104 17.1154 23.221 15.5945 23.2188 14.0312C23.2165 12.1174 22.4552 10.2826 21.1019 8.92932C19.7487 7.57603 17.9138 6.81476 16 6.8125ZM16 16.6562C15.4808 16.6562 14.9733 16.5023 14.5416 16.2139C14.11 15.9254 13.7735 15.5155 13.5748 15.0358C13.3761 14.5561 13.3242 14.0283 13.4254 13.5191C13.5267 13.0099 13.7767 12.5422 14.1439 12.1751C14.511 11.808 14.9787 11.558 15.4879 11.4567C15.9971 11.3554 16.5249 11.4074 17.0045 11.6061C17.4842 11.8047 17.8942 12.1412 18.1826 12.5729C18.4711 13.0046 18.625 13.5121 18.625 14.0312C18.6241 14.7272 18.3473 15.3944 17.8552 15.8864C17.3631 16.3785 16.6959 16.6554 16 16.6562Z" fill="#FDFDFD"/>
</svg>
