<svg width="48" height="48" viewBox="0 0 48 48" fill="none" xmlns="http://www.w3.org/2000/svg">
<g id="carbon:calendar">
<path id="Vector" d="M39 6H33V4.5C33 3.67157 32.3284 3 31.5 3C30.6716 3 30 3.67157 30 4.5V6H18V4.5C18 3.67157 17.3284 3 16.5 3C15.6716 3 15 3.67157 15 4.5V6H9C7.35 6 6 7.35 6 9V39C6 40.65 7.35 42 9 42H39C40.65 42 42 40.65 42 39V9C42 7.35 40.65 6 39 6ZM39 39H9V18H39V39ZM39 15H9V9H15V10.5C15 11.3284 15.6716 12 16.5 12C17.3284 12 18 11.3284 18 10.5V9H30V10.5C30 11.3284 30.6716 12 31.5 12C32.3284 12 33 11.3284 33 10.5V9H39V15Z" fill="#1A5A96"/>
</g>
</svg>
