<svg width="16" height="16" viewBox="0 0 16 16" fill="none" xmlns="http://www.w3.org/2000/svg">
<g id="Details 16x16">
<path id="Vector" d="M13 2H11V1.5C11 1.22386 10.7761 1 10.5 1C10.2239 1 10 1.22386 10 1.5V2H6V1.5C6 1.22386 5.77614 1 5.5 1C5.22386 1 5 1.22386 5 1.5V2H3C2.45 2 2 2.45 2 3V13C2 13.55 2.45 14 3 14H13C13.55 14 14 13.55 14 13V3C14 2.45 13.55 2 13 2ZM13 13H3V6H13V13ZM13 5H3V3H5V3.5C5 3.77614 5.22386 4 5.5 4C5.77614 4 6 3.77614 6 3.5V3H10V3.5C10 3.77614 10.2239 4 10.5 4C10.7761 4 11 3.77614 11 3.5V3H13V5Z" fill="#484848"/>
</g>
</svg>
