<svg xmlns="http://www.w3.org/2000/svg" width="33" height="32" viewBox="0 0 33 32" fill="none">
    <path d="M29.5 26H3.5C3.23478 26 2.98043 25.8946 2.79289 25.7071C2.60536 25.5196 2.5 25.2652 2.5 25V8C2.5 7.73478 2.60536 7.48043 2.79289 7.29289C2.98043 7.10536 3.23478 7 3.5 7H9.96L11.67 4.45C11.7606 4.31244 11.8838 4.19938 12.0285 4.12088C12.1733 4.04238 12.3353 4.00085 12.5 4H20.5C20.6647 4.00085 20.8267 4.04238 20.9715 4.12088C21.1162 4.19938 21.2394 4.31244 21.33 4.45L23.04 7H29.5C29.7652 7 30.0196 7.10536 30.2071 7.29289C30.3946 7.48043 30.5 7.73478 30.5 8V25C30.5 25.2652 30.3946 25.5196 30.2071 25.7071C30.0196 25.8946 29.7652 26 29.5 26ZM4.5 24H28.5V9H22.5C22.3353 8.99915 22.1733 8.95763 22.0285 8.87912C21.8838 8.80062 21.7606 8.68756 21.67 8.55L19.96 6H13.04L11.33 8.55C11.2394 8.68756 11.1162 8.80062 10.9715 8.87912C10.8267 8.95763 10.6647 8.99915 10.5 9H4.5V24Z" fill="#A3A3A3"/>
    <path d="M16.5 22C15.3133 22 14.1533 21.6481 13.1666 20.9888C12.1799 20.3295 11.4109 19.3925 10.9567 18.2961C10.5026 17.1997 10.3838 15.9933 10.6153 14.8295C10.8468 13.6656 11.4182 12.5965 12.2574 11.7574C13.0965 10.9182 14.1656 10.3468 15.3295 10.1153C16.4933 9.88378 17.6997 10.0026 18.7961 10.4567C19.8925 10.9109 20.8295 11.6799 21.4888 12.6666C22.1481 13.6533 22.5 14.8133 22.5 16C22.5 17.5913 21.8679 19.1174 20.7426 20.2426C19.6174 21.3679 18.0913 22 16.5 22ZM16.5 12C15.7089 12 14.9355 12.2346 14.2777 12.6741C13.6199 13.1137 13.1072 13.7384 12.8045 14.4693C12.5017 15.2002 12.4225 16.0044 12.5769 16.7804C12.7312 17.5563 13.1122 18.269 13.6716 18.8284C14.231 19.3878 14.9437 19.7688 15.7196 19.9231C16.4956 20.0775 17.2998 19.9983 18.0307 19.6955C18.7616 19.3928 19.3864 18.8801 19.8259 18.2223C20.2654 17.5645 20.5 16.7911 20.5 16C20.5 14.9391 20.0786 13.9217 19.3284 13.1716C18.5783 12.4214 17.5609 12 16.5 12Z" fill="#A3A3A3"/>
    </svg>