<svg width="24" height="25" viewBox="0 0 24 25" fill="none" xmlns="http://www.w3.org/2000/svg">
    <g id="carbon:cancel">
    <path id="Union" fill-rule="evenodd" clip-rule="evenodd" d="M5.71156 4.82599C5.38351 4.49795 4.85166 4.49795 4.52362 4.82599C4.19558 5.15403 4.19558 5.68589 4.52362 6.01393L10.6613 12.1516L4.32563 18.4873C3.99759 18.8153 3.99759 19.3472 4.32563 19.6752C4.65367 20.0033 5.18552 20.0033 5.51357 19.6752L11.8492 13.3396L18.1849 19.6752C18.513 20.0033 19.0448 20.0033 19.3729 19.6752C19.7009 19.3472 19.7009 18.8153 19.3729 18.4873L13.0372 12.1516L19.1749 6.01393C19.5029 5.68589 19.5029 5.15403 19.1749 4.82599C18.8468 4.49795 18.315 4.49795 17.9869 4.82599L11.8492 10.9637L5.71156 4.82599Z" fill="#242424"/>
    </g>
    </svg>
    