<svg width="24" height="24" viewBox="0 0 24 24" fill="none" xmlns="http://www.w3.org/2000/svg">
<path fill-rule="evenodd" clip-rule="evenodd" d="M5.71156 4.32551C5.38351 3.99747 4.85166 3.99747 4.52362 4.32551C4.19558 4.65355 4.19558 5.1854 4.52362 5.51344L10.6613 11.6511L4.32563 17.9868C3.99759 18.3148 3.99759 18.8467 4.32563 19.1747C4.65367 19.5028 5.18552 19.5028 5.51357 19.1747L11.8492 12.8391L18.1849 19.1747C18.513 19.5028 19.0448 19.5028 19.3729 19.1747C19.7009 18.8467 19.7009 18.3148 19.3729 17.9868L13.0372 11.6511L19.1749 5.51344C19.5029 5.1854 19.5029 4.65355 19.1749 4.3255C18.8468 3.99746 18.315 3.99746 17.9869 4.32551L11.8492 10.4632L5.71156 4.32551Z" fill="#242424"/>
</svg>
