<svg width="18" height="17" viewBox="0 0 18 17" fill="none" xmlns="http://www.w3.org/2000/svg">
<g id="carbon:notification">
<path id="Vector" d="M15.7506 10.2494L14.3125 8.81131V6.90625C14.3109 5.58973 13.8211 4.32058 12.938 3.34421C12.0548 2.36784 10.841 1.75362 9.53125 1.62031V0.53125H8.46875V1.62031C7.15899 1.75362 5.94519 2.36784 5.06204 3.34421C4.17889 4.32058 3.68915 5.58973 3.6875 6.90625V8.81131L2.24941 10.2494C2.14977 10.349 2.09378 10.4841 2.09375 10.625V12.2188C2.09375 12.3596 2.14972 12.4948 2.24935 12.5944C2.34898 12.694 2.4841 12.75 2.625 12.75H6.34375V13.1628C6.33219 13.8367 6.56975 14.4913 7.01088 15.0009C7.45202 15.5106 8.06572 15.8395 8.73438 15.9248C9.10369 15.9614 9.47658 15.9203 9.82906 15.8042C10.1815 15.688 10.5058 15.4994 10.781 15.2504C11.0562 15.0014 11.2763 14.6976 11.427 14.3584C11.5778 14.0193 11.6558 13.6524 11.6562 13.2812V12.75H15.375C15.5159 12.75 15.651 12.694 15.7507 12.5944C15.8503 12.4948 15.9062 12.3596 15.9062 12.2188V10.625C15.9062 10.4841 15.8502 10.349 15.7506 10.2494ZM10.5938 13.2812C10.5938 13.7039 10.4258 14.1093 10.127 14.4082C9.82807 14.7071 9.42269 14.875 9 14.875C8.57731 14.875 8.17193 14.7071 7.87305 14.4082C7.57416 14.1093 7.40625 13.7039 7.40625 13.2812V12.75H10.5938V13.2812ZM14.8438 11.6875H3.15625V10.8449L4.59434 9.40684C4.69398 9.30724 4.74997 9.17213 4.75 9.03125V6.90625C4.75 5.77908 5.19777 4.69808 5.9948 3.90105C6.79183 3.10402 7.87283 2.65625 9 2.65625C10.1272 2.65625 11.2082 3.10402 12.0052 3.90105C12.8022 4.69808 13.25 5.77908 13.25 6.90625V9.03125C13.25 9.17213 13.306 9.30724 13.4057 9.40684L14.8438 10.8449V11.6875Z" fill="#1A5A96"/>
</g>
</svg>
