<svg width="22" height="22" viewBox="0 0 22 22" fill="none" xmlns="http://www.w3.org/2000/svg">
<g id="carbon:location">
<path id="Union" fill-rule="evenodd" clip-rule="evenodd" d="M11.0176 19.8893C11.1773 20.0777 11.468 20.0777 11.6277 19.8893L17.094 13.4423C17.1248 13.4061 17.33 13.1366 17.33 13.1366L17.3307 13.1346C18.3157 11.837 18.8479 10.252 18.8455 8.62291C18.8455 6.62773 18.0529 4.71426 16.6421 3.30346C15.2313 1.89265 13.3178 1.10007 11.3227 1.10007C9.32747 1.10007 7.41401 1.89265 6.0032 3.30346C4.5924 4.71426 3.79981 6.62773 3.79981 8.62291C3.79742 10.2528 4.32982 11.8384 5.31532 13.1366C5.39382 13.2401 5.47315 13.3429 5.55332 13.4451L11.0176 19.8893ZM6.6031 12.5683C6.56685 12.5232 6.40682 12.3125 6.40682 12.3125C5.60104 11.2514 5.16617 9.9553 5.1676 8.62291C5.1676 6.99049 5.81608 5.42493 6.97038 4.27063C8.12467 3.11633 9.69023 2.46786 11.3227 2.46786C12.9551 2.46786 14.5206 3.11633 15.6749 4.27063C16.8292 5.42493 17.4777 6.99049 17.4777 8.62291C17.4793 9.95448 17.0442 11.2498 16.2392 12.3105C16.2392 12.3105 16.0785 12.5232 16.0484 12.5608L11.6277 17.7747C11.468 17.9631 11.1773 17.9631 11.0176 17.7747L6.6031 12.5683ZM9.42284 11.466C9.98517 11.8417 10.6463 12.0422 11.3226 12.0422C12.2292 12.0412 13.0983 11.6805 13.7393 11.0395C14.3804 10.3985 14.741 9.52933 14.7421 8.62277C14.7421 7.94646 14.5415 7.28534 14.1658 6.72301C13.7901 6.16068 13.256 5.7224 12.6312 5.46358C12.0064 5.20477 11.3188 5.13705 10.6555 5.269C9.99218 5.40094 9.38289 5.72661 8.90467 6.20483C8.42645 6.68305 8.10077 7.29235 7.96883 7.95566C7.83689 8.61897 7.90461 9.30652 8.16342 9.93134C8.42223 10.5562 8.86051 11.0902 9.42284 11.466ZM10.1827 6.91685C10.5201 6.69141 10.9168 6.57108 11.3226 6.57108C11.8666 6.57162 12.3881 6.78796 12.7728 7.17261C13.1574 7.55725 13.3737 8.07879 13.3743 8.62277C13.3743 9.02855 13.254 9.42522 13.0285 9.76262C12.8031 10.1 12.4826 10.363 12.1077 10.5183C11.7329 10.6736 11.3203 10.7142 10.9223 10.635C10.5243 10.5559 10.1588 10.3605 9.87184 10.0735C9.58491 9.78659 9.3895 9.42102 9.31034 9.02303C9.23117 8.62504 9.2718 8.21252 9.42709 7.83762C9.58238 7.46272 9.84535 7.14229 10.1827 6.91685Z" fill="#1A5A96"/>
</g>
</svg>
