<svg width="24" height="25" viewBox="0 0 24 25" fill="none" xmlns="http://www.w3.org/2000/svg">
<g id="carbon:email">
<path id="Vector" d="M21 5.02539H3C2.60218 5.02539 2.22064 5.18343 1.93934 5.46473C1.65804 5.74603 1.5 6.12757 1.5 6.52539V18.5254C1.5 18.9232 1.65804 19.3047 1.93934 19.5861C2.22064 19.8674 2.60218 20.0254 3 20.0254H21C21.3978 20.0254 21.7794 19.8674 22.0607 19.5861C22.342 19.3047 22.5 18.9232 22.5 18.5254V6.52539C22.5 6.12757 22.342 5.74603 22.0607 5.46473C21.7794 5.18343 21.3978 5.02539 21 5.02539ZM19.35 6.52539L12 11.6104L4.65 6.52539H19.35ZM3 18.5254V7.20789L11.5725 13.1404C11.698 13.2275 11.8472 13.2742 12 13.2742C12.1528 13.2742 12.302 13.2275 12.4275 13.1404L21 7.20789V18.5254H3Z" fill="black"/>
</g>
</svg>
