<svg width="24" height="24" viewBox="0 0 24 24" fill="none" xmlns="http://www.w3.org/2000/svg">
<g id="carbon:finance">
<path id="Vector" d="M1.5 20.9999H22.5V22.4999H1.5V20.9999ZM20.25 8.24993C20.4489 8.24993 20.6397 8.17091 20.7803 8.03026C20.921 7.8896 21 7.69884 21 7.49993V5.24993C20.9999 5.09579 20.9524 4.94542 20.8638 4.81927C20.7752 4.69313 20.65 4.59733 20.505 4.54493L12.255 1.54493C12.0902 1.48535 11.9098 1.48535 11.745 1.54493L3.495 4.54493C3.35005 4.59733 3.22476 4.69313 3.13619 4.81927C3.04762 4.94542 3.00007 5.09579 3 5.24993V7.49993C3 7.69884 3.07902 7.8896 3.21967 8.03026C3.36032 8.17091 3.55109 8.24993 3.75 8.24993H4.5V17.9999H3V19.4999H21V17.9999H19.5V8.24993H20.25ZM4.5 5.77493L12 3.04493L19.5 5.77493V6.74993H4.5V5.77493ZM13.5 17.9999H10.5V8.24993H13.5V17.9999ZM6 8.24993H9V17.9999H6V8.24993ZM18 17.9999H15V8.24993H18V17.9999Z" fill="#242424"/>
</g>
</svg>
