<svg width="24" height="24" viewBox="0 0 24 24" fill="none" xmlns="http://www.w3.org/2000/svg">
<g id="carbon:smoke">
<path id="Vector" d="M20.2507 21C20.1343 21.0001 20.0194 20.9731 19.9153 20.921C19.8111 20.8689 19.7205 20.7932 19.6507 20.7L19.0395 19.8855C18.4604 19.1134 18.0536 18.2261 17.8465 17.2835C17.6395 16.3408 17.6371 15.3647 17.8395 14.421L18.9443 9.264C19.1017 8.52999 19.0998 7.77074 18.9388 7.03751C18.7777 6.30429 18.4611 5.61417 18.0105 5.01375L17.4 4.2C17.3409 4.12121 17.2979 4.03155 17.2735 3.93614C17.249 3.84073 17.2436 3.74144 17.2575 3.64394C17.2715 3.54644 17.3045 3.45263 17.3546 3.36788C17.4048 3.28313 17.4712 3.2091 17.55 3.15C17.6288 3.09091 17.7185 3.04791 17.8139 3.02347C17.9093 2.99902 18.0086 2.99361 18.1061 3.00754C18.2036 3.02147 18.2974 3.05447 18.3821 3.10465C18.4669 3.15483 18.5409 3.22121 18.6 3.3L19.2113 4.1145C19.7903 4.88648 20.197 5.77365 20.404 6.71619C20.611 7.65872 20.6135 8.63469 20.4113 9.57825L19.3057 14.7353C19.1483 15.4693 19.1502 16.2285 19.3112 16.9617C19.4723 17.695 19.7889 18.3851 20.2395 18.9855L20.85 19.8C20.9335 19.9114 20.9844 20.0438 20.997 20.1825C21.0095 20.3211 20.9832 20.4605 20.921 20.5851C20.8588 20.7096 20.7631 20.8144 20.6448 20.8877C20.5264 20.961 20.39 20.9999 20.2507 21ZM16.5007 21C16.3843 21.0001 16.2694 20.9731 16.1653 20.921C16.0611 20.8689 15.9705 20.7932 15.9008 20.7L15.2895 19.8855C14.7104 19.1134 14.3036 18.2261 14.0965 17.2835C13.8895 16.3408 13.8871 15.3647 14.0895 14.421L15.1943 9.264C15.3517 8.52999 15.3498 7.77074 15.1888 7.03751C15.0277 6.30429 14.7111 5.61417 14.2605 5.01375L13.65 4.2C13.5909 4.12121 13.5479 4.03155 13.5235 3.93614C13.499 3.84073 13.4936 3.74144 13.5075 3.64394C13.5215 3.54644 13.5545 3.45263 13.6046 3.36788C13.6548 3.28313 13.7212 3.2091 13.8 3.15C13.8788 3.09091 13.9685 3.04791 14.0639 3.02347C14.1593 2.99902 14.2586 2.99361 14.3561 3.00754C14.4536 3.02147 14.5474 3.05447 14.6321 3.10465C14.7169 3.15483 14.7909 3.22121 14.85 3.3L15.4613 4.1145C16.0403 4.88648 16.447 5.77365 16.654 6.71619C16.861 7.65872 16.8635 8.63469 16.6613 9.57825L15.5557 14.7353C15.3983 15.4693 15.4002 16.2285 15.5612 16.9617C15.7223 17.695 16.0389 18.3851 16.4895 18.9855L17.1 19.8C17.1835 19.9114 17.2344 20.0438 17.247 20.1825C17.2595 20.3211 17.2332 20.4605 17.171 20.5851C17.1088 20.7096 17.0132 20.8144 16.8948 20.8877C16.7764 20.961 16.64 20.9999 16.5007 21ZM12.7507 21C12.6343 21.0001 12.5194 20.9731 12.4153 20.921C12.3111 20.8689 12.2205 20.7932 12.1508 20.7L11.5395 19.8855C10.9604 19.1134 10.5536 18.2261 10.3465 17.2835C10.1395 16.3408 10.1371 15.3647 10.3395 14.421L11.4443 9.264C11.6017 8.52999 11.5998 7.77074 11.4388 7.03751C11.2777 6.30429 10.9611 5.61417 10.5105 5.01375L9.9 4.2C9.84091 4.12121 9.79791 4.03155 9.77346 3.93614C9.74902 3.84073 9.74361 3.74144 9.75754 3.64394C9.77147 3.54644 9.80446 3.45263 9.85464 3.36788C9.90482 3.28313 9.97121 3.2091 10.05 3.15C10.1288 3.09091 10.2185 3.04791 10.3139 3.02347C10.4093 2.99902 10.5086 2.99361 10.6061 3.00754C10.7036 3.02147 10.7974 3.05447 10.8821 3.10465C10.9669 3.15483 11.0409 3.22121 11.1 3.3L11.7105 4.1145C12.2897 4.88642 12.6965 5.77356 12.9037 6.7161C13.1108 7.65864 13.1134 8.63463 12.9113 9.57825L11.8057 14.7353C11.6483 15.4693 11.6502 16.2285 11.8112 16.9617C11.9723 17.695 12.2889 18.3851 12.7395 18.9855L13.35 19.8C13.4335 19.9114 13.4844 20.0438 13.497 20.1825C13.5095 20.3211 13.4832 20.4605 13.421 20.5851C13.3588 20.7096 13.2632 20.8144 13.1448 20.8877C13.0264 20.961 12.89 20.9999 12.7507 21ZM9.00075 21C8.8843 21.0001 8.76942 20.9731 8.66526 20.921C8.5611 20.8689 8.47053 20.7932 8.40075 20.7L7.7895 19.8855C7.21036 19.1134 6.80356 18.2261 6.59655 17.2835C6.38954 16.3408 6.38714 15.3647 6.5895 14.421L7.69425 9.264C7.85172 8.52999 7.84985 7.77074 7.68876 7.03751C7.52768 6.30429 7.21113 5.61417 6.7605 5.01375L6.15 4.2C6.0909 4.12121 6.04791 4.03155 6.02346 3.93614C5.99902 3.84073 5.99361 3.74144 6.00754 3.64394C6.02147 3.54644 6.05446 3.45263 6.10464 3.36788C6.15482 3.28313 6.22121 3.2091 6.3 3.15C6.37879 3.09091 6.46845 3.04791 6.56386 3.02347C6.65927 2.99902 6.75856 2.99361 6.85607 3.00754C6.95357 3.02147 7.04737 3.05447 7.13212 3.10465C7.21687 3.15483 7.29091 3.22121 7.35 3.3L7.96125 4.1145C8.54028 4.88648 8.94702 5.77365 9.15403 6.71619C9.36104 7.65872 9.3635 8.63469 9.16125 9.57825L8.05575 14.7353C7.89828 15.4693 7.90015 16.2285 8.06124 16.9617C8.22232 17.695 8.53887 18.3851 8.9895 18.9855L9.6 19.8C9.68353 19.9114 9.73442 20.0438 9.74695 20.1825C9.75949 20.3211 9.73319 20.4605 9.67099 20.5851C9.60879 20.7096 9.51315 20.8144 9.39478 20.8877C9.2764 20.961 9.13997 20.9999 9.00075 21ZM5.25075 21C5.13417 21.0002 5.01915 20.9732 4.91485 20.9212C4.81055 20.8691 4.71985 20.7933 4.65 20.7L4.03875 19.8855C3.45961 19.1134 3.05281 18.2261 2.8458 17.2835C2.63879 16.3408 2.63639 15.3647 2.83875 14.421L3.94425 9.264C4.10172 8.52999 4.09985 7.77074 3.93876 7.03751C3.77768 6.30429 3.46113 5.61417 3.0105 5.01375L2.4 4.2C2.34091 4.12121 2.29791 4.03155 2.27346 3.93614C2.24902 3.84073 2.24361 3.74144 2.25754 3.64394C2.28567 3.44702 2.39087 3.26935 2.55 3.15C2.70913 3.03066 2.90915 2.97941 3.10607 3.00754C3.30298 3.03567 3.48065 3.14087 3.6 3.3L4.21125 4.1145C4.79028 4.88648 5.19702 5.77365 5.40403 6.71619C5.61104 7.65872 5.6135 8.63469 5.41125 9.57825L4.30575 14.7353C4.14828 15.4693 4.15015 16.2285 4.31124 16.9617C4.47232 17.695 4.78887 18.3851 5.2395 18.9855L5.85 19.8C5.93353 19.9114 5.98442 20.0438 5.99695 20.1825C6.00949 20.3211 5.98319 20.4605 5.92099 20.5851C5.85879 20.7096 5.76315 20.8144 5.64478 20.8877C5.5264 20.961 5.38997 20.9999 5.25075 21Z" fill="#242424"/>
</g>
</svg>
