<svg width="24" height="24" viewBox="0 0 24 24" fill="none" xmlns="http://www.w3.org/2000/svg">
<g id="carbon:layers">
<path id="Vector" d="M12 18.0001C11.8759 18.0001 11.7537 17.9691 11.6445 17.9101L1.89453 12.6601L2.60553 11.3401L12 16.3981L21.3945 11.3401L22.1055 12.6601L12.3555 17.9101C12.2463 17.9691 12.1242 18.0001 12 18.0001Z" fill="#242424"/>
<path id="Vector_2" d="M12 22.5001C11.8759 22.5 11.7537 22.4691 11.6445 22.4101L1.8945 17.1601L2.6055 15.8401L12 20.8981L21.3945 15.8401L22.1055 17.1601L12.3555 22.4101C12.2463 22.4691 12.1241 22.5 12 22.5001ZM12 13.5001C11.8759 13.5 11.7537 13.4691 11.6445 13.4101L1.8945 8.16005C1.77544 8.09579 1.67598 8.00052 1.60665 7.88433C1.53733 7.76813 1.50073 7.63535 1.50073 7.50005C1.50073 7.36476 1.53733 7.23198 1.60665 7.11578C1.67598 6.99959 1.77544 6.90432 1.8945 6.84005L11.6445 1.59005C11.7537 1.53111 11.8759 1.50024 12 1.50024C12.1241 1.50024 12.2463 1.53111 12.3555 1.59005L22.1055 6.84005C22.2246 6.90432 22.324 6.99959 22.3933 7.11578C22.4627 7.23198 22.4993 7.36476 22.4993 7.50005C22.4993 7.63535 22.4627 7.76813 22.3933 7.88433C22.324 8.00052 22.2246 8.09579 22.1055 8.16005L12.3555 13.4101C12.2463 13.4691 12.1241 13.5 12 13.5001ZM3.8325 7.50005L12 11.8981L20.1675 7.50005L12 3.10205L3.8325 7.50005Z" fill="#242424"/>
</g>
</svg>
