<svg width="24" height="24" viewBox="0 0 24 24" fill="none" xmlns="http://www.w3.org/2000/svg">
<g id="gauge 1">
<g id="Group">
<path id="Vector" fill-rule="evenodd" clip-rule="evenodd" d="M3.03075 15H4.5C4.914 15 5.25 14.664 5.25 14.25C5.25 13.836 4.914 13.5 4.5 13.5H3.03075C3.18975 11.5793 3.9525 9.82875 5.12925 8.43975L6.1665 9.477C6.459 9.7695 6.9345 9.7695 7.227 9.477C7.5195 9.1845 7.5195 8.709 7.227 8.4165L6.18975 7.37925C7.5795 6.2025 9.32925 5.43975 11.25 5.28075V6.75C11.25 7.164 11.586 7.5 12 7.5C12.414 7.5 12.75 7.164 12.75 6.75V5.28075C14.6707 5.43975 16.4213 6.2025 17.8103 7.37925L16.773 8.4165C16.4805 8.709 16.4805 9.1845 16.773 9.477C17.0655 9.7695 17.541 9.7695 17.8335 9.477L18.8708 8.43975C20.0475 9.8295 20.8102 11.5793 20.9692 13.5H19.5C19.086 13.5 18.75 13.836 18.75 14.25C18.75 14.664 19.086 15 19.5 15H20.9692C20.8455 16.4993 20.3535 17.8943 19.584 19.095C19.3605 19.4438 19.4625 19.908 19.8105 20.1315C20.1593 20.355 20.6235 20.253 20.847 19.905C21.8932 18.2723 22.5 16.3313 22.5 14.25C22.5 8.45475 17.7952 3.75 12 3.75C6.20475 3.75 1.5 8.45475 1.5 14.25C1.5 16.3313 2.10675 18.2723 3.153 19.905C3.3765 20.253 3.84075 20.355 4.1895 20.1315C4.5375 19.908 4.6395 19.4438 4.416 19.095C3.6465 17.8943 3.1545 16.4993 3.03075 15Z" fill="#242424"/>
<path id="Vector_2" fill-rule="evenodd" clip-rule="evenodd" d="M12.411 15.7875C12.2782 15.7628 12.1402 15.75 12 15.75C10.758 15.75 9.75 16.758 9.75 18C9.75 19.242 10.758 20.25 12 20.25C13.242 20.25 14.25 19.242 14.25 18C14.25 17.442 14.0467 16.9313 13.71 16.5383L16.1138 12.375C16.3208 12.0165 16.1978 11.5575 15.8393 11.3505C15.4808 11.1435 15.0217 11.2665 14.8147 11.625L12.411 15.7875ZM12 17.25C12.414 17.25 12.75 17.586 12.75 18C12.75 18.414 12.414 18.75 12 18.75C11.586 18.75 11.25 18.414 11.25 18C11.25 17.586 11.586 17.25 12 17.25Z" fill="#242424"/>
</g>
</g>
</svg>
