<svg width="24" height="24" viewBox="0 0 24 24" fill="none" xmlns="http://www.w3.org/2000/svg">
<path d="M12 15.75C11.7775 15.75 11.56 15.816 11.375 15.9396C11.19 16.0632 11.0458 16.2389 10.9606 16.4445C10.8755 16.65 10.8532 16.8762 10.8966 17.0945C10.94 17.3127 11.0472 17.5132 11.2045 17.6705C11.3618 17.8278 11.5623 17.935 11.7805 17.9784C11.9988 18.0218 12.225 17.9995 12.4305 17.9144C12.6361 17.8292 12.8118 17.685 12.9354 17.5C13.059 17.315 13.125 17.0975 13.125 16.875C13.125 16.5766 13.0065 16.2905 12.7955 16.0795C12.5845 15.8685 12.2984 15.75 12 15.75ZM11.25 6H12.75V13.5H11.25V6Z" fill="#548ADB"/>
<path d="M17.2502 21.75H6.75022C6.61912 21.75 6.4903 21.7157 6.3766 21.6504C6.2629 21.5852 6.1683 21.4912 6.10222 21.378L0.852222 12.378C0.785276 12.2633 0.75 12.1328 0.75 12C0.75 11.8672 0.785276 11.7367 0.852222 11.622L6.10222 2.622C6.1683 2.50877 6.2629 2.41483 6.3766 2.34956C6.4903 2.28429 6.61912 2.24996 6.75022 2.25H17.2502C17.3813 2.24996 17.5101 2.28429 17.6238 2.34956C17.7375 2.41483 17.8321 2.50877 17.8982 2.622L23.1482 11.622C23.2152 11.7367 23.2504 11.8672 23.2504 12C23.2504 12.1328 23.2152 12.2633 23.1482 12.378L17.8982 21.378C17.8321 21.4912 17.7375 21.5852 17.6238 21.6504C17.5101 21.7157 17.3813 21.75 17.2502 21.75ZM7.18072 20.25H16.8197L21.6317 12L16.8197 3.75H7.18072L2.36872 12L7.18072 20.25Z" fill="#548ADB"/>
</svg>
