<svg width="16" height="16" viewBox="0 0 16 16" fill="none" xmlns="http://www.w3.org/2000/svg">
<g id="carbon:temperature-celsius">
<path id="Vector" d="M8.66667 10.6724V6H7.33333V10.6724C6.88853 10.8071 6.51363 11.0721 6.27492 11.4206C6.0362 11.7691 5.94903 12.1787 6.02881 12.5769C6.10859 12.9751 6.35018 13.3363 6.7109 13.5967C7.07161 13.8572 7.52821 14 8 14C8.47179 14 8.92839 13.8572 9.2891 13.5967C9.64982 13.3363 9.89141 12.9751 9.97119 12.5769C10.051 12.1787 9.9638 11.7691 9.72508 11.4206C9.48637 11.0721 9.11147 10.8071 8.66667 10.6724Z" fill="#666666"/>
<path id="Vector_2" d="M8 16C7.21265 16.0009 6.4426 15.7691 5.78653 15.3337C5.13045 14.8984 4.61762 14.2789 4.31241 13.553C4.0072 12.8271 3.92323 12.0273 4.07104 11.2538C4.21885 10.4804 4.59186 9.76785 5.14321 9.20571V2.85714C5.14321 2.09938 5.44419 1.37266 5.97995 0.836838C6.5157 0.301019 7.24233 0 8 0C8.75767 0 9.4843 0.301019 10.0201 0.836838C10.5558 1.37266 10.8568 2.09938 10.8568 2.85714V9.20571C11.4081 9.76785 11.7811 10.4804 11.929 11.2538C12.0768 12.0273 11.9928 12.8271 11.6876 13.553C11.3824 14.2789 10.8695 14.8984 10.2135 15.3337C9.5574 15.7691 8.78734 16.0009 8 16ZM8 1.14286C7.54554 1.14331 7.10982 1.32407 6.78847 1.64546C6.46712 1.96685 6.28638 2.40262 6.28593 2.85714V9.70457L6.09624 9.87543C5.66479 10.2611 5.36062 10.7687 5.22399 11.3311C5.08736 11.8934 5.1247 12.484 5.33109 13.0247C5.53747 13.5654 5.90315 14.0306 6.37974 14.3589C6.85633 14.6871 7.42134 14.8628 8 14.8628C8.57866 14.8628 9.14367 14.6871 9.62026 14.3589C10.0968 14.0306 10.4625 13.5654 10.6689 13.0247C10.8753 12.484 10.9126 11.8934 10.776 11.3311C10.6394 10.7687 10.3352 10.2611 9.90376 9.87543L9.71407 9.70457V2.85714C9.71362 2.40262 9.53288 1.96685 9.21153 1.64546C8.89018 1.32407 8.45446 1.14331 8 1.14286Z" fill="#666666"/>
</g>
</svg>
