<svg width="20" height="20" viewBox="0 0 20 20" fill="none" xmlns="http://www.w3.org/2000/svg">
<path d="M16.25 2.5H13.75V1.875C13.75 1.52982 13.4702 1.25 13.125 1.25C12.7798 1.25 12.5 1.52982 12.5 1.875V2.5H7.5V1.875C7.5 1.52982 7.22018 1.25 6.875 1.25C6.52982 1.25 6.25 1.52982 6.25 1.875V2.5H3.75C3.0625 2.5 2.5 3.0625 2.5 3.75V16.25C2.5 16.9375 3.0625 17.5 3.75 17.5H16.25C16.9375 17.5 17.5 16.9375 17.5 16.25V3.75C17.5 3.0625 16.9375 2.5 16.25 2.5ZM16.25 16.25H3.75V7.5H16.25V16.25ZM16.25 6.25H3.75V3.75H6.25V4.375C6.25 4.72018 6.52982 5 6.875 5C7.22018 5 7.5 4.72018 7.5 4.375V3.75H12.5V4.375C12.5 4.72018 12.7798 5 13.125 5C13.4702 5 13.75 4.72018 13.75 4.375V3.75H16.25V6.25Z" fill="#242424"/>
</svg>
