<svg width="20" height="21" viewBox="0 0 20 21" fill="none" xmlns="http://www.w3.org/2000/svg">
<path d="M18.125 6.75H1.875C1.70924 6.75 1.55027 6.81585 1.43306 6.93306C1.31585 7.05027 1.25 7.20924 1.25 7.375V13.625C1.25 13.7908 1.31585 13.9497 1.43306 14.0669C1.55027 14.1842 1.70924 14.25 1.875 14.25H18.125C18.2908 14.25 18.4497 14.1842 18.5669 14.0669C18.6842 13.9497 18.75 13.7908 18.75 13.625V7.375C18.75 7.20924 18.6842 7.05027 18.5669 6.93306C18.4497 6.81585 18.2908 6.75 18.125 6.75ZM17.5 13H2.5V8H5V10.5H6.25V8H9.375V10.5H10.625V8H13.75V10.5H15V8H17.5V13Z" fill="#242424"/>
</svg>
