<svg width="20" height="20" viewBox="0 0 20 20" fill="none" xmlns="http://www.w3.org/2000/svg">
<g id="carbon:download">
<path id="Vector" d="M16.875 15C16.5298 15 16.25 15.2798 16.25 15.625V17.1C16.25 17.3209 16.0709 17.5 15.85 17.5H4.15C3.92909 17.5 3.75 17.3209 3.75 17.1V15.625C3.75 15.2798 3.47018 15 3.125 15C2.77982 15 2.5 15.2798 2.5 15.625V17.5C2.5 17.8315 2.6317 18.1495 2.86612 18.3839C3.10054 18.6183 3.41848 18.75 3.75 18.75H16.25C16.5815 18.75 16.8995 18.6183 17.1339 18.3839C17.3683 18.1495 17.5 17.8315 17.5 17.5V15.625C17.5 15.2798 17.2202 15 16.875 15Z" fill="#242424"/>
<path id="Vector_2" d="M15.8092 9.19077C16.0527 8.94734 16.0527 8.55266 15.8092 8.30923C15.5659 8.06591 15.1715 8.06578 14.928 8.30894L10.625 12.6062V1.875C10.625 1.52982 10.3452 1.25 10 1.25C9.65482 1.25 9.375 1.52982 9.375 1.875V12.6062L5.07202 8.30894C4.82854 8.06578 4.43409 8.06591 4.19077 8.30923C3.94734 8.55266 3.94734 8.94734 4.19077 9.19077L9.71716 14.7172C9.87337 14.8734 10.1266 14.8734 10.2828 14.7172L15.8092 9.19077Z" fill="#242424"/>
</g>
</svg>
