<svg width="24" height="24" viewBox="0 0 24 24" fill="none" xmlns="http://www.w3.org/2000/svg">
<g id="carbon:partly-cloudy">
<path id="Vector" d="M20.2497 11.25H23.2497V12.75H20.2497V11.25ZM17.2497 5.69025L19.4997 3.44025L20.561 4.5L18.311 6.75L17.2497 5.69025ZM11.2497 0.75H12.7497V3.75H11.2497V0.75ZM3.43923 19.5L5.68923 17.25L6.75048 18.3113L4.50048 20.5613L3.43923 19.5ZM3.43848 4.5L4.49973 3.44025L6.74973 5.69025L5.68923 6.7515L3.43848 4.5Z" fill="#666666"/>
<path id="Vector_2" d="M0.75 11.25H3.75V12.75H0.75V11.25ZM20.0955 15.2565C19.8623 14.3266 19.3776 13.4789 18.6945 12.8063C18.7301 12.539 18.7486 12.2697 18.75 12C18.7531 10.8561 18.4654 9.73012 17.914 8.72787C17.3626 7.72561 16.5655 6.87994 15.5975 6.27026C14.6296 5.66058 13.5226 5.3069 12.3805 5.24242C11.2384 5.17794 10.0986 5.40479 9.06819 5.90166C8.03779 6.39852 7.15057 7.14911 6.48983 8.08294C5.8291 9.01676 5.41654 10.1032 5.29087 11.2402C5.16521 12.3772 5.33058 13.5275 5.77145 14.5831C6.21232 15.6387 6.91422 16.5649 7.81125 17.2748C7.56286 17.8442 7.4605 18.4665 7.51345 19.0855C7.56641 19.7045 7.773 20.3004 8.11451 20.8193C8.45602 21.3383 8.92164 21.7638 9.46916 22.0572C10.0167 22.3507 10.6288 22.5029 11.25 22.5H18.75C19.6253 22.5006 20.4732 22.1947 21.1465 21.6353C21.8197 21.076 22.2759 20.2985 22.4358 19.4379C22.5956 18.5774 22.4491 17.688 22.0216 16.9241C21.5941 16.1603 20.9126 15.5703 20.0955 15.2565ZM6.75 12C6.74314 10.6234 7.27763 9.29925 8.23821 8.31315C9.19879 7.32705 10.5085 6.75802 11.8848 6.72879C13.2611 6.69957 14.5938 7.21248 15.5954 8.15691C16.5969 9.10134 17.1872 10.4016 17.2388 11.7773C16.5416 11.4355 15.7764 11.2553 15 11.25C13.8261 11.2564 12.6879 11.6538 11.7651 12.3793C10.8423 13.1049 10.1876 14.1173 9.9045 15.2565C9.44578 15.4348 9.02677 15.7019 8.6715 16.0425C8.07182 15.5531 7.58837 14.9365 7.25606 14.2374C6.92376 13.5383 6.75091 12.7741 6.75 12ZM18.75 21H11.25C10.6988 21.0016 10.1664 20.8004 9.75394 20.4348C9.34153 20.0692 9.07798 19.5646 9.0135 19.0172C8.94902 18.4699 9.08809 17.9179 9.40425 17.4664C9.72041 17.015 10.1916 16.6956 10.728 16.569L11.2215 16.4513L11.2957 15.9488C11.4264 15.0596 11.8724 14.2471 12.5525 13.6596C13.2326 13.0721 14.1013 12.7489 15 12.7489C15.8987 12.7489 16.7674 13.0721 17.4475 13.6596C18.1276 14.2471 18.5736 15.0596 18.7043 15.9488L18.7785 16.4513L19.272 16.5683C19.8092 16.6941 20.2812 17.0134 20.598 17.4651C20.9148 17.9168 21.0543 18.4693 20.9897 19.0172C20.9252 19.5651 20.6612 20.0701 20.2481 20.4359C19.835 20.8016 19.3017 21.0024 18.75 21Z" fill="#666666"/>
</g>
</svg>
