<svg width="24" height="24" viewBox="0 0 24 24" fill="none" xmlns="http://www.w3.org/2000/svg">
<path d="M19.5002 4.5V6.1275L4.2302 8.9025C3.88076 8.96639 3.56534 9.15223 3.3401 9.42692C3.11485 9.7016 2.99441 10.0473 3.0002 10.4025V13.6575C2.99441 14.0127 3.11485 14.3584 3.3401 14.6331C3.56534 14.9078 3.88076 15.0936 4.2302 15.1575L6.0002 15.42V18C6.0002 18.3978 6.15824 18.7794 6.43954 19.0607C6.72084 19.342 7.10238 19.5 7.5002 19.5H13.5002C13.898 19.5 14.2796 19.342 14.5609 19.0607C14.8422 18.7794 15.0002 18.3978 15.0002 18V17.055L19.5002 17.8725V19.5H21.0002V4.5H19.5002ZM13.5002 18H7.5002V15.6975L13.5002 16.785V18ZM4.5002 13.6275V10.3725L19.5002 7.65V16.35L4.5002 13.6275Z" fill="#548ADB"/>
</svg>
