<svg width="24" height="25" viewBox="0 0 24 25" fill="none" xmlns="http://www.w3.org/2000/svg">
<g id="carbon:phone">
<path id="Vector" d="M19.4993 22.2754H19.3718C4.63433 21.4279 2.54183 8.99289 2.24933 5.19789C2.22576 4.90283 2.26065 4.60601 2.35199 4.32445C2.44333 4.04289 2.58933 3.78212 2.78162 3.55708C2.97391 3.33204 3.20872 3.14716 3.47259 3.01302C3.73646 2.87888 4.0242 2.79813 4.31933 2.77539H8.45183C8.75225 2.7751 9.04583 2.86502 9.29456 3.03351C9.54328 3.202 9.73568 3.44129 9.84683 3.72039L10.9868 6.52539C11.0966 6.79805 11.1238 7.09695 11.0652 7.38496C11.0065 7.67297 10.8645 7.93739 10.6568 8.14539L9.05933 9.75789C9.30887 11.176 9.98797 12.4831 11.0048 13.5026C12.0215 14.5221 13.3269 15.2046 14.7443 15.4579L16.3718 13.8454C16.583 13.64 16.8499 13.5013 17.1393 13.4466C17.4287 13.392 17.7278 13.4237 17.9993 13.5379L20.8268 14.6704C21.1017 14.7851 21.3363 14.979 21.5005 15.2274C21.6648 15.4758 21.7514 15.7676 21.7493 16.0654V20.0254C21.7493 20.6221 21.5123 21.1944 21.0903 21.6164C20.6684 22.0383 20.0961 22.2754 19.4993 22.2754ZM4.49933 4.27539C4.30042 4.27539 4.10965 4.35441 3.969 4.49506C3.82835 4.63571 3.74933 4.82648 3.74933 5.02539V5.08539C4.09433 9.52539 6.30683 20.0254 19.4543 20.7754C19.5529 20.7815 19.6516 20.7681 19.745 20.7359C19.8383 20.7037 19.9244 20.6535 19.9982 20.588C20.0721 20.5225 20.1323 20.443 20.1754 20.3542C20.2185 20.2654 20.2436 20.1689 20.2493 20.0704V16.0654L17.4218 14.9329L15.2693 17.0704L14.9093 17.0254C8.38433 16.2079 7.49933 9.68289 7.49933 9.61539L7.45433 9.25539L9.58433 7.10289L8.45933 4.27539H4.49933Z" fill="black"/>
</g>
</svg>
