<svg width="68" height="68" viewBox="0 0 68 68" fill="none" xmlns="http://www.w3.org/2000/svg">
<g id="carbon:crop-growth">
<path id="Vector" d="M55.25 27.625C57.5035 27.6222 59.6639 26.7258 61.2573 25.1323C62.8507 23.5389 63.7472 21.3785 63.75 19.125V12.75H57.375C55.1993 12.7532 53.1086 13.595 51.5376 15.1002C50.4368 13.1028 48.8206 11.437 46.8574 10.2762C44.8942 9.11535 42.6557 8.50201 40.375 8.5H34V14.875C34.0039 18.2553 35.3485 21.496 37.7387 23.8863C40.129 26.2765 43.3697 27.6211 46.75 27.625H48.875V55.25H23.375V44.625H25.5C27.7535 44.6222 29.9139 43.7257 31.5073 42.1323C33.1008 40.5389 33.9972 38.3785 34 36.125V29.75H27.625C25.4493 29.7532 23.3586 30.595 21.7876 32.1003C20.6868 30.1028 19.0706 28.437 17.1074 27.2762C15.1442 26.1153 12.9057 25.502 10.625 25.5H4.25V31.875C4.25394 35.2553 5.5985 38.496 7.98874 40.8863C10.379 43.2765 13.6197 44.6211 17 44.625H19.125V55.25H4.25V59.5H63.75V55.25H53.125V27.625H55.25ZM53.125 21.25C53.1261 20.1232 53.5743 19.0428 54.371 18.246C55.1678 17.4493 56.2482 17.0011 57.375 17H59.5V19.125C59.4989 20.2518 59.0507 21.3322 58.254 22.129C57.4572 22.9257 56.3768 23.3739 55.25 23.375H53.125V21.25ZM23.375 38.25C23.3761 37.1232 23.8243 36.0428 24.621 35.246C25.4178 34.4493 26.4982 34.0011 27.625 34H29.75V36.125C29.7489 37.2518 29.3007 38.3322 28.504 39.129C27.7072 39.9257 26.6268 40.3739 25.5 40.375H23.375V38.25ZM19.125 40.375H17C14.7465 40.3722 12.5861 39.4758 10.9927 37.8823C9.39925 36.2889 8.50281 34.1285 8.5 31.875V29.75H10.625C12.8785 29.7528 15.0389 30.6492 16.6323 32.2427C18.2258 33.8361 19.1222 35.9965 19.125 38.25V40.375ZM48.875 23.375H46.75C44.4965 23.3722 42.3361 22.4758 40.7427 20.8823C39.1493 19.2889 38.2528 17.1285 38.25 14.875V12.75H40.375C42.6285 12.7528 44.7889 13.6492 46.3823 15.2427C47.9757 16.8361 48.8722 18.9965 48.875 21.25V23.375Z" fill="#909090"/>
</g>
</svg>
