<svg width="16" height="16" viewBox="0 0 16 16" fill="none" xmlns="http://www.w3.org/2000/svg">
<g id="carbon:humidity">
<path id="Vector" d="M11.738 6.9965L8.4235 1.7185C8.37541 1.65101 8.31188 1.59598 8.23822 1.55802C8.16455 1.52005 8.08287 1.50024 8 1.50024C7.91713 1.50024 7.83545 1.52005 7.76178 1.55802C7.68812 1.59598 7.62459 1.65101 7.5765 1.7185L4.247 7.0215C3.78444 7.76763 3.52678 8.62253 3.5 9.5C3.5 10.6935 3.97411 11.8381 4.81802 12.682C5.66193 13.5259 6.80653 14 8 14C9.19347 14 10.3381 13.5259 11.182 12.682C12.0259 11.8381 12.5 10.6935 12.5 9.5C12.4713 8.6129 12.2084 7.74919 11.738 6.9965ZM8 13C7.07211 12.9988 6.18256 12.6297 5.52644 11.9736C4.87032 11.3174 4.50119 10.4279 4.5 9.5C4.52658 8.8008 4.7366 8.12088 5.109 7.5285L5.5765 6.7835L10.6135 11.8205C10.2864 12.1911 9.88417 12.488 9.4336 12.6915C8.98303 12.8949 8.49437 12.9997 8 13Z" fill="#666666"/>
</g>
</svg>
