<svg width="24" height="24" viewBox="0 0 24 24" fill="none" xmlns="http://www.w3.org/2000/svg">
<path d="M3.6 16C3.4375 16 3.29688 15.9443 3.17812 15.833C3.05937 15.7217 3 15.5898 3 15.4375C3 15.2852 3.05937 15.1533 3.17812 15.042L11.5781 7.16699C11.6969 7.05566 11.8375 7 12 7C12.1625 7 12.3031 7.05566 12.4219 7.16699L20.8219 15.042C20.9406 15.1533 21 15.2852 21 15.4375C21 15.5898 20.9406 15.7217 20.8219 15.833C20.7031 15.9443 20.5625 16 20.4 16C20.2375 16 20.0969 15.9443 19.9781 15.833L12 8.3623L4.02187 15.833C3.90312 15.9443 3.7625 16 3.6 16Z" fill="#242424" stroke="#242424" stroke-width="0.5"/>
</svg>
