<svg xmlns="http://www.w3.org/2000/svg" width="28" height="28" viewBox="0 0 28 28" fill="none">
    <path d="M15.5225 26.25L14 25.375L17.5 19.25H22.75C23.2141 19.25 23.6592 19.0656 23.9874 18.7374C24.3156 18.4092 24.5 17.9641 24.5 17.5V7C24.5 6.53587 24.3156 6.09075 23.9874 5.76256C23.6592 5.43437 23.2141 5.25 22.75 5.25H5.25C4.78587 5.25 4.34075 5.43437 4.01256 5.76256C3.68437 6.09075 3.5 6.53587 3.5 7V17.5C3.5 17.9641 3.68437 18.4092 4.01256 18.7374C4.34075 19.0656 4.78587 19.25 5.25 19.25H13.125V21H5.25C4.32174 21 3.4315 20.6313 2.77513 19.9749C2.11875 19.3185 1.75 18.4283 1.75 17.5V7C1.75 6.07174 2.11875 5.1815 2.77513 4.52513C3.4315 3.86875 4.32174 3.5 5.25 3.5H22.75C23.6783 3.5 24.5685 3.86875 25.2249 4.52513C25.8813 5.1815 26.25 6.07174 26.25 7V17.5C26.25 18.4283 25.8813 19.3185 25.2249 19.9749C24.5685 20.6313 23.6783 21 22.75 21H18.515L15.5225 26.25Z" fill="#1A5A96"/>
    <path d="M7 8.75H21V10.5H7V8.75ZM7 14H15.75V15.75H7V14Z" fill="#1A5A96"/>
    </svg>