<svg width="22" height="23" viewBox="0 0 22 23" fill="none" xmlns="http://www.w3.org/2000/svg">
<g id="fluent:checkmark-24-filled">
<g id="Group">
<path id="Vector" d="M8.61588 14.2386L5.83046 11.4419C5.69196 11.3076 5.50646 11.2333 5.31391 11.235C5.12137 11.2367 4.93718 11.3142 4.80103 11.4509C4.66487 11.5876 4.58764 11.7725 4.58597 11.9659C4.58429 12.1592 4.65831 12.3454 4.79208 12.4845L8.09669 15.8024C8.2344 15.9407 8.42115 16.0183 8.61588 16.0183C8.8106 16.0183 8.99736 15.9407 9.13507 15.8024L17.213 7.69193C17.3468 7.55287 17.4208 7.36662 17.4191 7.17329C17.4174 6.97997 17.3402 6.79504 17.2041 6.65834C17.0679 6.52163 16.8837 6.44409 16.6912 6.44241C16.4986 6.44073 16.3131 6.51505 16.1746 6.64936L8.61588 14.2386Z" fill="#484848"/>
</g>
</g>
</svg>
