<svg width="48" height="48" viewBox="0 0 48 48" fill="none" xmlns="http://www.w3.org/2000/svg">
<path d="M15.5 27.5C15.5 26.6716 16.1716 26 17 26H26C26.8284 26 27.5 26.6716 27.5 27.5C27.5 28.3284 26.8284 29 26 29H17C16.1716 29 15.5 28.3284 15.5 27.5Z" fill="#1A5A96"/>
<path d="M15.5 20C15.5 19.1716 16.1716 18.5 17 18.5H32C32.8284 18.5 33.5 19.1716 33.5 20C33.5 20.8284 32.8284 21.5 32 21.5H17C16.1716 21.5 15.5 20.8284 15.5 20Z" fill="#1A5A96"/>
<path d="M15.5 35C15.5 34.1716 16.1716 33.5 17 33.5H21.5C22.3284 33.5 23 34.1716 23 35C23 35.8284 22.3284 36.5 21.5 36.5H17C16.1716 36.5 15.5 35.8284 15.5 35Z" fill="#1A5A96"/>
<path d="M38 6.5H33.5V5C33.5 4.20435 33.1839 3.44129 32.6213 2.87868C32.0587 2.31607 31.2956 2 30.5 2H18.5C17.7044 2 16.9413 2.31607 16.3787 2.87868C15.8161 3.44129 15.5 4.20435 15.5 5V6.5H11C10.2044 6.5 9.44129 6.81607 8.87868 7.37868C8.31607 7.94129 8 8.70435 8 9.5V41C8 41.7956 8.31607 42.5587 8.87868 43.1213C9.44129 43.6839 10.2044 44 11 44H38C38.7957 44 39.5587 43.6839 40.1213 43.1213C40.6839 42.5587 41 41.7956 41 41V9.5C41 8.70435 40.6839 7.94129 40.1213 7.37868C39.5587 6.81607 38.7957 6.5 38 6.5ZM18.5 5H30.5V11H18.5V5ZM38 41H11V9.5H15.5V14H33.5V9.5H38V41Z" fill="#1A5A96"/>
</svg>
