<svg width="17" height="18" viewBox="0 0 17 18" fill="none" xmlns="http://www.w3.org/2000/svg">
<g id="Custom Time">
<path id="Union" fill-rule="evenodd" clip-rule="evenodd" d="M15.2998 8.64575C15.2998 12.2057 12.4139 15.0916 8.854 15.0916C5.29407 15.0916 2.40817 12.2057 2.40817 8.64575C2.40817 5.08582 5.29407 2.19992 8.854 2.19992C12.4139 2.19992 15.2998 5.08582 15.2998 8.64575ZM16.2915 8.64575C16.2915 12.7534 12.9616 16.0833 8.854 16.0833C4.74639 16.0833 1.4165 12.7534 1.4165 8.64575C1.4165 4.53813 4.74639 1.20825 8.854 1.20825C12.9616 1.20825 16.2915 4.53813 16.2915 8.64575ZM10.6953 11.9697C10.906 12.1861 11.2537 12.1861 11.4644 11.9697C11.6673 11.7614 11.6675 11.4294 11.4648 11.2209L9.37306 9.06916C9.24454 8.93694 9.17264 8.75982 9.17264 8.57543V4.71455C9.17264 4.42115 8.93479 4.1833 8.64139 4.1833C8.34799 4.1833 8.11014 4.42115 8.11014 4.71455V9.02771C8.11014 9.21235 8.18223 9.38969 8.31106 9.52195L10.6953 11.9697Z" fill="#484848"/>
</g>
</svg>
