<svg width="24" height="24" viewBox="0 0 24 24" fill="none" xmlns="http://www.w3.org/2000/svg">
<g id="Clothing">
<g id="Group">
<g id="Clip path group">
<mask id="mask0_2262_37571" style="mask-type:luminance" maskUnits="userSpaceOnUse" x="1" y="1" width="22" height="22">
<g id="a">
<path id="Vector" d="M22.0302 22.0299V1.97H1.97031V22.0299H22.0302Z" fill="white" stroke="white" stroke-width="1.3"/>
</g>
</mask>
<g mask="url(#mask0_2262_37571)">
<g id="Group_2">
<path id="Vector_2" d="M21.2443 16.2885L11.9995 10.9312L2.75474 16.2885C2.50855 16.4312 2.30419 16.6361 2.16213 16.8826C2.02007 17.1291 1.9453 17.4087 1.94531 17.6932C1.94531 18.5898 2.67201 19.3167 3.56842 19.3167H20.4306C21.327 19.3167 22.0537 18.5898 22.0537 17.6932C22.0537 17.4087 21.9789 17.1291 21.8369 16.8826C21.6948 16.6361 21.4904 16.4312 21.2443 16.2885Z" stroke="#242424" stroke-width="1.3" stroke-miterlimit="10" stroke-linecap="round" stroke-linejoin="round"/>
<path id="Vector_3" d="M9.93359 6.74994C9.93359 5.58174 10.9026 4.63994 12.0804 4.68466C13.1514 4.72538 14.0241 5.59822 14.0647 6.66939C14.0959 7.48899 13.6496 8.20747 12.982 8.56884C12.3841 8.89245 11.9999 9.50542 11.9999 10.1853V10.9312" stroke="#242424" stroke-width="1.3" stroke-miterlimit="10" stroke-linecap="round" stroke-linejoin="round"/>
</g>
</g>
</g>
</g>
</g>
</svg>
