<svg width="24" height="24" viewBox="0 0 24 24" fill="none" xmlns="http://www.w3.org/2000/svg">
<path d="M5.29871 10C4.79871 8.5 7.79869 8.5 7.79871 7.5C7.79873 6.5 7.34713 5.32259 6.79873 4.5C6.25034 3.67741 5.29869 2.5 4.79871 2.5C4.29873 2.5 0.798763 5.5 1.29874 9C1.79874 11.5 3.25004 14.2501 4.75 17C6.24996 19.7499 8.94103 21.2382 10.25 21.5C12.75 22 14.2987 20.5 14.7987 20C15.4982 19.3005 13.5249 16 12.25 16C11.25 16 10.25 17 9.25 16.5C8.67084 16.2104 7.56315 14.472 6.79878 13C6.2434 11.9304 5.50912 10.6312 5.29871 10Z" fill="#242424" stroke="#242424" stroke-width="0.5"/>
<path d="M22.2744 8H23.0244C23.0244 7.58579 22.6886 7.25 22.2744 7.25V8ZM22.2744 19V19.75C22.6886 19.75 23.0244 19.4142 23.0244 19H22.2744ZM13.7257 14L13.2931 14.6127C13.5518 14.7953 13.8973 14.7958 14.1565 14.6139L13.7257 14ZM16.75 18.25C16.3358 18.25 16 18.5858 16 19C16 19.4142 16.3358 19.75 16.75 19.75V18.25ZM9.75 7.25C9.33579 7.25 9 7.58579 9 8C9 8.41421 9.33579 8.75 9.75 8.75V7.25ZM9.39491 10.025C9.05652 9.7861 8.58855 9.86679 8.34968 10.2052C8.11081 10.5436 8.19149 11.0116 8.52989 11.2504L9.39491 10.025ZM21.5244 8V19H23.0244V8H21.5244ZM21.8435 7.38611L13.2948 13.3861L14.1565 14.6139L22.7052 8.61389L21.8435 7.38611ZM13.75 8.75H22.2744V7.25H13.75V8.75ZM22.2744 18.25H16.75V19.75H22.2744V18.25ZM9.75 8.75H13.75V7.25H9.75V8.75ZM14.1582 13.3873L9.39491 10.025L8.52989 11.2504L13.2931 14.6127L14.1582 13.3873Z" fill="#242424"/>
</svg>
