<svg width="36" height="36" viewBox="0 0 36 36" fill="none" xmlns="http://www.w3.org/2000/svg">
<g id="crop-growth">
<path id="Vector" d="M29.25 14.625C30.4431 14.6237 31.5869 14.1491 32.4305 13.3055C33.2741 12.4619 33.7487 11.3181 33.75 10.125V6.75H30.375C29.2232 6.75188 28.1164 7.19768 27.2849 7.9947C26.7021 6.93712 25.8465 6.0551 24.8071 5.44047C23.7677 4.82584 22.5825 4.50108 21.375 4.5H18V7.875C18.002 9.66461 18.7138 11.3804 19.9792 12.6458C21.2446 13.9112 22.9604 14.623 24.75 14.625H25.875V29.25H12.375V23.625H13.5C14.6931 23.6237 15.8369 23.1491 16.6805 22.3055C17.5241 21.4619 17.9987 20.3181 18 19.125V15.75H14.625C13.4732 15.7519 12.3664 16.1977 11.5348 16.9947C10.9521 15.9371 10.0965 15.0551 9.05706 14.4405C8.01767 13.8258 6.83252 13.5011 5.625 13.5H2.25V16.875C2.25197 18.6646 2.96376 20.3804 4.2292 21.6458C5.49464 22.9112 7.21039 23.623 9 23.625H10.125V29.25H2.25V31.5H33.75V29.25H28.125V14.625H29.25ZM28.125 11.25C28.1256 10.6534 28.3628 10.0815 28.7847 9.65967C29.2065 9.23784 29.7784 9.0006 30.375 9H31.5V10.125C31.4994 10.7216 31.2622 11.2935 30.8403 11.7153C30.4185 12.1372 29.8466 12.3744 29.25 12.375H28.125V11.25ZM12.375 20.25C12.3756 19.6534 12.6128 19.0815 13.0347 18.6597C13.4565 18.2378 14.0284 18.0006 14.625 18H15.75V19.125C15.7494 19.7216 15.5122 20.2935 15.0903 20.7153C14.6685 21.1372 14.0966 21.3744 13.5 21.375H12.375V20.25ZM10.125 21.375H9C7.80694 21.3737 6.66312 20.8991 5.8195 20.0555C4.97588 19.2119 4.50134 18.0681 4.5 16.875V15.75H5.625C6.81806 15.7513 7.96188 16.2259 8.8055 17.0695C9.64912 17.9131 10.1237 19.0569 10.125 20.25V21.375ZM25.875 12.375H24.75C23.5569 12.3737 22.4131 11.8991 21.5695 11.0555C20.7259 10.2119 20.2513 9.06806 20.25 7.875V6.75H21.375C22.5681 6.75134 23.7119 7.22588 24.5555 8.0695C25.3991 8.91312 25.8737 10.0569 25.875 11.25V12.375Z" fill="#1A5A96"/>
</g>
</svg>
