<svg width="24" height="24" viewBox="0 0 24 24" fill="none" xmlns="http://www.w3.org/2000/svg">
<g id="curtains 1" clip-path="url(#clip0_2262_37176)">
<g id="Group">
<g id="Clip path group">
<mask id="mask0_2262_37176" style="mask-type:luminance" maskUnits="userSpaceOnUse" x="0" y="0" width="24" height="24">
<g id="a">
<path id="Vector" d="M22.3909 22.3896V1.60962H1.61094V22.3896H22.3909Z" fill="white" stroke="white" stroke-width="1.3"/>
</g>
</mask>
<g mask="url(#mask0_2262_37176)">
<g id="Group_2">
<path id="Vector_2" d="M1.60938 1.60693H22.3956" stroke="#242424" stroke-width="1.3" stroke-miterlimit="10" stroke-linecap="round" stroke-linejoin="round"/>
<path id="Vector_3" d="M17.5469 22.3931V22.3929C17.5469 20.5032 18.3249 18.697 19.6979 17.3989L21.0112 16.1572L21.0254 22.3931H17.5469Z" stroke="#242424" stroke-width="1.3" stroke-miterlimit="10" stroke-linecap="round" stroke-linejoin="round"/>
<path id="Vector_4" d="M6.45901 22.3931V22.3929C6.45901 20.5032 5.68099 18.697 4.30794 17.3989L2.99466 16.1572L2.98047 22.3931H6.45901Z" stroke="#242424" stroke-width="1.3" stroke-miterlimit="10" stroke-linecap="round" stroke-linejoin="round"/>
<path id="Vector_5" d="M12.0034 1.6069V1.60694M12.0034 1.6069H21.0107V16.1572L20.5442 15.906C15.2837 13.0735 12.0034 7.58142 12.0034 1.60694M12.0034 1.6069H2.99609V16.1572L3.46262 15.906C8.72308 13.0735 12.0034 7.58142 12.0034 1.60694" stroke="#242424" stroke-width="1.3" stroke-miterlimit="10" stroke-linecap="round" stroke-linejoin="round"/>
</g>
</g>
</g>
</g>
</g>
<defs>
<clipPath id="clip0_2262_37176">
<rect width="24" height="24" fill="white"/>
</clipPath>
</defs>
</svg>
