<svg width="20" height="21" viewBox="0 0 20 21" fill="none" xmlns="http://www.w3.org/2000/svg">
<g id="Custom Warning">
<path id="Vector" d="M10 1.77539C8.26942 1.77539 6.57769 2.28857 5.13876 3.25003C3.69983 4.21149 2.57832 5.57806 1.91606 7.17691C1.25379 8.77576 1.08051 10.5351 1.41813 12.2324C1.75575 13.9298 2.58911 15.4889 3.81282 16.7126C5.03653 17.9363 6.59563 18.7696 8.29296 19.1073C9.9903 19.4449 11.7496 19.2716 13.3485 18.6093C14.9473 17.9471 16.3139 16.8256 17.2754 15.3866C18.2368 13.9477 18.75 12.256 18.75 10.5254C18.75 8.20475 17.8281 5.97915 16.1872 4.33821C14.5462 2.69726 12.3206 1.77539 10 1.77539ZM10 18.0254C8.51664 18.0254 7.0666 17.5855 5.83323 16.7614C4.59986 15.9373 3.63856 14.766 3.07091 13.3955C2.50325 12.0251 2.35473 10.5171 2.64411 9.06221C2.9335 7.60736 3.64781 6.27098 4.6967 5.22209C5.7456 4.1732 7.08197 3.45889 8.53683 3.1695C9.99168 2.88011 11.4997 3.02864 12.8701 3.59629C14.2406 4.16395 15.4119 5.12525 16.236 6.35861C17.0601 7.59198 17.5 9.04203 17.5 10.5254C17.5 12.5145 16.7098 14.4222 15.3033 15.8287C13.8968 17.2352 11.9891 18.0254 10 18.0254Z" fill="#484848"/>
<path id="Vector_2" d="M9.375 6.15039C9.375 5.80521 9.65482 5.52539 10 5.52539C10.3452 5.52539 10.625 5.80521 10.625 6.15039V11.7754C10.625 12.1206 10.3452 12.4004 10 12.4004C9.65482 12.4004 9.375 12.1206 9.375 11.7754V6.15039Z" fill="#484848"/>
<path id="Vector_3" d="M10 14.2754C9.81458 14.2754 9.63332 14.3304 9.47915 14.4334C9.32498 14.5364 9.20482 14.6828 9.13386 14.8541C9.06291 15.0254 9.04434 15.2139 9.08051 15.3958C9.11669 15.5776 9.20598 15.7447 9.33709 15.8758C9.4682 16.0069 9.63525 16.0962 9.8171 16.1324C9.99896 16.1686 10.1875 16.15 10.3588 16.079C10.5301 16.0081 10.6765 15.8879 10.7795 15.7337C10.8825 15.5796 10.9375 15.3983 10.9375 15.2129C10.9375 14.9643 10.8387 14.7258 10.6629 14.55C10.4871 14.3742 10.2486 14.2754 10 14.2754Z" fill="#484848"/>
</g>
</svg>
