<svg width="41" height="29" viewBox="0 0 41 29" fill="none" xmlns="http://www.w3.org/2000/svg">
<rect width="41" height="29" rx="8.83152" fill="#003366"/>
<path d="M20.5 16.25H11.75C11.2859 16.25 10.8408 16.0656 10.5126 15.7374C10.1844 15.4092 10 14.9641 10 14.5V5.75C10 5.28587 10.1844 4.84075 10.5126 4.51256C10.8408 4.18437 11.2859 4 11.75 4H20.5C20.9641 4 21.4092 4.18437 21.7374 4.51256C22.0656 4.84075 22.25 5.28587 22.25 5.75V14.5C22.25 14.9641 22.0656 15.4092 21.7374 15.7374C21.4092 16.0656 20.9641 16.25 20.5 16.25ZM11.75 5.75V14.5H20.5V5.75H11.75ZM29.25 11V14.5H25.75V11H29.25ZM29.25 9.25H25.75C25.2859 9.25 24.8408 9.43437 24.5126 9.76256C24.1844 10.0908 24 10.5359 24 11V14.5C24 14.9641 24.1844 15.4092 24.5126 15.7374C24.8408 16.0656 25.2859 16.25 25.75 16.25H29.25C29.7141 16.25 30.1592 16.0656 30.4874 15.7374C30.8156 15.4092 31 14.9641 31 14.5V11C31 10.5359 30.8156 10.0908 30.4874 9.76256C30.1592 9.43437 29.7141 9.25 29.25 9.25ZM29.25 19.75V23.25H25.75V19.75H29.25ZM29.25 18H25.75C25.2859 18 24.8408 18.1844 24.5126 18.5126C24.1844 18.8408 24 19.2859 24 19.75V23.25C24 23.7141 24.1844 24.1592 24.5126 24.4874C24.8408 24.8156 25.2859 25 25.75 25H29.25C29.7141 25 30.1592 24.8156 30.4874 24.4874C30.8156 24.1592 31 23.7141 31 23.25V19.75C31 19.2859 30.8156 18.8408 30.4874 18.5126C30.1592 18.1844 29.7141 18 29.25 18ZM20.5 19.75V23.25H17V19.75H20.5ZM20.5 18H17C16.5359 18 16.0908 18.1844 15.7626 18.5126C15.4344 18.8408 15.25 19.2859 15.25 19.75V23.25C15.25 23.7141 15.4344 24.1592 15.7626 24.4874C16.0908 24.8156 16.5359 25 17 25H20.5C20.9641 25 21.4092 24.8156 21.7374 24.4874C22.0656 24.1592 22.25 23.7141 22.25 23.25V19.75C22.25 19.2859 22.0656 18.8408 21.7374 18.5126C21.4092 18.1844 20.9641 18 20.5 18Z" fill="white"/>
</svg>
