<svg xmlns="http://www.w3.org/2000/svg" viewBox="0 0 22 21">
    <path d="M11 12.25H2.25C1.78587 12.25 1.34075 12.0656 1.01256 11.7374C0.684374 11.4092 0.5 10.9641 0.5 10.5V1.75C0.5 1.28587 0.684374 0.840752 1.01256 0.512563C1.34075 0.184374 1.78587 0 2.25 0H11C11.4641 0 11.9092 0.184374 12.2374 0.512563C12.5656 0.840752 12.75 1.28587 12.75 1.75V10.5C12.75 10.9641 12.5656 11.4092 12.2374 11.7374C11.9092 12.0656 11.4641 12.25 11 12.25ZM2.25 1.75V10.5H11V1.75H2.25ZM19.75 7V10.5H16.25V7H19.75ZM19.75 5.25H16.25C15.7859 5.25 15.3408 5.43437 15.0126 5.76256C14.6844 6.09075 14.5 6.53587 14.5 7V10.5C14.5 10.9641 14.6844 11.4092 15.0126 11.7374C15.3408 12.0656 15.7859 12.25 16.25 12.25H19.75C20.2141 12.25 20.6592 12.0656 20.9874 11.7374C21.3156 11.4092 21.5 10.9641 21.5 10.5V7C21.5 6.53587 21.3156 6.09075 20.9874 5.76256C20.6592 5.43437 20.2141 5.25 19.75 5.25ZM19.75 15.75V19.25H16.25V15.75H19.75ZM19.75 14H16.25C15.7859 14 15.3408 14.1844 15.0126 14.5126C14.6844 14.8408 14.5 15.2859 14.5 15.75V19.25C14.5 19.7141 14.6844 20.1592 15.0126 20.4874C15.3408 20.8156 15.7859 21 16.25 21H19.75C20.2141 21 20.6592 20.8156 20.9874 20.4874C21.3156 20.1592 21.5 19.7141 21.5 19.25V15.75C21.5 15.2859 21.3156 14.8408 20.9874 14.5126C20.6592 14.1844 20.2141 14 19.75 14ZM11 15.75V19.25H7.5V15.75H11ZM11 14H7.5C7.03587 14 6.59075 14.1844 6.26256 14.5126C5.93437 14.8408 5.75 15.2859 5.75 15.75V19.25C5.75 19.7141 5.93437 20.1592 6.26256 20.4874C6.59075 20.8156 7.03587 21 7.5 21H11C11.4641 21 11.9092 20.8156 12.2374 20.4874C12.5656 20.1592 12.75 19.7141 12.75 19.25V15.75C12.75 15.2859 12.5656 14.8408 12.2374 14.5126C11.9092 14.1844 11.4641 14 11 14Z" fill="#242424"/>
</svg>