<svg width="21" height="20" viewBox="0 0 21 20" fill="none" xmlns="http://www.w3.org/2000/svg">
<g id="Delete">
<path id="Vector" d="M8 8.125C8 7.77982 8.27982 7.5 8.625 7.5C8.97018 7.5 9.25 7.77982 9.25 8.125V14.375C9.25 14.7202 8.97018 15 8.625 15C8.27982 15 8 14.7202 8 14.375V8.125Z" fill="#7D7D7D"/>
<path id="Vector_2" d="M11.75 8.125C11.75 7.77982 12.0298 7.5 12.375 7.5C12.7202 7.5 13 7.77982 13 8.125V14.375C13 14.7202 12.7202 15 12.375 15C12.0298 15 11.75 14.7202 11.75 14.375V8.125Z" fill="#7D7D7D"/>
<path id="Vector_3" d="M3.625 3.75C3.27982 3.75 3 4.02982 3 4.375C3 4.72018 3.27982 5 3.625 5H4.25V17.5C4.25 17.8315 4.3817 18.1495 4.61612 18.3839C4.85054 18.6183 5.16848 18.75 5.5 18.75H15.5C15.8315 18.75 16.1495 18.6183 16.3839 18.3839C16.6183 18.1495 16.75 17.8315 16.75 17.5V5H17.375C17.7202 5 18 4.72018 18 4.375C18 4.02982 17.7202 3.75 17.375 3.75H3.625ZM5.5 17.5V5H15.5V17.5H5.5Z" fill="#7D7D7D"/>
<path id="Vector_4" d="M8 1.875C8 1.52982 8.27982 1.25 8.625 1.25H12.375C12.7202 1.25 13 1.52982 13 1.875C13 2.22018 12.7202 2.5 12.375 2.5H8.625C8.27982 2.5 8 2.22018 8 1.875Z" fill="#7D7D7D"/>
</g>
</svg>
