<svg width="20" height="20" viewBox="0 0 20 20" fill="none" xmlns="http://www.w3.org/2000/svg">
<g id="emojione-v1:warning">
<g id="Vector">
<mask id="path-1-inside-1_2979_92417" fill="white">
<path d="M19.8032 16.7249C16.8695 11.3655 13.9345 6.00616 11.0001 0.646783C10.9023 0.461306 10.7557 0.306053 10.5761 0.197756C10.3965 0.0894593 10.1908 0.0322266 9.98106 0.0322266C9.77135 0.0322266 9.56562 0.0894593 9.38604 0.197756C9.20646 0.306053 9.05985 0.461306 8.962 0.646783C6.02793 6.00616 3.09137 11.3655 0.158871 16.7249C-0.295192 17.5527 0.283558 18.6258 1.177 18.6258H18.7864C19.2814 18.6258 19.6139 18.3593 19.7873 17.9977C20.0054 17.6533 20.0639 17.1962 19.8045 16.7243"/>
</mask>
<path d="M19.8032 16.7249C16.8695 11.3655 13.9345 6.00616 11.0001 0.646783C10.9023 0.461306 10.7557 0.306053 10.5761 0.197756C10.3965 0.0894593 10.1908 0.0322266 9.98106 0.0322266C9.77135 0.0322266 9.56562 0.0894593 9.38604 0.197756C9.20646 0.306053 9.05985 0.461306 8.962 0.646783C6.02793 6.00616 3.09137 11.3655 0.158871 16.7249C-0.295192 17.5527 0.283558 18.6258 1.177 18.6258H18.7864C19.2814 18.6258 19.6139 18.3593 19.7873 17.9977C20.0054 17.6533 20.0639 17.1962 19.8045 16.7243" fill="#FFDD15"/>
<path d="M11.0001 0.646783L10.1157 1.1134L10.1193 1.12024L10.123 1.12703L11.0001 0.646783ZM9.98106 0.0322266V-0.967773V0.0322266ZM8.962 0.646783L9.83915 1.12699L9.84285 1.12022L9.84645 1.1134L8.962 0.646783ZM0.158871 16.7249L1.03564 17.2058L1.03613 17.2049L0.158871 16.7249ZM19.7873 17.9977L18.9425 17.4626L18.9111 17.5123L18.8857 17.5652L19.7873 17.9977ZM20.6804 16.2447C17.7466 10.8853 14.8116 5.5258 11.8773 0.166534L10.123 1.12703C13.0574 6.48652 15.9923 11.8458 18.9261 17.2051L20.6804 16.2447ZM11.8846 0.180165C11.7018 -0.166291 11.4279 -0.45629 11.0925 -0.658579L10.0597 1.05409C10.0834 1.0684 10.1027 1.0889 10.1157 1.1134L11.8846 0.180165ZM11.0925 -0.658579C10.7571 -0.860868 10.3728 -0.967773 9.98106 -0.967773V1.03223C10.0088 1.03223 10.0359 1.03979 10.0597 1.05409L11.0925 -0.658579ZM9.98106 -0.967773C9.58934 -0.967773 9.20506 -0.860868 8.86962 -0.658579L9.90246 1.05409C9.92618 1.03979 9.95336 1.03223 9.98106 1.03223V-0.967773ZM8.86962 -0.658579C8.53419 -0.45629 8.26032 -0.166289 8.07754 0.180165L9.84645 1.1134C9.85938 1.0889 9.87875 1.0684 9.90246 1.05409L8.86962 -0.658579ZM8.08484 0.166573C5.15105 5.52545 2.21414 10.8855 -0.718391 16.2449L1.03613 17.2049C3.9686 11.8456 6.90481 6.48687 9.83915 1.12699L8.08484 0.166573ZM-0.717897 16.244C-1.12524 16.9866 -1.06011 17.8225 -0.718412 18.4589C-0.376747 19.0952 0.298601 19.6258 1.177 19.6258V17.6258C1.16195 17.6258 1.10121 17.6199 1.04365 17.5128C0.986128 17.4056 0.988917 17.291 1.03564 17.2058L-0.717897 16.244ZM1.177 19.6258H18.7864V17.6258H1.177V19.6258ZM18.7864 19.6258C19.711 19.6258 20.3695 19.0962 20.6889 18.4302L18.8857 17.5652C18.8754 17.5867 18.8659 17.6001 18.8596 17.6076C18.8537 17.6148 18.8504 17.6169 18.8503 17.617C18.85 17.6171 18.8497 17.6173 18.8491 17.6176C18.8485 17.6179 18.8467 17.6187 18.8433 17.6197C18.8372 17.6215 18.8196 17.6258 18.7864 17.6258V19.6258ZM20.6321 18.5328C21.0346 17.8973 21.1251 17.0508 20.6808 16.2426L18.9282 17.206C18.9742 17.2897 18.977 17.3411 18.9759 17.3652C18.9747 17.393 18.966 17.4256 18.9425 17.4626L20.6321 18.5328Z" fill="black" mask="url(#path-1-inside-1_2979_92417)"/>
</g>
<path id="Vector_2" d="M9.03633 10.774L8.75852 6.62962C8.70664 5.82243 8.68164 5.24243 8.68164 4.89056C8.68164 4.41118 8.80664 4.03837 9.05727 3.76931C9.30883 3.50181 9.63945 3.36743 10.0495 3.36743C10.5441 3.36743 10.8763 3.53962 11.0426 3.88181C11.2104 4.22618 11.2954 4.72056 11.2954 5.36649C11.2954 5.74618 11.2748 6.13306 11.2335 6.52524L10.8616 10.7906C10.8213 11.2987 10.7354 11.6881 10.6032 11.959C10.4701 12.2312 10.2507 12.3656 9.94414 12.3656C9.63414 12.3656 9.41602 12.2346 9.29664 11.9727C9.17383 11.7099 9.08789 11.3102 9.03633 10.774ZM9.99633 16.4668C9.64477 16.4668 9.3382 16.3537 9.07539 16.1252C8.81258 15.8977 8.68164 15.579 8.68164 15.1696C8.68164 14.8124 8.80664 14.5071 9.05727 14.2568C9.30883 14.0049 9.61539 13.8799 9.97945 13.8799C10.3435 13.8799 10.6523 14.0049 10.9098 14.2568C11.1645 14.5071 11.2954 14.8124 11.2954 15.1696C11.2954 15.5727 11.1645 15.8909 10.906 16.1209C10.6576 16.3473 10.3324 16.4709 9.99633 16.4668Z" fill="#1F2E35"/>
</g>
</svg>
