<svg width="24" height="24" viewBox="0 0 24 24" fill="none" xmlns="http://www.w3.org/2000/svg">
<g id="Weather Conditions">
<path id="Vector" d="M11.4491 17.25L9.44922 21.7501M13.9491 17.25L11.9493 21.7501M16.4491 17.25L14.4493 21.7501M18.9496 17.25L16.9497 21.7501M8.9491 17.25L6.94922 21.7501" stroke="#2D9ED3" stroke-width="0.5"/>
<path id="Vector_2" d="M16.2802 11.0862L14.6757 9.67078L16.2235 8.19425C16.2803 8.13999 16.3037 8.05975 16.285 7.98363C16.2662 7.90755 16.2079 7.84726 16.1323 7.8254L14.0723 7.23091L14.8336 5.23708C14.8616 5.16384 14.8481 5.08134 14.7983 5.02061C14.7485 4.9599 14.6699 4.93022 14.5922 4.94276L12.4748 5.28413L12.3025 3.15832C12.2962 3.08021 12.2485 3.0114 12.1773 2.97782C12.1061 2.94425 12.0223 2.95096 11.9575 2.99543L10.1919 4.20662L9.11937 2.35963C9.07996 2.29178 9.00716 2.25 8.92835 2.25C8.84954 2.25 8.77677 2.29178 8.73736 2.35963L7.50622 4.47979L5.37663 3.25069C5.30846 3.21135 5.22438 3.21117 5.15609 3.25017C5.08774 3.28916 5.04555 3.36146 5.04534 3.4398L5.04019 5.57247L2.90254 5.39628C2.82417 5.38983 2.748 5.42549 2.70312 5.48985C2.6582 5.55422 2.65123 5.63754 2.68489 5.70838L3.60019 7.63714L1.59297 8.38951C1.51926 8.41714 1.46597 8.4818 1.45314 8.55911C1.4403 8.6364 1.46998 8.71462 1.53095 8.76428L3.18971 10.1164L1.70105 11.6518C1.64638 11.7082 1.62608 11.7894 1.64784 11.8646C1.66964 11.9399 1.73017 11.9979 1.8066 12.0168L3.88829 12.531L3.20582 14.5528C3.18074 14.6271 3.19744 14.709 3.24959 14.7677C3.30177 14.8265 3.38149 14.8531 3.45868 14.8375L5.56103 14.4144L5.81652 16.5319C5.82587 16.6097 5.87632 16.6766 5.94874 16.7074C6.02122 16.7382 6.10469 16.7283 6.16774 16.6813L7.88442 15.4026L9.0286 17.1477C9.06909 17.2115 9.13961 17.25 9.21514 17.25C9.21801 17.25 9.22088 17.2499 9.22378 17.2498C9.3025 17.2467 9.37363 17.2022 9.41034 17.1328L10.4095 15.3046L12.2212 16.4464C12.2878 16.4883 12.3717 16.4918 12.4416 16.4555C12.5114 16.4191 12.5564 16.3485 12.5597 16.2703L12.6485 14.1394L14.7776 14.3984C14.8556 14.4079 14.9331 14.3752 14.9805 14.3126C15.0279 14.25 15.0381 14.167 15.0073 14.0949L14.1684 12.1321L16.2035 11.4582C16.2783 11.4335 16.334 11.3709 16.3499 11.2942C16.3657 11.2175 16.3391 11.1382 16.2802 11.0862Z" fill="#FFA600"/>
<path id="Vector_3" d="M8.85359 14.2514C11.3627 14.2514 13.3967 12.2189 13.3967 9.71188C13.3967 7.20477 11.3627 5.17236 8.85359 5.17236C6.34454 5.17236 4.31055 7.20477 4.31055 9.71188C4.31055 12.2189 6.34454 14.2514 8.85359 14.2514Z" fill="#F6BE30"/>
<path id="Vector_4" d="M8.8538 5.17236C8.74001 5.17236 8.62729 5.17667 8.51562 5.1849C10.8667 5.35778 12.7205 7.31844 12.7205 9.71188C12.7205 12.1052 10.8667 14.0659 8.51562 14.2388C8.62729 14.247 8.74004 14.2514 8.8538 14.2514C11.3628 14.2514 13.3968 12.2189 13.3968 9.71191C13.3968 7.20477 11.3628 5.17236 8.8538 5.17236Z" fill="#E7AB22"/>
<path id="Vector_5" fill-rule="evenodd" clip-rule="evenodd" d="M8.32481 10.2423C8.47893 10.2423 8.62781 10.2475 8.77668 10.2689C9.43031 8.53073 11.1099 7.29248 13.0764 7.29248C15.1171 7.29248 16.85 8.6318 17.4451 10.4815C17.8546 10.3274 18.2955 10.2425 18.7635 10.2425C19.9273 10.2425 20.8747 10.6373 21.6547 11.6136C22.2104 12.3091 22.5502 13.0498 22.5502 14.0498C22.5502 16.1119 21.0123 17.7498 18.9502 17.7498H7.45019C5.95019 17.7498 4.95019 15.7498 4.72668 14.9729C4.64156 14.654 4.59375 14.3191 4.59375 13.9735C4.59356 11.911 6.2625 10.2423 8.32481 10.2423Z" fill="url(#paint0_linear_2979_92389)"/>
</g>
<defs>
<linearGradient id="paint0_linear_2979_92389" x1="12.4502" y1="16.7498" x2="10.9502" y2="10.2498" gradientUnits="userSpaceOnUse">
<stop stop-color="#09A0DC"/>
<stop offset="0.488353" stop-color="#82D4F6"/>
<stop offset="1" stop-color="#DFF2FC"/>
</linearGradient>
</defs>
</svg>
