<svg width="24" height="24" viewBox="0 0 24 24" fill="none" xmlns="http://www.w3.org/2000/svg">
<g id="Current Planned Events">
<path id="Vector" d="M12.3525 22.0154L2.24902 18.3678L7.2907 16.3912C7.2907 16.3912 11.0916 1.71735 11.3574 1.45169C11.4912 1.31806 11.6726 1.24934 11.855 1.24902C12.0351 1.24872 12.216 1.31514 12.3525 1.45169C12.8501 1.94929 17.2413 16.3912 17.2413 16.3912L21.8029 18.3678L12.3525 22.0154Z" fill="#F1592A"/>
<path id="Vector_2" d="M2.24877 18.3675L2.15796 18.136C2.06153 18.1737 1.99862 18.2674 2.00002 18.3709C2.00143 18.4745 2.06686 18.5664 2.16429 18.6015L2.24877 18.3675ZM12.3523 22.0151L12.2678 22.2491C12.3241 22.2694 12.3859 22.2688 12.4418 22.2472L12.3523 22.0151ZM21.8026 18.3675L21.8921 18.5996C21.9864 18.5633 22.0493 18.4735 22.0513 18.3726C22.0534 18.2716 21.9942 18.1795 21.9015 18.1393L21.8026 18.3675ZM17.241 16.3909L17.003 16.4632L17.0365 16.5734L17.1421 16.6192L17.241 16.3909ZM7.29044 16.3909L7.38125 16.6225L7.49943 16.5761L7.53126 16.4533L7.29044 16.3909ZM2.16429 18.6015L12.2678 22.2491L12.4367 21.7811L2.33324 18.1336L2.16429 18.6015ZM12.4418 22.2472L21.8921 18.5996L21.7131 18.1355L12.2627 21.783L12.4418 22.2472ZM21.9015 18.1393L17.3399 16.1627L17.1421 16.6192L21.7037 18.5958L21.9015 18.1393ZM11.1813 1.27547C11.1488 1.30796 11.1294 1.34453 11.1222 1.35811C11.1117 1.37808 11.1018 1.39985 11.0929 1.42103C11.0749 1.46378 11.0546 1.51827 11.0327 1.58129C10.9887 1.7081 10.9331 1.88311 10.868 2.09745C10.7379 2.52686 10.567 3.12402 10.37 3.83102C9.97585 5.24554 9.47551 7.10584 8.98371 8.95692C8.49186 10.8082 8.00834 12.6511 7.6478 14.0311C7.46753 14.7211 7.31799 15.2954 7.21352 15.6972C7.16128 15.8982 7.12032 16.056 7.09241 16.1635C7.07844 16.2173 7.06776 16.2586 7.06055 16.2863C7.05695 16.3002 7.05422 16.3108 7.05239 16.3179C7.05148 16.3214 7.05079 16.3241 7.05033 16.3258C7.05009 16.3267 7.04992 16.3274 7.04981 16.3279C7.04974 16.3281 7.04984 16.3278 7.04981 16.3279C7.04978 16.328 7.04963 16.3285 7.29044 16.3909C7.53126 16.4533 7.53123 16.4534 7.53126 16.4533C7.5312 16.4536 7.53128 16.4532 7.53126 16.4533C7.53137 16.4529 7.53172 16.4515 7.53194 16.4506C7.53241 16.4489 7.5331 16.4462 7.53401 16.4427C7.53583 16.4356 7.53856 16.4251 7.54216 16.4112C7.54935 16.3835 7.56004 16.3423 7.57399 16.2885C7.60188 16.181 7.64283 16.0233 7.69505 15.8225C7.79947 15.4208 7.94896 14.8467 8.12918 14.1568C8.48961 12.7772 8.97295 10.935 9.46456 9.08467C9.95622 7.23407 10.4559 5.37611 10.8492 3.96457C11.046 3.25854 11.2157 2.66572 11.3442 2.24181C11.4086 2.02949 11.4618 1.862 11.5027 1.74467C11.5232 1.68562 11.5394 1.64265 11.5513 1.61428C11.5575 1.5999 11.561 1.5927 11.5621 1.59053C11.5666 1.58196 11.5573 1.60319 11.533 1.62738L11.1813 1.27547ZM7.19965 16.1593L2.15796 18.136L2.33956 18.5992L7.38125 16.6225L7.19965 16.1593ZM17.241 16.3909C17.479 16.3185 17.479 16.3184 17.4789 16.3183C17.4789 16.3183 17.479 16.3185 17.4789 16.3183C17.4787 16.3179 17.4784 16.3167 17.4781 16.3159C17.4777 16.3141 17.4768 16.3115 17.4758 16.3081C17.4737 16.3011 17.4705 16.2907 17.4663 16.277C17.458 16.2496 17.4457 16.209 17.4295 16.1561C17.3972 16.0501 17.3498 15.8946 17.2893 15.6967C17.1682 15.3006 16.9946 14.7343 16.7848 14.0534C16.3653 12.6913 15.8006 10.8699 15.2204 9.03285C14.6402 7.19608 14.0441 5.34227 13.5616 3.91594C13.3205 3.2031 13.107 2.5948 12.9378 2.14807C12.8533 1.92507 12.7786 1.73926 12.7162 1.5997C12.6852 1.53012 12.6557 1.46882 12.6283 1.4188C12.6046 1.37534 12.571 1.31838 12.5282 1.27553L12.1763 1.62732C12.1646 1.61557 12.1697 1.61695 12.1917 1.65732C12.2102 1.69114 12.2336 1.73918 12.262 1.80271C12.3186 1.92937 12.3893 2.10486 12.4725 2.32437C12.6386 2.76267 12.8498 3.36429 13.0904 4.07535C13.5711 5.49682 14.1661 7.34679 14.746 9.18268C15.3257 11.0183 15.89 12.8385 16.3094 14.1998C16.519 14.8805 16.6924 15.4463 16.8134 15.8421C16.8739 16.04 16.9213 16.1953 16.9536 16.3012C16.9697 16.354 16.9821 16.3946 16.9904 16.4219C16.9946 16.4356 16.9977 16.4459 16.9999 16.4529C17.0009 16.4563 17.0016 16.4589 17.0022 16.4607C17.0025 16.4615 17.0029 16.4629 17.003 16.4632C17.0029 16.4631 17.0031 16.4635 17.003 16.4632C17.003 16.4633 17.003 16.4632 17.241 16.3909ZM12.5282 1.27553C12.3413 1.08866 12.0953 0.999589 11.8543 1L11.8552 1.49753C11.9743 1.49733 12.0901 1.5411 12.1763 1.62732L12.5282 1.27553ZM11.8543 1C11.611 1.00042 11.3649 1.09204 11.1813 1.27547L11.533 1.62738C11.6169 1.54356 11.7338 1.49773 11.8552 1.49753L11.8543 1Z" fill="black"/>
<path id="Vector_3" d="M8.56466 12.4971C8.56466 12.4971 9.97275 13.2168 12.309 13.2168C14.6452 13.2168 15.774 12.4971 15.774 12.4971L16.5853 15.0929C16.5853 15.0929 15.4306 16.2508 12.309 16.2508C9.18732 16.2508 7.88867 15.0929 7.88867 15.0929L8.56466 12.4971Z" fill="white"/>
<path id="Vector_4" d="M10.05 6.92432C10.05 6.92432 10.7512 7.30561 12.0491 7.30561C13.347 7.30561 14.0276 6.92432 14.0276 6.92432L14.8179 9.41195C14.8179 9.41195 13.347 9.90136 12.0491 9.90136C10.7512 9.90136 9.37891 9.41195 9.37891 9.41195L10.05 6.92432Z" fill="white"/>
</g>
</svg>
