<svg width="18" height="20" viewBox="0 0 18 20" fill="none" xmlns="http://www.w3.org/2000/svg">
<g id="fa-regular:calendar-alt" clip-path="url(#clip0_2979_92405)">
<path id="Vector" d="M6.11607 11.25H4.59821C4.34777 11.25 4.14286 11.0391 4.14286 10.7812V9.21875C4.14286 8.96094 4.34777 8.75 4.59821 8.75H6.11607C6.36652 8.75 6.57143 8.96094 6.57143 9.21875V10.7812C6.57143 11.0391 6.36652 11.25 6.11607 11.25ZM10.2143 10.7812V9.21875C10.2143 8.96094 10.0094 8.75 9.75893 8.75H8.24107C7.99062 8.75 7.78571 8.96094 7.78571 9.21875V10.7812C7.78571 11.0391 7.99062 11.25 8.24107 11.25H9.75893C10.0094 11.25 10.2143 11.0391 10.2143 10.7812ZM13.8571 10.7812V9.21875C13.8571 8.96094 13.6522 8.75 13.4018 8.75H11.8839C11.6335 8.75 11.4286 8.96094 11.4286 9.21875V10.7812C11.4286 11.0391 11.6335 11.25 11.8839 11.25H13.4018C13.6522 11.25 13.8571 11.0391 13.8571 10.7812ZM10.2143 14.5312V12.9688C10.2143 12.7109 10.0094 12.5 9.75893 12.5H8.24107C7.99062 12.5 7.78571 12.7109 7.78571 12.9688V14.5312C7.78571 14.7891 7.99062 15 8.24107 15H9.75893C10.0094 15 10.2143 14.7891 10.2143 14.5312ZM6.57143 14.5312V12.9688C6.57143 12.7109 6.36652 12.5 6.11607 12.5H4.59821C4.34777 12.5 4.14286 12.7109 4.14286 12.9688V14.5312C4.14286 14.7891 4.34777 15 4.59821 15H6.11607C6.36652 15 6.57143 14.7891 6.57143 14.5312ZM13.8571 14.5312V12.9688C13.8571 12.7109 13.6522 12.5 13.4018 12.5H11.8839C11.6335 12.5 11.4286 12.7109 11.4286 12.9688V14.5312C11.4286 14.7891 11.6335 15 11.8839 15H13.4018C13.6522 15 13.8571 14.7891 13.8571 14.5312ZM17.5 4.375V18.125C17.5 19.1602 16.6842 20 15.6786 20H2.32143C1.31585 20 0.5 19.1602 0.5 18.125V4.375C0.5 3.33984 1.31585 2.5 2.32143 2.5H4.14286V0.46875C4.14286 0.210938 4.34777 0 4.59821 0H6.11607C6.36652 0 6.57143 0.210938 6.57143 0.46875V2.5H11.4286V0.46875C11.4286 0.210938 11.6335 0 11.8839 0H13.4018C13.6522 0 13.8571 0.210938 13.8571 0.46875V2.5H15.6786C16.6842 2.5 17.5 3.33984 17.5 4.375ZM15.6786 17.8906V6.25H2.32143V17.8906C2.32143 18.0195 2.42388 18.125 2.54911 18.125H15.4509C15.5761 18.125 15.6786 18.0195 15.6786 17.8906Z" fill="black"/>
</g>
<defs>
<clipPath id="clip0_2979_92405">
<rect width="17" height="20" fill="white" transform="translate(0.5)"/>
</clipPath>
</defs>
</svg>
