<svg xmlns="http://www.w3.org/2000/svg" width="24" height="24" viewBox="0 0 24 24" fill="none">
    <path d="M20.0599 4.41409C20.6614 5.01565 20.9994 5.83153 20.9994 6.68225C20.9994 7.53296 20.6614 8.34884 20.0599 8.9504L9.33055 19.6815C9.08235 19.9298 8.77364 20.1091 8.43494 20.2015L3.84843 21.4521C3.73412 21.4831 3.61364 21.4834 3.49919 21.4529C3.38474 21.4224 3.28038 21.3622 3.19668 21.2784C3.11297 21.1946 3.05288 21.0902 3.0225 20.9757C2.99211 20.8612 2.99251 20.7407 3.02365 20.6264L4.27427 16.0399C4.3667 15.7012 4.54593 15.3925 4.79424 15.1443L15.5236 4.41409C16.1251 3.81255 16.941 3.47461 17.7917 3.47461C18.6425 3.47461 19.4583 3.81255 20.0599 4.41409ZM14.654 7.18429L5.74454 16.0955C5.66187 16.1783 5.60223 16.2812 5.57151 16.3941L4.63018 19.8456L8.08172 18.9043C8.19413 18.8727 8.2964 18.8125 8.37846 18.7294L17.2897 9.82L14.654 7.18429ZM16.4739 5.36439L15.6043 6.23399L18.24 8.86971L19.1096 8.0001C19.4533 7.64938 19.6447 7.17719 19.6422 6.68614C19.6397 6.19509 19.4436 5.72486 19.0963 5.37763C18.7491 5.0304 18.2789 4.83423 17.7878 4.83175C17.2968 4.82927 16.8246 5.02068 16.4739 5.36439Z" fill="#242424"/>
    </svg>