<svg xmlns="http://www.w3.org/2000/svg" width="18" height="19" viewBox="0 0 18 19" fill="none">
    <path d="M15.772 2.32502C16.2753 2.82827 16.558 3.51082 16.558 4.22252C16.558 4.93422 16.2753 5.61677 15.772 6.12002L6.79604 15.0975C6.5884 15.3053 6.33014 15.4552 6.04679 15.5325L2.20979 16.5788C2.11415 16.6047 2.01336 16.6049 1.91762 16.5794C1.82187 16.5539 1.73457 16.5035 1.66454 16.4334C1.59451 16.3633 1.54424 16.276 1.51882 16.1802C1.4934 16.0844 1.49374 15.9836 1.51979 15.888L2.56604 12.051C2.64336 11.7677 2.7933 11.5094 3.00104 11.3018L11.977 2.32502C12.4803 1.82178 13.1628 1.53906 13.8745 1.53906C14.5862 1.53906 15.2688 1.82178 15.772 2.32502ZM11.2495 4.64252L3.79604 12.0975C3.72688 12.1668 3.67699 12.2528 3.65129 12.3473L2.86379 15.2348L5.75129 14.4473C5.84533 14.4209 5.93089 14.3705 5.99954 14.301L13.4545 6.84752L11.2495 4.64252ZM12.772 3.12002L12.0445 3.84752L14.2495 6.05252L14.977 5.32502C15.2646 5.03161 15.4247 4.63659 15.4226 4.22578C15.4206 3.81498 15.2564 3.42159 14.966 3.1311C14.6755 2.84061 14.2821 2.6765 13.8713 2.67443C13.4605 2.67235 13.0654 2.83248 12.772 3.12002Z" fill="#818181"/>
</svg>