<svg width="21" height="21" viewBox="0 0 21 21" fill="none" xmlns="http://www.w3.org/2000/svg">
<path fill-rule="evenodd" clip-rule="evenodd" d="M2.07229 18.5058C2.16582 18.5585 2.27134 18.5861 2.37867 18.5862H18.6291C18.7365 18.5861 18.842 18.5585 18.9355 18.5058C19.0291 18.4531 19.1074 18.3773 19.1632 18.2855C19.2189 18.1938 19.25 18.0892 19.2536 17.9819C19.2571 17.8747 19.233 17.7683 19.1835 17.673L11.0583 2.04759C11.0055 1.94617 10.9259 1.86118 10.8281 1.80186C10.7304 1.74255 10.6182 1.71118 10.5039 1.71118C10.3896 1.71118 10.2774 1.74255 10.1797 1.80186C10.0819 1.86118 10.0023 1.94617 9.94952 2.04759L1.82428 17.673C1.7748 17.7683 1.75068 17.8747 1.75425 17.9819C1.75782 18.0892 1.78896 18.1938 1.84466 18.2855C1.90036 18.3773 1.97876 18.4531 2.07229 18.5058ZM3.41039 17.3361H3.40995L3.40908 17.3348L3.41039 17.3361ZM17.5971 17.3361H17.5979L17.5985 17.3343L10.5052 3.69201H10.5027L7.15246 10.1347L10.5025 3.69264H10.505L17.5983 17.3343L17.5971 17.3361ZM10.5037 7.33587C10.1154 7.33587 9.80058 7.65068 9.80058 8.03902V12.2579C9.80058 12.6462 10.1154 12.961 10.5037 12.961C10.8921 12.961 11.2069 12.6462 11.2069 12.2579V8.03902C11.2069 7.65068 10.8921 7.33587 10.5037 7.33587ZM9.98287 15.9281C10.137 16.0311 10.3183 16.0861 10.5037 16.0861C10.7524 16.0861 10.9908 15.9873 11.1667 15.8115C11.3425 15.6357 11.4413 15.3972 11.4413 15.1486C11.4413 14.9632 11.3863 14.7819 11.2833 14.6277C11.1802 14.4736 11.0338 14.3534 10.8625 14.2824C10.6912 14.2115 10.5027 14.1929 10.3208 14.2291C10.139 14.2653 9.97191 14.3546 9.8408 14.4857C9.70968 14.6168 9.62039 14.7838 9.58422 14.9657C9.54804 15.1476 9.56661 15.3361 9.63757 15.5074C9.70853 15.6787 9.82869 15.8251 9.98287 15.9281Z" fill="#E03B57"/>
</svg>
