<svg width="21" height="21" viewBox="0 0 21 21" fill="none" xmlns="http://www.w3.org/2000/svg">
<path d="M10.1764 18.586C14.8939 18.586 18.7181 14.7618 18.7181 10.0444C18.7181 5.32692 14.8939 1.50269 10.1764 1.50269C5.459 1.50269 1.63477 5.32692 1.63477 10.0444C1.63477 14.7618 5.459 18.586 10.1764 18.586Z" fill="#FCBA19"/>
<path fill-rule="evenodd" clip-rule="evenodd" d="M10.1771 3.93921C10.7643 3.93921 11.2448 4.41968 11.2448 5.00692V11.0621C11.2448 11.6494 10.7643 12.1298 10.1771 12.1298C9.58984 12.1298 9.10938 11.6494 9.10938 11.0621V5.00692C9.10938 4.41968 9.58984 3.93921 10.1771 3.93921Z" fill="#EFF4F7"/>
<path d="M10.1771 16.1503C10.7668 16.1503 11.2448 15.6723 11.2448 15.0826C11.2448 14.4929 10.7668 14.0149 10.1771 14.0149C9.5874 14.0149 9.10938 14.4929 9.10938 15.0826C9.10938 15.6723 9.5874 16.1503 10.1771 16.1503Z" fill="#EFF4F7"/>
</svg>
