<svg width="20" height="20" viewBox="0 0 20 20" fill="none" xmlns="http://www.w3.org/2000/svg">
<g id="Evacuation Order">
<path id="Union" fill-rule="evenodd" clip-rule="evenodd" d="M1.98635 18.4611C2.07988 18.5138 2.1854 18.5415 2.29274 18.5415H18.5432C18.6505 18.5415 18.7561 18.5138 18.8496 18.4611C18.9431 18.4085 19.0215 18.3326 19.0772 18.2408C19.1329 18.1491 19.1641 18.0445 19.1676 17.9373C19.1712 17.83 19.1471 17.7236 19.0976 17.6284L10.9724 2.00291C10.9196 1.90149 10.84 1.8165 10.7422 1.75718C10.6445 1.69787 10.5323 1.6665 10.418 1.6665C10.3036 1.6665 10.1915 1.69787 10.0937 1.75718C9.99598 1.8165 9.91638 1.90149 9.86358 2.00291L1.73835 17.6284C1.68886 17.7236 1.66475 17.83 1.66831 17.9373C1.67188 18.0445 1.70302 18.1491 1.75872 18.2408C1.81443 18.3326 1.89282 18.4085 1.98635 18.4611ZM3.32445 17.2915H3.32402L3.32314 17.2902L3.32445 17.2915ZM17.5111 17.2915H17.5119L17.5125 17.2896L10.4192 3.64733H10.4167L7.07945 10.0652L10.4165 3.64797H10.419L17.5124 17.2896L17.5111 17.2915ZM10.4178 7.2912C10.0295 7.2912 9.71465 7.606 9.71465 7.99434V12.2132C9.71465 12.6015 10.0295 12.9164 10.4178 12.9164C10.8061 12.9164 11.1209 12.6015 11.1209 12.2132V7.99434C11.1209 7.606 10.8061 7.2912 10.4178 7.2912ZM9.89693 15.8834C10.0511 15.9865 10.2324 16.0414 10.4178 16.0414C10.6664 16.0414 10.9049 15.9427 11.0807 15.7668C11.2565 15.591 11.3553 15.3526 11.3553 15.1039C11.3553 14.9185 11.3003 14.7372 11.1973 14.5831C11.0943 14.4289 10.9479 14.3087 10.7766 14.2378C10.6053 14.1668 10.4167 14.1482 10.2349 14.1844C10.053 14.2206 9.88597 14.3099 9.75486 14.441C9.62374 14.5721 9.53445 14.7392 9.49828 14.921C9.4621 15.1029 9.48067 15.2914 9.55163 15.4627C9.62259 15.634 9.74275 15.7804 9.89693 15.8834Z" fill="#E03B57"/>
</g>
</svg>
