<svg width="20" height="20" viewBox="0 0 20 20" fill="none" xmlns="http://www.w3.org/2000/svg">
<g id="Evacuation Alert">
<g id="Group">
<path id="Subtract" fill-rule="evenodd" clip-rule="evenodd" d="M9.9987 18.5418C14.7161 18.5418 18.5404 14.7176 18.5404 10.0002C18.5404 5.28273 14.7161 1.4585 9.9987 1.4585C5.28127 1.4585 1.45703 5.28273 1.45703 10.0002C1.45703 14.7176 5.28127 18.5418 9.9987 18.5418ZM9.99788 3.89502C10.5851 3.89502 11.0656 4.37549 11.0656 4.96273V11.018C11.0656 11.6052 10.5851 12.0857 9.99788 12.0857C9.41064 12.0857 8.93018 11.6052 8.93018 11.018V4.96273C8.93018 4.37549 9.41064 3.89502 9.99788 3.89502ZM11.0656 15.0384C11.0656 15.6281 10.5876 16.1061 9.99788 16.1061C9.40821 16.1061 8.93018 15.6281 8.93018 15.0384C8.93018 14.4487 9.40821 13.9707 9.99788 13.9707C10.5876 13.9707 11.0656 14.4487 11.0656 15.0384Z" fill="#E3B100"/>
</g>
</g>
</svg>
