<svg width="20" height="20" viewBox="0 0 20 20" fill="none" xmlns="http://www.w3.org/2000/svg">
<g id="Details 20x20">
<path id="Union" fill-rule="evenodd" clip-rule="evenodd" d="M1.56838 18.3571C1.66191 18.4098 1.76743 18.4375 1.87477 18.4375H18.1252C18.2326 18.4375 18.3381 18.4098 18.4316 18.3571C18.5251 18.3045 18.6035 18.2286 18.6592 18.1368C18.715 18.0451 18.7461 17.9405 18.7497 17.8333C18.7532 17.726 18.7291 17.6196 18.6796 17.5244L10.5544 1.8989C10.5016 1.79749 10.422 1.71249 10.3242 1.65318C10.2265 1.59386 10.1143 1.5625 10 1.5625C9.88566 1.5625 9.77351 1.59386 9.67576 1.65318C9.57801 1.71249 9.49841 1.79749 9.44561 1.8989L1.32038 17.5244C1.27089 17.6196 1.24678 17.726 1.25035 17.8333C1.25391 17.9405 1.28505 18.0451 1.34075 18.1368C1.39646 18.2286 1.47485 18.3045 1.56838 18.3571ZM17.0946 17.1856L17.094 17.1875H2.90605L2.9048 17.1856L9.99875 3.54333H10.0013L17.0946 17.1856ZM9.47932 14.2205C9.6335 14.1175 9.81476 14.0625 10.0002 14.0625C10.2488 14.0625 10.4873 14.1613 10.6631 14.3371C10.8389 14.5129 10.9377 14.7514 10.9377 15C10.9377 15.1854 10.8827 15.3667 10.7797 15.5209C10.6767 15.675 10.5303 15.7952 10.359 15.8662C10.1877 15.9371 9.99915 15.9557 9.81728 15.9195C9.63542 15.8833 9.46837 15.7941 9.33725 15.6629C9.20614 15.5318 9.11685 15.3648 9.08067 15.1829C9.0445 15.001 9.06307 14.8125 9.13402 14.6412C9.20498 14.4699 9.32515 14.3235 9.47932 14.2205ZM10.0002 7.18729C9.655 7.18729 9.37517 7.46712 9.37517 7.8123V12.1874C9.37517 12.5326 9.655 12.8124 10.0002 12.8124C10.3454 12.8124 10.6252 12.5326 10.6252 12.1874V7.81231C10.6252 7.46712 10.3454 7.18729 10.0002 7.18729Z" fill="#D8292F"/>
</g>
</svg>
