<svg width="28" height="29" viewBox="0 0 28 29" fill="none" xmlns="http://www.w3.org/2000/svg">
<g id="carbon:logo-facebook">
<path id="Vector" d="M23.3363 3.66663H4.66375C4.35581 3.66892 4.06114 3.79226 3.84338 4.01001C3.62563 4.22776 3.50229 4.52244 3.5 4.83038V23.5029C3.50229 23.8108 3.62563 24.1055 3.84338 24.3232C4.06114 24.541 4.35581 24.6643 4.66375 24.6666H14.7175V16.5466H11.9875V13.3704H14.7175V11.0341C14.7175 8.32163 16.3713 6.84288 18.8038 6.84288C19.6175 6.84288 20.4313 6.84288 21.245 6.96538V9.79163H19.5738C18.2525 9.79163 17.9987 10.4216 17.9987 11.3404V13.3616H21.1488L20.7375 16.5379H17.9987V24.6666H23.3363C23.6442 24.6643 23.9389 24.541 24.1566 24.3232C24.3744 24.1055 24.4977 23.8108 24.5 23.5029V4.83038C24.4977 4.52244 24.3744 4.22776 24.1566 4.01001C23.9389 3.79226 23.6442 3.66892 23.3363 3.66663Z" fill="#1A5A96"/>
</g>
</svg>
