<svg width="24" height="24" viewBox="0 0 24 24" fill="none" xmlns="http://www.w3.org/2000/svg">
<g id="Family">
<g id="Group">
<g id="Clip path group">
<g id="Group_2">
<path id="Vector" d="M6.49662 2.28484C8.1052 2.28484 9.4112 3.59084 9.4112 5.19943C9.4112 6.80801 8.1052 8.11401 6.49662 8.11401C4.88803 8.11401 3.58203 6.80801 3.58203 5.19943C3.58203 3.59084 4.88803 2.28484 6.49662 2.28484Z" stroke="#242424" stroke-width="1.3" stroke-miterlimit="10" stroke-linecap="round" stroke-linejoin="round"/>
<path id="Vector_2" d="M17.5044 2.28484C15.8958 2.28484 14.5898 3.59084 14.5898 5.19943C14.5898 6.80801 15.8958 8.11401 17.5044 8.11401C19.113 8.11401 20.419 6.80801 20.419 5.19943C20.419 3.59084 19.113 2.28484 17.5044 2.28484Z" stroke="#242424" stroke-width="1.3" stroke-miterlimit="10" stroke-linecap="round" stroke-linejoin="round"/>
<path id="Vector_3" d="M12.0009 10.7048C13.4308 10.7048 14.5917 11.8656 14.5917 13.2955C14.5917 14.7254 13.4308 15.8862 12.0009 15.8862C10.571 15.8862 9.41016 14.7254 9.41016 13.2955C9.41016 11.8656 10.571 10.7048 12.0009 10.7048Z" stroke="#242424" stroke-width="1.3" stroke-miterlimit="10" stroke-linecap="round" stroke-linejoin="round"/>
<path id="Vector_4" d="M15.2385 19.1246C15.2385 17.336 13.7886 15.8862 12.0001 15.8862H11.9995C10.2113 15.8862 8.76172 17.3358 8.76172 19.1239V21.7153H15.2385V19.1246Z" stroke="#242424" stroke-width="1.3" stroke-miterlimit="10" stroke-linecap="round" stroke-linejoin="round"/>
<path id="Vector_5" d="M8.76203 21.7153H2.28516V12.3239C2.28516 9.99878 4.17004 8.11393 6.49514 8.11393C8.41477 8.11393 10.0343 9.39873 10.5408 11.1553" stroke="#242424" stroke-width="1.3" stroke-miterlimit="10" stroke-linecap="round" stroke-linejoin="round"/>
<path id="Vector_6" d="M15.2397 21.7153H21.7166V12.3239C21.7166 9.99878 19.8317 8.11393 17.5066 8.11393C15.5869 8.11393 13.9674 9.39873 13.4609 11.1553" stroke="#242424" stroke-width="1.3" stroke-miterlimit="10" stroke-linecap="round" stroke-linejoin="round"/>
</g>
</g>
</g>
</g>
</svg>
