<svg width="26" height="26" viewBox="0 0 26 26" fill="none" xmlns="http://www.w3.org/2000/svg">
<g id="Group 92">
<g id="Group">
<g id="Group_2">
<path id="Vector" d="M18.92 3.21167C18.92 3.2053 18.9205 3.19902 18.9205 3.1926C18.9205 2.3155 18.3186 1.57919 17.5054 1.3736V1.09184C17.5054 0.981533 17.416 0.89209 17.3056 0.89209H16.7623C16.6519 0.89209 16.5625 0.981485 16.5625 1.09184V1.3791C15.7597 1.59175 15.1679 2.32304 15.1679 3.19269C15.1679 3.19907 15.1683 3.20535 15.1684 3.21177C14.7936 3.32637 14.5664 3.47551 14.5664 3.63875C14.5663 3.83884 14.9072 4.34435 15.4438 4.75553C15.6752 5.41655 16.3041 5.89077 17.0442 5.89077C17.7842 5.89077 18.4131 5.4165 18.6445 4.75553C19.181 4.34435 19.522 3.83879 19.522 3.6387C19.522 3.47541 19.2948 3.32628 18.92 3.21167Z" fill="white"/>
</g>
</g>
<g id="Group_3">
<g id="Group_4">
<path id="Vector_2" d="M17.1333 17.6385L17.0848 17.2476C16.3239 17.3214 16.0972 17.2071 15.0338 17.2895L15.0752 17.6233L13.3194 21.8848C13.1047 22.4059 13.3531 23.0023 13.8741 23.2169C14.3953 23.4316 14.9916 23.183 15.2062 22.6622L17.0642 18.1527C17.1311 17.9901 17.155 17.813 17.1333 17.6385Z" fill="white"/>
</g>
</g>
<g id="Group_5">
<g id="Group_6">
<path id="Vector_3" d="M19.9401 17.1712L19.8054 16.1392C19.2275 16.6053 18.5796 16.9307 17.8741 17.11L17.8941 17.2626L16.8778 22.0617C16.7611 22.613 17.1133 23.1546 17.6646 23.2713C18.2159 23.388 18.7575 23.0357 18.8742 22.4845L19.9266 17.5148C19.9505 17.4018 19.955 17.2856 19.9401 17.1712Z" fill="white"/>
</g>
</g>
<g id="Group_7">
<g id="Group_8">
<path id="Vector_4" d="M25.3435 11.0447C25.2657 10.77 24.9802 10.6103 24.7052 10.6882L22.5938 11.2863C22.741 11.6039 22.7832 11.9697 22.6962 12.3319L23.3219 12.1547L23.1766 12.691C23.1021 12.9666 23.265 13.2505 23.5406 13.3252C23.8159 13.3998 24.1 13.237 24.1748 12.9613L24.4822 11.8262L24.987 11.6832C25.2617 11.6052 25.4213 11.3194 25.3435 11.0447Z" fill="white"/>
</g>
</g>
<g id="Group_9">
<g id="Group_10">
<path id="Vector_5" d="M20.8836 13.5399L19.8117 13.3682C19.2748 14.345 18.2196 15.5803 16.3376 15.4942C14.6908 15.4188 13.1646 15.7171 11.9766 16.0722C12.149 16.4108 12.1564 16.8078 12.0063 17.1495C13.1404 16.7864 14.6608 16.453 16.2906 16.5271C17.9651 16.6038 19.3306 15.8719 20.2928 14.5434C20.5434 14.1975 20.7384 13.8496 20.8867 13.5403C20.8857 13.54 20.8847 13.54 20.8836 13.5399Z" fill="white"/>
</g>
</g>
<g id="Group_11">
<g id="Group_12">
<path id="Vector_6" d="M21.2699 11.1356C20.625 11.0323 19.0567 10.7811 18.4274 10.6804L18.1589 10.0913L16.6328 10.7563L17.0979 11.7767C17.2131 12.0293 17.4473 12.209 17.7236 12.2532L21.0065 12.779C21.4584 12.8514 21.8869 12.5447 21.9599 12.0889C22.0326 11.6352 21.7237 11.2084 21.2699 11.1356Z" fill="white"/>
</g>
</g>
<g id="Group_13">
<g id="Group_14">
<path id="Vector_7" d="M10.1934 5.02617C10.1935 5.0198 10.1939 5.01352 10.1939 5.0071C10.1939 4.13005 9.59201 3.39369 8.77882 3.1881V2.90629C8.77882 2.79599 8.68942 2.70654 8.57907 2.70654H8.03569C7.92539 2.70654 7.83594 2.79594 7.83594 2.90629V3.19355C7.03318 3.4062 6.44136 4.13749 6.44136 5.0071C6.44136 5.01347 6.44175 5.01985 6.44185 5.02617C6.06703 5.14078 5.83984 5.28992 5.83984 5.45315C5.8398 5.65329 6.18066 6.1588 6.71723 6.56999C6.94866 7.23101 7.57756 7.70522 8.31759 7.70522C9.05762 7.70522 9.68648 7.23096 9.91796 6.56999C10.4545 6.1588 10.7954 5.65324 10.7954 5.45315C10.7954 5.28987 10.5682 5.14078 10.1934 5.02617Z" fill="white"/>
</g>
</g>
<g id="Group_15">
<g id="Group_16">
<path id="Vector_8" d="M11.2898 23.9469C10.4916 18.2297 10.6408 19.3202 10.4464 17.8318C10.2483 17.7634 10.0646 17.6448 9.91583 17.4767C9.80315 17.3494 9.66054 17.2161 9.46682 17.0573C8.70719 16.4345 7.73674 15.9911 6.77445 16.1556C6.45029 16.2111 6.11174 16.3577 5.75822 16.5333L5.46849 19.5986L2.67513 21.7934C2.23202 22.1416 2.15509 22.783 2.50325 23.2261C2.85141 23.6693 3.49282 23.7462 3.93593 23.398L7.0735 20.9328C7.29329 20.7601 7.43262 20.5048 7.45889 20.2265L7.77542 16.8777H8.26383L8.57374 19.2505C8.57413 19.2535 8.57457 19.2564 8.5749 19.2594L9.26867 24.2291C9.34652 24.7867 9.86154 25.1765 10.4203 25.0986C10.9785 25.0206 11.3677 24.505 11.2898 23.9469Z" fill="white"/>
</g>
</g>
<g id="Group_17">
<g id="Group_18">
<path id="Vector_9" d="M11.2444 16.3003C10.1291 15.0398 8.26035 14.1003 6.47419 14.4057C6.24092 14.4456 6.01872 14.5068 5.80433 14.5814C5.72836 15.528 5.73372 15.5606 5.68359 15.7463C6.00138 15.5999 6.3181 15.4814 6.64844 15.4248C8.08528 15.1792 9.32483 15.983 9.93577 16.484C10.1608 16.6685 10.3305 16.8278 10.4699 16.9854C10.659 17.1993 10.9858 17.2192 11.1997 17.03C11.4137 16.8409 11.4337 16.5142 11.2444 16.3003Z" fill="white"/>
</g>
</g>
<g id="Group_19">
<g id="Group_20">
<path id="Vector_10" d="M2.65333 15.9331C2.14295 16.0882 1.6117 16.216 1.06345 16.3133C0.782318 16.3632 0.594835 16.6316 0.644772 16.9127C0.694806 17.1945 0.963909 17.3813 1.24417 17.3314C2.00641 17.1961 2.74031 17.0066 3.43466 16.7671C3.08442 16.5963 2.80377 16.3012 2.65333 15.9331Z" fill="white"/>
</g>
</g>
<g id="Group_21">
<g id="Group_22">
<path id="Vector_11" d="M4.74381 10.8721L3.99944 11.2849C3.76791 11.4134 3.59675 11.6572 3.57352 11.9461C3.54126 12.3483 3.33986 14.8564 3.30741 15.2603C3.27061 15.7175 3.61128 16.1194 4.07028 16.1563C4.52069 16.1924 4.92912 15.8564 4.96641 15.3934L5.19682 12.5241L5.41464 12.4033L4.74381 10.8721Z" fill="white"/>
</g>
</g>
<g id="Group_23">
<g id="Group_24">
<path id="Vector_12" d="M17.4823 12.99C16.802 12.8275 16.4101 12.2651 16.3428 11.928C16.0059 10.2851 15.8629 9.69185 15.8629 9.69185C15.8629 9.69185 16.138 9.57198 17.6266 8.92333L17.1618 7.90371L18.8956 9.97564V8.39C18.8956 7.44679 18.1309 6.68213 17.1877 6.68213H16.3021C15.3589 6.68213 14.5942 7.44679 14.5942 8.39V9.86963C14.5839 9.83075 14.572 9.79207 14.5561 9.75391C14.3658 9.2954 13.84 9.07802 13.3814 9.26825L10.7483 10.3609L10.1563 10.0037C10.0568 9.15515 9.33582 8.49659 8.46056 8.49659H7.57496C6.71811 8.49659 6.00874 9.12762 5.88602 9.95033L6.93761 9.65278C6.93761 9.65346 6.93761 9.65418 6.93761 9.65486L5.87013 10.2469L6.54105 11.7781L7.86459 11.0441L5.93992 12.8792L5.86719 13.7847C6.02251 13.7409 6.18246 13.7035 6.34811 13.6751C7.61418 13.4586 8.94057 13.7438 10.1685 14.4813V12.1104L10.2089 12.1348C10.3509 12.2206 10.5116 12.264 10.6732 12.264C10.7898 12.264 10.907 12.2413 11.0177 12.1954L14.0706 10.9285C14.34 10.8167 14.5252 10.5887 14.5943 10.3269C14.5943 10.3967 14.5943 14.697 14.5943 14.8024C15.225 14.7414 15.8209 14.7289 16.3729 14.754C17.5603 14.8084 18.4138 14.2359 19.0301 13.2432C17.4735 12.9939 17.5749 13.0122 17.4823 12.99Z" fill="white"/>
</g>
</g>
</g>
</svg>
