<svg width="24" height="24" viewBox="0 0 24 24" fill="none" xmlns="http://www.w3.org/2000/svg">
<g id="Wildfire of Note">
<g id="Fire of Note">
<ellipse id="Background" cx="12" cy="12.0008" rx="10.5" ry="10.4998" fill="#AA1D3E"/>
<g id="White Flame">
<g id="Group">
<path id="Vector" d="M18.3007 13.0495C18.3112 10.54 17.0407 7.84154 15.1507 6.74956L14.8042 7.18005C14.4787 7.58954 14.0272 7.77854 13.5862 7.77854C12.7777 7.77854 12.0007 7.15905 12.0007 6.20357V3.59961C12.0007 3.59961 5.70068 7.53704 5.70068 13.0495C5.70068 16.5249 8.52518 19.3494 12.0007 19.3494C15.4762 19.3494 18.3007 16.5249 18.3007 13.0495ZM12.0007 17.7744C11.2342 17.7744 10.4257 17.1654 10.4257 16.1994C10.4257 15.7059 10.6462 15.3594 10.8352 15.1494L12.0007 13.8369L13.1662 15.1494C13.3552 15.3594 13.5757 15.7059 13.5757 16.1994C13.5757 17.0709 12.8722 17.7744 12.0007 17.7744ZM15.1087 16.5879C15.1402 16.3254 15.3082 15.1704 14.3422 14.0994L12.0007 11.4745L9.65918 14.0994C8.69318 15.1704 8.86118 16.3254 8.89268 16.5774C7.90568 15.7059 7.27568 14.4564 7.27568 13.0495C7.27568 10.519 8.97668 8.30353 10.4887 6.83356C10.7827 8.27203 12.0637 9.34302 13.5862 9.34302C14.1847 9.34302 14.7517 9.17502 15.2452 8.86002C16.1377 9.89951 16.7257 11.5375 16.7257 13.039C16.7257 14.4564 16.0957 15.7269 15.1087 16.5879Z" fill="#FDFDFD"/>
</g>
</g>
</g>
</g>
</svg>
