<svg width="16" height="16" viewBox="0 0 16 16" fill="none" xmlns="http://www.w3.org/2000/svg">
<g id="carbon:fire">
<path id="Vector" d="M12.209 8.83679C12.0794 8.52845 11.9316 8.17913 11.7882 7.74784C11.4117 6.61887 12.6146 5.38743 12.626 5.37599L11.9521 4.70213C11.8854 4.76885 10.3209 6.35962 10.8837 8.04903C11.039 8.51511 11.1944 8.88302 11.3307 9.20708C11.6487 9.83546 11.8138 10.5301 11.8125 11.2344C11.7566 11.8021 11.5387 12.3417 11.1847 12.7889C10.8306 13.2362 10.3554 13.5722 9.8157 13.7568C9.9862 13.0885 9.98366 12.3878 9.80831 11.7208C9.63297 11.0537 9.2906 10.4424 8.81349 9.94432L8.31596 9.44679L8.0386 10.0935C7.16363 12.1351 6.12234 13.0263 5.50996 13.398C5.13403 13.1677 4.81811 12.8515 4.58821 12.4754C4.3583 12.0993 4.22097 11.6739 4.1875 11.2344C4.22037 10.6345 4.3708 10.0468 4.63023 9.50493C4.9379 8.85168 5.11145 8.14336 5.14062 7.42188V6.57455C5.55714 6.74611 6.09375 7.19551 6.09375 8.375V9.61549L6.9244 8.69382C8.40746 7.04777 8.09817 5.08767 7.49913 3.78141C7.95448 3.9332 8.34551 4.2338 8.60926 4.63482C8.873 5.03585 8.99413 5.51396 8.95312 5.99219H9.90625C9.90625 3.35346 7.72407 2.65625 6.57031 2.65625H5.61719L6.18906 3.41827C6.25435 3.50644 7.55298 5.28973 6.83385 7.08209C6.67382 6.63168 6.38055 6.24061 5.993 5.96081C5.60545 5.68102 5.14195 5.52575 4.66406 5.51562H4.1875V7.42188C4.15463 8.02179 4.0042 8.6094 3.74477 9.15132C3.4371 9.80457 3.26355 10.5129 3.23438 11.2344C3.23438 13.0682 5.05627 15.0469 8 15.0469C10.9437 15.0469 12.7656 13.0682 12.7656 11.2344C12.7663 10.4031 12.5759 9.58274 12.209 8.83679ZM6.49168 13.8679C7.37078 13.1402 8.08093 12.2298 8.57283 11.2001C8.83544 11.6241 8.98463 12.1085 9.00608 12.6068C9.02753 13.1051 8.92051 13.6006 8.6953 14.0456C8.46482 14.0766 8.23256 14.0927 8 14.0938C7.48854 14.0973 6.97966 14.0211 6.49168 13.8679Z" fill="#666666"/>
</g>
</svg>
