<svg width="20" height="20" viewBox="0 0 20 20" fill="none" xmlns="http://www.w3.org/2000/svg">
<g id="fluent:edit-24-regular">
<g id="Group">
<path id="Vector" d="M16.7166 3.67841C17.2179 4.17971 17.4995 4.85961 17.4995 5.56854C17.4995 6.27747 17.2179 6.95737 16.7166 7.45866L7.77546 16.4013C7.56862 16.6082 7.31137 16.7576 7.02912 16.8346L3.20703 17.8768C3.11177 17.9026 3.01137 17.9028 2.91599 17.8774C2.82062 17.852 2.73365 17.8018 2.6639 17.732C2.59414 17.6622 2.54407 17.5751 2.51875 17.4797C2.49343 17.3843 2.49376 17.2839 2.51971 17.1887L3.56189 13.3666C3.63892 13.0844 3.78828 12.8271 3.9952 12.6203L12.9363 3.67841C13.4376 3.17713 14.1175 2.89551 14.8264 2.89551C15.5354 2.89551 16.2153 3.17713 16.7166 3.67841ZM12.2116 5.98691L4.78711 13.4129C4.71823 13.4819 4.66853 13.5677 4.64293 13.6617L3.85849 16.538L6.73477 15.7536C6.82844 15.7273 6.91367 15.6771 6.98205 15.6079L14.4081 8.18334L12.2116 5.98691ZM13.7282 4.47032L13.0036 5.19499L15.2 7.39143L15.9247 6.66675C16.2111 6.37449 16.3706 5.981 16.3685 5.57179C16.3665 5.16258 16.203 4.77072 15.9136 4.48136C15.6243 4.192 15.2324 4.02853 14.8232 4.02646C14.414 4.02439 14.0205 4.1839 13.7282 4.47032Z" fill="#242424"/>
</g>
</g>
</svg>
