<svg width="25" height="25" viewBox="0 0 25 25" fill="none" xmlns="http://www.w3.org/2000/svg">
<g id="fluent:open-24-regular">
<g id="Group">
<g id="Group_2">
<path id="Vector" d="M12.2939 4.396V16.396M12.2939 16.396L8.29395 12.396M12.2939 16.396L16.2939 12.396" stroke="black" stroke-width="2" stroke-linecap="round" stroke-linejoin="round"/>
<path id="Vector_2" d="M8.29395 6.396H4.29395C3.76351 6.396 3.2548 6.60671 2.87973 6.98178C2.50466 7.35686 2.29395 7.86556 2.29395 8.396V18.396C2.29395 18.9264 2.50466 19.4351 2.87973 19.8102C3.2548 20.1853 3.76351 20.396 4.29395 20.396H20.2939C20.8244 20.396 21.3331 20.1853 21.7082 19.8102C22.0832 19.4351 22.2939 18.9264 22.2939 18.396V8.396C22.2939 7.86556 22.0832 7.35686 21.7082 6.98178C21.3331 6.60671 20.8244 6.396 20.2939 6.396H16.2939" stroke="black" stroke-width="2" stroke-linecap="round" stroke-linejoin="round"/>
</g>
</g>
</g>
</svg>
