<svg width="24" height="25" viewBox="0 0 24 25" fill="none" xmlns="http://www.w3.org/2000/svg">
<path d="M17.8333 11.125H17.2C16.8502 11.125 16.5667 11.4086 16.5667 11.7583C16.5667 12.1081 16.8502 12.3917 17.2 12.3917H17.8333C18.3371 12.3922 18.8201 12.5925 19.1763 12.9487C19.5325 13.3049 19.7328 13.7879 19.7333 14.2917V16.1917C19.7333 16.5414 20.0169 16.825 20.3667 16.825C20.7164 16.825 21 16.5414 21 16.1917V14.2917C20.999 13.4521 20.665 12.6473 20.0714 12.0536C19.4777 11.46 18.6729 11.126 17.8333 11.125Z" fill="#484848"/>
<path d="M16.5666 4.79206C16.9424 4.79206 17.3097 4.90349 17.6222 5.11227C17.9346 5.32104 18.1781 5.61778 18.3219 5.96496C18.4657 6.31214 18.5034 6.69417 18.4301 7.06273C18.3568 7.43129 18.1758 7.76984 17.9101 8.03556C17.6444 8.30128 17.3058 8.48224 16.9372 8.55555C16.5687 8.62886 16.1867 8.59124 15.8395 8.44743C15.4923 8.30362 15.1956 8.06009 14.9868 7.74764C14.778 7.43519 14.6666 7.06784 14.6666 6.69206C14.6666 6.18815 14.8667 5.70487 15.2231 5.34855C15.5794 4.99224 16.0627 4.79206 16.5666 4.79206ZM16.5666 3.52539C15.9403 3.52539 15.328 3.71111 14.8073 4.05907C14.2865 4.40703 13.8806 4.90159 13.641 5.48023C13.4013 6.05886 13.3386 6.69557 13.4608 7.30984C13.5829 7.92412 13.8845 8.48836 14.3274 8.93123C14.7703 9.3741 15.3345 9.67569 15.9488 9.79788C16.5631 9.92006 17.1998 9.85735 17.7784 9.61768C18.357 9.378 18.8516 8.97212 19.1996 8.45136C19.5475 7.93061 19.7332 7.31837 19.7332 6.69206C19.7332 5.85221 19.3996 5.04675 18.8057 4.45289C18.2119 3.85902 17.4064 3.52539 16.5666 3.52539Z" fill="#484848"/>
<path d="M15.9333 20.6252C15.9333 20.975 15.6498 21.2585 15.3 21.2585C14.9502 21.2585 14.6667 20.975 14.6667 20.6252V19.9919C14.6661 19.4881 14.4658 19.0051 14.1096 18.6489C13.7534 18.2927 13.2704 18.0924 12.7667 18.0919H10.2333C9.72956 18.0924 9.24658 18.2927 8.89037 18.6489C8.53416 19.0051 8.33382 19.4881 8.33332 19.9919V20.6252C8.33332 20.975 8.04976 21.2585 7.69998 21.2585C7.3502 21.2585 7.06665 20.975 7.06665 20.6252V19.9919C7.06766 19.1523 7.40161 18.3474 7.99526 17.7538C8.5889 17.1602 9.39377 16.8262 10.2333 16.8252H12.7667C13.6062 16.8262 14.4111 17.1602 15.0047 17.7538C15.5984 18.3474 15.9323 19.1523 15.9333 19.9919V20.6252Z" fill="#484848"/>
<path d="M11.4999 10.4923C11.8757 10.4923 12.2431 10.6037 12.5555 10.8125C12.868 11.0212 13.1115 11.318 13.2553 11.6652C13.3991 12.0123 13.4367 12.3944 13.3634 12.7629C13.2901 13.1315 13.1091 13.47 12.8434 13.7358C12.5777 14.0015 12.2392 14.1824 11.8706 14.2557C11.502 14.3291 11.12 14.2914 10.7728 14.1476C10.4256 14.0038 10.1289 13.7603 9.92013 13.4478C9.71135 13.1354 9.59992 12.768 9.59992 12.3923C9.59992 11.8883 9.8001 11.4051 10.1564 11.0487C10.5127 10.6924 10.996 10.4923 11.4999 10.4923ZM11.4999 9.22559C10.8736 9.22559 10.2614 9.41131 9.74061 9.75927C9.21986 10.1072 8.81398 10.6018 8.5743 11.1804C8.33462 11.7591 8.27191 12.3958 8.3941 13.01C8.51629 13.6243 8.81788 14.1886 9.26075 14.6314C9.70362 15.0743 10.2679 15.3759 10.8821 15.4981C11.4964 15.6203 12.1331 15.5575 12.7118 15.3179C13.2904 15.0782 13.785 14.6723 14.1329 14.1516C14.4809 13.6308 14.6666 13.0186 14.6666 12.3923C14.6666 11.5524 14.333 10.7469 13.7391 10.1531C13.1452 9.55922 12.3398 9.22559 11.4999 9.22559Z" fill="#484848"/>
<path d="M6.43333 11.7583C6.43333 11.4086 6.14978 11.125 5.8 11.125H5.16667C4.32712 11.126 3.52225 11.46 2.92861 12.0536C2.33496 12.6473 2.00101 13.4521 2 14.2917V16.1917C2 16.5414 2.28355 16.825 2.63333 16.825C2.98311 16.825 3.26667 16.5414 3.26667 16.1917V14.2917C3.26717 13.7879 3.46751 13.3049 3.82372 12.9487C4.17993 12.5925 4.66291 12.3922 5.16667 12.3917H5.8C6.14978 12.3917 6.43333 12.1081 6.43333 11.7583Z" fill="#484848"/>
<path d="M6.43327 4.79206C6.80905 4.79206 7.1764 4.90349 7.48885 5.11227C7.80131 5.32104 8.04483 5.61778 8.18864 5.96496C8.33245 6.31214 8.37007 6.69417 8.29676 7.06273C8.22345 7.43129 8.04249 7.76984 7.77677 8.03556C7.51105 8.30128 7.17251 8.48224 6.80394 8.55555C6.43538 8.62886 6.05335 8.59124 5.70617 8.44743C5.35899 8.30362 5.06225 8.06009 4.85348 7.74764C4.6447 7.43519 4.53327 7.06784 4.53327 6.69206C4.53327 6.18815 4.73345 5.70487 5.08977 5.34855C5.44609 4.99224 5.92936 4.79206 6.43327 4.79206ZM6.43327 3.52539C5.80696 3.52539 5.19472 3.71111 4.67396 4.05907C4.15321 4.40703 3.74733 4.90159 3.50765 5.48023C3.26797 6.05886 3.20526 6.69557 3.32745 7.30984C3.44964 7.92412 3.75123 8.48836 4.1941 8.93123C4.63696 9.3741 5.20121 9.67569 5.81548 9.79788C6.42976 9.92006 7.06647 9.85735 7.6451 9.61768C8.22373 9.378 8.7183 8.97212 9.06626 8.45136C9.41421 7.93061 9.59994 7.31837 9.59994 6.69206C9.59994 5.85221 9.26631 5.04675 8.67244 4.45289C8.07858 3.85902 7.27312 3.52539 6.43327 3.52539Z" fill="#484848"/>
</svg>
