<svg width="24" height="24" viewBox="0 0 24 24" fill="none" xmlns="http://www.w3.org/2000/svg">
<g id="Garage">
<g id="Group">
<g id="Mask group">
<g id="Group_2">
<g id="Clip path group">
<mask id="mask0_2262_37208" style="mask-type:luminance" maskUnits="userSpaceOnUse" x="1" y="1" width="22" height="22">
<g id="b">
<path id="Vector" d="M21.6696 21.6833V2.34331H2.32969V21.6833H21.6696Z" fill="white" stroke="white" stroke-width="1.3"/>
</g>
</mask>
<g mask="url(#mask0_2262_37208)">
<g id="Group_3">
<path id="Vector_2" d="M21.5118 21.5271V9.03026L11.9981 2.66091L2.48438 9.03026V21.5271" stroke="black" stroke-width="1.3" stroke-miterlimit="10" stroke-linecap="square"/>
<path id="Vector_3" d="M16.6759 19.9146H7.32343C6.43285 19.9146 5.71094 19.1926 5.71094 18.3021V16.2864C5.71094 15.3959 6.43285 14.6739 7.32343 14.6739H16.6759C17.5665 14.6739 18.2884 15.3959 18.2884 16.2864V18.3021C18.2884 19.1926 17.5665 19.9146 16.6759 19.9146Z" stroke="black" stroke-width="1.3" stroke-miterlimit="10"/>
<path id="Vector_4" d="M13.852 17.2944H10.1836" stroke="black" stroke-width="1.3" stroke-miterlimit="10"/>
<path id="Vector_5" d="M6.98438 14.7062L7.12982 14.2559L7.4207 13.3554L8.00247 11.5544C8.07532 11.3455 8.21134 11.1645 8.39167 11.0365C8.572 10.9084 8.78772 10.8396 9.00891 10.8396H14.982C15.2032 10.8396 15.4189 10.9084 15.5992 11.0365C15.7796 11.1645 15.9156 11.3456 15.9884 11.5544L16.5749 13.3687L16.8681 14.2759L17.0147 14.7295" stroke="black" stroke-width="1.3" stroke-miterlimit="10"/>
<path id="Vector_6" d="M7.32343 20.1968V20.7209C7.32343 21.1661 6.96248 21.5271 6.51719 21.5271C6.07189 21.5271 5.71094 21.1661 5.71094 20.7209V17.3346" stroke="black" stroke-width="1.3" stroke-miterlimit="10"/>
<path id="Vector_7" d="M16.6758 20.1968V20.7209C16.6758 21.1661 17.0367 21.5271 17.482 21.5271C17.9273 21.5271 18.2883 21.1661 18.2883 20.7209V17.3346" stroke="black" stroke-width="1.3" stroke-miterlimit="10"/>
<path id="Vector_8" d="M15.6656 17.4506C15.7519 17.4506 15.8219 17.3806 15.8219 17.2943C15.8219 17.208 15.7519 17.1381 15.6656 17.1381C15.5793 17.1381 15.5094 17.208 15.5094 17.2943C15.5094 17.3806 15.5793 17.4506 15.6656 17.4506Z" fill="black" stroke="black" stroke-width="1.3"/>
<path id="Vector_9" d="M8.36875 17.4506C8.45505 17.4506 8.525 17.3806 8.525 17.2943C8.525 17.208 8.45505 17.1381 8.36875 17.1381C8.28244 17.1381 8.2125 17.208 8.2125 17.2943C8.2125 17.3806 8.28244 17.4506 8.36875 17.4506Z" fill="black" stroke="black" stroke-width="1.3"/>
</g>
</g>
</g>
</g>
</g>
</g>
<circle id="Ellipse 33" cx="6.5" cy="20.5" r="0.5" fill="black"/>
<circle id="Ellipse 34" cx="17.5" cy="20.5" r="0.5" fill="black"/>
</g>
</svg>
