<svg width="41" height="41" viewBox="0 0 41 41" fill="none" xmlns="http://www.w3.org/2000/svg">
<g id="HE">
<g id="Group 91">
<g id="layer1">
<path id="path6139" d="M30.4391 5.57877C29.2424 5.89944 28.4228 7.16326 28.8611 8.37451L32.6509 18.8456C32.9169 18.6265 33.2527 18.5009 33.604 18.5009C34.1729 18.4896 34.7848 18.4915 35.3334 18.5253L33.2056 7.20558C32.9982 6.10258 31.9523 5.43858 30.8922 5.50449C30.7409 5.51394 30.5887 5.53871 30.4391 5.57877ZM31.1022 7.50344C31.3783 7.50344 31.6022 7.72723 31.6022 8.00336C31.6022 8.2795 31.3783 8.50334 31.1022 8.50334C30.8261 8.50334 30.6022 8.27948 30.6022 8.00336C30.6022 7.72724 30.8261 7.50344 31.1022 7.50344ZM19.4075 11.0443C18.1635 11.586 17.4062 12.7544 17.0209 13.8361L16.6059 15.0021H22.6368C22.8056 14.5448 23.0393 14.1495 23.7383 13.7434L28.6248 10.6595L27.9207 8.71429C27.7894 8.35123 27.7359 7.98657 27.744 7.63135L19.4075 11.0443ZM16.1059 16.002C15.2813 16.002 14.6985 16.7003 14.6109 17.4453L14.6222 17.3827L13.714 21.0027H7.10404C6.28173 21.0027 5.60217 21.6793 5.60217 22.5016V26.0044C5.60217 26.8267 6.28173 27.5023 7.10404 27.5023H24.1041C24.9265 27.5023 25.6245 26.828 25.606 25.9926V22.5016C25.6055 22.4383 25.5928 22.3757 25.569 22.317L23.5691 17.3163C23.4614 17.0472 23.3388 16.7538 23.1179 16.4892C22.897 16.2245 22.5303 16.0019 22.1072 16.0019L16.1059 16.002ZM17.1 18.0029H17.1057H18.6046V22.0036H16.3049C15.9747 22.0041 15.7345 21.6904 15.8216 21.3719L16.6223 18.3749C16.6797 18.1577 16.8753 18.0055 17.1 18.0029ZM19.6047 18.0029H21.2101C21.4113 18.0028 21.5929 18.1232 21.671 18.3085L23.5645 22.8083C23.5911 22.8699 23.6051 22.9364 23.6055 23.0036V25.0045C23.6045 25.2791 23.3821 25.5014 23.1075 25.5025H20.1067C19.9394 25.503 19.7828 25.4199 19.6897 25.2808L19.6046 25.1529L19.6047 18.0029ZM33.604 19.5009C33.4453 19.5009 33.2959 19.5762 33.2017 19.7039L28.7029 25.7017C28.4552 26.0308 28.6897 26.5016 29.1013 26.5025H32.1021C34.0324 26.5025 35.6 24.9338 35.6 23.0036V20.0028C35.601 19.7266 35.3781 19.5019 35.102 19.5008L33.604 19.5009ZM8.09654 22.9958C8.37725 22.992 8.60566 23.2209 8.60239 23.5016V25.0045C8.61751 25.6862 7.58713 25.6862 7.60243 25.0045V23.5016C7.59866 23.2255 7.82043 22.999 8.09654 22.9958ZM10.0974 22.9958C10.3781 22.992 10.6065 23.2209 10.6033 23.5016V25.0045C10.6184 25.6857 9.58861 25.6857 9.60331 25.0045V23.5016C9.59953 23.2255 9.8213 22.999 10.0974 22.9958ZM12.0944 22.9958C12.3762 22.9901 12.6065 23.2197 12.6032 23.5016V25.0045C12.588 25.6563 11.6178 25.6563 11.6032 25.0045V23.5016C11.5994 23.2266 11.8194 23.0006 12.0944 22.9958ZM9.1043 28.5023C7.17407 28.5023 5.60156 30.0719 5.60156 32.0021C5.60156 33.9324 7.17407 35.5 9.1043 35.5H24.6025C26.5328 35.5 28.1004 33.9324 28.1004 32.0021C28.1004 30.0719 26.5328 28.5023 24.6025 28.5023H9.1043ZM10.1052 30.5032C10.9277 30.5032 11.6032 31.1797 11.6032 32.0021C11.6032 32.8246 10.9277 33.5041 10.1052 33.5041C9.28276 33.504 8.60239 32.8246 8.60239 32.0021C8.60239 31.1797 9.2828 30.5032 10.1052 30.5032ZM14.604 30.5032C15.4265 30.5032 16.102 31.1797 16.102 32.0021C16.102 32.8246 15.4265 33.504 14.604 33.5041C13.7815 33.5041 13.1012 32.8246 13.1012 32.0021C13.1012 31.1797 13.7816 30.5032 14.604 30.5032ZM19.1028 30.5032C19.9253 30.5032 20.6008 31.1797 20.6008 32.0021C20.6008 32.8246 19.9253 33.5041 19.1028 33.5041C18.2803 33.5041 17.6048 32.8246 17.6048 32.0021C17.6049 31.1797 18.2803 30.5032 19.1028 30.5032ZM23.6016 30.5032C24.4241 30.5032 25.1045 31.1797 25.1045 32.0021C25.1045 32.8246 24.4241 33.5041 23.6016 33.5041C22.7791 33.5041 22.1036 32.8246 22.1036 32.0021C22.1037 31.1797 22.7792 30.5032 23.6016 30.5032Z" fill="#1A5A96"/>
</g>
</g>
</g>
</svg>
