<svg width="24" height="24" viewBox="0 0 24 24" fill="none" xmlns="http://www.w3.org/2000/svg">
<g id="Group 91">
<g id="layer1">
<path id="path6139" d="M19.6787 0.356388C18.7448 0.606625 18.1053 1.59283 18.4473 2.53803L21.4047 10.7091C21.6122 10.5381 21.8743 10.4401 22.1484 10.4401C22.5924 10.4312 23.0698 10.4327 23.4979 10.4591L21.8375 1.62586C21.6757 0.765145 20.8595 0.246993 20.0323 0.298426C19.9142 0.305799 19.7954 0.325126 19.6787 0.356388ZM20.1961 1.85829C20.4116 1.85829 20.5863 2.03292 20.5863 2.2484C20.5863 2.46389 20.4116 2.63856 20.1961 2.63856C19.9807 2.63856 19.806 2.46387 19.806 2.2484C19.806 2.03294 19.9807 1.85829 20.1961 1.85829ZM11.0702 4.62134C10.0995 5.04411 9.50858 5.95581 9.20787 6.79993L8.88402 7.7098H13.5902C13.7219 7.35293 13.9043 7.04453 14.4498 6.72757L18.2629 4.3211L17.7135 2.80317C17.611 2.51986 17.5693 2.2353 17.5756 1.9581L11.0702 4.62134ZM8.49386 8.49007C7.85039 8.49007 7.39562 9.03498 7.32723 9.61635L7.33607 9.56752L6.6274 12.3923H1.46932C0.827638 12.3923 0.297347 12.9203 0.297347 13.562V16.2954C0.297347 16.9371 0.827638 17.4643 1.46932 17.4643H14.7352C15.377 17.4643 15.9216 16.9381 15.9072 16.2862V13.562C15.9068 13.5126 15.8969 13.4638 15.8783 13.4179L14.3177 9.51568C14.2337 9.30569 14.138 9.07674 13.9656 8.87024C13.7933 8.66374 13.5071 8.49002 13.177 8.49002L8.49386 8.49007ZM9.2696 10.0515H9.27402H10.4437V13.1734H8.64918C8.3915 13.1738 8.20406 12.929 8.27198 12.6804L8.89684 10.3418C8.94166 10.1723 9.09427 10.0535 9.2696 10.0515ZM11.2242 10.0515H12.4769C12.6339 10.0514 12.7756 10.1454 12.8366 10.29L14.3141 13.8013C14.3349 13.8494 14.3458 13.9013 14.3461 13.9537V15.5151C14.3454 15.7294 14.1718 15.9029 13.9575 15.9037H11.6158C11.4853 15.9041 11.3631 15.8393 11.2904 15.7308L11.2241 15.6309L11.2242 10.0515ZM22.1484 11.2204C22.0245 11.2204 21.908 11.2792 21.8345 11.3789L18.3239 16.0592C18.1305 16.316 18.3135 16.6834 18.6348 16.6841H20.9764C22.4827 16.6841 23.706 15.46 23.706 13.9537V11.612C23.7067 11.3966 23.5328 11.2212 23.3173 11.2204L22.1484 11.2204ZM2.24382 13.9476C2.46287 13.9447 2.6411 14.1233 2.63855 14.3423V15.5151C2.65035 16.0471 1.8463 16.0471 1.85824 15.5151V14.3423C1.85529 14.1269 2.02835 13.9502 2.24382 13.9476ZM3.80519 13.9476C4.02424 13.9447 4.20247 14.1233 4.19992 14.3423V15.5151C4.21172 16.0467 3.40814 16.0467 3.41961 15.5151V14.3423C3.41666 14.1269 3.58972 13.9502 3.80519 13.9476ZM5.3635 13.9476C5.58345 13.9432 5.76312 14.1224 5.76052 14.3423V15.5151C5.74872 16.0238 4.99164 16.0238 4.98021 15.5151V14.3423C4.97725 14.1278 5.14893 13.9514 5.3635 13.9476ZM3.03022 18.2446C1.52397 18.2446 0.296875 19.4694 0.296875 20.9757C0.296875 22.4819 1.52397 23.7052 3.03022 23.7052H15.1242C16.6304 23.7052 17.8537 22.4819 17.8537 20.9757C17.8537 19.4694 16.6304 18.2446 15.1242 18.2446H3.03022ZM3.81129 19.806C4.45309 19.806 4.9802 20.3339 4.98021 20.9757C4.98021 21.6175 4.45311 22.1477 3.81129 22.1477C3.16948 22.1477 2.63855 21.6175 2.63855 20.9757C2.63855 20.3339 3.16951 19.806 3.81129 19.806ZM7.32189 19.806C7.96369 19.806 8.49081 20.3339 8.49082 20.9757C8.49082 21.6175 7.96369 22.1477 7.32189 22.1477C6.68007 22.1477 6.14915 21.6175 6.14915 20.9757C6.14915 20.3339 6.68009 19.806 7.32189 19.806ZM10.8325 19.806C11.4743 19.806 12.0014 20.3339 12.0014 20.9757C12.0014 21.6175 11.4743 22.1477 10.8325 22.1477C10.1907 22.1477 9.66356 21.6175 9.66356 20.9757C9.66358 20.3339 10.1907 19.806 10.8325 19.806ZM14.3431 19.806C14.9849 19.806 15.5158 20.3339 15.5158 20.9757C15.5158 21.6175 14.9849 22.1477 14.3431 22.1477C13.7013 22.1477 13.1742 21.6175 13.1742 20.9757C13.1742 20.3339 13.7013 19.806 14.3431 19.806Z" fill="white"/>
</g>
</g>
</svg>
