<svg width="132" height="132" viewBox="0 0 132 132" fill="none" xmlns="http://www.w3.org/2000/svg">
<path d="M97.1625 17.4586C93.3102 18.4909 90.672 22.559 92.0829 26.4579L104.282 60.1636C105.138 59.4582 106.219 59.054 107.35 59.0539C109.181 59.0174 111.151 59.0235 112.917 59.1324L106.067 22.6952C105.4 19.1447 102.033 17.0074 98.621 17.2195C98.1338 17.2499 97.6439 17.3297 97.1625 17.4586ZM99.2968 23.654C100.186 23.654 100.906 24.3743 100.906 25.2632C100.906 26.1521 100.186 26.8726 99.2968 26.8726C98.408 26.8726 97.6874 26.152 97.6874 25.2632C97.6874 24.3744 98.408 23.654 99.2968 23.654ZM61.6525 35.0516C57.6482 36.7955 55.2107 40.5563 53.9703 44.0382L52.6344 47.7914H72.0474C72.5906 46.3194 73.3432 45.0472 75.5931 43.7397L91.3222 33.8131L89.0559 27.5516C88.6331 26.383 88.461 25.2091 88.487 24.0657L61.6525 35.0516ZM51.025 51.0101C48.3707 51.0101 46.4947 53.2578 46.2126 55.656L46.2491 55.4546L43.3258 67.1068H22.0487C19.4018 67.1068 17.2143 69.2849 17.2143 71.9319V83.207C17.2143 85.8539 19.4018 88.0287 22.0487 88.0287H76.7706C79.4178 88.0287 81.6645 85.8581 81.605 83.1691V71.9319C81.6034 71.7281 81.5624 71.5267 81.4858 71.3375L75.0483 55.2407C74.7016 54.3745 74.3072 53.4301 73.5961 52.5783C72.885 51.7264 71.7046 51.0099 70.3428 51.0099L51.025 51.0101ZM54.2249 57.4508H54.2431H59.0682V70.3288H51.6657C50.6027 70.3304 49.8295 69.3206 50.1097 68.2952L52.6872 58.6483C52.8722 57.9491 53.5017 57.4593 54.2249 57.4508ZM62.2875 57.4508H67.4551C68.1025 57.4505 68.6871 57.8382 68.9387 58.4346L75.0336 72.9191C75.1194 73.1174 75.1644 73.3314 75.1656 73.5476V79.9883C75.1624 80.8722 74.4464 81.5879 73.5625 81.5914H63.9031C63.3648 81.5931 62.8607 81.3256 62.5609 80.8779L62.2872 80.4662L62.2875 57.4508ZM107.35 62.2727C106.839 62.2727 106.358 62.5152 106.055 62.9263L91.5737 82.2326C90.7762 83.292 91.5311 84.8074 92.8561 84.8102H102.516C108.729 84.8102 113.775 79.7609 113.775 73.5476V63.8882C113.778 62.9994 113.061 62.2761 112.172 62.2725L107.35 62.2727ZM25.2435 73.5225C26.1471 73.5104 26.8823 74.2471 26.8718 75.1507V79.9883C26.9205 82.1829 23.6038 82.1829 23.653 79.9883V75.1507C23.6409 74.2619 24.3547 73.533 25.2435 73.5225ZM31.6842 73.5225C32.5878 73.5104 33.323 74.2471 33.3125 75.1507V79.9883C33.3611 82.181 30.0464 82.181 30.0937 79.9883V75.1507C30.0815 74.2619 30.7954 73.533 31.6842 73.5225ZM38.1122 73.5225C39.0195 73.5043 39.7606 74.2433 39.7499 75.1507V79.9883C39.7013 82.0866 36.5783 82.0866 36.5312 79.9883V75.1507C36.5189 74.2655 37.2271 73.5381 38.1122 73.5225ZM28.4874 91.2477C22.2742 91.2477 17.2124 96.3 17.2124 102.513C17.2124 108.727 22.2742 113.773 28.4874 113.773H78.3749C84.5883 113.773 89.6343 108.727 89.6343 102.513C89.6343 96.3 84.5883 91.2477 78.3749 91.2477H28.4874ZM31.7094 97.6882C34.3568 97.6882 36.5311 99.8659 36.5312 102.513C36.5312 105.161 34.3569 107.348 31.7094 107.348C29.0619 107.348 26.8718 105.161 26.8718 102.513C26.8718 99.8659 29.062 97.6882 31.7094 97.6882ZM46.1906 97.6882C48.838 97.6882 51.0124 99.8659 51.0124 102.513C51.0124 105.161 48.838 107.348 46.1906 107.348C43.5431 107.348 41.353 105.161 41.353 102.513C41.353 99.8659 43.5432 97.6882 46.1906 97.6882ZM60.6718 97.6882C63.3192 97.6882 65.4936 99.8659 65.4936 102.513C65.4936 105.161 63.3193 107.348 60.6718 107.348C58.0243 107.348 55.85 105.161 55.85 102.513C55.8501 99.8659 58.0244 97.6882 60.6718 97.6882ZM75.1531 97.6882C77.8005 97.6882 79.9906 99.8659 79.9906 102.513C79.9906 105.161 77.8005 107.348 75.1531 107.348C72.5056 107.348 70.3312 105.161 70.3312 102.513C70.3313 99.8659 72.5056 97.6882 75.1531 97.6882Z" fill="black"/>
</svg>
