<svg width="56" height="57" viewBox="0 0 56 57" fill="none" xmlns="http://www.w3.org/2000/svg">
<g id="help">
<path id="Vector" fill-rule="evenodd" clip-rule="evenodd" d="M28 4C23.1544 4 18.4175 5.4369 14.3885 8.12899C10.3595 10.8211 7.21931 14.6475 5.36496 19.1243C3.51062 23.601 3.02543 28.5272 3.97077 33.2797C4.91611 38.0322 7.24951 42.3977 10.6759 45.8241C14.1023 49.2505 18.4678 51.5839 23.2203 52.5292C27.9728 53.4746 32.899 52.9894 37.3758 51.135C41.8525 49.2807 45.6789 46.1405 48.371 42.1115C51.0631 38.0825 52.5 33.3456 52.5 28.5C52.5 22.0022 49.9188 15.7705 45.3241 11.1759C40.7295 6.58124 34.4978 4 28 4ZM28 49.5C23.8466 49.5 19.7865 48.2684 16.333 45.9609C12.8796 43.6534 10.188 40.3736 8.59854 36.5364C7.0091 32.6991 6.59323 28.4767 7.40352 24.4031C8.21381 20.3295 10.2139 16.5877 13.1508 13.6508C16.0877 10.7139 19.8295 8.7138 23.9031 7.90351C27.9767 7.09322 32.1991 7.50909 36.0364 9.09853C39.8736 10.688 43.1534 13.3796 45.4609 16.833C47.7684 20.2865 49 24.3466 49 28.5C49 34.0695 46.7875 39.411 42.8493 43.3492C38.911 47.2875 33.5696 49.5 28 49.5ZM28 44.25C29.4498 44.25 30.625 43.0747 30.625 41.625C30.625 40.1753 29.4498 39 28 39C26.5503 39 25.375 40.1753 25.375 41.625C25.375 43.0747 26.5503 44.25 28 44.25ZM27.125 14.5H29.75C31.8386 14.5 33.8416 15.3297 35.3185 16.8066C36.7953 18.2834 37.625 20.2864 37.625 22.375C37.625 24.4636 36.7953 26.4666 35.3185 27.9435C33.8416 29.4203 31.8386 30.25 29.75 30.25V34.625H26.25V26.75H29.75C30.9103 26.75 32.0231 26.2891 32.8436 25.4686C33.6641 24.6481 34.125 23.5353 34.125 22.375C34.125 21.2147 33.6641 20.1019 32.8436 19.2814C32.0231 18.461 30.9103 18 29.75 18H27.125C25.9647 18 24.8519 18.461 24.0314 19.2814C23.2109 20.1019 22.75 21.2147 22.75 22.375V23.25H19.25V22.375C19.2477 21.3402 19.4498 20.3151 19.8448 19.3587C20.2397 18.4022 20.8197 17.5331 21.5514 16.8014C22.2831 16.0697 23.1522 15.4897 24.1087 15.0948C25.0651 14.6998 26.0902 14.4977 27.125 14.5Z" fill="#A7A7A7"/>
</g>
</svg>
