<svg xmlns="http://www.w3.org/2000/svg" width="24" height="25" viewBox="0 0 24 25" fill="none">
    <path d="M12.4488 2.75664C12.3187 2.65519 12.1584 2.6001 11.9934 2.6001C11.8284 2.6001 11.6681 2.65519 11.538 2.75664L1.58341 10.5187C1.26184 10.7695 1.20594 11.2341 1.45886 11.554C1.70936 11.8708 2.16859 11.926 2.48708 11.6777L3.2 11.1218V20.1997C3.20077 20.5885 3.35555 20.9611 3.63043 21.2359C3.90532 21.5108 4.27792 21.6656 4.66667 21.6664H19.3333C19.7221 21.6656 20.0947 21.5108 20.3696 21.2359C20.6444 20.9611 20.7992 20.5885 20.8 20.1997V11.1284L21.513 11.6843C21.8314 11.9326 22.2906 11.8774 22.5411 11.5606C22.794 11.2407 22.7381 10.7761 22.4164 10.5254L12.4488 2.75664ZM13.4667 20.1997H10.5333V14.333H13.4667V20.1997ZM14.9333 20.1997V14.333C14.9329 13.9442 14.7783 13.5713 14.5033 13.2964C14.2284 13.0214 13.8555 12.8668 13.4667 12.8664H10.5333C10.1445 12.8668 9.77164 13.0214 9.49667 13.2964C9.2217 13.5713 9.06705 13.9442 9.06667 14.333V20.1997H5.16667C4.89052 20.1997 4.66667 19.9758 4.66667 19.6997V9.97851L12 4.26584L19.3333 9.98584V19.6997C19.3333 19.9758 19.1095 20.1997 18.8333 20.1997H14.9333Z" fill="#548ADB"/>
    </svg>