<svg width="24" height="24" viewBox="0 0 24 24" fill="none" xmlns="http://www.w3.org/2000/svg">
<g id="hose 1">
<g id="Group">
<path id="Vector" d="M21.6113 18.3585C21.7595 17.9966 21.8015 17.5999 21.7323 17.2149C21.6631 16.83 21.4857 16.4727 21.2207 16.185C21.9962 15.3349 21.9357 14.0171 21.0856 13.2416C20.6994 12.8894 20.1949 12.6951 19.6722 12.6974H7.81439V9.20983C7.81806 8.32621 8.37633 7.54014 9.20944 7.24562V8.51231H13.3946V7.11727H17.5797V2.93215H13.3946V1.53711H9.20944V2.9733C6.0345 3.33148 3.63359 6.01475 3.62927 9.20983V12.8258C2.54729 13.2001 1.97362 14.3807 2.34793 15.4626C2.44053 15.7303 2.587 15.9762 2.7783 16.185C2.51337 16.4727 2.33592 16.83 2.26673 17.2149C2.19755 17.5999 2.23951 17.9966 2.38769 18.3585C1.27396 18.657 0.613062 19.8017 0.911514 20.9154C1.15643 21.8294 1.98548 22.4644 2.93175 22.4627H21.0673C22.2203 22.4648 23.1566 21.5317 23.1587 20.3787C23.1603 19.4325 22.5254 18.6035 21.6113 18.3585ZM13.3946 4.32719H16.1846V5.72223H13.3946V4.32719ZM10.6045 2.93215H11.9995V7.11727H10.6045V2.93215ZM5.02431 9.20983C5.02732 6.78368 6.80866 4.72657 9.20944 4.37672V5.79198C7.58657 6.12544 6.42118 7.55305 6.41935 9.20983V12.6974H5.02431V9.20983ZM4.32679 14.0925H19.6722C20.0575 14.0925 20.3698 14.4047 20.3698 14.79C20.3698 15.1752 20.0575 15.4875 19.6722 15.4875H4.32679C3.94154 15.4875 3.62927 15.1752 3.62927 14.79C3.62927 14.4047 3.94154 14.0925 4.32679 14.0925ZM4.32679 16.8826H19.6722C20.0575 16.8826 20.3698 17.1948 20.3698 17.5801C20.3698 17.9653 20.0575 18.2776 19.6722 18.2776H4.32679C3.94154 18.2776 3.62927 17.9653 3.62927 17.5801C3.62927 17.1948 3.94154 16.8826 4.32679 16.8826ZM21.0673 21.0677H2.93175C2.5465 21.0677 2.23423 20.7554 2.23423 20.3702C2.23423 19.9849 2.5465 19.6726 2.93175 19.6726H21.0673C21.4525 19.6726 21.7648 19.9849 21.7648 20.3702C21.7648 20.7554 21.4525 21.0677 21.0673 21.0677ZM18.9747 2.93215H20.3698V4.32719H18.9747V2.93215ZM21.7648 1.53711H23.1598V2.93215H21.7648V1.53711Z" fill="black"/>
<path id="Vector_2" d="M18.9766 5.72219H20.3716V7.11723H18.9766V5.72219ZM21.7666 7.11723H23.1617V8.51227H21.7666V7.11723ZM21.7666 4.32715H23.1617V5.72219H21.7666V4.32715Z" fill="black"/>
</g>
</g>
</svg>
