<svg width="52" height="53" viewBox="0 0 52 53" fill="none" xmlns="http://www.w3.org/2000/svg">
<g id="carbon:user">
<path id="Vector" d="M26 7C27.607 7 29.1779 7.47652 30.514 8.36931C31.8502 9.2621 32.8916 10.531 33.5065 12.0157C34.1215 13.5003 34.2824 15.134 33.9689 16.7101C33.6554 18.2862 32.8815 19.7339 31.7452 20.8702C30.6089 22.0065 29.1612 22.7804 27.5851 23.0939C26.009 23.4074 24.3753 23.2465 22.8907 22.6315C21.406 22.0166 20.1371 20.9752 19.2443 19.639C18.3515 18.3029 17.875 16.732 17.875 15.125C17.875 12.9701 18.731 10.9035 20.2548 9.37976C21.7785 7.85602 23.8451 7 26 7ZM26 3.75C23.7502 3.75 21.551 4.41713 19.6804 5.66703C17.8098 6.91693 16.3518 8.69347 15.4909 10.772C14.6299 12.8505 14.4047 15.1376 14.8436 17.3442C15.2825 19.5507 16.3658 21.5775 17.9567 23.1683C19.5475 24.7592 21.5743 25.8425 23.7808 26.2814C25.9874 26.7203 28.2745 26.4951 30.353 25.6341C32.4315 24.7732 34.2081 23.3152 35.458 21.4446C36.7079 19.574 37.375 17.3748 37.375 15.125C37.375 12.1082 36.1766 9.21489 34.0433 7.08166C31.9101 4.94843 29.0168 3.75 26 3.75ZM42.25 49.25H39V41.125C39 40.058 38.7898 39.0015 38.3815 38.0157C37.9732 37.0299 37.3747 36.1342 36.6202 35.3798C35.8658 34.6253 34.9701 34.0268 33.9843 33.6185C32.9985 33.2102 31.942 33 30.875 33H21.125C18.9701 33 16.9035 33.856 15.3798 35.3798C13.856 36.9035 13 38.9701 13 41.125V49.25H9.75V41.125C9.75 38.1082 10.9484 35.2149 13.0817 33.0817C15.2149 30.9484 18.1082 29.75 21.125 29.75H30.875C33.8918 29.75 36.7851 30.9484 38.9183 33.0817C41.0516 35.2149 42.25 38.1082 42.25 41.125V49.25Z" fill="#909090"/>
</g>
</svg>
