<svg xmlns="http://www.w3.org/2000/svg" width="33" height="32" viewBox="0 0 33 32" fill="none">
    <path d="M20.3332 13.222C20.9595 13.222 21.5717 13.0363 22.0925 12.6883C22.6132 12.3404 23.0191 11.8458 23.2588 11.2672C23.4985 10.6885 23.5612 10.0518 23.439 9.43755C23.3168 8.82328 23.0152 8.25903 22.5723 7.81617C22.1295 7.3733 21.5652 7.07171 20.951 6.94952C20.3367 6.82733 19.7 6.89004 19.1213 7.12972C18.5427 7.3694 18.0481 7.77528 17.7002 8.29603C17.3522 8.81679 17.1665 9.42903 17.1665 10.0553C17.1665 10.8952 17.5001 11.7006 18.094 12.2945C18.6879 12.8884 19.4933 13.222 20.3332 13.222ZM20.3332 8.99978C20.5419 8.99978 20.746 9.06169 20.9196 9.17768C21.0932 9.29366 21.2285 9.45852 21.3084 9.6514C21.3883 9.84427 21.4092 10.0565 21.3684 10.2613C21.3277 10.466 21.2272 10.6541 21.0796 10.8017C20.9319 10.9494 20.7439 11.0499 20.5391 11.0906C20.3343 11.1313 20.1221 11.1104 19.9292 11.0305C19.7363 10.9507 19.5715 10.8154 19.4555 10.6418C19.3395 10.4682 19.2776 10.2641 19.2776 10.0553C19.2776 9.77539 19.3888 9.5069 19.5868 9.30895C19.7847 9.11099 20.0532 8.99978 20.3332 8.99978Z" fill="#A3A3A3"/>
    <path d="M27.7222 2.6665H6.61111C6.05121 2.6665 5.51424 2.88892 5.11833 3.28483C4.72242 3.68074 4.5 4.21771 4.5 4.77762V25.8887C4.5 26.4486 4.72242 26.9856 5.11833 27.3815C5.51424 27.7774 6.05121 27.9998 6.61111 27.9998H27.7222C28.2821 27.9998 28.8191 27.7774 29.215 27.3815C29.6109 26.9856 29.8333 26.4486 29.8333 25.8887V4.77762C29.8333 4.21771 29.6109 3.68074 29.215 3.28483C28.8191 2.88892 28.2821 2.6665 27.7222 2.6665ZM27.7222 25.8887H6.61111V19.5554L11.8889 14.2776L17.7894 20.1782C18.185 20.5714 18.7201 20.7921 19.2778 20.7921C19.8355 20.7921 20.3706 20.5714 20.7661 20.1782L22.4444 18.4998L27.7222 23.7776V25.8887ZM27.7222 20.7904L23.9328 17.0009C23.5372 16.6078 23.0022 16.3871 22.4444 16.3871C21.8867 16.3871 21.3517 16.6078 20.9561 17.0009L19.2778 18.6793L13.3772 12.7787C12.9817 12.3855 12.4466 12.1648 11.8889 12.1648C11.3312 12.1648 10.7961 12.3855 10.4006 12.7787L6.61111 16.5682V4.77762H27.7222V20.7904Z" fill="#A3A3A3"/>
    </svg>