<?xml version="1.0" encoding="utf-8"?>
<svg version="1.0" xmlns="http://www.w3.org/2000/svg" width="189.000000pt" height="191.000000pt"
     viewBox="0 0 189.000000 191.000000" preserveAspectRatio="xMidYMid meet">
    <g transform="translate(0.000000,191.000000) scale(0.100000,-0.100000)" stroke="none">
        <path d="M493 1407 c-366 -365 -423 -426 -423 -452 0 -25 38 -67 262 -292
          l262 -263 103 0 c57 0 103 4 103 9 0 4 -30 26 -66 47 -122 71 -191 172 -201
          293 -8 95 14 161 90 271 84 123 117 187 117 229 0 47 12 67 28 48 22 -26 40
          -82 47 -147 l8 -65 27 34 c78 93 58 271 -47 409 -18 23 -33 45 -33 48 0 12 76
          -8 130 -34 67 -33 191 -154 239 -235 79 -133 109 -267 91 -399 -6 -39 -13 -74
          -16 -79 -14 -23 17 -5 44 25 33 38 51 84 62 160 l7 51 28 -59 c90 -190 -11
          -466 -203 -555 -80 -37 -69 -51 41 -51 l92 0 262 262 c143 145 264 274 268
          287 6 21 -40 70 -421 452 -337 337 -434 429 -454 429 -19 0 -116 -91 -447
          -423z"/>
        <path d="M878 985 c-48 -80 -53 -95 -37 -95 10 0 19 -2 19 -4 0 -2 -16 -32
            -34 -65 -25 -44 -31 -61 -20 -61 19 0 19 -2 -18 -73 -18 -34 -34 -65 -36 -69
          -2 -5 6 -8 17 -8 12 0 21 -2 21 -3 0 -2 -13 -28 -30 -58 -16 -30 -30 -57 -30
          -61 0 -4 33 -8 73 -10 l72 -3 3 -59 3 -59 -120 6 c-67 3 -121 2 -121 -2 0 -4
          62 -69 138 -144 99 -98 145 -137 162 -137 17 0 63 39 162 137 76 75 138 141
          138 146 0 5 -49 8 -112 6 l-113 -4 -3 52 c-3 60 -2 61 100 65 l56 3 -34 58
          c-19 32 -34 60 -34 62 0 3 9 5 20 5 26 0 26 3 -15 77 -29 52 -32 65 -20 69 13
          5 10 16 -16 62 -28 48 -30 56 -17 66 14 10 8 24 -39 104 -31 50 -61 92 -67 92
          -6 -1 -36 -43 -68 -95z"/>
    </g>
</svg>