<svg width="41" height="40" viewBox="0 0 41 40" fill="none" xmlns="http://www.w3.org/2000/svg">
<g id="IMT">
<g id="Group 66">
<g id="Group 64">
<g id="Group 94">
<path id="Vector" d="M27.6193 22.84C27.5429 22.7979 27.453 22.7876 27.3691 22.8114L25.5607 23.3244C24.8539 23.5103 24.3789 24.1262 24.3789 24.8571V25.2635C24.3789 25.4384 24.5206 25.5801 24.6955 25.5804H29.4588C29.4582 25.5725 29.4576 23.8536 29.4576 23.8536L27.6193 22.84ZM27.9118 24.9166H25.926C25.7432 24.9166 25.5951 24.7684 25.5951 24.5856C25.5951 24.4029 25.7432 24.2547 25.926 24.2547H27.9118C28.0945 24.2547 28.2427 24.4029 28.2427 24.5856C28.2427 24.7684 28.0945 24.9166 27.9118 24.9166Z" fill="#1A5A96"/>
<path id="Vector_2" d="M32.2708 17.0646C32.1673 15.9037 31.2649 14.9694 30.1187 14.8166V14.6181C30.1187 14.4353 29.9705 14.2871 29.7877 14.2871C29.605 14.2871 29.4568 14.4353 29.4568 14.6181V14.8166C28.3106 14.9694 27.4082 15.9037 27.3047 17.0646C28.0223 16.885 28.8871 16.7877 29.7877 16.7877C30.6884 16.7876 31.5533 16.885 32.2708 17.0646Z" fill="#1A5A96"/>
<path id="Vector_3" d="M31.2967 21.7134C30.8472 21.9918 30.3293 22.141 29.789 22.141C29.7889 22.141 29.7718 22.141 29.7633 22.1409C29.2209 22.1361 28.7134 21.9778 28.2812 21.7075V22.4548L29.7922 23.2878L31.2967 22.4584V21.7134Z" fill="#1A5A96"/>
<path id="Vector_4" d="M34.0153 23.3243L32.2069 22.8114C32.123 22.7876 32.0331 22.7979 31.9568 22.8399L30.1184 23.8536C30.1184 23.8536 30.1177 25.5725 30.1172 25.5804H34.8805C35.0554 25.5801 35.1971 25.4383 35.1971 25.2634V24.8571C35.1971 24.1263 34.7221 23.5103 34.0153 23.3243ZM33.65 24.9166H31.6642C31.4815 24.9166 31.3333 24.7684 31.3333 24.5856C31.3333 24.4029 31.4815 24.2547 31.6642 24.2547H33.65C33.8328 24.2547 33.9809 24.4029 33.9809 24.5856C33.9809 24.7684 33.8328 24.9166 33.65 24.9166Z" fill="#1A5A96"/>
<path id="Vector_5" d="M26.1096 19.5589C26.251 19.693 26.417 19.794 26.5912 19.8793C26.6963 19.9308 26.8144 19.981 26.9478 20.029C26.9245 19.8811 26.9123 19.7297 26.9123 19.5755V18.8021C26.9123 18.7253 26.9224 18.6504 26.9413 18.5788C27.0434 18.5323 27.1665 18.4845 27.3146 18.4371C27.3976 18.4105 27.4843 18.3854 27.5742 18.362V19.2372C27.5742 20.4563 28.549 21.4659 29.7681 21.4766C30.3667 21.4818 30.9314 21.2493 31.3561 20.8233C31.7742 20.4039 32.0035 19.8494 32.0017 19.262L31.9994 18.3614C32.0901 18.3851 32.1776 18.4103 32.2613 18.4371C32.4082 18.4841 32.5303 18.5315 32.6319 18.5776C32.6507 18.6486 32.6609 18.7227 32.6612 18.7987L32.6636 19.5983C32.664 19.7432 32.6537 19.8866 32.6329 20.0276C33.5001 19.7149 33.7347 19.3144 33.7574 18.9985C33.7576 18.9965 33.7576 18.9945 33.7577 18.9925C33.7703 18.794 33.6972 18.605 33.5744 18.4514C33.5741 18.4523 33.574 18.4532 33.5737 18.4541C33.4868 18.346 33.3764 18.2519 33.2584 18.1717C33.1501 18.098 33.0353 18.0359 32.9264 17.9851C32.7762 17.9151 32.6208 17.8571 32.463 17.8067C31.7437 17.5765 30.7937 17.4497 29.7879 17.4497C28.7822 17.4497 27.8321 17.5765 27.1128 17.8067C26.0414 18.1495 25.8164 18.6153 25.8164 18.9456C25.8164 19.1342 25.8947 19.3112 26.013 19.4554C26.0429 19.4919 26.0753 19.5264 26.1096 19.5589Z" fill="#1A5A96"/>
<rect id="Rectangle 98" x="25.5273" y="24.2603" width="2.77352" height="0.660362" rx="0.330181" fill="#1A5A96"/>
</g>
<rect id="Rectangle 99" x="25.5273" y="24.2651" width="2.77352" height="0.660362" rx="0.330181" fill="#1A5A96"/>
</g>
<g id="Group 63">
<path id="Vector_6" d="M8.43958 22.84C8.36321 22.7979 8.27332 22.7876 8.18946 22.8114L6.38101 23.3244C5.67419 23.5103 5.19922 24.1262 5.19922 24.8571V25.2635C5.19922 25.4384 5.34091 25.5801 5.51578 25.5804H10.2791C10.2785 25.5725 10.2779 23.8536 10.2779 23.8536L8.43958 22.84ZM8.73209 24.9166H6.74635C6.56355 24.9166 6.4154 24.7684 6.4154 24.5856C6.4154 24.4029 6.56355 24.2547 6.74635 24.2547H8.73209C8.91481 24.2547 9.06305 24.4029 9.06305 24.5856C9.06305 24.7684 8.91481 24.9166 8.73209 24.9166Z" fill="#1A5A96"/>
<path id="Vector_7" d="M13.0912 17.0646C12.9876 15.9037 12.0852 14.9694 10.939 14.8166V14.6181C10.939 14.4353 10.7908 14.2871 10.608 14.2871C10.4253 14.2871 10.2771 14.4353 10.2771 14.6181V14.8166C9.13088 14.9694 8.22851 15.9037 8.125 17.0646C8.84259 16.885 9.70739 16.7877 10.608 16.7877C11.5087 16.7876 12.3736 16.885 13.0912 17.0646Z" fill="#1A5A96"/>
<path id="Vector_8" d="M12.117 21.7134C11.6675 21.9918 11.1496 22.141 10.6093 22.141C10.6092 22.141 10.5922 22.141 10.5836 22.1409C10.0412 22.1361 9.5337 21.9778 9.10156 21.7075V22.4548L10.6125 23.2878L12.117 22.4584V21.7134Z" fill="#1A5A96"/>
<path id="Vector_9" d="M14.9294 23.338L13.1209 22.8251C13.0371 22.8013 12.9472 22.8115 12.8708 22.8536L11.0325 23.8672C11.0325 23.8672 11.0318 25.5861 11.0312 25.5941H15.7946C15.9695 25.5938 16.1112 25.4519 16.1112 25.2771V24.8708C16.1112 24.1399 15.6362 23.5239 14.9294 23.338ZM14.564 24.9303H12.5783C12.3956 24.9303 12.2473 24.7821 12.2473 24.5993C12.2473 24.4166 12.3956 24.2683 12.5783 24.2683H14.564C14.7468 24.2683 14.895 24.4166 14.895 24.5993C14.895 24.7821 14.7468 24.9303 14.564 24.9303Z" fill="#1A5A96"/>
<path id="Vector_10" d="M6.92993 19.5589C7.07127 19.693 7.23735 19.794 7.41154 19.8793C7.5166 19.9308 7.63467 19.981 7.76809 20.029C7.74482 19.8811 7.73258 19.7297 7.73258 19.5755V18.8021C7.73258 18.7253 7.74267 18.6504 7.76163 18.5788C7.86376 18.5323 7.98683 18.4845 8.1349 18.4371C8.2179 18.4105 8.3046 18.3854 8.39449 18.362V19.2372C8.39449 20.4563 9.36935 21.4659 10.5885 21.4766C11.187 21.4818 11.7517 21.2493 12.1764 20.8233C12.5945 20.4039 12.8238 19.8494 12.822 19.262L12.8197 18.3614C12.9104 18.3851 12.9979 18.4103 13.0816 18.4371C13.2285 18.4841 13.3507 18.5315 13.4522 18.5776C13.4711 18.6486 13.4812 18.7227 13.4815 18.7987L13.4839 19.5983C13.4843 19.7432 13.474 19.8866 13.4532 20.0276C14.3204 19.7149 14.555 19.3144 14.5777 18.9985C14.5779 18.9965 14.578 18.9945 14.578 18.9925C14.5906 18.794 14.5175 18.605 14.3947 18.4514C14.3945 18.4523 14.3943 18.4532 14.394 18.4541C14.3072 18.346 14.1967 18.2519 14.0788 18.1717C13.9704 18.098 13.8556 18.0359 13.7467 17.9851C13.5965 17.9151 13.4411 17.8571 13.2833 17.8067C12.564 17.5765 11.614 17.4497 10.6082 17.4497C9.60249 17.4497 8.65245 17.5765 7.93314 17.8067C6.86167 18.1495 6.63672 18.6153 6.63672 18.9456C6.63672 19.1342 6.71506 19.3112 6.83331 19.4554C6.86322 19.4919 6.89562 19.5264 6.92993 19.5589Z" fill="#1A5A96"/>
<rect id="Rectangle 100" x="12.2188" y="24.2603" width="2.77352" height="0.660362" rx="0.330181" fill="#1A5A96"/>
</g>
<g id="Group 65">
<path id="Vector_11" d="M17.503 23.3098C17.4066 23.2566 17.293 23.2436 17.1871 23.2737L14.9029 23.9216C14.0101 24.1564 13.4102 24.9345 13.4102 25.8576V26.3709C13.4102 26.5918 13.5891 26.7708 13.81 26.7712H19.8266C19.8258 26.7612 19.825 24.5901 19.825 24.5901L17.503 23.3098ZM17.8725 25.9327H15.3643C15.1334 25.9327 14.9463 25.7456 14.9463 25.5147C14.9463 25.2839 15.1334 25.0967 15.3643 25.0967H17.8725C18.1033 25.0967 18.2905 25.2839 18.2905 25.5147C18.2905 25.7456 18.1033 25.9327 17.8725 25.9327Z" fill="#1A5A96"/>
<path id="Vector_12" d="M23.3782 16.0082C23.2474 14.5419 22.1075 13.3617 20.6598 13.1688V12.918C20.6598 12.6871 20.4727 12.5 20.2418 12.5C20.011 12.5 19.8237 12.6871 19.8237 12.918V13.1688C18.376 13.3617 17.2362 14.5419 17.1055 16.0082C18.0118 15.7814 19.1042 15.6585 20.2418 15.6585C21.3794 15.6584 22.4718 15.7814 23.3782 16.0082Z" fill="#1A5A96"/>
<path id="Vector_13" d="M22.1486 21.8785C21.5809 22.2302 20.9267 22.4186 20.2443 22.4186C20.2442 22.4186 20.2226 22.4186 20.2118 22.4184C19.5267 22.4125 18.8857 22.2125 18.3398 21.8711V22.8149L20.2483 23.8672L22.1486 22.8195V21.8785Z" fill="#1A5A96"/>
<path id="Vector_14" d="M25.5838 23.9215L23.2996 23.2737C23.1937 23.2436 23.0801 23.2566 22.9837 23.3097L20.6617 24.59C20.6617 24.59 20.6608 26.7612 20.6602 26.7712H26.6767C26.8976 26.7709 27.0766 26.5917 27.0766 26.3708V25.8576C27.0766 24.9345 26.4766 24.1564 25.5838 23.9215ZM25.1224 25.9327H22.6142C22.3834 25.9327 22.1962 25.7456 22.1962 25.5147C22.1962 25.2839 22.3834 25.0967 22.6142 25.0967H25.1224C25.3533 25.0967 25.5404 25.2839 25.5404 25.5147C25.5404 25.7456 25.3533 25.9327 25.1224 25.9327Z" fill="#1A5A96"/>
<path id="Vector_15" d="M15.5969 19.1567C15.7754 19.3261 15.9852 19.4537 16.2052 19.5615C16.3379 19.6266 16.4871 19.6899 16.6556 19.7506C16.6262 19.5638 16.6107 19.3725 16.6107 19.1777V18.2008C16.6107 18.1038 16.6235 18.0092 16.6474 17.9188C16.7764 17.8601 16.9319 17.7997 17.1189 17.7399C17.2237 17.7063 17.3332 17.6746 17.4468 17.645V18.7505C17.4468 20.2903 18.6781 21.5655 20.218 21.579C20.974 21.5855 21.6873 21.2919 22.2237 20.7538C22.7518 20.2241 23.0414 19.5237 23.0391 18.7818L23.0363 17.6442C23.1508 17.6741 23.2613 17.706 23.367 17.7399C23.5526 17.7992 23.7069 17.8591 23.8351 17.9173C23.8589 18.0069 23.8718 18.1006 23.8721 18.1966L23.8752 19.2065C23.8757 19.3896 23.8626 19.5707 23.8364 19.7488C24.9318 19.3538 25.2281 18.848 25.2567 18.4489C25.2569 18.4464 25.257 18.4439 25.2572 18.4414C25.273 18.1907 25.1807 17.9519 25.0256 17.7579C25.0253 17.7591 25.0251 17.7601 25.0247 17.7613C24.915 17.6247 24.7756 17.506 24.6265 17.4046C24.4897 17.3115 24.3447 17.233 24.2071 17.1689C24.0174 17.0805 23.8211 17.0073 23.6218 16.9436C22.7133 16.6528 21.5133 16.4927 20.2429 16.4927C18.9726 16.4927 17.7726 16.6528 16.8641 16.9436C15.5107 17.3766 15.2266 17.9649 15.2266 18.3822C15.2266 18.6204 15.3255 18.8439 15.4749 19.026C15.5127 19.0721 15.5536 19.1157 15.5969 19.1567Z" fill="#1A5A96"/>
</g>
<rect id="Rectangle 100_2" x="14.9805" y="25.0986" width="3.26067" height="0.889273" rx="0.444636" fill="#1A5A96"/>
<rect id="Rectangle 101" x="22.2422" y="25.0986" width="3.26067" height="0.889273" rx="0.444636" fill="#1A5A96"/>
</g>
</g>
</svg>
