<svg width="28" height="14" viewBox="0 0 28 14" fill="none" xmlns="http://www.w3.org/2000/svg">
<g id="Group 66">
<g id="Group 64">
<g id="Group 94">
<path id="Vector" d="M20.448 9.79114C20.3817 9.75453 20.3036 9.74562 20.2307 9.76628L18.6596 10.212C18.0455 10.3735 17.6328 10.9086 17.6328 11.5436V11.8967C17.6328 12.0486 17.7559 12.1718 17.9078 12.172H22.0462C22.0457 12.1651 22.0452 10.6718 22.0452 10.6718L20.448 9.79114ZM20.7022 11.5953H18.977C18.8181 11.5953 18.6894 11.4666 18.6894 11.3077C18.6894 11.149 18.8181 11.0202 18.977 11.0202H20.7022C20.8609 11.0202 20.9897 11.149 20.9897 11.3077C20.9897 11.4666 20.8609 11.5953 20.7022 11.5953Z" fill="white"/>
<path id="Vector_2" d="M24.4904 4.77046C24.4004 3.76192 23.6164 2.95016 22.6206 2.81748V2.64496C22.6206 2.48614 22.4919 2.35742 22.333 2.35742C22.1743 2.35742 22.0455 2.48614 22.0455 2.64496V2.81748C21.0497 2.95016 20.2657 3.76192 20.1758 4.77046C20.7992 4.61449 21.5506 4.52995 22.333 4.52995C23.1155 4.52988 23.8669 4.61449 24.4904 4.77046Z" fill="white"/>
<path id="Vector_3" d="M23.6432 8.80734C23.2527 9.04927 22.8028 9.17881 22.3334 9.17881C22.3333 9.17881 22.3185 9.17881 22.3111 9.17874C21.8398 9.17462 21.3989 9.03707 21.0234 8.80225V9.45144L22.3361 10.1752L23.6432 9.45459V8.80734Z" fill="white"/>
<path id="Vector_4" d="M26.0039 10.2119L24.4327 9.76629C24.3598 9.74562 24.2817 9.75453 24.2154 9.79107L22.6182 10.6717C22.6182 10.6717 22.6176 12.1651 22.6172 12.172H26.7556C26.9075 12.1718 27.0306 12.0485 27.0306 11.8966V11.5436C27.0306 10.9086 26.618 10.3735 26.0039 10.2119ZM25.6865 11.5953H23.9613C23.8025 11.5953 23.6737 11.4666 23.6737 11.3077C23.6737 11.149 23.8025 11.0202 23.9613 11.0202H25.6865C25.8453 11.0202 25.974 11.149 25.974 11.3077C25.974 11.4666 25.8453 11.5953 25.6865 11.5953Z" fill="white"/>
<path id="Vector_5" d="M19.1376 6.93741C19.2604 7.05393 19.4046 7.14168 19.556 7.21581C19.6472 7.26059 19.7498 7.30417 19.8657 7.34588C19.8455 7.21739 19.8349 7.08582 19.8349 6.95187V6.2799C19.8349 6.21319 19.8437 6.14812 19.8601 6.08589C19.9489 6.04553 20.0558 6.00398 20.1844 5.96287C20.2565 5.93973 20.3319 5.91794 20.41 5.89757V6.65797C20.41 7.71713 21.2569 8.59426 22.3161 8.60354C22.8361 8.60804 23.3267 8.40609 23.6957 8.03596C24.059 7.6716 24.2581 7.18983 24.2566 6.67953L24.2546 5.89705C24.3334 5.91764 24.4094 5.93958 24.4821 5.96287C24.6098 6.00368 24.7159 6.04486 24.8041 6.08492C24.8205 6.14654 24.8293 6.21094 24.8295 6.27698L24.8316 6.97163C24.832 7.09758 24.823 7.22218 24.805 7.34468C25.5584 7.07294 25.7622 6.72506 25.7819 6.45055C25.7821 6.44883 25.7821 6.44711 25.7822 6.44539C25.7931 6.27294 25.7297 6.10866 25.623 5.97522C25.6227 5.97605 25.6226 5.97679 25.6224 5.97762C25.5469 5.88365 25.451 5.80195 25.3484 5.73224C25.2543 5.66822 25.1546 5.61423 25.0599 5.57013C24.9295 5.50933 24.7944 5.45893 24.6574 5.41513C24.0325 5.21513 23.2071 5.10498 22.3332 5.10498C21.4595 5.10498 20.6341 5.21513 20.0091 5.41513C19.0782 5.713 18.8828 6.11764 18.8828 6.40465C18.8828 6.56849 18.9509 6.72221 19.0536 6.84748C19.0796 6.87923 19.1077 6.90919 19.1376 6.93741Z" fill="white"/>
<rect id="Rectangle 98" x="18.6289" y="11.0244" width="2.40963" height="0.573721" rx="0.28686" fill="white"/>
</g>
<rect id="Rectangle 99" x="18.6289" y="11.0244" width="2.40963" height="0.573721" rx="0.28686" fill="white"/>
</g>
<g id="Group 63">
<path id="Vector_6" d="M3.78397 9.79114C3.71762 9.75453 3.63953 9.74562 3.56667 9.76628L1.99549 10.212C1.38141 10.3735 0.96875 10.9086 0.96875 11.5436V11.8967C0.96875 12.0486 1.09185 12.1718 1.24378 12.172H5.38218C5.38166 12.1651 5.38113 10.6718 5.38113 10.6718L3.78397 9.79114ZM4.03811 11.5953H2.3129C2.15408 11.5953 2.02536 11.4666 2.02536 11.3077C2.02536 11.149 2.15408 11.0202 2.3129 11.0202H4.03811C4.19685 11.0202 4.32564 11.149 4.32564 11.3077C4.32564 11.4666 4.19685 11.5953 4.03811 11.5953Z" fill="white"/>
<path id="Vector_7" d="M7.82631 4.77046C7.73638 3.76192 6.95232 2.95016 5.95651 2.81748V2.64496C5.95651 2.48614 5.82779 2.35742 5.66898 2.35742C5.51023 2.35742 5.38144 2.48614 5.38144 2.64496V2.81748C4.38563 2.95016 3.60165 3.76192 3.51172 4.77046C4.13516 4.61449 4.88649 4.52995 5.66898 4.52995C6.45146 4.52988 7.20287 4.61449 7.82631 4.77046Z" fill="white"/>
<path id="Vector_8" d="M6.97916 8.80734C6.58867 9.04927 6.13872 9.17881 5.6693 9.17881C5.66923 9.17881 5.6544 9.17881 5.64699 9.17874C5.1757 9.17462 4.73482 9.03707 4.35938 8.80225V9.45144L5.67207 10.1752L6.97916 9.45459V8.80734Z" fill="white"/>
<path id="Vector_9" d="M9.42185 10.2187L7.85067 9.77312C7.77781 9.75246 7.69971 9.76137 7.63337 9.79791L6.0362 10.6786C6.0362 10.6786 6.03561 12.1719 6.03516 12.1788H10.1736C10.3255 12.1786 10.4486 12.0554 10.4486 11.9034V11.5504C10.4486 10.9155 10.0359 10.3803 9.42185 10.2187ZM9.10444 11.6021H7.37923C7.22049 11.6021 7.0917 11.4734 7.0917 11.3146C7.0917 11.1558 7.22049 11.027 7.37923 11.027H9.10444C9.26325 11.027 9.39197 11.1558 9.39197 11.3146C9.39197 11.4734 9.26325 11.6021 9.10444 11.6021Z" fill="white"/>
<path id="Vector_10" d="M2.47349 6.93741C2.59629 7.05393 2.74058 7.14168 2.89191 7.21581C2.98319 7.26059 3.08577 7.30417 3.20168 7.34588C3.18147 7.21739 3.17083 7.08582 3.17083 6.95187V6.2799C3.17083 6.21319 3.17959 6.14812 3.19607 6.08589C3.2848 6.04553 3.39173 6.00397 3.52037 5.96287C3.59248 5.93973 3.6678 5.91794 3.7459 5.89757V6.65797C3.7459 7.71713 4.59286 8.59426 5.65202 8.60354C6.17205 8.60803 6.66265 8.40609 7.03166 8.03596C7.39489 7.6716 7.59407 7.18983 7.5925 6.67953L7.59055 5.89705C7.66932 5.91764 7.74533 5.93958 7.81803 5.96287C7.9457 6.00368 8.05181 6.04486 8.14001 6.08492C8.15641 6.14654 8.16525 6.21094 8.16547 6.27698L8.16757 6.97163C8.16794 7.09758 8.15896 7.22218 8.14091 7.34468C8.89434 7.07294 9.09816 6.72506 9.11785 6.45055C9.118 6.44883 9.11808 6.44711 9.11815 6.44539C9.12909 6.27294 9.06559 6.10866 8.95889 5.97522C8.95866 5.97605 8.95851 5.97679 8.95829 5.97762C8.88281 5.88364 8.78689 5.80195 8.68438 5.73224C8.59026 5.66822 8.49052 5.61423 8.39587 5.57013C8.26543 5.50933 8.13035 5.45893 7.99333 5.41513C7.36839 5.21513 6.543 5.10498 5.66916 5.10498C4.7954 5.10498 3.97001 5.21513 3.34508 5.41513C2.41418 5.713 2.21875 6.11764 2.21875 6.40465C2.21875 6.56849 2.28681 6.72221 2.38955 6.84748C2.41553 6.87923 2.44369 6.90918 2.47349 6.93741Z" fill="white"/>
<rect id="Rectangle 100" x="7.07031" y="11.0244" width="2.40963" height="0.573721" rx="0.28686" fill="white"/>
</g>
<g id="Group 65">
<path id="Vector_11" d="M11.6574 10.1912C11.5736 10.1449 11.475 10.1337 11.383 10.1598L9.39842 10.7227C8.62278 10.9267 8.10156 11.6027 8.10156 12.4047V12.8506C8.10156 13.0425 8.25705 13.1981 8.44895 13.1984H13.6761C13.6755 13.1897 13.6748 11.3035 13.6748 11.3035L11.6574 10.1912ZM11.9784 12.47H9.79934C9.59874 12.47 9.43616 12.3074 9.43616 12.1068C9.43616 11.9063 9.59874 11.7436 9.79934 11.7436H11.9784C12.1789 11.7436 12.3416 11.9063 12.3416 12.1068C12.3416 12.3074 12.1789 12.47 11.9784 12.47Z" fill="white"/>
<path id="Vector_12" d="M16.7622 3.84965C16.6486 2.57577 15.6583 1.55044 14.4005 1.38285V1.16494C14.4005 0.964338 14.2379 0.801758 14.0373 0.801758C13.8368 0.801758 13.6741 0.964338 13.6741 1.16494V1.38285C12.4163 1.55044 11.4261 2.57577 11.3125 3.84965C12.1 3.65264 13.049 3.54586 14.0373 3.54586C15.0257 3.54577 15.9748 3.65264 16.7622 3.84965Z" fill="white"/>
<path id="Vector_13" d="M15.6918 8.94833C15.1986 9.25391 14.6303 9.41753 14.0374 9.41753C14.0373 9.41753 14.0185 9.41753 14.0092 9.41744C13.4139 9.41223 12.857 9.23849 12.3828 8.94189V9.76189L14.0409 10.6761L15.6918 9.76586V8.94833Z" fill="white"/>
<path id="Vector_14" d="M18.6761 10.7226L16.6916 10.1598C16.5996 10.1337 16.5009 10.1449 16.4171 10.1911L14.3998 11.3034C14.3998 11.3034 14.399 13.1897 14.3984 13.1984H19.6256C19.8175 13.1981 19.973 13.0424 19.973 12.8505V12.4047C19.973 11.6027 19.4518 10.9267 18.6761 10.7226ZM18.2752 12.47H16.0961C15.8956 12.47 15.7329 12.3074 15.7329 12.1068C15.7329 11.9063 15.8956 11.7436 16.0961 11.7436H18.2752C18.4758 11.7436 18.6384 11.9063 18.6384 12.1068C18.6384 12.3074 18.4758 12.47 18.2752 12.47Z" fill="white"/>
<path id="Vector_15" d="M10.0014 6.5865C10.1566 6.73366 10.3388 6.84451 10.5299 6.93814C10.6452 6.9947 10.7748 7.04975 10.9212 7.10243C10.8957 6.94013 10.8823 6.77395 10.8823 6.60475V5.75601C10.8823 5.67174 10.8933 5.58955 10.9141 5.51095C11.0262 5.45997 11.1613 5.40748 11.3237 5.35556C11.4148 5.32633 11.51 5.29881 11.6086 5.27309V6.23353C11.6086 7.57135 12.6784 8.67924 14.0162 8.69097C14.6731 8.69664 15.2927 8.44156 15.7588 7.97406C16.2176 7.51384 16.4692 6.90532 16.4672 6.26077L16.4648 5.27242C16.5642 5.29843 16.6602 5.32615 16.7521 5.35556C16.9133 5.4071 17.0474 5.45912 17.1588 5.50972C17.1795 5.58756 17.1906 5.6689 17.1909 5.75232L17.1936 6.62972C17.194 6.7888 17.1827 6.94618 17.1599 7.10091C18.1116 6.75769 18.369 6.31827 18.3939 5.97155C18.3941 5.96937 18.3942 5.9672 18.3942 5.96502C18.4081 5.74721 18.3279 5.5397 18.1931 5.37116C18.1928 5.37221 18.1926 5.37315 18.1923 5.37419C18.097 5.2555 17.9758 5.15231 17.8464 5.06426C17.7275 4.98339 17.6015 4.9152 17.4819 4.85949C17.3172 4.7827 17.1466 4.71905 16.9735 4.66372C16.1841 4.4111 15.1416 4.27197 14.0379 4.27197C12.9342 4.27197 11.8917 4.4111 11.1023 4.66372C9.92654 5.03995 9.67969 5.55105 9.67969 5.91357C9.67969 6.12051 9.76566 6.31468 9.89542 6.47291C9.92824 6.51301 9.9638 6.55084 10.0014 6.5865Z" fill="white"/>
</g>
<rect id="Rectangle 100_2" x="9.46875" y="11.7466" width="2.83286" height="0.772598" rx="0.386299" fill="white"/>
<rect id="Rectangle 101" x="15.7773" y="11.7466" width="2.83286" height="0.772598" rx="0.386299" fill="white"/>
</g>
</svg>
