<svg width="132" height="132" viewBox="0 0 132 132" fill="none" xmlns="http://www.w3.org/2000/svg">
<g clip-path="url(#clip0_1311_1547)">
<path d="M91.9977 77.0812C91.724 76.9301 91.4018 76.8934 91.1013 76.9786L84.6202 78.817C82.0871 79.4833 80.3849 81.6908 80.3849 84.3101V85.7664C80.3849 86.3931 80.8927 86.9012 81.5194 86.9021H98.5903C98.5881 86.8737 98.586 80.7138 98.586 80.7138L91.9977 77.0812ZM93.046 84.5232H85.9295C85.2744 84.5232 84.7434 83.9922 84.7434 83.3371C84.7434 82.6823 85.2744 82.151 85.9295 82.151H93.046C93.7008 82.151 94.2321 82.6823 94.2321 83.3371C94.2321 83.9922 93.7008 84.5232 93.046 84.5232Z" fill="black"/>
<path d="M108.671 56.3708C108.3 52.2106 105.065 48.862 100.958 48.3147V47.6031C100.958 46.9479 100.427 46.417 99.7716 46.417C99.1168 46.417 98.5855 46.9479 98.5855 47.6031V48.3147C94.4778 48.862 91.2439 52.2106 90.8729 56.3708C93.4446 55.7274 96.5439 55.3787 99.7716 55.3787C102.999 55.3784 106.099 55.7274 108.671 56.3708Z" fill="black"/>
<path d="M105.175 73.0225C103.564 74.0204 101.708 74.5548 99.772 74.5548C99.7717 74.5548 99.7105 74.5548 99.6799 74.5545C97.7359 74.5375 95.9172 73.9701 94.3685 73.0015V75.6794L99.7834 78.665L105.175 75.6924V73.0225Z" fill="black"/>
<path d="M114.922 78.8167L108.441 76.9786C108.14 76.8934 107.818 76.9301 107.545 77.0809L100.956 80.7135C100.956 80.7135 100.954 86.8737 100.952 86.9022H118.023C118.65 86.9012 119.157 86.3928 119.157 85.7661V84.3101C119.157 81.6908 117.455 79.4833 114.922 78.8167ZM113.613 84.5232H106.496C105.841 84.5232 105.31 83.9922 105.31 83.3371C105.31 82.6823 105.841 82.151 106.496 82.151H113.613C114.268 82.151 114.799 82.6823 114.799 83.3371C114.799 83.9922 114.268 84.5232 113.613 84.5232Z" fill="black"/>
<path d="M86.5896 65.3093C87.0962 65.7899 87.6914 66.1519 88.3156 66.4577C88.6921 66.6424 89.1153 66.8221 89.5934 66.9942C89.51 66.4642 89.4662 65.9215 89.4662 65.3689V62.597C89.4662 62.3218 89.5023 62.0534 89.5703 61.7968C89.9363 61.6303 90.3773 61.4588 90.908 61.2893C91.2054 61.1938 91.5162 61.1039 91.8383 61.0199V64.1566C91.8383 68.5256 95.332 72.1438 99.701 72.1821C101.846 72.2006 103.87 71.3675 105.392 69.8408C106.89 68.3378 107.712 66.3505 107.706 64.2455L107.698 61.0178C108.022 61.1027 108.336 61.1932 108.636 61.2893C109.162 61.4576 109.6 61.6275 109.964 61.7927C110.032 62.0469 110.068 62.3126 110.069 62.585L110.078 65.4504C110.079 65.97 110.042 66.4839 109.968 66.9892C113.076 65.8683 113.916 64.4333 113.998 63.301C113.998 63.2939 113.999 63.2868 113.999 63.2797C114.044 62.5683 113.782 61.8906 113.342 61.3402C113.341 61.3436 113.34 61.3467 113.339 61.3501C113.028 60.9625 112.632 60.6255 112.21 60.3379C111.821 60.0738 111.41 59.8511 111.019 59.6692C110.481 59.4184 109.924 59.2105 109.359 59.0298C106.781 58.2048 103.376 57.7505 99.7718 57.7505C96.1675 57.7505 92.7628 58.2048 90.1849 59.0298C86.345 60.2586 85.5388 61.9277 85.5388 63.1116C85.5388 63.7874 85.8196 64.4216 86.2434 64.9383C86.3505 65.0693 86.4667 65.1928 86.5896 65.3093Z" fill="black"/>
<rect x="84.501" y="82.1689" width="9.93973" height="2.3666" rx="1.1833" fill="white"/>
</g>
<rect x="84.501" y="82.1689" width="9.93973" height="2.3666" rx="1.1833" fill="white"/>
<path d="M23.2557 77.0812C22.9821 76.9301 22.6599 76.8934 22.3594 76.9786L15.8782 78.817C13.3452 79.4833 11.6429 81.6908 11.6429 84.3101V85.7664C11.6429 86.3931 12.1507 86.9012 12.7774 86.9021H29.8483C29.8462 86.8737 29.844 80.7138 29.844 80.7138L23.2557 77.0812ZM24.304 84.5232H17.1876C16.5324 84.5232 16.0015 83.9922 16.0015 83.3371C16.0015 82.6823 16.5324 82.151 17.1876 82.151H24.304C24.9589 82.151 25.4901 82.6823 25.4901 83.3371C25.4901 83.9922 24.9589 84.5232 24.304 84.5232Z" fill="black"/>
<path d="M39.9288 56.3708C39.5578 52.2106 36.3236 48.862 32.2159 48.3147V47.6031C32.2159 46.9479 31.6849 46.417 31.0298 46.417C30.375 46.417 29.8437 46.9479 29.8437 47.6031V48.3147C25.736 48.862 22.5021 52.2106 22.1311 56.3708C24.7028 55.7274 27.802 55.3787 31.0298 55.3787C34.2575 55.3784 37.3571 55.7274 39.9288 56.3708Z" fill="black"/>
<path d="M36.4332 73.0225C34.8224 74.0204 32.9664 74.5548 31.03 74.5548C31.0297 74.5548 30.9686 74.5548 30.938 74.5545C28.9939 74.5375 27.1753 73.9701 25.6266 73.0015V75.6794L31.0415 78.665L36.4332 75.6924V73.0225Z" fill="black"/>
<path d="M46.5159 78.8455L40.0348 77.0074C39.7342 76.9222 39.4121 76.9589 39.1384 77.1097L32.5501 80.7423C32.5501 80.7423 32.5476 86.9025 32.5458 86.931H49.6167C50.2434 86.93 50.7512 86.4216 50.7512 85.7949V84.3389C50.7512 81.7196 49.049 79.5121 46.5159 78.8455ZM45.2066 84.552H38.0901C37.4353 84.552 36.904 84.021 36.904 83.3659C36.904 82.7111 37.4353 82.1798 38.0901 82.1798H45.2066C45.8617 82.1798 46.3926 82.7111 46.3926 83.3659C46.3926 84.021 45.8617 84.552 45.2066 84.552Z" fill="black"/>
<path d="M17.8475 65.3093C18.3541 65.7899 18.9493 66.1519 19.5735 66.4577C19.9501 66.6424 20.3732 66.8221 20.8514 66.9942C20.768 66.4642 20.7241 65.9215 20.7241 65.3689V62.597C20.7241 62.3218 20.7602 62.0534 20.8282 61.7968C21.1942 61.6303 21.6353 61.4588 22.1659 61.2893C22.4634 61.1938 22.7741 61.1039 23.0963 61.0199V64.1566C23.0963 68.5256 26.5899 72.1438 30.959 72.1821C33.1041 72.2006 35.1279 71.3675 36.65 69.8408C38.1483 68.3378 38.97 66.3505 38.9635 64.2455L38.9554 61.0178C39.2804 61.1027 39.5939 61.1932 39.8938 61.2893C40.4204 61.4576 40.8581 61.6275 41.222 61.7927C41.2896 62.0469 41.3261 62.3126 41.327 62.585L41.3356 65.4504C41.3372 65.97 41.3001 66.4839 41.2257 66.9892C44.3336 65.8683 45.1743 64.4333 45.2556 63.301C45.2562 63.2939 45.2565 63.2868 45.2568 63.2797C45.3019 62.5683 45.04 61.8906 44.5998 61.3402C44.5989 61.3436 44.5983 61.3467 44.5973 61.3501C44.286 60.9625 43.8903 60.6255 43.4675 60.3379C43.0792 60.0738 42.6678 59.8511 42.2774 59.6692C41.7393 59.4184 41.1821 59.2105 40.6169 59.0298C38.039 58.2048 34.6343 57.7505 31.0297 57.7505C27.4254 57.7505 24.0207 58.2048 21.4428 59.0298C17.6029 60.2586 16.7968 61.9277 16.7968 63.1116C16.7968 63.7874 17.0775 64.4216 17.5013 64.9383C17.6085 65.0693 17.7246 65.1928 17.8475 65.3093Z" fill="black"/>
<rect x="36.8058" y="82.1689" width="9.93973" height="2.3666" rx="1.1833" fill="white"/>
<path d="M55.7395 78.7308C55.3938 78.54 54.9869 78.4936 54.6073 78.6013L46.4211 80.9234C43.2216 81.7649 41.0715 84.5532 41.0715 87.8616V89.7011C41.0715 90.4926 41.7129 91.1344 42.5045 91.1356H64.0666C64.0638 91.0997 64.0611 83.3192 64.0611 83.3192L55.7395 78.7308ZM57.0636 88.1308H48.0749C47.2474 88.1308 46.5768 87.4601 46.5768 86.6326C46.5768 85.8055 47.2474 85.1345 48.0749 85.1345H57.0636C57.8907 85.1345 58.5617 85.8055 58.5617 86.6326C58.5617 87.4601 57.8907 88.1308 57.0636 88.1308Z" fill="black"/>
<path d="M76.7989 52.5725C76.3304 47.3178 72.2452 43.0883 67.0568 42.397V41.4981C67.0568 40.6706 66.3862 40 65.5587 40C64.7316 40 64.0606 40.6706 64.0606 41.4981V42.397C58.8721 43.0883 54.7874 47.3178 54.3188 52.5725C57.5671 51.7599 61.4818 51.3194 65.5587 51.3194C69.6356 51.319 73.5506 51.7599 76.7989 52.5725Z" fill="black"/>
<path d="M72.3837 73.6047C70.3492 74.8652 68.0048 75.5401 65.5591 75.5401C65.5587 75.5401 65.4814 75.5401 65.4428 75.5397C62.9873 75.5183 60.6902 74.8016 58.734 73.5781V76.9606L65.5735 80.7317L72.3837 76.977V73.6047Z" fill="black"/>
<path d="M84.695 80.923L76.5088 78.6013C76.1292 78.4936 75.7223 78.5401 75.3766 78.7304L67.055 83.3188C67.055 83.3188 67.0519 91.0997 67.0496 91.1356H88.6116C89.4032 91.1344 90.0446 90.4923 90.0446 89.7007V87.8616C90.0446 84.5532 87.8946 81.7649 84.695 80.923ZM83.0413 88.1308H74.0525C73.2254 88.1308 72.5544 87.4601 72.5544 86.6327C72.5544 85.8056 73.2254 85.1345 74.0525 85.1345H83.0413C83.8687 85.1345 84.5394 85.8056 84.5394 86.6327C84.5394 87.4601 83.8687 88.1308 83.0413 88.1308Z" fill="black"/>
<path d="M48.9084 63.8629C49.5482 64.4699 50.3 64.9271 51.0885 65.3134C51.5641 65.5467 52.0986 65.7737 52.7025 65.991C52.5972 65.3216 52.5418 64.6361 52.5418 63.9381V60.4371C52.5418 60.0895 52.5874 59.7504 52.6732 59.4262C53.1356 59.2159 53.6927 58.9994 54.3629 58.7852C54.7386 58.6647 55.1311 58.5511 55.538 58.445V62.4069C55.538 67.9253 59.9508 72.4954 65.4693 72.5438C68.1788 72.5672 70.735 71.515 72.6576 69.5865C74.5501 67.6881 75.5879 65.178 75.5797 62.5192L75.5696 58.4423C75.98 58.5496 76.376 58.6639 76.7548 58.7852C77.42 58.9978 77.9728 59.2124 78.4324 59.4211C78.5178 59.7422 78.5639 60.0777 78.565 60.4218L78.576 64.0411C78.5779 64.6974 78.5311 65.3465 78.4371 65.9848C82.3626 64.569 83.4246 62.7564 83.5272 61.3262C83.528 61.3172 83.5284 61.3082 83.5287 61.2993C83.5857 60.4008 83.2549 59.5448 82.6989 58.8496C82.6978 58.8539 82.697 58.8578 82.6958 58.8621C82.3026 58.3725 81.8028 57.9468 81.2687 57.5836C80.7783 57.25 80.2586 56.9687 79.7655 56.739C79.0859 56.4222 78.3821 56.1596 77.6681 55.9314C74.412 54.8893 70.1116 54.3154 65.5587 54.3154C61.0062 54.3154 56.7057 54.8893 53.4496 55.9314C48.5994 57.4833 47.5812 59.5916 47.5812 61.087C47.5812 61.9406 47.9358 62.7416 48.4711 63.3943C48.6065 63.5597 48.7531 63.7158 48.9084 63.8629Z" fill="black"/>
<rect x="46.6997" y="85.1484" width="11.6856" height="3.18697" rx="1.59349" fill="white"/>
<rect x="72.7266" y="85.1484" width="11.6856" height="3.18697" rx="1.59349" fill="white"/>
<defs>
<clipPath id="clip0_1311_1547">
<rect width="40.4849" height="40.4849" fill="white" transform="translate(79.515 46.417)"/>
</clipPath>
</defs>
</svg>
