<svg width="24" height="24" viewBox="0 0 24 24" fill="none" xmlns="http://www.w3.org/2000/svg">
<g id="Information">
<g id="Group">
<g id="Clip path group">
<g id="Group_2">
<path id="Vector" d="M9.60912 12.3526C9.60912 13.9025 8.35611 15.1589 6.8104 15.1589C5.26477 15.1589 4.01172 13.9025 4.01172 12.3526C4.01172 10.8027 5.26477 9.54631 6.8104 9.54631C8.35611 9.54631 9.60912 10.8027 9.60912 12.3526Z" stroke="#242424" stroke-width="1.3" stroke-miterlimit="10" stroke-linecap="round" stroke-linejoin="round"/>
<path id="Vector_2" d="M11.7673 21.5127H1.85156V21.506C1.85156 18.7809 4.06062 16.5719 6.78567 16.5719H6.83315C9.55819 16.5719 11.7673 18.7809 11.7673 21.506V21.5127Z" stroke="#242424" stroke-width="1.3" stroke-miterlimit="10" stroke-linecap="round" stroke-linejoin="round"/>
<path id="Vector_3" d="M21 9C21 11.7614 18.7614 14 16 14C13.2386 14 11 11.7614 11 9C11 6.23858 13.2386 4 16 4C18.7614 4 21 6.23858 21 9Z" stroke="#242424" stroke-width="1.3" stroke-miterlimit="10" stroke-linecap="round" stroke-linejoin="round"/>
</g>
</g>
</g>
<g id="Group 98">
<path id="Vector_4" d="M15.9999 8.4671L16 11.5" stroke="#242424" stroke-miterlimit="10" stroke-linecap="round" stroke-linejoin="round"/>
<path id="Ellipse 32" d="M16.5 6.80005C16.5 7.07619 16.2761 7.30005 16 7.30005C15.7239 7.30005 15.5 7.07619 15.5 6.80005C15.5 6.52391 15.7239 6.30005 16 6.30005C16.2761 6.30005 16.5 6.52391 16.5 6.80005Z" fill="#242424"/>
</g>
</g>
</svg>
