<svg width="16" height="17" viewBox="0 0 16 17" fill="none" xmlns="http://www.w3.org/2000/svg">
<g id="Details 16x16">
<path id="Vector" d="M1 14.5254H15V15.5254H1V14.5254ZM13.5 6.02542C13.6326 6.02542 13.7598 5.97274 13.8536 5.87898C13.9473 5.78521 14 5.65803 14 5.52542V4.02542C14 3.92267 13.9683 3.82242 13.9092 3.73832C13.8502 3.65422 13.7666 3.59036 13.67 3.55542L8.17 1.55542C8.06015 1.51571 7.93985 1.51571 7.83 1.55542L2.33 3.55542C2.23336 3.59036 2.14984 3.65422 2.09079 3.73832C2.03175 3.82242 2.00004 3.92267 2 4.02542V5.52542C2 5.65803 2.05268 5.78521 2.14645 5.87898C2.24021 5.97274 2.36739 6.02542 2.5 6.02542H3V12.5254H2V13.5254H14V12.5254H13V6.02542H13.5ZM3 4.37542L8 2.55542L13 4.37542V5.02542H3V4.37542ZM9 12.5254H7V6.02542H9V12.5254ZM4 6.02542H6V12.5254H4V6.02542ZM12 12.5254H10V6.02542H12V12.5254Z" fill="#484848"/>
</g>
</svg>
