<svg xmlns="http://www.w3.org/2000/svg" width="24" height="24" viewBox="0 0 24 24" fill="none">
<path d="M15.75 1.5C15.3358 1.5 15 1.83579 15 2.25C15 2.66421 15.3358 3 15.75 3H19.9395L14.0304 8.90631C13.7374 9.19923 13.737 9.67416 14.0296 9.96756C14.3227 10.2615 14.7987 10.2618 15.0922 9.96831L21 4.0605V8.25C21 8.66421 21.3358 9 21.75 9C22.1642 9 22.5 8.66421 22.5 8.25V2C22.5 1.72386 22.2761 1.5 22 1.5H15.75Z" fill="#548ADB"/>
<path d="M9.97181 15.0901C10.2638 14.7982 10.2645 14.3251 9.97337 14.0324C9.68122 13.7386 9.20602 13.7378 8.91294 14.0307L3 19.9395V15.75C3 15.3358 2.66421 15 2.25 15C1.83579 15 1.5 15.3358 1.5 15.75V22C1.5 22.2761 1.72386 22.5 2 22.5H8.25C8.66421 22.5 9 22.1642 9 21.75C9 21.3358 8.66421 21 8.25 21H4.0605L9.97181 15.0901Z" fill="#548ADB"/>
</svg>
