<svg width="19" height="18" viewBox="0 0 19 18" fill="none" xmlns="http://www.w3.org/2000/svg">
<path d="M3.75 1.5C3.28587 1.5 2.84075 1.68437 2.51256 2.01256C2.18437 2.34075 2 2.78587 2 3.25V14.75C2 15.716 2.783 16.5 3.75 16.5H15.25C15.7141 16.5 16.1592 16.3156 16.4874 15.9874C16.8156 15.6592 17 15.2141 17 14.75V10.75C17 10.5511 17.079 10.3603 17.2197 10.2197C17.3603 10.079 17.5511 10 17.75 10C17.9489 10 18.1397 10.079 18.2803 10.2197C18.421 10.3603 18.5 10.5511 18.5 10.75V14.75C18.5 15.612 18.1576 16.4386 17.5481 17.0481C16.9386 17.6576 16.112 18 15.25 18H3.75C2.88805 18 2.0614 17.6576 1.4519 17.0481C0.84241 16.4386 0.5 15.612 0.5 14.75V3.25C0.5 2.38805 0.84241 1.5614 1.4519 0.951903C2.0614 0.34241 2.88805 0 3.75 0H7.75C7.94891 0 8.13968 0.0790175 8.28033 0.21967C8.42098 0.360322 8.5 0.551088 8.5 0.75C8.5 0.948912 8.42098 1.13968 8.28033 1.28033C8.13968 1.42098 7.94891 1.5 7.75 1.5H3.75ZM10.5 0.75C10.5 0.551088 10.579 0.360322 10.7197 0.21967C10.8603 0.0790175 11.0511 0 11.25 0H17.75C17.9489 0 18.1397 0.0790175 18.2803 0.21967C18.421 0.360322 18.5 0.551088 18.5 0.75V7.25C18.5 7.44891 18.421 7.63968 18.2803 7.78033C18.1397 7.92098 17.9489 8 17.75 8C17.5511 8 17.3603 7.92098 17.2197 7.78033C17.079 7.63968 17 7.44891 17 7.25V2.56L11.78 7.78C11.6378 7.91248 11.4498 7.9846 11.2555 7.98118C11.0612 7.97775 10.8758 7.89903 10.7384 7.76162C10.601 7.62421 10.5223 7.43882 10.5188 7.24452C10.5154 7.05022 10.5875 6.86217 10.72 6.72L15.94 1.5H11.25C11.0511 1.5 10.8603 1.42098 10.7197 1.28033C10.579 1.13968 10.5 0.948912 10.5 0.75Z" fill="white"/>
</svg>
