<svg width="25" height="24" viewBox="0 0 25 24" fill="none" xmlns="http://www.w3.org/2000/svg">
<path d="M6.75 4.5C6.28587 4.5 5.84075 4.68437 5.51256 5.01256C5.18437 5.34075 5 5.78587 5 6.25V17.75C5 18.716 5.783 19.5 6.75 19.5H18.25C18.7141 19.5 19.1592 19.3156 19.4874 18.9874C19.8156 18.6592 20 18.2141 20 17.75V13.75C20 13.5511 20.079 13.3603 20.2197 13.2197C20.3603 13.079 20.5511 13 20.75 13C20.9489 13 21.1397 13.079 21.2803 13.2197C21.421 13.3603 21.5 13.5511 21.5 13.75V17.75C21.5 18.612 21.1576 19.4386 20.5481 20.0481C19.9386 20.6576 19.112 21 18.25 21H6.75C5.88805 21 5.0614 20.6576 4.4519 20.0481C3.84241 19.4386 3.5 18.612 3.5 17.75V6.25C3.5 5.38805 3.84241 4.5614 4.4519 3.9519C5.0614 3.34241 5.88805 3 6.75 3H10.75C10.9489 3 11.1397 3.07902 11.2803 3.21967C11.421 3.36032 11.5 3.55109 11.5 3.75C11.5 3.94891 11.421 4.13968 11.2803 4.28033C11.1397 4.42098 10.9489 4.5 10.75 4.5H6.75ZM13.5 3.75C13.5 3.55109 13.579 3.36032 13.7197 3.21967C13.8603 3.07902 14.0511 3 14.25 3H20.75C20.9489 3 21.1397 3.07902 21.2803 3.21967C21.421 3.36032 21.5 3.55109 21.5 3.75V10.25C21.5 10.4489 21.421 10.6397 21.2803 10.7803C21.1397 10.921 20.9489 11 20.75 11C20.5511 11 20.3603 10.921 20.2197 10.7803C20.079 10.6397 20 10.4489 20 10.25V5.56L14.78 10.78C14.6378 10.9125 14.4498 10.9846 14.2555 10.9812C14.0612 10.9777 13.8758 10.899 13.7384 10.7616C13.601 10.6242 13.5223 10.4388 13.5188 10.2445C13.5154 10.0502 13.5875 9.86217 13.72 9.72L18.94 4.5H14.25C14.0511 4.5 13.8603 4.42098 13.7197 4.28033C13.579 4.13968 13.5 3.94891 13.5 3.75Z" fill="black"/>
</svg>
