<svg width="24" height="24" viewBox="0 0 24 24" fill="none" xmlns="http://www.w3.org/2000/svg">
<g id="carbon:legend">
<path id="Vector" d="M12 16.5H22.5V18H12V16.5Z" fill="black"/>
<path id="Vector_2" d="M12 6H22.5V7.5H12V6Z" fill="black"/>
<path id="Vector_3" d="M7.16667 14H3.83333C3.3731 14 3 14.3731 3 14.8333V18.1667C3 18.6269 3.3731 19 3.83333 19H7.16667C7.6269 19 8 18.6269 8 18.1667V14.8333C8 14.3731 7.6269 14 7.16667 14Z" fill="black"/>
<path id="Vector_4" d="M7.58373 9H3.41669C3.34563 9 3.27575 8.98183 3.21369 8.94721C3.15164 8.9126 3.09947 8.86269 3.06213 8.80224C3.0248 8.74178 3.00356 8.67278 3.00041 8.6018C2.99726 8.53082 3.01232 8.46022 3.04416 8.3967L5.12767 4.21191C5.16607 4.14733 5.2206 4.09384 5.28591 4.05669C5.35122 4.01953 5.42507 4 5.50021 4C5.57535 4 5.6492 4.01953 5.71451 4.05669C5.77982 4.09384 5.83435 4.14733 5.87274 4.21191L7.95626 8.39753C7.9879 8.46102 8.00281 8.53154 7.99956 8.6024C7.99632 8.67326 7.97504 8.74212 7.93773 8.80246C7.90042 8.86279 7.84833 8.9126 7.78637 8.94717C7.72442 8.98174 7.65467 8.99993 7.58373 9Z" fill="black"/>
</g>
</svg>
