<svg width="52" height="53" viewBox="0 0 52 53" fill="none" xmlns="http://www.w3.org/2000/svg">
<g id="lightning">
<path id="Vector" d="M18.8631 49.12C18.5305 48.9796 18.2542 48.7325 18.0776 48.4177C17.9011 48.1028 17.8344 47.7382 17.8881 47.3812L20.8456 28.125H12.9968C12.748 28.1317 12.501 28.0811 12.2748 27.9772C12.0486 27.8733 11.8493 27.7188 11.6923 27.5257C11.5352 27.3325 11.4247 27.1059 11.3691 26.8632C11.3136 26.6206 11.3145 26.3684 11.3718 26.1262L16.2468 5.00122C16.3326 4.63766 16.541 4.31475 16.837 4.08685C17.133 3.85896 17.4984 3.73999 17.8718 3.74997H34.1218C34.3646 3.74914 34.6045 3.80272 34.8238 3.90677C35.0431 4.01082 35.2364 4.16269 35.3893 4.35122C35.5444 4.54188 35.6543 4.76525 35.7106 5.0045C35.7669 5.24375 35.7681 5.49265 35.7143 5.73247L32.9031 18.375H40.6218C40.9264 18.3744 41.225 18.4594 41.4836 18.6203C41.7422 18.7812 41.9503 19.0115 42.0843 19.285C42.2008 19.5475 42.2456 19.8361 42.2142 20.1216C42.1828 20.407 42.0763 20.6791 41.9056 20.91L20.7806 48.535C20.6378 48.7466 20.4472 48.9216 20.2241 49.0459C20.0011 49.1701 19.7519 49.24 19.4968 49.25C19.2794 49.2459 19.0646 49.2018 18.8631 49.12ZM28.8406 21.625L32.0906 6.99997H19.1718L15.0443 24.875H24.6481L22.0643 41.58L37.3718 21.625H28.8406Z" fill="#909090"/>
</g>
</svg>
