<svg width="24" height="24" viewBox="0 0 24 24" fill="none" xmlns="http://www.w3.org/2000/svg">
<g id="Light Bulb">
<g id="Group">
<g id="Clip path group">
<mask id="mask0_2262_37590" style="mask-type:luminance" maskUnits="userSpaceOnUse" x="1" y="1" width="22" height="22">
<g id="a">
<path id="Vector" d="M21.6696 21.6701V2.33013H2.32969V21.6701H21.6696Z" fill="white" stroke="white" stroke-width="1.3"/>
</g>
</mask>
<g mask="url(#mask0_2262_37590)">
<g id="Group_2">
<path id="Vector_2" d="M15.0226 16.8779V14.856C17.1748 13.7545 18.6507 11.5201 18.6507 8.93639C18.6507 5.2628 15.6727 2.28485 11.9992 2.28485C8.32569 2.28485 5.34766 5.2628 5.34766 8.93639C5.34766 11.5201 6.82365 13.7545 8.97577 14.856V16.8779" stroke="#242424" stroke-width="1.3" stroke-miterlimit="10" stroke-linecap="round" stroke-linejoin="round"/>
<path id="Vector_3" d="M9.00781 5.94336C10.6608 4.29035 13.3409 4.29035 14.9939 5.94336" stroke="#242424" stroke-width="1.3" stroke-miterlimit="10" stroke-linecap="round" stroke-linejoin="round"/>
<path id="Vector_4" d="M11.9977 21.7153C10.9958 21.7153 10.1836 20.9032 10.1836 19.9013V19.2966H13.8117V19.9013C13.8117 20.9032 12.9995 21.7153 11.9977 21.7153Z" stroke="#242424" stroke-width="1.3" stroke-miterlimit="10" stroke-linecap="round" stroke-linejoin="round"/>
<path id="Vector_5" d="M13.814 19.2966H10.1859C9.51804 19.2966 8.97656 18.7552 8.97656 18.0873V16.8779H15.0234V18.0873C15.0234 18.7552 14.4819 19.2966 13.814 19.2966Z" stroke="#242424" stroke-width="1.3" stroke-miterlimit="10" stroke-linecap="round" stroke-linejoin="round"/>
</g>
</g>
</g>
</g>
</g>
</svg>
