<svg width="24" height="25" viewBox="0 0 24 25" fill="none" xmlns="http://www.w3.org/2000/svg">
<g id="fluent:open-24-regular">
<g id="Group">
<path id="Vector" d="M6.25 5C5.78587 5 5.34075 5.18437 5.01256 5.51256C4.68437 5.84075 4.5 6.28587 4.5 6.75V18.25C4.5 19.216 5.283 20 6.25 20H17.75C18.2141 20 18.6592 19.8156 18.9874 19.4874C19.3156 19.1592 19.5 18.7141 19.5 18.25V14.25C19.5 14.0511 19.579 13.8603 19.7197 13.7197C19.8603 13.579 20.0511 13.5 20.25 13.5C20.4489 13.5 20.6397 13.579 20.7803 13.7197C20.921 13.8603 21 14.0511 21 14.25V18.25C21 19.112 20.6576 19.9386 20.0481 20.5481C19.4386 21.1576 18.612 21.5 17.75 21.5H6.25C5.38805 21.5 4.5614 21.1576 3.9519 20.5481C3.34241 19.9386 3 19.112 3 18.25V6.75C3 5.88805 3.34241 5.0614 3.9519 4.4519C4.5614 3.84241 5.38805 3.5 6.25 3.5H10.25C10.4489 3.5 10.6397 3.57902 10.7803 3.71967C10.921 3.86032 11 4.05109 11 4.25C11 4.44891 10.921 4.63968 10.7803 4.78033C10.6397 4.92098 10.4489 5 10.25 5H6.25ZM13 4.25C13 4.05109 13.079 3.86032 13.2197 3.71967C13.3603 3.57902 13.5511 3.5 13.75 3.5H20.25C20.4489 3.5 20.6397 3.57902 20.7803 3.71967C20.921 3.86032 21 4.05109 21 4.25V10.75C21 10.9489 20.921 11.1397 20.7803 11.2803C20.6397 11.421 20.4489 11.5 20.25 11.5C20.0511 11.5 19.8603 11.421 19.7197 11.2803C19.579 11.1397 19.5 10.9489 19.5 10.75V6.06L14.28 11.28C14.1378 11.4125 13.9498 11.4846 13.7555 11.4812C13.5612 11.4777 13.3758 11.399 13.2384 11.2616C13.101 11.1242 13.0223 10.9388 13.0188 10.7445C13.0154 10.5502 13.0875 10.3622 13.22 10.22L18.44 5H13.75C13.5511 5 13.3603 4.92098 13.2197 4.78033C13.079 4.63968 13 4.44891 13 4.25Z" fill="#C4C4C4"/>
</g>
</g>
</svg>
