<svg width="24" height="25" viewBox="0 0 24 25" fill="none" xmlns="http://www.w3.org/2000/svg">
<g id="launch" clip-path="url(#clip0_2695_78758)">
<path id="Vector" d="M19.5 21.375H4.5C4.10234 21.3745 3.72112 21.2163 3.43993 20.9351C3.15874 20.6539 3.00054 20.2727 3 19.875V4.875C3.00054 4.47734 3.15874 4.09612 3.43993 3.81493C3.72112 3.53374 4.10234 3.37554 4.5 3.375H12V4.875H4.5V19.875H19.5V12.375H21V19.875C20.9995 20.2727 20.8413 20.6539 20.5601 20.9351C20.2789 21.2163 19.8977 21.3745 19.5 21.375Z" fill="#548ADB"/>
<path id="Vector_2" d="M15 1.875V3.375H19.9395L13.5 9.8145L14.5605 10.875L21 4.4355V9.375H22.5V1.875H15Z" fill="#548ADB"/>
</g>
<defs>
<clipPath id="clip0_2695_78758">
<rect width="24" height="24" fill="white" transform="translate(0 0.375)"/>
</clipPath>
</defs>
</svg>
