<svg xmlns="http://www.w3.org/2000/svg" width="20" height="21" viewBox="0 0 20 21" fill="none">
    <g clip-path="url(#clip0_2689_1018)">
    <path d="M3.33333 11.3335C3.79167 11.3335 4.16667 10.9585 4.16667 10.5002C4.16667 10.0418 3.79167 9.66683 3.33333 9.66683C2.875 9.66683 2.5 10.0418 2.5 10.5002C2.5 10.9585 2.875 11.3335 3.33333 11.3335ZM3.33333 14.6668C3.79167 14.6668 4.16667 14.2918 4.16667 13.8335C4.16667 13.3752 3.79167 13.0002 3.33333 13.0002C2.875 13.0002 2.5 13.3752 2.5 13.8335C2.5 14.2918 2.875 14.6668 3.33333 14.6668ZM3.33333 8.00016C3.79167 8.00016 4.16667 7.62516 4.16667 7.16683C4.16667 6.7085 3.79167 6.3335 3.33333 6.3335C2.875 6.3335 2.5 6.7085 2.5 7.16683C2.5 7.62516 2.875 8.00016 3.33333 8.00016ZM6.66667 11.3335H16.6667C17.125 11.3335 17.5 10.9585 17.5 10.5002C17.5 10.0418 17.125 9.66683 16.6667 9.66683H6.66667C6.20833 9.66683 5.83333 10.0418 5.83333 10.5002C5.83333 10.9585 6.20833 11.3335 6.66667 11.3335ZM6.66667 14.6668H16.6667C17.125 14.6668 17.5 14.2918 17.5 13.8335C17.5 13.3752 17.125 13.0002 16.6667 13.0002H6.66667C6.20833 13.0002 5.83333 13.3752 5.83333 13.8335C5.83333 14.2918 6.20833 14.6668 6.66667 14.6668ZM5.83333 7.16683C5.83333 7.62516 6.20833 8.00016 6.66667 8.00016H16.6667C17.125 8.00016 17.5 7.62516 17.5 7.16683C17.5 6.7085 17.125 6.3335 16.6667 6.3335H6.66667C6.20833 6.3335 5.83333 6.7085 5.83333 7.16683ZM3.33333 11.3335C3.79167 11.3335 4.16667 10.9585 4.16667 10.5002C4.16667 10.0418 3.79167 9.66683 3.33333 9.66683C2.875 9.66683 2.5 10.0418 2.5 10.5002C2.5 10.9585 2.875 11.3335 3.33333 11.3335ZM3.33333 14.6668C3.79167 14.6668 4.16667 14.2918 4.16667 13.8335C4.16667 13.3752 3.79167 13.0002 3.33333 13.0002C2.875 13.0002 2.5 13.3752 2.5 13.8335C2.5 14.2918 2.875 14.6668 3.33333 14.6668ZM3.33333 8.00016C3.79167 8.00016 4.16667 7.62516 4.16667 7.16683C4.16667 6.7085 3.79167 6.3335 3.33333 6.3335C2.875 6.3335 2.5 6.7085 2.5 7.16683C2.5 7.62516 2.875 8.00016 3.33333 8.00016ZM6.66667 11.3335H16.6667C17.125 11.3335 17.5 10.9585 17.5 10.5002C17.5 10.0418 17.125 9.66683 16.6667 9.66683H6.66667C6.20833 9.66683 5.83333 10.0418 5.83333 10.5002C5.83333 10.9585 6.20833 11.3335 6.66667 11.3335ZM6.66667 14.6668H16.6667C17.125 14.6668 17.5 14.2918 17.5 13.8335C17.5 13.3752 17.125 13.0002 16.6667 13.0002H6.66667C6.20833 13.0002 5.83333 13.3752 5.83333 13.8335C5.83333 14.2918 6.20833 14.6668 6.66667 14.6668ZM5.83333 7.16683C5.83333 7.62516 6.20833 8.00016 6.66667 8.00016H16.6667C17.125 8.00016 17.5 7.62516 17.5 7.16683C17.5 6.7085 17.125 6.3335 16.6667 6.3335H6.66667C6.20833 6.3335 5.83333 6.7085 5.83333 7.16683Z" fill="#242424"/>
    </g>
    <defs>
    <clipPath id="clip0_2689_1018">
    <rect width="20" height="20" fill="white" transform="translate(0 0.5)"/>
    </clipPath>
    </defs>
    </svg>