<svg width="21" height="21" viewBox="0 0 21 21" fill="none" xmlns="http://www.w3.org/2000/svg">
<g id="carbon:airport-location">
<path id="Vector" d="M19.25 9.875H15.4563C15.3159 8.77531 14.8145 7.75333 14.0306 6.96943C13.2467 6.18552 12.2247 5.68407 11.125 5.54375V1.75H9.875V5.54375C8.77531 5.68407 7.75333 6.18552 6.96943 6.96943C6.18552 7.75333 5.68407 8.77531 5.54375 9.875H1.75V11.125H5.54375C5.68407 12.2247 6.18552 13.2467 6.96943 14.0306C7.75333 14.8145 8.77531 15.3159 9.875 15.4563V19.25H11.125V15.4563C12.2247 15.3159 13.2467 14.8145 14.0306 14.0306C14.8145 13.2467 15.3159 12.2247 15.4563 11.125H19.25V9.875ZM10.5 14.25C9.75832 14.25 9.0333 14.0301 8.41661 13.618C7.79993 13.206 7.31928 12.6203 7.03545 11.9351C6.75162 11.2498 6.67736 10.4958 6.82206 9.76841C6.96675 9.04098 7.3239 8.3728 7.84835 7.84835C8.3728 7.3239 9.04098 6.96675 9.76841 6.82206C10.4958 6.67736 11.2498 6.75162 11.9351 7.03545C12.6203 7.31928 13.206 7.79993 13.618 8.41661C14.0301 9.0333 14.25 9.75832 14.25 10.5C14.2488 11.4942 13.8534 12.4474 13.1504 13.1504C12.4474 13.8534 11.4942 14.2488 10.5 14.25Z" fill="#548ADB"/>
</g>
</svg>
