<svg width="16" height="16" viewBox="0 0 16 16" fill="none" xmlns="http://www.w3.org/2000/svg">
<g id="Details 16x16">
<path id="Union" fill-rule="evenodd" clip-rule="evenodd" d="M7.85811 14.4015C8.05781 14.637 8.42114 14.637 8.62083 14.4015L12.5146 9.80916C12.5374 9.78231 12.6894 9.58271 12.6894 9.58271L12.6899 9.58119C13.4195 8.62001 13.8137 7.44599 13.812 6.23923C13.812 4.76131 13.2249 3.34393 12.1798 2.29889C11.1348 1.25385 9.71739 0.666748 8.23948 0.666748C6.76156 0.666748 5.34418 1.25385 4.29914 2.29889C3.2541 3.34393 2.667 4.76131 2.667 6.23923C2.66523 7.44654 3.05959 8.6211 3.7896 9.58271C3.84774 9.65935 3.90651 9.73551 3.96589 9.81118L7.85811 14.4015ZM4.74351 9.16174C4.71666 9.1283 4.59812 8.97227 4.59812 8.97227C4.00124 8.18625 3.67911 7.22618 3.68018 6.23923C3.68018 5.03002 4.16053 3.87035 5.01556 3.01531C5.8706 2.16028 7.03027 1.67993 8.23948 1.67993C9.44868 1.67993 10.6084 2.16028 11.4634 3.01531C12.3184 3.87035 12.7988 5.03002 12.7988 6.23923C12.7999 7.22557 12.4777 8.18509 11.8813 8.97075C11.8813 8.97075 11.7623 9.1283 11.74 9.15616L8.62084 12.8351C8.42114 13.0706 8.0578 13.0706 7.8581 12.8351L4.74351 9.16174ZM6.83225 8.34529C7.24879 8.62362 7.73851 8.77217 8.23948 8.77217C8.91101 8.77137 9.55481 8.50425 10.0297 8.0294C10.5045 7.55456 10.7716 6.91076 10.7724 6.23923C10.7724 5.73826 10.6239 5.24854 10.3455 4.832C10.0672 4.41546 9.67163 4.0908 9.20879 3.89909C8.74596 3.70738 8.23667 3.65722 7.74532 3.75495C7.25398 3.85269 6.80265 4.09393 6.44842 4.44816C6.09418 4.8024 5.85294 5.25373 5.7552 5.74507C5.65747 6.23642 5.70763 6.74571 5.89934 7.20854C6.09105 7.67138 6.41571 8.06697 6.83225 8.34529ZM7.39514 4.97559C7.64506 4.80859 7.9389 4.71946 8.23948 4.71946C8.64242 4.71986 9.02875 4.88011 9.31367 5.16503C9.59859 5.44996 9.75884 5.83628 9.75924 6.23923C9.75924 6.53981 9.67011 6.83364 9.50312 7.08356C9.33612 7.33349 9.09877 7.52828 8.82107 7.64331C8.54337 7.75834 8.23779 7.78843 7.94299 7.72979C7.64818 7.67115 7.37738 7.52641 7.16484 7.31386C6.9523 7.10132 6.80755 6.83052 6.74891 6.53572C6.69027 6.24091 6.72037 5.93534 6.8354 5.65764C6.95042 5.37994 7.14522 5.14258 7.39514 4.97559Z" fill="#666666"/>
</g>
</svg>
