<svg width="22" height="22" viewBox="0 0 22 22" fill="none" xmlns="http://www.w3.org/2000/svg">
<g id="carbon:location-filled">
<path id="Vector" d="M11 1.8125C9.08617 1.81476 7.25136 2.57603 5.89807 3.92932C4.54479 5.28261 3.78352 7.11741 3.78126 9.03125C3.77897 10.5952 4.28984 12.1168 5.23551 13.3625C5.23551 13.3625 5.43238 13.6217 5.46454 13.6591L10.6186 19.7377C10.8183 19.9732 11.1817 19.9732 11.3814 19.7377L16.5381 13.6558C16.567 13.6211 16.7645 13.3625 16.7645 13.3625L16.7652 13.3605C17.7104 12.1154 18.221 10.5945 18.2188 9.03125C18.2165 7.11741 17.4552 5.28261 16.1019 3.92932C14.7487 2.57603 12.9138 1.81476 11 1.8125ZM11 11.6562C10.4808 11.6562 9.97331 11.5023 9.54164 11.2139C9.10996 10.9254 8.7735 10.5155 8.57482 10.0358C8.37614 9.55614 8.32416 9.02834 8.42545 8.51914C8.52673 8.00994 8.77674 7.54221 9.14385 7.17509C9.51096 6.80798 9.97869 6.55797 10.4879 6.45669C10.9971 6.3554 11.5249 6.40739 12.0045 6.60607C12.4842 6.80475 12.8942 7.1412 13.1826 7.57288C13.4711 8.00456 13.625 8.51207 13.625 9.03125C13.6241 9.72718 13.3473 10.3944 12.8552 10.8864C12.3631 11.3785 11.6959 11.6554 11 11.6562Z" fill="#FDFDFD"/>
</g>
</svg>
