<svg xmlns="http://www.w3.org/2000/svg" width="68" height="68" viewBox="0 0 68 68" fill="none">
    <g clip-path="url(#clip0_1055_108032)">
    <path fill-rule="evenodd" clip-rule="evenodd" d="M47.7636 8.73164C43.7906 5.83733 38.9771 4.25 34 4.25C27.8006 4.25 21.8551 6.71272 17.4714 11.0964C13.0877 15.48 10.625 21.4256 10.625 27.625C10.6178 32.5729 12.1966 37.3896 15.125 41.3703L18.1728 38.3224C16.0236 35.1772 14.8709 31.4492 14.875 27.625C14.875 22.5527 16.89 17.6882 20.4766 14.1016C24.0632 10.5149 28.9278 8.5 34 8.5C37.846 8.5 41.5725 9.65844 44.7132 11.7821L47.7636 8.73164ZM22.7133 43.868L34 57.1795L48.6838 39.8607C48.7545 39.7723 49.0566 39.3735 49.2002 39.1838C49.2463 39.1229 49.2761 39.0835 49.2766 39.083C51.7781 35.7874 53.1299 31.7624 53.125 27.625C53.125 23.7368 51.941 19.9706 49.7726 16.8086L52.1645 14.4167L52.8198 13.761C55.7608 17.7531 57.375 22.6059 57.375 27.625C57.3824 32.6871 55.7289 37.6118 52.6681 41.6436L52.666 41.65C52.666 41.65 52.0285 42.4873 51.9329 42.5999L34 63.75L19.6981 46.8831L22.7133 43.868Z" fill="#7D7D7D"/>
    <path fill-rule="evenodd" clip-rule="evenodd" d="M38.4968 17.9985C38.3548 17.9322 38.2112 17.8689 38.066 17.8088C36.1246 17.0046 33.9882 16.7942 31.9272 17.2042C29.8661 17.6141 27.9729 18.6261 26.487 20.112C25.0011 21.5979 23.9891 23.4911 23.5792 25.5522C23.1692 27.6132 23.3796 29.7496 24.1838 31.691C24.2439 31.8362 24.3072 31.9798 24.3735 32.1218L27.7281 28.7671C27.5087 27.562 27.641 26.3184 28.1103 25.1854C28.5928 24.0205 29.4099 23.0249 30.4582 22.3244C31.5066 21.6239 32.7392 21.25 34 21.25C34.3854 21.2504 34.7673 21.2856 35.1412 21.354L38.4968 17.9985ZM32.7134 33.8688C32.7277 33.8718 32.742 33.8747 32.7563 33.8775C33.9929 34.1235 35.2747 33.9972 36.4396 33.5147C37.6045 33.0322 38.6001 32.2151 39.3006 31.1668C40.0011 30.1184 40.375 28.8859 40.375 27.625C40.3746 27.1901 40.3298 26.7599 40.2431 26.3403L42.5 24.0833L43.5711 23.0115C44.262 24.4449 44.625 26.0212 44.625 27.625C44.6216 30.4419 43.5011 33.1424 41.5093 35.1343C39.5174 37.1261 36.8169 38.2466 34 38.25C32.3958 38.25 30.8192 37.8869 29.3855 37.1957L30.4151 36.1661L32.7134 33.8688Z" fill="#7D7D7D"/>
    <path d="M7.16839 54.9929L60.659 1.50229C61.4887 0.672596 62.8339 0.672596 63.6636 1.50229C64.4933 2.33205 64.4932 3.67737 63.6634 4.50703L56.2623 11.9064L53.1194 15.0514L46.7508 21.42L43.4549 24.718L36.2554 31.9175L31.37 36.8008L10.1731 57.9976C9.3434 58.8274 7.99813 58.8274 7.16839 57.9976C6.33865 57.1679 6.33865 55.8226 7.16839 54.9929Z" fill="#7D7D7D"/>
    </g>
    <defs>
    <clipPath id="clip0_1055_108032">
    <rect width="68" height="68" fill="white"/>
    </clipPath>
    </defs>
</svg>