<svg width="16" height="16" viewBox="0 0 16 16" fill="none" xmlns="http://www.w3.org/2000/svg">
<path fill-rule="evenodd" clip-rule="evenodd" d="M7.85713 14.4015C8.05683 14.637 8.42016 14.637 8.61986 14.4015L12.5136 9.80916C12.5364 9.78231 12.6884 9.58271 12.6884 9.58271L12.6889 9.58119C13.4186 8.62001 13.8127 7.44599 13.811 6.23923C13.811 4.76131 13.2239 3.34393 12.1788 2.29889C11.1338 1.25385 9.71641 0.666748 8.2385 0.666748C6.76059 0.666748 5.3432 1.25385 4.29816 2.29889C3.25312 3.34393 2.66602 4.76131 2.66602 6.23923C2.66425 7.44654 3.05862 8.6211 3.78862 9.58271C3.84677 9.65935 3.90553 9.73551 3.96492 9.81118L7.85713 14.4015ZM4.74253 9.16174C4.71568 9.1283 4.59714 8.97227 4.59714 8.97227C4.00026 8.18625 3.67814 7.22618 3.6792 6.23923C3.6792 5.03002 4.15955 3.87035 5.01459 3.01531C5.86962 2.16028 7.0293 1.67993 8.2385 1.67993C9.4477 1.67993 10.6074 2.16028 11.4624 3.01531C12.3174 3.87035 12.7978 5.03002 12.7978 6.23923C12.799 7.22557 12.4767 8.18509 11.8804 8.97075C11.8804 8.97075 11.7613 9.1283 11.739 9.15616L8.61986 12.8351C8.42017 13.0706 8.05683 13.0706 7.85712 12.8351L4.74253 9.16174ZM6.83127 8.34529C7.24781 8.62362 7.73753 8.77217 8.2385 8.77217C8.91003 8.77137 9.55383 8.50425 10.0287 8.0294C10.5035 7.55456 10.7706 6.91076 10.7714 6.23923C10.7714 5.73826 10.6229 5.24854 10.3446 4.832C10.0662 4.41546 9.67065 4.0908 9.20782 3.89909C8.74498 3.70738 8.23569 3.65722 7.74435 3.75495C7.253 3.85269 6.80168 4.09393 6.44744 4.44816C6.0932 4.8024 5.85196 5.25373 5.75423 5.74507C5.65649 6.23642 5.70665 6.74571 5.89837 7.20854C6.09008 7.67138 6.41473 8.06697 6.83127 8.34529ZM7.39416 4.97559C7.64409 4.80859 7.93792 4.71946 8.2385 4.71946C8.64144 4.71986 9.02777 4.88011 9.31269 5.16503C9.59762 5.44996 9.75786 5.83628 9.75827 6.23923C9.75827 6.53981 9.66913 6.83364 9.50214 7.08356C9.33515 7.33349 9.09779 7.52828 8.82009 7.64331C8.54239 7.75834 8.23681 7.78843 7.94201 7.72979C7.6472 7.67115 7.37641 7.52641 7.16386 7.31386C6.95132 7.10132 6.80658 6.83052 6.74794 6.53572C6.6893 6.24091 6.71939 5.93534 6.83442 5.65764C6.94945 5.37994 7.14424 5.14258 7.39416 4.97559Z" fill="#484848"/>
</svg>
