<svg width="20" height="20" viewBox="0 0 20 20" fill="none" xmlns="http://www.w3.org/2000/svg">
<g id="Local Gov 3" clip-path="url(#clip0_2262_37071)">
<g id="Group">
<g id="Layer 2">
<g id="layer 1">
<path id="Vector" d="M0.898008 18.3419H19.098V19.1002H0.898008V18.3419ZM2.03551 16.446H17.9605V17.2044H2.03551V16.446ZM2.03551 7.34604H17.9605V8.10437H2.03551V7.34604ZM18.7188 6.20854H1.27717C1.19056 6.21106 1.10569 6.18384 1.03671 6.13141C0.967716 6.07898 0.918768 6.0045 0.898008 5.92037C0.877349 5.83761 0.885198 5.75031 0.920287 5.67256C0.955376 5.59481 1.01566 5.53117 1.09138 5.49191L9.81222 0.941911C9.86612 0.913988 9.92593 0.899414 9.98663 0.899414C10.0473 0.899414 10.1072 0.913988 10.1611 0.941911L18.8819 5.49191C18.9618 5.52745 19.027 5.58952 19.0664 5.6676C19.1057 5.74568 19.1169 5.83498 19.098 5.92037C19.0773 6.0045 19.0283 6.07898 18.9593 6.13141C18.8903 6.18384 18.8055 6.21106 18.7188 6.20854ZM2.82418 5.4502H17.1718L9.99801 1.70783L2.82418 5.4502Z" fill="black"/>
<path id="Vector_2" d="M16.4427 17.2045H3.55104C3.45048 17.2045 3.35404 17.1646 3.28293 17.0935C3.21182 17.0224 3.17188 16.9259 3.17188 16.8254V7.72536C3.17188 7.6248 3.21182 7.52835 3.28293 7.45725C3.35404 7.38614 3.45048 7.34619 3.55104 7.34619H16.4427C16.5433 7.34619 16.6397 7.38614 16.7108 7.45725C16.7819 7.52835 16.8219 7.6248 16.8219 7.72536V16.8254C16.8219 16.9259 16.7819 17.0224 16.7108 17.0935C16.6397 17.1646 16.5433 17.2045 16.4427 17.2045ZM3.93021 16.4462H16.0635V8.10452H3.93021V16.4462Z" fill="black"/>
<path id="Vector_3" d="M8.86172 17.2044H5.82839C5.72782 17.2044 5.63138 17.1645 5.56027 17.0934C5.48917 17.0223 5.44922 16.9258 5.44922 16.8253V11.5169C5.44922 11.0141 5.64896 10.5319 6.0045 10.1764C6.36003 9.82083 6.84225 9.62109 7.34505 9.62109C7.84786 9.62109 8.33007 9.82083 8.68561 10.1764C9.04115 10.5319 9.24089 11.0141 9.24089 11.5169V16.8253C9.24089 16.9258 9.20094 17.0223 9.12983 17.0934C9.05872 17.1645 8.96228 17.2044 8.86172 17.2044ZM6.20755 16.4461H8.48255V11.5169C8.48255 11.2152 8.36271 10.9259 8.14939 10.7126C7.93606 10.4993 7.64674 10.3794 7.34505 10.3794C7.04337 10.3794 6.75404 10.4993 6.54072 10.7126C6.3274 10.9259 6.20755 11.2152 6.20755 11.5169V16.4461ZM14.1701 17.2044H11.1367C11.0362 17.2044 10.9397 17.1645 10.8686 17.0934C10.7975 17.0223 10.7576 16.9258 10.7576 16.8253V11.5169C10.7576 11.0141 10.9573 10.5319 11.3128 10.1764C11.6684 9.82083 12.1506 9.62109 12.6534 9.62109C13.1562 9.62109 13.6384 9.82083 13.9939 10.1764C14.3495 10.5319 14.5492 11.0141 14.5492 11.5169V16.8253C14.5492 16.9258 14.5093 17.0223 14.4382 17.0934C14.3671 17.1645 14.2706 17.2044 14.1701 17.2044ZM11.5159 16.4461H13.7909V11.5169C13.7909 11.2152 13.671 10.9259 13.4577 10.7126C13.2444 10.4993 12.9551 10.3794 12.6534 10.3794C12.3517 10.3794 12.0624 10.4993 11.8491 10.7126C11.6357 10.9259 11.5159 11.2152 11.5159 11.5169V16.4461Z" fill="black"/>
</g>
</g>
</g>
</g>
<defs>
<clipPath id="clip0_2262_37071">
<rect width="20" height="20" fill="white"/>
</clipPath>
</defs>
</svg>
