<svg width="25" height="25" viewBox="0 0 25 25" fill="none" xmlns="http://www.w3.org/2000/svg">
<path d="M23.1016 12H18.5491C18.3807 10.6804 17.7789 9.45399 16.8382 8.51331C15.8976 7.57263 14.6712 6.97088 13.3516 6.8025V2.25H11.8516V6.8025C10.5319 6.97088 9.30556 7.57263 8.36487 8.51331C7.42419 9.45399 6.82245 10.6804 6.65406 12H2.10156V13.5H6.65406C6.82245 14.8196 7.42419 16.046 8.36487 16.9867C9.30556 17.9274 10.5319 18.5291 11.8516 18.6975V23.25H13.3516V18.6975C14.6712 18.5291 15.8976 17.9274 16.8382 16.9867C17.7789 16.046 18.3807 14.8196 18.5491 13.5H23.1016V12ZM12.6016 17.25C11.7115 17.25 10.8415 16.9861 10.1015 16.4916C9.36147 15.9971 8.7847 15.2943 8.44411 14.4721C8.10351 13.6498 8.0144 12.745 8.18803 11.8721C8.36166 10.9992 8.79025 10.1974 9.41958 9.56802C10.0489 8.93868 10.8507 8.5101 11.7237 8.33647C12.5966 8.16283 13.5014 8.25195 14.3236 8.59254C15.1459 8.93314 15.8487 9.50991 16.3432 10.2499C16.8376 10.99 17.1016 11.86 17.1016 12.75C17.1002 13.943 16.6256 15.0868 15.782 15.9304C14.9384 16.7741 13.7946 17.2486 12.6016 17.25Z" fill="black"/>
</svg>
