<svg width="24" height="24" viewBox="0 0 24 24" fill="none" xmlns="http://www.w3.org/2000/svg">
<path d="M2.53025 21.4093L21.4093 2.53022C21.7021 2.23739 22.1769 2.23739 22.4697 2.53022C22.7626 2.82307 22.7625 3.2979 22.4697 3.59072L19.8575 6.20225L18.7482 7.31225L16.5005 9.56L15.3373 10.724L12.7963 13.265L11.072 14.9885L3.59075 22.4698C3.2979 22.7626 2.8231 22.7626 2.53025 22.4698C2.2374 22.1769 2.2374 21.7021 2.53025 21.4093Z" fill="#242424"/>
<path fill-rule="evenodd" clip-rule="evenodd" d="M8.60557 16.9376C9.3897 17.4772 10.2955 17.8257 11.25 17.9475V22.5H12.75V17.9475C14.0696 17.7791 15.296 17.1774 16.2367 16.2367C17.1774 15.296 17.7791 14.0696 17.9475 12.75H22.5V11.25H17.9475C17.8257 10.2957 17.4774 9.39025 16.9381 8.60629L15.8591 9.68532C16.2778 10.3834 16.5 11.1833 16.5 12C16.4986 13.193 16.0241 14.3368 15.1804 15.1804C14.3368 16.0241 13.193 16.4986 12 16.5C11.183 16.5 10.3828 16.2776 9.68457 15.8586L8.60557 16.9376ZM14.1038 8.02206C13.9798 7.95648 13.8524 7.89654 13.7221 7.84254C12.8998 7.50195 11.995 7.41283 11.1221 7.58647C10.2492 7.7601 9.44736 8.18868 8.81802 8.81802C8.18868 9.44736 7.7601 10.2492 7.58647 11.1221C7.41283 11.995 7.50195 12.8998 7.84254 13.7221C7.89654 13.8524 7.95648 13.9798 8.02206 14.1038L6.93092 15.195C6.46607 14.4583 6.1641 13.6246 6.0525 12.75H1.5V11.25H6.0525C6.22088 9.93037 6.82263 8.70399 7.76331 7.76331C8.70399 6.82263 9.93037 6.22088 11.25 6.0525V1.5H12.75V6.0525C13.6246 6.1641 14.4583 6.46607 15.195 6.93092L14.1038 8.02206Z" fill="#242424"/>
</svg>
