<svg width="16" height="16" viewBox="0 0 16 16" fill="none" xmlns="http://www.w3.org/2000/svg">
<g id="Location">
<path id="Vector" d="M15 7.5H11.965C11.8527 6.62025 11.4516 5.80266 10.8245 5.17554C10.1973 4.54842 9.37975 4.14726 8.5 4.035V1H7.5V4.035C6.62025 4.14726 5.80266 4.54842 5.17554 5.17554C4.54842 5.80266 4.14726 6.62025 4.035 7.5H1V8.5H4.035C4.14726 9.37975 4.54842 10.1973 5.17554 10.8245C5.80266 11.4516 6.62025 11.8527 7.5 11.965V15H8.5V11.965C9.37975 11.8527 10.1973 11.4516 10.8245 10.8245C11.4516 10.1973 11.8527 9.37975 11.965 8.5H15V7.5ZM8 11C7.40666 11 6.82664 10.8241 6.33329 10.4944C5.83994 10.1648 5.45542 9.69623 5.22836 9.14805C5.0013 8.59987 4.94189 7.99667 5.05764 7.41473C5.1734 6.83279 5.45912 6.29824 5.87868 5.87868C6.29824 5.45912 6.83279 5.1734 7.41473 5.05764C7.99667 4.94189 8.59987 5.0013 9.14805 5.22836C9.69623 5.45542 10.1648 5.83994 10.4944 6.33329C10.8241 6.82664 11 7.40666 11 8C10.9991 8.79537 10.6827 9.55789 10.1203 10.1203C9.55789 10.6827 8.79537 10.9991 8 11Z" fill="#666666"/>
</g>
</svg>
