<svg width="33" height="33" viewBox="0 0 33 33" fill="none" xmlns="http://www.w3.org/2000/svg">
<g id="carbon:location-filled">
<path id="Vector" d="M5.80836 13.3263L5.80836 13.3261C5.81167 10.5177 6.92875 7.82536 8.91454 5.83956C10.9001 3.85396 13.5922 2.73691 16.4002 2.73338C19.2083 2.73691 21.9003 3.85396 23.8859 5.83956C25.8717 7.82536 26.9888 10.5177 26.9921 13.3261V13.3262C26.9954 15.6184 26.2467 17.8484 24.8607 19.6741L24.7924 19.7642L24.7918 19.7659L24.7022 19.8828C24.661 19.9364 24.6189 19.9911 24.5845 20.0354L24.541 20.0913C24.5319 20.103 24.5269 20.1091 24.5252 20.1113L16.4002 29.6939L8.27539 20.1118L8.27541 20.1117L8.27238 20.1082C8.27257 20.1084 8.27204 20.1078 8.27073 20.1061C8.26559 20.0997 8.24843 20.0782 8.21662 20.0373C8.18216 19.9929 8.14012 19.9383 8.09891 19.8845L7.98886 19.7404L7.95369 19.6942L7.94398 19.6815L7.94146 19.6782L7.94083 19.6773L7.94073 19.6772L7.94068 19.6771L7.94065 19.6771C6.55406 17.8505 5.805 15.6195 5.80836 13.3263ZM21.1837 13.3261V13.3252C21.1837 12.3792 20.9031 11.4544 20.3775 10.6677C19.8519 9.88109 19.1048 9.26799 18.2308 8.90594C17.3567 8.54389 16.3949 8.44917 15.467 8.63374C14.5391 8.81831 13.6868 9.27388 13.0178 9.94286C12.3489 10.6118 11.8933 11.4642 11.7087 12.3921C11.5241 13.3199 11.6189 14.2817 11.9809 15.1558C12.343 16.0298 12.9561 16.7769 13.7427 17.3025C14.5293 17.8281 15.4542 18.1087 16.4002 18.1087H16.4011C17.669 18.1071 18.8846 17.6027 19.7811 16.7061C20.6777 15.8096 21.1821 14.594 21.1837 13.3261Z" fill="#242424" stroke="#FDFDFD" stroke-width="1.36669"/>
</g>
</svg>
