<svg width="20" height="20" viewBox="0 0 20 20" fill="none" xmlns="http://www.w3.org/2000/svg">
<path id="Vector" d="M1.09584 2.40902L3.42827 6.29639C3.48749 6.3951 3.45014 6.52334 3.34718 6.57482L0.967185 7.76482C0.846537 7.82516 0.820445 7.98594 0.915825 8.08133L3.39833 10.5638C3.4755 10.641 3.4755 10.7661 3.39833 10.8433L1.00766 13.234C0.891379 13.3502 0.959711 13.5494 1.12289 13.5698L4.23757 13.9591C4.36132 13.9746 4.43998 14.0994 4.40055 14.2177L3.65192 16.4636C3.60259 16.6116 3.73602 16.7557 3.88732 16.7179L7.08031 15.9196C7.194 15.8912 7.3073 15.9674 7.32388 16.0834L7.71628 18.8301C7.73723 18.9768 7.90619 19.0491 8.02678 18.963L10.9115 16.9025C10.9901 16.8463 11.0978 16.8552 11.1661 16.9235L12.5878 18.3452C12.7123 18.4697 12.9251 18.3815 12.9251 18.2055V16.1128C12.9251 15.9864 13.0422 15.8925 13.1656 15.9199L16.7839 16.724C16.939 16.7584 17.0693 16.6051 17.0103 16.4577L15.3803 12.3826C15.3284 12.2528 15.424 12.1116 15.5638 12.1116H18.1462C18.3119 12.1116 18.404 11.92 18.3005 11.7906L16.8146 9.93318C16.7422 9.84268 16.7629 9.70959 16.8593 9.6453L19.0541 8.18208C19.2065 8.08052 19.1507 7.84427 18.969 7.82156L16.0018 7.45066C15.8714 7.43436 15.7929 7.29756 15.8447 7.17672L17.0313 4.40809C17.0871 4.2777 16.9915 4.13262 16.8496 4.13262H14.0129C13.9247 4.13262 13.8471 4.07413 13.8229 3.98929L13.0098 1.14345C12.9702 1.00495 12.8005 0.953951 12.6912 1.04769L9.83183 3.49855C9.73422 3.58222 9.58397 3.55187 9.52646 3.43687L8.82358 2.03109C8.76324 1.91045 8.60246 1.88435 8.50707 1.97973L5.98939 4.49741C5.9274 4.55941 5.83199 4.57314 5.75501 4.53117L1.35993 2.13385C1.18312 2.0374 0.992218 2.23632 1.09584 2.40902Z" stroke="#E8332B" stroke-width="1.5"/>
</svg>
