<svg width="25" height="25" viewBox="0 0 25 25" fill="none" xmlns="http://www.w3.org/2000/svg">
    <path d="M1.12348 3.50896L1.12506 3.50843L8.48922 1.02695L16.3348 3.77367L16.5167 3.83736L16.6965 3.76768L23.7849 1.0192L23.8873 1C23.918 1.00592 23.9419 1.02006 23.9594 1.03759C23.9828 1.06091 24 1.0954 24 1.14223V21.3457C24 21.3815 23.9896 21.4064 23.9739 21.4269C23.9564 21.4495 23.9251 21.4748 23.8765 21.491L23.875 21.4916L16.5108 23.973L8.66517 21.2264L8.48326 21.1627L8.30354 21.2324L1.21512 23.9809L1.1127 24C1.082 23.9941 1.05814 23.98 1.04059 23.9625C1.01728 23.9391 1 23.9046 1 23.8578V3.6543C1 3.61856 1.01036 3.5936 1.02616 3.57314C1.04361 3.55055 1.07481 3.52519 1.12348 3.50896ZM16.9912 3.8727L16.6528 4.00025V4.36198V22.8556V23.5795L17.3398 23.352L23.3512 21.3608L23.7096 21.242V20.8644V2.09613V1.34034L23.0025 1.60686L16.9912 3.8727ZM1.29043 22.801V23.5745L2.00803 23.2862L8.01939 20.8709L8.34724 20.7391V20.3856V2.19004V1.45757L7.65474 1.69554L1.64337 3.76109L1.29043 3.88235V4.2556V22.801ZM9.32108 1.74595L8.63767 1.52507V2.24349V20.3856V20.7498L8.97912 20.8761L15.6583 23.346L16.3623 23.6063V22.8556V4.40206V4.02152L16.0003 3.90452L9.32108 1.74595Z" stroke="#146FB4" stroke-width="1.6"/>
    </svg>
    