<svg width="21" height="20" viewBox="0 0 21 20" fill="none" xmlns="http://www.w3.org/2000/svg">
<g id="Map Icon 1 px Width" clip-path="url(#clip0_1762_52166)">
<path id="Vector (Stroke)" d="M2.66522 17.9818V17.9809C2.39087 17.9809 2.17461 17.7647 2.17461 17.4903V4.16617C2.17461 3.93931 2.32319 3.76339 2.52597 3.69577C2.52599 3.69576 2.52602 3.69575 2.52604 3.69574L7.496 2.02146L7.51228 2.01598L7.52848 2.02165L12.7984 3.86614L17.487 2.04866L17.4957 2.04529L17.4959 2.04614L17.6369 2.0197L17.6461 2.01798V2.01885C17.9204 2.01885 18.1367 2.2351 18.1367 2.50946V15.8336C18.1367 16.0604 17.9881 16.2363 17.7854 16.304L2.66522 17.9818ZM2.66522 17.9818L2.67444 17.9801L2.81543 17.9536L2.81559 17.9545L2.82429 17.9511L7.51285 16.1336L12.7828 17.9781L12.799 17.9838L12.8153 17.9783L17.7852 16.304L2.66522 17.9818ZM17.1555 3.21083V15.4801L13.2899 16.7601V4.66746L17.1555 3.21083ZM3.15584 16.7194V4.59841L7.02135 3.27053V15.1667L3.15584 16.7194ZM12.3087 16.7575L8.00258 15.1656V3.30443L12.3087 4.6957V16.7575Z" fill="#7D7D7D" stroke="#7D7D7D" stroke-width="0.1"/>
</g>
<defs>
<clipPath id="clip0_1762_52166">
<rect width="20" height="20" fill="white" transform="translate(0.5)"/>
</clipPath>
</defs>
</svg>
