<svg xmlns="http://www.w3.org/2000/svg" width="24" height="25" viewBox="0 0 24 25" fill="none">
    <path d="M1.13889 24.0509V24.05C0.753497 24.05 0.45 23.7465 0.45 23.3611V4.04111C0.45 3.72306 0.658048 3.47577 0.944083 3.38038C0.944118 3.38037 0.944153 3.38036 0.944188 3.38034L8.1507 0.952616L8.16698 0.947135L8.18318 0.952807L15.8325 3.63005L22.6386 0.991713L22.6473 0.988342L22.6475 0.98919L22.8519 0.950856L22.8611 0.949129V0.95C23.2465 0.95 23.55 1.2535 23.55 1.63889V20.9589C23.55 21.2769 23.342 21.5242 23.056 21.6196L1.13889 24.0509ZM1.13889 24.0509L1.1481 24.0491L1.35255 24.0108L1.35271 24.0117L1.36141 24.0083L8.16755 21.3699L15.8168 24.0472L15.833 24.0529L15.8493 24.0474L23.0558 21.6197L1.13889 24.0509ZM22.1722 2.62335V20.4625L16.5222 22.3335V4.75243L22.1722 2.62335ZM1.82778 22.2765V4.6518L7.47778 2.71092V20.007L1.82778 22.2765ZM15.1444 22.3309L8.85556 20.006V2.76069L15.1444 4.79256V22.3309Z" fill="white" stroke="white" stroke-width="0.1"/>
    </svg>