<svg width="41" height="29" viewBox="0 0 41 29" fill="none" xmlns="http://www.w3.org/2000/svg">
<rect width="41" height="29" fill="white"/>
<path d="M9.11811 6.33295L9.11962 6.33247L16.1636 4.02506L23.6681 6.5791L23.8421 6.63832L24.014 6.57353L30.7943 4.01785L30.8922 4C30.9216 4.0055 30.9444 4.01865 30.9612 4.03496C30.9835 4.05664 31 4.08871 31 4.13225V22.9185C31 22.9517 30.9901 22.9749 30.975 22.9939C30.9583 23.0149 30.9284 23.0385 30.8819 23.0536L30.8804 23.0541L23.8364 25.3615L16.3319 22.8075L16.1579 22.7483L15.986 22.8131L9.20577 25.3688L9.1078 25.3866C9.07844 25.3811 9.05561 25.368 9.03883 25.3517C9.01653 25.33 9 25.2979 9 25.2543V6.4681C9 6.43487 9.00991 6.41166 9.02502 6.39264C9.04171 6.37163 9.07156 6.34804 9.11811 6.33295ZM24.2959 6.67118L23.9722 6.78978V7.12614V24.3224V24.9956L24.6294 24.784L30.3794 22.9325L30.7222 22.822V22.4709V5.01924V4.31647L30.0459 4.56429L24.2959 6.67118ZM9.2778 24.2716V24.9909L9.9642 24.7228L15.7142 22.4769L16.0278 22.3544V22.0258V5.10656V4.42547L15.3654 4.64674L9.6154 6.5674L9.2778 6.68016V7.02722V24.2716ZM16.9593 4.69362L16.3056 4.48824V5.15626V22.0258V22.3643L16.6322 22.4818L23.021 24.7784L23.6944 25.0205V24.3224V7.16341V6.80956L23.3481 6.70077L16.9593 4.69362Z" stroke="black" stroke-width="1.6"/>
</svg>
