<svg width="41" height="29" viewBox="0 0 41 29" fill="none" xmlns="http://www.w3.org/2000/svg">
<g clip-path="url(#clip0_981_363)">
<path fill-rule="evenodd" clip-rule="evenodd" d="M9.46 5.42778C9.19167 5.51722 9 5.74722 9 6.04111V25.3611C9 25.7189 9.28111 26 9.63889 26L9.84333 25.9617L16.6667 23.3167L24.3333 26L31.54 23.5722C31.8083 23.4828 32 23.2528 32 22.9589V3.63889C32 3.28111 31.7189 3 31.3611 3L31.1567 3.03833L24.3333 5.68333L16.6667 3L9.46 5.42778ZM24.9722 6.71784V24.4027L30.7222 22.4986V4.55108L24.9722 6.71784ZM10.2778 24.3505V6.61611L16.0278 4.64088V22.0408L10.2778 24.3505ZM17.3056 4.69199V22.0408L23.6944 24.4027V6.75617L17.3056 4.69199Z" fill="#242424"/>
</g>
<defs>
<clipPath id="clip0_981_363">
<rect width="41" height="29" fill="white"/>
</clipPath>
</defs>
</svg>
