<svg xmlns="http://www.w3.org/2000/svg" width="21" height="21" viewBox="0 0 21 21" fill="none">
    <g clip-path="url(#clip0_2689_1071)">
    <path d="M17.5833 3L17.45 3.025L13 4.75L8 3L3.3 4.58333C3.125 4.64167 3 4.79167 3 4.98333V17.5833C3 17.8167 3.18333 18 3.41667 18L3.55 17.975L8 16.25L13 18L17.7 16.4167C17.875 16.3583 18 16.2083 18 16.0167V3.41667C18 3.18333 17.8167 3 17.5833 3ZM8.83333 5.05833L12.1667 6.225V15.9417L8.83333 14.775V5.05833ZM4.66667 5.88333L7.16667 5.04167V14.7917L4.66667 15.7583V5.88333ZM16.3333 15.1167L13.8333 15.9583V6.21667L16.3333 5.25V15.1167Z" fill="#242424"/>
    </g>
    <defs>
    <clipPath id="clip0_2689_1071">
    <rect width="20" height="20" fill="white" transform="translate(0.5 0.5)"/>
    </clipPath>
    </defs>
    </svg>