<svg width="41" height="29" viewBox="0 0 41 29" fill="none" xmlns="http://www.w3.org/2000/svg">
<rect width="40.625" height="29" rx="8.83152" fill="#003366"/>
<path fill-rule="evenodd" clip-rule="evenodd" d="M9.2725 5.42778C9.00417 5.51722 8.8125 5.74722 8.8125 6.04111V25.3611C8.8125 25.7189 9.09361 26 9.45139 26L9.65583 25.9617L16.4792 23.3167L24.1458 26L31.3525 23.5722C31.6208 23.4828 31.8125 23.2528 31.8125 22.9589V3.63889C31.8125 3.28111 31.5314 3 31.1736 3L30.9692 3.03833L24.1458 5.68333L16.4792 3L9.2725 5.42778ZM24.7847 6.71784V24.4027L30.5347 22.4986V4.55108L24.7847 6.71784ZM10.0903 24.3505V6.61611L15.8403 4.64088V22.0408L10.0903 24.3505ZM17.1181 4.69199V22.0408L23.5069 24.4027V6.75617L17.1181 4.69199Z" fill="white"/>
</svg>
