<svg width="41" height="29" viewBox="0 0 41 29" fill="none" xmlns="http://www.w3.org/2000/svg">
<rect width="40.625" height="29" rx="8.83152" fill="#003366"/>
<path d="M9.43061 6.13967L9.43212 6.13918L16.4761 3.83177L23.9806 6.38582L24.1546 6.44503L24.3265 6.38024L31.1068 3.82457L31.2047 3.80672C31.2341 3.81222 31.2569 3.82537 31.2737 3.84167C31.296 3.86336 31.3125 3.89543 31.3125 3.93897V13.3321V22.7252C31.3125 22.7585 31.3026 22.7816 31.2875 22.8007C31.2708 22.8217 31.2409 22.8452 31.1944 22.8603L31.1929 22.8608L24.1489 25.1682L16.6444 22.6143L16.4704 22.555L16.2985 22.6198L9.51827 25.1755L9.4203 25.1933C9.39094 25.1878 9.36811 25.1747 9.35133 25.1584C9.32903 25.1367 9.3125 25.1046 9.3125 25.061V6.27482C9.3125 6.24158 9.32241 6.21837 9.33752 6.19935C9.35421 6.17835 9.38406 6.15476 9.43061 6.13967ZM24.6084 6.4779L24.2847 6.5965V6.93285V24.1291V24.8023L24.9419 24.5907L30.6919 22.7392L31.0347 22.6287V22.2776V4.82596V4.12319L30.3584 4.371L24.6084 6.4779ZM9.5903 24.0784V24.7976L10.2767 24.5295L16.0267 22.2837L16.3403 22.1611V21.8325V4.91328V4.23219L15.6779 4.45346L9.9279 6.37412L9.5903 6.48688V6.83393V24.0784ZM17.2718 4.50034L16.6181 4.29495V4.96297V21.8325V22.171L16.9447 22.2885L23.3335 24.5852L24.0069 24.8272V24.1291V6.97012V6.61628L23.6606 6.50749L17.2718 4.50034Z" stroke="white" stroke-width="1.6"/>
</svg>
