<svg width="23" height="23" viewBox="0 0 23 23" fill="none" xmlns="http://www.w3.org/2000/svg">
<path fill-rule="evenodd" clip-rule="evenodd" d="M0.46 2.42778C0.191667 2.51722 0 2.74722 0 3.04111V22.3611C0 22.7189 0.281111 23 0.638889 23L0.843333 22.9617L7.66667 20.3167L15.3333 23L22.54 20.5722C22.8083 20.4828 23 20.2528 23 19.9589V0.638889C23 0.281111 22.7189 0 22.3611 0L22.1567 0.0383333L15.3333 2.68333L7.66667 0L0.46 2.42778ZM15.9722 3.71784V21.4027L21.7222 19.4986V1.55108L15.9722 3.71784ZM1.27778 21.3505V3.61611L7.02778 1.64088V19.0408L1.27778 21.3505ZM8.30556 1.69199V19.0408L14.6944 21.4027V3.75617L8.30556 1.69199Z" fill="black"/>
</svg>
