<svg width="49" height="48" viewBox="0 0 49 48" fill="none" xmlns="http://www.w3.org/2000/svg">
<g id="Details 20x20">
<path id="Vector" d="M43.832 15H4.83203C4.43421 15 4.05268 15.158 3.77137 15.4393C3.49007 15.7206 3.33203 16.1022 3.33203 16.5V31.5C3.33203 31.8978 3.49007 32.2794 3.77137 32.5607C4.05268 32.842 4.43421 33 4.83203 33H43.832C44.2299 33 44.6114 32.842 44.8927 32.5607C45.174 32.2794 45.332 31.8978 45.332 31.5V16.5C45.332 16.1022 45.174 15.7206 44.8927 15.4393C44.6114 15.158 44.2299 15 43.832 15ZM42.332 30H6.33203V18H12.332V24H15.332V18H22.832V24H25.832V18H33.332V24H36.332V18H42.332V30Z" fill="#1A5A96"/>
</g>
</svg>
