<svg width="24" height="24" viewBox="0 0 24 24" fill="none" xmlns="http://www.w3.org/2000/svg">
<g id="Medical Kit">
<g id="Group">
<path id="Vector" d="M21.7158 8.11397C21.7158 7.94384 21.6823 7.77538 21.6172 7.61821C21.5521 7.46105 21.4566 7.31826 21.3362 7.19802C21.216 7.07773 21.0732 6.98231 20.9161 6.91721C20.7589 6.85211 20.5905 6.8186 20.4204 6.8186H3.58056C3.41047 6.8186 3.24204 6.85211 3.0849 6.91721C2.92777 6.98231 2.78499 7.07773 2.66474 7.19802C2.54437 7.31825 2.44889 7.46104 2.38375 7.6182C2.31862 7.77537 2.28512 7.94384 2.28516 8.11397V19.7723C2.28511 19.9425 2.31861 20.1109 2.38374 20.2681C2.44887 20.4253 2.54434 20.5681 2.6647 20.6883C2.78495 20.8086 2.92773 20.904 3.08487 20.9691C3.24201 21.0342 3.41043 21.0677 3.58052 21.0677H20.4204C20.5905 21.0677 20.7589 21.0342 20.916 20.9691C21.0732 20.904 21.2159 20.8086 21.3362 20.6883C21.4566 20.5681 21.552 20.4253 21.6171 20.2681C21.6823 20.1109 21.7158 19.9425 21.7157 19.7723L21.7158 8.11397Z" stroke="#242424" stroke-width="1.3" stroke-miterlimit="10" stroke-linecap="round" stroke-linejoin="round"/>
<path id="Vector_2" d="M16.5364 6.8185V4.22773C16.5364 3.51235 15.9563 2.93237 15.241 2.93237H8.76411C8.04873 2.93237 7.46875 3.51235 7.46875 4.22773V6.8185M12.0025 11.3523V16.5338M9.41177 13.943H14.5933" stroke="#242424" stroke-width="1.3" stroke-miterlimit="10" stroke-linecap="round" stroke-linejoin="round"/>
</g>
</g>
</svg>
