<svg width="24" height="25" viewBox="0 0 24 25" fill="none" xmlns="http://www.w3.org/2000/svg">
<path fill-rule="evenodd" clip-rule="evenodd" d="M15.975 4.20039L12.6 2.17539C12.553 2.15974 12.5093 2.14408 12.4676 2.12911C12.3091 2.07235 12.178 2.02539 12 2.02539C11.775 2.02539 11.625 2.10039 11.475 2.17539L8.1 4.20039C7.725 4.42539 7.5 4.80039 7.5 5.17539V9.37539C7.5 9.75039 7.725 10.1254 8.025 10.3504L11.4 12.3754C11.55 12.4504 11.775 12.5254 11.925 12.5254C12.075 12.5254 12.3 12.4504 12.45 12.3754L15.825 10.3504C16.125 10.1254 16.35 9.82539 16.35 9.37539V5.17539C16.5 4.80039 16.275 4.42539 15.975 4.20039ZM15 9.15039L12 10.9504L9 9.15039V5.40039L12 3.60039L15 5.40039V9.15039ZM21.975 14.7004L18.6 12.6754C18.5531 12.6597 18.5094 12.6441 18.4676 12.6291L18.4676 12.6291C18.3091 12.5724 18.178 12.5254 18 12.5254C17.775 12.5254 17.625 12.6004 17.475 12.6754L14.1 14.7004C13.8 14.9254 13.575 15.2254 13.575 15.6754V19.8754C13.575 20.2504 13.8 20.6254 14.1 20.8504L17.475 22.8754C17.625 22.9504 17.85 23.0254 18 23.0254C18.15 23.0254 18.375 22.9504 18.525 22.8754L21.9 20.8504C22.2 20.6254 22.425 20.3254 22.425 19.8754V15.6754C22.5 15.3004 22.275 14.9254 21.975 14.7004ZM21 19.6504L18 21.4504L15 19.6504V15.9004L18 14.1004L21 15.9004V19.6504ZM6.6 12.6754L9.975 14.7004C10.275 14.9254 10.5 15.3004 10.425 15.6754V19.8754C10.425 20.3254 10.2 20.6254 9.9 20.8504L6.525 22.8754C6.375 22.9504 6.225 23.0254 6 23.0254C5.82196 23.0254 5.69088 22.9784 5.53244 22.9217C5.49065 22.9067 5.44696 22.891 5.4 22.8754L2.025 20.8504C1.725 20.6254 1.5 20.2504 1.5 19.8754V15.6754C1.5 15.3004 1.725 14.9254 2.1 14.7004L5.475 12.6754C5.625 12.6004 5.775 12.5254 6 12.5254C6.17804 12.5254 6.30912 12.5724 6.46755 12.6291C6.50934 12.6441 6.55304 12.6597 6.6 12.6754ZM3 19.6504L6 21.4504L9 19.6504V15.9004L6 14.1004L3 15.9004V19.6504Z" fill="#484848"/>
</svg>
