<svg width="24" height="25" viewBox="0 0 24 25" fill="none" xmlns="http://www.w3.org/2000/svg">
<path d="M9 22.2754C8.85193 22.2747 8.70739 22.2301 8.5846 22.1474C8.46181 22.0646 8.36627 21.9474 8.31 21.8104L4.7475 13.2754H1.5V11.7754H5.25C5.39807 11.7761 5.54261 11.8207 5.6654 11.9034C5.78819 11.9862 5.88373 12.1034 5.94 12.2404L9 19.4854L15.045 3.26289C15.0986 3.11934 15.195 2.99567 15.321 2.90851C15.447 2.82135 15.5968 2.7749 15.75 2.77539C15.9047 2.7781 16.0547 2.82856 16.1796 2.91986C16.3044 3.01116 16.398 3.13883 16.4475 3.28539L19.29 11.7754H22.5V13.2754H18.75C18.5928 13.2758 18.4394 13.2268 18.3115 13.1353C18.1837 13.0437 18.0878 12.9144 18.0375 12.7654L15.75 5.77539L9.705 21.7879C9.65137 21.9314 9.55505 22.0551 9.429 22.1423C9.30296 22.2294 9.15324 22.2759 9 22.2754Z" fill="#484848"/>
</svg>
