<svg width="28" height="29" viewBox="0 0 28 29" fill="none" xmlns="http://www.w3.org/2000/svg">
    <g id="fluent:line-horizontal-3-20-filled">
    <g id="Group">
    <path id="Vector" d="M4.66602 7.12916C4.66602 6.84073 4.7582 6.56412 4.9223 6.36018C5.08639 6.15623 5.30895 6.04166 5.54102 6.04166H22.4577C22.6897 6.04166 22.9123 6.15623 23.0764 6.36018C23.2405 6.56412 23.3327 6.84073 23.3327 7.12916C23.3327 7.41758 23.2405 7.69419 23.0764 7.89814C22.9123 8.10208 22.6897 8.21666 22.4577 8.21666H5.54102C5.30895 8.21666 5.08639 8.10208 4.9223 7.89814C4.7582 7.69419 4.66602 7.41758 4.66602 7.12916Z" fill="#242424"/>
    <path id="Vector_2" d="M4.66602 14.3792C4.66602 14.0907 4.7582 13.8141 4.9223 13.6102C5.08639 13.4062 5.30895 13.2917 5.54102 13.2917H22.4577C22.6897 13.2917 22.9123 13.4062 23.0764 13.6102C23.2405 13.8141 23.3327 14.0907 23.3327 14.3792C23.3327 14.6676 23.2405 14.9442 23.0764 15.1481C22.9123 15.3521 22.6897 15.4667 22.4577 15.4667H5.54102C5.30895 15.4667 5.08639 15.3521 4.9223 15.1481C4.7582 14.9442 4.66602 14.6676 4.66602 14.3792Z" fill="#242424"/>
    <path id="Vector_3" d="M5.54102 20.5417C5.30895 20.5417 5.08639 20.6562 4.9223 20.8602C4.7582 21.0641 4.66602 21.3407 4.66602 21.6292C4.66602 21.9176 4.7582 22.1942 4.9223 22.3981C5.08639 22.6021 5.30895 22.7167 5.54102 22.7167H22.4577C22.6897 22.7167 22.9123 22.6021 23.0764 22.3981C23.2405 22.1942 23.3327 21.9176 23.3327 21.6292C23.3327 21.3407 23.2405 21.0641 23.0764 20.8602C22.9123 20.6562 22.6897 20.5417 22.4577 20.5417H5.54102Z" fill="#242424"/>
    </g>
    </g>
    </svg>
    