<svg xmlns="http://www.w3.org/2000/svg" width="32" height="32" viewBox="0 0 32 32" fill="none">
    <path d="M5.33398 7.86667C5.33398 7.54841 5.43934 7.24319 5.62688 7.01814C5.81441 6.7931 6.06877 6.66667 6.33398 6.66667H25.6673C25.9325 6.66667 26.1869 6.7931 26.3744 7.01814C26.562 7.24319 26.6673 7.54841 26.6673 7.86667C26.6673 8.18493 26.562 8.49016 26.3744 8.7152C26.1869 8.94024 25.9325 9.06667 25.6673 9.06667H6.33398C6.06877 9.06667 5.81441 8.94024 5.62688 8.7152C5.43934 8.49016 5.33398 8.18493 5.33398 7.86667Z" fill="#373737"/>
    <path d="M5.33398 15.8667C5.33398 15.5484 5.43934 15.2432 5.62688 15.0181C5.81441 14.7931 6.06877 14.6667 6.33398 14.6667H25.6673C25.9325 14.6667 26.1869 14.7931 26.3744 15.0181C26.562 15.2432 26.6673 15.5484 26.6673 15.8667C26.6673 16.1849 26.562 16.4902 26.3744 16.7152C26.1869 16.9402 25.9325 17.0667 25.6673 17.0667H6.33398C6.06877 17.0667 5.81441 16.9402 5.62688 16.7152C5.43934 16.4902 5.33398 16.1849 5.33398 15.8667Z" fill="#373737"/>
    <path d="M6.33398 22.6667C6.06877 22.6667 5.81441 22.7931 5.62688 23.0181C5.43934 23.2432 5.33398 23.5484 5.33398 23.8667C5.33398 24.1849 5.43934 24.4902 5.62688 24.7152C5.81441 24.9402 6.06877 25.0667 6.33398 25.0667H25.6673C25.9325 25.0667 26.1869 24.9402 26.3744 24.7152C26.562 24.4902 26.6673 24.1849 26.6673 23.8667C26.6673 23.5484 26.562 23.2432 26.3744 23.0181C26.1869 22.7931 25.9325 22.6667 25.6673 22.6667H6.33398Z" fill="#373737"/>
    </svg>