<svg width="28" height="29" viewBox="0 0 28 29" fill="none" xmlns="http://www.w3.org/2000/svg">
    <g id="fluent:line-horizontal-3-20-filled">
    <g id="Group">
    <path id="Vector" d="M4.66797 7.12925C4.66797 6.84083 4.76016 6.56422 4.92425 6.36027C5.08834 6.15632 5.3109 6.04175 5.54297 6.04175H22.4596C22.6917 6.04175 22.9143 6.15632 23.0784 6.36027C23.2424 6.56422 23.3346 6.84083 23.3346 7.12925C23.3346 7.41767 23.2424 7.69428 23.0784 7.89823C22.9143 8.10217 22.6917 8.21675 22.4596 8.21675H5.54297C5.3109 8.21675 5.08834 8.10217 4.92425 7.89823C4.76016 7.69428 4.66797 7.41767 4.66797 7.12925Z" fill="#242424"/>
    <path id="Vector_2" d="M4.66797 14.3792C4.66797 14.0908 4.76016 13.8142 4.92425 13.6103C5.08834 13.4063 5.3109 13.2917 5.54297 13.2917H22.4596C22.6917 13.2917 22.9143 13.4063 23.0784 13.6103C23.2424 13.8142 23.3346 14.0908 23.3346 14.3792C23.3346 14.6677 23.2424 14.9443 23.0784 15.1482C22.9143 15.3522 22.6917 15.4667 22.4596 15.4667H5.54297C5.3109 15.4667 5.08834 15.3522 4.92425 15.1482C4.76016 14.9443 4.66797 14.6677 4.66797 14.3792Z" fill="#242424"/>
    <path id="Vector_3" d="M5.54297 20.5417C5.3109 20.5417 5.08834 20.6563 4.92425 20.8603C4.76016 21.0642 4.66797 21.3408 4.66797 21.6292C4.66797 21.9177 4.76016 22.1943 4.92425 22.3982C5.08834 22.6022 5.3109 22.7167 5.54297 22.7167H22.4596C22.6917 22.7167 22.9143 22.6022 23.0784 22.3982C23.2424 22.1943 23.3346 21.9177 23.3346 21.6292C23.3346 21.3408 23.2424 21.0642 23.0784 20.8603C22.9143 20.6563 22.6917 20.5417 22.4596 20.5417H5.54297Z" fill="#242424"/>
    </g>
    </g>
    </svg>
    