<svg width="20" height="17" viewBox="0 0 20 17" fill="none" xmlns="http://www.w3.org/2000/svg">
    <g id="Group">
    <path id="Vector" d="M0.667969 1.2501C0.667969 0.961675 0.760156 0.685065 0.92425 0.481119C1.08834 0.277173 1.3109 0.162598 1.54297 0.162598H18.4596C18.6917 0.162598 18.9143 0.277173 19.0784 0.481119C19.2424 0.685065 19.3346 0.961675 19.3346 1.2501C19.3346 1.53852 19.2424 1.81513 19.0784 2.01908C18.9143 2.22302 18.6917 2.3376 18.4596 2.3376H1.54297C1.3109 2.3376 1.08834 2.22302 0.92425 2.01908C0.760156 1.81513 0.667969 1.53852 0.667969 1.2501Z" fill="white"/>
    <path id="Vector_2" d="M0.667969 8.5001C0.667969 8.21167 0.760156 7.93507 0.92425 7.73112C1.08834 7.52717 1.3109 7.4126 1.54297 7.4126H18.4596C18.6917 7.4126 18.9143 7.52717 19.0784 7.73112C19.2424 7.93507 19.3346 8.21167 19.3346 8.5001C19.3346 8.78852 19.2424 9.06513 19.0784 9.26908C18.9143 9.47302 18.6917 9.5876 18.4596 9.5876H1.54297C1.3109 9.5876 1.08834 9.47302 0.92425 9.26908C0.760156 9.06513 0.667969 8.78852 0.667969 8.5001Z" fill="white"/>
    <path id="Vector_3" d="M1.54297 14.6626C1.3109 14.6626 1.08834 14.7772 0.92425 14.9811C0.760156 15.1851 0.667969 15.4617 0.667969 15.7501C0.667969 16.0385 0.760156 16.3151 0.92425 16.5191C1.08834 16.723 1.3109 16.8376 1.54297 16.8376H18.4596C18.6917 16.8376 18.9143 16.723 19.0784 16.5191C19.2424 16.3151 19.3346 16.0385 19.3346 15.7501C19.3346 15.4617 19.2424 15.1851 19.0784 14.9811C18.9143 14.7772 18.6917 14.6626 18.4596 14.6626H1.54297Z" fill="white"/>
    </g>
    </svg>
    