<svg width="41" height="29" viewBox="0 0 41 29" fill="none" xmlns="http://www.w3.org/2000/svg">
<rect width="41" height="29" rx="8.83152" fill="#003366"/>
<path d="M11.168 7.2501C11.168 6.96167 11.2602 6.68506 11.4243 6.48112C11.5883 6.27717 11.8109 6.1626 12.043 6.1626H28.9596C29.1917 6.1626 29.4143 6.27717 29.5784 6.48112C29.7424 6.68506 29.8346 6.96167 29.8346 7.2501C29.8346 7.53852 29.7424 7.81513 29.5784 8.01908C29.4143 8.22302 29.1917 8.3376 28.9596 8.3376H12.043C11.8109 8.3376 11.5883 8.22302 11.4243 8.01908C11.2602 7.81513 11.168 7.53852 11.168 7.2501Z" fill="white"/>
<path d="M11.168 14.5001C11.168 14.2117 11.2602 13.9351 11.4243 13.7311C11.5883 13.5272 11.8109 13.4126 12.043 13.4126H28.9596C29.1917 13.4126 29.4143 13.5272 29.5784 13.7311C29.7424 13.9351 29.8346 14.2117 29.8346 14.5001C29.8346 14.7885 29.7424 15.0651 29.5784 15.2691C29.4143 15.473 29.1917 15.5876 28.9596 15.5876H12.043C11.8109 15.5876 11.5883 15.473 11.4243 15.2691C11.2602 15.0651 11.168 14.7885 11.168 14.5001Z" fill="white"/>
<path d="M12.043 20.6626C11.8109 20.6626 11.5883 20.7772 11.4243 20.9811C11.2602 21.1851 11.168 21.4617 11.168 21.7501C11.168 22.0385 11.2602 22.3151 11.4243 22.5191C11.5883 22.723 11.8109 22.8376 12.043 22.8376H28.9596C29.1917 22.8376 29.4143 22.723 29.5784 22.5191C29.7424 22.3151 29.8346 22.0385 29.8346 21.7501C29.8346 21.4617 29.7424 21.1851 29.5784 20.9811C29.4143 20.7772 29.1917 20.6626 28.9596 20.6626H12.043Z" fill="white"/>
</svg>
