<svg width="20" height="21" viewBox="0 0 20 21" fill="none" xmlns="http://www.w3.org/2000/svg">
<path d="M6.45898 11.9585C6.45898 11.6133 6.73881 11.3335 7.08398 11.3335H10.834C11.1792 11.3335 11.459 11.6133 11.459 11.9585C11.459 12.3037 11.1792 12.5835 10.834 12.5835H7.08398C6.73881 12.5835 6.45898 12.3037 6.45898 11.9585Z" fill="#242424"/>
<path d="M6.45898 8.8335C6.45898 8.48832 6.73881 8.2085 7.08398 8.2085H13.334C13.6792 8.2085 13.959 8.48832 13.959 8.8335C13.959 9.17867 13.6792 9.4585 13.334 9.4585H7.08398C6.73881 9.4585 6.45898 9.17867 6.45898 8.8335Z" fill="#242424"/>
<path d="M6.45898 15.0835C6.45898 14.7383 6.73881 14.4585 7.08398 14.4585H8.95898C9.30416 14.4585 9.58398 14.7383 9.58398 15.0835C9.58398 15.4287 9.30416 15.7085 8.95898 15.7085H7.08398C6.73881 15.7085 6.45898 15.4287 6.45898 15.0835Z" fill="#242424"/>
<path d="M15.834 3.2085H13.959V2.5835C13.959 2.25198 13.8273 1.93403 13.5929 1.69961C13.3584 1.46519 13.0405 1.3335 12.709 1.3335H7.70898C7.37746 1.3335 7.05952 1.46519 6.8251 1.69961C6.59068 1.93403 6.45898 2.25198 6.45898 2.5835V3.2085H4.58398C4.25246 3.2085 3.93452 3.34019 3.7001 3.57461C3.46568 3.80903 3.33398 4.12698 3.33398 4.4585V17.5835C3.33398 17.915 3.46568 18.233 3.7001 18.4674C3.93452 18.7018 4.25246 18.8335 4.58398 18.8335H15.834C16.1655 18.8335 16.4834 18.7018 16.7179 18.4674C16.9523 18.233 17.084 17.915 17.084 17.5835V4.4585C17.084 4.12698 16.9523 3.80903 16.7179 3.57461C16.4834 3.34019 16.1655 3.2085 15.834 3.2085ZM7.70898 2.5835H12.709V5.0835H7.70898V2.5835ZM15.834 17.5835H4.58398V4.4585H6.45898V6.3335H13.959V4.4585H15.834V17.5835Z" fill="#242424"/>
</svg>
