<svg width="24" height="24" viewBox="0 0 24 24" fill="none" xmlns="http://www.w3.org/2000/svg">
<g id="Note">
<g id="Group">
<g id="Mask group">
<mask id="mask0_2262_37607" style="mask-type:luminance" maskUnits="userSpaceOnUse" x="2" y="0" width="22" height="22">
<g id="Group_2">
<path id="Vector" d="M2.97031 21.0301V0.970068H23.0303V21.0301H2.97031Z" fill="white" stroke="black" stroke-width="1.3"/>
</g>
</mask>
<g mask="url(#mask0_2262_37607)">
</g>
<mask id="mask1_2262_37607" style="mask-type:luminance" maskUnits="userSpaceOnUse" x="2" y="0" width="22" height="22">
<g id="b">
<path id="Vector_2" d="M23.0303 21.0302V0.970238H2.97031V21.0302H23.0303Z" fill="white" stroke="white" stroke-width="1.3"/>
</g>
</mask>
<g mask="url(#mask1_2262_37607)">
<g id="Group_3">
<path id="Vector_3" d="M16.8037 4.36264H21.6077V16.2569H16.6532V21.0542H3.44922V4.36264H12.6865" stroke="#242424" stroke-width="1.3" stroke-miterlimit="22.926" stroke-linecap="round" stroke-linejoin="round"/>
<path id="Vector_4" d="M21.5895 16.2569L16.8516 20.8757" stroke="#242424" stroke-width="1.3" stroke-miterlimit="22.926" stroke-linecap="round" stroke-linejoin="round"/>
<path id="Vector_5" d="M14.6704 5.98828C15.7841 5.98828 16.6925 5.07996 16.6925 3.96627C16.6925 2.85258 15.7841 1.94426 14.6704 1.94426C13.5568 1.94426 12.6484 2.85258 12.6484 3.96627C12.6484 5.07996 13.5568 5.98828 14.6704 5.98828Z" stroke="#242424" stroke-width="1.3" stroke-miterlimit="22.926" stroke-linecap="round" stroke-linejoin="round"/>
<path id="Vector_6" d="M13.2407 5.39597L11.3203 7.31641" stroke="#242424" stroke-width="1.3" stroke-miterlimit="22.926" stroke-linecap="round" stroke-linejoin="round"/>
<path id="Vector_7" d="M5.82812 10.3494H19.2289" stroke="#242424" stroke-width="1.3" stroke-miterlimit="22.926" stroke-linecap="round" stroke-linejoin="round"/>
<path id="Vector_8" d="M5.82812 12.7283H16.9095" stroke="#242424" stroke-width="1.3" stroke-miterlimit="22.926" stroke-linecap="round" stroke-linejoin="round"/>
<path id="Vector_9" d="M5.82812 15.1072H11.6948" stroke="#242424" stroke-width="1.3" stroke-miterlimit="22.926" stroke-linecap="round" stroke-linejoin="round"/>
</g>
</g>
</g>
</g>
</g>
</svg>
