<svg width="16" height="19" viewBox="0 0 16 19" fill="none" xmlns="http://www.w3.org/2000/svg">
    <g clip-path="url(#clip0_894_17184)">
    <path fill-rule="evenodd" clip-rule="evenodd" d="M1.07403 15.1147C1.15086 15.1579 1.23753 15.1807 1.3257 15.1807H14.6743C14.7625 15.1807 14.8491 15.1579 14.926 15.1147C15.0028 15.0714 15.0672 15.0091 15.113 14.9337C15.1587 14.8584 15.1843 14.7725 15.1872 14.6844C15.1901 14.5962 15.1703 14.5089 15.1297 14.4306L8.45539 1.59542C8.41202 1.51212 8.34663 1.4423 8.26634 1.39358C8.18604 1.34486 8.09392 1.31909 8 1.31909C7.90608 1.31909 7.81396 1.34486 7.73366 1.39358C7.65337 1.4423 7.58798 1.51212 7.54461 1.59542L0.87031 14.4306C0.829664 14.5089 0.809852 14.5962 0.812784 14.6844C0.815716 14.7725 0.841292 14.8584 0.887048 14.9337C0.932805 15.0091 0.9972 15.0714 1.07403 15.1147ZM13.8277 14.1523L13.8272 14.1539H2.17282L2.1718 14.1523L7.99897 2.9462H8.00103L13.8277 14.1523ZM7.57215 11.7166C7.69879 11.632 7.84769 11.5869 8 11.5869C8.20425 11.5869 8.40013 11.668 8.54455 11.8124C8.68898 11.9568 8.77011 12.1527 8.77011 12.357C8.77011 12.5093 8.72495 12.6582 8.64033 12.7848C8.5557 12.9115 8.43543 13.0102 8.29471 13.0685C8.15399 13.1267 7.99915 13.142 7.84976 13.1123C7.70037 13.0826 7.56315 13.0092 7.45545 12.9015C7.34775 12.7938 7.2744 12.6566 7.24469 12.5072C7.21497 12.3578 7.23022 12.203 7.28851 12.0623C7.3468 11.9215 7.44551 11.8013 7.57215 11.7166ZM8 5.93938C7.71645 5.93938 7.48659 6.16924 7.48659 6.45278V10.0466C7.48659 10.3302 7.71645 10.56 8 10.56C8.28355 10.56 8.51341 10.3302 8.51341 10.0466V6.45278C8.51341 6.16924 8.28355 5.93938 8 5.93938Z" fill="#666666"/>
    </g>
    <defs>
    <clipPath id="clip0_894_17184">
    <rect width="14.375" height="17.8616" fill="white" transform="translate(0.8125 0.319092)"/>
    </clipPath>
    </defs>
    </svg>
    