<svg width="24" height="24" viewBox="0 0 24 24" fill="none" xmlns="http://www.w3.org/2000/svg">
<g id="Patio Furniture">
<g id="Group">
<path id="Vector" d="M8.25182 16.8862C8.25182 15.8987 7.43932 15.0862 6.45182 15.0862H3.63932C3.42682 13.5362 3.08932 12.0112 2.60182 10.5112C2.54761 10.3557 2.43536 10.2273 2.28857 10.1527C2.14178 10.0781 1.97183 10.0633 1.81432 10.1112C1.65886 10.1654 1.5304 10.2776 1.45584 10.4244C1.38128 10.5712 1.3664 10.7412 1.41432 10.8987C2.22682 13.3237 2.62682 15.8487 2.62682 18.3987V21.9487C2.62682 22.2987 2.90182 22.5737 3.25182 22.5737C3.60182 22.5737 3.87682 22.2987 3.87682 21.9487V19.4487H7.15182C7.26432 20.3362 7.42682 21.2237 7.63932 22.0987C7.72682 22.4362 8.06432 22.6362 8.40182 22.5487C8.73932 22.4612 8.93932 22.1237 8.85182 21.7862C8.45182 20.1737 8.23932 18.5237 8.23932 16.8612L8.25182 16.8862ZM3.83932 17.5862C3.82682 17.1737 3.81432 16.7487 3.78932 16.3362H6.45182C6.75182 16.3362 7.00182 16.5862 7.00182 16.8862C7.00182 17.1237 7.01432 17.3487 7.02682 17.5862H3.85182H3.83932ZM22.2018 10.1112C22.1239 10.0846 22.0414 10.0739 21.9593 10.0797C21.8772 10.0855 21.797 10.1077 21.7236 10.1449C21.6502 10.1822 21.585 10.2338 21.5319 10.2967C21.4788 10.3597 21.4388 10.4326 21.4143 10.5112C20.9199 11.9986 20.5724 13.531 20.3768 15.0862H17.5643C16.5768 15.0862 15.7643 15.8987 15.7643 16.8862C15.7643 18.5487 15.5643 20.1987 15.1518 21.8112C15.1149 21.9704 15.1417 22.1377 15.2265 22.2774C15.3113 22.4172 15.4473 22.5182 15.6056 22.559C15.7639 22.5998 15.9318 22.5771 16.0736 22.4957C16.2153 22.4144 16.3197 22.2809 16.3643 22.1237C16.5768 21.2487 16.7393 20.3612 16.8518 19.4737H20.1268V21.9737C20.1268 22.3237 20.4018 22.5987 20.7518 22.5987C21.1018 22.5987 21.3768 22.3237 21.3768 21.9737V18.4237C21.3768 15.8737 21.7893 13.3487 22.5893 10.9237C22.6159 10.8458 22.6266 10.7633 22.6208 10.6812C22.615 10.599 22.5928 10.5189 22.5556 10.4455C22.5183 10.3721 22.4667 10.3069 22.4037 10.2538C22.3408 10.2006 22.2679 10.1607 22.1893 10.1362L22.2018 10.1112ZM20.1643 17.5737H16.9893C16.9893 17.3362 17.0143 17.1112 17.0143 16.8737C17.0143 16.5737 17.2643 16.3237 17.5643 16.3237H20.2268C20.1893 16.7362 20.1893 17.1612 20.1768 17.5737H20.1643Z" fill="black"/>
<path id="Vector_2" d="M12.6251 17.4361V13.8361H17.0001C17.3501 13.8361 17.6251 13.5611 17.6251 13.2111C17.6251 12.8611 17.3501 12.5861 17.0001 12.5861H12.6251V6.33613H22.0001C22.7001 6.33613 22.8626 5.36113 22.2251 5.12363L12.6376 1.52363C12.2251 1.37363 11.7751 1.37363 11.3751 1.52363L1.78755 5.12363C1.13755 5.36113 1.31255 6.33613 2.01255 6.33613H11.3876V12.5861H7.01255C6.66255 12.5861 6.38755 12.8611 6.38755 13.2111C6.38755 13.5611 6.66255 13.8361 7.01255 13.8361H11.3876V17.4361C11.3876 18.9736 10.7876 20.4236 9.70005 21.5236C9.45005 21.7736 9.45005 22.1611 9.70005 22.4111C9.95005 22.6611 10.3376 22.6611 10.5876 22.4111C11.2001 21.7986 11.6751 21.0736 12.0251 20.3111C12.3751 21.0861 12.8376 21.7986 13.4626 22.4111C13.7126 22.6611 14.1001 22.6611 14.3501 22.4111C14.6001 22.1611 14.6001 21.7736 14.3501 21.5236C13.8124 20.9878 13.3864 20.3506 13.0967 19.649C12.807 18.9474 12.6595 18.1952 12.6626 17.4361H12.6251Z" fill="black"/>
</g>
</g>
</svg>
