<svg width="32" height="43" viewBox="0 0 32 43" fill="none" xmlns="http://www.w3.org/2000/svg">
<g id="file-pdf 1" clip-path="url(#clip0_3383_7069)">
<path id="Vector" d="M30.825 8.15959L23.8333 1.16792C23.0833 0.41792 22.0667 -0.00708008 21.0083 -0.00708008H4C1.79167 0.00125326 0 1.79292 0 4.00125V38.6679C0 40.8763 1.79167 42.6679 4 42.6679H28C30.2083 42.6679 32 40.8763 32 38.6679V10.9929C32 9.93459 31.575 8.90959 30.825 8.15959ZM27.675 10.6679H21.3333V4.32625L27.675 10.6679ZM4 38.6679V4.00125H17.3333V12.6679C17.3333 13.7763 18.225 14.6679 19.3333 14.6679H28V38.6679H4ZM24.85 26.6929C23.8333 25.6929 20.9333 25.9679 19.4833 26.1513C18.05 25.2763 17.0917 24.0679 16.4167 22.2929C16.7417 20.9513 17.2583 18.9096 16.8667 17.6263C16.5167 15.4429 13.7167 15.6596 13.3167 17.1346C12.95 18.4763 13.2833 20.3429 13.9 22.7263C13.0667 24.7179 11.825 27.3929 10.95 28.9263C9.28333 29.7846 7.03333 31.1096 6.7 32.7763C6.425 34.0929 8.86667 37.3763 13.0417 30.1763C14.9083 29.5596 16.9417 28.8013 18.7417 28.5013C20.3167 29.3513 22.1583 29.9179 23.3917 29.9179C25.5167 29.9179 25.725 27.5679 24.85 26.6929ZM8.34167 33.1763C8.76667 32.0346 10.3833 30.7179 10.875 30.2596C9.29167 32.7846 8.34167 33.2346 8.34167 33.1763ZM15.1417 17.2929C15.7583 17.2929 15.7 19.9679 15.2917 20.6929C14.925 19.5346 14.9333 17.2929 15.1417 17.2929ZM13.1083 28.6763C13.9167 27.2679 14.6083 25.5929 15.1667 24.1179C15.8583 25.3763 16.7417 26.3846 17.675 27.0763C15.9417 27.4346 14.4333 28.1679 13.1083 28.6763ZM24.075 28.2596C24.075 28.2596 23.6583 28.7596 20.9667 27.6096C23.8917 27.3929 24.375 28.0596 24.075 28.2596Z" fill="#242424"/>
</g>
<defs>
<clipPath id="clip0_3383_7069">
<rect width="32" height="42.6667" fill="white"/>
</clipPath>
</defs>
</svg>
