<svg width="40" height="41" viewBox="0 0 40 41" fill="none" xmlns="http://www.w3.org/2000/svg">
<g id="Personnel">
<g id="Icon">
<g id="Group">
<g id="Group_2">
<path id="Vector" d="M27.1843 8.37354C27.1843 8.36564 27.1849 8.35786 27.1849 8.34991C27.1849 7.26335 26.4547 6.35119 25.468 6.0965V5.74745C25.468 5.6108 25.3596 5.5 25.2257 5.5H24.5664C24.4326 5.5 24.3241 5.61074 24.3241 5.74745V6.10332C23.3501 6.36675 22.6321 7.27268 22.6321 8.35003C22.6321 8.35792 22.6326 8.3657 22.6327 8.37366C22.178 8.51563 21.9023 8.70039 21.9023 8.90261C21.9022 9.15048 22.3158 9.77671 22.9668 10.2861C23.2476 11.105 24.0106 11.6924 24.9084 11.6924C25.8063 11.6924 26.5693 11.1049 26.8501 10.2861C27.501 9.77671 27.9147 9.15042 27.9147 8.90255C27.9147 8.70027 27.639 8.51551 27.1843 8.37354Z" fill="#1A5A96"/>
</g>
</g>
<g id="Group_3">
<g id="Group_4">
<path id="Vector_2" d="M25.0138 26.2504L24.955 25.7661C24.0319 25.8576 23.7568 25.716 22.4666 25.818L22.5168 26.2316L20.3866 31.5108C20.1262 32.1563 20.4275 32.8951 21.0596 33.1611C21.692 33.427 22.4155 33.1191 22.6758 32.4739L24.9299 26.8874C25.0111 26.686 25.0401 26.4666 25.0138 26.2504Z" fill="#1A5A96"/>
</g>
</g>
<g id="Group_5">
<g id="Group_6">
<path id="Vector_3" d="M28.4182 25.6686L28.2547 24.3901C27.5536 24.9676 26.7676 25.3707 25.9117 25.5928L25.9359 25.7819L24.7029 31.7271C24.5613 32.41 24.9886 33.0809 25.6574 33.2255C26.3264 33.3701 26.9834 32.9336 27.1249 32.2508L28.4018 26.0943C28.4308 25.9543 28.4363 25.8104 28.4182 25.6686Z" fill="#1A5A96"/>
</g>
</g>
<g id="Group_7">
<g id="Group_8">
<path id="Vector_4" d="M34.9768 18.0701C34.8824 17.7297 34.536 17.5319 34.2023 17.6285L31.6406 18.3694C31.8193 18.7628 31.8704 19.216 31.765 19.6647L32.524 19.4452L32.3478 20.1096C32.2573 20.451 32.455 20.8027 32.7894 20.8952C33.1234 20.9877 33.4681 20.786 33.5588 20.4444L33.9317 19.0382L34.5442 18.8611C34.8775 18.7644 35.0711 18.4104 34.9768 18.0701Z" fill="#1A5A96"/>
</g>
</g>
<g id="Group_9">
<g id="Group_10">
<path id="Vector_5" d="M29.5681 21.1697L28.2676 20.957C27.6162 22.1671 26.336 23.6975 24.0527 23.5908C22.0547 23.4974 20.2031 23.8669 18.7617 24.3068C18.9709 24.7263 18.9799 25.2181 18.7978 25.6414C20.1737 25.1916 22.0183 24.7786 23.9957 24.8704C26.0272 24.9654 27.6839 24.0587 28.8513 22.413C29.1553 21.9844 29.3919 21.5535 29.5719 21.1703C29.5706 21.17 29.5694 21.1699 29.5681 21.1697Z" fill="#1A5A96"/>
</g>
</g>
<g id="Group_11">
<g id="Group_12">
<path id="Vector_6" d="M30.0321 18.1888C29.2497 18.0608 27.347 17.7496 26.5835 17.6248L26.2578 16.895L24.4062 17.7188L24.9706 18.9829C25.1103 19.2958 25.3944 19.5184 25.7296 19.5732L29.7126 20.2246C30.2609 20.3143 30.7807 19.9343 30.8692 19.3697C30.9575 18.8076 30.5827 18.2789 30.0321 18.1888Z" fill="#1A5A96"/>
</g>
</g>
<g id="Group_13">
<g id="Group_14">
<path id="Vector_7" d="M16.5944 10.6246C16.5945 10.6167 16.595 10.6089 16.595 10.6009C16.595 9.51444 15.8648 8.60223 14.8782 8.34753V7.99843C14.8782 7.86178 14.7697 7.75098 14.6358 7.75098H13.9766C13.8428 7.75098 13.7342 7.86172 13.7342 7.99843V8.35429C12.7603 8.61772 12.0423 9.52366 12.0423 10.6009C12.0423 10.6088 12.0428 10.6167 12.0429 10.6246C11.5881 10.7666 11.3125 10.9513 11.3125 11.1535C11.3124 11.4015 11.726 12.0277 12.377 12.5371C12.6578 13.356 13.4208 13.9434 14.3186 13.9434C15.2164 13.9434 15.9794 13.3559 16.2602 12.5371C16.9111 12.0277 17.3248 11.4014 17.3248 11.1535C17.3248 10.9512 17.0491 10.7666 16.5944 10.6246Z" fill="#1A5A96"/>
</g>
</g>
<g id="Group_15">
<g id="Group_16">
<path id="Vector_8" d="M17.9209 34.0605C16.9525 26.9779 17.1335 28.3288 16.8977 26.485C16.6573 26.4002 16.4344 26.2533 16.2539 26.045C16.1172 25.8874 15.9442 25.7223 15.7092 25.5255C14.7875 24.7539 13.6102 24.2047 12.4427 24.4085C12.0494 24.4772 11.6386 24.6588 11.2097 24.8764L10.8582 28.6737L7.46923 31.3927C6.93163 31.824 6.83829 32.6186 7.26069 33.1676C7.68309 33.7165 8.46128 33.8118 8.99888 33.3805L12.8055 30.3265C13.0721 30.1126 13.2412 29.7963 13.2731 29.4516L13.6571 25.303H14.2497L14.6256 28.2424C14.6261 28.2462 14.6266 28.2498 14.6271 28.2536L15.4688 34.4101C15.5632 35.1008 16.1881 35.5837 16.866 35.4872C17.5432 35.3906 18.0154 34.7519 17.9209 34.0605Z" fill="#1A5A96"/>
</g>
</g>
<g id="Group_17">
<g id="Group_18">
<path id="Vector_9" d="M17.8677 24.5869C16.5145 23.0255 14.2473 21.8615 12.0803 22.2398C11.7973 22.2893 11.5277 22.3651 11.2676 22.4576C11.1754 23.6301 11.1819 23.6706 11.1211 23.9006C11.5066 23.7193 11.8909 23.5724 12.2917 23.5024C14.0349 23.1981 15.5388 24.1939 16.28 24.8145C16.553 25.0431 16.7589 25.2405 16.928 25.4357C17.1575 25.7006 17.5539 25.7253 17.8135 25.491C18.073 25.2566 18.0973 24.8519 17.8677 24.5869Z" fill="#1A5A96"/>
</g>
</g>
<g id="Group_19">
<g id="Group_20">
<path id="Vector_10" d="M7.44663 24.1313C6.82741 24.3235 6.18288 24.4818 5.51772 24.6024C5.17665 24.6642 4.94918 24.9967 5.00977 25.3449C5.07047 25.694 5.39696 25.9254 5.73698 25.8636C6.66177 25.6959 7.55216 25.4612 8.39456 25.1645C7.96964 24.9529 7.62915 24.5874 7.44663 24.1313Z" fill="#1A5A96"/>
</g>
</g>
<g id="Group_21">
<g id="Group_22">
<path id="Vector_11" d="M9.98038 17.8618L9.07727 18.3733C8.79637 18.5324 8.58871 18.8344 8.56053 19.1924C8.52139 19.6906 8.27705 22.7977 8.23768 23.298C8.19303 23.8644 8.60635 24.3623 9.16323 24.408C9.70967 24.4527 10.2052 24.0365 10.2504 23.463L10.53 19.9083L10.7942 19.7587L9.98038 17.8618Z" fill="#1A5A96"/>
</g>
</g>
<g id="Group_23">
<g id="Group_24">
<path id="Vector_12" d="M25.4395 20.4872C24.6142 20.2859 24.1387 19.5891 24.0571 19.1716C23.6483 17.1362 23.4749 16.4014 23.4749 16.4014C23.4749 16.4014 23.8086 16.2529 25.6146 15.4493L25.0507 14.1862L27.1542 16.7529V14.7886C27.1542 13.6201 26.2265 12.6729 25.0822 12.6729H24.0077C22.8633 12.6729 21.9356 13.6201 21.9356 14.7886V16.6216C21.9231 16.5734 21.9086 16.5255 21.8894 16.4782C21.6585 15.9102 21.0206 15.6409 20.4642 15.8766L17.2696 17.2302L16.5513 16.7877C16.4307 15.7365 15.5559 14.9206 14.494 14.9206H13.4196C12.38 14.9206 11.5194 15.7024 11.3705 16.7216L12.6463 16.3529C12.6463 16.3538 12.6463 16.3547 12.6463 16.3555L11.3512 17.089L12.1652 18.9859L13.771 18.0765L11.4359 20.3498L11.3477 21.4716C11.5361 21.4174 11.7302 21.371 11.9311 21.3359C13.4672 21.0677 15.0764 21.421 16.5661 22.3346V19.3975L16.6151 19.4278C16.7875 19.534 16.9825 19.5878 17.1785 19.5878C17.32 19.5878 17.4621 19.5597 17.5964 19.5028L21.3003 17.9333C21.6272 17.7948 21.8519 17.5124 21.9357 17.188C21.9357 17.2745 21.9357 22.6018 21.9357 22.7324C22.7009 22.6568 23.4239 22.6413 24.0935 22.6725C25.5342 22.7398 26.5697 22.0306 27.3174 20.8008C25.4288 20.4919 25.5519 20.5146 25.4395 20.4872Z" fill="#1A5A96"/>
</g>
</g>
</g>
</g>
</svg>
