<svg width="24" height="24" viewBox="0 0 24 24" fill="none" xmlns="http://www.w3.org/2000/svg">
<g id="Pets">
<g id="Group">
<g id="Clip path group">
<g id="Group_2">
<path id="Vector" d="M14.181 5.26157C14.181 6.66516 13.2328 7.80298 12.0632 7.80298C10.8935 7.80298 9.94531 6.66516 9.94531 5.26157C9.94531 3.85798 10.8935 2.72016 12.0632 2.72016C13.2328 2.72016 14.181 3.85798 14.181 5.26157Z" stroke="#242424" stroke-width="1.3" stroke-miterlimit="10" stroke-linecap="round" stroke-linejoin="round"/>
<path id="Vector_2" d="M20.763 8.30349C20.763 9.68579 19.8148 10.8064 18.6452 10.8064C17.4756 10.8064 16.5273 9.68579 16.5273 8.30349C16.5273 6.9212 17.4756 5.80059 18.6452 5.80059C19.8148 5.80059 20.763 6.9212 20.763 8.30349Z" stroke="#242424" stroke-width="1.3" stroke-miterlimit="10" stroke-linecap="round" stroke-linejoin="round"/>
<path id="Vector_3" d="M3.35938 8.30349C3.35938 9.68579 4.30759 10.8064 5.47722 10.8064C6.64684 10.8064 7.59506 9.68579 7.59506 8.30349C7.59506 6.9212 6.64684 5.80059 5.47722 5.80059C4.30759 5.80059 3.35938 6.9212 3.35938 8.30349Z" stroke="#242424" stroke-width="1.3" stroke-miterlimit="10" stroke-linecap="round" stroke-linejoin="round"/>
<path id="Vector_4" d="M16.6836 14.3489H16.2986C16.2986 12.0096 14.4022 10.1132 12.0629 10.1132C9.72358 10.1132 7.82718 12.0096 7.82718 14.3489H7.44212C5.52813 14.3489 3.97656 15.9005 3.97656 17.8145C3.97656 19.7284 5.52813 21.28 7.44212 21.28H16.6836C18.5976 21.28 20.1492 19.7284 20.1492 17.8145C20.1492 15.9005 18.5976 14.3489 16.6836 14.3489Z" stroke="#242424" stroke-width="1.3" stroke-miterlimit="10" stroke-linecap="round" stroke-linejoin="round"/>
</g>
</g>
</g>
</g>
</svg>
