<svg width="22" height="22" viewBox="0 0 22 22" fill="none" xmlns="http://www.w3.org/2000/svg">
<g id="ph:link">
<path id="Vector" d="M20.1875 7.73773C20.1546 8.88014 19.6848 9.96643 18.875 10.7729L16.0244 13.6251C15.6092 14.0426 15.1154 14.3735 14.5714 14.5988C14.0275 14.8241 13.4443 14.9392 12.8555 14.9376H12.8514C12.2526 14.9372 11.66 14.8168 11.1085 14.5835C10.557 14.3501 10.0579 14.0087 9.64061 13.5792C9.22332 13.1498 8.89633 12.641 8.67895 12.0831C8.46157 11.5252 8.35821 10.9293 8.37498 10.3307C8.37988 10.1567 8.45371 9.99171 8.58024 9.8721C8.70677 9.75249 8.87564 9.68805 9.04969 9.69294C9.22373 9.69784 9.38871 9.77167 9.50832 9.8982C9.62793 10.0247 9.69238 10.1936 9.68748 10.3676C9.67553 10.7909 9.74853 11.2122 9.90218 11.6067C10.0558 12.0012 10.287 12.361 10.582 12.6646C10.8771 12.9683 11.23 13.2098 11.6199 13.3747C12.0098 13.5397 12.4289 13.6248 12.8522 13.6251C13.2684 13.6261 13.6807 13.5447 14.0652 13.3854C14.4498 13.2262 14.7989 12.9923 15.0925 12.6973L17.9431 9.84675C18.5312 9.25121 18.8599 8.44717 18.8573 7.61017C18.8546 6.77318 18.521 5.97121 17.9291 5.37936C17.3373 4.78751 16.5353 4.45386 15.6983 4.45124C14.8613 4.44862 14.0573 4.77725 13.4617 5.36538L12.5594 6.26773C12.4353 6.3856 12.2701 6.45035 12.099 6.44815C11.9279 6.44596 11.7644 6.37701 11.6433 6.256C11.5223 6.13498 11.4534 5.97148 11.4512 5.80036C11.449 5.62924 11.5137 5.46402 11.6316 5.33995L12.534 4.43761C12.9503 4.02116 13.4445 3.69081 13.9885 3.46542C14.5325 3.24003 15.1156 3.12402 15.7045 3.12402C16.2933 3.12402 16.8764 3.24003 17.4204 3.46542C17.9644 3.69081 18.4587 4.02116 18.875 4.43761C19.3062 4.86988 19.6449 5.38537 19.8705 5.95272C20.0962 6.52006 20.204 7.12738 20.1875 7.73773ZM9.44139 15.73L8.53904 16.6324C8.24476 16.9287 7.8945 17.1635 7.50863 17.3232C7.12276 17.4829 6.70899 17.5643 6.29139 17.5626C5.66492 17.5621 5.05265 17.3759 4.53195 17.0276C4.01125 16.6793 3.60548 16.1844 3.36592 15.6055C3.12635 15.0267 3.06374 14.3898 3.18599 13.7754C3.30823 13.1609 3.60986 12.5965 4.05275 12.1535L6.89842 9.30288C7.34663 8.85231 7.91996 8.54692 8.54396 8.42637C9.16796 8.30582 9.81378 8.37568 10.3976 8.62689C10.9814 8.87809 11.4761 9.29903 11.8176 9.83502C12.1591 10.371 12.3315 10.9973 12.3125 11.6326C12.3076 11.8066 12.372 11.9755 12.4916 12.102C12.6112 12.2285 12.7762 12.3024 12.9503 12.3073C13.1243 12.3122 13.2932 12.2477 13.4197 12.1281C13.5462 12.0085 13.6201 11.8435 13.625 11.6695C13.6407 11.0601 13.5325 10.4539 13.3069 9.88756C13.0813 9.32127 12.743 8.80671 12.3125 8.37511C11.4718 7.5348 10.3318 7.06275 9.1432 7.06275C7.95457 7.06275 6.8146 7.5348 5.97393 8.37511L3.12498 11.2257C2.49845 11.852 2.07163 12.6499 1.89846 13.5187C1.72528 14.3875 1.81353 15.2881 2.15205 16.1067C2.49057 16.9254 3.06416 17.6253 3.80033 18.118C4.53651 18.6108 5.40224 18.8742 6.2881 18.8751C6.87698 18.8768 7.46035 18.7617 8.00443 18.5364C8.54851 18.3111 9.0425 17.9801 9.45779 17.5626L10.3601 16.6603C10.4663 16.5352 10.5218 16.3748 10.5156 16.2108C10.5095 16.0469 10.4421 15.8911 10.3268 15.7744C10.2115 15.6576 10.0566 15.5883 9.8927 15.5801C9.72881 15.5719 9.56779 15.6254 9.44139 15.73Z" fill="black"/>
</g>
</svg>
