<svg width="24" height="25" viewBox="0 0 24 25" fill="none" xmlns="http://www.w3.org/2000/svg">
<g id="carbon:phone">
<path id="Vector" d="M19.4993 22.125H19.3718C4.63433 21.2775 2.54183 8.8425 2.24933 5.0475C2.22576 4.75244 2.26065 4.45562 2.35199 4.17406C2.44333 3.8925 2.58933 3.63173 2.78162 3.40669C2.97391 3.18165 3.20872 2.99677 3.47259 2.86263C3.73646 2.72849 4.0242 2.64774 4.31933 2.625H8.45183C8.75225 2.62471 9.04583 2.71463 9.29456 2.88312C9.54328 3.05161 9.73568 3.2909 9.84683 3.57L10.9868 6.375C11.0966 6.64766 11.1238 6.94656 11.0652 7.23457C11.0065 7.52258 10.8645 7.787 10.6568 7.995L9.05933 9.6075C9.30887 11.0256 9.98797 12.3328 11.0048 13.3522C12.0215 14.3717 13.3269 15.0542 14.7443 15.3075L16.3718 13.695C16.583 13.4896 16.8499 13.3509 17.1393 13.2963C17.4287 13.2416 17.7278 13.2733 17.9993 13.3875L20.8268 14.52C21.1017 14.6347 21.3363 14.8286 21.5005 15.077C21.6648 15.3254 21.7514 15.6172 21.7493 15.915V19.875C21.7493 20.4717 21.5123 21.044 21.0903 21.466C20.6684 21.8879 20.0961 22.125 19.4993 22.125ZM4.49933 4.125C4.30042 4.125 4.10965 4.20402 3.969 4.34467C3.82835 4.48532 3.74933 4.67609 3.74933 4.875V4.935C4.09433 9.375 6.30683 19.875 19.4543 20.625C19.5529 20.6311 19.6516 20.6177 19.745 20.5855C19.8383 20.5533 19.9244 20.5031 19.9982 20.4376C20.0721 20.3721 20.1323 20.2926 20.1754 20.2038C20.2185 20.115 20.2436 20.0186 20.2493 19.92V15.915L17.4218 14.7825L15.2693 16.92L14.9093 16.875C8.38433 16.0575 7.49933 9.5325 7.49933 9.465L7.45433 9.105L9.58433 6.9525L8.45933 4.125H4.49933Z" fill="#548ADB"/>
</g>
</svg>
