<svg width="24" height="25" viewBox="0 0 24 25" fill="none" xmlns="http://www.w3.org/2000/svg">
    <g id="carbon:phone">
    <path id="Vector" d="M19.5001 22.25H19.3726C4.63506 21.4025 2.54256 8.9675 2.25006 5.1725C2.22649 4.87744 2.26138 4.58062 2.35272 4.29906C2.44406 4.0175 2.59006 3.75673 2.78235 3.53169C2.97464 3.30665 3.20945 3.12177 3.47332 2.98763C3.73719 2.85349 4.02493 2.77274 4.32006 2.75H8.45256C8.75298 2.74971 9.04657 2.83963 9.29529 3.00812C9.54401 3.17661 9.73641 3.4159 9.84756 3.695L10.9876 6.5C11.0973 6.77266 11.1246 7.07156 11.0659 7.35957C11.0072 7.64758 10.8652 7.912 10.6576 8.12L9.06006 9.7325C9.3096 11.1506 9.9887 12.4578 11.0055 13.4772C12.0223 14.4967 13.3277 15.1792 14.7451 15.4325L16.3726 13.82C16.5837 13.6146 16.8506 13.4759 17.14 13.4213C17.4294 13.3666 17.7286 13.3983 18.0001 13.5125L20.8276 14.645C21.1025 14.7597 21.337 14.9536 21.5013 15.202C21.6656 15.4504 21.7522 15.7422 21.7501 16.04V20C21.7501 20.5967 21.513 21.169 21.0911 21.591C20.6691 22.0129 20.0968 22.25 19.5001 22.25ZM4.50006 4.25C4.30115 4.25 4.11039 4.32902 3.96973 4.46967C3.82908 4.61032 3.75006 4.80109 3.75006 5V5.06C4.09506 9.5 6.30756 20 19.4551 20.75C19.5536 20.7561 19.6524 20.7427 19.7457 20.7105C19.839 20.6783 19.9251 20.6281 19.9989 20.5626C20.0728 20.4971 20.133 20.4176 20.1761 20.3288C20.2192 20.24 20.2443 20.1436 20.2501 20.045V16.04L17.4226 14.9075L15.2701 17.045L14.9101 17C8.38506 16.1825 7.50006 9.6575 7.50006 9.59L7.45506 9.23L9.58506 7.0775L8.46006 4.25H4.50006Z" fill="#242424"/>
    </g>
    </svg>
    