<svg width="38" height="38" viewBox="0 0 38 38" fill="none" xmlns="http://www.w3.org/2000/svg">
    <g id="carbon:location-filled" clip-path="url(#clip0_14_31750)">
    <path id="Vector" d="M6.50001 14.0632L6.50001 14.0631C6.50394 10.7324 7.82881 7.53917 10.184 5.18398C12.539 2.82894 15.732 1.50409 19.0625 1.5C22.393 1.50409 25.586 2.82894 27.941 5.18398C30.2962 7.53917 31.6211 10.7324 31.625 14.0631V14.0632C31.6289 16.7826 30.7406 19.4281 29.0964 21.5941L29.0464 21.66L29.0455 21.6627L29.0398 21.6702L28.9117 21.8372C28.864 21.8994 28.8149 21.9632 28.7747 22.015L28.7232 22.0812L28.7061 22.1028L28.7008 22.1093L28.6991 22.1114C28.6991 22.1115 28.6991 22.1115 28.6991 22.1114L28.6792 22.1354L28.6624 22.1617L19.0625 37.1959L9.46738 22.1677L9.44826 22.1377L9.42536 22.1111C9.42523 22.1109 9.42359 22.109 9.41995 22.1045L9.40319 22.0836C9.3893 22.066 9.37172 22.0436 9.35141 22.0175C9.31088 21.9653 9.2617 21.9014 9.2138 21.8389C9.166 21.7765 9.11995 21.7161 9.08581 21.6713L9.04492 21.6176L9.03361 21.6028L9.03067 21.5989L9.02993 21.5979L9.02976 21.5977L9.02975 21.5977L9.0297 21.5976L9.02969 21.5976C7.38469 19.4306 6.49603 16.7838 6.50001 14.0632ZM24.3125 14.0631V14.0625C24.3125 13.0241 24.0046 12.0091 23.4277 11.1458C22.8509 10.2824 22.0309 9.60949 21.0716 9.21213C20.1123 8.81477 19.0567 8.7108 18.0383 8.91338C17.0199 9.11595 16.0844 9.61596 15.3502 10.3502C14.616 11.0844 14.116 12.0199 13.9134 13.0383C13.7108 14.0567 13.8148 15.1123 14.2121 16.0716C14.6095 17.0309 15.2824 17.8508 16.1458 18.4277C17.0091 19.0046 18.0242 19.3125 19.0625 19.3125H19.0631C20.4548 19.3108 21.789 18.7571 22.7731 17.7731C23.7572 16.789 24.3108 15.4548 24.3125 14.0631Z" fill="#FDFDFD" stroke="black"/>
    </g>
    <defs>
    <clipPath id="clip0_14_31750">
    <rect width="38" height="38" fill="white"/>
    </clipPath>
    </defs>
    </svg>
    