<svg xmlns="http://www.w3.org/2000/svg" width="20" height="20" viewBox="0 0 20 20" fill="none">
    <path d="M17.5 5.625H15.625V1.875H4.375V5.625H2.5C2.16848 5.625 1.85054 5.7567 1.61612 5.99112C1.3817 6.22554 1.25 6.54348 1.25 6.875V13.125C1.25 13.4565 1.3817 13.7745 1.61612 14.0089C1.85054 14.2433 2.16848 14.375 2.5 14.375H4.375V18.125H15.625V14.375H17.5C17.8315 14.375 18.1495 14.2433 18.3839 14.0089C18.6183 13.7745 18.75 13.4565 18.75 13.125V6.875C18.75 6.54348 18.6183 6.22554 18.3839 5.99112C18.1495 5.7567 17.8315 5.625 17.5 5.625ZM5.625 3.125H14.375V5.625H5.625V3.125ZM14.375 16.875H5.625V10.625H14.375V16.875ZM17.5 13.125H15.625V9.375H4.375V13.125H2.5V6.875H17.5V13.125Z" fill="black"/>
    </svg>