<svg width="10" height="17" viewBox="0 0 10 17" fill="none" xmlns="http://www.w3.org/2000/svg"><path d="M3.14404 11.4473V10.791C3.14404 10.0391 3.28076 9.41357 3.5542 8.91455C3.82764 8.41553 4.30615 7.89941 4.98975 7.36621C5.80322 6.72363 6.32617 6.22461 6.55859 5.86914C6.79785 5.51367 6.91748 5.08984 6.91748 4.59766C6.91748 4.02344 6.72607 3.58252 6.34326 3.2749C5.96045 2.96729 5.41016 2.81348 4.69238 2.81348C4.04297 2.81348 3.44141 2.90576 2.8877 3.09033C2.33398 3.2749 1.79395 3.49707 1.26758 3.75684L0.40625 1.95215C1.79395 1.17969 3.28076 0.793457 4.8667 0.793457C6.20654 0.793457 7.26953 1.12158 8.05566 1.77783C8.8418 2.43408 9.23486 3.33984 9.23486 4.49512C9.23486 5.00781 9.15967 5.46582 9.00928 5.86914C8.85889 6.26562 8.62988 6.64502 8.32227 7.00732C8.02148 7.36963 7.49854 7.84131 6.75342 8.42236C6.11768 8.92139 5.69043 9.33496 5.47168 9.66309C5.25977 9.99121 5.15381 10.4321 5.15381 10.9858V11.4473H3.14404ZM2.72363 14.7183C2.72363 13.686 3.22607 13.1699 4.23096 13.1699C4.72314 13.1699 5.09912 13.3066 5.35889 13.5801C5.61865 13.8467 5.74854 14.2261 5.74854 14.7183C5.74854 15.2036 5.61523 15.5898 5.34863 15.877C5.08887 16.1572 4.71631 16.2974 4.23096 16.2974C3.74561 16.2974 3.37305 16.1606 3.11328 15.8872C2.85352 15.6069 2.72363 15.2173 2.72363 14.7183Z" fill="#548ADB"/></svg>