<svg width="24" height="24" viewBox="0 0 24 24" fill="none" xmlns="http://www.w3.org/2000/svg">
<path d="M12 1.5C9.9233 1.5 7.89323 2.11581 6.16652 3.26957C4.4398 4.42332 3.09399 6.0632 2.29927 7.98182C1.50455 9.90045 1.29661 12.0116 1.70176 14.0484C2.1069 16.0852 3.10693 17.9562 4.57538 19.4246C6.04383 20.8931 7.91476 21.8931 9.95156 22.2982C11.9884 22.7034 14.0996 22.4955 16.0182 21.7007C17.9368 20.906 19.5767 19.5602 20.7304 17.8335C21.8842 16.1068 22.5 14.0767 22.5 12C22.5 9.21523 21.3938 6.54451 19.4246 4.57538C17.4555 2.60625 14.7848 1.5 12 1.5ZM12 21C10.22 21 8.47992 20.4722 6.99987 19.4832C5.51983 18.4943 4.36628 17.0887 3.68509 15.4442C3.0039 13.7996 2.82567 11.99 3.17294 10.2442C3.5202 8.49836 4.37737 6.89471 5.63604 5.63604C6.89472 4.37737 8.49836 3.5202 10.2442 3.17293C11.99 2.82567 13.7996 3.0039 15.4442 3.68508C17.0887 4.36627 18.4943 5.51983 19.4832 6.99987C20.4722 8.47991 21 10.22 21 12C21 14.3869 20.0518 16.6761 18.364 18.364C16.6761 20.0518 14.387 21 12 21Z" fill="#666666"/>
<path d="M10.96 13.7001C10.96 13.3301 10.995 13.0101 11.065 12.7401C11.145 12.4701 11.28 12.2151 11.47 11.9751C11.67 11.7251 11.93 11.4701 12.25 11.2101C12.62 10.9101 12.905 10.6601 13.105 10.4601C13.315 10.2501 13.46 10.0501 13.54 9.86006C13.63 9.66006 13.675 9.42006 13.675 9.14006C13.675 8.71006 13.53 8.38006 13.24 8.15006C12.96 7.92006 12.55 7.80506 12.01 7.80506C11.54 7.80506 11.11 7.87006 10.72 8.00006C10.33 8.12006 9.95 8.27006 9.58 8.45006L9.01 7.25006C9.44 7.02006 9.91 6.83006 10.42 6.68006C10.93 6.53006 11.495 6.45506 12.115 6.45506C13.095 6.45506 13.85 6.69506 14.38 7.17506C14.92 7.65506 15.19 8.29506 15.19 9.09506C15.19 9.52506 15.12 9.90006 14.98 10.2201C14.84 10.5301 14.635 10.8151 14.365 11.0751C14.105 11.3351 13.795 11.6151 13.435 11.9151C13.115 12.1751 12.87 12.4001 12.7 12.5901C12.53 12.7801 12.415 12.9701 12.355 13.1601C12.295 13.3401 12.265 13.5651 12.265 13.8351V14.1351H10.96V13.7001ZM10.645 16.4301C10.645 16.0401 10.74 15.7651 10.93 15.6051C11.13 15.4451 11.38 15.3651 11.68 15.3651C11.96 15.3651 12.2 15.4451 12.4 15.6051C12.6 15.7651 12.7 16.0401 12.7 16.4301C12.7 16.8201 12.6 17.1001 12.4 17.2701C12.2 17.4401 11.96 17.5251 11.68 17.5251C11.38 17.5251 11.13 17.4401 10.93 17.2701C10.74 17.1001 10.645 16.8201 10.645 16.4301Z" fill="#666666"/>
</svg>
