<svg width="20" height="20" viewBox="0 0 20 20" fill="none" xmlns="http://www.w3.org/2000/svg">
<g id="Details 20x20/Wildfire">
<path id="Vector" d="M15.52 10.6056C15.35 10.2013 15.1562 9.74312 14.9681 9.1775C14.4744 7.69688 16.0519 6.08187 16.0669 6.06687L15.1831 5.18313C15.0956 5.27063 13.0438 7.35687 13.7819 9.5725C13.9856 10.1838 14.1894 10.6663 14.3681 11.0913C14.7852 11.9154 15.0017 12.8264 15 13.75C14.9268 14.4945 14.6409 15.2022 14.1766 15.7888C13.7123 16.3753 13.0891 16.816 12.3812 17.0581C12.6049 16.1817 12.6015 15.2627 12.3716 14.3879C12.1416 13.5131 11.6926 12.7113 11.0669 12.0581L10.4144 11.4056L10.0506 12.2538C8.90312 14.9313 7.5375 16.1 6.73437 16.5875C6.24134 16.2856 5.82703 15.8709 5.52552 15.3776C5.224 14.8843 5.04389 14.3265 5 13.75C5.04311 12.9632 5.24039 12.1926 5.58062 11.4819C5.98413 10.6252 6.21174 9.69622 6.25 8.75V7.63875C6.79625 7.86375 7.5 8.45312 7.5 10V11.6269L8.58938 10.4181C10.5344 8.25938 10.1288 5.68875 9.34313 3.97563C9.94031 4.17469 10.4531 4.56892 10.799 5.09485C11.1449 5.62078 11.3038 6.24782 11.25 6.875H12.5C12.5 3.41437 9.63812 2.5 8.125 2.5H6.875L7.625 3.49937C7.71062 3.615 9.41375 5.95375 8.47063 8.30437C8.26075 7.71367 7.87614 7.20079 7.36787 6.83386C6.85961 6.46692 6.25174 6.26328 5.625 6.25H5V8.75C4.95689 9.53677 4.75961 10.3074 4.41938 11.0181C4.01587 11.8748 3.78826 12.8038 3.75 13.75C3.75 16.155 6.13937 18.75 10 18.75C13.8606 18.75 16.25 16.155 16.25 13.75C16.2509 12.6598 16.0012 11.5839 15.52 10.6056ZM8.02187 17.2037C9.17479 16.2494 10.1061 15.0555 10.7512 13.705C11.0957 14.2611 11.2913 14.8964 11.3195 15.5499C11.3476 16.2035 11.2072 16.8532 10.9119 17.4369C10.6096 17.4775 10.305 17.4986 10 17.5C9.32924 17.5046 8.66185 17.4047 8.02187 17.2037Z" fill="#484848"/>
</g>
</svg>
