<svg width="42" height="29" viewBox="6 0 30 30" fill="none" xmlns="http://www.w3.org/2000/svg">
<g id="carbon:fire">
<path id="Vector" d="M27.9649 16.0625C27.7234 15.4881 27.4482 14.8375 27.181 14.0341C26.4798 11.9312 28.7203 9.63744 28.7416 9.61614L27.4864 8.36096C27.3621 8.48523 24.4479 11.4483 25.4962 14.5951C25.7856 15.4633 26.075 16.1486 26.3289 16.7522C26.9213 17.9227 27.2288 19.2166 27.2263 20.5284C27.1223 21.5858 26.7163 22.591 26.0568 23.424C25.3974 24.2571 24.5122 24.8829 23.5069 25.2269C23.8245 23.9821 23.8198 22.6769 23.4932 21.4344C23.1665 20.192 22.5288 19.0532 21.6401 18.1254L20.7134 17.1987L20.1968 18.4033C18.567 22.2061 16.6274 23.8661 15.4867 24.5585C14.7865 24.1296 14.198 23.5407 13.7698 22.8401C13.3416 22.1394 13.0857 21.3472 13.0234 20.5284C13.0846 19.411 13.3648 18.3164 13.8481 17.307C14.4212 16.0902 14.7444 14.7709 14.7988 13.427V11.8487C15.5746 12.1682 16.5741 13.0053 16.5741 15.2023V17.5129L18.1214 15.7962C20.8838 12.7301 20.3077 9.07909 19.1919 6.64596C20.0401 6.92868 20.7684 7.4886 21.2597 8.23558C21.751 8.98256 21.9766 9.87313 21.9002 10.7639H23.6756C23.6756 5.84882 19.6109 4.55014 17.4618 4.55014H15.6865L16.7517 5.96954C16.8733 6.13376 19.2922 9.45547 17.9527 12.794C17.6546 11.9551 17.1084 11.2266 16.3865 10.7055C15.6646 10.1843 14.8012 9.89509 13.9111 9.87623H13.0234V13.427C12.9622 14.5444 12.682 15.6389 12.1988 16.6483C11.6257 17.8651 11.3024 19.1845 11.248 20.5284C11.248 23.9442 14.6417 27.6299 20.1249 27.6299C25.6081 27.6299 29.0017 23.9442 29.0017 20.5284C29.003 18.98 28.6483 17.4519 27.9649 16.0625ZM17.3153 25.4337C18.9528 24.0783 20.2756 22.3826 21.1919 20.4645C21.681 21.2543 21.9589 22.1567 21.9989 23.0848C22.0388 24.013 21.8395 24.9359 21.42 25.7648C20.9907 25.8226 20.558 25.8525 20.1249 25.8545C19.1722 25.8611 18.2243 25.7191 17.3153 25.4337Z" fill="#242424"/>
</g>
</svg>
