<svg xmlns="http://www.w3.org/2000/svg" width="21" height="21" viewBox="0 0 21 21" fill="none">
    <path d="M14.6904 3.56929C14.6904 3.56478 14.6907 3.56034 14.6907 3.55579C14.6907 2.93508 14.2648 2.41399 13.6893 2.26849V2.0691C13.6893 1.99103 13.626 1.92773 13.5479 1.92773H13.1634C13.0853 1.92773 13.022 1.991 13.022 2.0691V2.27239C12.4539 2.42288 12.0351 2.94041 12.0351 3.55586C12.0351 3.56037 12.0353 3.56481 12.0354 3.56936C11.7701 3.65046 11.6094 3.75601 11.6094 3.87153C11.6093 4.01313 11.8506 4.37088 12.2303 4.66187C12.3941 5.12967 12.8391 5.46527 13.3629 5.46527C13.8866 5.46527 14.3316 5.12964 14.4954 4.66187C14.8751 4.37088 15.1164 4.0131 15.1164 3.8715C15.1164 3.75594 14.9556 3.6504 14.6904 3.56929Z" fill="#548ADB"/>
    <path d="M13.4256 13.7796L13.3913 13.5029C12.8528 13.5552 12.6923 13.4743 11.9398 13.5326L11.9691 13.7689L10.7265 16.7847C10.5746 17.1534 10.7504 17.5755 11.1191 17.7274C11.488 17.8793 11.91 17.7034 12.0618 17.3348L13.3767 14.1435C13.424 14.0285 13.4409 13.9031 13.4256 13.7796Z" fill="#548ADB"/>
    <path d="M15.4134 13.4491L15.3181 12.7188C14.9091 13.0486 14.4506 13.2789 13.9514 13.4058L13.9655 13.5138L13.2463 16.9101C13.1637 17.3002 13.4129 17.6835 13.8031 17.7661C14.1933 17.8487 14.5765 17.5994 14.6591 17.2093L15.4039 13.6923C15.4208 13.6123 15.424 13.5301 15.4134 13.4491Z" fill="#548ADB"/>
    <path d="M19.2351 9.11393C19.18 8.91949 18.978 8.80649 18.7833 8.86162L17.2891 9.28489C17.3933 9.50965 17.4231 9.76855 17.3616 10.0249L17.8043 9.89949L17.7016 10.279C17.6488 10.474 17.7641 10.675 17.9591 10.7278C18.154 10.7806 18.3551 10.6654 18.4079 10.4703L18.6255 9.66697L18.9827 9.56577C19.1771 9.51057 19.2901 9.30834 19.2351 9.11393Z" fill="#548ADB"/>
    <path d="M16.0808 10.8803L15.3222 10.7588C14.9423 11.4501 14.1955 12.3243 12.8636 12.2634C11.6982 12.21 10.6181 12.4211 9.77734 12.6724C9.89936 12.912 9.90462 13.193 9.7984 13.4348C10.601 13.1778 11.6769 12.9419 12.8304 12.9944C14.0154 13.0486 14.9818 12.5307 15.6627 11.5905C15.84 11.3457 15.978 11.0995 16.083 10.8806C16.0823 10.8804 16.0815 10.8804 16.0808 10.8803Z" fill="#548ADB"/>
    <path d="M16.3558 9.1795C15.8994 9.1064 14.7896 8.9286 14.3443 8.8573L14.1542 8.44043L13.0742 8.91103L13.4034 9.63315C13.4849 9.81194 13.6506 9.93909 13.8461 9.97039L16.1695 10.3425C16.4893 10.3937 16.7925 10.1767 16.8441 9.85412C16.8956 9.53305 16.677 9.23098 16.3558 9.1795Z" fill="#548ADB"/>
    <path d="M8.5146 4.85643C8.51464 4.85192 8.51495 4.84748 8.51495 4.84293C8.51495 4.22225 8.08898 3.70113 7.51348 3.55564V3.35621C7.51348 3.27814 7.45022 3.21484 7.37212 3.21484H6.98758C6.90952 3.21484 6.84622 3.27811 6.84622 3.35621V3.5595C6.27811 3.70999 5.85929 4.22752 5.85929 4.84293C5.85929 4.84745 5.85956 4.85196 5.85963 4.85643C5.59437 4.93754 5.43359 5.04308 5.43359 5.15861C5.43356 5.30024 5.67479 5.65799 6.05451 5.94898C6.2183 6.41678 6.66337 6.75238 7.18708 6.75238C7.7108 6.75238 8.15583 6.41675 8.31965 5.94898C8.69934 5.65799 8.94064 5.30021 8.94064 5.15861C8.94064 5.04305 8.77983 4.93754 8.5146 4.85643Z" fill="#548ADB"/>
    <path d="M9.29052 18.2443C8.72562 14.1983 8.8312 14.97 8.69366 13.9167C8.55346 13.8683 8.42341 13.7844 8.31814 13.6654C8.23841 13.5753 8.13748 13.481 8.00039 13.3686C7.4628 12.9278 6.77602 12.6141 6.09501 12.7305C5.86561 12.7697 5.62602 12.8735 5.37583 12.9978L5.17079 15.1671L3.19395 16.7203C2.88037 16.9667 2.82592 17.4207 3.07231 17.7343C3.3187 18.0478 3.77263 18.1023 4.08621 17.8559L6.30664 16.1113C6.46219 15.989 6.5608 15.8084 6.57939 15.6114L6.80339 13.2415H7.14904L7.36836 14.9207C7.36863 14.9228 7.36894 14.9249 7.36918 14.9271L7.86015 18.444C7.91525 18.8387 8.27973 19.1145 8.67517 19.0594C9.07017 19.0042 9.34565 18.6393 9.29052 18.2443Z" fill="#548ADB"/>
    <path d="M9.25568 12.834C8.46636 11.942 7.14387 11.2771 5.87981 11.4932C5.71473 11.5214 5.55748 11.5648 5.40576 11.6176C5.352 12.2874 5.35579 12.3105 5.32031 12.4419C5.54521 12.3384 5.76935 12.2545 6.00313 12.2145C7.01997 12.0406 7.89719 12.6095 8.32955 12.964C8.48878 13.0946 8.60889 13.2074 8.70756 13.3189C8.8414 13.4702 9.07265 13.4843 9.22403 13.3505C9.37544 13.2166 9.38959 12.9854 9.25568 12.834Z" fill="#548ADB"/>
    <path d="M3.17714 12.5752C2.81595 12.685 2.43998 12.7754 2.05199 12.8443C1.85304 12.8796 1.72036 13.0695 1.7557 13.2685C1.79111 13.4679 1.98155 13.6001 2.17989 13.5648C2.71932 13.469 3.2387 13.3349 3.73008 13.1654C3.48222 13.0445 3.28361 12.8357 3.17714 12.5752Z" fill="#548ADB"/>
    <path d="M4.65908 8.99121L4.13229 9.2834C3.96844 9.37428 3.84731 9.54682 3.83087 9.75131C3.80804 10.0359 3.66552 11.8109 3.64255 12.0967C3.61651 12.4203 3.8576 12.7047 4.18243 12.7308C4.50118 12.7564 4.79023 12.5186 4.81661 12.191L4.97968 10.1603L5.13382 10.0748L4.65908 8.99121Z" fill="#548ADB"/>
    <path d="M13.6731 10.4904C13.1916 10.3754 12.9143 9.97739 12.8667 9.73886C12.6282 8.57615 12.5271 8.15633 12.5271 8.15633C12.5271 8.15633 12.7217 8.0715 13.7752 7.61245L13.4463 6.89088L14.6733 8.35717V7.23502C14.6733 6.56751 14.1321 6.02637 13.4646 6.02637H12.8378C12.1703 6.02637 11.6292 6.56751 11.6292 7.23502V8.28214C11.6219 8.25463 11.6134 8.22725 11.6022 8.20025C11.4676 7.87576 11.0955 7.72192 10.7709 7.85655L8.90743 8.62981L8.48847 8.37702C8.4181 7.77651 7.90785 7.31045 7.28844 7.31045H6.66171C6.05531 7.31045 5.5533 7.75703 5.46645 8.33926L6.21065 8.12868C6.21065 8.12916 6.21065 8.12967 6.21065 8.13015L5.45521 8.54915L5.93002 9.63277L6.86667 9.11329L5.5046 10.412L5.45312 11.0528C5.56304 11.0218 5.67624 10.9953 5.79347 10.9753C6.68946 10.822 7.62813 11.0239 8.49712 11.5458V9.86795L8.52569 9.88521C8.62621 9.94588 8.73996 9.97664 8.85432 9.97664C8.93686 9.97664 9.01974 9.96058 9.09808 9.92807L11.2586 9.03147C11.4493 8.95235 11.5804 8.79103 11.6293 8.60574C11.6293 8.65513 11.6293 11.6984 11.6293 11.7731C12.0756 11.7299 12.4973 11.721 12.8879 11.7388C13.7283 11.7773 14.3323 11.3721 14.7684 10.6696C13.6668 10.4931 13.7386 10.5061 13.6731 10.4904Z" fill="#548ADB"/>
    </svg>