<svg xmlns="http://www.w3.org/2000/svg" width="24" height="24" viewBox="0 0 24 24" fill="none">
    <path d="M9.75 12.75H14.25V14.25H9.75V12.75Z" fill="black"/>
    <path d="M19.08 9L18.1275 5.5875C18.0369 5.2746 17.8473 4.99951 17.5871 4.80345C17.3269 4.60739 17.0103 4.50092 16.6845 4.5H7.3155C6.98987 4.50108 6.67335 4.60762 6.41335 4.80367C6.15335 4.99972 5.96385 5.27473 5.87325 5.5875L4.89825 9H3V10.5H4.5V15.75C4.5004 16.1477 4.65856 16.529 4.93978 16.8102C5.221 17.0914 5.6023 17.2496 6 17.25V19.5H7.5V17.25H16.5V19.5H18V17.25C18.3977 17.2496 18.779 17.0914 19.0602 16.8102C19.3414 16.529 19.4996 16.1477 19.5 15.75V10.5H21V9H19.08ZM7.31625 6H16.6852L17.7562 9.75H6.2445L7.31625 6ZM18 14.25V15.75H6V14.25H7.5V12.75H6V11.25H18V12.75H16.5V14.25H18Z" fill="black"/>
    </svg>