<svg width="41" height="29" viewBox="0 0 41 29" fill="none" xmlns="http://www.w3.org/2000/svg">
<rect width="41" height="29" rx="8.83152" fill="#003366"/>
<path d="M25.6362 7.83136L25.364 8.23965C24.6154 9.12426 23.935 9.39645 22.9823 9.39645C21.4172 9.39645 20.1924 8.1716 20.1924 6.53846V3C20.1924 3 10.5977 7.96746 10.5977 16.154C10.5977 21.6857 15.2249 26 20.3965 26C26.0269 26 30.3314 21.4408 30.3994 16.4053C30.4445 13.0713 28.6807 9.55843 25.6362 7.83136ZM20.4645 24.0266C19.0632 24.0266 17.6746 23.0059 17.6746 21.3047C17.6746 20.2509 18.1432 19.7264 18.6273 19.2634L20.4645 17.4261L22.642 19.5355C23.1134 19.9985 23.3225 20.7604 23.3225 21.5089C23.3225 22.6657 22.1658 24.0266 20.4645 24.0266ZM25.0917 22.5977C25.1427 22.1471 25.7907 19.9071 24.071 18.2426L20.4482 14.7722L16.9261 18.2426C15.1936 19.9196 15.7864 22.1721 15.8373 22.5977C15.0888 22.0532 13.7278 20.6243 13.2515 19.3994C12.8033 18.4282 12.5029 17.2205 12.503 16.154C12.503 11.8462 16.1775 7.96746 18.219 6.60651C18.219 7.83136 18.8475 9.25825 19.784 10.0769C20.7207 10.8956 21.7287 11.2999 22.9823 11.3018C23.9759 11.3018 25.025 10.9553 25.8402 10.4172C27.4735 11.7781 28.4268 14.0879 28.426 16.1331C28.4941 19.0592 26.861 21.3728 25.0917 22.5977Z" fill="white"/>
</svg>
