<svg width="41" height="29" viewBox="0 0 41 29" fill="none" xmlns="http://www.w3.org/2000/svg">
<rect width="41" height="29" fill="white"/>
<path d="M27.9 4.80221V4.30221H27.4H14.6H14.1V4.80221V23.4897V24.3126L14.8304 23.9334L20.5084 20.9855L20.5104 20.9845L21 20.7331L21.4896 20.9845L21.4916 20.9855L27.1696 23.9334L27.9 24.3126V23.4897V4.80221ZM21.2284 21.6074L21 21.4901L20.7716 21.6074L13.5 25.3406V4.80221C13.5 4.4949 13.619 4.20276 13.8268 3.98938C14.0342 3.77646 14.3126 3.65935 14.6 3.65935H27.4C27.6874 3.65935 27.9658 3.77646 28.1732 3.98938C28.381 4.20276 28.5 4.4949 28.5 4.80221V25.3406L21.2284 21.6074Z" stroke="black" stroke-width="1.3"/>
</svg>
