<svg width="41" height="29" viewBox="0 0 41 29" fill="none" xmlns="http://www.w3.org/2000/svg">
<rect width="40.625" height="29" rx="8.83152" fill="#003366"/>
<path d="M27.2125 4.80221V4.30221H26.7125H13.9125H13.4125V4.80221V23.4897V24.3126L14.1429 23.9334L19.8209 20.9855L19.8229 20.9845L20.3125 20.7331L20.8021 20.9845L20.8041 20.9855L26.4821 23.9334L27.2125 24.3126V23.4897V4.80221ZM20.5409 21.6074L20.3125 21.4901L20.0841 21.6074L12.8125 25.3406V4.80221C12.8125 4.4949 12.9315 4.20276 13.1393 3.98938C13.3467 3.77646 13.6251 3.65935 13.9125 3.65935H26.7125C26.9999 3.65935 27.2783 3.77646 27.4857 3.98938C27.6935 4.20276 27.8125 4.4949 27.8125 4.80221V25.3406L20.5409 21.6074Z" stroke="white" stroke-width="1.3"/>
</svg>
