<svg width="24" height="24" viewBox="0 0 24 24" fill="none" xmlns="http://www.w3.org/2000/svg">
<g id="fluent:search-24-regular">
<g id="Group">
<path id="Vector" d="M10.0542 2C11.5765 1.99981 13.0677 2.43098 14.355 3.24355C15.6423 4.05612 16.673 5.21683 17.3277 6.59117C17.9823 7.96551 18.2342 9.49723 18.054 11.0088C17.8738 12.5204 17.269 13.95 16.3096 15.132L21.754 20.5764C21.9035 20.7249 21.9911 20.9245 21.9994 21.135C22.0076 21.3456 21.9357 21.5514 21.7983 21.7111C21.6608 21.8708 21.468 21.9725 21.2586 21.9958C21.0491 22.019 20.8387 21.962 20.6696 21.8363L20.5762 21.7552L15.1308 16.3109C14.1295 17.1232 12.9479 17.6834 11.6853 17.9442C10.4226 18.2051 9.11581 18.1591 7.87464 17.81C6.63346 17.461 5.4942 16.8191 4.5526 15.9383C3.61101 15.0576 2.89458 13.9637 2.46352 12.7485C2.03247 11.5334 1.8994 10.2326 2.07547 8.95532C2.25155 7.67807 2.73164 6.46176 3.4754 5.40858C4.21916 4.35541 5.20485 3.49615 6.34964 2.90301C7.49442 2.30988 8.76486 2.0002 10.0542 2ZM10.0542 3.66664C9.2152 3.66664 8.38443 3.83189 7.6093 4.15296C6.83418 4.47402 6.12989 4.94462 5.53663 5.53787C4.94338 6.13112 4.47279 6.83542 4.15172 7.61054C3.83065 8.38566 3.6654 9.21643 3.6654 10.0554C3.6654 10.8944 3.83065 11.7252 4.15172 12.5003C4.47279 13.2754 4.94338 13.9797 5.53663 14.573C6.12989 15.1662 6.83418 15.6368 7.6093 15.9579C8.38443 16.2789 9.2152 16.4442 10.0542 16.4442C11.7486 16.4442 13.3736 15.7711 14.5717 14.573C15.7699 13.3748 16.443 11.7498 16.443 10.0554C16.443 8.36101 15.7699 6.736 14.5717 5.53787C13.3736 4.33974 11.7486 3.66664 10.0542 3.66664Z" fill="#242424"/>
</g>
</g>
</svg>
