<svg width="21" height="20" viewBox="0 0 21 20" fill="none" xmlns="http://www.w3.org/2000/svg">
<g id="search">
<path id="Vector" d="M18.6237 17.2411L13.9036 12.521C15.0378 11.1594 15.6034 9.41288 15.4827 7.64485C15.362 5.87682 14.5643 4.22339 13.2556 3.02851C11.9469 1.83363 10.2279 1.1893 8.45619 1.22956C6.6845 1.26982 4.99654 1.99157 3.74345 3.24467C2.49035 4.49776 1.7686 6.18572 1.72834 7.95741C1.68808 9.7291 2.33241 11.4481 3.52729 12.7568C4.72217 14.0655 6.3756 14.8632 8.14363 14.9839C9.91166 15.1046 11.6582 14.539 13.0198 13.4048L17.7399 18.1249L18.6237 17.2411ZM2.99868 8.1249C2.99868 7.01238 3.32858 5.92485 3.94667 4.99982C4.56475 4.0748 5.44325 3.35382 6.47109 2.92808C7.49892 2.50234 8.62992 2.39094 9.72107 2.60799C10.8122 2.82503 11.8145 3.36076 12.6012 4.14743C13.3878 4.9341 13.9236 5.93638 14.1406 7.02752C14.3576 8.11866 14.2462 9.24966 13.8205 10.2775C13.3948 11.3053 12.6738 12.1838 11.7488 12.8019C10.8237 13.42 9.7362 13.7499 8.62368 13.7499C7.13235 13.7483 5.70257 13.1551 4.64803 12.1006C3.5935 11.046 3.00034 9.61624 2.99868 8.1249Z" fill="black"/>
</g>
</svg>
