<svg width="20" height="21" viewBox="0 0 20 21" fill="none" xmlns="http://www.w3.org/2000/svg">
<g id="carbon:send">
<path id="Vector" d="M17.1544 9.81869L3.40441 2.94369C3.29664 2.8898 3.17559 2.8682 3.05583 2.88151C2.93607 2.89481 2.82272 2.94246 2.72941 3.01869C2.6403 3.09338 2.57379 3.19143 2.53735 3.30185C2.50092 3.41226 2.496 3.53064 2.52316 3.64369L4.37316 10.3749L2.49816 17.0874C2.47267 17.1819 2.4697 17.2809 2.48947 17.3767C2.50925 17.4725 2.55122 17.5623 2.61201 17.6389C2.6728 17.7154 2.75071 17.7767 2.83949 17.8177C2.92827 17.8587 3.02543 17.8783 3.12316 17.8749C3.221 17.8744 3.31733 17.8508 3.40441 17.8062L17.1544 10.9312C17.2568 10.8787 17.3427 10.7991 17.4027 10.7009C17.4627 10.6028 17.4944 10.49 17.4944 10.3749C17.4944 10.2599 17.4627 10.1471 17.4027 10.049C17.3427 9.95083 17.2568 9.87114 17.1544 9.81869ZM4.09191 16.0687L5.47316 10.9999H10.6232C10.9683 10.9999 11.2482 10.7201 11.2482 10.3749C11.2482 10.0298 10.9683 9.74994 10.6232 9.74994H5.47316L4.09191 4.68119L15.4732 10.3749L4.09191 16.0687Z" fill="white"/>
</g>
</svg>
