<svg xmlns="http://www.w3.org/2000/svg" width="25" height="25" viewBox="0 0 25 25" fill="none">
    <path d="M21.088 11.8321L4.58802 3.58214C4.4587 3.51746 4.31344 3.49155 4.16973 3.50752C4.02602 3.52348 3.88999 3.58065 3.77802 3.67214C3.67109 3.76176 3.59128 3.87943 3.54756 4.01192C3.50383 4.14441 3.49793 4.28648 3.53052 4.42214L5.75052 12.4996L3.50052 20.5546C3.46994 20.6679 3.46637 20.7868 3.4901 20.9017C3.51383 21.0167 3.56419 21.1244 3.63714 21.2163C3.71009 21.3082 3.80359 21.3818 3.91012 21.431C4.01666 21.4802 4.13325 21.5037 4.25052 21.4996C4.36793 21.4989 4.48353 21.4707 4.58802 21.4171L21.088 13.1671C21.2109 13.1042 21.314 13.0086 21.386 12.8908C21.458 12.773 21.4961 12.6377 21.4961 12.4996C21.4961 12.3616 21.458 12.2262 21.386 12.1085C21.314 11.9907 21.2109 11.8951 21.088 11.8321ZM5.41302 19.3321L7.07052 13.2496H13.2505C13.6647 13.2496 14.0005 12.9139 14.0005 12.4996C14.0005 12.0854 13.6647 11.7496 13.2505 11.7496H7.07052L5.41302 5.66714L19.0705 12.4996L5.41302 19.3321Z" fill="white"/>
</svg>