<svg width="20" height="20" viewBox="0 0 20 20" fill="none" xmlns="http://www.w3.org/2000/svg">
<g id="printer">
<path id="Vector" fill-rule="evenodd" clip-rule="evenodd" d="M14.4996 0.25C14.0241 0.249841 13.5544 0.35402 13.1235 0.555189C12.6927 0.756359 12.3112 1.04962 12.0061 1.41428C11.7009 1.77894 11.4795 2.20611 11.3574 2.66567C11.2353 3.12523 11.2156 3.60598 11.2996 4.074L6.56958 7.386L6.50158 7.439C6.02172 7.06388 5.4461 6.83116 4.84037 6.76737C4.23463 6.70358 3.62316 6.8113 3.07568 7.07823C2.52821 7.34516 2.06676 7.76057 1.74396 8.27708C1.42116 8.79359 1.25 9.39042 1.25 9.9995C1.25 10.6086 1.42116 11.2054 1.74396 11.7219C2.06676 12.2384 2.52821 12.6538 3.07568 12.9208C3.62316 13.1877 4.23463 13.2954 4.84037 13.2316C5.4461 13.1678 6.02172 12.9351 6.50158 12.56L6.56958 12.614L11.2996 15.926C11.2663 16.1127 11.2496 16.304 11.2496 16.5C11.2497 17.2705 11.5236 18.0159 12.0223 18.6031C12.521 19.1904 13.2122 19.5815 13.9724 19.7064C14.7327 19.8314 15.5127 19.6822 16.1731 19.2854C16.8336 18.8887 17.3317 18.2702 17.5784 17.5403C17.8252 16.8104 17.8046 16.0166 17.5203 15.3004C17.2361 14.5843 16.7066 13.9925 16.0265 13.6305C15.3463 13.2685 14.5597 13.1599 13.8069 13.3241C13.0542 13.4883 12.3842 13.9146 11.9166 14.527L7.43758 11.39C7.63758 10.968 7.74958 10.497 7.74958 9.999C7.74958 9.501 7.63758 9.029 7.43758 8.608L11.9176 5.472C12.2531 5.91147 12.6951 6.25809 13.2019 6.47908C13.7087 6.70007 14.2634 6.78812 14.8137 6.73491C15.364 6.6817 15.8917 6.48898 16.3467 6.17498C16.8018 5.86098 17.1692 5.43609 17.4143 4.94049C17.6593 4.44489 17.7739 3.89496 17.7471 3.34274C17.7204 2.79051 17.5532 2.25424 17.2614 1.78465C16.9696 1.31506 16.5628 0.927667 16.0795 0.659126C15.5963 0.390585 15.0525 0.24977 14.4996 0.25ZM12.7496 3.5C12.7496 3.03587 12.934 2.59075 13.2621 2.26256C13.5903 1.93437 14.0355 1.75 14.4996 1.75C14.9637 1.75 15.4088 1.93437 15.737 2.26256C16.0652 2.59075 16.2496 3.03587 16.2496 3.5C16.2496 3.96413 16.0652 4.40925 15.737 4.73744C15.4088 5.06563 14.9637 5.25 14.4996 5.25C14.0355 5.25 13.5903 5.06563 13.2621 4.73744C12.934 4.40925 12.7496 3.96413 12.7496 3.5ZM4.49958 8.25C4.03546 8.25 3.59034 8.43437 3.26215 8.76256C2.93396 9.09075 2.74958 9.53587 2.74958 10C2.74958 10.4641 2.93396 10.9092 3.26215 11.2374C3.59034 11.5656 4.03546 11.75 4.49958 11.75C4.96371 11.75 5.40883 11.5656 5.73702 11.2374C6.06521 10.9092 6.24958 10.4641 6.24958 10C6.24958 9.53587 6.06521 9.09075 5.73702 8.76256C5.40883 8.43437 4.96371 8.25 4.49958 8.25ZM14.4996 14.75C14.0355 14.75 13.5903 14.9344 13.2621 15.2626C12.934 15.5908 12.7496 16.0359 12.7496 16.5C12.7496 16.9641 12.934 17.4092 13.2621 17.7374C13.5903 18.0656 14.0355 18.25 14.4996 18.25C14.9637 18.25 15.4088 18.0656 15.737 17.7374C16.0652 17.4092 16.2496 16.9641 16.2496 16.5C16.2496 16.0359 16.0652 15.5908 15.737 15.2626C15.4088 14.9344 14.9637 14.75 14.4996 14.75Z" fill="black"/>
</g>
</svg>
