<svg width="132" height="132" viewBox="0 0 132 132" fill="none" xmlns="http://www.w3.org/2000/svg">
<path d="M28.2937 64.7946V53.9017C28.2939 53.7293 28.3621 53.5642 28.4832 53.4423C28.6043 53.3205 28.7684 53.2519 28.9396 53.2517H31.2114C31.3827 53.2519 31.5468 53.3204 31.6679 53.4423C31.789 53.5641 31.8571 53.7293 31.8574 53.9017V64.7946C31.8571 64.967 31.789 65.1322 31.6679 65.2541C31.5468 65.3759 31.3827 65.4444 31.2114 65.4446H28.9396C28.7684 65.4444 28.6043 65.3758 28.4832 65.254C28.3621 65.1322 28.2939 64.967 28.2937 64.7946ZM14.1347 67.529H17.9495C18.0539 67.5288 18.1571 67.5074 18.2531 67.4663C18.3492 67.4251 18.4359 67.3649 18.5084 67.2892L19.7433 65.9933C19.9089 65.8203 20.1075 65.6825 20.3272 65.5882C20.5468 65.4939 20.7831 65.4451 21.0219 65.4446H24.4619C24.6672 65.4444 24.864 65.3622 25.0092 65.2161C25.1544 65.0699 25.2361 64.8718 25.2363 64.6652V54.031C25.2361 53.8244 25.1544 53.6262 25.0092 53.4801C24.864 53.334 24.6672 53.2519 24.4619 53.2517H15.9901C15.5086 53.2522 15.0403 53.4098 14.6554 53.7008C14.2705 53.9919 13.9897 54.4007 13.8552 54.866L13.3609 66.7171C13.3565 66.8221 13.3733 66.9269 13.4102 67.0252C13.4471 67.1235 13.5034 67.2133 13.5757 67.2891C13.648 67.365 13.7348 67.4253 13.8308 67.4666C13.9269 67.5078 14.0302 67.529 14.1347 67.529ZM31.1108 86.283C31.1108 86.5637 31.1123 86.8424 31.1138 87.1168C31.1138 87.2136 31.1143 87.3097 31.1153 87.405H33.9973V77.8106H25.9103C27.4722 78.599 28.7857 79.8087 29.704 81.3048C30.6223 82.8009 31.1094 84.5244 31.1108 86.283ZM11 81.7982V85.8729C10.9994 86.026 11.0534 86.1741 11.1521 86.2905C11.2508 86.4068 11.3878 86.4837 11.5381 86.507L12.2804 86.6271C12.2804 86.5128 12.2796 86.3977 12.2796 86.283C12.2778 84.7173 12.6638 83.1759 13.4028 81.7982H11ZM12.7746 51.0989H33.9968V76.8069H21.6949C20.1938 76.8077 18.7147 77.1701 17.3811 77.8638C16.0476 78.5575 14.8984 79.5624 14.0296 80.7944H11V79.6051H12.0746C12.2069 79.6051 12.3337 79.5522 12.4273 79.4581C12.5208 79.364 12.5733 79.2363 12.5733 79.1032V74.8953C12.5733 74.7622 12.5208 74.6345 12.4273 74.5404C12.3337 74.4463 12.2069 74.3934 12.0746 74.3934H11V69.2619L11.6697 52.1675C11.6802 51.8798 11.8013 51.6076 12.0074 51.4081C12.2136 51.2087 12.4887 51.0981 12.7746 51.0989ZM27.2963 64.7951C27.297 65.2336 27.4703 65.6539 27.7784 65.9638C28.0864 66.2738 28.504 66.4483 28.9396 66.4489H31.2114C31.647 66.4483 32.0646 66.2738 32.3727 65.9638C32.6807 65.6539 32.854 65.2336 32.8547 64.7951V53.9017C32.854 53.4632 32.6807 53.043 32.3727 52.733C32.0646 52.423 31.647 52.2485 31.2114 52.2479H28.9396C28.504 52.2485 28.0864 52.423 27.7784 52.733C27.4703 53.043 27.297 53.4632 27.2963 53.9017V64.7951ZM12.8612 54.7663L12.3644 66.6749C12.3544 66.9152 12.3927 67.155 12.4772 67.3799C12.5616 67.6049 12.6904 67.8103 12.8558 67.9839C13.0212 68.1574 13.2197 68.2955 13.4395 68.3899C13.6593 68.4842 13.8957 68.5328 14.1347 68.5328H17.9495C18.1883 68.5323 18.4246 68.4835 18.6442 68.3892C18.8639 68.2949 19.0625 68.1571 19.2281 67.984L20.4632 66.6881C20.5356 66.6125 20.6223 66.5523 20.7183 66.5111C20.8143 66.47 20.9175 66.4486 21.0219 66.4484H24.4619C24.9316 66.4479 25.382 66.2599 25.7142 65.9256C26.0463 65.5912 26.2332 65.138 26.2337 64.6652V54.031C26.2331 53.5582 26.0463 53.105 25.7141 52.7707C25.382 52.4364 24.9316 52.2484 24.4619 52.2479H15.9901C15.2799 52.2487 14.5899 52.4853 14.0271 52.9211C13.4643 53.357 13.0601 53.9676 12.8773 54.6582C12.8681 54.6935 12.8627 54.7298 12.8612 54.7663ZM11.576 75.3972H11V78.6013H11.576V75.3972ZM37.0617 51.0984H35.7081V72.2199H37.0617V51.0984ZM13.453 49.5042H33.9968V37C21.585 38.0801 14.8541 42.1759 13.453 49.5042ZM21.6951 82.3255C20.9173 82.3255 20.1571 82.5576 19.5104 82.9924C18.8637 83.4273 18.3597 84.0454 18.0621 84.7685C17.7644 85.4917 17.6865 86.2874 17.8382 87.0551C17.9899 87.8228 18.3644 88.528 18.9143 89.0815C19.4643 89.635 20.1649 90.012 20.9277 90.1647C21.6905 90.3174 22.4811 90.2391 23.1996 89.9395C23.9182 89.64 24.5323 89.1327 24.9644 88.4819C25.3965 87.8311 25.6271 87.0659 25.6271 86.2831C25.6259 85.2339 25.2113 84.228 24.4741 83.4861C23.737 82.7441 22.7376 82.3268 21.6951 82.3255ZM29.3274 86.283C29.3275 87.8023 28.8798 89.2875 28.0412 90.5508C27.2025 91.8141 26.0105 92.7988 24.6159 93.3802C23.2212 93.9616 21.6865 94.1138 20.206 93.8174C18.7254 93.521 17.3654 92.7894 16.2979 91.7151C15.2305 90.6408 14.5035 89.272 14.209 87.7819C13.9145 86.2917 14.0657 84.7472 14.6433 83.3435C15.221 81.9398 16.1993 80.74 17.4545 79.8959C18.7096 79.0518 20.1853 78.6013 21.6949 78.6013C23.7184 78.6036 25.6584 79.4137 27.0893 80.8537C28.5202 82.2938 29.3251 84.2464 29.3274 86.283ZM26.6244 86.283C26.6245 85.3017 26.3354 84.3424 25.7937 83.5265C25.2521 82.7106 24.4822 82.0746 23.5814 81.6991C22.6807 81.3236 21.6895 81.2253 20.7332 81.4167C19.777 81.6082 18.8986 82.0807 18.2092 82.7746C17.5198 83.4684 17.0503 84.3525 16.8601 85.3149C16.6698 86.2774 16.7675 87.2749 17.1406 88.1815C17.5137 89.0881 18.1456 89.863 18.9563 90.4081C19.767 90.9533 20.7201 91.2442 21.6951 91.2442C23.0019 91.2427 24.2548 90.7195 25.179 89.7895C26.1031 88.8594 26.6229 87.5983 26.6244 86.283ZM51.469 76.9281H37.3885C36.935 76.9286 36.5002 77.1101 36.1795 77.4328C35.8588 77.7556 35.6785 78.1932 35.678 78.6496V86.5441C35.6785 87.0006 35.8588 87.4382 36.1795 87.7609C36.5002 88.0837 36.935 88.2652 37.3885 88.2656H51.469C51.9225 88.2652 52.3573 88.0837 52.678 87.7609C52.9987 87.4382 53.179 87.0006 53.1795 86.5441V78.6498C53.179 78.1934 52.9987 77.7558 52.678 77.433C52.3573 77.1103 51.9225 76.9286 51.469 76.9281Z" fill="black"/>
<path fill-rule="evenodd" clip-rule="evenodd" d="M94.7169 85.1868C94.7169 80.3169 98.6394 76.3691 103.478 76.3691C108.317 76.3691 112.239 80.3169 112.239 85.1868C112.239 90.0567 108.317 94.0044 103.478 94.0044C98.6395 94.0044 94.7169 90.0567 94.7169 85.1868ZM107.233 85.1868C107.233 83.0997 105.552 81.4078 103.478 81.4078C101.404 81.4078 99.7233 83.0997 99.7233 85.1868C99.7233 87.2738 101.404 88.9657 103.478 88.9657C105.552 88.9659 107.233 87.274 107.233 85.1868ZM74.6919 85.1868C74.6919 80.3169 78.6143 76.3691 83.4529 76.3691C88.2915 76.3691 92.2139 80.3169 92.2139 85.1868C92.2139 90.0567 88.2915 94.0044 83.4529 94.0044C78.6143 94.0044 74.6919 90.0567 74.6919 85.1868ZM87.2076 85.1868C87.2076 83.0997 85.5266 81.4078 83.4529 81.4078C81.3793 81.4078 79.6982 83.0997 79.6982 85.1868C79.6982 87.2738 81.3793 88.9657 83.4529 88.9657C85.5266 88.9657 87.2076 87.274 87.2076 85.1868Z" fill="black"/>
<path fill-rule="evenodd" clip-rule="evenodd" d="M76.1447 73.8493H110.787L114.448 80.2987C114.789 80.8983 115.563 81.1151 116.169 80.7668L118.322 79.5286C118.937 79.175 119.139 78.4057 118.795 77.7989L116.552 73.8495H118.497C119.879 73.8495 121 72.7216 121 71.3302V42.3577C121 40.9663 119.879 39.8384 118.497 39.8384H38.3965C37.014 39.8384 35.8933 40.9663 35.8933 42.3577V71.3298C35.8933 72.7212 37.014 73.8492 38.3965 73.8492H40.8997H45.9058H70.3786L68.1362 77.7986C67.7958 78.3982 68.0034 79.18 68.6091 79.5283L70.7621 80.7665C71.3771 81.1201 72.1382 80.9053 72.4828 80.2984L76.1447 73.8493Z" fill="black"/>
<path d="M92.109 64.2089C92.109 62.7752 91.2769 62.1351 89.8815 61.4694C89.3055 61.2006 88.883 60.9701 88.5886 60.7781C88.2941 60.5861 88.1533 60.33 88.1533 60.01C88.1533 59.4595 88.563 59.0883 89.2927 59.0883C89.9967 59.0883 90.6112 59.2803 91.4433 59.626L92.0706 58.1154C91.1105 57.7057 90.3168 57.4753 89.3567 57.4753C87.4492 57.4753 86.2587 58.4354 86.2587 60.074C86.2587 61.7382 87.59 62.4039 88.4349 62.8008C89.4463 63.2872 90.2144 63.6073 90.2144 64.2985C90.2144 64.8618 89.8559 65.2715 88.8958 65.2715C87.9741 65.2715 87.0268 64.8874 86.1563 64.5162V66.3212C86.9116 66.6924 87.7821 66.8717 88.7422 66.8717C90.8929 66.8717 92.109 65.8347 92.109 64.2089ZM97.6877 66.7437V63.492H98.5198C101.183 63.492 102.066 62.0711 102.066 60.4581C102.066 58.6786 101.029 57.6033 98.6734 57.6033H95.7547V66.7437H97.6877ZM97.6877 59.1907H98.571C99.5952 59.1907 100.107 59.6388 100.107 60.5221C100.107 61.495 99.4159 61.9046 98.3278 61.9046H97.6877V59.1907ZM105.713 57.6033V63.492C105.713 65.5275 107.006 66.8717 109.426 66.8717C111.973 66.8717 113.215 65.4123 113.215 63.5176V57.6033H111.282V63.1848C111.282 64.6058 110.744 65.2459 109.477 65.2459C108.261 65.2459 107.646 64.721 107.646 63.1976V57.6033H105.713Z" fill="white"/>
</svg>
