<svg width="41" height="41" viewBox="0 0 41 41" fill="none" xmlns="http://www.w3.org/2000/svg">
<g id="SPU">
<g id="Group 62">
<path id="Vector" d="M10.5171 20.5801V17.6094C10.5172 17.5624 10.5358 17.5174 10.5688 17.4841C10.6018 17.4509 10.6466 17.4322 10.6933 17.4322H11.3128C11.3595 17.4322 11.4043 17.4509 11.4373 17.4841C11.4703 17.5174 11.4889 17.5624 11.489 17.6094V20.5801C11.4889 20.6271 11.4703 20.6722 11.4373 20.7054C11.4043 20.7387 11.3595 20.7573 11.3128 20.7574H10.6933C10.6466 20.7573 10.6018 20.7386 10.5688 20.7054C10.5358 20.6722 10.5172 20.6271 10.5171 20.5801ZM6.65567 21.3258H7.69605C7.72451 21.3258 7.75267 21.32 7.77885 21.3087C7.80504 21.2975 7.82871 21.2811 7.84846 21.2605L8.18524 20.907C8.23042 20.8598 8.28457 20.8223 8.34448 20.7966C8.40438 20.7708 8.46881 20.7575 8.53393 20.7574H9.47209C9.52809 20.7573 9.58178 20.7349 9.62137 20.6951C9.66097 20.6552 9.68324 20.6012 9.6833 20.5448V17.6447C9.68324 17.5883 9.66096 17.5343 9.62137 17.4945C9.58177 17.4546 9.52808 17.4322 9.47209 17.4322H7.16167C7.03037 17.4323 6.90265 17.4753 6.79768 17.5546C6.69271 17.634 6.61614 17.7455 6.57946 17.8724L6.44464 21.1044C6.44345 21.1331 6.44803 21.1616 6.45809 21.1885C6.46816 21.2153 6.48351 21.2397 6.50323 21.2604C6.52294 21.2811 6.54661 21.2976 6.57281 21.3088C6.599 21.3201 6.62719 21.3258 6.65567 21.3258ZM11.2854 26.4404C11.2854 26.517 11.2858 26.593 11.2862 26.6678C11.2862 26.6942 11.2864 26.7204 11.2866 26.7464H12.0726V24.1298H9.86712C10.2931 24.3448 10.6513 24.6748 10.9017 25.0828C11.1522 25.4908 11.285 25.9608 11.2854 26.4404ZM5.80078 25.2173V26.3286C5.80061 26.3703 5.81533 26.4107 5.84226 26.4425C5.86919 26.4742 5.90654 26.4952 5.94752 26.5015L6.14998 26.5343C6.14998 26.5031 6.14975 26.4717 6.14975 26.4404C6.14926 26.0134 6.25453 25.5931 6.45607 25.2173H5.80078ZM6.28475 16.845H12.0725V23.8561H8.71749C8.3081 23.8563 7.90472 23.9552 7.54104 24.1443C7.17736 24.3335 6.86396 24.6076 6.62702 24.9436H5.80078V24.6192H6.09386C6.12993 24.6192 6.16452 24.6048 6.19002 24.5791C6.21553 24.5535 6.22986 24.5187 6.22986 24.4824V23.3348C6.22986 23.2985 6.21553 23.2637 6.19002 23.238C6.16452 23.2123 6.12993 23.1979 6.09386 23.1979H5.80078V21.7984L5.98343 17.1365C5.98628 17.058 6.01931 16.9838 6.07553 16.9294C6.13175 16.875 6.20677 16.8448 6.28475 16.845ZM10.2451 20.5803C10.2453 20.6998 10.2926 20.8145 10.3766 20.899C10.4606 20.9835 10.5745 21.0311 10.6933 21.0313H11.3128C11.4316 21.0311 11.5455 20.9835 11.6295 20.899C11.7135 20.8145 11.7608 20.6998 11.761 20.5803V17.6094C11.7608 17.4898 11.7135 17.3752 11.6295 17.2907C11.5455 17.2061 11.4316 17.1586 11.3128 17.1584H10.6933C10.5745 17.1586 10.4606 17.2061 10.3766 17.2907C10.2926 17.3752 10.2453 17.4898 10.2451 17.6094V20.5803ZM6.30837 17.8452L6.17287 21.0929C6.17014 21.1584 6.1806 21.2238 6.20364 21.2852C6.22667 21.3465 6.26179 21.4026 6.30689 21.4499C6.35199 21.4972 6.40614 21.5349 6.46608 21.5606C6.52602 21.5863 6.59051 21.5996 6.65567 21.5996H7.69605C7.76117 21.5995 7.82561 21.5862 7.88551 21.5604C7.94542 21.5347 7.99957 21.4972 8.04475 21.4499L8.38157 21.0965C8.40132 21.0759 8.42498 21.0595 8.45115 21.0483C8.47733 21.037 8.50548 21.0312 8.53393 21.0311H9.47209C9.6002 21.031 9.72303 20.9797 9.81362 20.8886C9.90421 20.7974 9.95516 20.6738 9.95529 20.5448V17.6447C9.95515 17.5157 9.90419 17.3921 9.81361 17.301C9.72302 17.2098 9.6002 17.1585 9.47209 17.1584H7.16167C6.968 17.1586 6.77982 17.2231 6.62633 17.342C6.47283 17.4609 6.36261 17.6274 6.31277 17.8157C6.31026 17.8254 6.30878 17.8352 6.30837 17.8452ZM5.95786 23.4717H5.80078V24.3455H5.95786V23.4717ZM12.9083 16.8449H12.5392V22.6051H12.9083V16.8449ZM6.46976 16.4101H12.0725V13C8.68752 13.2946 6.85187 14.4116 6.46976 16.4101ZM8.71753 25.3611C8.50543 25.3611 8.29809 25.4244 8.12173 25.543C7.94537 25.6616 7.80791 25.8302 7.72674 26.0274C7.64557 26.2246 7.62432 26.4416 7.6657 26.651C7.70707 26.8604 7.8092 27.0527 7.95918 27.2036C8.10915 27.3546 8.30023 27.4574 8.50826 27.499C8.71628 27.5407 8.9319 27.5193 9.12786 27.4376C9.32382 27.3559 9.4913 27.2176 9.60914 27.0401C9.72698 26.8626 9.78987 26.6539 9.78987 26.4405C9.78955 26.1543 9.67647 25.88 9.47544 25.6776C9.27441 25.4753 9.00184 25.3615 8.71753 25.3611ZM10.799 26.4404C10.799 26.8548 10.677 27.2598 10.4482 27.6043C10.2195 27.9489 9.89444 28.2174 9.51409 28.376C9.13374 28.5345 8.71521 28.576 8.31142 28.4952C7.90764 28.4144 7.53674 28.2148 7.24563 27.9219C6.95452 27.6289 6.75627 27.2556 6.67595 26.8492C6.59563 26.4428 6.63684 26.0216 6.79439 25.6388C6.95193 25.2559 7.21873 24.9288 7.56104 24.6985C7.90335 24.4683 8.30579 24.3455 8.71749 24.3455C9.26934 24.3461 9.79842 24.567 10.1887 24.9598C10.5789 25.3525 10.7984 25.885 10.799 26.4404ZM10.0619 26.4404C10.0619 26.1728 9.98304 25.9112 9.83532 25.6887C9.6876 25.4662 9.47764 25.2927 9.23198 25.1903C8.98632 25.0879 8.71601 25.0611 8.45522 25.1133C8.19443 25.1655 7.95488 25.2944 7.76686 25.4836C7.57884 25.6728 7.4508 25.9139 7.39893 26.1764C7.34706 26.4389 7.37369 26.7109 7.47544 26.9582C7.5772 27.2054 7.74952 27.4168 7.97061 27.5654C8.1917 27.7141 8.45163 27.7935 8.71753 27.7934C9.07394 27.793 9.41563 27.6504 9.66766 27.3967C9.91968 27.1431 10.0615 26.7991 10.0619 26.4404ZM16.8375 23.8892H12.9974C12.8738 23.8893 12.7552 23.9388 12.6677 24.0268C12.5803 24.1148 12.5311 24.2342 12.531 24.3587V26.5116C12.5311 26.6361 12.5803 26.7555 12.6677 26.8435C12.7552 26.9315 12.8738 26.981 12.9974 26.9811H16.8375C16.9611 26.981 17.0797 26.9315 17.1672 26.8435C17.2546 26.7555 17.3038 26.6361 17.3039 26.5116V24.3587C17.3038 24.2342 17.2546 24.1149 17.1672 24.0269C17.0797 23.9388 16.9611 23.8893 16.8375 23.8892Z" fill="#1A5A96"/>
<g id="Group">
<path id="Vector_2" fill-rule="evenodd" clip-rule="evenodd" d="M28.6316 26.1425C28.6316 24.8144 29.7013 23.7378 31.0209 23.7378C32.3404 23.7378 33.4102 24.8144 33.4102 26.1425C33.4102 27.4706 32.3404 28.5473 31.0209 28.5473C29.7013 28.5473 28.6316 27.4706 28.6316 26.1425ZM32.0448 26.1425C32.0448 25.5734 31.5864 25.1119 31.0209 25.1119C30.4553 25.1119 29.9969 25.5734 29.9969 26.1425C29.9969 26.7117 30.4553 27.1731 31.0209 27.1731C31.5864 27.1732 32.0448 26.7118 32.0448 26.1425ZM23.1703 26.1425C23.1703 24.8144 24.24 23.7378 25.5596 23.7378C26.8792 23.7378 27.9489 24.8144 27.9489 26.1425C27.9489 27.4706 26.8792 28.5473 25.5596 28.5473C24.24 28.5473 23.1703 27.4706 23.1703 26.1425ZM26.5836 26.1425C26.5836 25.5734 26.1252 25.1119 25.5596 25.1119C24.9941 25.1119 24.5357 25.5734 24.5357 26.1425C24.5357 26.7117 24.9941 27.1731 25.5596 27.1731C26.1252 27.1731 26.5836 26.7118 26.5836 26.1425Z" fill="#1A5A96"/>
<path id="Vector_3" fill-rule="evenodd" clip-rule="evenodd" d="M23.5679 23.0499H33.0154L34.014 24.8087C34.1068 24.9722 34.318 25.0314 34.4832 24.9364L35.0704 24.5987C35.2381 24.5023 35.2933 24.2925 35.1994 24.127L34.5878 23.0499H35.1181C35.4951 23.0499 35.8008 22.7423 35.8008 22.3628V14.4615C35.8008 14.082 35.4951 13.7744 35.1181 13.7744H13.2732C12.8962 13.7744 12.5905 14.082 12.5905 14.4615V22.3627C12.5905 22.7422 12.8962 23.0498 13.2732 23.0498H13.9558H15.3211H21.9953L21.3838 24.1269C21.2909 24.2904 21.3476 24.5036 21.5128 24.5986L22.0999 24.9363C22.2676 25.0327 22.4752 24.9742 22.5692 24.8086L23.5679 23.0499Z" fill="#1A5A96"/>
<g id="SPU_2">
<path d="M27.9203 20.4194C27.9203 20.0284 27.6934 19.8538 27.3128 19.6723C27.1557 19.599 27.0405 19.5361 26.9602 19.4837C26.8799 19.4314 26.8415 19.3616 26.8415 19.2743C26.8415 19.1242 26.9532 19.0229 27.1522 19.0229C27.3442 19.0229 27.5118 19.0753 27.7388 19.1695L27.9098 18.7576C27.648 18.6459 27.4315 18.583 27.1697 18.583C26.6495 18.583 26.3248 18.8449 26.3248 19.2917C26.3248 19.7456 26.6879 19.9271 26.9183 20.0354C27.1941 20.168 27.4036 20.2553 27.4036 20.4438C27.4036 20.5975 27.3058 20.7092 27.044 20.7092C26.7926 20.7092 26.5343 20.6044 26.2969 20.5032V20.9955C26.5029 21.0967 26.7403 21.1456 27.0021 21.1456C27.5886 21.1456 27.9203 20.8628 27.9203 20.4194Z" fill="white"/>
<path d="M29.4417 21.1107V20.2239H29.6687C30.3948 20.2239 30.6357 19.8364 30.6357 19.3965C30.6357 18.9112 30.3529 18.6179 29.7106 18.6179H28.9145V21.1107H29.4417ZM29.4417 19.0508H29.6826C29.9619 19.0508 30.1016 19.173 30.1016 19.4139C30.1016 19.6793 29.913 19.791 29.6163 19.791H29.4417V19.0508Z" fill="white"/>
<path d="M31.6305 18.6179V20.2239C31.6305 20.779 31.9831 21.1456 32.643 21.1456C33.3377 21.1456 33.6764 20.7476 33.6764 20.2309V18.6179H33.1492V20.1401C33.1492 20.5276 33.0026 20.7022 32.6569 20.7022C32.3253 20.7022 32.1577 20.5591 32.1577 20.1436V18.6179H31.6305Z" fill="white"/>
</g>
</g>
</g>
</g>
</svg>
