<svg width="28" height="14" viewBox="0 0 28 14" fill="none" xmlns="http://www.w3.org/2000/svg">
<g id="Group 62">
<path id="Vector" d="M4.86037 6.82843V4.18771C4.86044 4.14593 4.87696 4.10589 4.90631 4.07635C4.93567 4.04681 4.97546 4.0302 5.01697 4.03014H5.56771C5.60922 4.03019 5.64902 4.0468 5.67837 4.07634C5.70773 4.10588 5.72425 4.14593 5.7243 4.18771V6.82843C5.72425 6.87021 5.70773 6.91026 5.67837 6.9398C5.64902 6.96934 5.60922 6.98595 5.56771 6.98599H5.01697C4.97546 6.98594 4.93567 6.96932 4.90631 6.93979C4.87696 6.91025 4.86044 6.8702 4.86037 6.82843ZM1.42789 7.4913H2.3527C2.378 7.49125 2.40303 7.48607 2.42631 7.47609C2.44958 7.46611 2.47062 7.45151 2.48818 7.43318L2.78754 7.11902C2.82771 7.07706 2.87585 7.04366 2.9291 7.02081C2.98235 6.99795 3.03962 6.98612 3.09751 6.98599H3.93145C3.98123 6.98594 4.02895 6.96601 4.06415 6.93059C4.09934 6.89517 4.11914 6.84714 4.11919 6.79704V4.21906C4.11914 4.16896 4.09934 4.12094 4.06414 4.08552C4.02895 4.0501 3.98122 4.03019 3.93145 4.03014H1.87768C1.76097 4.03026 1.64744 4.06846 1.55413 4.13902C1.46081 4.20958 1.39275 4.30869 1.36015 4.42148L1.24031 7.29447C1.23925 7.31993 1.24331 7.34534 1.25226 7.36917C1.26121 7.393 1.27486 7.41477 1.29238 7.43315C1.30991 7.45154 1.33095 7.46617 1.35423 7.47616C1.37752 7.48615 1.40257 7.4913 1.42789 7.4913ZM5.54333 12.0377C5.54333 12.1058 5.54369 12.1733 5.54405 12.2399C5.54405 12.2633 5.54417 12.2866 5.54441 12.3097H6.24308V9.98382H4.2826C4.66124 10.1749 4.97964 10.4682 5.20227 10.8309C5.42489 11.1936 5.54297 11.6114 5.54333 12.0377ZM0.66797 10.9505V11.9383C0.667819 11.9754 0.680903 12.0113 0.704841 12.0395C0.72878 12.0677 0.761982 12.0864 0.798411 12.092L0.978377 12.1211C0.978377 12.0934 0.978175 12.0655 0.978175 12.0377C0.977733 11.6582 1.07132 11.2845 1.25046 10.9505H0.66797ZM1.09818 3.50825H6.24296V9.74048H3.26067C2.89676 9.74067 2.53819 9.82853 2.21491 9.9967C1.89163 10.1649 1.61304 10.4085 1.40242 10.7072H0.66797V10.4188H0.928489C0.960551 10.4188 0.9913 10.406 1.01397 10.3832C1.03664 10.3604 1.04938 10.3294 1.04938 10.2972V9.27707C1.04938 9.2448 1.03664 9.21385 1.01397 9.19104C0.9913 9.16822 0.960551 9.1554 0.928489 9.1554H0.66797V7.91139L0.830326 3.76729C0.832865 3.69757 0.86222 3.63156 0.912196 3.58321C0.962171 3.53486 1.02886 3.50806 1.09818 3.50825ZM4.61859 6.82855C4.61875 6.93483 4.66078 7.03672 4.73545 7.11187C4.81013 7.18702 4.91137 7.22931 5.01697 7.22946H5.56771C5.67331 7.22931 5.77454 7.18702 5.84922 7.11187C5.9239 7.03672 5.96592 6.93483 5.96608 6.82855V4.18771C5.96592 4.08142 5.9239 3.97954 5.84922 3.90439C5.77454 3.82923 5.67331 3.78695 5.56771 3.7868H5.01697C4.91137 3.78695 4.81013 3.82923 4.73545 3.90439C4.66078 3.97954 4.61875 4.08142 4.61859 4.18771V6.82855ZM1.11917 4.39731L0.998727 7.28425C0.996297 7.3425 1.0056 7.40063 1.02607 7.45517C1.04655 7.5097 1.07777 7.5595 1.11786 7.60158C1.15795 7.64365 1.20608 7.67713 1.25936 7.69999C1.31264 7.72286 1.36997 7.73465 1.42789 7.73464H2.3527C2.41059 7.73453 2.46787 7.72269 2.52112 7.69984C2.57437 7.67698 2.62251 7.64358 2.66266 7.60161L2.96207 7.28746C2.97962 7.26912 3.00066 7.25453 3.02392 7.24455C3.04719 7.23457 3.07221 7.22939 3.09751 7.22934H3.93145C4.04533 7.22922 4.15452 7.18363 4.23504 7.10259C4.31557 7.02154 4.36086 6.91165 4.36098 6.79704V4.21906C4.36085 4.10445 4.31555 3.99457 4.23503 3.91353C4.1545 3.83249 4.04533 3.78692 3.93145 3.7868H1.87768C1.70553 3.78698 1.53825 3.84435 1.40181 3.95C1.26537 4.05565 1.16739 4.20368 1.12308 4.37111C1.12085 4.37967 1.11954 4.38846 1.11917 4.39731ZM0.807599 9.39874H0.66797V10.1755H0.807599V9.39874ZM6.98595 3.50813H6.65782V8.62848H6.98595V3.50813ZM1.26263 3.12166H6.24296V0.090332C3.23403 0.352169 1.60229 1.34509 1.26263 3.12166ZM3.26071 11.0783C3.07217 11.0783 2.88786 11.1346 2.7311 11.24C2.57433 11.3454 2.45214 11.4953 2.37998 11.6706C2.30783 11.8459 2.28894 12.0388 2.32572 12.2249C2.3625 12.411 2.45328 12.582 2.5866 12.7162C2.71991 12.8503 2.88977 12.9417 3.07468 12.9787C3.2596 13.0158 3.45127 12.9968 3.62546 12.9242C3.79965 12.8515 3.94853 12.7286 4.05328 12.5708C4.15802 12.413 4.21393 12.2275 4.21393 12.0378C4.21364 11.7834 4.11313 11.5395 3.93442 11.3597C3.75572 11.1798 3.51344 11.0786 3.26071 11.0783ZM5.11098 12.0377C5.11099 12.406 5.00248 12.7661 4.79917 13.0724C4.59586 13.3786 4.30688 13.6173 3.96878 13.7583C3.63068 13.8992 3.25864 13.9361 2.89972 13.8642C2.54079 13.7924 2.21109 13.615 1.95232 13.3546C1.69354 13.0942 1.51731 12.7623 1.44592 12.4011C1.37452 12.0398 1.41116 11.6654 1.5512 11.3251C1.69125 10.9848 1.92841 10.694 2.23269 10.4893C2.53697 10.2847 2.89471 10.1755 3.26067 10.1755C3.75123 10.1761 4.22153 10.3724 4.56841 10.7215C4.91529 11.0707 5.11042 11.544 5.11098 12.0377ZM4.45571 12.0377C4.45572 11.7998 4.38564 11.5673 4.25433 11.3695C4.12302 11.1717 3.93638 11.0175 3.71801 10.9265C3.49964 10.8354 3.25936 10.8116 3.02754 10.858C2.79572 10.9044 2.58278 11.019 2.41565 11.1872C2.24851 11.3554 2.1347 11.5697 2.08859 11.803C2.04248 12.0364 2.06615 12.2782 2.1566 12.498C2.24706 12.7178 2.40023 12.9056 2.59676 13.0378C2.79329 13.1699 3.02435 13.2405 3.26071 13.2404C3.57753 13.2401 3.88126 13.1133 4.10529 12.8878C4.32932 12.6623 4.45534 12.3566 4.45571 12.0377ZM10.4786 9.76988H7.06518C6.95524 9.76999 6.84983 9.81399 6.77209 9.89223C6.69435 9.97048 6.65063 10.0766 6.65052 10.1872V12.101C6.65063 12.2117 6.69435 12.3178 6.77209 12.396C6.84983 12.4743 6.95524 12.5183 7.06518 12.5184H10.4786C10.5886 12.5183 10.694 12.4743 10.7717 12.396C10.8495 12.3178 10.8932 12.2117 10.8933 12.101V10.1873C10.8932 10.0766 10.8495 9.97052 10.7717 9.89227C10.694 9.81403 10.5886 9.76999 10.4786 9.76988Z" fill="white"/>
<g id="Group">
<path id="Vector_2" fill-rule="evenodd" clip-rule="evenodd" d="M20.9632 11.7719C20.9632 10.5913 21.914 9.63428 23.0871 9.63428C24.2601 9.63428 25.2109 10.5913 25.2109 11.7719C25.2109 12.9525 24.2601 13.9095 23.0871 13.9095C21.9141 13.9095 20.9632 12.9525 20.9632 11.7719ZM23.9973 11.7719C23.9973 11.2659 23.5898 10.8558 23.0871 10.8558C22.5843 10.8558 22.1768 11.2659 22.1768 11.7719C22.1768 12.2778 22.5843 12.688 23.0871 12.688C23.5898 12.688 23.9973 12.2779 23.9973 11.7719ZM16.1086 11.7719C16.1086 10.5913 17.0595 9.63428 18.2325 9.63428C19.4055 9.63428 20.3564 10.5913 20.3564 11.7719C20.3564 12.9525 19.4055 13.9095 18.2325 13.9095C17.0595 13.9095 16.1086 12.9525 16.1086 11.7719ZM19.1427 11.7719C19.1427 11.2659 18.7352 10.8558 18.2325 10.8558C17.7298 10.8558 17.3223 11.2659 17.3223 11.7719C17.3223 12.2778 17.7298 12.688 18.2325 12.688C18.7352 12.688 19.1427 12.2779 19.1427 11.7719Z" fill="white"/>
<path id="Vector_3" fill-rule="evenodd" clip-rule="evenodd" d="M16.4619 9.0234H24.8599L25.7476 10.5869C25.8301 10.7322 26.0179 10.7848 26.1647 10.7004L26.6867 10.4002C26.8358 10.3145 26.8849 10.128 26.8013 9.98088L26.2577 9.02344H26.7291C27.0643 9.02344 27.3359 8.75 27.3359 8.41269V1.38907C27.3359 1.05176 27.0643 0.77832 26.7291 0.77832H7.31081C6.97566 0.77832 6.70398 1.05176 6.70398 1.38907V8.41261C6.70398 8.74992 6.97566 9.02336 7.31081 9.02336H7.91764H9.13126H15.064L14.5204 9.98079C14.4379 10.1262 14.4882 10.3157 14.6351 10.4001L15.157 10.7003C15.3061 10.786 15.4906 10.7339 15.5742 10.5868L16.4619 9.0234Z" fill="white"/>
<g id="SPU">
<path d="M20.3298 6.68636C20.3298 6.33877 20.1281 6.1836 19.7898 6.02222C19.6502 5.95705 19.5477 5.90119 19.4764 5.85464C19.405 5.80809 19.3709 5.74602 19.3709 5.66843C19.3709 5.53499 19.4702 5.44499 19.6471 5.44499C19.8177 5.44499 19.9667 5.49154 20.1684 5.57533L20.3205 5.20913C20.0877 5.10982 19.8953 5.05396 19.6626 5.05396C19.2002 5.05396 18.9115 5.28671 18.9115 5.68395C18.9115 6.08739 19.2343 6.24877 19.4391 6.34498C19.6843 6.46291 19.8705 6.54049 19.8705 6.70808C19.8705 6.84463 19.7836 6.94394 19.5509 6.94394C19.3274 6.94394 19.0978 6.85084 18.8867 6.76084V7.19842C19.0698 7.28842 19.2809 7.33187 19.5136 7.33187C20.035 7.33187 20.3298 7.08049 20.3298 6.68636Z" fill="#146FB4"/>
<path d="M21.6822 7.30083V6.51256H21.8839C22.5295 6.51256 22.7436 6.16808 22.7436 5.77705C22.7436 5.34568 22.4922 5.08499 21.9212 5.08499H21.2136V7.30083H21.6822ZM21.6822 5.46981H21.8964C22.1446 5.46981 22.2688 5.57843 22.2688 5.79257C22.2688 6.02843 22.1012 6.12774 21.8374 6.12774H21.6822V5.46981Z" fill="#146FB4"/>
<path d="M23.6279 5.08499V6.51256C23.6279 7.00601 23.9413 7.33187 24.5278 7.33187C25.1454 7.33187 25.4465 6.97808 25.4465 6.51877V5.08499H24.9778V6.43808C24.9778 6.78256 24.8475 6.93773 24.5403 6.93773C24.2454 6.93773 24.0965 6.81049 24.0965 6.44118V5.08499H23.6279Z" fill="#146FB4"/>
</g>
</g>
</g>
</svg>
