<svg width="24" height="24" viewBox="0 0 24 24" fill="none" xmlns="http://www.w3.org/2000/svg">
<g id="Supplies">
<g id="Group">
<path id="Vector" d="M6.26951 12.6065H17.7252M13.6518 6.67672V2.49561H5.21094V6.67672H7.43232V10.5105H9.45593V6.67672H13.6518Z" stroke="#242424" stroke-width="1.3" stroke-miterlimit="10" stroke-linecap="round" stroke-linejoin="round"/>
<path id="Vector_2" d="M22.3789 12.6064L1.62266 12.6064V10.5104L22.3789 10.5104V12.6064Z" stroke="#242424" stroke-width="1.3" stroke-miterlimit="10" stroke-linecap="round" stroke-linejoin="round"/>
<path id="Vector_3" d="M21.4336 20.3467L2.56376 20.3467V12.6065L21.4336 12.6065V20.3467Z" stroke="#242424" stroke-width="1.3" stroke-miterlimit="10" stroke-linecap="round" stroke-linejoin="round"/>
<path id="Vector_4" d="M15.5977 10.5105H11.7105V8.55874H15.5977V10.5105Z" stroke="#242424" stroke-width="1.3" stroke-miterlimit="10" stroke-linecap="round" stroke-linejoin="round"/>
<path id="Vector_5" d="M19.3009 2.521H16.6618M16.9181 4.33628V2.521H19.0446V4.33628C19.7739 4.33628 20.3651 4.9291 20.3651 5.66038V10.5105H15.5977V5.66038C15.5977 4.9291 16.1889 4.33628 16.9181 4.33628Z" stroke="#242424" stroke-width="1.3" stroke-miterlimit="10" stroke-linecap="round" stroke-linejoin="round"/>
<path id="Vector_6" d="M15.5977 10.5105H9.45824V6.67671L15.5977 6.67671V10.5105Z" stroke="#242424" stroke-width="1.3" stroke-miterlimit="10" stroke-linecap="round" stroke-linejoin="round"/>
<path id="Vector_7" d="M7.43359 10.5105H3.63313L3.63313 6.67671H7.43359L7.43359 10.5105Z" stroke="#242424" stroke-width="1.3" stroke-miterlimit="10" stroke-linecap="round" stroke-linejoin="round"/>
</g>
</g>
</svg>
