<svg width="20" height="21" viewBox="0 0 20 21" fill="none" xmlns="http://www.w3.org/2000/svg">
<g id="Type">
<path id="Union" fill-rule="evenodd" clip-rule="evenodd" d="M10.7781 2.83341C10.7781 2.46522 10.4796 2.16675 10.1114 2.16675C9.74325 2.16675 9.44477 2.46522 9.44477 2.83341V9.7223H2.33366C1.96547 9.7223 1.66699 10.0208 1.66699 10.389C1.66699 10.7572 1.96547 11.0556 2.33366 11.0556H9.44477V18.1667C9.44477 18.5349 9.74325 18.8334 10.1114 18.8334C10.4796 18.8334 10.7781 18.5349 10.7781 18.1667V11.0556H17.667C18.0352 11.0556 18.3337 10.7572 18.3337 10.389C18.3337 10.0208 18.0352 9.7223 17.667 9.7223H10.7781V2.83341Z" fill="#484848"/>
</g>
</svg>
