<svg width="16" height="15" viewBox="0 0 16 15" fill="none" xmlns="http://www.w3.org/2000/svg">
<path id="Union" fill-rule="evenodd" clip-rule="evenodd" d="M0.879447 14.9183H15.1179C15.212 14.9182 15.3044 14.894 15.3864 14.8478C15.4684 14.8017 15.537 14.7352 15.5858 14.6549C15.6347 14.5745 15.6619 14.4829 15.6651 14.3889C15.6682 14.2949 15.6471 14.2016 15.6037 14.1182L8.48445 0.427322C8.43819 0.33846 8.36844 0.263991 8.28279 0.21202C8.19714 0.160049 8.09888 0.132568 7.9987 0.132568C7.89852 0.132568 7.80025 0.160049 7.7146 0.21202C7.62896 0.263991 7.55921 0.33846 7.51295 0.427322L0.393695 14.1182C0.350339 14.2016 0.329207 14.2949 0.332334 14.3889C0.335461 14.4829 0.362743 14.5745 0.41155 14.6549C0.460357 14.7352 0.529044 14.8017 0.610996 14.8478C0.692947 14.894 0.7854 14.9182 0.879447 14.9183ZM14.2144 13.823H1.78304L1.78195 13.8214L7.9976 1.86815H7.99979L14.2149 13.8214L14.2144 13.823ZM7.54281 11.2234C7.6779 11.1331 7.83672 11.085 7.99919 11.085C8.21705 11.085 8.42599 11.1715 8.58004 11.3255C8.73409 11.4796 8.82064 11.6885 8.82064 11.9064C8.82064 12.0689 8.77246 12.2277 8.6822 12.3628C8.59194 12.4979 8.46364 12.6032 8.31354 12.6653C8.16344 12.7275 7.99827 12.7438 7.83893 12.7121C7.67958 12.6804 7.53321 12.6021 7.41833 12.4873C7.30345 12.3724 7.22521 12.226 7.19352 12.0667C7.16182 11.9073 7.17809 11.7421 7.24026 11.592C7.30244 11.4419 7.40772 11.3137 7.54281 11.2234ZM7.99919 5.06097C7.69674 5.06097 7.45155 5.30615 7.45155 5.6086V9.44205C7.45155 9.7445 7.69674 9.98968 7.99919 9.98968C8.30164 9.98968 8.54682 9.7445 8.54682 9.44205V5.6086C8.54682 5.30615 8.30164 5.06097 7.99919 5.06097Z" fill="#484848"/>
</svg>
