<svg width="18" height="26" viewBox="0 0 18 26" fill="none" xmlns="http://www.w3.org/2000/svg">
    <path id="Union" fill-rule="evenodd" clip-rule="evenodd" d="M17.4875 7.1375L11.3625 1.0125C11.1875 0.8375 11.0125 0.75 10.75 0.75H2C1.0375 0.75 0.25 1.5375 0.25 2.5V23.5C0.25 24.4625 1.0375 25.25 2 25.25H16C16.9625 25.25 17.75 24.4625 17.75 23.5V7.75C17.75 7.4875 17.6625 7.3125 17.4875 7.1375ZM10.75 2.85L15.65 7.75H10.75V2.85ZM16 22.9167C16 23.2388 15.7388 23.5 15.4167 23.5H2.58333C2.26117 23.5 2 23.2388 2 22.9167V3.08333C2 2.76117 2.26117 2.5 2.58333 2.5H9V7.75C9 8.7125 9.7875 9.5 10.75 9.5H16V22.9167ZM3.75 19.125C3.75 18.6418 4.14175 18.25 4.625 18.25H13.375C13.8582 18.25 14.25 18.6418 14.25 19.125C14.25 19.6082 13.8582 20 13.375 20H4.625C4.14175 20 3.75 19.6082 3.75 19.125ZM4.625 13C4.14175 13 3.75 13.3918 3.75 13.875C3.75 14.3582 4.14175 14.75 4.625 14.75H13.375C13.8582 14.75 14.25 14.3582 14.25 13.875C14.25 13.3918 13.8582 13 13.375 13H4.625Z" fill="#1A5A96"/>
    </svg>
    