<svg width="24" height="24" viewBox="0 0 24 24" fill="none" xmlns="http://www.w3.org/2000/svg">
<g id="Valve">
<g id="Group">
<path id="Vector" d="M10.7767 7.55472V10.7764M13.2236 10.6949V7.51393M8.22789 4.99316H15.7724C16.4453 4.99316 16.9959 5.54367 16.9959 6.2166C16.9959 6.88949 16.4453 7.44004 15.7724 7.44004H8.22789C7.555 7.44004 7.00445 6.88953 7.00445 6.2166C7.00445 5.54371 7.555 4.99316 8.22789 4.99316ZM4.61875 14.0185H7.98753C8.46426 13.4993 9.14889 13.079 9.96109 12.8128V10.8227H14.0393V12.8128C14.8515 13.079 15.5361 13.4993 16.0128 14.0185H19.3816V17.485H16.0128C15.1735 18.3991 13.6903 19.0066 12.0001 19.0066C10.31 19.0066 8.82676 18.3991 7.98744 17.485H4.61875V14.0185ZM2.17188 13.0602H4.61875V18.4433H2.17188V13.0602ZM19.3816 13.0602H21.8284V18.4433H19.3816V13.0602Z" stroke="#242424" stroke-width="1.3" stroke-miterlimit="22.9256" stroke-linecap="round" stroke-linejoin="round"/>
</g>
</g>
</svg>
