<svg width="36" height="36" viewBox="0 0 36 36" fill="none" xmlns="http://www.w3.org/2000/svg">
<g id="warning--hex">
<path id="Vector" fill-rule="evenodd" clip-rule="evenodd" d="M15.158 5.6842H20.3685V21.57H15.158V5.6842ZM16.3158 26.3141C16.7443 26.0278 17.248 25.875 17.7632 25.875C18.4542 25.875 19.1168 26.1495 19.6054 26.6381C20.094 27.1266 20.3685 27.7893 20.3685 28.4803C20.3685 28.9955 20.2157 29.4992 19.9294 29.9277C19.6432 30.3561 19.2363 30.69 18.7602 30.8872C18.2842 31.0844 17.7603 31.136 17.255 31.0355C16.7496 30.9349 16.2854 30.6868 15.921 30.3225C15.5567 29.9581 15.3085 29.4939 15.208 28.9885C15.1075 28.4831 15.1591 27.9593 15.3563 27.4833C15.5535 27.0072 15.8874 26.6003 16.3158 26.3141Z" fill="#1A5A96"/>
</g>
</svg>
