<svg width="132" height="132" viewBox="0 0 132 132" fill="none" xmlns="http://www.w3.org/2000/svg">
<g clip-path="url(#clip0_1311_1549)">
<path d="M90.421 25.6225C90.4212 25.5962 90.423 25.5703 90.423 25.5438C90.423 21.9258 87.9403 18.8885 84.5857 18.0404V16.8782C84.5857 16.4232 84.2169 16.0542 83.7617 16.0542H81.5203C81.0653 16.0542 80.6963 16.423 80.6963 16.8782V18.0631C77.3849 18.9403 74.9437 21.9569 74.9437 25.5442C74.9437 25.5705 74.9453 25.5964 74.9457 25.6229C73.3995 26.0956 72.4624 26.7108 72.4624 27.3842C72.462 28.2095 73.8683 30.2948 76.0816 31.9909C77.0363 34.7176 79.6305 36.6737 82.6831 36.6737C85.7357 36.6737 88.33 34.7174 89.2846 31.9909C91.4978 30.2948 92.9042 28.2093 92.9042 27.384C92.9042 26.7104 91.9669 26.0952 90.421 25.6225Z" fill="black"/>
<path d="M83.0443 85.1322L82.8443 83.5195C79.7056 83.8241 78.7702 83.3528 74.3837 83.6925L74.5544 85.0697L67.3118 102.648C66.4265 104.797 67.4508 107.258 69.6 108.143C71.7502 109.029 74.2099 108.003 75.0951 105.855L82.759 87.2533C83.0351 86.5827 83.1337 85.852 83.0443 85.1322Z" fill="black"/>
<path d="M94.6214 83.2063L94.0657 78.9492C91.6819 80.8721 89.0094 82.2144 86.0994 82.9539L86.1817 83.5834L81.9895 103.38C81.508 105.654 82.9609 107.888 85.235 108.369C87.5093 108.851 89.7433 107.397 90.2244 105.124L94.5658 84.6236C94.6642 84.1576 94.6829 83.6785 94.6214 83.2063Z" fill="black"/>
<path d="M116.919 57.9344C116.598 56.801 115.42 56.1424 114.286 56.4637L105.576 58.9309C106.183 60.2409 106.357 61.75 105.999 63.2441L108.579 62.5132L107.98 64.7253C107.673 65.8621 108.345 67.0333 109.482 67.3413C110.617 67.6493 111.789 66.9777 112.098 65.8404L113.366 61.1579L115.448 60.568C116.581 60.2463 117.24 59.0675 116.919 57.9344Z" fill="black"/>
<path d="M98.5263 68.2273L94.1046 67.519C91.8899 71.5484 87.5372 76.6443 79.7738 76.2889C72.9806 75.9781 66.6853 77.2084 61.7845 78.6731C62.4958 80.0698 62.5264 81.7076 61.9073 83.1169C66.5853 81.6192 72.8569 80.2439 79.58 80.5497C86.4871 80.8661 92.12 77.8469 96.0892 72.367C97.1228 70.94 97.927 69.5051 98.539 68.2291C98.5346 68.2281 98.5304 68.2279 98.5263 68.2273Z" fill="black"/>
<path d="M100.114 58.3099C97.4543 57.8837 90.9851 56.8474 88.3895 56.4318L87.2818 54.002L80.9867 56.745L82.9054 60.9541C83.3805 61.9962 84.3463 62.7373 85.4861 62.9198L99.0283 65.0889C100.892 65.3873 102.66 64.1223 102.961 62.242C103.261 60.3706 101.987 58.6099 100.114 58.3099Z" fill="black"/>
<path d="M54.4216 33.1075C54.4218 33.0812 54.4236 33.0553 54.4236 33.0288C54.4236 29.411 51.9407 26.3735 48.5863 25.5255V24.363C48.5863 23.908 48.2175 23.5391 47.7623 23.5391H45.5209C45.0659 23.5391 44.6969 23.9078 44.6969 24.363V25.548C41.3855 26.4251 38.9443 29.4417 38.9443 33.0288C38.9443 33.0551 38.9459 33.0814 38.9463 33.1075C37.4001 33.5803 36.463 34.1955 36.463 34.8688C36.4628 35.6944 37.8689 37.7796 40.0822 39.4758C41.0369 42.2025 43.6311 44.1586 46.6837 44.1586C49.7364 44.1586 52.3304 42.2023 53.2852 39.4758C55.4984 37.7796 56.9048 35.6942 56.9048 34.8688C56.9048 34.1953 55.9675 33.5803 54.4216 33.1075Z" fill="black"/>
<path d="M58.9371 111.155C55.6445 87.5712 56.2598 92.0694 55.4582 85.9296C54.641 85.6474 53.883 85.1583 53.2694 84.4648C52.8046 83.9399 52.2163 83.39 51.4172 82.7348C48.2837 80.1656 44.2806 78.3368 40.3112 79.0156C38.974 79.2443 37.5775 79.8491 36.1192 80.5734L34.9241 93.2179L23.4015 102.271C21.5737 103.708 21.2563 106.354 22.6925 108.181C24.1286 110.009 26.7745 110.327 28.6023 108.89L41.5447 98.7213C42.4514 98.0089 43.0261 96.9558 43.1345 95.8079L44.4402 81.9941H46.4549L47.7333 91.7817C47.7349 91.794 47.7367 91.8062 47.7381 91.8188L50.5998 112.319C50.921 114.619 53.0454 116.227 55.3504 115.905C57.6528 115.584 59.2585 113.457 58.9371 111.155Z" fill="black"/>
<path d="M58.7538 79.6121C54.153 74.4129 46.4444 70.5373 39.0765 71.7969C38.1143 71.9615 37.1977 72.2141 36.3134 72.5219C36 76.4264 36.0221 76.561 35.8153 77.3268C37.1262 76.7232 38.4326 76.2341 39.7953 76.001C45.7223 74.9878 50.8354 78.3036 53.3555 80.3701C54.2837 81.1311 54.9837 81.7883 55.5589 82.4384C56.339 83.3205 57.6869 83.4028 58.5693 82.6225C59.4518 81.8421 59.5343 80.4944 58.7538 79.6121Z" fill="black"/>
<path d="M23.3187 78.0981C21.2133 78.738 19.0219 79.2652 16.7604 79.6666C15.6007 79.8724 14.8274 80.9794 15.0333 82.1391C15.2397 83.3015 16.3498 84.0719 17.5058 83.8661C20.6501 83.3079 23.6774 82.5264 26.5416 81.5383C25.0969 80.8336 23.9392 79.6166 23.3187 78.0981Z" fill="black"/>
<path d="M31.9377 57.2222L28.8672 58.9253C27.9121 59.455 27.2061 60.4607 27.1103 61.6526C26.9772 63.3117 26.1464 73.6577 26.0126 75.3236C25.8608 77.2094 27.2661 78.8675 29.1594 79.0197C31.0173 79.1685 32.7021 77.7825 32.8559 75.8728L33.8064 64.0366L34.7049 63.5384L31.9377 57.2222Z" fill="black"/>
<path d="M84.4901 65.9577C81.6839 65.2873 80.0672 62.9672 79.7897 61.5768C78.3997 54.7996 77.8103 52.3526 77.8103 52.3526C77.8103 52.3526 78.945 51.8582 85.0853 49.1824L83.1681 44.9765L90.32 53.5232V46.9825C90.32 43.0917 87.1658 39.9375 83.275 39.9375H79.6218C75.731 39.9375 72.5768 43.0917 72.5768 46.9825V53.0859C72.5344 52.9256 72.4849 52.766 72.4196 52.6086C71.6347 50.7172 69.4658 49.8205 67.574 50.6053L56.7122 55.1124L54.2702 53.639C53.86 50.1387 50.8858 47.4221 47.2754 47.4221H43.6223C40.0878 47.4221 37.1617 50.0251 36.6555 53.4188L40.9932 52.1914C40.9932 52.1942 40.9932 52.1972 40.9932 52.2L36.5899 54.6422L39.3575 60.9585L44.817 57.9305L36.8778 65.5003L36.5778 69.2356C37.2184 69.0549 37.8783 68.9005 38.5616 68.7836C43.7841 67.8905 49.2554 69.0669 54.3206 72.1091V62.3293L54.4871 62.4299C55.073 62.7835 55.736 62.9628 56.4026 62.9628C56.8837 62.9628 57.3668 62.8692 57.8234 62.6797L70.4167 57.4536C71.5281 56.9924 72.2921 56.0521 72.5772 54.9721C72.5772 55.26 72.5772 72.9986 72.5772 73.4337C75.1786 73.1819 77.6367 73.1303 79.9136 73.2341C84.812 73.4585 88.3326 71.0969 90.8748 67.002C84.4536 65.9734 84.872 66.0489 84.4901 65.9577Z" fill="black"/>
</g>
<defs>
<clipPath id="clip0_1311_1549">
<rect width="102" height="102" fill="white" transform="translate(15 15)"/>
</clipPath>
</defs>
</svg>
