<svg width="24" height="24" viewBox="0 0 24 24" fill="none" xmlns="http://www.w3.org/2000/svg">
<g id="Custom Wildfire Icon 1">
<path id="Vector" d="M16.3594 6.34615L16.1286 6.69231C15.494 7.44231 14.9171 7.67308 14.1094 7.67308C12.7824 7.67308 11.744 6.63462 11.744 5.25V2.25C11.744 2.25 3.60938 6.46154 3.60938 13.4023C3.60938 18.0922 7.53245 21.75 11.9171 21.75C16.6907 21.75 20.3401 17.8846 20.3978 13.6154C20.436 10.7887 18.9406 7.81041 16.3594 6.34615ZM11.9747 20.0769C10.7867 20.0769 9.60942 19.2115 9.60942 17.7692C9.60942 16.8758 10.0067 16.4311 10.4171 16.0385L11.9747 14.4808L13.8209 16.2692C14.2205 16.6618 14.3978 17.3077 14.3978 17.9423C14.3978 18.9231 13.4171 20.0769 11.9747 20.0769ZM15.8978 18.8654C15.941 18.4834 16.4904 16.5843 15.0324 15.1731L11.9609 12.2308L8.97475 15.1731C7.50595 16.5949 8.00848 18.5046 8.05168 18.8654C7.41706 18.4038 6.26323 17.1923 5.85938 16.1538C5.4794 15.3304 5.22468 14.3065 5.22476 13.4023C5.22476 9.75 8.34014 6.46154 10.0709 5.30769C10.0709 6.34615 10.6038 7.55591 11.3978 8.25C12.1919 8.94409 13.0465 9.28691 14.1094 9.28846C14.9518 9.28846 15.8412 8.99471 16.5324 8.53846C17.9171 9.69231 18.7254 11.6506 18.7247 13.3846C18.7824 15.8654 17.3978 17.8269 15.8978 18.8654Z" fill="#242424"/>
</g>
</svg>
