<svg width="36" height="36" viewBox="0 0 36 36" fill="none" xmlns="http://www.w3.org/2000/svg">
<g id="Custom Wildfire Icon 3">
<path id="Vector" d="M24.5401 9.51923L24.1939 10.0385C23.242 11.1635 22.3766 11.5096 21.1651 11.5096C19.1746 11.5096 17.617 9.95193 17.617 7.875V3.375C17.617 3.375 5.41504 9.69231 5.41504 20.1035C5.41504 27.1383 11.2997 32.625 17.8766 32.625C25.037 32.625 30.5112 26.8269 30.5977 20.4231C30.655 16.1831 28.4119 11.7156 24.5401 9.51923ZM17.963 30.1154C16.181 30.1154 14.4151 28.8172 14.4151 26.6538C14.4151 25.3137 15.011 24.6467 15.6266 24.0578L17.963 21.7212L20.7323 24.4038C21.3317 24.9927 21.5977 25.9616 21.5977 26.9135C21.5977 28.3847 20.1266 30.1154 17.963 30.1154ZM23.8477 28.2981C23.9125 27.7251 24.7366 24.8765 22.5496 22.7597L17.9423 18.3462L13.4631 22.7597C11.2599 24.8924 12.0137 27.7569 12.0785 28.2981C11.1266 27.6057 9.39581 25.7884 8.79004 24.2307C8.22008 22.9956 7.83799 21.4597 7.83811 20.1035C7.83811 14.625 12.5112 9.69231 15.1073 7.96154C15.1073 9.51923 15.9067 11.3339 17.0977 12.375C18.2888 13.4161 19.5707 13.9304 21.1651 13.9327C22.4287 13.9327 23.7628 13.4921 24.7996 12.8077C26.8766 14.5385 28.0891 17.4759 28.0881 20.0769C28.1746 23.7981 26.0977 26.7404 23.8477 28.2981Z" fill="#1A5A96"/>
</g>
</svg>
