<svg width="20" height="23" viewBox="0 0 20 23" fill="none" xmlns="http://www.w3.org/2000/svg">
    <path id="Vector" d="M15.1362 4.83136L14.864 5.23965C14.1154 6.12426 13.435 6.39645 12.4823 6.39645C10.9172 6.39645 9.69237 5.1716 9.69237 3.53846V0C9.69237 0 0.0976562 4.96746 0.0976562 13.154C0.0976562 18.6857 4.72488 23 9.89654 23C15.5269 23 19.8314 18.4408 19.8994 13.4053C19.9445 10.0713 18.1807 6.55843 15.1362 4.83136ZM9.96448 21.0266C8.56325 21.0266 7.17463 20.0059 7.17463 18.3047C7.17463 17.2509 7.64325 16.7264 8.12731 16.2634L9.96448 14.4261L12.142 16.5355C12.6134 16.9985 12.8225 17.7604 12.8225 18.5089C12.8225 19.6657 11.6658 21.0266 9.96448 21.0266ZM14.5917 19.5977C14.6427 19.1471 15.2907 16.9071 13.571 15.2426L9.9482 11.7722L6.42605 15.2426C4.69362 16.9196 5.28635 19.1721 5.3373 19.5977C4.58878 19.0532 3.22784 17.6243 2.7515 16.3994C2.30333 15.4282 2.00288 14.2205 2.00298 13.154C2.00298 8.84615 5.67754 4.96746 7.71897 3.60651C7.71897 4.83136 8.34752 6.25825 9.28403 7.07692C10.2207 7.89559 11.2287 8.29994 12.4823 8.30177C13.4759 8.30177 14.525 7.9553 15.3402 7.41716C16.9735 8.77811 17.9268 11.0879 17.926 13.1331C17.9941 16.0592 16.361 18.3728 14.5917 19.5977Z" fill="#FDFDFD"/>
    </svg>
    