<svg width="18" height="20" viewBox="0 0 18 20" fill="none" xmlns="http://www.w3.org/2000/svg">
<path d="M13.3594 4.34615L13.1286 4.69231C12.494 5.44231 11.9171 5.67308 11.1094 5.67308C9.78243 5.67308 8.74403 4.63462 8.74403 3.25V0.25C8.74403 0.25 0.609375 4.46154 0.609375 11.4023C0.609375 16.0922 4.53246 19.75 8.91713 19.75C13.6907 19.75 17.3401 15.8846 17.3978 11.6154C17.436 8.7887 15.9406 5.81041 13.3594 4.34615ZM8.97473 18.0769C7.78673 18.0769 6.60942 17.2115 6.60942 15.7692C6.60942 14.8758 7.00673 14.4311 7.41713 14.0385L8.97473 12.4808L10.8209 14.2692C11.2205 14.6618 11.3978 15.3077 11.3978 15.9423C11.3978 16.9231 10.4171 18.0769 8.97473 18.0769ZM12.8978 16.8654C12.941 16.4834 13.4904 14.5843 12.0324 13.1731L8.96093 10.2308L5.97476 13.1731C4.50596 14.5949 5.00849 16.5046 5.05169 16.8654C4.41707 16.4038 3.26323 15.1923 2.85938 14.1538C2.47941 13.3304 2.22468 12.3065 2.22476 11.4023C2.22476 7.75 5.34015 4.46154 7.07093 3.30769C7.07093 4.34615 7.60383 5.55591 8.39783 6.25C9.19193 6.94409 10.0465 7.28691 11.1094 7.28846C11.9518 7.28846 12.8412 6.99471 13.5324 6.53846C14.9171 7.69231 15.7254 9.6506 15.7247 11.3846C15.7824 13.8654 14.3978 15.8269 12.8978 16.8654Z" fill="#666666"/>
</svg>
