<svg width="28" height="29" viewBox="0 0 28 29" fill="none" xmlns="http://www.w3.org/2000/svg">
    <g id="carbon:fire">
    <path id="Vector" d="M19.1635 9.83136L18.8913 10.2396C18.1428 11.1243 17.4623 11.3965 16.5097 11.3965C14.9445 11.3965 13.7197 10.1716 13.7197 8.53846V5C13.7197 5 4.125 9.96746 4.125 18.154C4.125 23.6857 8.75222 28 13.9239 28C19.5543 28 23.8587 23.4408 23.9268 18.4053C23.9718 15.0713 22.208 11.5584 19.1635 9.83136ZM13.9918 26.0266C12.5906 26.0266 11.202 25.0059 11.202 23.3047C11.202 22.2509 11.6706 21.7264 12.1547 21.2634L13.9918 19.4261L16.1694 21.5355C16.6407 21.9985 16.8498 22.7604 16.8498 23.5089C16.8498 24.6657 15.6931 26.0266 13.9918 26.0266ZM18.6191 24.5977C18.67 24.1471 19.318 21.9071 17.5983 20.2426L13.9755 16.7722L10.4534 20.2426C8.72097 21.9196 9.31369 24.1721 9.36465 24.5977C8.61612 24.0532 7.25518 22.6243 6.77885 21.3994C6.33068 20.4282 6.03023 19.2205 6.03032 18.154C6.03032 13.8462 9.70488 9.96746 11.7463 8.60651C11.7463 9.83136 12.3749 11.2583 13.3114 12.0769C14.248 12.8956 15.256 13.2999 16.5097 13.3018C17.5033 13.3018 18.5523 12.9553 19.3676 12.4172C21.0008 13.7781 21.9542 16.0879 21.9534 18.1331C22.0214 21.0592 20.3883 23.3728 18.6191 24.5977Z" fill="#242424"/>
    </g>
    </svg>
    