<svg width="20" height="20" viewBox="0 0 20 20" fill="none" xmlns="http://www.w3.org/2000/svg">
<g id="Details 20x20">
<path id="Vector" d="M13.6338 5.28846L13.4415 5.57692C12.9127 6.20192 12.4319 6.39423 11.7588 6.39423C10.653 6.39423 9.78766 5.52885 9.78766 4.375V1.875C9.78766 1.875 3.00879 5.38462 3.00879 11.1686C3.00879 15.0768 6.27802 18.125 9.93191 18.125C13.9099 18.125 16.9511 14.9038 16.9992 11.3462C17.031 8.99058 15.7848 6.50867 13.6338 5.28846ZM9.97991 16.7308C8.98991 16.7308 8.00882 16.0096 8.00882 14.8077C8.00882 14.0632 8.33991 13.6926 8.68191 13.3654L9.97991 12.0673L11.5184 13.5577C11.8514 13.8848 11.9992 14.4231 11.9992 14.9519C11.9992 15.7692 11.1819 16.7308 9.97991 16.7308ZM13.2492 15.7212C13.2852 15.4028 13.743 13.8203 12.528 12.6442L9.96841 10.1923L7.47994 12.6442C6.25594 13.8291 6.67471 15.4205 6.71071 15.7212C6.18186 15.3365 5.22033 14.3269 4.88379 13.4615C4.56715 12.7753 4.35487 11.9221 4.35494 11.1686C4.35494 8.125 6.9511 5.38462 8.39341 4.42307C8.39341 5.28846 8.8375 6.29659 9.49916 6.875C10.1609 7.45341 10.8731 7.73909 11.7588 7.74038C12.4608 7.74038 13.202 7.49559 13.778 7.11538C14.9319 8.07692 15.6055 9.70883 15.6049 11.1538C15.653 13.2212 14.4992 14.8558 13.2492 15.7212Z" fill="#D8292F"/>
</g>
</svg>
