<svg width="28" height="29" viewBox="0 0 28 29" fill="none" xmlns="http://www.w3.org/2000/svg">
<g id="carbon:logo-youtube">
<path id="Vector" d="M25.7344 8.60255C25.595 8.08458 25.322 7.61232 24.9427 7.23303C24.5634 6.85374 24.0911 6.58072 23.5732 6.4413C21.6657 5.92505 14.0007 5.92505 14.0007 5.92505C14.0007 5.92505 6.33566 5.92505 4.42816 6.4413C3.91019 6.58072 3.43793 6.85374 3.05864 7.23303C2.67935 7.61232 2.40633 8.08458 2.26691 8.60255C1.91074 10.5479 1.73789 12.5224 1.75066 14.5C1.73789 16.4777 1.91074 18.4522 2.26691 20.3975C2.40633 20.9155 2.67935 21.3878 3.05864 21.7671C3.43793 22.1464 3.91019 22.4194 4.42816 22.5588C6.33566 23.075 14.0007 23.075 14.0007 23.075C14.0007 23.075 21.6657 23.075 23.5732 22.5588C24.0911 22.4194 24.5634 22.1464 24.9427 21.7671C25.322 21.3878 25.595 20.9155 25.7344 20.3975C26.0906 18.4522 26.2634 16.4777 26.2507 14.5C26.2634 12.5224 26.0906 10.5479 25.7344 8.60255ZM11.5507 18.175V10.825L17.9119 14.5L11.5507 18.175Z" fill="#1A5A96"/>
</g>
</svg>
