<svg xmlns="http://www.w3.org/2000/svg" xmlns:xlink="http://www.w3.org/1999/xlink" version="1.1" width="256" height="256" viewBox="0 0 256 256" xml:space="preserve">

<defs>
</defs>
<g style="stroke: none; stroke-width: 0; stroke-dasharray: none; stroke-linecap: butt; stroke-linejoin: miter; stroke-miterlimit: 10; fill: none; fill-rule: nonzero; opacity: 1;" transform="translate(1.4065934065934016 1.4065934065934016) scale(2.81 2.81)" >
	<path d="M 45 90 C 20.187 90 0 69.813 0 45 C 0 20.187 20.187 0 45 0 c 24.813 0 45 20.187 45 45 c 0 2.301 -0.175 4.611 -0.521 6.867 c -0.252 1.639 -1.792 2.759 -3.42 2.512 c -1.638 -0.251 -2.762 -1.782 -2.512 -3.42 C 83.848 49.002 84 46.997 84 45 C 84 23.495 66.505 6 45 6 S 6 23.495 6 45 s 17.495 39 39 39 c 10.434 0 20.239 -4.068 27.609 -11.456 c 1.17 -1.173 3.069 -1.175 4.243 -0.005 c 1.173 1.171 1.175 3.07 0.005 4.243 C 68.354 85.306 57.039 90 45 90 z" style="stroke: none; stroke-width: 1; stroke-dasharray: none; stroke-linecap: butt; stroke-linejoin: miter; stroke-miterlimit: 10; fill: rgb(0,0,0); fill-rule: nonzero; opacity: 1;" transform=" matrix(1 0 0 1 0 0) " stroke-linecap="round" />
	<path d="M 45 90 c -12.757 0 -19.641 -23.186 -19.641 -45 c 0 -21.815 6.884 -45 19.641 -45 c 7.963 0 14.622 9.55 17.813 25.546 c 0.324 1.625 -0.73 3.205 -2.355 3.529 c -1.629 0.325 -3.205 -0.731 -3.529 -2.355 C 54.089 12.484 48.755 6 45 6 c -6.439 0 -13.641 16.679 -13.641 39 S 38.561 84 45 84 c 3.952 0 8.359 -6.645 10.965 -16.534 c 0.423 -1.603 2.06 -2.558 3.666 -2.137 c 1.602 0.423 2.559 2.063 2.137 3.666 C 58.249 82.344 52.138 90 45 90 z" style="stroke: none; stroke-width: 1; stroke-dasharray: none; stroke-linecap: butt; stroke-linejoin: miter; stroke-miterlimit: 10; fill: rgb(0,0,0); fill-rule: nonzero; opacity: 1;" transform=" matrix(1 0 0 1 0 0) " stroke-linecap="round" />
	<path d="M 45.479 48 H 3 c -1.657 0 -3 -1.343 -3 -3 c 0 -1.657 1.343 -3 3 -3 h 42.479 c 1.657 0 3 1.343 3 3 C 48.479 46.657 47.136 48 45.479 48 z" style="stroke: none; stroke-width: 1; stroke-dasharray: none; stroke-linecap: butt; stroke-linejoin: miter; stroke-miterlimit: 10; fill: rgb(0,0,0); fill-rule: nonzero; opacity: 1;" transform=" matrix(1 0 0 1 0 0) " stroke-linecap="round" />
	<path d="M 18.035 11.33 l 8.937 2.985 c 0.196 0.088 0.243 0.345 0.091 0.497 l -1.537 1.537 l 4.726 4.726 c 0.145 0.145 0.145 0.381 0 0.527 L 27.9 23.953 c -0.145 0.145 -0.381 0.145 -0.527 0 l -4.726 -4.726 l -1.537 1.537 c -0.152 0.152 -0.409 0.105 -0.497 -0.091 l -2.985 -8.937 C 17.514 11.478 17.778 11.215 18.035 11.33 z" style="stroke: none; stroke-width: 1; stroke-dasharray: none; stroke-linecap: butt; stroke-linejoin: miter; stroke-miterlimit: 10; fill: rgb(0,0,0); fill-rule: nonzero; opacity: 1;" transform=" matrix(2.8008 0 0 2.8008 1.9639999999999986 1.9639999999999702) " stroke-linecap="round" />
</g>
</svg>