<svg width="25" height="25" viewBox="0 0 100 99" fill="none" xmlns="http://www.w3.org/2000/svg">
<path d="M4.89198 10.9033L16.6944 30.574C16.9941 31.0735 16.8051 31.7224 16.2841 31.9829L4.24095 38.0045C3.63045 38.3098 3.49842 39.1234 3.98106 39.6061L16.5429 52.1679C16.9334 52.5584 16.9334 53.1916 16.5429 53.5821L4.44578 65.6792C3.85736 66.2676 4.20313 67.2754 5.02885 67.3786L20.7896 69.3487C21.4158 69.427 21.8138 70.0585 21.6143 70.6572L17.8261 82.0218C17.5765 82.7704 18.2517 83.4996 19.0173 83.3082L35.1743 79.2689C35.7496 79.1251 36.3229 79.5106 36.4068 80.0976L38.3924 93.9966C38.4984 94.7389 39.3534 95.1047 39.9636 94.6689L54.5607 84.2424C54.9585 83.9583 55.5033 84.0033 55.849 84.349L63.0429 91.5429C63.6729 92.1729 64.75 91.7267 64.75 90.8358V80.2466C64.75 79.6069 65.3424 79.1316 65.9669 79.2704L84.2762 83.3392C85.0609 83.5135 85.7201 82.7379 85.4216 81.9916L77.1736 61.3714C76.9108 60.7145 77.3946 60 78.102 60H91.1694C92.0079 60 92.4741 59.0301 91.9502 58.3753L84.4314 48.9767C84.065 48.5188 84.1696 47.8453 84.6575 47.52L95.7636 40.1159C96.5345 39.602 96.2523 38.4065 95.3329 38.2916L80.3186 36.4148C79.6584 36.3323 79.2614 35.6401 79.5234 35.0286L85.5276 21.0189C85.8104 20.3591 85.3264 19.625 84.6085 19.625H70.2543C69.8078 19.625 69.4154 19.329 69.2928 18.8997L65.1784 4.49934C64.9781 3.79849 64.1195 3.54044 63.5661 4.0148L49.0974 16.4165C48.6035 16.8399 47.8432 16.6863 47.5522 16.1044L43.9955 8.99095C43.6902 8.38045 42.8766 8.24842 42.3939 8.73106L29.6541 21.4709C29.3404 21.7846 28.8576 21.8541 28.4681 21.6417L6.22832 9.5109C5.33359 9.02287 4.36762 10.0294 4.89198 10.9033Z" stroke="#F83C3C" stroke-width="7"/>
</svg>
