<svg xmlns="http://www.w3.org/2000/svg" width="20" height="20"><path style="line-height:normal;font-variant-ligatures:normal;font-variant-position:normal;font-variant-caps:normal;font-variant-numeric:normal;font-variant-alternates:normal;font-variant-east-asian:normal;font-feature-settings:normal;font-variation-settings:normal;text-indent:0;text-align:start;text-decoration-line:none;text-decoration-style:solid;text-decoration-color:#000;text-transform:none;text-orientation:mixed;white-space:normal;shape-padding:0;shape-margin:0;inline-size:0;isolation:auto;mix-blend-mode:normal;solid-color:#000;solid-opacity:1" d="M10.002-.002c-1.542 0-2.799 1.272-2.799 2.82 0 1.55 1.257 2.82 2.799 2.82s2.797-1.27 2.797-2.82c0-1.548-1.255-2.82-2.797-2.82zM7.711 4.66l-.336.227A4.782 4.782 0 005.273 8.85c0 .575.474 1.056 1.051 1.056h7.354c.577 0 1.05-.481 1.05-1.056a4.782 4.782 0 00-2.101-3.963l-.334-.227-.293.281a2.868 2.868 0 01-3.998 0l-.291-.28zm.125 6.23a3.188 3.188 0 00-1.84.434l-4.621 2.694c-.498.29-.67.941-.385 1.441l2.295 4.012a1.054 1.054 0 001.44.388l1.953-1.138 4.304.281a3.231 3.231 0 001.84-.434l5.393-3.142a1.91 1.91 0 00.553-2.785 1.876 1.876 0 00-2.436-.49l-2.648 1.542-.018.266a1.998 1.998 0 01-2.525 1.793l-2.391-.647c-.031-.008-.047-.032-.037-.07.01-.038.031-.047.062-.039l2.426.656a1.887 1.887 0 002.303-1.34 1.899 1.899 0 00-1.328-2.314L8.47 10.996a3.272 3.272 0 00-.635-.105z" color="#000" font-weight="400" font-family="sans-serif" overflow="visible" fill="#fff" paint-order="markers stroke fill"/><path style="line-height:normal;font-variant-ligatures:normal;font-variant-position:normal;font-variant-caps:normal;font-variant-numeric:normal;font-variant-alternates:normal;font-variant-east-asian:normal;font-feature-settings:normal;font-variation-settings:normal;text-indent:0;text-align:start;text-decoration-line:none;text-decoration-style:solid;text-decoration-color:#000;text-transform:none;text-orientation:mixed;white-space:normal;shape-padding:0;shape-margin:0;inline-size:0;isolation:auto;mix-blend-mode:normal;solid-color:#000;solid-opacity:1" d="M12.299 2.818A2.309 2.309 0 0110 5.138a2.309 2.309 0 01-2.298-2.32 2.309 2.309 0 012.298-2.32 2.309 2.309 0 012.298 2.32zM6.325 9.406h7.352c.305 0 .552-.25.552-.557a4.278 4.278 0 00-1.881-3.548 3.371 3.371 0 01-4.693 0 4.278 4.278 0 00-1.881 3.548c0 .308.246.557.55.557zm12.042 3.535a1.361 1.361 0 00-.58-.445 1.362 1.362 0 00-1.203.086l-2.42 1.41a2.522 2.522 0 01-.12.62 2.503 2.503 0 01-3.034 1.623l-2.39-.647a.557.557 0 01.285-1.075l2.427.656a1.377 1.377 0 001.689-.984 1.393 1.393 0 00-.975-1.705L8.34 11.478a2.716 2.716 0 00-2.092.278L1.627 14.45a.56.56 0 00-.202.76l2.295 4.013a.552.552 0 00.753.204l2.084-1.215 4.458.29a2.728 2.728 0 001.556-.367l5.391-3.142c.71-.414.917-1.372.405-2.052z" color="#000" font-weight="400" font-family="sans-serif" overflow="visible" fill="#a7a9ac" paint-order="markers stroke fill"/></svg>