<svg xmlns="http://www.w3.org/2000/svg" width="20" height="20"><path style="line-height:normal;font-variant-ligatures:normal;font-variant-position:normal;font-variant-caps:normal;font-variant-numeric:normal;font-variant-alternates:normal;font-variant-east-asian:normal;font-feature-settings:normal;font-variation-settings:normal;text-indent:0;text-align:start;text-decoration-line:none;text-decoration-style:solid;text-decoration-color:#000;text-transform:none;text-orientation:mixed;white-space:normal;shape-padding:0;shape-margin:0;inline-size:0;isolation:auto;mix-blend-mode:normal;solid-color:#000;solid-opacity:1" d="M5.139.988c-.201.003-.402.064-.577.186L3.55 1.88a1.047 1.047 0 00-.256 1.447l.031.043-.123.086-.431.106L.553 4.1a.726.726 0 00-.551.746c.033.53.187 1.935 1.066 3.191.88 1.257 2.146 1.882 2.633 2.096v-.002c.318.14.699.028.89-.26l1.266-1.896.248-.371.122-.084 5.892 8.416c.326.465.982.58 1.447.255l1.014-.709c.466-.325.582-.98.256-1.445l-5.9-8.43c.378-.355.453-.952.148-1.388L7.404 1.82a1.075 1.075 0 00-1.486-.261l.123-.086-.031-.045a1.044 1.044 0 00-.871-.44zm9.722 0a1.043 1.043 0 00-.87.44l-.032.045.123.086a1.075 1.075 0 00-1.486.261l-1.68 2.399a1.074 1.074 0 00.148 1.388l-.914 1.307 2.024 2.89 1.6-2.284.12.084 1.514 2.267c.193.289.572.4.89.26.488-.214 1.754-.837 2.634-2.094.88-1.256 1.032-2.659 1.066-3.19v-.001a.727.727 0 00-.55-.746l-2.65-.643-.12-.086.029-.043a1.047 1.047 0 00-.256-1.447l-1.014-.71a1.025 1.025 0 00-.576-.183zm-7.035 9.244l-.408.586-2.254 3.22c-.326.465-.21 1.119.256 1.444l1.014.71c.465.325 1.121.209 1.447-.256l1.97-2.813-2.025-2.89z" color="#000" font-weight="400" font-family="sans-serif" overflow="visible" fill="#fff" paint-order="markers stroke fill"/><path style="line-height:normal;font-variant-ligatures:normal;font-variant-position:normal;font-variant-caps:normal;font-variant-numeric:normal;font-variant-alternates:normal;font-variant-east-asian:normal;font-feature-settings:normal;font-variation-settings:normal;text-indent:0;text-align:start;text-decoration-line:none;text-decoration-style:solid;text-decoration-color:#000;text-transform:none;text-orientation:mixed;white-space:normal;shape-padding:0;shape-margin:0;inline-size:0;isolation:auto;mix-blend-mode:normal;solid-color:#000;solid-opacity:1" d="M14.426 14.323L8.247 5.496l.287-.2a.567.567 0 00.14-.79L6.995 2.107a.568.568 0 00-.79-.14l-.287.2-.317-.453a.54.54 0 00-.752-.133l-1.013.709a.539.539 0 00-.133.751l.317.453-.609.425-.524.127-2.217.538a.223.223 0 00-.17.23c.03.481.186 1.803.978 2.935.793 1.132 1.982 1.73 2.424 1.924.099.043.214.01.274-.08l1.266-1.897.299-.449.608-.425 6.18 8.827a.54.54 0 00.75.132l1.014-.708a.539.539 0 00.133-.751zm-6.6-3.219l-2.252 3.219a.539.539 0 00.133.75l1.013.71a.54.54 0 00.752-.133l1.768-2.527zm11.504-6.52l-2.741-.664-.609-.425.317-.453a.539.539 0 00-.133-.751l-1.013-.709a.54.54 0 00-.752.133l-.317.453-.286-.2a.568.568 0 00-.791.14l-1.679 2.397a.567.567 0 00.14.79l.287.201-.993 1.418 1.413 2.02 1.478-2.111.608.425 1.565 2.345c.06.09.175.124.274.08.442-.193 1.631-.791 2.424-1.923.792-1.132.947-2.454.978-2.935a.222.222 0 00-.17-.23z" color="#000" font-weight="400" font-family="sans-serif" overflow="visible" fill="#009e73" paint-order="markers stroke fill"/></svg>