<svg xmlns="http://www.w3.org/2000/svg" width="430.667" height="430.667" viewBox="0 0 323 323" xmlns:v="https://vecta.io/nano"><g transform="matrix(.878 0 0 .878 19.7 19.7)"><path d="M94.5 0L0 94.5l.001 134L94.5 323h134l94.5-94.5v-134L228.5.001z" dominant-baseline="auto" fill="#fff" stroke="#fff" stroke-linejoin="round" stroke-width="45" paint-order="markers stroke fill"/><path d="M94.5 0L0 94.5l.001 134L94.5 323h134l94.5-94.5v-134L228.5.001z" dominant-baseline="auto" fill="maroon" paint-order="markers stroke fill"/><path d="M101 16l-85.2 85.2v120l85.2 85.2h120l85.2-85.2v-120L221 16z" dominant-baseline="auto" fill="none" stroke="#d40000" stroke-width="15" paint-order="markers stroke fill"/><path d="M290.78 107.676l-.055 107.28-75.845 75.87-107.28-.055-75.87-75.845.055-107.28 75.845-75.87 107.28.055z" fill="#fff" paint-order="markers stroke fill"/><path d="M103 95.7c-2.53 1.06-24.8 24.1-25.3 26.2-.774 2.9.07 6.7 2.9 13.4 15.4 36.9 71.9 92 108 106 3.73 1.4 5.42 1.7 7.95 1.34 2.96-.422 3.94-1.27 15.2-12.5 12.9-12.9 13.8-14.4 12.3-19-.563-1.62-5.9-7.4-16.8-18.2-20.3-20.1-19.7-19.9-30.3-9.5l-5.77 5.77-40.4-40.4 6.12-6.33c6.12-6.33 6.12-6.33 6.12-10.1v-3.66l-15.6-15.8c-8.66-8.66-16.5-16.2-17.6-16.7-2.1-1.06-5.07-1.2-7.25-.28zm77.8-9.92c-.985.985-1.48 2.4-1.48 4.15 0 7.32-3.66 15.3-11.4 25.1-7.53 9.5-8.66 12.4-8.66 21.8 0 6.76.21 8.16 1.7 10.9 3.3 6.4 8.6 10.3 16.1 11.9 5.63 1.2 5.56 1.2 6.12-3.24.282-2.25 1.13-6.12 1.9-8.66 1.55-4.93 6.4-15.1 7.6-15.8.985-.633 7.32 12.9 8.73 18.7.633 2.53 1.13 5.77 1.13 7.25v2.67l3.38-.422c7.53-1.06 10.7-2.46 14.6-6.33 3.1-3.17 3.94-4.57 5.28-8.87 1.27-4.3 1.48-6.12 1.13-11.5-.704-11-4.22-19.4-8.23-19.4-.844 0-3.8 2.25-7.04 5.28-8.6 8.02-8.37 8.02-7.95-.563.704-13.5-4.08-24.6-13.3-31-4.93-3.38-7.67-3.94-9.64-1.97z" fill="maroon" paint-order="markers stroke fill"/><path d="M186 94c-1.4 13.4-12.2 22.7-18.3 33.9-4.02 8.6-1.9 21.5 8.27 24.5 2.28.517 1.4-4.28 2.53-5.88 2.34-7.63 5.43-16.1 12-20.9 2.37-1.16 5.88.477 7.1 1.42-2.42-5.68.83-11.8-1.18-17.7-1.3-6.42-4.54-13-10.4-16.3l-.08.847zm-80.1 8.37c-6.62 4.6-11 11.7-17.2 16.8-3.13 2.45-5.15 6.3-2.95 10.1 5.93 17.6 18.6 31.8 30.2 46.1 21.2 24.2 46 45.9 75.3 59.4 4.55 2.2 8.42-1.2 11-4.65 5.02-5.6 11.8-10.2 15.5-16.7-3.34-5.87-9.73-9.52-13.9-14.9-5.15-5.3-10.2-11.8-16.9-14.9-5.28 3.57-8.1 12.2-15.7 11.5-8.03-1-11.1-9.78-17-14.1l-31.8-31.9c3.05-7.2 12.2-10.2 14.1-17.7-3.88-5.65-9.98-9.32-14.3-14.7-5.13-4.86-9.98-11.7-16.3-14.4zm112 20.5c-4.26 4.18-9.8 11.4-16.6 8.2-1.6-1.05 1.26 2.53 1.3 3.54 2.74 5.9 5.34 12 6.46 18.4 9.67-2.46 13-13.5 11.1-22.3-.337-2.58-.807-5.98-2.22-7.8z" fill="#d40000" paint-order="markers stroke fill"/></g></svg>