<svg width="288" height="256" viewBox="0 0 288 256" fill="none" xmlns="http://www.w3.org/2000/svg">
<path d="M126.53 149.714C126.53 151.214 129.03 152.714 128.53 154.714C128.03 156.714 123.015 156.5 118.015 158.5C113.015 160.5 112.515 163.5 108.515 164C104.515 164.5 102.515 163 102.015 161.5C101.515 160 113.515 141 119.015 141C124.515 141 127.341 143.302 127.515 146.5C127.62 148.42 126.53 148.214 126.53 149.714Z" fill="#828489"/>
<path d="M150.515 178.5C151.015 172 146.515 166 138.515 162.5C130.515 159 123.015 161 116.015 164C109.015 167 105.515 170.5 106.015 174.5C106.515 178.5 113.015 175.5 122.015 181C131.015 186.5 131.015 191 136.515 191C142.015 191 150.015 185 150.515 178.5Z" fill="#828489"/>
<path d="M192.515 189.5C194.015 187.5 178.015 158.5 170.515 162C163.015 165.5 148.515 182 152.015 192.5C155.515 203 183.015 200.5 184.515 198.5C186.015 196.5 184.515 194 186.015 193C187.515 192 191.015 191.5 192.515 189.5Z" fill="#828489"/>
<path d="M194.515 175.5C195.515 168 201.015 159.5 209.015 156.5C217.015 153.5 237.015 175 232.515 180.5C230.644 182.787 227.049 179.357 225.015 181.5C223.483 183.115 225.515 185.5 223.515 187C221.515 188.5 204.515 189.5 198.015 187C193.851 185.399 193.926 179.922 194.515 175.5Z" fill="#828489"/>
<path d="M233.015 165.5C225.515 164.5 227.884 162.041 223.015 158.5C220.541 156.701 217.735 155.225 217.515 154C217.247 152.501 218.902 151.379 219.015 150.5C219.239 148.757 216.848 146.813 218.015 145.5C222.015 141 245.28 142.117 243.015 152.5C241.78 158.166 239.461 166.359 233.015 165.5Z" fill="#828489"/>
<path d="M209.515 139.5C205.861 138.89 202.539 143.893 200.015 142C198.015 140.5 205.261 133.644 210.015 134C214.478 134.334 218.515 141 216.015 142.5C215.158 143.014 212.455 139.991 209.515 139.5Z" fill="#828489"/>
<path d="M179.748 152.356C179.748 154.5 193.102 157.583 201.748 156.356C206.535 155.676 203.515 153 206.515 153C209.515 153 213.015 154.5 214.015 152C214.944 149.679 215.815 145.414 212.515 144C209.015 142.5 198.515 147 198.515 147C198.515 147 179.748 149.5 179.748 152.356Z" fill="#828489"/>
<path d="M196.515 161.5C198.015 163.5 194.293 168.611 190.515 170.5C185.515 173 178.515 156.5 168.515 159.5C165.169 160.504 166.004 161.674 162.515 161.5C152.515 161 130.515 153.5 130.515 151.5C130.515 149.5 133.015 144.5 135.515 143.5C138.015 142.5 195.015 159.5 196.515 161.5Z" fill="#828489"/>
<path d="M152.515 170.5L146.015 161.5L159.515 166L152.515 170.5Z" fill="#828489"/>
<path d="M136.515 136.5C140.015 136 147.015 141 147.015 142C147.015 143 138.515 139.5 136.515 139C134.515 138.5 129.515 143 129.015 142.5C128.515 142 133.015 137 136.515 136.5Z" fill="#828489"/>
<path d="M134.515 91.5L128.515 84.5C128.515 84.5 128.515 104 133.015 117.5C137.515 131 157.015 143 157.015 143C157.015 143 149.015 130 151.015 116C153.015 102 159.515 89.5 159.515 89.5L162.015 100C162.015 100 166.015 92.5 166.515 85C167.015 77.5 165.015 69 165.015 69C165.015 69 171.515 75.5 177.515 83C183.515 90.5 188.015 100 188.015 100L193.515 95C193.515 95 195.015 102.5 195.015 106.5C195.015 110.5 194.015 120 194.015 120L199.515 116C199.515 116 199.515 121 198.515 127C197.515 133 195.015 138 195.015 138C195.015 138 217.015 126.5 215.015 96.5C213.015 66.5 198.015 39 198.015 39L193.515 55.5C193.515 55.5 186.015 42 185.015 32C184.015 22 190.515 0 190.515 0C190.515 0 174.015 16 165.515 26.5C157.015 37 148.015 58.5 148.015 58.5L137.515 46C137.515 46 139.515 63.5 139.015 73C138.515 82.5 134.515 91.5 134.515 91.5Z" fill="#828489"/>
<path d="M67 219H272" stroke="#828489" stroke-width="7"/>
<path d="M70 222L70 16" stroke="#828489" stroke-width="7"/>
<path d="M70 0L79.5263 16.5H60.4737L70 0Z" fill="#828489"/>
<path d="M288 219L271.5 228.526L271.5 209.474L288 219Z" fill="#828489"/>
<path d="M153.404 251.344C152.09 251.339 150.959 251.015 150.012 250.373C149.069 249.732 148.343 248.802 147.834 247.584C147.33 246.367 147.08 244.902 147.085 243.191C147.085 241.484 147.337 240.03 147.841 238.828C148.351 237.626 149.077 236.711 150.019 236.085C150.967 235.453 152.095 235.137 153.404 235.137C154.713 235.137 155.839 235.453 156.782 236.085C157.729 236.716 158.457 237.633 158.967 238.835C159.476 240.033 159.728 241.484 159.723 243.191C159.723 244.908 159.469 246.375 158.959 247.592C158.455 248.81 157.732 249.739 156.789 250.381C155.847 251.023 154.718 251.344 153.404 251.344ZM153.404 248.601C154.301 248.601 155.016 248.15 155.551 247.248C156.086 246.347 156.351 244.994 156.346 243.191C156.346 242.004 156.224 241.016 155.979 240.226C155.74 239.437 155.399 238.843 154.955 238.446C154.517 238.048 154 237.85 153.404 237.85C152.513 237.85 151.8 238.295 151.265 239.187C150.73 240.078 150.46 241.413 150.455 243.191C150.455 244.393 150.574 245.397 150.814 246.201C151.058 247.001 151.402 247.602 151.845 248.005C152.289 248.402 152.808 248.601 153.404 248.601ZM163.385 251.199C162.881 251.199 162.448 251.02 162.086 250.664C161.73 250.302 161.551 249.869 161.551 249.365C161.551 248.866 161.73 248.438 162.086 248.081C162.448 247.725 162.881 247.546 163.385 247.546C163.874 247.546 164.302 247.725 164.669 248.081C165.036 248.438 165.219 248.866 165.219 249.365C165.219 249.701 165.133 250.009 164.959 250.289C164.791 250.564 164.57 250.786 164.295 250.954C164.02 251.117 163.716 251.199 163.385 251.199ZM173.451 251.214C172.371 251.214 171.408 251.015 170.562 250.618C169.722 250.221 169.054 249.673 168.56 248.975C168.066 248.277 167.809 247.477 167.788 246.576H170.998C171.033 247.182 171.288 247.674 171.762 248.051C172.236 248.428 172.798 248.616 173.451 248.616C173.97 248.616 174.429 248.501 174.826 248.272C175.228 248.038 175.542 247.714 175.766 247.302C175.995 246.884 176.11 246.405 176.11 245.865C176.11 245.315 175.992 244.831 175.758 244.413C175.529 243.996 175.211 243.67 174.803 243.435C174.395 243.201 173.929 243.081 173.405 243.076C172.946 243.076 172.5 243.17 172.067 243.359C171.64 243.547 171.306 243.805 171.067 244.131L168.125 243.603L168.866 235.351H178.433V238.056H171.594L171.189 241.976H171.28C171.556 241.589 171.971 241.268 172.526 241.013C173.081 240.758 173.703 240.631 174.39 240.631C175.333 240.631 176.173 240.853 176.912 241.296C177.651 241.739 178.234 242.348 178.662 243.122C179.09 243.891 179.301 244.778 179.296 245.781C179.301 246.836 179.057 247.773 178.562 248.593C178.073 249.408 177.388 250.05 176.507 250.519C175.631 250.982 174.612 251.214 173.451 251.214ZM181.634 251V239.263H184.736V241.334H184.874C185.118 240.646 185.526 240.104 186.096 239.707C186.667 239.309 187.35 239.111 188.144 239.111C188.949 239.111 189.634 239.312 190.2 239.714C190.765 240.111 191.142 240.651 191.331 241.334H191.453C191.692 240.662 192.125 240.124 192.752 239.722C193.384 239.314 194.13 239.111 194.991 239.111C196.086 239.111 196.975 239.459 197.657 240.157C198.345 240.85 198.689 241.833 198.689 243.107V251H195.442V243.749C195.442 243.097 195.268 242.608 194.922 242.282C194.576 241.956 194.143 241.793 193.623 241.793C193.032 241.793 192.571 241.981 192.24 242.358C191.909 242.73 191.743 243.221 191.743 243.833V251H188.587V243.68C188.587 243.104 188.422 242.646 188.091 242.304C187.765 241.963 187.334 241.793 186.799 241.793C186.438 241.793 186.112 241.884 185.821 242.068C185.536 242.246 185.309 242.498 185.141 242.824C184.973 243.145 184.889 243.522 184.889 243.955V251H181.634Z" fill="#828489"/>
<path d="M7.40419 126.344C6.08993 126.339 4.95905 126.015 4.01156 125.373C3.06916 124.732 2.34326 123.802 1.83386 122.584C1.32955 121.367 1.07994 119.902 1.08503 118.191C1.08503 116.484 1.33719 115.03 1.8415 113.828C2.3509 112.626 3.0768 111.711 4.0192 111.085C4.96669 110.453 6.09502 110.137 7.40419 110.137C8.71336 110.137 9.83915 110.453 10.7815 111.085C11.729 111.716 12.4575 112.633 12.9669 113.835C13.4763 115.033 13.7284 116.484 13.7234 118.191C13.7234 119.908 13.4687 121.375 12.9592 122.592C12.4549 123.81 11.7316 124.739 10.7892 125.381C9.84679 126.023 8.71846 126.344 7.40419 126.344ZM7.40419 123.601C8.30075 123.601 9.01646 123.15 9.55133 122.248C10.0862 121.347 10.3511 119.994 10.346 118.191C10.346 117.004 10.2237 116.016 9.97923 115.226C9.73981 114.437 9.39851 113.843 8.95533 113.446C8.51724 113.048 8.0002 112.85 7.40419 112.85C6.51274 112.85 5.79957 113.295 5.26469 114.187C4.72982 115.078 4.45984 116.413 4.45474 118.191C4.45474 119.393 4.57445 120.397 4.81387 121.201C5.05839 122.001 5.40223 122.602 5.84542 123.005C6.2886 123.402 6.80819 123.601 7.40419 123.601ZM17.3853 126.199C16.881 126.199 16.448 126.02 16.0864 125.664C15.7298 125.302 15.5515 124.869 15.5515 124.365C15.5515 123.866 15.7298 123.438 16.0864 123.081C16.448 122.725 16.881 122.546 17.3853 122.546C17.8744 122.546 18.3023 122.725 18.669 123.081C19.0358 123.438 19.2192 123.866 19.2192 124.365C19.2192 124.701 19.1326 125.009 18.9594 125.289C18.7913 125.564 18.5697 125.786 18.2946 125.954C18.0195 126.117 17.7164 126.199 17.3853 126.199ZM27.4505 126.214C26.3706 126.214 25.4078 126.015 24.5622 125.618C23.7217 125.221 23.0544 124.673 22.5602 123.975C22.0661 123.277 21.8089 122.477 21.7885 121.576H24.9977C25.0334 122.182 25.2881 122.674 25.7619 123.051C26.2356 123.428 26.7985 123.616 27.4505 123.616C27.9701 123.616 28.4286 123.501 28.8259 123.272C29.2284 123.038 29.5416 122.714 29.7658 122.302C29.995 121.884 30.1096 121.405 30.1096 120.865C30.1096 120.315 29.9925 119.831 29.7581 119.413C29.5289 118.996 29.2105 118.67 28.803 118.435C28.3955 118.201 27.9294 118.081 27.4047 118.076C26.9462 118.076 26.5005 118.17 26.0675 118.359C25.6396 118.547 25.3059 118.805 25.0665 119.131L22.1247 118.603L22.8659 110.351H32.4325V113.056H25.5938L25.1888 116.976H25.2805C25.5555 116.589 25.9707 116.268 26.526 116.013C27.0812 115.758 27.7027 115.631 28.3904 115.631C29.3328 115.631 30.1733 115.853 30.9119 116.296C31.6506 116.739 32.2338 117.348 32.6617 118.122C33.0896 118.891 33.301 119.778 33.2959 120.781C33.301 121.836 33.0565 122.773 32.5624 123.593C32.0734 124.408 31.3882 125.05 30.507 125.519C29.6308 125.982 28.612 126.214 27.4505 126.214ZM35.6341 126V114.263H38.7364V116.334H38.8739C39.1184 115.646 39.526 115.104 40.0965 114.707C40.667 114.309 41.3496 114.111 42.1443 114.111C42.9492 114.111 43.6343 114.312 44.1997 114.714C44.7652 115.111 45.1421 115.651 45.3306 116.334H45.4529C45.6923 115.662 46.1253 115.124 46.7519 114.722C47.3835 114.314 48.1298 114.111 48.9907 114.111C50.0859 114.111 50.9748 114.459 51.6574 115.157C52.3451 115.85 52.689 116.833 52.689 118.107V126H49.4415V118.749C49.4415 118.097 49.2683 117.608 48.9219 117.282C48.5755 116.956 48.1425 116.793 47.6229 116.793C47.032 116.793 46.571 116.981 46.2399 117.358C45.9088 117.73 45.7432 118.221 45.7432 118.833V126H42.5875V118.68C42.5875 118.104 42.4219 117.646 42.0908 117.304C41.7648 116.963 41.3343 116.793 40.7995 116.793C40.4378 116.793 40.1118 116.884 39.8214 117.068C39.5361 117.246 39.3095 117.498 39.1414 117.824C38.9733 118.145 38.8892 118.522 38.8892 118.955V126H35.6341Z" fill="#828489"/>
</svg>
