<svg width="311" height="214" viewBox="0 0 311 214" fill="none" xmlns="http://www.w3.org/2000/svg">
<path d="M146 147.472C146 147.472 156 139 151.5 128C147 117 143 117.108 143 103.972C143 90.8351 158.015 87.6704 158.015 87.6704C158.015 87.6704 145.5 71.9931 152.5 56.7324C159.5 41.4717 174 41.4717 174 41.4717C174 41.4717 169 9.7324 202.5 4.73241C236 -0.267592 242 21.9717 242 21.9717C242 21.9717 258.5 8.97165 276.5 16.9717C294.5 24.9717 290.534 44.9717 290.534 44.9717C290.534 44.9717 306.229 46.7324 307 60.2324C307.771 73.7324 297 78.7324 297 78.7324C297 78.7324 298.534 89.6988 290.534 95.5C282.534 101.301 273.5 98.7324 273.5 98.7324C273.5 98.7324 277.492 111.761 269.5 120.5C261.508 129.239 242 126.232 242 126.232C243.446 133.26 242.5 139.261 237 145C231.5 150.739 215.451 148.676 215.451 148.676" stroke="#828489" stroke-width="7"/>
<path d="M25.2182 209.432C20.1502 206.148 23.4999 182.972 23.4999 182.972L28.4999 187.472C28.4999 187.472 30.4999 182.424 30.4999 177.472V167.472L42.1114 179.875C42.1114 179.875 43.4999 175.472 42.9999 171.472C42.4999 167.472 42.1114 162.472 42.1114 162.472L47.4999 166.472C47.4999 166.472 53.193 155.478 55.4999 151.472C58.8936 145.578 67.9999 137.472 67.9999 137.472C67.9999 137.472 66.4999 148.972 66.9999 154.472C67.4999 159.972 72.4999 165.472 72.4999 165.472C72.4999 165.472 73.9999 163.972 73.9999 162.472V156.972C73.9999 156.972 80.4999 163.472 81.4999 168.472C82.4999 173.472 83.9999 179.875 83.9999 179.875C87.0373 175.525 88.9779 173.378 92.9999 169.972C92.9999 169.972 92.4999 175.875 92.9999 179.875C93.4999 183.875 94.9999 187.472 94.9999 187.472C94.9999 187.472 97.9999 182.472 98.4999 178.972C98.9999 175.472 97.8589 166.739 97.8589 166.739C97.8589 166.739 103 171.143 104.5 173.307C106 175.472 109 179.875 109 179.875C109 179.875 111 176.472 111 172.972C111 169.472 110.5 162.472 110.5 162.472L116 165.472C116 165.472 121 155.949 123.5 151.96C126 147.972 136 137.972 136 137.972C136 137.972 135.5 143.972 136 153.972C136.5 163.972 140.5 165.972 140.5 165.972L143.5 157.972C143.5 157.972 148.311 166.688 150 169.972C151.689 173.256 152 178.972 152 178.972L160.364 170.023L161 183.472L163.5 182.472L164.5 186.972C164.5 186.972 166.5 181.972 167 178.972C167.5 175.972 168 167.972 168 167.972C168 167.972 171.5 170.972 173.5 173.972C175.5 176.972 178.946 178.233 178.946 178.233C178.946 178.233 180.5 173.074 180 170.023C179.5 166.972 179.5 161.472 179.5 161.472L184.014 166.739C188.997 159.474 190 156.472 193.5 150.472C197 144.472 206 136.972 206 136.972C206 136.972 205 147.472 205.5 152.472C206 157.472 209 165.097 209 165.097L213 157.972C213 157.972 217 162.972 218 167.472C219 171.972 220.5 178.972 220.5 178.972C220.5 178.972 226.551 178.137 230 170.972L232.5 190.472L236 185.472C236 185.472 244.5 200.472 237 207.972C229.5 215.472 219.298 213.472 219.298 213.472L220.5 208.472L212 213.472L207.665 201.222L204.5 206.472L204 188.972L199.218 197.938L195.839 194.654C195.839 194.654 195.35 198.937 194 201.972C192.65 205.006 190.5 207.972 190.5 207.972L186.5 205.472V212.472L184.014 213.472L177.5 207.472L178.946 213.472H150.5L151 207.972L143 213.472L139 200.972L135.5 205.972L136.5 200.472L135.024 200.972V188.086C135.024 188.086 129.854 192.932 128 194.972C126.145 197.012 125.182 200.723 121.5 206.972L117 204.972L116.5 212.972L109 207.972L109.5 212.972H82.4999V208.472L74.9999 212.472L70.9999 200.972L67.9999 205.972L67.4999 201.972L65.7618 202.864C65.7618 202.864 65.5238 199.972 65.7618 195.972C65.9999 191.972 66.9999 187.972 66.9999 187.972C66.9999 187.972 62.4999 193.472 59.9999 196.972C57.876 199.945 55.5742 203.897 52.9999 206.472L47.9999 204.472L48.9999 212.472L40.4999 206.972L40.9999 212.472C40.9999 212.472 30.2861 212.717 25.2182 209.432Z" fill="#828489"/>
<path d="M34.5 106.972C30.5 106.972 0 135.972 0 135.972L58 135.5C58 135.5 63.5 130.5 68.5 130.5C73.5 130.5 77.5 135.972 77.5 135.972H126.5C126.5 135.972 133 131 139 134C145 137 144.5 144.5 144.5 144.5C150.736 141.728 153.078 127.603 150.5 122.472C147.5 116.5 138.231 113.313 130.5 107.472L120 113.472C120 113.472 103.02 91.7391 96 91.9717C88.9804 92.2042 61 119.972 61 119.972C61 119.972 59 117.472 56 117.472C53 117.472 49.5 120.972 49.5 120.972C49.5 120.972 38.5 106.972 34.5 106.972Z" fill="#828489"/>
</svg>
