<svg xmlns="http://www.w3.org/2000/svg" width="430.667" height="430.667" viewBox="0 0 323 323" xmlns:v="https://vecta.io/nano"><circle cx="133" cy="134" r="92" fill="none" stroke="#000" stroke-width="17.4" paint-order="markers stroke fill"/><path d="M187 206l13.4 13.4-5.5 5.5 68.9 68.9 28.1-28.1-68.9-68.9-5.5 5.5-13.4-13.4z" paint-order="markers stroke fill"/><path d="M145 70.7q6.56 0 10.2 4.18 3.66 4.18 3.66 10.1 0 4.35-2.3 8.35-2.22 4-6.4 6.48-4.18 2.4-8.1 2.4-3.66 0-7.33-1.96-3.58-1.96-5.54-5.28-1.88-3.32-1.88-7.16 0-4.26 2.4-8.44 2.47-4.18 6.4-6.4 3.92-2.22 8.86-2.22zm.34 37.9h8.1l-15.3 59.5q-1.62 6.22-1.62 7.5 0 1.45.938 2.4 1.02.852 2.64.852 4.43 0 11.1-6.22l9.72 11.3q-14 13.8-29.6 13.8-6.9 0-11.7-2.3-4.77-2.4-7.67-6.9-2.9-4.5-2.9-8.78 0-1.53.597-5.28.852-5.54 1.8-8.95l8.6-33.1h-14.1l3.84-16.4q19.8-2.22 35.5-7.5z"/></svg>