<svg width="159" height="133" viewBox="0 0 159 133" fill="none" xmlns="http://www.w3.org/2000/svg">
<g id="category_1 1" clip-path="url(#clip0_1257_4006)">
<path id="Vector" d="M132.885 106.709C132.878 106.592 132.871 106.472 132.865 106.356C132.861 106.306 132.858 106.253 132.851 106.203C132.841 106.077 132.828 105.951 132.811 105.824C132.808 105.791 132.805 105.758 132.801 105.728C132.782 105.568 132.758 105.415 132.735 105.259C132.732 105.232 132.725 105.206 132.722 105.179C132.698 105.053 132.675 104.927 132.648 104.8C132.642 104.76 132.632 104.724 132.622 104.684C132.595 104.564 132.569 104.448 132.539 104.331C132.532 104.301 132.525 104.272 132.515 104.242C132.439 103.949 132.349 103.663 132.249 103.391C132.243 103.374 132.236 103.354 132.229 103.337C132.186 103.218 132.136 103.098 132.09 102.982C132.083 102.962 132.073 102.945 132.066 102.925C131.893 102.526 131.7 102.154 131.484 101.815C131.481 101.808 131.477 101.805 131.474 101.798C131.358 101.615 131.235 101.446 131.105 101.283C130.905 101.03 130.696 100.797 130.473 100.594C129.644 99.8398 128.65 99.4109 127.552 99.4109C127.392 99.4109 127.232 99.4209 127.069 99.4375C126.92 99.4541 126.767 99.4774 126.61 99.5106C126.407 99.5538 126.208 99.6137 126.008 99.6802C124.328 100.259 122.801 101.715 121.677 103.663C121.64 103.726 121.607 103.793 121.574 103.859C121.467 104.052 121.357 104.248 121.258 104.451C121.258 104.451 121.258 104.454 121.258 104.458C121.128 104.724 121.005 105 120.888 105.279C120.888 105.286 120.882 105.292 120.882 105.299C120.769 105.575 120.662 105.861 120.562 106.15C120.559 106.16 120.556 106.173 120.552 106.183C120.456 106.469 120.369 106.758 120.289 107.054C120.286 107.071 120.283 107.084 120.276 107.101C120.2 107.393 120.13 107.689 120.067 107.992C120.063 108.008 120.06 108.028 120.057 108.045C119.997 108.344 119.947 108.647 119.904 108.956C119.904 108.973 119.9 108.993 119.897 109.009C119.857 109.318 119.824 109.631 119.804 109.943C119.804 109.953 119.804 109.967 119.804 109.98C119.784 110.302 119.771 110.625 119.771 110.947C119.771 114.558 121.118 117.264 123.091 118.355C123.497 118.581 123.929 118.734 124.385 118.814L124.588 118.887V118.854C124.764 118.873 124.937 118.887 125.113 118.887C125.599 118.887 126.105 118.804 126.62 118.631C130.157 117.441 132.911 112.414 132.911 107.347C132.911 107.177 132.908 107.014 132.901 106.848C132.901 106.798 132.898 106.748 132.895 106.699L132.885 106.709Z" fill="#828489"/>
<path id="Vector_2" d="M128.79 89.7427C128.204 89.6629 127.649 89.7494 127.146 89.9721L100.139 93.7622L77.6305 89.0113L77.5972 89.0479C77.0782 88.9415 76.536 88.9116 75.9804 88.9747C72.5937 89.3471 69.8391 92.6684 69.8391 96.3821C69.8391 96.9373 69.9123 97.4759 70.0354 97.9879L61.3525 99.2047C63.2654 100.621 64.7259 104.365 65.032 108.67C65.0719 109.222 65.0952 109.78 65.0952 110.346C65.0952 113.581 64.4265 116.127 63.312 117.514L87.7472 111.722V112.387C87.7472 112.663 87.9701 112.886 88.2462 112.886C88.5223 112.886 88.7452 112.663 88.7452 112.387V111.722C88.7452 111.639 88.7253 111.566 88.6887 111.496L97.4414 109.421L98.1168 109.687L121.524 117.986C121.437 117.899 121.351 117.813 121.268 117.72C119.924 116.184 119.109 113.793 119.109 110.957C119.109 108.407 119.747 105.934 120.809 103.883C121.983 101.612 123.68 99.8697 125.596 99.1349L125.676 99.1515C125.676 99.1515 125.662 99.1249 125.652 99.1116C125.925 99.0119 126.201 98.9288 126.481 98.8689C126.84 98.7925 127.206 98.7526 127.559 98.7526C128.577 98.7526 129.512 99.0618 130.327 99.6236C130.809 99.9561 131.248 100.378 131.641 100.877C132.609 99.9528 133.234 98.3935 133.234 96.5051C133.234 93.104 131.218 90.0752 128.796 89.7427H128.79Z" fill="#828489"/>
<path id="Vector_3" d="M42.5329 52.819C42.5329 52.4533 42.2334 52.1541 41.8675 52.1541C41.5016 52.1541 41.2021 52.4533 41.2021 52.819V53.8164C41.2021 54.1821 41.5016 54.4813 41.8675 54.4813C42.2334 54.4813 42.5329 54.1821 42.5329 53.8164V52.819Z" fill="#828489"/>
<path id="Vector_4" d="M42.5329 39.8528C42.5329 39.4871 42.2334 39.1879 41.8675 39.1879C41.5016 39.1879 41.2021 39.4871 41.2021 39.8528V40.8502C41.2021 41.2159 41.5016 41.5151 41.8675 41.5151C42.2334 41.5151 42.5329 41.2159 42.5329 40.8502V39.8528Z" fill="#828489"/>
<path id="Vector_5" d="M42.5329 44.1748C42.5329 43.8091 42.2334 43.5099 41.8675 43.5099C41.5016 43.5099 41.2021 43.8091 41.2021 44.1748V45.1722C41.2021 45.5379 41.5016 45.8372 41.8675 45.8372C42.2334 45.8372 42.5329 45.5379 42.5329 45.1722V44.1748Z" fill="#828489"/>
<path id="Vector_6" d="M42.5329 48.497C42.5329 48.1313 42.2334 47.832 41.8675 47.832C41.5016 47.832 41.2021 48.1313 41.2021 48.497V49.4944C41.2021 49.8601 41.5016 50.1593 41.8675 50.1593C42.2334 50.1593 42.5329 49.8601 42.5329 49.4944V48.497Z" fill="#828489"/>
<path id="Vector_7" d="M42.5329 57.141C42.5329 56.7753 42.2334 56.4761 41.8675 56.4761C41.5016 56.4761 41.2021 56.7753 41.2021 57.141V58.1384C41.2021 58.5041 41.5016 58.8033 41.8675 58.8033C42.2334 58.8033 42.5329 58.5041 42.5329 58.1384V57.141Z" fill="#828489"/>
<path id="Vector_8" d="M42.5329 61.4632C42.5329 61.0974 42.2334 60.7982 41.8675 60.7982C41.5016 60.7982 41.2021 61.0974 41.2021 61.4632V62.4606C41.2021 62.8263 41.5016 63.1255 41.8675 63.1255C42.2334 63.1255 42.5329 62.8263 42.5329 62.4606V61.4632Z" fill="#828489"/>
<path id="Vector_9" d="M42.5329 105.681V104.684C42.5329 104.318 42.2334 104.019 41.8675 104.019C41.5016 104.019 41.2021 104.318 41.2021 104.684V105.681C41.2021 106.047 41.5016 106.346 41.8675 106.346C42.2334 106.346 42.5329 106.047 42.5329 105.681Z" fill="#828489"/>
<path id="Vector_10" d="M62.9561 118.425L62.0712 117.962C61.9647 117.906 61.8516 117.886 61.7385 117.889C61.7651 117.879 61.7951 117.873 61.8217 117.863C63.332 117.214 64.4265 114.352 64.4265 110.342C64.4265 105.043 62.5136 100.112 60.2514 99.3576C60.0551 99.2912 59.8655 99.2612 59.6792 99.2612C57.7996 99.2612 56.4023 102.473 56.4023 106.918C56.4023 110.532 57.3272 114.122 58.6845 116.197L58.2354 115.964C57.9094 115.795 57.5068 115.921 57.3372 116.247C57.1675 116.573 57.2939 116.975 57.6199 117.145L58.5049 117.607C58.6013 117.657 58.7078 117.683 58.8109 117.683C59.0505 117.683 59.2833 117.554 59.4031 117.324C59.4297 117.274 59.4463 117.221 59.4597 117.171C59.7158 117.424 59.9786 117.627 60.2514 117.766C60.5608 117.926 60.8636 118.006 61.1563 118.006C61.1863 118.006 61.2195 117.999 61.2495 117.996V118.002L61.2927 117.992C61.3426 117.989 61.3892 117.986 61.4391 117.976C61.3293 118.036 61.2362 118.129 61.1763 118.245C61.0066 118.571 61.133 118.973 61.459 119.143L62.344 119.605C62.4438 119.655 62.5469 119.681 62.65 119.681C62.8896 119.681 63.1224 119.552 63.2422 119.322C63.4119 118.996 63.2854 118.594 62.9594 118.425H62.9561Z" fill="#828489"/>
<path id="Vector_11" d="M42.5329 65.7852C42.5329 65.4195 42.2334 65.1202 41.8675 65.1202C41.5016 65.1202 41.2021 65.4195 41.2021 65.7852V66.7826C41.2021 67.1483 41.5016 67.4475 41.8675 67.4475C42.2334 67.4475 42.5329 67.1483 42.5329 66.7826V65.7852Z" fill="#828489"/>
<path id="Vector_12" d="M42.5329 35.5308C42.5329 35.1651 42.2334 34.8658 41.8675 34.8658C41.5016 34.8658 41.2021 35.1651 41.2021 35.5308V36.5282C41.2021 36.8939 41.5016 37.1931 41.8675 37.1931C42.2334 37.1931 42.5329 36.8939 42.5329 36.5282V35.5308Z" fill="#828489"/>
<path id="Vector_13" d="M66.7916 120.419L65.9067 119.957C65.5807 119.788 65.1781 119.914 65.0085 120.24C64.8388 120.566 64.9652 120.968 65.2912 121.138L66.1762 121.6C66.2726 121.65 66.3791 121.676 66.4822 121.676C66.7218 121.676 66.9546 121.546 67.0744 121.317C67.2441 120.991 67.1176 120.589 66.7916 120.419Z" fill="#828489"/>
<path id="Vector_14" d="M55.2843 114.432L54.3994 113.97C54.0733 113.8 53.6708 113.926 53.5011 114.252C53.3315 114.578 53.4579 114.98 53.7839 115.15L54.6688 115.612C54.7653 115.662 54.8718 115.688 54.9749 115.688C55.2144 115.688 55.4473 115.559 55.5671 115.329C55.7367 115.004 55.6103 114.601 55.2843 114.432Z" fill="#828489"/>
<path id="Vector_15" d="M70.6276 122.418L69.7426 121.955C69.4166 121.786 69.0141 121.912 68.8444 122.238C68.6747 122.564 68.8012 122.966 69.1272 123.136L70.0121 123.598C70.1086 123.648 70.215 123.674 70.3182 123.674C70.5577 123.674 70.7906 123.545 70.9103 123.315C71.08 122.989 70.9536 122.587 70.6276 122.418Z" fill="#828489"/>
<path id="Vector_16" d="M42.5329 31.2086C42.5329 30.8429 42.2334 30.5437 41.8675 30.5437C41.5016 30.5437 41.2021 30.8429 41.2021 31.2086V32.206C41.2021 32.5717 41.5016 32.871 41.8675 32.871C42.2334 32.871 42.5329 32.5717 42.5329 32.206V31.2086Z" fill="#828489"/>
<path id="Vector_17" d="M74.4635 124.412L73.5786 123.95C73.2525 123.781 72.85 123.907 72.6803 124.233C72.5107 124.559 72.6371 124.961 72.9631 125.131L73.848 125.593C73.9445 125.643 74.051 125.669 74.1541 125.669C74.3936 125.669 74.6265 125.54 74.7463 125.31C74.9159 124.984 74.7895 124.582 74.4635 124.412Z" fill="#828489"/>
<path id="Vector_18" d="M49.6657 112.257C49.496 112.583 49.6224 112.986 49.9485 113.155L50.8334 113.617C50.9299 113.667 51.0363 113.694 51.1395 113.694C51.379 113.694 51.6119 113.564 51.7316 113.335C51.9013 113.009 51.7749 112.607 51.4488 112.437L50.5639 111.975C50.2379 111.805 49.8354 111.932 49.6657 112.257Z" fill="#828489"/>
<path id="Vector_19" d="M45.8332 110.259C45.6635 110.585 45.7899 110.987 46.1159 111.157L47.0009 111.619C47.0973 111.669 47.2038 111.696 47.3069 111.696C47.5465 111.696 47.7793 111.566 47.8991 111.336C48.0688 111.011 47.9424 110.608 47.6163 110.439L46.7314 109.977C46.4054 109.807 46.0028 109.933 45.8332 110.259Z" fill="#828489"/>
<path id="Vector_20" d="M42.5329 96.0397C42.5329 95.674 42.2334 95.3748 41.8675 95.3748C41.5016 95.3748 41.2021 95.674 41.2021 96.0397V97.0371C41.2021 97.4028 41.5016 97.702 41.8675 97.702C42.2334 97.702 42.5329 97.4028 42.5329 97.0371V96.0397Z" fill="#828489"/>
<path id="Vector_21" d="M77.6835 127.587C77.78 127.637 77.8864 127.664 77.9896 127.664C78.2291 127.664 78.462 127.534 78.5817 127.305C78.7514 126.979 78.625 126.577 78.2989 126.407L77.414 125.945C77.088 125.776 76.6855 125.902 76.5158 126.228C76.3461 126.553 76.4725 126.956 76.7986 127.125L77.6835 127.587Z" fill="#828489"/>
<path id="Vector_22" d="M85.3554 131.58C85.4518 131.63 85.5583 131.657 85.6614 131.657C85.901 131.657 86.1338 131.527 86.2536 131.298C86.4233 130.972 86.2968 130.57 85.9708 130.4L85.0859 129.938C84.7599 129.768 84.3573 129.895 84.1877 130.221C84.018 130.546 84.1444 130.949 84.4704 131.118L85.3554 131.58Z" fill="#828489"/>
<path id="Vector_23" d="M81.5194 129.586C81.6159 129.635 81.7224 129.662 81.8255 129.662C82.065 129.662 82.2979 129.532 82.4177 129.303C82.5873 128.977 82.4609 128.575 82.1349 128.405L81.25 127.943C80.9239 127.774 80.5214 127.9 80.3517 128.226C80.1821 128.552 80.3085 128.954 80.6345 129.123L81.5194 129.586Z" fill="#828489"/>
<path id="Vector_24" d="M42.5329 87.3955C42.5329 87.0298 42.2334 86.7306 41.8675 86.7306C41.5016 86.7306 41.2021 87.0298 41.2021 87.3955V88.3929C41.2021 88.7586 41.5016 89.0579 41.8675 89.0579C42.2334 89.0579 42.5329 88.7586 42.5329 88.3929V87.3955Z" fill="#828489"/>
<path id="Vector_25" d="M41.8675 99.6968C41.5016 99.6968 41.2021 99.996 41.2021 100.362V101.359C41.2021 101.725 41.5016 102.024 41.8675 102.024C42.2334 102.024 42.5329 101.725 42.5329 101.359V100.362C42.5329 99.996 42.2334 99.6968 41.8675 99.6968Z" fill="#828489"/>
<path id="Vector_26" d="M42.5329 74.4293C42.5329 74.0636 42.2334 73.7644 41.8675 73.7644C41.5016 73.7644 41.2021 74.0636 41.2021 74.4293V75.4267C41.2021 75.7925 41.5016 76.0917 41.8675 76.0917C42.2334 76.0917 42.5329 75.7925 42.5329 75.4267V74.4293Z" fill="#828489"/>
<path id="Vector_27" d="M42.5329 83.0735C42.5329 82.7078 42.2334 82.4086 41.8675 82.4086C41.5016 82.4086 41.2021 82.7078 41.2021 83.0735V84.0709C41.2021 84.4366 41.5016 84.7358 41.8675 84.7358C42.2334 84.7358 42.5329 84.4366 42.5329 84.0709V83.0735Z" fill="#828489"/>
<path id="Vector_28" d="M42.5329 78.7514C42.5329 78.3856 42.2334 78.0864 41.8675 78.0864C41.5016 78.0864 41.2021 78.3856 41.2021 78.7514V79.7488C41.2021 80.1145 41.5016 80.4137 41.8675 80.4137C42.2334 80.4137 42.5329 80.1145 42.5329 79.7488V78.7514Z" fill="#828489"/>
<path id="Vector_29" d="M42.5329 70.1073C42.5329 69.7416 42.2334 69.4424 41.8675 69.4424C41.5016 69.4424 41.2021 69.7416 41.2021 70.1073V71.1047C41.2021 71.4704 41.5016 71.7696 41.8675 71.7696C42.2334 71.7696 42.5329 71.4704 42.5329 71.1047V70.1073Z" fill="#828489"/>
<path id="Vector_30" d="M42.5329 91.7175C42.5329 91.3518 42.2334 91.0526 41.8675 91.0526C41.5016 91.0526 41.2021 91.3518 41.2021 91.7175V92.7149C41.2021 93.0807 41.5016 93.3799 41.8675 93.3799C42.2334 93.3799 42.5329 93.0807 42.5329 92.7149V91.7175Z" fill="#828489"/>
<path id="Vector_31" d="M80.272 47.4896C76.18 51.6354 73.645 57.3605 73.645 63.6873C73.645 76.331 83.7717 86.5876 96.2704 86.5876C108.769 86.5876 118.893 76.3311 118.893 63.6907C118.893 57.3638 116.361 51.6387 112.266 47.4929C110.183 45.385 107.695 43.6895 104.927 42.5292C109.697 47.3632 109.897 55.0532 105.559 60.1399V59.7243C105.559 59.6745 105.545 59.6312 105.529 59.588C105.542 58.6205 105.459 57.6597 105.279 56.7222C105.436 56.6956 105.559 56.5659 105.559 56.3997V55.7347C105.559 55.5519 105.409 55.4023 105.226 55.4023C105.133 55.4023 105.05 55.4388 104.99 55.4987C103.869 51.5357 101.044 48.1113 96.989 46.409C98.8886 47.6957 99.8999 49.8168 99.8833 51.9679C99.8733 53.208 99.524 54.4614 98.7921 55.5718C97.2751 57.8692 94.2078 58.4876 91.939 56.9549C90.5151 55.9907 89.7466 54.4115 89.7433 52.8024C89.7433 51.8415 90.0094 50.8741 90.575 50.0163C93.8153 45.1058 94.5971 39.2577 93.2231 33.9615C93.3163 33.9149 93.3894 33.8318 93.4061 33.7221C93.436 33.5426 93.3163 33.3697 93.1366 33.3364L93.0501 33.3198C92.1552 30.2844 90.5384 27.4518 88.2629 25.1112C88.529 25.1012 88.7419 24.8818 88.7419 24.6158V23.9509C88.7419 23.675 88.519 23.4522 88.2429 23.4522C87.9668 23.4522 87.7439 23.675 87.7439 23.9509V24.6059C86.9588 23.8545 86.1038 23.1563 85.1756 22.528C86.2801 25.2276 86.8989 28.1899 86.8989 31.2918C86.8989 37.1532 84.6899 43.0179 80.272 47.4896Z" fill="#828489"/>
<path id="Vector_32" d="M102.837 37.7948C102.482 35.6903 102.881 33.4462 104.145 31.5278C106.111 28.5489 105.319 24.5194 102.375 22.528C102.375 24.1903 101.746 25.8493 100.495 27.1193C97.9937 29.6527 97.9937 33.762 100.495 36.2954C101.151 36.957 101.949 37.4723 102.834 37.7948H102.837Z" fill="#828489"/>
<path id="Vector_33" d="M87.7437 124.356C87.7437 124.632 87.9665 124.855 88.2427 124.855C88.5188 124.855 88.7417 124.632 88.7417 124.356V123.691C88.7417 123.415 88.5188 123.192 88.2427 123.192C87.9665 123.192 87.7437 123.415 87.7437 123.691V124.356Z" fill="#828489"/>
<path id="Vector_34" d="M88.2427 116.875C88.5188 116.875 88.7417 116.653 88.7417 116.377V115.712C88.7417 115.436 88.5188 115.213 88.2427 115.213C87.9665 115.213 87.7437 115.436 87.7437 115.712V116.377C87.7437 116.653 87.9665 116.875 88.2427 116.875Z" fill="#828489"/>
<path id="Vector_35" d="M88.7417 11.9821C88.7417 11.7062 88.5188 11.4834 88.2427 11.4834C87.9665 11.4834 87.7437 11.7062 87.7437 11.9821V12.647C87.7437 12.923 87.9665 13.1457 88.2427 13.1457C88.5188 13.1457 88.7417 12.923 88.7417 12.647V11.9821Z" fill="#828489"/>
<path id="Vector_36" d="M87.7437 87.7845V88.4494C87.7437 88.7253 87.9665 88.9481 88.2427 88.9481C88.5188 88.9481 88.7417 88.7253 88.7417 88.4494V87.7845C88.7417 87.5085 88.5188 87.2858 88.2427 87.2858C87.9665 87.2858 87.7437 87.5085 87.7437 87.7845Z" fill="#828489"/>
<path id="Vector_37" d="M88.7417 15.9717C88.7417 15.6958 88.5188 15.473 88.2427 15.473C87.9665 15.473 87.7437 15.6958 87.7437 15.9717V16.6367C87.7437 16.9126 87.9665 17.1354 88.2427 17.1354C88.5188 17.1354 88.7417 16.9126 88.7417 16.6367V15.9717Z" fill="#828489"/>
<path id="Vector_38" d="M88.2427 19.4626C87.9665 19.4626 87.7437 19.6854 87.7437 19.9613V20.6263C87.7437 20.9022 87.9665 21.125 88.2427 21.125C88.5188 21.125 88.7417 20.9022 88.7417 20.6263V19.9613C88.7417 19.6854 88.5188 19.4626 88.2427 19.4626Z" fill="#828489"/>
<path id="Vector_39" d="M88.7417 4.00285C88.7417 3.7269 88.5188 3.50415 88.2427 3.50415C87.9665 3.50415 87.7437 3.7269 87.7437 4.00285V4.66778C87.7437 4.94373 87.9665 5.16648 88.2427 5.16648C88.5188 5.16648 88.7417 4.94373 88.7417 4.66778V4.00285Z" fill="#828489"/>
<path id="Vector_40" d="M88.7417 7.99247C88.7417 7.71653 88.5188 7.49377 88.2427 7.49377C87.9665 7.49377 87.7437 7.71653 87.7437 7.99247V8.65741C87.7437 8.93336 87.9665 9.15611 88.2427 9.15611C88.5188 9.15611 88.7417 8.93336 88.7417 8.65741V7.99247Z" fill="#828489"/>
<path id="Vector_41" d="M87.7437 120.366C87.7437 120.642 87.9665 120.865 88.2427 120.865C88.5188 120.865 88.7417 120.642 88.7417 120.366V119.701C88.7417 119.425 88.5188 119.203 88.2427 119.203C87.9665 119.203 87.7437 119.425 87.7437 119.701V120.366Z" fill="#828489"/>
<path id="Vector_42" d="M87.7437 128.346C87.7437 128.621 87.9665 128.844 88.2427 128.844C88.5188 128.844 88.7417 128.621 88.7417 128.346V127.681C88.7417 127.405 88.5188 127.182 88.2427 127.182C87.9665 127.182 87.7437 127.405 87.7437 127.681V128.346Z" fill="#828489"/>
<path id="Vector_43" d="M158.997 107.909C158.997 107.909 158.997 107.902 158.997 107.899V107.234C158.997 107.051 158.847 106.901 158.664 106.901C158.481 106.901 158.331 107.051 158.331 107.234V107.49L158.082 107.437C157.902 107.4 157.726 107.516 157.689 107.696C157.669 107.792 157.696 107.885 157.749 107.959C157.706 108.038 157.693 108.135 157.723 108.228C157.769 108.364 157.899 108.451 158.035 108.451C158.072 108.451 158.108 108.444 158.145 108.431L158.774 108.211C158.777 108.211 158.78 108.208 158.784 108.205C158.797 108.201 158.807 108.191 158.817 108.185C158.837 108.175 158.86 108.161 158.877 108.148C158.88 108.145 158.887 108.141 158.89 108.135C158.9 108.125 158.904 108.115 158.913 108.108C158.927 108.092 158.94 108.075 158.953 108.055C158.957 108.048 158.963 108.042 158.967 108.032C158.97 108.022 158.973 108.012 158.977 107.999C158.98 107.985 158.99 107.975 158.99 107.962C158.99 107.955 158.99 107.945 158.99 107.939C158.99 107.925 158.993 107.915 158.993 107.902L158.997 107.909Z" fill="#828489"/>
<path id="Vector_44" d="M154.785 108.896L154.156 109.116C153.983 109.175 153.89 109.365 153.95 109.538C153.996 109.674 154.126 109.761 154.263 109.761C154.299 109.761 154.336 109.754 154.372 109.741L155.001 109.521C155.174 109.461 155.267 109.272 155.207 109.099C155.147 108.926 154.958 108.833 154.785 108.893V108.896Z" fill="#828489"/>
<path id="Vector_45" d="M143.47 112.819L142.842 113.039C142.669 113.098 142.575 113.288 142.635 113.461C142.682 113.597 142.812 113.684 142.948 113.684C142.985 113.684 143.021 113.677 143.058 113.664L143.687 113.444C143.86 113.384 143.953 113.195 143.893 113.022C143.833 112.849 143.643 112.756 143.47 112.816V112.819Z" fill="#828489"/>
<path id="Vector_46" d="M120.845 120.672L120.217 120.892C120.044 120.951 119.95 121.141 120.01 121.314C120.057 121.45 120.187 121.537 120.323 121.537C120.36 121.537 120.396 121.53 120.433 121.517L121.062 121.297C121.235 121.237 121.328 121.048 121.268 120.875C121.208 120.702 121.018 120.609 120.845 120.669V120.672Z" fill="#828489"/>
<path id="Vector_47" d="M147.243 111.513L146.615 111.732C146.442 111.792 146.348 111.981 146.408 112.154C146.455 112.291 146.585 112.377 146.721 112.377C146.758 112.377 146.794 112.37 146.831 112.357L147.46 112.138C147.633 112.078 147.726 111.888 147.666 111.715C147.606 111.543 147.416 111.45 147.243 111.509V111.513Z" fill="#828489"/>
<path id="Vector_48" d="M135.929 115.436L135.3 115.655C135.127 115.715 135.034 115.905 135.094 116.077C135.14 116.214 135.27 116.3 135.407 116.3C135.443 116.3 135.48 116.294 135.516 116.28L136.145 116.061C136.318 116.001 136.411 115.811 136.351 115.639C136.291 115.466 136.102 115.373 135.929 115.432V115.436Z" fill="#828489"/>
<path id="Vector_49" d="M128.387 118.052L127.758 118.272C127.585 118.332 127.492 118.521 127.552 118.694C127.598 118.83 127.728 118.917 127.865 118.917C127.901 118.917 127.938 118.91 127.974 118.897L128.603 118.677C128.776 118.617 128.869 118.428 128.809 118.255C128.749 118.082 128.56 117.989 128.387 118.049V118.052Z" fill="#828489"/>
<path id="Vector_50" d="M139.701 114.129L139.073 114.349C138.9 114.408 138.806 114.598 138.866 114.771C138.913 114.907 139.043 114.994 139.179 114.994C139.216 114.994 139.252 114.987 139.289 114.974L139.918 114.754C140.091 114.694 140.184 114.505 140.124 114.332C140.064 114.159 139.874 114.066 139.701 114.126V114.129Z" fill="#828489"/>
<path id="Vector_51" d="M124.614 119.362L123.986 119.582C123.813 119.641 123.72 119.831 123.779 120.004C123.826 120.14 123.956 120.227 124.092 120.227C124.129 120.227 124.165 120.22 124.202 120.207L124.831 119.987C125.004 119.927 125.097 119.738 125.037 119.565C124.977 119.392 124.787 119.299 124.614 119.359V119.362Z" fill="#828489"/>
<path id="Vector_52" d="M117.072 121.979L116.444 122.198C116.271 122.258 116.178 122.448 116.237 122.62C116.284 122.757 116.414 122.843 116.55 122.843C116.587 122.843 116.623 122.837 116.66 122.823L117.289 122.604C117.462 122.544 117.555 122.354 117.495 122.182C117.435 122.009 117.245 121.916 117.072 121.975V121.979Z" fill="#828489"/>
<path id="Vector_53" d="M132.159 116.746L131.531 116.965C131.358 117.025 131.264 117.214 131.324 117.387C131.371 117.524 131.501 117.61 131.637 117.61C131.674 117.61 131.71 117.603 131.747 117.59L132.376 117.371C132.549 117.311 132.642 117.121 132.582 116.949C132.522 116.776 132.332 116.683 132.159 116.742V116.746Z" fill="#828489"/>
<path id="Vector_54" d="M98.2165 128.522L97.5877 128.741C97.4147 128.801 97.3216 128.991 97.3814 129.163C97.428 129.3 97.5578 129.386 97.6942 129.386C97.7308 129.386 97.7673 129.379 97.8039 129.366L98.4327 129.147C98.6057 129.087 98.6988 128.897 98.639 128.725C98.5791 128.552 98.3895 128.459 98.2165 128.518V128.522Z" fill="#828489"/>
<path id="Vector_55" d="M101.989 127.215L101.36 127.435C101.187 127.494 101.094 127.684 101.154 127.857C101.2 127.993 101.33 128.079 101.467 128.079C101.503 128.079 101.54 128.073 101.576 128.06L102.205 127.84C102.378 127.78 102.471 127.591 102.411 127.418C102.352 127.245 102.162 127.152 101.989 127.212V127.215Z" fill="#828489"/>
<path id="Vector_56" d="M90.6745 131.138L90.0457 131.358C89.8727 131.417 89.7796 131.607 89.8395 131.78C89.886 131.916 90.0158 132.003 90.1522 132.003C90.1888 132.003 90.2254 131.996 90.262 131.983L90.8907 131.763C91.0637 131.703 91.1569 131.514 91.097 131.341C91.0371 131.168 90.8475 131.075 90.6745 131.135V131.138Z" fill="#828489"/>
<path id="Vector_57" d="M105.758 125.905L105.13 126.125C104.957 126.184 104.864 126.374 104.923 126.547C104.97 126.683 105.1 126.77 105.236 126.77C105.273 126.77 105.309 126.763 105.346 126.75L105.975 126.53C106.148 126.47 106.241 126.281 106.181 126.108C106.121 125.935 105.931 125.842 105.758 125.902V125.905Z" fill="#828489"/>
<path id="Vector_58" d="M151.016 110.203L150.387 110.422C150.214 110.482 150.121 110.672 150.181 110.844C150.227 110.981 150.357 111.067 150.493 111.067C150.53 111.067 150.567 111.061 150.603 111.047L151.232 110.828C151.405 110.768 151.498 110.578 151.438 110.406C151.378 110.233 151.189 110.14 151.016 110.199V110.203Z" fill="#828489"/>
<path id="Vector_59" d="M113.3 123.289L112.671 123.508C112.498 123.568 112.405 123.757 112.465 123.93C112.512 124.067 112.641 124.153 112.778 124.153C112.814 124.153 112.851 124.146 112.887 124.133L113.516 123.914C113.689 123.854 113.782 123.664 113.722 123.491C113.663 123.319 113.473 123.226 113.3 123.285V123.289Z" fill="#828489"/>
<path id="Vector_60" d="M109.531 124.595L108.902 124.815C108.729 124.874 108.636 125.064 108.696 125.237C108.742 125.373 108.872 125.46 109.009 125.46C109.045 125.46 109.082 125.453 109.118 125.44L109.747 125.22C109.92 125.16 110.013 124.971 109.953 124.798C109.894 124.625 109.704 124.532 109.531 124.592V124.595Z" fill="#828489"/>
<path id="Vector_61" d="M94.444 129.832L93.8152 130.051C93.6423 130.111 93.5491 130.3 93.609 130.473C93.6556 130.61 93.7853 130.696 93.9217 130.696C93.9583 130.696 93.9949 130.689 94.0315 130.676L94.6602 130.457C94.8332 130.397 94.9264 130.207 94.8665 130.034C94.8066 129.861 94.617 129.768 94.444 129.828V129.832Z" fill="#828489"/>
<path id="Vector_62" d="M158.637 43.0677C158.454 43.0677 158.305 43.2174 158.305 43.4002V44.0651C158.305 44.248 158.454 44.3976 158.637 44.3976C158.82 44.3976 158.97 44.248 158.97 44.0651V43.4002C158.97 43.2174 158.82 43.0677 158.637 43.0677Z" fill="#828489"/>
<path id="Vector_63" d="M158.641 47.0574C158.458 47.0574 158.308 47.207 158.308 47.3898V48.0548C158.308 48.2376 158.458 48.3872 158.641 48.3872C158.824 48.3872 158.973 48.2376 158.973 48.0548V47.3898C158.973 47.207 158.824 47.0574 158.641 47.0574Z" fill="#828489"/>
<path id="Vector_64" d="M158.634 31.099C158.451 31.099 158.301 31.2486 158.301 31.4315V32.0964C158.301 32.2793 158.451 32.4289 158.634 32.4289C158.817 32.4289 158.967 32.2793 158.967 32.0964V31.4315C158.967 31.2486 158.817 31.099 158.634 31.099Z" fill="#828489"/>
<path id="Vector_65" d="M158.637 39.0781C158.454 39.0781 158.305 39.2277 158.305 39.4106V40.0755C158.305 40.2584 158.454 40.408 158.637 40.408C158.82 40.408 158.97 40.2584 158.97 40.0755V39.4106C158.97 39.2277 158.82 39.0781 158.637 39.0781Z" fill="#828489"/>
<path id="Vector_66" d="M158.631 27.1094C158.448 27.1094 158.298 27.259 158.298 27.4418V28.1068C158.298 28.2896 158.448 28.4392 158.631 28.4392C158.814 28.4392 158.963 28.2896 158.963 28.1068V27.4418C158.963 27.259 158.814 27.1094 158.631 27.1094Z" fill="#828489"/>
<path id="Vector_67" d="M158.634 35.0885C158.451 35.0885 158.301 35.2381 158.301 35.421V36.0859C158.301 36.2688 158.451 36.4184 158.634 36.4184C158.817 36.4184 158.967 36.2688 158.967 36.0859V35.421C158.967 35.2381 158.817 35.0885 158.634 35.0885Z" fill="#828489"/>
<path id="Vector_68" d="M158.651 70.995C158.468 70.995 158.318 71.1446 158.318 71.3275V71.9924C158.318 72.1753 158.468 72.3249 158.651 72.3249C158.834 72.3249 158.983 72.1753 158.983 71.9924V71.3275C158.983 71.1446 158.834 70.995 158.651 70.995Z" fill="#828489"/>
<path id="Vector_69" d="M158.657 86.9534C158.474 86.9534 158.325 87.103 158.325 87.2858V87.9508C158.325 88.1336 158.474 88.2832 158.657 88.2832C158.84 88.2832 158.99 88.1336 158.99 87.9508V87.2858C158.99 87.103 158.84 86.9534 158.657 86.9534Z" fill="#828489"/>
<path id="Vector_70" d="M158.654 82.9637C158.471 82.9637 158.321 83.1134 158.321 83.2962V83.9611C158.321 84.144 158.471 84.2936 158.654 84.2936C158.837 84.2936 158.987 84.144 158.987 83.9611V83.2962C158.987 83.1134 158.837 82.9637 158.654 82.9637Z" fill="#828489"/>
<path id="Vector_71" d="M158.654 78.9741C158.471 78.9741 158.321 79.1237 158.321 79.3066V79.9715C158.321 80.1544 158.471 80.304 158.654 80.304C158.837 80.304 158.987 80.1544 158.987 79.9715V79.3066C158.987 79.1237 158.837 78.9741 158.654 78.9741Z" fill="#828489"/>
<path id="Vector_72" d="M158.664 98.9221C158.481 98.9221 158.332 99.0717 158.332 99.2546V99.9195C158.332 100.102 158.481 100.252 158.664 100.252C158.847 100.252 158.997 100.102 158.997 99.9195V99.2546C158.997 99.0717 158.847 98.9221 158.664 98.9221Z" fill="#828489"/>
<path id="Vector_73" d="M158.651 74.9845C158.468 74.9845 158.318 75.1341 158.318 75.317V75.9819C158.318 76.1648 158.468 76.3144 158.651 76.3144C158.834 76.3144 158.983 76.1648 158.983 75.9819V75.317C158.983 75.1341 158.834 74.9845 158.651 74.9845Z" fill="#828489"/>
<path id="Vector_74" d="M158.661 94.9326C158.478 94.9326 158.328 95.0822 158.328 95.2651V95.93C158.328 96.1129 158.478 96.2625 158.661 96.2625C158.844 96.2625 158.993 96.1129 158.993 95.93V95.2651C158.993 95.0822 158.844 94.9326 158.661 94.9326Z" fill="#828489"/>
<path id="Vector_75" d="M158.661 90.943C158.478 90.943 158.328 91.0926 158.328 91.2755V91.9404C158.328 92.1233 158.478 92.2729 158.661 92.2729C158.844 92.2729 158.993 92.1233 158.993 91.9404V91.2755C158.993 91.0926 158.844 90.943 158.661 90.943Z" fill="#828489"/>
<path id="Vector_76" d="M158.664 102.912C158.481 102.912 158.332 103.061 158.332 103.244V103.909C158.332 104.092 158.481 104.242 158.664 104.242C158.847 104.242 158.997 104.092 158.997 103.909V103.244C158.997 103.061 158.847 102.912 158.664 102.912Z" fill="#828489"/>
<path id="Vector_77" d="M158.641 51.047C158.458 51.047 158.308 51.1966 158.308 51.3795V52.0444C158.308 52.2273 158.458 52.3769 158.641 52.3769C158.824 52.3769 158.973 52.2273 158.973 52.0444V51.3795C158.973 51.1966 158.824 51.047 158.641 51.047Z" fill="#828489"/>
<path id="Vector_78" d="M158.644 55.0365C158.461 55.0365 158.312 55.1861 158.312 55.369V56.0339C158.312 56.2168 158.461 56.3664 158.644 56.3664C158.827 56.3664 158.977 56.2168 158.977 56.0339V55.369C158.977 55.1861 158.827 55.0365 158.644 55.0365Z" fill="#828489"/>
<path id="Vector_79" d="M158.644 59.0261C158.461 59.0261 158.312 59.1757 158.312 59.3586V60.0235C158.312 60.2064 158.461 60.356 158.644 60.356C158.827 60.356 158.977 60.2064 158.977 60.0235V59.3586C158.977 59.1757 158.827 59.0261 158.644 59.0261Z" fill="#828489"/>
<path id="Vector_80" d="M158.647 67.0054C158.464 67.0054 158.314 67.155 158.314 67.3378V68.0028C158.314 68.1856 158.464 68.3352 158.647 68.3352C158.83 68.3352 158.98 68.1856 158.98 68.0028V67.3378C158.98 67.155 158.83 67.0054 158.647 67.0054Z" fill="#828489"/>
<path id="Vector_81" d="M158.647 63.0157C158.464 63.0157 158.314 63.1654 158.314 63.3482V64.0131C158.314 64.196 158.464 64.3456 158.647 64.3456C158.83 64.3456 158.98 64.196 158.98 64.0131V63.3482C158.98 63.1654 158.83 63.0157 158.647 63.0157Z" fill="#828489"/>
<path id="Vector_82" d="M103.237 5.99774L103.865 6.21384C103.902 6.22714 103.939 6.23047 103.975 6.23047C104.115 6.23047 104.241 6.14403 104.291 6.00439C104.351 5.83151 104.258 5.642 104.085 5.58216L103.456 5.36605C103.283 5.30621 103.094 5.3993 103.034 5.57218C102.974 5.74507 103.067 5.93457 103.24 5.99442L103.237 5.99774Z" fill="#828489"/>
<path id="Vector_83" d="M99.4608 4.70111L100.09 4.91721C100.126 4.93051 100.163 4.93384 100.199 4.93384C100.339 4.93384 100.466 4.84739 100.515 4.70776C100.575 4.53488 100.482 4.34537 100.309 4.28553L99.6804 4.06942C99.5074 4.00958 99.3178 4.10267 99.2579 4.27555C99.198 4.44843 99.2912 4.63794 99.4642 4.69779L99.4608 4.70111Z" fill="#828489"/>
<path id="Vector_84" d="M95.685 3.40448L96.3137 3.62058C96.3503 3.63388 96.3869 3.63721 96.4235 3.63721C96.5632 3.63721 96.6897 3.55076 96.7396 3.41113C96.7994 3.23825 96.7063 3.04874 96.5333 2.9889L95.9045 2.77279C95.7282 2.71295 95.5419 2.80604 95.482 2.97892C95.4222 3.1518 95.5153 3.34131 95.6883 3.40115L95.685 3.40448Z" fill="#828489"/>
<path id="Vector_85" d="M141.837 18.5483L141.208 18.3322C141.032 18.2724 140.846 18.3655 140.786 18.5384C140.726 18.7113 140.819 18.9008 140.992 18.9606L141.621 19.1767C141.657 19.19 141.694 19.1933 141.731 19.1933C141.87 19.1933 141.997 19.1069 142.047 18.9673C142.106 18.7944 142.013 18.6049 141.84 18.545L141.837 18.5483Z" fill="#828489"/>
<path id="Vector_86" d="M91.9091 2.10785L92.5378 2.32395C92.5744 2.33725 92.611 2.34057 92.6476 2.34057C92.7874 2.34057 92.9138 2.25413 92.9637 2.1145C93.0236 1.94161 92.9304 1.75211 92.7574 1.69226L92.1287 1.47616C91.9557 1.41632 91.766 1.50941 91.7062 1.68229C91.6463 1.85517 91.7394 2.04468 91.9124 2.10452L91.9091 2.10785Z" fill="#828489"/>
<path id="Vector_87" d="M153.165 22.4382L152.536 22.2221C152.36 22.1623 152.173 22.2554 152.113 22.4283C152.053 22.6011 152.147 22.7907 152.32 22.8505L152.948 23.0666C152.985 23.0799 153.022 23.0832 153.058 23.0832C153.198 23.0832 153.324 22.9968 153.374 22.8571C153.434 22.6843 153.341 22.4948 153.168 22.4349L153.165 22.4382Z" fill="#828489"/>
<path id="Vector_88" d="M134.492 16.3773C134.551 16.2044 134.458 16.0149 134.285 15.9551L133.656 15.739C133.484 15.6791 133.294 15.7722 133.234 15.9451C133.174 16.118 133.267 16.3075 133.44 16.3673L134.069 16.5834C134.106 16.5967 134.142 16.6001 134.179 16.6001C134.319 16.6001 134.445 16.5136 134.495 16.374L134.492 16.3773Z" fill="#828489"/>
<path id="Vector_89" d="M107.013 7.29437L107.641 7.51047C107.678 7.52377 107.715 7.5271 107.751 7.5271C107.891 7.5271 108.017 7.44066 108.067 7.30102C108.127 7.12814 108.034 6.93863 107.861 6.87879L107.232 6.66268C107.059 6.60284 106.87 6.69593 106.81 6.86881C106.75 7.0417 106.843 7.2312 107.016 7.29105L107.013 7.29437Z" fill="#828489"/>
<path id="Vector_90" d="M156.941 23.7314L156.312 23.5153C156.139 23.4555 155.949 23.5486 155.889 23.7215C155.829 23.8944 155.923 24.0839 156.096 24.1437L156.724 24.3598C156.761 24.3731 156.797 24.3764 156.834 24.3764C156.974 24.3764 157.1 24.29 157.15 24.1504C157.21 23.9775 157.117 23.788 156.944 23.7281L156.941 23.7314Z" fill="#828489"/>
<path id="Vector_91" d="M129.664 15.0707L130.293 15.2868C130.33 15.3001 130.366 15.3035 130.403 15.3035C130.543 15.3035 130.669 15.217 130.719 15.0774C130.779 14.9045 130.686 14.715 130.513 14.6552L129.884 14.4391C129.708 14.3792 129.521 14.4723 129.462 14.6452C129.402 14.8181 129.495 15.0076 129.668 15.0674L129.664 15.0707Z" fill="#828489"/>
<path id="Vector_92" d="M125.889 13.7774L126.517 13.9935C126.554 14.0068 126.591 14.0101 126.627 14.0101C126.767 14.0101 126.893 13.9237 126.943 13.7841C127.003 13.6112 126.91 13.4217 126.737 13.3618L126.108 13.1457C125.935 13.0859 125.746 13.179 125.686 13.3518C125.626 13.5247 125.719 13.7142 125.892 13.7741L125.889 13.7774Z" fill="#828489"/>
<path id="Vector_93" d="M145.613 19.845L144.984 19.6289C144.811 19.569 144.622 19.6621 144.562 19.835C144.502 20.0079 144.595 20.1974 144.768 20.2572L145.397 20.4733C145.433 20.4866 145.47 20.49 145.506 20.49C145.646 20.49 145.773 20.4035 145.822 20.2639C145.882 20.091 145.789 19.9015 145.616 19.8416L145.613 19.845Z" fill="#828489"/>
<path id="Vector_94" d="M138.267 17.6739C138.327 17.5011 138.234 17.3116 138.061 17.2517L137.432 17.0356C137.259 16.9758 137.07 17.0689 137.01 17.2417C136.95 17.4146 137.043 17.6041 137.216 17.664L137.845 17.8801C137.881 17.8934 137.918 17.8967 137.955 17.8967C138.094 17.8967 138.221 17.8103 138.271 17.6706L138.267 17.6739Z" fill="#828489"/>
<path id="Vector_95" d="M114.564 9.88751L115.193 10.1036C115.23 10.1169 115.266 10.1202 115.303 10.1202C115.443 10.1202 115.569 10.0338 115.619 9.89416C115.679 9.72128 115.586 9.53177 115.413 9.47193L114.784 9.25582C114.611 9.19598 114.421 9.28907 114.361 9.46195C114.302 9.63484 114.395 9.82434 114.568 9.88419L114.564 9.88751Z" fill="#828489"/>
<path id="Vector_96" d="M110.788 8.591L111.417 8.80711C111.454 8.8204 111.49 8.82373 111.527 8.82373C111.667 8.82373 111.793 8.73729 111.843 8.59765C111.903 8.42477 111.81 8.23526 111.637 8.17542L111.008 7.95932C110.835 7.89947 110.645 7.99256 110.586 8.16544C110.526 8.33833 110.619 8.52783 110.792 8.58768L110.788 8.591Z" fill="#828489"/>
<path id="Vector_97" d="M122.113 12.4808L122.741 12.6969C122.778 12.7102 122.815 12.7135 122.851 12.7135C122.991 12.7135 123.117 12.6271 123.167 12.4874C123.227 12.3145 123.134 12.125 122.961 12.0652L122.332 11.8491C122.159 11.7892 121.97 11.8823 121.91 12.0552C121.85 12.2281 121.943 12.4176 122.116 12.4774L122.113 12.4808Z" fill="#828489"/>
<path id="Vector_98" d="M118.337 11.1841L118.966 11.4002C119.002 11.4135 119.039 11.4169 119.075 11.4169C119.215 11.4169 119.342 11.3304 119.391 11.1908C119.451 11.0179 119.358 10.8284 119.185 10.7686L118.556 10.5525C118.38 10.4926 118.194 10.5857 118.134 10.7586C118.074 10.9315 118.167 11.121 118.34 11.1808L118.337 11.1841Z" fill="#828489"/>
<path id="Vector_99" d="M149.389 21.1416L148.76 20.9255C148.587 20.8657 148.397 20.9587 148.338 21.1316C148.278 21.3045 148.371 21.494 148.544 21.5539L149.173 21.77C149.209 21.7833 149.246 21.7866 149.282 21.7866C149.422 21.7866 149.548 21.7001 149.598 21.5605C149.658 21.3876 149.565 21.1981 149.392 21.1383L149.389 21.1416Z" fill="#828489"/>
<path id="Vector_100" d="M80.3483 4.8873C80.3982 4.8873 80.4514 4.874 80.5013 4.85073L81.0935 4.54486C81.2565 4.46174 81.3197 4.25894 81.2365 4.09603C81.1534 3.93312 80.9504 3.86995 80.7874 3.95307L80.1953 4.25894C80.0323 4.34206 79.969 4.54486 80.0522 4.70777C80.1121 4.82081 80.2285 4.8873 80.3483 4.8873Z" fill="#828489"/>
<path id="Vector_101" d="M83.8981 3.06537C83.948 3.06537 84.0012 3.05207 84.0511 3.0288L84.6433 2.72626C84.8063 2.64314 84.8695 2.44034 84.7864 2.27743C84.7032 2.11452 84.5036 2.04803 84.3372 2.13447L83.7451 2.43701C83.5821 2.52013 83.5188 2.72293 83.602 2.88584C83.6619 2.99888 83.7783 3.06537 83.8981 3.06537Z" fill="#828489"/>
<path id="Vector_102" d="M87.451 1.24013C87.5009 1.24013 87.5541 1.22683 87.604 1.20356L87.9101 1.0473C87.9999 1.12709 88.1164 1.18029 88.2461 1.18029C88.4058 1.18029 88.5455 1.10382 88.6353 0.987455L88.7651 1.03068C88.8017 1.04397 88.8383 1.0473 88.8749 1.0473C89.0146 1.0473 89.141 0.960858 89.1909 0.821222C89.2508 0.648339 89.1577 0.458833 88.9847 0.398989L88.7085 0.302574C88.632 0.123041 88.4557 -0.0032959 88.2494 -0.0032959C88.0166 -0.0032959 87.8269 0.156288 87.7704 0.369067L87.3046 0.608443C87.1416 0.69156 87.0784 0.894364 87.1616 1.05727C87.2215 1.17031 87.3379 1.23681 87.4577 1.23681L87.451 1.24013Z" fill="#828489"/>
<path id="Vector_103" d="M76.7985 6.7125C76.8484 6.7125 76.9016 6.6992 76.9515 6.67593L77.5437 6.37006C77.7067 6.28694 77.7699 6.08413 77.6867 5.92123C77.6036 5.75832 77.4006 5.69515 77.2376 5.77827L76.6455 6.08413C76.4824 6.16725 76.4192 6.37006 76.5024 6.53296C76.5623 6.646 76.6787 6.7125 76.7985 6.7125Z" fill="#828489"/>
<path id="Vector_104" d="M62.5998 14.0135C62.6497 14.0135 62.7029 14.0002 62.7528 13.9769L63.345 13.6744C63.508 13.5913 63.5712 13.3885 63.488 13.2255C63.4048 13.0626 63.2052 12.9961 63.0389 13.0826L62.4467 13.3851C62.2837 13.4682 62.2205 13.6711 62.3037 13.834C62.3636 13.947 62.48 14.0135 62.5998 14.0135Z" fill="#828489"/>
<path id="Vector_105" d="M48.3981 21.3111C48.448 21.3111 48.5012 21.2978 48.5511 21.2745L49.1433 20.972C49.3063 20.8889 49.3695 20.6894 49.2864 20.5232C49.2032 20.3602 49.0036 20.2938 48.8372 20.3802L48.2451 20.6827C48.0821 20.7659 48.0188 20.9653 48.102 21.1316C48.1619 21.2479 48.2783 21.3111 48.3981 21.3111Z" fill="#828489"/>
<path id="Vector_106" d="M66.1496 12.1882C66.1995 12.1882 66.2527 12.1749 66.3026 12.1516L66.8948 11.8458C67.0578 11.7626 67.121 11.5598 67.0378 11.3969C66.9546 11.234 66.7517 11.1709 66.5887 11.254L65.9965 11.5598C65.8335 11.643 65.7703 11.8458 65.8535 12.0087C65.9134 12.1217 66.0298 12.1882 66.1496 12.1882Z" fill="#828489"/>
<path id="Vector_107" d="M59.0504 15.8387C59.1003 15.8387 59.1536 15.8254 59.2035 15.8021L59.7956 15.4996C59.9587 15.4165 60.0219 15.2137 59.9387 15.0507C59.8555 14.8878 59.6559 14.8213 59.4896 14.9078L58.8974 15.2103C58.7344 15.2934 58.6712 15.4962 58.7544 15.6592C58.8142 15.7722 58.9307 15.8387 59.0504 15.8387Z" fill="#828489"/>
<path id="Vector_108" d="M56.3855 16.8726C56.3023 16.7097 56.0994 16.6466 55.9364 16.7297L55.3442 17.0356C55.1812 17.1187 55.118 17.3215 55.2011 17.4844C55.261 17.5974 55.3775 17.6639 55.4972 17.6639C55.5471 17.6639 55.6004 17.6506 55.6503 17.6273L56.2424 17.3215C56.4054 17.2384 56.4686 17.0356 56.3855 16.8726Z" fill="#828489"/>
<path id="Vector_109" d="M44.8483 23.1363C44.8982 23.1363 44.9514 23.123 45.0013 23.0998L45.5935 22.7939C45.7565 22.7108 45.8197 22.508 45.7365 22.3451C45.6534 22.1821 45.4538 22.119 45.2874 22.2021L44.6953 22.508C44.5323 22.5911 44.469 22.7939 44.5522 22.9568C44.6121 23.0698 44.7285 23.1363 44.8483 23.1363Z" fill="#828489"/>
<path id="Vector_110" d="M52.8357 18.698C52.7525 18.5351 52.5529 18.4686 52.3866 18.555L51.7944 18.8575C51.6314 18.9407 51.5682 19.1435 51.6513 19.3064C51.7112 19.4194 51.8277 19.4859 51.9474 19.4859C51.9973 19.4859 52.0505 19.4726 52.1005 19.4493L52.6926 19.1468C52.8556 19.0637 52.9188 18.8609 52.8357 18.698Z" fill="#828489"/>
<path id="Vector_111" d="M69.6994 10.363C69.7493 10.363 69.8025 10.3497 69.8524 10.3264L70.4446 10.0239C70.6076 9.94075 70.6708 9.74127 70.5876 9.57503C70.5045 9.41213 70.3048 9.34563 70.1385 9.43207L69.5463 9.73462C69.3833 9.81774 69.3201 10.0172 69.4033 10.1834C69.4632 10.2998 69.5796 10.363 69.6994 10.363Z" fill="#828489"/>
<path id="Vector_112" d="M73.2492 8.53779C73.2991 8.53779 73.3523 8.52449 73.4022 8.50121L73.9944 8.19867C74.1574 8.11555 74.2206 7.91275 74.1374 7.74984C74.0543 7.58693 73.8547 7.52044 73.6883 7.60688L73.0961 7.90942C72.9331 7.99254 72.8699 8.19535 72.9531 8.35825C73.013 8.47129 73.1294 8.53779 73.2492 8.53779Z" fill="#828489"/>
<path id="Vector_113" d="M53.6576 106.429C53.6776 106.429 53.6976 106.429 53.7175 106.423L54.3729 106.306C54.5525 106.273 54.6756 106.1 54.6424 105.921C54.6091 105.741 54.4394 105.618 54.2565 105.651L53.6011 105.768C53.4214 105.801 53.2983 105.974 53.3316 106.153C53.3615 106.316 53.5013 106.429 53.6576 106.429Z" fill="#828489"/>
<path id="Vector_114" d="M41.9241 108.524C41.9075 108.78 42.0373 109.032 42.2801 109.159L43.165 109.621C43.2615 109.671 43.368 109.697 43.4711 109.697C43.7106 109.697 43.9435 109.568 44.0633 109.338C44.2329 109.013 44.1065 108.61 43.7805 108.441L42.8956 107.979C42.8723 107.965 42.849 107.959 42.8257 107.952C42.7658 107.812 42.6261 107.723 42.4664 107.752L41.811 107.869C41.6314 107.902 41.5083 108.075 41.5416 108.254C41.5715 108.414 41.7112 108.527 41.8676 108.527C41.8842 108.527 41.9042 108.527 41.9208 108.524H41.9241Z" fill="#828489"/>
<path id="Vector_115" d="M49.4024 106.855C49.4323 107.014 49.5721 107.127 49.7284 107.127C49.7484 107.127 49.7684 107.127 49.7883 107.121L50.4437 107.004C50.6233 106.971 50.7464 106.798 50.7132 106.619C50.6799 106.439 50.5102 106.316 50.3273 106.349L49.6719 106.466C49.4922 106.499 49.3691 106.672 49.4024 106.851V106.855Z" fill="#828489"/>
<path id="Vector_116" d="M46.5116 107.706C46.6912 107.673 46.8143 107.5 46.781 107.32C46.7478 107.141 46.5781 107.018 46.3951 107.051L45.7398 107.167C45.5601 107.201 45.437 107.373 45.4703 107.553C45.5002 107.713 45.6399 107.826 45.7963 107.826C45.8163 107.826 45.8362 107.826 45.8562 107.819L46.5116 107.703V107.706Z" fill="#828489"/>
<path id="Vector_117" d="M139.122 104.178C139.276 104.178 139.415 104.072 139.449 103.912C139.485 103.733 139.369 103.557 139.189 103.52L138.537 103.384C138.357 103.347 138.181 103.46 138.144 103.643C138.108 103.823 138.224 103.999 138.404 104.035L139.056 104.172C139.079 104.175 139.103 104.178 139.122 104.178Z" fill="#828489"/>
<path id="Vector_118" d="M143.032 104.99C143.185 104.99 143.324 104.883 143.358 104.724C143.394 104.544 143.278 104.368 143.098 104.331L142.446 104.195C142.267 104.159 142.09 104.272 142.054 104.454C142.017 104.634 142.133 104.81 142.313 104.847L142.965 104.983C142.988 104.986 143.012 104.99 143.032 104.99Z" fill="#828489"/>
<path id="Vector_119" d="M150.85 106.612C151.003 106.612 151.142 106.506 151.176 106.346C151.212 106.167 151.096 105.99 150.916 105.954L150.264 105.818C150.084 105.781 149.908 105.894 149.871 106.077C149.835 106.256 149.951 106.433 150.131 106.469L150.783 106.605C150.806 106.609 150.83 106.612 150.85 106.612Z" fill="#828489"/>
<path id="Vector_120" d="M146.94 105.801C147.093 105.801 147.233 105.695 147.266 105.535C147.303 105.355 147.187 105.179 147.007 105.143L146.355 105.006C146.175 104.97 145.999 105.086 145.962 105.266C145.926 105.445 146.042 105.621 146.222 105.658L146.874 105.794C146.897 105.798 146.92 105.801 146.94 105.801Z" fill="#828489"/>
<path id="Vector_121" d="M135.213 103.367C135.366 103.367 135.506 103.261 135.539 103.101C135.576 102.922 135.459 102.746 135.28 102.709L134.628 102.573C134.448 102.536 134.272 102.652 134.235 102.832C134.199 103.011 134.315 103.188 134.495 103.224L135.147 103.361C135.17 103.364 135.193 103.367 135.213 103.367Z" fill="#828489"/>
<path id="Vector_122" d="M154.688 107.413C154.712 107.417 154.735 107.42 154.755 107.42C154.908 107.42 155.048 107.314 155.081 107.154C155.117 106.974 155.001 106.798 154.821 106.762L154.169 106.625C153.99 106.589 153.813 106.702 153.777 106.885C153.74 107.064 153.857 107.24 154.036 107.277L154.688 107.413Z" fill="#828489"/>
<path id="Vector_123" d="M105.558 43.7592C105.558 43.5764 105.409 43.4268 105.226 43.4268C105.043 43.4268 104.893 43.5764 104.893 43.7592V44.4242C104.893 44.607 105.043 44.7566 105.226 44.7566C105.409 44.7566 105.558 44.607 105.558 44.4242V43.7592Z" fill="#828489"/>
<path id="Vector_124" d="M105.226 39.4373C105.043 39.4373 104.893 39.5869 104.893 39.7697V40.4347C104.893 40.6175 105.043 40.7671 105.226 40.7671C105.409 40.7671 105.558 40.6175 105.558 40.4347V39.7697C105.558 39.5869 105.409 39.4373 105.226 39.4373Z" fill="#828489"/>
<path id="Vector_125" d="M105.558 47.7488C105.558 47.566 105.409 47.4164 105.226 47.4164C105.043 47.4164 104.893 47.566 104.893 47.7488V48.4138C104.893 48.5966 105.043 48.7462 105.226 48.7462C105.409 48.7462 105.558 48.5966 105.558 48.4138V47.7488Z" fill="#828489"/>
<path id="Vector_126" d="M105.226 51.406C105.043 51.406 104.893 51.5556 104.893 51.7385V52.4034C104.893 52.5863 105.043 52.7359 105.226 52.7359C105.409 52.7359 105.558 52.5863 105.558 52.4034V51.7385C105.558 51.5556 105.409 51.406 105.226 51.406Z" fill="#828489"/>
<path id="Vector_127" d="M105.558 87.6448C105.558 87.462 105.409 87.3124 105.226 87.3124C105.043 87.3124 104.893 87.462 104.893 87.6448V88.3098C104.893 88.4926 105.043 88.6422 105.226 88.6422C105.409 88.6422 105.558 88.4926 105.558 88.3098V87.6448Z" fill="#828489"/>
<path id="Vector_128" d="M105.226 91.302C105.043 91.302 104.893 91.4516 104.893 91.6345V92.2994C104.893 92.4823 105.043 92.6319 105.226 92.6319C105.409 92.6319 105.558 92.4823 105.558 92.2994V91.6345C105.558 91.4516 105.409 91.302 105.226 91.302Z" fill="#828489"/>
<path id="Vector_129" d="M114.92 33.4229C114.741 33.4595 114.624 33.6357 114.664 33.8152C114.697 33.9715 114.834 34.0812 114.99 34.0812C115.013 34.0812 115.037 34.0812 115.06 34.0746L115.712 33.9383C115.892 33.9017 116.008 33.7255 115.968 33.546C115.932 33.3664 115.752 33.2501 115.576 33.2899L114.924 33.4263L114.92 33.4229Z" fill="#828489"/>
<path id="Vector_130" d="M118.569 33.004C118.603 33.1602 118.739 33.2699 118.895 33.2699C118.919 33.2699 118.942 33.2699 118.965 33.2633L119.617 33.127C119.797 33.0904 119.913 32.9142 119.874 32.7347C119.837 32.5551 119.661 32.4388 119.481 32.4787L118.829 32.615C118.649 32.6516 118.533 32.8278 118.573 33.0073L118.569 33.004Z" fill="#828489"/>
<path id="Vector_131" d="M122.479 32.1894C122.512 32.3457 122.648 32.4554 122.805 32.4554C122.828 32.4554 122.851 32.4554 122.875 32.4487L123.527 32.3124C123.706 32.2758 123.823 32.0996 123.783 31.9201C123.746 31.7406 123.57 31.6242 123.39 31.6608L122.738 31.7971C122.558 31.8337 122.442 32.0099 122.482 32.1894H122.479Z" fill="#828489"/>
<path id="Vector_132" d="M126.388 31.3749C126.421 31.5312 126.557 31.6409 126.714 31.6409C126.737 31.6409 126.76 31.6409 126.784 31.6343L127.436 31.498C127.615 31.4614 127.732 31.2852 127.692 31.1056C127.655 30.9261 127.479 30.8097 127.299 30.8463L126.647 30.9826C126.468 31.0192 126.351 31.1954 126.391 31.3749H126.388Z" fill="#828489"/>
<path id="Vector_133" d="M134.528 30.0151C134.551 30.0151 134.575 30.0151 134.598 30.0084L135.25 29.8721C135.43 29.8355 135.546 29.6593 135.51 29.4798C135.473 29.3003 135.297 29.1839 135.117 29.2238L134.465 29.3601C134.285 29.3967 134.169 29.5729 134.205 29.7524C134.239 29.9087 134.375 30.0184 134.531 30.0184L134.528 30.0151Z" fill="#828489"/>
<path id="Vector_134" d="M142.346 28.386C142.369 28.386 142.393 28.386 142.416 28.3794L143.068 28.2431C143.248 28.2065 143.364 28.0303 143.324 27.8508C143.288 27.6712 143.111 27.5549 142.932 27.5948L142.28 27.7311C142.1 27.7676 141.984 27.9438 142.023 28.1234C142.057 28.2796 142.193 28.3894 142.35 28.3894L142.346 28.386Z" fill="#828489"/>
<path id="Vector_135" d="M138.437 29.2006C138.461 29.2006 138.484 29.2006 138.507 29.194L139.159 29.0576C139.339 29.0211 139.455 28.8449 139.415 28.6653C139.379 28.4858 139.202 28.3694 139.023 28.406L138.371 28.5423C138.191 28.5789 138.075 28.7551 138.111 28.9346C138.144 29.0909 138.281 29.2006 138.437 29.2006Z" fill="#828489"/>
<path id="Vector_136" d="M146.255 27.5748C146.279 27.5748 146.302 27.5748 146.325 27.5681L146.977 27.4318C147.157 27.3952 147.273 27.219 147.233 27.0395C147.197 26.8599 147.017 26.7436 146.841 26.7835L146.189 26.9198C146.009 26.9564 145.893 27.1326 145.933 27.3121C145.966 27.4684 146.102 27.5781 146.259 27.5781L146.255 27.5748Z" fill="#828489"/>
<path id="Vector_137" d="M130.296 30.5637C130.33 30.7199 130.466 30.8296 130.622 30.8296C130.646 30.8296 130.669 30.8296 130.692 30.823L131.344 30.6867C131.524 30.6501 131.64 30.4739 131.604 30.2944C131.567 30.1148 131.391 29.9985 131.211 30.035L130.559 30.1714C130.38 30.2079 130.263 30.3841 130.3 30.5637H130.296Z" fill="#828489"/>
<path id="Vector_138" d="M107.754 34.9157L107.102 35.052C106.923 35.0885 106.806 35.2647 106.843 35.4443C106.876 35.6005 107.012 35.7103 107.169 35.7103C107.192 35.7103 107.215 35.7102 107.239 35.7036L107.891 35.5673C108.07 35.5307 108.187 35.3545 108.15 35.175C108.113 34.9954 107.937 34.8791 107.758 34.919L107.754 34.9157Z" fill="#828489"/>
<path id="Vector_139" d="M150.161 26.7603C150.184 26.7603 150.207 26.7603 150.23 26.7537L150.883 26.6173C151.062 26.5808 151.179 26.4046 151.139 26.225C151.102 26.0455 150.926 25.9291 150.746 25.9657L150.094 26.102C149.914 26.1386 149.798 26.3148 149.838 26.4943C149.871 26.6506 150.008 26.7603 150.164 26.7603H150.161Z" fill="#828489"/>
<path id="Vector_140" d="M111.663 34.1011L111.011 34.2374C110.831 34.274 110.715 34.4502 110.755 34.6297C110.788 34.786 110.925 34.8957 111.081 34.8957C111.104 34.8957 111.128 34.8957 111.151 34.889L111.803 34.7527C111.982 34.7161 112.099 34.5399 112.059 34.3604C112.022 34.1809 111.843 34.0645 111.666 34.1044L111.663 34.1011Z" fill="#828489"/>
<path id="Vector_141" d="M157.979 25.1344C158.002 25.1344 158.025 25.1344 158.049 25.1278L158.701 24.9915C158.88 24.9549 158.997 24.7787 158.96 24.5992C158.924 24.4196 158.747 24.3033 158.568 24.3432L157.916 24.4795C157.736 24.5161 157.62 24.6923 157.656 24.8718C157.689 25.0281 157.826 25.1378 157.982 25.1378L157.979 25.1344Z" fill="#828489"/>
<path id="Vector_142" d="M154.07 25.9457C154.093 25.9457 154.116 25.9457 154.14 25.9391L154.792 25.8028C154.971 25.7662 155.088 25.59 155.051 25.4105C155.014 25.2309 154.838 25.1146 154.659 25.1511L154.006 25.2874C153.827 25.324 153.71 25.5002 153.747 25.6798C153.78 25.836 153.917 25.9457 154.073 25.9457H154.07Z" fill="#828489"/>
<path id="Vector_143" d="M60.9068 28.386L61.5622 28.499C61.5821 28.5023 61.6021 28.5057 61.6187 28.5057C61.7784 28.5057 61.9181 28.3926 61.9447 28.2297C61.9747 28.0502 61.8549 27.8773 61.6753 27.8441L61.0199 27.731C60.8369 27.7011 60.6672 27.8208 60.634 28.0003C60.604 28.1799 60.7238 28.3527 60.9035 28.386H60.9068Z" fill="#828489"/>
<path id="Vector_144" d="M64.8389 29.0742L65.4943 29.1873C65.5142 29.1906 65.5342 29.1939 65.5508 29.1939C65.7105 29.1939 65.8502 29.0809 65.8769 28.918C65.9068 28.7384 65.787 28.5655 65.6074 28.5323L64.952 28.4193C64.769 28.3893 64.5994 28.509 64.5661 28.6886C64.5362 28.8681 64.6559 29.041 64.8356 29.0742H64.8389Z" fill="#828489"/>
<path id="Vector_145" d="M56.9712 27.7012L57.6266 27.8142C57.6466 27.8175 57.6665 27.8209 57.6832 27.8209C57.8428 27.8209 57.9826 27.7078 58.0092 27.5449C58.0391 27.3654 57.9194 27.1925 57.7397 27.1592L57.0843 27.0462C56.9047 27.013 56.7317 27.136 56.6984 27.3155C56.6685 27.495 56.7883 27.6679 56.9679 27.7012H56.9712Z" fill="#828489"/>
<path id="Vector_146" d="M85.1554 32.6183C85.1754 32.6216 85.1953 32.6249 85.212 32.6249C85.3717 32.6249 85.5114 32.5119 85.538 32.349C85.5679 32.1695 85.4482 31.9966 85.2685 31.9633L84.6131 31.8503C84.4302 31.8204 84.2605 31.9401 84.2272 32.1196C84.1973 32.2991 84.3171 32.472 84.4967 32.5052L85.1521 32.6183H85.1554Z" fill="#828489"/>
<path id="Vector_147" d="M53.754 27.1359C53.9136 27.1359 54.0534 27.0229 54.08 26.86C54.1099 26.6804 53.9902 26.5076 53.8105 26.4743L53.1551 26.3613C52.9755 26.328 52.8025 26.451 52.7692 26.6306C52.7393 26.8101 52.8591 26.983 53.0387 27.0162L53.6941 27.1293C53.714 27.1326 53.734 27.1359 53.7506 27.1359H53.754Z" fill="#828489"/>
<path id="Vector_148" d="M76.6358 31.1322L77.2912 31.2452C77.3111 31.2486 77.3311 31.2519 77.3477 31.2519C77.5074 31.2519 77.6471 31.1388 77.6737 30.9759C77.7037 30.7964 77.5839 30.6235 77.4043 30.5903L76.7489 30.4772C76.5659 30.444 76.3963 30.567 76.363 30.7465C76.333 30.9261 76.4528 31.0989 76.6325 31.1322H76.6358Z" fill="#828489"/>
<path id="Vector_149" d="M44.905 25.2575C44.875 25.4371 44.9948 25.6099 45.1744 25.6432L45.8298 25.7562C45.8498 25.7595 45.8697 25.7629 45.8864 25.7629C46.0461 25.7629 46.1858 25.6498 46.2124 25.4869C46.2423 25.3074 46.1226 25.1345 45.9429 25.1013L45.2876 24.9882C45.1046 24.9583 44.9349 25.078 44.9017 25.2575H44.905Z" fill="#828489"/>
<path id="Vector_150" d="M104.933 35.3944L104.278 35.2813C104.095 35.2514 103.925 35.3711 103.892 35.5506C103.862 35.7301 103.982 35.903 104.161 35.9363L104.817 36.0493C104.837 36.0526 104.857 36.056 104.873 36.056C104.88 36.056 104.883 36.056 104.89 36.056V36.4516C104.89 36.6345 105.04 36.7841 105.223 36.7841C105.405 36.7841 105.555 36.6345 105.555 36.4516V35.7867C105.555 35.6038 105.405 35.4542 105.223 35.4542C105.176 35.4542 105.133 35.4642 105.089 35.4808C105.046 35.4409 104.993 35.4077 104.93 35.3977L104.933 35.3944Z" fill="#828489"/>
<path id="Vector_151" d="M96.0275 34.1776C95.9976 34.3571 96.1174 34.53 96.297 34.5633L96.9524 34.6763C96.9723 34.6763 96.9923 34.6796 97.0089 34.6796C97.1686 34.6796 97.3083 34.5666 97.335 34.4037C97.3649 34.2241 97.2451 34.0513 97.0655 34.018L96.4101 33.905C96.2271 33.8717 96.0575 33.9947 96.0242 34.1743L96.0275 34.1776Z" fill="#828489"/>
<path id="Vector_152" d="M68.771 29.7592L69.4264 29.8722C69.4464 29.8755 69.4663 29.8788 69.483 29.8788C69.6427 29.8788 69.7824 29.7658 69.809 29.6029C69.8389 29.4234 69.7192 29.2505 69.5395 29.2172L68.8841 29.1042C68.7012 29.0743 68.5315 29.194 68.4982 29.3735C68.4683 29.553 68.5881 29.7259 68.7677 29.7592H68.771Z" fill="#828489"/>
<path id="Vector_153" d="M72.7032 30.4473L73.3585 30.5603C73.3785 30.5636 73.3985 30.567 73.4151 30.567C73.5748 30.567 73.7145 30.4539 73.7411 30.291C73.7711 30.1115 73.6513 29.9386 73.4716 29.9053L72.8163 29.7923C72.6333 29.7624 72.4636 29.8821 72.4304 30.0616C72.4004 30.2411 72.5202 30.414 72.6998 30.4473H72.7032Z" fill="#828489"/>
<path id="Vector_154" d="M80.2985 31.4313C80.2686 31.6109 80.3884 31.7838 80.568 31.817L81.2234 31.93C81.2433 31.9334 81.2633 31.9367 81.2799 31.9367C81.4396 31.9367 81.5793 31.8237 81.606 31.6607C81.6359 31.4812 81.5161 31.3083 81.3365 31.2751L80.6811 31.162C80.5015 31.1288 80.3285 31.2518 80.2952 31.4313H80.2985Z" fill="#828489"/>
<path id="Vector_155" d="M48.8371 25.9458C48.8072 26.1253 48.9269 26.2982 49.1066 26.3314L49.7619 26.4445C49.7819 26.4478 49.8019 26.4511 49.8185 26.4511C49.9782 26.4511 50.1179 26.3381 50.1445 26.1752C50.1745 25.9956 50.0547 25.8227 49.8751 25.7895L49.2197 25.6765C49.0367 25.6465 48.867 25.7662 48.8338 25.9458H48.8371Z" fill="#828489"/>
<path id="Vector_156" d="M88.835 132.638L91.0207 128.349C91.187 128.023 91.0573 127.621 90.7279 127.454C90.4019 127.288 89.9993 127.418 89.833 127.747L88.0698 131.208C87.8769 131.278 87.7405 131.461 87.7405 131.673H77.0848C76.7188 131.673 76.4194 131.973 76.4194 132.338C76.4194 132.704 76.7188 133.003 77.0848 133.003H88.2395C88.296 133.003 88.3493 132.993 88.4025 132.98C88.4158 132.977 88.4291 132.973 88.4424 132.967C88.4823 132.953 88.5223 132.937 88.5588 132.917C88.5688 132.91 88.5821 132.907 88.5921 132.897C88.6387 132.867 88.6786 132.834 88.7152 132.797C88.7219 132.791 88.7285 132.781 88.7352 132.774C88.7651 132.737 88.795 132.701 88.815 132.658C88.8183 132.651 88.825 132.644 88.8283 132.638H88.835Z" fill="#828489"/>
<path id="Vector_157" d="M36.3718 30.6567C36.5182 30.6567 36.6645 30.6102 36.7876 30.5104L41.2023 26.9597V27.8839C41.2023 28.2497 41.5017 28.5489 41.8676 28.5489C42.2336 28.5489 42.533 28.2497 42.533 27.8839V27.4418L46.4153 31.7638C46.5484 31.9101 46.728 31.9833 46.911 31.9833C47.0707 31.9833 47.227 31.9267 47.3535 31.8137C47.6263 31.5677 47.6495 31.1488 47.4034 30.8761L42.2901 25.1843C42.2901 25.1843 42.2668 25.1644 42.2568 25.1544C42.2402 25.1378 42.2236 25.1211 42.2036 25.1078C42.187 25.0945 42.1703 25.0846 42.1504 25.0746C42.1338 25.0646 42.1171 25.0513 42.0972 25.0413C42.187 24.9948 42.2568 24.9117 42.2768 24.8053C42.2968 24.6856 42.2469 24.5759 42.1637 24.5027C42.2236 24.4063 42.2369 24.2866 42.1803 24.1803C42.0972 24.0174 41.8976 23.9542 41.7312 24.0373L41.139 24.3432C41.139 24.3432 41.1291 24.3531 41.1224 24.3565C41.1025 24.3698 41.0858 24.3831 41.0692 24.3997C41.0525 24.413 41.0392 24.4263 41.0259 24.4429C41.0126 24.4595 41.006 24.4795 40.996 24.4961C40.986 24.516 40.976 24.536 40.9727 24.5593C40.9727 24.5659 40.9661 24.5726 40.9661 24.5792C40.9661 24.5925 40.9661 24.6058 40.9661 24.6191C40.9661 24.6424 40.9661 24.6623 40.9661 24.6856C40.9694 24.7089 40.976 24.7288 40.9827 24.7488C40.986 24.7621 40.986 24.7754 40.9927 24.7853C40.996 24.7953 41.006 24.802 41.0093 24.8086C41.016 24.8186 41.0226 24.8252 41.0293 24.8352C41.0492 24.8618 41.0725 24.8818 41.0991 24.9017C41.1058 24.905 41.1091 24.9117 41.1124 24.915C41.1457 24.935 41.1823 24.9483 41.2189 24.9582C41.2222 24.9582 41.2255 24.9616 41.2289 24.9616L41.5383 25.0147C41.5383 25.0147 41.525 25.0214 41.5216 25.0214C41.5017 25.028 41.485 25.038 41.4684 25.048C41.4484 25.058 41.4285 25.0746 41.4085 25.0879C41.3952 25.0979 41.3819 25.1045 41.3686 25.1145L35.9393 29.4798C35.6532 29.7092 35.6066 30.1281 35.8395 30.414C35.9726 30.5769 36.1622 30.6634 36.3585 30.6634L36.3718 30.6567Z" fill="#828489"/>
<path id="Vector_158" d="M22.9947 120.34C20.646 120.34 19.5415 122.408 19.5415 125.047C19.5548 127.617 20.5894 129.725 22.9381 129.725C25.2868 129.725 26.3747 127.784 26.3747 124.991C26.3747 122.504 25.4099 120.34 22.9914 120.34H22.9947ZM22.9814 128.119C22.1697 128.119 21.6673 127.129 21.6673 125.047C21.6673 122.966 22.1996 121.945 22.9681 121.945C23.8197 121.945 24.2555 123.006 24.2555 125.017C24.2555 127.029 23.8098 128.119 22.9847 128.119H22.9814Z" fill="#828489"/>
<path id="Vector_159" d="M28.7932 127.142C28.0513 127.142 27.5356 127.674 27.5356 128.442C27.5356 129.21 28.0513 129.729 28.7666 129.729C29.535 129.729 30.0374 129.183 30.0374 128.442C30.0241 127.661 29.5217 127.142 28.7932 127.142Z" fill="#828489"/>
<path id="Vector_160" d="M36.3781 124.266C35.7493 123.804 34.8544 123.611 33.9895 123.611C33.7666 123.611 33.5969 123.611 33.404 123.638L33.6003 122.241H37.1233V120.496H32.1198L31.5343 125.257C31.8969 125.2 32.2463 125.174 32.7486 125.174C34.565 125.174 35.3069 125.746 35.3069 126.683C35.3069 127.621 34.3721 128.066 33.4905 128.066C32.6654 128.066 31.8404 127.814 31.4512 127.621L31.0586 129.213C31.5609 129.479 32.4858 129.729 33.5869 129.729C36.0321 129.729 37.4859 128.232 37.4859 126.544C37.4859 125.483 37.0668 124.728 36.3814 124.266H36.3781Z" fill="#828489"/>
<path id="Vector_161" d="M49.9314 122.574C49.4291 122.574 49.0099 122.7 48.6307 122.91C48.2947 123.106 48.0019 123.385 47.7358 123.747H47.7092C47.4164 123.036 46.7311 122.574 45.8362 122.574C44.6751 122.574 44.063 123.216 43.7669 123.664H43.7237L43.6405 122.743H41.8374C41.864 123.358 41.894 124.07 41.894 124.921V129.572H43.9632V125.593C43.9632 125.41 43.9765 125.217 44.0464 125.047C44.1728 124.712 44.4922 124.293 45.0378 124.293C45.7231 124.293 46.0291 124.878 46.0291 125.732V129.572H48.0984V125.579C48.0984 125.396 48.125 125.187 48.1683 125.034C48.3213 124.628 48.6573 124.293 49.1596 124.293C49.845 124.293 50.1643 124.865 50.1643 125.859V129.572H52.2336V125.549C52.2336 123.498 51.2422 122.574 49.9281 122.574H49.9314Z" fill="#828489"/>
<path id="Vector_162" d="M3.45319 64.226C1.10449 64.226 0 66.2939 0 68.9337C0.0133071 71.5037 1.04793 73.6115 3.39664 73.6115C5.74534 73.6115 6.8332 71.6699 6.8332 68.8772C6.8332 66.3903 5.86843 64.226 3.44987 64.226H3.45319ZM3.43989 72.0057C2.62815 72.0057 2.12581 71.0149 2.12581 68.9337C2.12581 66.8524 2.6581 65.8318 3.42658 65.8318C4.27824 65.8318 4.71072 66.8923 4.71072 68.9038C4.71072 70.9152 4.26493 72.0057 3.43989 72.0057Z" fill="#828489"/>
<path id="Vector_163" d="M9.24824 71.0282C8.50637 71.0282 7.99072 71.5601 7.99072 72.3281C7.99072 73.0961 8.50637 73.6148 9.22163 73.6148C9.99012 73.6148 10.4925 73.0695 10.4925 72.3281C10.4792 71.5468 9.97681 71.0282 9.24824 71.0282Z" fill="#828489"/>
<path id="Vector_164" d="M16.8367 68.1524C16.2079 67.6903 15.313 67.4974 14.4481 67.4974C14.2252 67.4974 14.0555 67.4974 13.8626 67.524L14.0588 66.1277H17.5819V64.3822H12.5784L11.9929 69.1431C12.3555 69.0866 12.7048 69.06 13.2105 69.06C15.0269 69.06 15.7688 69.6319 15.7688 70.5694C15.7688 71.507 14.834 71.9525 13.9524 71.9525C13.1273 71.9525 12.3023 71.6998 11.9131 71.507L11.5205 73.0995C12.0229 73.3655 12.9477 73.6148 14.0489 73.6148C16.494 73.6148 17.9478 72.1187 17.9478 70.4298C17.9478 69.3692 17.5287 68.6145 16.8434 68.1524H16.8367Z" fill="#828489"/>
<path id="Vector_165" d="M32.6954 73.4585V69.4357C32.6954 67.381 31.704 66.4601 30.3899 66.4601C29.8876 66.4601 29.4684 66.5864 29.0892 66.7959C28.7532 66.992 28.4604 67.2713 28.1943 67.6337H28.1677C27.8749 66.9222 27.1896 66.4601 26.2947 66.4601C25.1336 66.4601 24.5215 67.1017 24.2254 67.5506H24.1822L24.099 66.6296H22.2959C22.3225 67.2447 22.3525 67.9562 22.3525 68.8073V73.4585H24.4217V69.4789C24.4217 69.296 24.435 69.1032 24.5049 68.9336C24.6313 68.5978 24.9507 68.1789 25.4963 68.1789C26.1816 68.1789 26.4876 68.7641 26.4876 69.6185V73.4585H28.5569V69.4656C28.5569 69.2827 28.5835 69.0733 28.6268 68.9203C28.7798 68.5147 29.1158 68.1789 29.6181 68.1789C30.3035 68.1789 30.6228 68.7508 30.6228 69.7449V73.4585H32.6921H32.6954Z" fill="#828489"/>
</g>
<defs>
<clipPath id="clip0_1257_4006">
<rect width="159" height="133" fill="white"/>
</clipPath>
</defs>
</svg>
