<svg width="173" height="116" viewBox="0 0 173 116" fill="none" xmlns="http://www.w3.org/2000/svg">
<g id="Vector">
<path d="M32.193 38.5093C34.9716 38.5093 37.2241 36.2378 37.2241 33.4358C37.2241 30.6338 34.9716 28.3624 32.193 28.3624C29.4144 28.3624 27.1619 30.6338 27.1619 33.4358C27.1619 36.2378 29.4144 38.5093 32.193 38.5093Z" fill="#828489"/>
<path d="M51.0102 80.4765C51.5361 80.3355 51.8462 79.7929 51.7064 79.2626L50.2441 73.7538C50.1985 73.5852 50.2989 73.4105 50.4661 73.3676C50.6333 73.3216 50.8065 73.4227 50.8491 73.5913L52.3113 79.1001C52.4511 79.6304 52.9892 79.9431 53.5151 79.8021C54.041 79.6611 54.3511 79.1185 54.2113 78.5882L52.7551 73.1039L52.743 73.0549C52.7126 72.8955 52.8068 72.736 52.9679 72.6931C53.1351 72.6471 53.3084 72.7483 53.351 72.9169L54.8132 78.4257H54.8193C54.9591 78.953 55.4972 79.2687 56.0231 79.1246C56.5155 78.9928 56.8135 78.5054 56.7344 78.0088C56.7283 77.9751 56.7283 77.9444 56.7192 77.9107C56.7101 77.877 56.6949 77.8494 56.6858 77.8187L56.5125 77.1627L57.0506 77.0493C57.0779 77.0431 57.1022 77.0309 57.1235 77.0186L57.3181 77.7513H57.3272C57.467 78.2785 58.0051 78.5912 58.531 78.4502C59.0569 78.3092 59.367 77.7666 59.2272 77.2363L57.765 71.7275L57.6434 71.2646C57.3211 70.0537 56.248 69.2475 55.0655 69.2199C54.874 69.2168 54.6825 69.2321 54.4879 69.2689L48.5722 46.9641C48.2378 45.7072 46.958 44.9592 45.7085 45.2964C44.4622 45.6336 43.7204 46.9242 44.0548 48.1841L44.8847 51.3141H43.2036V50.4864C43.2036 50.1492 42.93 49.8733 42.5956 49.8733C42.2613 49.8733 41.9877 50.1492 41.9877 50.4864V51.3141H40.5072L35.4214 42.9789C35.1812 42.3933 34.8529 41.8599 34.4486 41.3878L34.4395 41.3725V41.3786C33.3694 40.1279 31.7887 39.3309 30.0194 39.3309C26.794 39.3309 24.1797 41.9672 24.1797 45.2198L24.1949 77.0401C24.1949 78.7844 25.5963 80.1976 27.3291 80.1976C29.0618 80.1976 30.4602 78.7844 30.4602 77.0401V65.4002L34.0777 69.0513C34.172 69.7257 34.4486 71.6846 35.2451 77.3436C35.3971 78.9468 36.7346 80.2006 38.3641 80.2006C40.0938 80.2006 41.4982 78.7874 41.4982 77.0431C41.4982 76.9267 41.4921 76.8132 41.48 76.6998L41.477 76.6814C41.4648 76.5741 41.4466 76.4668 41.4253 76.3626L40.0056 67.8128C40.0208 67.6871 40.0299 67.5583 40.0299 67.4265C40.0299 66.9299 39.9144 66.464 39.7107 66.044C39.6195 65.857 39.5132 65.6822 39.3916 65.5198L39.4159 65.4952L33.7677 59.7995V52.3073L36.078 56.0963C36.1084 56.1484 36.1388 56.2005 36.1723 56.2496L36.2726 56.4151L36.2665 56.3783C36.838 57.1386 37.7409 57.6321 38.7623 57.6321C38.893 57.6321 39.0237 57.6199 39.1514 57.6045H46.5567L49.9766 70.4921C49.7912 70.5564 49.6149 70.6392 49.4507 70.7404C48.4384 71.3596 47.9095 72.5981 48.2287 73.809L49.3534 78.0456L49.1923 78.0793C49.0282 78.113 48.9218 78.2755 48.9582 78.441C48.9886 78.5851 49.1133 78.6863 49.2562 78.6863C49.2774 78.6863 49.2987 78.6863 49.32 78.6801L49.5146 78.6403L49.8186 79.7837C49.9584 80.3141 50.4965 80.6267 51.0224 80.4857L51.0102 80.4765ZM55.4698 72.0156C55.637 71.9697 55.8103 72.0708 55.8528 72.2394L56.9685 76.4454C56.9533 76.4454 56.9381 76.4454 56.9199 76.4454L56.3483 76.5649L55.2448 72.4019C55.1992 72.2333 55.2996 72.0586 55.4668 72.0156H55.4698ZM35.8348 53.3312V53.3189H35.8379C35.8379 53.322 35.8379 53.3251 35.8348 53.3312Z" fill="#828489"/>
<path d="M140.698 7.93362L141.272 8.13288C141.306 8.14514 141.339 8.15127 141.372 8.15127C141.5 8.15127 141.616 8.07156 141.661 7.94588C141.716 7.78647 141.631 7.61173 141.473 7.55655L140.898 7.35729C140.74 7.30211 140.567 7.38795 140.512 7.54736C140.457 7.70677 140.543 7.8815 140.701 7.93668L140.698 7.93362Z" fill="#828489"/>
<path d="M155.268 12.3449L154.693 12.1457C154.535 12.0905 154.362 12.1763 154.307 12.3357C154.253 12.4951 154.338 12.6699 154.496 12.7251L155.07 12.9243C155.104 12.9366 155.137 12.9427 155.171 12.9427C155.298 12.9427 155.414 12.863 155.46 12.7373C155.514 12.5779 155.429 12.4032 155.271 12.348L155.268 12.3449Z" fill="#828489"/>
<path d="M144.148 9.13224L144.722 9.3315C144.756 9.34376 144.789 9.34683 144.823 9.34683C144.95 9.34683 145.066 9.26713 145.112 9.13837C145.166 8.97896 145.081 8.80423 144.923 8.74905L144.349 8.54979C144.19 8.49461 144.017 8.58045 143.962 8.73985C143.908 8.89926 143.993 9.074 144.151 9.12918L144.148 9.13224Z" fill="#828489"/>
<path d="M147.598 10.3309L148.173 10.5301C148.206 10.5424 148.24 10.5485 148.273 10.5485C148.401 10.5485 148.516 10.4688 148.562 10.3431C148.617 10.1837 148.532 10.009 148.373 9.95381L147.799 9.75455C147.641 9.69937 147.468 9.7852 147.413 9.94461C147.358 10.104 147.443 10.2788 147.601 10.3339L147.598 10.3309Z" fill="#828489"/>
<path d="M158.718 13.5436L158.144 13.3443C157.986 13.2891 157.812 13.3749 157.758 13.5344C157.703 13.6938 157.788 13.8685 157.946 13.9237L158.521 14.1229C158.554 14.1352 158.588 14.1413 158.621 14.1413C158.749 14.1413 158.864 14.0616 158.91 13.9359C158.965 13.7765 158.879 13.6018 158.721 13.5466L158.718 13.5436Z" fill="#828489"/>
<path d="M130.353 4.34387L130.927 4.54313C130.961 4.55539 130.994 4.56152 131.028 4.56152C131.155 4.56152 131.271 4.48182 131.316 4.35613C131.371 4.19672 131.286 4.02199 131.128 3.96681L130.553 3.76755C130.395 3.71237 130.222 3.7982 130.167 3.95761C130.113 4.11702 130.198 4.29175 130.356 4.34693L130.353 4.34387Z" fill="#828489"/>
<path d="M126.902 3.14524L127.477 3.3445C127.51 3.35677 127.544 3.35983 127.577 3.35983C127.705 3.35983 127.82 3.28013 127.866 3.15137C127.921 2.99197 127.836 2.81723 127.678 2.76205L127.103 2.56279C126.945 2.50761 126.772 2.59345 126.717 2.75285C126.662 2.91226 126.747 3.087 126.905 3.14218L126.902 3.14524Z" fill="#828489"/>
<path d="M162.166 14.7391L161.591 14.5399C161.433 14.4847 161.26 14.5705 161.205 14.7299C161.15 14.8893 161.235 15.0641 161.393 15.1192L161.968 15.3185C162.001 15.3308 162.035 15.3369 162.068 15.3369C162.196 15.3369 162.312 15.2572 162.357 15.1315C162.412 14.9721 162.327 14.7974 162.169 14.7422L162.166 14.7391Z" fill="#828489"/>
<path d="M133.8 5.53943L134.374 5.73869C134.408 5.75095 134.441 5.75708 134.475 5.75708C134.602 5.75708 134.718 5.67738 134.764 5.55169C134.818 5.39228 134.733 5.21755 134.575 5.16237L134.001 4.96311C133.842 4.90793 133.669 4.99376 133.615 5.15317C133.56 5.31258 133.645 5.48732 133.803 5.54249L133.8 5.53943Z" fill="#828489"/>
<path d="M137.25 6.73805L137.825 6.93731C137.858 6.94958 137.892 6.95264 137.925 6.95264C138.053 6.95264 138.168 6.87294 138.214 6.74419C138.269 6.58478 138.184 6.41004 138.025 6.35486L137.451 6.1556C137.293 6.10042 137.12 6.18626 137.065 6.34567C137.01 6.50507 137.095 6.67981 137.253 6.73499L137.25 6.73805Z" fill="#828489"/>
<path d="M123.452 1.94662L124.027 2.14588C124.06 2.15814 124.093 2.16427 124.127 2.16427C124.255 2.16427 124.37 2.08457 124.416 1.95888C124.47 1.79947 124.385 1.62474 124.227 1.56956L123.653 1.3703C123.495 1.31512 123.321 1.40095 123.267 1.56036C123.212 1.71977 123.297 1.8945 123.455 1.94968L123.452 1.94662Z" fill="#828489"/>
<path d="M151.046 11.5264L151.62 11.7257C151.654 11.7379 151.687 11.7441 151.72 11.7441C151.848 11.7441 151.964 11.6644 152.009 11.5387C152.064 11.3793 151.979 11.2045 151.821 11.1494L151.246 10.9501C151.088 10.8949 150.915 10.9808 150.86 11.1402C150.805 11.2996 150.891 11.4743 151.049 11.5295L151.046 11.5264Z" fill="#828489"/>
<path d="M165.616 15.9377L165.041 15.7385C164.883 15.6833 164.71 15.7691 164.655 15.9285C164.601 16.0879 164.686 16.2627 164.844 16.3179L165.418 16.5171C165.452 16.5294 165.485 16.5325 165.519 16.5325C165.646 16.5325 165.762 16.4527 165.807 16.324C165.862 16.1646 165.777 15.9899 165.619 15.9347L165.616 15.9377Z" fill="#828489"/>
<path d="M168.291 17.5165L168.866 17.7158C168.899 17.728 168.933 17.7341 168.966 17.7341C169.094 17.7341 169.209 17.6544 169.255 17.5288C169.31 17.3693 169.224 17.1946 169.066 17.1394L168.492 16.9402C168.334 16.885 168.16 16.9708 168.106 17.1302C168.051 17.2896 168.136 17.4644 168.294 17.5196L168.291 17.5165Z" fill="#828489"/>
<path d="M172.696 49.625C172.529 49.625 172.392 49.7629 172.392 49.9315V50.5446C172.392 50.7132 172.529 50.8512 172.696 50.8512C172.863 50.8512 173 50.7132 173 50.5446V49.9315C173 49.7629 172.863 49.625 172.696 49.625Z" fill="#828489"/>
<path d="M172.696 56.9822C172.529 56.9822 172.392 57.1202 172.392 57.2888V57.9019C172.392 58.0705 172.529 58.2085 172.696 58.2085C172.863 58.2085 173 58.0705 173 57.9019V57.2888C173 57.1202 172.863 56.9822 172.696 56.9822Z" fill="#828489"/>
<path d="M172.696 53.3036C172.529 53.3036 172.392 53.4415 172.392 53.6101V54.2233C172.392 54.3919 172.529 54.5298 172.696 54.5298C172.863 54.5298 173 54.3919 173 54.2233V53.6101C173 53.4415 172.863 53.3036 172.696 53.3036Z" fill="#828489"/>
<path d="M172.696 31.2317C172.529 31.2317 172.392 31.3697 172.392 31.5383V32.1514C172.392 32.32 172.529 32.4579 172.696 32.4579C172.863 32.4579 173 32.32 173 32.1514V31.5383C173 31.3697 172.863 31.2317 172.696 31.2317Z" fill="#828489"/>
<path d="M172.696 34.9104C172.529 34.9104 172.392 35.0483 172.392 35.2169V35.83C172.392 35.9986 172.529 36.1366 172.696 36.1366C172.863 36.1366 173 35.9986 173 35.83V35.2169C173 35.0483 172.863 34.9104 172.696 34.9104Z" fill="#828489"/>
<path d="M172.696 23.8744C172.529 23.8744 172.392 24.0124 172.392 24.181V24.7941C172.392 24.9627 172.529 25.1006 172.696 25.1006C172.863 25.1006 173 24.9627 173 24.7941V24.181C173 24.0124 172.863 23.8744 172.696 23.8744Z" fill="#828489"/>
<path d="M172.696 45.9463C172.529 45.9463 172.392 46.0843 172.392 46.2529V46.866C172.392 47.0346 172.529 47.1725 172.696 47.1725C172.863 47.1725 173 47.0346 173 46.866V46.2529C173 46.0843 172.863 45.9463 172.696 45.9463Z" fill="#828489"/>
<path d="M172.696 38.589C172.529 38.589 172.392 38.727 172.392 38.8956V39.5087C172.392 39.6773 172.529 39.8152 172.696 39.8152C172.863 39.8152 173 39.6773 173 39.5087V38.8956C173 38.727 172.863 38.589 172.696 38.589Z" fill="#828489"/>
<path d="M172.696 42.2677C172.529 42.2677 172.392 42.4056 172.392 42.5742V43.1873C172.392 43.3559 172.529 43.4939 172.696 43.4939C172.863 43.4939 173 43.3559 173 43.1873V42.5742C173 42.4056 172.863 42.2677 172.696 42.2677Z" fill="#828489"/>
<path d="M172.696 27.5531C172.529 27.5531 172.392 27.691 172.392 27.8596V28.4727C172.392 28.6413 172.529 28.7793 172.696 28.7793C172.863 28.7793 173 28.6413 173 28.4727V27.8596C173 27.691 172.863 27.5531 172.696 27.5531Z" fill="#828489"/>
<path d="M172.696 20.1958C172.529 20.1958 172.392 20.3337 172.392 20.5023V21.1154C172.392 21.284 172.529 21.422 172.696 21.422C172.863 21.422 173 21.284 173 21.1154V20.5023C173 20.3337 172.863 20.1958 172.696 20.1958Z" fill="#828489"/>
<path d="M172.696 64.3395C172.529 64.3395 172.392 64.4775 172.392 64.6461V65.2592C172.392 65.4278 172.529 65.5658 172.696 65.5658C172.863 65.5658 173 65.4278 173 65.2592V64.6461C173 64.4775 172.863 64.3395 172.696 64.3395Z" fill="#828489"/>
<path d="M172.696 71.6968C172.529 71.6968 172.392 71.8348 172.392 72.0034V72.6165C172.392 72.7851 172.529 72.923 172.696 72.923C172.863 72.923 173 72.7851 173 72.6165V72.0034C173 71.8348 172.863 71.6968 172.696 71.6968Z" fill="#828489"/>
<path d="M172.696 68.0182C172.529 68.0182 172.392 68.1561 172.392 68.3247V68.9378C172.392 69.1064 172.529 69.2444 172.696 69.2444C172.863 69.2444 173 69.1064 173 68.9378V68.3247C173 68.1561 172.863 68.0182 172.696 68.0182Z" fill="#828489"/>
<path d="M172.696 60.6609C172.529 60.6609 172.392 60.7988 172.392 60.9674V61.5806C172.392 61.7492 172.529 61.8871 172.696 61.8871C172.863 61.8871 173 61.7492 173 61.5806V60.9674C173 60.7988 172.863 60.6609 172.696 60.6609Z" fill="#828489"/>
<path d="M172.696 79.0541C172.529 79.0541 172.392 79.1921 172.392 79.3607V79.8082L172.021 80.0565C171.881 80.1485 171.842 80.3386 171.936 80.4827C171.994 80.5716 172.091 80.6206 172.188 80.6206C172.246 80.6206 172.304 80.6053 172.356 80.5685L172.863 80.2313C172.863 80.2313 172.875 80.216 172.884 80.2098C172.9 80.1976 172.915 80.1822 172.93 80.1669C172.942 80.1516 172.951 80.1363 172.96 80.1209C172.97 80.1025 172.976 80.0872 172.982 80.0688C172.988 80.0474 172.991 80.029 172.994 80.0075C172.994 79.9983 173 79.9891 173 79.9799V79.3668C173 79.1982 172.863 79.0602 172.696 79.0602V79.0541Z" fill="#828489"/>
<path d="M172.696 75.3755C172.529 75.3755 172.392 75.5134 172.392 75.682V76.2951C172.392 76.4637 172.529 76.6017 172.696 76.6017C172.863 76.6017 173 76.4637 173 76.2951V75.682C173 75.5134 172.863 75.3755 172.696 75.3755Z" fill="#828489"/>
<path d="M120.102 100.856C120.354 100.856 120.558 100.651 120.558 100.396V99.7833C120.558 99.5289 120.354 99.3235 120.102 99.3235C119.85 99.3235 119.646 99.5289 119.646 99.7833V100.396C119.646 100.651 119.85 100.856 120.102 100.856Z" fill="#828489"/>
<path d="M119.646 111.432C119.646 111.687 119.85 111.892 120.102 111.892C120.354 111.892 120.558 111.687 120.558 111.432V110.819C120.558 110.565 120.354 110.359 120.102 110.359C119.85 110.359 119.646 110.565 119.646 110.819V111.432Z" fill="#828489"/>
<path d="M119.646 104.075C119.646 104.329 119.85 104.535 120.102 104.535C120.354 104.535 120.558 104.329 120.558 104.075V103.462C120.558 103.208 120.354 103.002 120.102 103.002C119.85 103.002 119.646 103.208 119.646 103.462V104.075Z" fill="#828489"/>
<path d="M120.102 25.7505C119.85 25.7505 119.646 25.9559 119.646 26.2104V26.8235C119.646 27.0779 119.85 27.2833 120.102 27.2833C120.354 27.2833 120.558 27.0779 120.558 26.8235V26.2104C120.558 25.9559 120.354 25.7505 120.102 25.7505Z" fill="#828489"/>
<path d="M120.558 7.81712C120.558 7.56269 120.354 7.35729 120.102 7.35729C119.85 7.35729 119.646 7.56269 119.646 7.81712V8.43023C119.646 8.68467 119.85 8.89006 120.102 8.89006C120.354 8.89006 120.558 8.68467 120.558 8.43023V7.81712Z" fill="#828489"/>
<path d="M120.558 22.5317C120.558 22.2773 120.354 22.0719 120.102 22.0719C119.85 22.0719 119.646 22.2773 119.646 22.5317V23.1448C119.646 23.3993 119.85 23.6047 120.102 23.6047C120.354 23.6047 120.558 23.3993 120.558 23.1448V22.5317Z" fill="#828489"/>
<path d="M120.558 4.13848C120.558 3.88404 120.354 3.67865 120.102 3.67865C119.85 3.67865 119.646 3.88404 119.646 4.13848V4.75159C119.646 5.00603 119.85 5.21142 120.102 5.21142C120.354 5.21142 120.558 5.00603 120.558 4.75159V4.13848Z" fill="#828489"/>
<path d="M120.558 11.4958C120.558 11.2413 120.354 11.0359 120.102 11.0359C119.85 11.0359 119.646 11.2413 119.646 11.4958V12.1089C119.646 12.3633 119.85 12.5687 120.102 12.5687C120.354 12.5687 120.558 12.3633 120.558 12.1089V11.4958Z" fill="#828489"/>
<path d="M119.646 107.754C119.646 108.008 119.85 108.214 120.102 108.214C120.354 108.214 120.558 108.008 120.558 107.754V107.141C120.558 106.886 120.354 106.681 120.102 106.681C119.85 106.681 119.646 106.886 119.646 107.141V107.754Z" fill="#828489"/>
<path d="M120.558 18.8531C120.558 18.5986 120.354 18.3932 120.102 18.3932C119.85 18.3932 119.646 18.5986 119.646 18.8531V19.4662C119.646 19.7206 119.85 19.926 120.102 19.926C120.354 19.926 120.558 19.7206 120.558 19.4662V18.8531Z" fill="#828489"/>
<path d="M120.558 15.1744C120.558 14.92 120.354 14.7146 120.102 14.7146C119.85 14.7146 119.646 14.92 119.646 15.1744V15.7875C119.646 16.042 119.85 16.2474 120.102 16.2474C120.354 16.2474 120.558 16.042 120.558 15.7875V15.1744Z" fill="#828489"/>
<path d="M123.853 112.199L123.346 112.536C123.206 112.628 123.166 112.821 123.26 112.962C123.318 113.051 123.416 113.1 123.513 113.1C123.571 113.1 123.628 113.085 123.68 113.048L124.188 112.711C124.327 112.619 124.367 112.426 124.273 112.285C124.179 112.144 123.99 112.104 123.85 112.199H123.853Z" fill="#828489"/>
<path d="M120.81 114.228L120.549 114.403C120.521 114.274 120.442 114.167 120.333 114.102L118.473 109.06L113.511 112.073C113.548 111.809 113.414 111.543 113.162 111.429L112.329 111.052C112.022 110.914 111.663 111.052 111.526 111.362C111.39 111.671 111.526 112.033 111.833 112.171L112.666 112.548C112.666 112.548 112.697 112.557 112.709 112.564L108.058 115.39H118.968C118.992 115.405 119.017 115.424 119.047 115.436L119.88 115.813C119.962 115.85 120.044 115.868 120.129 115.868C120.36 115.868 120.582 115.733 120.686 115.506C120.701 115.47 120.713 115.433 120.722 115.393H120.813L120.731 115.172C120.725 115.129 120.716 115.09 120.701 115.05L121.151 114.749C121.291 114.657 121.33 114.464 121.236 114.323C121.145 114.182 120.953 114.142 120.813 114.237L120.81 114.228Z" fill="#828489"/>
<path d="M126.893 110.169L126.386 110.507C126.246 110.602 126.206 110.792 126.3 110.933C126.358 111.022 126.455 111.071 126.553 111.071C126.61 111.071 126.668 111.055 126.72 111.018L127.228 110.681C127.367 110.586 127.407 110.396 127.313 110.255C127.222 110.114 127.03 110.074 126.89 110.169H126.893Z" fill="#828489"/>
<path d="M163.4 85.8075L162.892 86.1447C162.752 86.2367 162.713 86.4267 162.807 86.5708C162.865 86.6597 162.962 86.7088 163.059 86.7088C163.117 86.7088 163.175 86.6934 163.227 86.6567L163.734 86.3194C163.874 86.2275 163.914 86.0374 163.819 85.8933C163.725 85.7523 163.54 85.7125 163.397 85.8075H163.4Z" fill="#828489"/>
<path d="M154.274 91.8987L153.766 92.2359C153.626 92.3279 153.587 92.518 153.681 92.662C153.739 92.7509 153.836 92.8 153.933 92.8C153.991 92.8 154.049 92.7847 154.101 92.7479L154.608 92.4107C154.748 92.3187 154.788 92.1286 154.693 91.9846C154.602 91.8436 154.411 91.8037 154.271 91.8987H154.274Z" fill="#828489"/>
<path d="M151.231 93.9281L150.723 94.2653C150.583 94.3573 150.544 94.5474 150.638 94.6914C150.696 94.7803 150.793 94.8294 150.891 94.8294C150.948 94.8294 151.006 94.8141 151.058 94.7773L151.565 94.4401C151.705 94.3481 151.745 94.158 151.65 94.014C151.556 93.8729 151.368 93.8331 151.228 93.9281H151.231Z" fill="#828489"/>
<path d="M169.486 81.7487L168.978 82.0859C168.838 82.1779 168.799 82.371 168.893 82.5121C168.951 82.601 169.048 82.65 169.145 82.65C169.203 82.65 169.261 82.6347 169.313 82.5979L169.82 82.2607C169.96 82.1687 170 81.9756 169.905 81.8346C169.811 81.6936 169.626 81.6537 169.483 81.7487H169.486Z" fill="#828489"/>
<path d="M160.36 87.8369L159.852 88.1741C159.712 88.2661 159.673 88.4561 159.767 88.6002C159.825 88.6891 159.922 88.7382 160.019 88.7382C160.077 88.7382 160.135 88.7228 160.187 88.686L160.694 88.3488C160.834 88.2569 160.874 88.0668 160.779 87.9227C160.688 87.7817 160.497 87.7419 160.357 87.8369H160.36Z" fill="#828489"/>
<path d="M157.317 89.8693L156.809 90.2066C156.669 90.2985 156.63 90.4886 156.724 90.6327C156.782 90.7216 156.879 90.7706 156.976 90.7706C157.034 90.7706 157.092 90.7553 157.144 90.7185L157.651 90.3813C157.791 90.2893 157.831 90.0993 157.736 89.9552C157.642 89.8142 157.457 89.7743 157.314 89.8693H157.317Z" fill="#828489"/>
<path d="M148.191 95.9575L147.683 96.2947C147.544 96.3867 147.504 96.5798 147.598 96.7208C147.656 96.8097 147.753 96.8588 147.851 96.8588C147.908 96.8588 147.966 96.8434 148.018 96.8067L148.525 96.4694C148.665 96.3775 148.705 96.1843 148.611 96.0433C148.516 95.9023 148.328 95.8625 148.188 95.9575H148.191Z" fill="#828489"/>
<path d="M166.443 83.7781L165.935 84.1153C165.795 84.2073 165.756 84.3974 165.85 84.5414C165.908 84.6303 166.005 84.6794 166.102 84.6794C166.16 84.6794 166.218 84.6641 166.27 84.6273L166.777 84.2901C166.917 84.1981 166.957 84.008 166.862 83.864C166.768 83.7199 166.58 83.6831 166.44 83.7781H166.443Z" fill="#828489"/>
<path d="M132.979 106.108L132.471 106.445C132.332 106.537 132.292 106.727 132.386 106.871C132.444 106.96 132.541 107.009 132.639 107.009C132.696 107.009 132.754 106.993 132.806 106.957L133.314 106.619C133.453 106.527 133.493 106.337 133.399 106.193C133.304 106.052 133.116 106.012 132.976 106.108H132.979Z" fill="#828489"/>
<path d="M136.022 104.078L135.514 104.415C135.375 104.507 135.335 104.697 135.429 104.841C135.487 104.93 135.584 104.979 135.682 104.979C135.739 104.979 135.797 104.964 135.849 104.927L136.357 104.59C136.496 104.498 136.536 104.308 136.442 104.164C136.347 104.023 136.159 103.983 136.019 104.078H136.022Z" fill="#828489"/>
<path d="M129.936 108.14L129.429 108.477C129.289 108.569 129.249 108.759 129.343 108.903C129.401 108.992 129.498 109.041 129.596 109.041C129.653 109.041 129.711 109.026 129.763 108.989L130.271 108.652C130.41 108.56 130.45 108.37 130.356 108.226C130.261 108.085 130.073 108.045 129.933 108.14H129.936Z" fill="#828489"/>
<path d="M139.062 102.049L138.554 102.386C138.415 102.478 138.375 102.668 138.469 102.812C138.527 102.901 138.624 102.95 138.722 102.95C138.779 102.95 138.837 102.935 138.889 102.898L139.396 102.561C139.536 102.469 139.576 102.279 139.482 102.135C139.387 101.994 139.199 101.954 139.059 102.049H139.062Z" fill="#828489"/>
<path d="M142.105 100.019L141.597 100.357C141.458 100.449 141.418 100.639 141.512 100.783C141.57 100.872 141.667 100.921 141.765 100.921C141.822 100.921 141.88 100.905 141.932 100.868L142.439 100.531C142.579 100.439 142.619 100.249 142.525 100.105C142.43 99.9642 142.242 99.9243 142.102 100.019H142.105Z" fill="#828489"/>
<path d="M145.148 97.99L144.64 98.3272C144.501 98.4191 144.461 98.6092 144.555 98.7533C144.613 98.8422 144.71 98.8912 144.808 98.8912C144.865 98.8912 144.923 98.8759 144.975 98.8391L145.482 98.5019C145.622 98.4099 145.662 98.2199 145.568 98.0758C145.473 97.9348 145.285 97.8949 145.145 97.99H145.148Z" fill="#828489"/>
<path d="M164.433 78.1467L163.835 78.0364C163.67 78.0057 163.512 78.1161 163.482 78.2816C163.452 78.4472 163.561 78.6066 163.725 78.6372L164.324 78.7476C164.342 78.7506 164.36 78.7537 164.379 78.7537C164.522 78.7537 164.649 78.6495 164.677 78.5023C164.707 78.3368 164.598 78.1774 164.433 78.1467Z" fill="#828489"/>
<path d="M149.371 76.0039L149.969 76.1143C149.988 76.1173 150.006 76.1204 150.024 76.1204C150.167 76.1204 150.298 76.0162 150.322 75.869C150.352 75.7035 150.243 75.5441 150.076 75.5134L149.477 75.4031C149.313 75.3755 149.155 75.4828 149.124 75.6514C149.094 75.8169 149.203 75.9763 149.371 76.007V76.0039Z" fill="#828489"/>
<path d="M160.843 77.4876L160.244 77.3773C160.08 77.3466 159.922 77.457 159.892 77.6225C159.861 77.7881 159.971 77.9475 160.135 77.9781L160.734 78.0885C160.752 78.0915 160.77 78.0946 160.789 78.0946C160.931 78.0946 161.059 77.9904 161.086 77.8432C161.117 77.6777 161.007 77.5183 160.843 77.4876Z" fill="#828489"/>
<path d="M153.912 76.5251C153.943 76.3595 153.833 76.2001 153.669 76.1695L153.07 76.0591C152.906 76.0254 152.748 76.1388 152.717 76.3043C152.687 76.4699 152.797 76.6293 152.961 76.6599L153.56 76.7703C153.578 76.7734 153.596 76.7764 153.614 76.7764C153.757 76.7764 153.885 76.6722 153.912 76.5251Z" fill="#828489"/>
<path d="M157.201 77.4355C157.344 77.4355 157.472 77.3313 157.499 77.1841C157.53 77.0186 157.42 76.8592 157.256 76.8285L156.657 76.7182C156.493 76.6845 156.335 76.7979 156.305 76.9634C156.274 77.129 156.384 77.2884 156.548 77.319L157.147 77.4294C157.165 77.4325 157.183 77.4355 157.201 77.4355Z" fill="#828489"/>
<path d="M168.021 78.8058L167.422 78.6954C167.258 78.6648 167.099 78.7752 167.069 78.9407C167.039 79.1062 167.148 79.2656 167.312 79.2963L167.911 79.4067C167.929 79.4097 167.948 79.4128 167.966 79.4128C168.109 79.4128 168.236 79.3086 168.264 79.1614C168.294 78.9959 168.185 78.8365 168.021 78.8058Z" fill="#828489"/>
<path d="M171.611 79.4649L171.012 79.3545C170.845 79.3208 170.69 79.4342 170.659 79.5998C170.629 79.7653 170.738 79.9247 170.902 79.9554L171.501 80.0658C171.52 80.0688 171.538 80.0719 171.556 80.0719C171.699 80.0719 171.827 79.9677 171.854 79.8205C171.884 79.655 171.775 79.4956 171.611 79.4649Z" fill="#828489"/>
<path d="M46.5658 78.9346C46.5324 78.769 46.3713 78.6648 46.2071 78.6954L45.6113 78.8211C45.4471 78.8549 45.3407 79.0173 45.3742 79.1829C45.4046 79.327 45.5292 79.4281 45.6721 79.4281C45.6933 79.4281 45.7146 79.4281 45.7329 79.422L46.3287 79.2963C46.4929 79.2626 46.5993 79.1001 46.5658 78.9346Z" fill="#828489"/>
<path d="M70.3777 73.9347C70.4081 74.0788 70.5327 74.1799 70.6756 74.1799C70.6969 74.1799 70.7181 74.1799 70.7394 74.1738L71.3353 74.0481C71.4994 74.0144 71.6058 73.8519 71.5724 73.6864C71.5389 73.5208 71.3778 73.4135 71.2137 73.4473L70.6178 73.5729C70.4537 73.6067 70.3473 73.7691 70.3807 73.9347H70.3777Z" fill="#828489"/>
<path d="M66.8057 74.6857C66.8361 74.8298 66.9608 74.931 67.1037 74.931C67.1249 74.931 67.1462 74.931 67.1675 74.9248L67.7633 74.7992C67.9275 74.7654 68.0339 74.603 68.0004 74.4374C67.967 74.2719 67.8059 74.1646 67.6417 74.1983L67.0459 74.324C66.8817 74.3577 66.7753 74.5202 66.8088 74.6857H66.8057Z" fill="#828489"/>
<path d="M60.4918 75.6974L59.896 75.823C59.7318 75.8568 59.6254 76.0192 59.6619 76.1848C59.6923 76.3289 59.8169 76.43 59.9598 76.43C59.9811 76.43 60.0024 76.43 60.0236 76.4239L60.6195 76.2982C60.7836 76.2645 60.89 76.102 60.8535 75.9365C60.8201 75.7709 60.659 75.6636 60.4948 75.7004L60.4918 75.6974Z" fill="#828489"/>
<path d="M64.0637 74.9463L63.4679 75.072C63.3037 75.1057 63.1973 75.2682 63.2308 75.4337C63.2612 75.5778 63.3858 75.679 63.5287 75.679C63.55 75.679 63.5712 75.679 63.5925 75.6728L64.1883 75.5471C64.3525 75.5134 64.4589 75.351 64.4255 75.1854C64.392 75.0199 64.2309 74.9156 64.0668 74.9463H64.0637Z" fill="#828489"/>
<path d="M42.9969 79.75C43.1216 79.6366 43.2006 79.4772 43.2006 79.2963V78.3766C43.2006 78.0394 42.927 77.7635 42.5926 77.7635C42.2582 77.7635 41.9846 78.0394 41.9846 78.3766V79.2963C41.9846 79.3944 42.0089 79.4864 42.0515 79.5691H42.0424C41.8782 79.6059 41.7718 79.7684 41.8053 79.9339C41.8357 80.078 41.9603 80.1792 42.1032 80.1792C42.1245 80.1792 42.1457 80.1792 42.167 80.173L42.7628 80.0474C42.9027 80.0167 42.9969 79.891 43 79.7531L42.9969 79.75Z" fill="#828489"/>
<path d="M102.768 28.0037C102.601 28.0037 102.464 28.1417 102.464 28.3103V28.9234C102.464 29.092 102.601 29.2299 102.768 29.2299C102.935 29.2299 103.072 29.092 103.072 28.9234V28.3103C103.072 28.1417 102.935 28.0037 102.768 28.0037Z" fill="#828489"/>
<path d="M102.464 25.3459V25.959C102.464 26.1276 102.601 26.2655 102.768 26.2655C102.935 26.2655 103.072 26.1276 103.072 25.959V25.5206C103.081 25.5206 103.09 25.5206 103.1 25.5206L103.705 25.4654C103.872 25.4501 103.996 25.2999 103.978 25.1313C103.963 24.9627 103.817 24.837 103.647 24.8554L103.042 24.9106C102.945 24.9198 102.869 24.9749 102.82 25.0516C102.802 25.0485 102.783 25.0393 102.765 25.0393C102.598 25.0393 102.461 25.1773 102.461 25.3459H102.464Z" fill="#828489"/>
<path d="M46.1858 19.3037L46.7908 19.3711C46.7908 19.3711 46.812 19.3711 46.8242 19.3711C46.9762 19.3711 47.11 19.2547 47.1252 19.0983C47.1434 18.9297 47.0218 18.7795 46.8576 18.7611L46.2527 18.6937C46.0855 18.6753 45.9365 18.7979 45.9183 18.9665C45.9001 19.1351 46.0217 19.2853 46.1889 19.3037H46.1858Z" fill="#828489"/>
<path d="M82.4462 23.3073L83.0512 23.3747C83.0512 23.3747 83.0725 23.3747 83.0846 23.3747C83.2366 23.3747 83.3704 23.2582 83.3856 23.1019C83.4038 22.9333 83.2822 22.7831 83.115 22.7647L82.5101 22.6973C82.3429 22.6789 82.1939 22.8015 82.1757 22.9701C82.1574 23.1387 82.279 23.2889 82.4432 23.3073H82.4462Z" fill="#828489"/>
<path d="M75.196 22.5072L75.8009 22.5746C75.8009 22.5746 75.8222 22.5746 75.8344 22.5746C75.9864 22.5746 76.1201 22.4581 76.1353 22.3018C76.1536 22.1332 76.032 21.983 75.8648 21.9646L75.2598 21.8971C75.0957 21.8788 74.9437 22.0014 74.9254 22.17C74.9072 22.3386 75.0288 22.4888 75.196 22.5072Z" fill="#828489"/>
<path d="M78.8196 22.9088L79.4245 22.9762C79.4245 22.9762 79.4458 22.9762 79.458 22.9762C79.61 22.9762 79.7437 22.8597 79.7589 22.7034C79.7772 22.5348 79.6556 22.3846 79.4884 22.3662L78.8834 22.2987C78.7193 22.2803 78.5673 22.403 78.549 22.5716C78.5308 22.7402 78.6524 22.8904 78.8196 22.9088Z" fill="#828489"/>
<path d="M53.4361 20.1038L54.041 20.1712C54.041 20.1712 54.0623 20.1712 54.0745 20.1712C54.2265 20.1712 54.3602 20.0548 54.3754 19.8984C54.3937 19.7298 54.2721 19.5796 54.1079 19.5612L53.503 19.4938C53.3388 19.4754 53.1868 19.598 53.1686 19.7666C53.1503 19.9352 53.2719 20.0854 53.4391 20.1038H53.4361Z" fill="#828489"/>
<path d="M67.9427 21.7071L68.5476 21.7745C68.5476 21.7745 68.5689 21.7745 68.5811 21.7745C68.7331 21.7745 68.8668 21.658 68.882 21.5017C68.9003 21.3331 68.7787 21.1829 68.6115 21.1645L68.0065 21.097C67.8424 21.0786 67.6904 21.2013 67.6721 21.3699C67.6539 21.5385 67.7755 21.6887 67.9427 21.7071Z" fill="#828489"/>
<path d="M60.6894 20.907L61.2943 20.9744C61.2943 20.9744 61.3156 20.9744 61.3278 20.9744C61.4798 20.9744 61.6135 20.8579 61.6287 20.7016C61.647 20.533 61.5254 20.3828 61.3612 20.3644L60.7563 20.2969C60.5921 20.2785 60.4401 20.4012 60.4219 20.5698C60.4036 20.7384 60.5252 20.8886 60.6924 20.907H60.6894Z" fill="#828489"/>
<path d="M71.5693 22.1087L72.1743 22.1761C72.1743 22.1761 72.1956 22.1761 72.2077 22.1761C72.3597 22.1761 72.4935 22.0596 72.5087 21.9033C72.5269 21.7347 72.4053 21.5845 72.2381 21.5661L71.6332 21.4986C71.466 21.4802 71.317 21.6029 71.2988 21.7715C71.2805 21.9401 71.4021 22.0903 71.5693 22.1087Z" fill="#828489"/>
<path d="M64.316 21.3055L64.921 21.3729C64.921 21.3729 64.9423 21.3729 64.9544 21.3729C65.1064 21.3729 65.2402 21.2564 65.2554 21.1001C65.2736 20.9315 65.152 20.7813 64.9848 20.7629L64.3799 20.6955C64.2157 20.6771 64.0637 20.7997 64.0455 20.9683C64.0272 21.1369 64.1488 21.2871 64.316 21.3055Z" fill="#828489"/>
<path d="M86.0729 23.7089L86.6778 23.7763C86.6778 23.7763 86.6991 23.7763 86.7113 23.7763C86.8633 23.7763 86.997 23.6598 87.0122 23.5035C87.0305 23.3349 86.9089 23.1847 86.7417 23.1663L86.1367 23.0988C85.9726 23.0804 85.8206 23.2031 85.8023 23.3717C85.7841 23.5403 85.9057 23.6905 86.0698 23.7089H86.0729Z" fill="#828489"/>
<path d="M57.0627 20.5054L57.6677 20.5728C57.6677 20.5728 57.689 20.5728 57.7011 20.5728C57.8531 20.5728 57.9869 20.4563 58.0021 20.3C58.0203 20.1314 57.8987 19.9812 57.7346 19.9628L57.1296 19.8953C56.9624 19.877 56.8135 19.9996 56.7952 20.1682C56.777 20.3368 56.8986 20.487 57.0658 20.5054H57.0627Z" fill="#828489"/>
<path d="M49.8094 19.7053L50.4144 19.7727C50.4144 19.7727 50.4357 19.7727 50.4478 19.7727C50.5998 19.7727 50.7336 19.6562 50.7488 19.4999C50.767 19.3313 50.6454 19.1811 50.4813 19.1627L49.8763 19.0952C49.7122 19.0769 49.5602 19.1995 49.5419 19.3681C49.5237 19.5367 49.6453 19.6869 49.8125 19.7053H49.8094Z" fill="#828489"/>
<path d="M89.6995 24.1105L90.3045 24.1779C90.3045 24.1779 90.3258 24.1779 90.3379 24.1779C90.4899 24.1779 90.6237 24.0614 90.6389 23.9051C90.6571 23.7365 90.5355 23.5863 90.3683 23.5679L89.7634 23.5004C89.5992 23.482 89.4472 23.6047 89.429 23.7733C89.4107 23.9419 89.5323 24.0921 89.6965 24.1105H89.6995Z" fill="#828489"/>
<path d="M93.3262 24.509L93.9311 24.5764C93.9311 24.5764 93.9524 24.5764 93.9646 24.5764C94.1166 24.5764 94.2503 24.4599 94.2655 24.3036C94.2838 24.135 94.1622 23.9848 93.995 23.9664L93.39 23.8989C93.2259 23.8806 93.0739 24.0032 93.0556 24.1718C93.0374 24.3404 93.159 24.4906 93.3231 24.509H93.3262Z" fill="#828489"/>
<path d="M96.9528 24.9106L97.5578 24.978C97.5578 24.978 97.5791 24.978 97.5912 24.978C97.7432 24.978 97.877 24.8615 97.8922 24.7052C97.9104 24.5366 97.7888 24.3864 97.6216 24.368L97.0167 24.3005C96.8495 24.2821 96.7005 24.4048 96.6823 24.5734C96.664 24.742 96.7856 24.8922 96.9498 24.9106H96.9528Z" fill="#828489"/>
<path d="M100.579 25.3091L101.184 25.3765C101.184 25.3765 101.206 25.3765 101.218 25.3765C101.37 25.3765 101.504 25.26 101.519 25.1037C101.537 24.9351 101.415 24.7849 101.248 24.7665L100.643 24.699C100.479 24.6807 100.327 24.8033 100.309 24.9719C100.291 25.1405 100.412 25.2907 100.576 25.3091H100.579Z" fill="#828489"/>
<path d="M105.294 4.23044C105.319 4.23044 105.34 4.23044 105.364 4.22125L105.957 4.0833C106.121 4.04651 106.222 3.88097 106.185 3.71543C106.149 3.54989 105.981 3.44873 105.82 3.48552L105.228 3.62347C105.063 3.66025 104.963 3.82579 105 3.99133C105.033 4.13235 105.158 4.22738 105.294 4.22738V4.23044Z" fill="#828489"/>
<path d="M69.7606 12.5473C69.7849 12.5473 69.8062 12.5473 69.8305 12.5381L70.4233 12.4001C70.5874 12.3633 70.6877 12.1978 70.6513 12.0322C70.6148 11.8667 70.4506 11.7655 70.2865 11.8023L69.6937 11.9403C69.5295 11.9771 69.4292 12.1426 69.4657 12.3081C69.4991 12.4492 69.6238 12.5442 69.7606 12.5442V12.5473Z" fill="#828489"/>
<path d="M108.848 3.39968C108.872 3.39968 108.894 3.39968 108.918 3.39049L109.511 3.25254C109.675 3.21575 109.775 3.05021 109.739 2.88467C109.702 2.71913 109.538 2.61797 109.374 2.65476L108.781 2.79271C108.617 2.82949 108.517 2.99503 108.553 3.16057C108.587 3.30159 108.711 3.39662 108.848 3.39662V3.39968Z" fill="#828489"/>
<path d="M101.744 5.06427C101.768 5.06427 101.789 5.06427 101.814 5.05507L102.406 4.91712C102.571 4.88034 102.671 4.7148 102.634 4.54926C102.598 4.38372 102.431 4.28256 102.27 4.31934L101.677 4.45729C101.513 4.49408 101.412 4.65962 101.449 4.82516C101.482 4.96617 101.607 5.0612 101.744 5.0612V5.06427Z" fill="#828489"/>
<path d="M76.8679 10.8857C76.8923 10.8857 76.9135 10.8857 76.9379 10.8765L77.5306 10.7386C77.6948 10.7018 77.7951 10.5363 77.7586 10.3707C77.7222 10.2052 77.558 10.104 77.3939 10.1408L76.8011 10.2788C76.6369 10.3155 76.5366 10.4811 76.5731 10.6466C76.6065 10.7876 76.7311 10.8827 76.8679 10.8827V10.8857Z" fill="#828489"/>
<path d="M115.956 1.73816C115.98 1.73816 116.001 1.73816 116.025 1.72896L116.618 1.59101C116.782 1.55423 116.883 1.38869 116.846 1.22315C116.81 1.05761 116.643 0.956448 116.481 0.993235L115.889 1.13118C115.724 1.16797 115.624 1.33351 115.661 1.49905C115.694 1.64006 115.819 1.7351 115.956 1.7351V1.73816Z" fill="#828489"/>
<path d="M112.402 2.56892C112.426 2.56892 112.447 2.56892 112.472 2.55973L113.065 2.42178C113.229 2.38499 113.329 2.21945 113.293 2.05391C113.256 1.88837 113.092 1.78721 112.928 1.824L112.335 1.96195C112.171 1.99873 112.07 2.16427 112.107 2.32981C112.14 2.47082 112.265 2.56586 112.402 2.56586V2.56892Z" fill="#828489"/>
<path d="M119.509 0.904334C119.534 0.904334 119.555 0.904334 119.579 0.895137L119.646 0.87981V1.07294C119.646 1.32738 119.85 1.53277 120.102 1.53277C120.354 1.53277 120.558 1.32738 120.558 1.07294V0.94112L120.579 0.947251C120.613 0.959514 120.646 0.965645 120.68 0.965645C120.807 0.965645 120.923 0.885941 120.968 0.760254C121.023 0.600846 120.938 0.42611 120.78 0.37093L120.528 0.28203C120.455 0.11649 120.29 0 120.102 0C119.932 0 119.783 0.0980972 119.704 0.239112L119.439 0.300423C119.275 0.337209 119.175 0.502748 119.211 0.668288C119.245 0.809302 119.369 0.904334 119.506 0.904334H119.509Z" fill="#828489"/>
<path d="M80.4216 10.0519C80.446 10.0519 80.4672 10.0519 80.4916 10.0427L81.0843 9.90476C81.2485 9.86797 81.3488 9.70243 81.3123 9.53689C81.2759 9.37135 81.1087 9.27019 80.9475 9.30698L80.3548 9.44493C80.1906 9.48171 80.0903 9.64725 80.1268 9.81279C80.1602 9.95381 80.2848 10.0488 80.4216 10.0488V10.0519Z" fill="#828489"/>
<path d="M73.3143 11.7165C73.3386 11.7165 73.3598 11.7165 73.3842 11.7073L73.977 11.5693C74.1411 11.5326 74.2414 11.367 74.205 11.2015C74.1685 11.0359 74.0013 10.9348 73.8402 10.9716L73.2474 11.1095C73.0832 11.1463 72.9829 11.3118 73.0194 11.4774C73.0528 11.6184 73.1775 11.7134 73.3143 11.7134V11.7165Z" fill="#828489"/>
<path d="M91.0827 7.55655C91.107 7.55655 91.1283 7.55655 91.1526 7.54736L91.7454 7.40941C91.9096 7.37262 92.0099 7.20708 91.9734 7.04154C91.9369 6.876 91.7697 6.77484 91.6086 6.81163L91.0158 6.94958C90.8517 6.98636 90.7514 7.1519 90.7878 7.31744C90.8213 7.45846 90.9459 7.55349 91.0827 7.55349V7.55655Z" fill="#828489"/>
<path d="M66.2069 13.378C66.2312 13.378 66.2525 13.378 66.2768 13.3688L66.8696 13.2309C67.0337 13.1941 67.134 13.0285 67.0976 12.863C67.0611 12.6975 66.8939 12.5963 66.7328 12.6331L66.14 12.771C65.9758 12.8078 65.8755 12.9734 65.912 13.1389C65.9454 13.2799 66.0701 13.3749 66.2069 13.3749V13.378Z" fill="#828489"/>
<path d="M98.1901 5.89503C98.2144 5.89503 98.2357 5.89503 98.26 5.88584L98.8528 5.74789C99.0169 5.7111 99.1173 5.54556 99.0808 5.38002C99.0443 5.21448 98.8771 5.11332 98.716 5.15011L98.1232 5.28805C97.9591 5.32484 97.8587 5.49038 97.8952 5.65592C97.9286 5.79694 98.0533 5.89197 98.1901 5.89197V5.89503Z" fill="#828489"/>
<path d="M87.529 8.39038C87.5533 8.39038 87.5746 8.39038 87.5989 8.38118L88.1917 8.24323C88.3559 8.20645 88.4562 8.04091 88.4197 7.87537C88.3832 7.70983 88.2191 7.60867 88.0549 7.64545L87.4621 7.7834C87.298 7.82019 87.1977 7.98573 87.2341 8.15127C87.2676 8.29228 87.3922 8.38732 87.529 8.38732V8.39038Z" fill="#828489"/>
<path d="M83.9753 9.22114C83.9996 9.22114 84.0209 9.22114 84.0452 9.21194L84.638 9.074C84.8022 9.03721 84.9025 8.87167 84.866 8.70613C84.8296 8.54059 84.6624 8.43943 84.5012 8.47622L83.9084 8.61417C83.7443 8.65095 83.644 8.81649 83.6805 8.98203C83.7139 9.12304 83.8385 9.21808 83.9753 9.21808V9.22114Z" fill="#828489"/>
<path d="M94.6364 6.72579C94.6607 6.72579 94.682 6.72579 94.7063 6.7166L95.2991 6.57865C95.4633 6.54186 95.5636 6.37632 95.5271 6.21078C95.4906 6.04524 95.3265 5.94408 95.1623 5.98087L94.5695 6.11882C94.4054 6.1556 94.305 6.32114 94.3415 6.48668C94.375 6.6277 94.4996 6.72273 94.6364 6.72273V6.72579Z" fill="#828489"/>
<path d="M55.5458 15.8734C55.5701 15.8734 55.5914 15.8734 55.6157 15.8642L56.2085 15.7262C56.3727 15.6894 56.473 15.5239 56.4365 15.3584C56.4 15.1928 56.2359 15.0916 56.0717 15.1284L55.4789 15.2664C55.3148 15.3032 55.2144 15.4687 55.2509 15.6342C55.2844 15.7753 55.409 15.8703 55.5458 15.8703V15.8734Z" fill="#828489"/>
<path d="M51.9921 16.7041C52.0164 16.7041 52.0377 16.7041 52.062 16.6949L52.6548 16.557C52.819 16.5202 52.9193 16.3547 52.8828 16.1891C52.8463 16.0236 52.6791 15.9224 52.518 15.9592L51.9252 16.0971C51.7611 16.1339 51.6608 16.2995 51.6972 16.465C51.7307 16.606 51.8553 16.7011 51.9921 16.7011V16.7041Z" fill="#828489"/>
<path d="M48.4415 17.538C48.4658 17.538 48.4871 17.538 48.5114 17.5288L49.1042 17.3908C49.2683 17.354 49.3686 17.1885 49.3322 17.0229C49.2957 16.8574 49.1285 16.7562 48.9674 16.793L48.3746 16.931C48.2104 16.9678 48.1101 17.1333 48.1466 17.2988C48.18 17.4399 48.3047 17.5349 48.4415 17.5349V17.538Z" fill="#828489"/>
<path d="M44.8878 18.3687C44.9121 18.3687 44.9334 18.3687 44.9577 18.3595L45.5505 18.2216C45.7146 18.1848 45.8149 18.0192 45.7785 17.8537C45.742 17.6882 45.5778 17.587 45.4137 17.6238L44.8209 17.7617C44.6567 17.7985 44.5564 17.9641 44.5929 18.1296C44.6263 18.2706 44.751 18.3656 44.8878 18.3656V18.3687Z" fill="#828489"/>
<path d="M59.0995 15.0426C59.1238 15.0426 59.1451 15.0426 59.1694 15.0334L59.7622 14.8955C59.9264 14.8587 60.0267 14.6931 59.9902 14.5276C59.9537 14.3621 59.7865 14.2609 59.6254 14.2977L59.0326 14.4356C58.8685 14.4724 58.7681 14.6379 58.8046 14.8035C58.8381 14.9445 58.9627 15.0395 59.0995 15.0395V15.0426Z" fill="#828489"/>
<path d="M62.6532 14.2118C62.6775 14.2118 62.6988 14.2118 62.7231 14.2026L63.3159 14.0647C63.48 14.0279 63.5804 13.8624 63.5439 13.6968C63.5074 13.5313 63.3433 13.4301 63.1791 13.4669L62.5863 13.6049C62.4221 13.6417 62.3218 13.8072 62.3583 13.9727C62.3918 14.1137 62.5164 14.2088 62.6532 14.2088V14.2118Z" fill="#828489"/>
<path d="M42.5926 59.9834C42.927 59.9834 43.2006 59.7075 43.2006 59.3703V58.4506C43.2006 58.1134 42.927 57.8375 42.5926 57.8375C42.2582 57.8375 41.9846 58.1134 41.9846 58.4506V59.3703C41.9846 59.7075 42.2582 59.9834 42.5926 59.9834Z" fill="#828489"/>
<path d="M43.2006 30.5542C43.2006 30.217 42.927 29.9411 42.5926 29.9411C42.2582 29.9411 41.9846 30.217 41.9846 30.5542V31.4739C41.9846 31.8111 42.2582 32.087 42.5926 32.087C42.927 32.087 43.2006 31.8111 43.2006 31.4739V30.5542Z" fill="#828489"/>
<path d="M43.2006 26.569C43.2006 26.2318 42.927 25.9559 42.5926 25.9559C42.2582 25.9559 41.9846 26.2318 41.9846 26.569V27.4887C41.9846 27.8259 42.2582 28.1018 42.5926 28.1018C42.927 28.1018 43.2006 27.8259 43.2006 27.4887V26.569Z" fill="#828489"/>
<path d="M41.9846 63.3555C41.9846 63.6927 42.2582 63.9686 42.5926 63.9686C42.927 63.9686 43.2006 63.6927 43.2006 63.3555V62.4358C43.2006 62.0986 42.927 61.8227 42.5926 61.8227C42.2582 61.8227 41.9846 62.0986 41.9846 62.4358V63.3555Z" fill="#828489"/>
<path d="M41.9846 67.3407C41.9846 67.6779 42.2582 67.9538 42.5926 67.9538C42.927 67.9538 43.2006 67.6779 43.2006 67.3407V66.421C43.2006 66.0838 42.927 65.8079 42.5926 65.8079C42.2582 65.8079 41.9846 66.0838 41.9846 66.421V67.3407Z" fill="#828489"/>
<path d="M41.9846 75.3111C41.9846 75.6483 42.2582 75.9242 42.5926 75.9242C42.927 75.9242 43.2006 75.6483 43.2006 75.3111V74.3914C43.2006 74.0542 42.927 73.7783 42.5926 73.7783C42.2582 73.7783 41.9846 74.0542 41.9846 74.3914V75.3111Z" fill="#828489"/>
<path d="M41.9846 71.3259C41.9846 71.6631 42.2582 71.939 42.5926 71.939C42.927 71.939 43.2006 71.6631 43.2006 71.3259V70.4062C43.2006 70.069 42.927 69.7931 42.5926 69.7931C42.2582 69.7931 41.9846 70.069 41.9846 70.4062V71.3259Z" fill="#828489"/>
<path d="M43.2006 34.5394C43.2006 34.2022 42.927 33.9263 42.5926 33.9263C42.2582 33.9263 41.9846 34.2022 41.9846 34.5394V35.4591C41.9846 35.7963 42.2582 36.0722 42.5926 36.0722C42.927 36.0722 43.2006 35.7963 43.2006 35.4591V34.5394Z" fill="#828489"/>
<path d="M42.5926 45.8819C42.2582 45.8819 41.9846 46.1578 41.9846 46.495V47.4147C41.9846 47.7519 42.2582 48.0278 42.5926 48.0278C42.927 48.0278 43.2006 47.7519 43.2006 47.4147V46.495C43.2006 46.1578 42.927 45.8819 42.5926 45.8819Z" fill="#828489"/>
<path d="M43.2006 42.5098C43.2006 42.1726 42.927 41.8967 42.5926 41.8967C42.2582 41.8967 41.9846 42.1726 41.9846 42.5098V43.4295C41.9846 43.7667 42.2582 44.0426 42.5926 44.0426C42.927 44.0426 43.2006 43.7667 43.2006 43.4295V42.5098Z" fill="#828489"/>
<path d="M43.2006 38.5246C43.2006 38.1874 42.927 37.9115 42.5926 37.9115C42.2582 37.9115 41.9846 38.1874 41.9846 38.5246V39.4443C41.9846 39.7815 42.2582 40.0574 42.5926 40.0574C42.927 40.0574 43.2006 39.7815 43.2006 39.4443V38.5246Z" fill="#828489"/>
<path d="M109.055 110.914C109.137 110.951 109.219 110.969 109.304 110.969C109.535 110.969 109.757 110.835 109.86 110.608C109.997 110.298 109.86 109.936 109.553 109.798L108.72 109.421C108.413 109.283 108.055 109.421 107.918 109.731C107.781 110.041 107.918 110.402 108.225 110.54L109.058 110.917L109.055 110.914Z" fill="#828489"/>
<path d="M62.4252 89.7743C62.6562 89.7743 62.8781 89.6394 62.9815 89.4126C63.1183 89.103 62.9815 88.7412 62.6745 88.6033L61.8415 88.2262C61.5345 88.0883 61.1758 88.2262 61.039 88.5358C60.9022 88.8455 61.039 89.2072 61.346 89.3451L62.1789 89.7222C62.261 89.759 62.3431 89.7774 62.4282 89.7774L62.4252 89.7743Z" fill="#828489"/>
<path d="M80.7044 96.7545L79.8714 96.3775C79.5644 96.2395 79.2057 96.3775 79.0689 96.6871C78.9321 96.9967 79.0689 97.3585 79.3759 97.4964L80.2088 97.8735C80.2879 97.9103 80.373 97.9287 80.4581 97.9287C80.6892 97.9287 80.9111 97.7938 81.0144 97.5669C81.1512 97.2573 81.0144 96.8956 80.7074 96.7576L80.7044 96.7545Z" fill="#828489"/>
<path d="M77.099 95.1237L76.266 94.7466C75.959 94.6087 75.6003 94.7466 75.4635 95.0562C75.3267 95.3659 75.4635 95.7276 75.7705 95.8655L76.6035 96.2426C76.6855 96.2794 76.7676 96.2978 76.8527 96.2978C77.0838 96.2978 77.3057 96.1629 77.4091 95.9361C77.5459 95.6264 77.4091 95.2647 77.102 95.1267L77.099 95.1237Z" fill="#828489"/>
<path d="M73.4906 93.4928L72.6576 93.1158C72.3506 92.9778 71.9919 93.1158 71.8551 93.4254C71.7183 93.735 71.8551 94.0967 72.1621 94.2347L72.9951 94.6117C73.0771 94.6485 73.1592 94.6669 73.2443 94.6669C73.4754 94.6669 73.6973 94.532 73.8006 94.3052C73.9374 93.9956 73.8006 93.6338 73.4936 93.4959L73.4906 93.4928Z" fill="#828489"/>
<path d="M105.948 108.168L105.115 107.79C104.808 107.653 104.449 107.79 104.313 108.1C104.176 108.41 104.313 108.771 104.62 108.909L105.453 109.286C105.535 109.323 105.617 109.342 105.702 109.342C105.933 109.342 106.155 109.207 106.258 108.98C106.395 108.67 106.258 108.309 105.951 108.171L105.948 108.168Z" fill="#828489"/>
<path d="M102.34 106.537L101.507 106.16C101.2 106.022 100.841 106.16 100.704 106.469C100.567 106.779 100.704 107.141 101.011 107.279L101.844 107.656C101.926 107.692 102.008 107.711 102.093 107.711C102.324 107.711 102.546 107.576 102.65 107.349C102.786 107.039 102.65 106.678 102.343 106.54L102.34 106.537Z" fill="#828489"/>
<path d="M98.7342 104.906L97.9013 104.529C97.5943 104.391 97.2355 104.529 97.0988 104.838C96.962 105.148 97.0988 105.51 97.4058 105.648L98.2387 106.025C98.3208 106.062 98.4029 106.08 98.488 106.08C98.719 106.08 98.941 105.945 99.0443 105.718C99.1811 105.409 99.0443 105.047 98.7373 104.909L98.7342 104.906Z" fill="#828489"/>
<path d="M84.3097 98.3854L83.4768 98.0084C83.1697 97.8704 82.811 98.0084 82.6742 98.318C82.5374 98.6276 82.6742 98.9893 82.9813 99.1273L83.8142 99.5043C83.8963 99.5411 83.9784 99.5595 84.0635 99.5595C84.2945 99.5595 84.5164 99.4246 84.6198 99.1978C84.7566 98.8882 84.6198 98.5264 84.3128 98.3885L84.3097 98.3854Z" fill="#828489"/>
<path d="M87.9151 100.013L87.0821 99.6362C86.7751 99.4982 86.4164 99.6362 86.2796 99.9458C86.1428 100.255 86.2796 100.617 86.5866 100.755L87.4196 101.132C87.5017 101.169 87.5837 101.187 87.6689 101.187C87.8999 101.187 88.1218 101.052 88.2252 100.826C88.362 100.516 88.2252 100.154 87.9181 100.016L87.9151 100.013Z" fill="#828489"/>
<path d="M91.5235 101.644L90.6906 101.267C90.3835 101.129 90.0248 101.267 89.888 101.577C89.7512 101.886 89.888 102.248 90.1951 102.386L91.028 102.763C91.1101 102.8 91.1922 102.818 91.2773 102.818C91.5083 102.818 91.7302 102.683 91.8336 102.456C91.9704 102.147 91.8336 101.785 91.5265 101.647L91.5235 101.644Z" fill="#828489"/>
<path d="M95.1289 103.275L94.2959 102.898C93.9889 102.76 93.6302 102.898 93.4934 103.208C93.3566 103.517 93.4934 103.879 93.8004 104.017L94.6334 104.394C94.7154 104.431 94.7975 104.449 94.8826 104.449C95.1137 104.449 95.3356 104.314 95.4389 104.087C95.5757 103.778 95.4389 103.416 95.1319 103.278L95.1289 103.275Z" fill="#828489"/>
<path d="M44.6446 80.452L43.8116 80.075C43.5046 79.937 43.1459 80.075 43.0091 80.3846C42.8723 80.6942 43.0091 81.0559 43.3161 81.1939L44.1491 81.5709C44.2311 81.6077 44.3132 81.6261 44.3983 81.6261C44.6294 81.6261 44.8513 81.4912 44.9546 81.2644C45.0914 80.9548 44.9546 80.593 44.6476 80.4551L44.6446 80.452Z" fill="#828489"/>
<path d="M59.0691 86.9724L58.2361 86.5954C57.9291 86.4574 57.5704 86.5954 57.4336 86.905C57.2968 87.2146 57.4336 87.5763 57.7406 87.7143L58.5736 88.0913C58.6557 88.1281 58.7377 88.1435 58.8229 88.1435C59.0539 88.1435 59.2758 88.0086 59.3792 87.7817C59.516 87.4721 59.3792 87.1104 59.0721 86.9724H59.0691Z" fill="#828489"/>
<path d="M64.6443 90.1667C64.5075 90.4763 64.6443 90.8381 64.9514 90.976L65.7843 91.3531C65.8664 91.3899 65.9485 91.4082 66.0336 91.4082C66.2646 91.4082 66.4865 91.2734 66.5899 91.0465C66.7267 90.7369 66.5899 90.3752 66.2829 90.2372L65.4499 89.8602C65.1429 89.7222 64.7842 89.8602 64.6474 90.1698L64.6443 90.1667Z" fill="#828489"/>
<path d="M68.2497 91.7945C68.1129 92.1041 68.2497 92.4659 68.5567 92.6038L69.3897 92.9809C69.4718 93.0177 69.5538 93.036 69.639 93.036C69.87 93.036 70.0919 92.9012 70.1953 92.6743C70.3321 92.3647 70.1953 92.003 69.8882 91.865L69.0553 91.488C68.7483 91.35 68.3895 91.488 68.2528 91.7976L68.2497 91.7945Z" fill="#828489"/>
<path d="M48.2499 82.0798L47.417 81.7028C47.11 81.5648 46.7512 81.7028 46.6144 82.0124C46.4776 82.322 46.6145 82.6837 46.9215 82.8217L47.7544 83.1987C47.8365 83.2355 47.9186 83.2539 48.0037 83.2539C48.2347 83.2539 48.4567 83.119 48.56 82.8922C48.6968 82.5826 48.56 82.2208 48.253 82.0829L48.2499 82.0798Z" fill="#828489"/>
<path d="M54.6308 84.9645C54.3237 84.8265 53.965 84.9645 53.8282 85.2741C53.6914 85.5837 53.8282 85.9455 54.1353 86.0834L54.9682 86.4605C55.0503 86.4973 55.1324 86.5157 55.2175 86.5157C55.4485 86.5157 55.6704 86.3808 55.7738 86.1539C55.9106 85.8443 55.7738 85.4826 55.4668 85.3446L54.6338 84.9676L54.6308 84.9645Z" fill="#828489"/>
<path d="M52.1623 84.5231C52.2991 84.2134 52.1623 83.8517 51.8553 83.7137L51.0224 83.3367C50.7153 83.1987 50.3566 83.3367 50.2198 83.6463C50.083 83.9559 50.2198 84.3177 50.5269 84.4556L51.3598 84.8327C51.4419 84.8695 51.524 84.8879 51.6091 84.8879C51.8401 84.8879 52.062 84.753 52.1654 84.5261L52.1623 84.5231Z" fill="#828489"/>
<path d="M41.9846 22.8597V23.5035C41.9846 23.8407 42.2582 24.1166 42.5926 24.1166C42.927 24.1166 43.2006 23.8407 43.2006 23.5035V22.964L47.1525 23.3104L43.3678 18.9113C43.4377 18.8623 43.4864 18.7887 43.4955 18.6967C43.5137 18.5281 43.3921 18.3779 43.228 18.3595L43.1459 18.3503C43.0516 18.1357 42.8388 17.9855 42.5896 17.9855C42.2552 17.9855 41.9816 18.2614 41.9816 18.5986V18.6507L37.8746 22.498L41.9816 22.8597H41.9846Z" fill="#828489"/>
<path d="M2.74507 52.0896L3.51113 51.4459C4.72407 50.3637 5.72117 49.2448 5.72117 47.8285C5.72117 46.3203 4.69975 45.2136 2.80891 45.2136C1.69933 45.2136 0.714386 45.5999 0.100318 46.0751L0.650547 47.4668C1.08526 47.1449 1.71149 46.7832 2.42587 46.7832C3.38345 46.7832 3.77865 47.3227 3.77865 48.0063C3.76649 48.9842 2.8849 49.9254 1.0579 51.5746L0 52.5403V53.7236H5.88837V52.1142H2.74811V52.0896H2.74507Z" fill="#828489"/>
<path d="M17.2365 47.2737C16.7774 47.2737 16.3944 47.3902 16.0478 47.5833C15.7408 47.7642 15.4733 48.0217 15.2301 48.3558H15.2058C14.9383 47.6998 14.312 47.2737 13.4943 47.2737C12.4334 47.2737 11.874 47.8653 11.6035 48.2792H11.5639L11.4879 47.43H9.84029C9.86461 47.9971 9.89197 48.6532 9.89197 49.438V53.7266H11.7828V50.0572C11.7828 49.8886 11.795 49.7108 11.8588 49.5544C11.9743 49.2448 12.2662 48.8586 12.7647 48.8586C13.3909 48.8586 13.6706 49.3981 13.6706 50.1859V53.7266H15.5615V50.0449C15.5615 49.8763 15.5858 49.6832 15.6253 49.5422C15.7651 49.1682 16.0722 48.8586 16.5312 48.8586C17.1574 48.8586 17.4493 49.3858 17.4493 50.3024V53.7266H19.3401V50.0173C19.3401 48.1228 18.4342 47.2737 17.2334 47.2737H17.2365Z" fill="#828489"/>
<path d="M55.8832 100.531V100.507C56.9047 100.16 57.4032 99.4522 57.4032 98.5632C57.4032 97.4167 56.4213 96.4756 54.6581 96.4756C53.5729 96.4756 52.5879 96.7852 52.0924 97.1071L52.4876 98.5234C52.819 98.318 53.5334 98.0206 54.2113 98.0206C55.0412 98.0206 55.4364 98.3946 55.4364 98.8974C55.4364 99.6055 54.6186 99.863 53.9681 99.863H53.202V101.267H53.9924C54.8466 101.267 55.6644 101.641 55.6644 102.478C55.6644 103.097 55.1536 103.585 54.1444 103.585C53.354 103.585 52.5606 103.263 52.2171 103.07L51.8219 104.55C52.3083 104.848 53.2142 105.13 54.2873 105.13C56.3939 105.13 57.6829 104.047 57.6829 102.579C57.6829 101.472 56.8773 100.712 55.8832 100.531Z" fill="#828489"/>
<path d="M69.1222 98.5356C68.6631 98.5356 68.2801 98.6521 67.9336 98.8452C67.6265 99.0261 67.359 99.2836 67.1158 99.6178H67.0915C66.824 98.9617 66.1977 98.5356 65.38 98.5356C64.3191 98.5356 63.7597 99.1273 63.4892 99.5411H63.4496L63.3736 98.692H61.726C61.7503 99.2591 61.7777 99.9151 61.7777 100.7V104.989H63.6685V101.319C63.6685 101.151 63.6807 100.973 63.7445 100.816C63.86 100.507 64.1519 100.121 64.6504 100.121C65.2766 100.121 65.5563 100.66 65.5563 101.448V104.989H67.4472V101.307C67.4472 101.138 67.4715 100.945 67.511 100.804C67.6508 100.43 67.9579 100.121 68.4169 100.121C69.0431 100.121 69.335 100.648 69.335 101.564V104.989H71.2258V101.279C71.2258 99.3878 70.3199 98.5356 69.1191 98.5356H69.1222Z" fill="#828489"/>
<path d="M112.259 50.1553C118.482 50.1553 123.607 45.37 124.309 39.2082C124.364 38.7331 124.394 38.2487 124.394 37.7582C124.394 34.334 123.036 31.2348 120.838 28.9877C119.722 27.8474 118.384 26.9277 116.901 26.3023C119.473 28.9295 119.57 33.117 117.211 35.8699C117.396 32.7308 115.648 29.6744 112.642 28.4022C113.66 29.0981 114.204 30.2477 114.195 31.4126C114.189 32.0839 114.004 32.7614 113.609 33.3623C113.098 34.144 112.256 34.567 111.402 34.567C110.897 34.567 110.383 34.4199 109.933 34.1103C109.17 33.5891 108.757 32.7338 108.757 31.8632C108.757 31.3421 108.9 30.8179 109.204 30.355C110.326 28.6383 110.9 26.71 110.967 24.7849H110.973C111.14 24.7696 111.265 24.6193 111.247 24.4507C111.231 24.3005 111.116 24.1902 110.97 24.1779C110.9 20.7936 109.271 17.495 106.307 15.4718C106.9 16.934 107.231 18.5373 107.231 20.2172C107.231 23.3901 106.045 26.566 103.674 28.9847C101.479 31.2286 100.117 34.3279 100.117 37.7552C100.117 37.8226 100.12 37.887 100.123 37.9544C100.227 44.7078 105.617 50.1522 112.256 50.1522L112.259 50.1553Z" fill="#828489"/>
<path d="M135.764 22.4735C135.764 22.4735 135.782 22.4735 135.791 22.4735L136.396 22.4183C136.563 22.403 136.688 22.2527 136.67 22.0841C136.654 21.9155 136.509 21.7899 136.338 21.8082L135.733 21.8634C135.566 21.8788 135.442 22.029 135.46 22.1976C135.475 22.357 135.606 22.4765 135.764 22.4765V22.4735Z" fill="#828489"/>
<path d="M124.869 23.4882C124.869 23.4882 124.887 23.4882 124.896 23.4882L125.501 23.433C125.668 23.4177 125.793 23.2674 125.775 23.0988C125.759 22.9302 125.613 22.8076 125.443 22.8229L124.838 22.8781C124.671 22.8934 124.546 23.0437 124.565 23.2123C124.58 23.3717 124.711 23.4912 124.869 23.4912V23.4882Z" fill="#828489"/>
<path d="M132.134 22.8107C132.134 22.8107 132.152 22.8107 132.161 22.8107L132.766 22.7555C132.934 22.7402 133.055 22.59 133.04 22.4214C133.025 22.2527 132.885 22.1271 132.709 22.1455L132.104 22.2006C131.936 22.216 131.815 22.3662 131.83 22.5348C131.845 22.6942 131.976 22.8137 132.134 22.8137V22.8107Z" fill="#828489"/>
<path d="M128.501 23.1509C128.501 23.1509 128.52 23.1509 128.529 23.1509L129.134 23.0958C129.301 23.0804 129.422 22.9302 129.407 22.7616C129.392 22.593 129.249 22.4673 129.076 22.4857L128.471 22.5409C128.304 22.5562 128.182 22.7064 128.197 22.8751C128.213 23.0345 128.343 23.154 128.501 23.154V23.1509Z" fill="#828489"/>
<path d="M121.236 23.8284C121.236 23.8284 121.254 23.8284 121.263 23.8284L121.868 23.7733C122.035 23.7579 122.16 23.6077 122.142 23.4391C122.124 23.2705 121.981 23.1448 121.81 23.1632L121.205 23.2184C121.038 23.2337 120.914 23.3839 120.932 23.5525C120.947 23.7119 121.078 23.8315 121.236 23.8315V23.8284Z" fill="#828489"/>
<path d="M118.235 24.1074C118.403 24.0921 118.527 23.9419 118.509 23.7733C118.494 23.6047 118.345 23.479 118.178 23.4974L117.612 23.5495L117.713 24.1564L118.232 24.1074H118.235Z" fill="#828489"/>
<path d="M150.295 21.1154C150.295 21.1154 150.313 21.1154 150.322 21.1154L150.927 21.0603C151.094 21.0449 151.219 20.8947 151.201 20.7261C151.185 20.5575 151.036 20.4318 150.869 20.4502L150.264 20.5054C150.097 20.5207 149.972 20.6709 149.991 20.8395C150.006 20.9989 150.137 21.1185 150.295 21.1185V21.1154Z" fill="#828489"/>
<path d="M165.403 19.0922L164.798 19.1474C164.631 19.1627 164.506 19.3129 164.525 19.4815C164.54 19.6409 164.671 19.7605 164.829 19.7605C164.838 19.7605 164.847 19.7605 164.856 19.7605L165.461 19.7053C165.628 19.69 165.753 19.5397 165.735 19.3711C165.719 19.2025 165.573 19.0769 165.403 19.0952V19.0922Z" fill="#828489"/>
<path d="M169.364 19.0309C169.349 18.8623 169.203 18.7366 169.033 18.755L168.428 18.8102C168.261 18.8255 168.136 18.9757 168.154 19.1443C168.17 19.3037 168.3 19.4233 168.458 19.4233C168.467 19.4233 168.477 19.4233 168.486 19.4233L169.091 19.3681C169.258 19.3528 169.382 19.2025 169.364 19.0339V19.0309Z" fill="#828489"/>
<path d="M172.118 19.083L172.723 19.0278C172.891 19.0125 173.015 18.8623 172.997 18.6937C172.982 18.5251 172.833 18.4024 172.666 18.4178H172.635C172.602 18.384 172.562 18.3534 172.514 18.335L171.939 18.1357C171.781 18.0805 171.608 18.1664 171.553 18.3258C171.498 18.4852 171.583 18.6599 171.741 18.7151L171.793 18.7335C171.79 18.758 171.784 18.7826 171.784 18.8071C171.799 18.9665 171.93 19.086 172.088 19.086C172.097 19.086 172.106 19.086 172.115 19.086L172.118 19.083Z" fill="#828489"/>
<path d="M139.396 22.1332C139.396 22.1332 139.415 22.1332 139.424 22.1332L140.029 22.078C140.196 22.0627 140.321 21.9125 140.302 21.7439C140.287 21.5753 140.138 21.4496 139.971 21.468L139.366 21.5231C139.199 21.5385 139.074 21.6887 139.092 21.8573C139.108 22.0167 139.238 22.1363 139.396 22.1363V22.1332Z" fill="#828489"/>
<path d="M161.77 19.4325L161.165 19.4876C160.998 19.503 160.874 19.6532 160.892 19.8218C160.907 19.9812 161.038 20.1007 161.196 20.1007C161.205 20.1007 161.214 20.1007 161.223 20.1007L161.828 20.0456C161.995 20.0302 162.12 19.88 162.102 19.7114C162.087 19.5428 161.938 19.4202 161.77 19.4355V19.4325Z" fill="#828489"/>
<path d="M158.138 19.7697L157.533 19.8248C157.366 19.8402 157.244 19.9904 157.259 20.159C157.274 20.3184 157.405 20.4379 157.563 20.4379C157.572 20.4379 157.581 20.4379 157.591 20.4379L158.195 20.3828C158.363 20.3674 158.487 20.2172 158.469 20.0486C158.454 19.88 158.308 19.7543 158.138 19.7727V19.7697Z" fill="#828489"/>
<path d="M154.505 20.1099L153.9 20.1651C153.733 20.1804 153.608 20.3307 153.626 20.4993C153.642 20.6587 153.772 20.7782 153.93 20.7782C153.94 20.7782 153.949 20.7782 153.958 20.7782L154.563 20.723C154.73 20.7077 154.855 20.5575 154.836 20.3889C154.821 20.2203 154.675 20.0946 154.505 20.113V20.1099Z" fill="#828489"/>
<path d="M143.029 21.7929C143.029 21.7929 143.047 21.7929 143.057 21.7929L143.662 21.7377C143.829 21.7224 143.953 21.5722 143.935 21.4036C143.92 21.235 143.774 21.1093 143.604 21.1277L142.999 21.1829C142.832 21.1982 142.707 21.3484 142.725 21.517C142.74 21.6764 142.871 21.796 143.029 21.796V21.7929Z" fill="#828489"/>
<path d="M146.662 21.4557C146.662 21.4557 146.68 21.4557 146.689 21.4557L147.294 21.4005C147.461 21.3852 147.586 21.235 147.568 21.0664C147.553 20.8978 147.407 20.7721 147.236 20.7905L146.632 20.8457C146.464 20.861 146.34 21.0112 146.358 21.1798C146.373 21.3392 146.504 21.4588 146.662 21.4588V21.4557Z" fill="#828489"/>
<path d="M115.782 23.7426C115.591 22.6022 115.803 21.3883 116.484 20.349C117.539 18.7366 117.114 16.5539 115.536 15.4748C115.536 16.373 115.199 17.2743 114.53 17.961C113.186 19.3313 113.186 21.5569 114.53 22.9302C114.882 23.2889 115.308 23.5679 115.785 23.7426H115.782Z" fill="#828489"/>
<path d="M140.883 67.1016C133.724 63.8276 142.05 67.0556 145.698 68.4903C146.306 68.7294 146.902 68.1255 146.665 67.5154C145.297 63.9839 141.573 55.5537 136.192 52.5955C131.487 50.0081 135.019 51.3018 137.725 52.3809C138.427 52.6598 139.05 51.8321 138.594 51.2252C136.724 48.7359 133.067 44.5055 127.723 41.1211C127.179 40.7778 126.62 40.4437 126.039 40.1187C124.932 46.8598 119.178 52.013 112.259 52.013C104.863 52.013 98.792 46.1241 98.3147 38.7024C97.7128 38.9661 97.1231 39.245 96.5424 39.5332C89.3955 43.0954 83.8172 48.4079 81.1269 51.2558C80.601 51.8107 81.1421 52.7089 81.8747 52.4974C84.3036 51.7984 87.4713 50.9063 86.389 51.3355C79.537 54.0516 75.5668 63.6774 74.2931 67.2794C74.0894 67.8557 74.6184 68.4228 75.2021 68.2542C77.4547 67.5982 81.6042 66.4118 80.5128 66.8962C71.6119 70.8569 69.2103 82.5488 68.6662 86.2581C68.5871 86.7977 69.0827 87.2422 69.6055 87.095L72.7975 86.1999C73.5666 85.9853 74.0894 86.9724 73.4845 87.4997C72.9829 87.935 73.2443 88.7627 73.904 88.824L80.9992 89.48C81.589 89.5352 81.8869 90.228 81.5191 90.697C80.8047 91.6075 79.9504 92.7632 80.2028 92.7632C80.5554 92.7632 92.2166 93.4376 95.8524 93.6461C96.3722 93.6767 96.7005 94.2193 96.4908 94.7006L96.0561 95.6969C95.7855 96.3162 96.3965 96.9507 97.0197 96.6994L99.0413 95.8809C99.3149 95.7705 99.625 95.8318 99.8377 96.0372L104.209 100.268C104.389 100.439 104.638 100.513 104.881 100.461L114.469 98.4314C114.746 98.3732 115.031 98.4774 115.208 98.7012L116.767 100.685C117.056 101.049 117.6 101.068 117.91 100.718L121.449 96.7331C121.658 96.494 121.996 96.4173 122.291 96.54L130.155 99.8017C130.648 100.007 131.186 99.6423 131.186 99.1058V96.4572C131.186 96.0403 131.52 95.7031 131.933 95.7031H142.439C143.102 95.7031 143.437 94.8999 142.975 94.4217L140.774 92.1532C140.312 91.6749 140.646 90.8718 141.309 90.8718H149.662C150.197 90.8718 150.559 90.32 150.349 89.8234L150.082 89.1857C149.872 88.6891 150.234 88.1373 150.769 88.1373H152.845C153.341 88.1373 153.696 87.6652 153.566 87.1839C152.575 83.5543 148.568 70.6239 140.883 67.1108V67.1016ZM100.257 48.2271C100.084 48.0217 99.9168 47.8132 99.7526 47.6017C99.9137 47.8163 100.084 48.0217 100.257 48.2271ZM97.6186 43.8403C97.4362 43.3896 97.2751 42.9267 97.1322 42.4547C97.272 42.9267 97.4362 43.3866 97.6186 43.8403ZM96.4512 59.5818C95.7034 60.2133 95.0985 60.9858 94.6486 61.8595C93.9038 63.3003 93.6059 64.9496 93.6636 66.5743C94.0071 66.1175 94.5026 65.7803 95.0802 65.6455C95.4511 65.5596 95.6092 66.1359 95.2383 66.2218C94.4297 66.4088 93.8764 67.0372 93.7579 67.8618C93.7183 68.1469 93.2259 68.1469 93.1864 67.8618C92.8702 65.6271 93.162 63.2789 94.2777 61.2955C94.8522 60.2746 95.6335 59.4347 96.5668 58.7357C97.497 58.0399 98.5488 57.2152 99.7769 57.4329C100.154 57.5003 99.9928 58.0766 99.6189 58.0092C98.5002 57.8099 97.2507 58.9074 96.4543 59.5818H96.4512ZM126.796 92.1225C126.726 92.3739 126.386 92.4137 126.255 92.193C125.297 90.6143 123.568 89.8172 121.938 89.1152C122.169 90.0901 122.285 91.0986 122.263 92.1133C122.257 92.4107 121.862 92.521 121.71 92.2635C120.847 90.8043 119.436 89.7835 117.792 89.4095C117.418 89.3237 117.579 88.7474 117.95 88.8332C119.412 89.1673 120.704 89.992 121.64 91.1446C121.418 87.7786 119.695 84.5721 116.959 82.5948C116.652 82.371 116.947 81.853 117.26 82.0767C119.445 83.6555 121.032 85.9577 121.783 88.5266C121.859 88.4868 121.95 88.4745 122.048 88.5144C123.634 89.1949 125.285 89.9552 126.373 91.3285C126.969 88.4101 126.045 85.2741 123.926 83.1711C123.653 82.9014 124.072 82.4783 124.346 82.7481C126.766 85.1484 127.726 88.8271 126.793 92.1164L126.796 92.1225ZM129.991 65.6638C129.197 63.895 127.608 62.6106 125.72 62.2243C125.346 62.1477 125.504 61.5714 125.878 61.648C127.316 61.9423 128.617 62.7424 129.553 63.8613C129.207 62.6749 128.69 61.5376 127.842 60.6364C127.161 59.9129 126.288 59.3948 125.416 58.9411C124.507 58.466 123.555 58.092 122.576 57.8038C122.212 57.6965 122.367 57.1171 122.735 57.2275C123.786 57.5371 124.808 57.9479 125.778 58.4598C126.671 58.9319 127.559 59.4745 128.261 60.2164C129.596 61.6296 130.179 63.567 130.532 65.4401C130.59 65.7527 130.137 65.998 129.991 65.67V65.6638Z" fill="#828489"/>
</g>
</svg>
