<svg width="210" height="92" viewBox="0 0 210 92" fill="none" xmlns="http://www.w3.org/2000/svg">
<g id="Vector">
<path d="M60.6521 18.4106C63.1171 18.4106 65.1177 16.4034 65.1177 13.9304C65.1177 11.4574 63.1171 9.45018 60.6521 9.45018C58.1871 9.45018 56.1865 11.4574 56.1865 13.9304C56.1865 16.4034 58.1871 18.4106 60.6521 18.4106Z" fill="#828489"/>
<path d="M56.3301 55.2125C57.8665 55.2125 59.1109 53.964 59.1109 52.4226V42.1465L62.3177 45.3686C62.4039 45.964 62.648 47.6927 63.3516 52.6867C63.4856 54.1032 64.6726 55.2077 66.1181 55.2077C67.6545 55.2077 68.8989 53.9592 68.8989 52.4178C68.8989 52.3169 68.8942 52.2161 68.8798 52.1152V52.096C68.8702 52 68.8511 51.904 68.8319 51.8127L67.5731 44.2641C67.5875 44.1537 67.5971 44.0384 67.5971 43.9232C67.5971 43.4862 67.4918 43.0732 67.3147 42.7035C67.2333 42.5402 67.1376 42.3866 67.0323 42.2425L67.0514 42.2233L62.0401 37.1957V30.5786L64.0887 33.9208C64.1174 33.964 64.1413 34.012 64.1701 34.0552L64.261 34.1993V34.1657C64.7635 34.8379 65.5677 35.2749 66.4723 35.2749C66.5871 35.2749 66.702 35.2653 66.8169 35.2509H73.3885L76.423 46.6267C76.2555 46.6843 76.1024 46.7563 75.9588 46.8475C75.0589 47.395 74.5899 48.4898 74.8771 49.5558L76.2842 54.8283C76.4087 55.2941 76.8873 55.5726 77.3516 55.4478C77.8159 55.3229 78.0935 54.8427 77.969 54.377L76.6719 49.5126C76.6336 49.3637 76.7198 49.2101 76.8682 49.1717C77.0165 49.1333 77.1697 49.2197 77.208 49.3685L78.5051 54.2329C78.6295 54.6987 79.1082 54.9772 79.5724 54.8523C80.0367 54.7275 80.3143 54.2473 80.1899 53.7815L78.8976 48.9364L78.888 48.8932C78.8641 48.7491 78.9454 48.6098 79.0842 48.5714C79.2326 48.533 79.3858 48.6194 79.4241 48.7683L80.7212 53.6327C80.8456 54.0984 81.3242 54.377 81.7885 54.2521C82.2241 54.1369 82.4921 53.7047 82.4203 53.2677C82.4155 53.2389 82.4155 53.2101 82.4059 53.1813C82.3964 53.1525 82.3868 53.1285 82.3772 53.0996L81.1041 48.3217C81.0658 48.1729 81.1519 48.0192 81.3003 47.9808C81.4487 47.9424 81.6018 48.0288 81.6401 48.1777L82.9372 53.042H82.9468C83.0712 53.5078 83.5499 53.7863 84.0142 53.6567C84.4784 53.5318 84.756 53.0516 84.6316 52.5858L83.3345 47.7215L83.2244 47.3133C82.9372 46.2425 81.9848 45.5318 80.9365 45.5078C80.769 45.5078 80.5967 45.5174 80.4244 45.551L75.1738 25.8583C74.8771 24.7491 73.7427 24.0864 72.6323 24.3842C71.5266 24.6819 70.8661 25.8199 71.1629 26.934L71.9 29.6951H68.0135L63.5 22.3337C63.2894 21.8199 62.9974 21.3445 62.6384 20.9268L62.6289 20.9124C61.6764 19.8127 60.274 19.1116 58.7089 19.1116C55.8466 19.1116 53.5253 21.4406 53.5253 24.3121L53.5396 52.4082C53.5396 53.9496 54.7841 55.1981 56.3205 55.1981L56.3301 55.2125ZM63.8829 31.4862C63.8829 31.4862 63.8829 31.491 63.8829 31.4958V31.4862Z" fill="#828489"/>
<path d="M130.322 41.0324C136.597 41.0324 141.766 36.2305 142.474 30.0504C142.527 29.575 142.56 29.09 142.56 28.5954C142.56 25.1621 141.192 22.0504 138.976 19.7983C137.851 18.6507 136.501 17.7335 135.008 17.1044C137.602 19.7407 137.698 23.9424 135.319 26.7035C135.505 23.5534 133.744 20.4898 130.71 19.2125C131.739 19.9088 132.284 21.0612 132.275 22.2329C132.27 22.9052 132.083 23.587 131.686 24.1921C131.169 24.9748 130.322 25.4022 129.46 25.4022C128.948 25.4022 128.436 25.2533 127.981 24.946C127.211 24.4226 126.794 23.563 126.794 22.6891C126.794 22.1657 126.938 21.6423 127.244 21.1765C130.494 16.2353 129.183 9.55102 124.325 6.2521C124.923 7.71669 125.258 9.32533 125.258 11.0108C125.258 14.1945 124.061 17.3782 121.673 19.8079C119.462 22.06 118.088 25.1717 118.088 28.605C118.088 28.6723 118.088 28.7395 118.093 28.8067C118.198 35.5822 123.631 41.042 130.327 41.042L130.322 41.0324Z" fill="#828489"/>
<path d="M133.873 14.5354C133.682 13.3926 133.897 12.1729 134.582 11.1309C135.644 9.51261 135.218 7.32293 133.624 6.2425C133.624 7.14526 133.285 8.04802 132.61 8.73469C131.255 10.1128 131.255 12.3409 132.61 13.7191C132.964 14.0792 133.395 14.3577 133.873 14.5354Z" fill="#828489"/>
<path d="M149.41 90.1273V87.4718C149.41 87.054 149.75 86.7179 150.161 86.7179H160.753C161.423 86.7179 161.758 85.9112 161.294 85.431L159.073 83.1549C158.604 82.6747 158.944 81.868 159.614 81.868H168.038C168.579 81.868 168.943 81.3157 168.732 80.8163L168.464 80.1777C168.253 79.6783 168.617 79.126 169.158 79.126H171.25C171.747 79.126 172.106 78.6507 171.977 78.1705C170.977 74.5306 166.937 61.5558 159.188 58.0312C151.97 54.7467 160.366 57.9832 164.046 59.4238C164.659 59.6639 165.257 59.0588 165.018 58.4442C163.639 54.9004 159.887 46.4442 154.459 43.4766C149.716 40.8787 153.277 42.1801 156.005 43.2605C156.714 43.539 157.345 42.7131 156.881 42.1032C154.995 39.6062 151.31 35.3613 145.92 31.9664C144.384 39.2605 137.98 44.7491 130.327 44.7491C122.128 44.7491 115.355 38.4442 114.479 30.3721C107.271 33.9448 101.647 39.2749 98.9379 42.132C98.4066 42.6891 98.9523 43.5918 99.6894 43.3806C102.135 42.6795 105.332 41.7815 104.241 42.2137C97.3345 44.9412 93.3283 54.593 92.0456 58.2089C91.8398 58.7899 92.3711 59.3565 92.9598 59.1837C95.2333 58.5258 99.4165 57.3349 98.3157 57.8247C89.3413 61.7959 86.9194 73.527 86.369 77.2485C86.2876 77.7911 86.7902 78.2377 87.3167 78.0888L90.5331 77.1909C91.3085 76.9748 91.835 77.9688 91.2271 78.4922C90.7198 78.9292 90.9878 79.7599 91.6483 79.8175L98.8039 80.4754C99.3974 80.5282 99.6989 81.2245 99.3256 81.6951C98.6077 82.6122 97.7461 83.7695 97.9998 83.7695C98.354 83.7695 110.114 84.4466 113.78 84.6579C114.307 84.6867 114.637 85.2341 114.426 85.7191L113.991 86.7179C113.718 87.3373 114.336 87.976 114.963 87.7263L117.001 86.9052C117.274 86.7947 117.59 86.8571 117.806 87.0636L122.214 91.3085C122.396 91.4814 122.645 91.5534 122.889 91.5006L132.557 89.4646C132.835 89.407 133.127 89.5126 133.304 89.7335L134.878 91.7215C135.17 92.0864 135.721 92.1056 136.032 91.7551L139.603 87.7551C139.818 87.515 140.158 87.4382 140.45 87.5582L148.376 90.8283C148.874 91.0348 149.414 90.6651 149.414 90.1273H149.41ZM117.576 48.9124C116.451 48.7155 115.187 49.8151 114.383 50.4874C113.627 51.1213 113.019 51.8944 112.569 52.7731C111.818 54.2185 111.516 55.8751 111.579 57.503C111.928 57.0468 112.426 56.7059 113.005 56.5714C113.378 56.485 113.541 57.0612 113.163 57.1525C112.349 57.3397 111.789 57.9736 111.67 58.7995C111.626 59.0876 111.133 59.0876 111.09 58.7995C110.846 57.0708 110.971 55.2749 111.555 53.6278C111.832 53.5894 111.904 53.2485 111.76 53.0996C111.89 52.7971 112.029 52.4994 112.191 52.2113C112.77 51.1885 113.56 50.3433 114.498 49.6423C115.436 48.9412 116.499 48.1152 117.734 48.3361C118.112 48.4034 117.949 48.9796 117.576 48.9172V48.9124ZM144.978 83.1309C144.906 83.3806 144.566 83.4238 144.432 83.2029C143.465 81.6182 141.723 80.8211 140.081 80.1152C140.316 81.0948 140.431 82.1032 140.411 83.1212C140.407 83.419 140.009 83.5294 139.856 83.2749C138.985 81.8103 137.564 80.7875 135.907 80.413C135.529 80.3265 135.692 79.7503 136.065 79.8319C137.54 80.1681 138.841 80.994 139.789 82.1513C139.564 78.7755 137.827 75.5582 135.07 73.575C134.759 73.3541 135.06 72.8307 135.371 73.0564C137.573 74.6411 139.177 76.9508 139.933 79.5246C140.009 79.4862 140.1 79.4718 140.201 79.515C141.804 80.1969 143.465 80.9604 144.561 82.3433C145.164 79.4142 144.231 76.2689 142.096 74.1561C141.823 73.8824 142.245 73.4598 142.517 73.7335C144.958 76.1393 145.925 79.8319 144.987 83.1309H144.978ZM148.199 56.5906C147.399 54.8187 145.796 53.527 143.891 53.1381C143.513 53.0612 143.676 52.4802 144.049 52.557C145.499 52.8547 146.811 53.6615 147.754 54.7851C147.404 53.5894 146.887 52.4466 146.026 51.539C145.337 50.8139 144.461 50.2953 143.58 49.8391C142.666 49.3637 141.704 48.9892 140.718 48.6963C140.349 48.5858 140.507 48.0096 140.876 48.1152C141.933 48.4274 142.967 48.8355 143.944 49.3493C144.844 49.8199 145.743 50.3673 146.447 51.1116C147.792 52.5282 148.381 54.473 148.735 56.3505C148.792 56.6627 148.338 56.9124 148.189 56.581L148.199 56.5906Z" fill="#828489"/>
<path d="M23.0459 19.0444C26.3341 19.0444 29.0432 16.5282 29.4165 13.2869C29.4453 13.0372 29.4596 12.7827 29.4596 12.5234C29.4596 10.7227 28.7417 9.09484 27.5786 7.91357C26.9899 7.31333 26.2815 6.82833 25.4965 6.5018C26.8559 7.88475 26.9085 10.084 25.6593 11.5342C25.755 9.88235 24.8312 8.27371 23.2422 7.60624C23.783 7.97119 24.0702 8.57623 24.0606 9.19088C24.0606 9.54622 23.9601 9.90156 23.7495 10.2185C23.4815 10.6315 23.0364 10.8523 22.5817 10.8523C22.3136 10.8523 22.0456 10.7755 21.8063 10.6122C21.4042 10.3385 21.1841 9.88716 21.1841 9.43097C21.1841 9.15726 21.2606 8.88355 21.4186 8.63865C23.1225 6.05042 22.4333 2.54502 19.887 0.816327C20.2029 1.58463 20.3752 2.42977 20.3752 3.31333C20.3752 4.98439 19.7482 6.65066 18.4941 7.92317C17.3359 9.10444 16.6131 10.7323 16.6131 12.533C16.6131 12.5666 16.6131 12.6002 16.6131 12.6387C16.6706 16.1873 19.5184 19.054 23.0268 19.054L23.0459 19.0444Z" fill="#828489"/>
<path d="M24.9078 5.15246C24.8073 4.55222 24.9174 3.91357 25.2764 3.36615C25.8364 2.51621 25.6114 1.36855 24.7738 0.801921C24.7738 1.27251 24.5967 1.7479 24.2425 2.10804C23.5341 2.82833 23.5341 4 24.2425 4.72029C24.4292 4.90756 24.6542 5.05642 24.9078 5.14766V5.15246Z" fill="#828489"/>
<path d="M0.502331 38.4682L2.18712 37.9976C2.59396 37.8824 2.87156 38.4058 2.55088 38.6795C2.28763 38.91 2.42643 39.3421 2.77105 39.3758L6.51874 39.7215C6.82985 39.7503 6.9878 40.1153 6.79156 40.3602C6.41344 40.8403 5.96353 41.4454 6.09755 41.4454C6.28421 41.4454 12.4442 41.8007 14.3683 41.9112C14.6411 41.9256 14.8182 42.2137 14.7081 42.4682L14.4784 42.9916C14.3348 43.3181 14.6603 43.6495 14.9858 43.5198L16.0531 43.0876C16.1967 43.03 16.3642 43.0636 16.4743 43.1693L18.7861 45.3926C18.8818 45.4838 19.0111 45.5222 19.1403 45.4934L24.209 44.4274C24.3574 44.3986 24.5058 44.4514 24.6015 44.5666L25.4247 45.6087C25.5779 45.8007 25.8651 45.8103 26.0278 45.6279L27.8993 43.5342C28.0093 43.4094 28.1912 43.3661 28.3444 43.4334L32.4989 45.1477C32.7574 45.2533 33.0446 45.0612 33.0446 44.7827V43.3902C33.0446 43.1693 33.2216 42.9916 33.4418 42.9916H38.994C39.3434 42.9916 39.5204 42.569 39.2763 42.3193L38.1133 41.1285C37.8692 40.8788 38.0463 40.4562 38.3957 40.4562H42.8087C43.091 40.4562 43.2825 40.1681 43.1724 39.904L43.0288 39.5678C42.9187 39.3085 43.1102 39.0156 43.3926 39.0156H44.4887C44.7519 39.0156 44.9386 38.7659 44.8716 38.5162C44.3498 36.605 42.2295 29.8055 38.1707 27.9616C34.3847 26.2377 38.7881 27.9376 40.717 28.6915C41.0377 28.8163 41.3536 28.4994 41.2292 28.1777C40.5064 26.3193 38.5393 21.8872 35.6914 20.3313C33.2025 18.9724 35.0692 19.6495 36.5003 20.2161C36.8736 20.3649 37.2039 19.928 36.9598 19.6062C35.9738 18.2953 34.0401 16.072 31.2162 14.2953C30.4121 18.1176 27.0521 20.9988 23.0411 20.9988C18.743 20.9988 15.1916 17.6951 14.7369 13.4598C10.9605 15.3325 8.01208 18.1273 6.59054 19.6255C6.31293 19.9184 6.60011 20.389 6.9878 20.2785C8.27054 19.9088 9.94575 19.443 9.37618 19.6687C5.75293 21.0996 3.65652 26.1609 2.98165 28.0528C2.87156 28.3553 3.15396 28.6531 3.46028 28.5666C4.65208 28.2209 6.84421 27.5966 6.26507 27.8511C1.56011 29.9256 0.291733 36.0768 -0.000232579 38.0264C-0.0433095 38.3097 0.219938 38.545 0.497545 38.4682H0.502331ZM28.5837 22.7611C29.1389 22.9244 29.6798 23.1405 30.1919 23.4094C30.6658 23.6591 31.1348 23.9424 31.5034 24.3313C32.2069 25.0756 32.5181 26.0936 32.7047 27.078C32.7334 27.2413 32.4941 27.371 32.4175 27.1981C31.9963 26.2665 31.1587 25.5942 30.1584 25.3878C29.9622 25.3493 30.0435 25.042 30.2398 25.0852C31.0008 25.2389 31.6852 25.6663 32.183 26.2521C32.0011 25.6279 31.7283 25.0276 31.2784 24.5522C30.9194 24.1729 30.4599 23.8992 29.9957 23.6591C29.517 23.4094 29.0145 23.2125 28.4928 23.0588C28.3013 23.0012 28.3827 22.6987 28.5741 22.7563L28.5837 22.7611ZM25.688 35.8319C26.8463 36.6627 27.6743 37.8776 28.0668 39.2317C28.1099 39.2077 28.1625 39.1981 28.2152 39.2173C29.048 39.5726 29.9191 39.9712 30.4934 40.6867C30.8046 39.1549 30.3259 37.5126 29.2059 36.4082C29.0623 36.2641 29.2825 36.0432 29.4261 36.1873C30.704 37.4502 31.2114 39.3854 30.7184 41.1141C30.6801 41.2437 30.503 41.2677 30.4312 41.1525C29.9239 40.3217 29.0097 39.904 28.1481 39.5342C28.2726 40.048 28.3348 40.5762 28.3204 41.1092C28.3204 41.2629 28.1099 41.3253 28.0285 41.1909C27.569 40.4226 26.8271 39.8848 25.956 39.6879C25.7598 39.6447 25.8411 39.3421 26.0374 39.3854C26.808 39.5582 27.4876 39.9904 27.9806 40.5906C27.861 38.8235 26.9564 37.1429 25.5157 36.1056C25.3529 35.9904 25.5109 35.7167 25.6736 35.8319H25.688ZM13.5403 24.9028C13.8418 24.3649 14.2582 23.9232 14.7512 23.5582C15.2442 23.1933 15.7994 22.7563 16.4456 22.8716C16.6466 22.9052 16.5605 23.2077 16.3642 23.1741C15.7755 23.0684 15.115 23.6447 14.689 24C14.2917 24.3313 13.9758 24.7395 13.7365 25.1957C13.344 25.9544 13.1861 26.8235 13.2148 27.6735C13.3967 27.4334 13.6599 27.2557 13.9615 27.1837C14.1577 27.1357 14.2391 27.443 14.0428 27.4862C13.6169 27.587 13.3249 27.9136 13.2627 28.3505C13.2435 28.4994 12.9803 28.4994 12.9611 28.3505C12.7936 27.1741 12.9468 25.94 13.5355 24.898L13.5403 24.9028Z" fill="#828489"/>
<path d="M94.9844 12.4658C97.234 12.4658 99.0863 10.7467 99.34 8.52821C99.3591 8.35534 99.3687 8.18247 99.3687 8.0048C99.3687 6.77551 98.8757 5.66147 98.0859 4.84994C97.6839 4.44178 97.2005 4.11044 96.6644 3.88475C97.593 4.83073 97.6265 6.33373 96.7745 7.32293C96.8415 6.19448 96.2097 5.09484 95.1232 4.63866C95.4918 4.88836 95.688 5.30132 95.6832 5.71909C95.6832 5.95918 95.6114 6.20408 95.4726 6.42017C95.2859 6.70348 94.9844 6.85234 94.6733 6.85234C94.4914 6.85234 94.3047 6.79952 94.142 6.68908C93.8644 6.5018 93.716 6.19448 93.716 5.88235C93.716 5.69508 93.7687 5.5078 93.8788 5.33974C95.0418 3.57743 94.5728 1.18127 92.8306 0C93.0459 0.523409 93.1656 1.09964 93.1656 1.70468C93.1656 2.84754 92.7396 3.98559 91.8829 4.85474C91.0883 5.66146 90.6001 6.77551 90.6001 8.0096C90.6001 8.03361 90.6001 8.05762 90.6001 8.08163C90.6384 10.5114 92.5865 12.4658 94.9844 12.4658Z" fill="#828489"/>
<path d="M96.2576 2.97239C96.1906 2.56423 96.2671 2.12725 96.5112 1.7527C96.8941 1.17167 96.741 0.388956 96.1666 0C96.1666 0.321729 96.047 0.648259 95.8029 0.893157C95.3194 1.38776 95.3194 2.18487 95.8029 2.67947C95.9321 2.80912 96.0853 2.90996 96.2576 2.97239Z" fill="#828489"/>
<path d="M83.5116 18.4826C80.2952 19.904 79.4288 24.1104 79.2326 25.4406C79.2039 25.6327 79.381 25.7959 79.5724 25.7431L80.7259 25.4214C81.0035 25.3445 81.195 25.6999 80.9748 25.8872C80.793 26.0408 80.8887 26.3385 81.128 26.3625L83.6935 26.5978C83.9089 26.617 84.0142 26.8667 83.8801 27.0348C83.6217 27.3613 83.3153 27.7791 83.4063 27.7791C83.5355 27.7791 87.7475 28.0192 89.0637 28.096C89.2504 28.1056 89.37 28.3025 89.2935 28.4754L89.1355 28.8307C89.0398 29.0516 89.26 29.2821 89.4849 29.1909L90.2172 28.898C90.3177 28.8595 90.4278 28.8787 90.5044 28.9556L92.0839 30.4778C92.1461 30.5402 92.2371 30.5642 92.328 30.5498L95.7933 29.8199C95.8938 29.8007 95.9991 29.8343 96.0613 29.916L96.6261 30.6266C96.7314 30.7563 96.9277 30.7659 97.0377 30.6411L98.3157 29.2101C98.3923 29.1237 98.5119 29.0948 98.622 29.1381L101.465 30.3097C101.642 30.3818 101.838 30.2521 101.838 30.06V29.1092C101.838 28.9604 101.958 28.8403 102.106 28.8403H105.902C106.141 28.8403 106.261 28.5522 106.093 28.3794L105.299 27.563C105.131 27.3902 105.251 27.102 105.49 27.102H108.511C108.702 27.102 108.836 26.9052 108.759 26.7275L108.664 26.497C108.587 26.3193 108.721 26.1224 108.913 26.1224H109.664C109.841 26.1224 109.97 25.9544 109.923 25.7815C109.564 24.4754 108.118 19.8271 105.342 18.5642C102.757 17.3878 105.763 18.5498 107.084 19.0636C107.304 19.1501 107.52 18.934 107.434 18.7131C106.941 17.4454 105.596 14.4154 103.648 13.3493C101.949 12.4178 103.222 12.8836 104.203 13.2725C104.457 13.3733 104.681 13.0756 104.519 12.8595C103.844 11.9664 102.523 10.4442 100.589 9.22929C100.039 11.8415 97.7413 13.8103 95.0036 13.8103C92.0648 13.8103 89.6381 11.5534 89.327 8.65786C86.7424 9.93998 84.7273 11.8463 83.7557 12.8739C83.5642 13.0756 83.7605 13.3974 84.0237 13.3205C84.8996 13.0708 86.0436 12.7491 85.6559 12.9028C83.1813 13.8776 81.7454 17.3397 81.2859 18.6363C81.2141 18.8427 81.4056 19.0492 81.6162 18.9868C82.4299 18.7515 83.928 18.3241 83.5355 18.497L83.5116 18.4826ZM98.7656 15.006C99.1437 15.1164 99.5123 15.2653 99.8665 15.4478C100.187 15.6158 100.513 15.8127 100.762 16.0816C101.245 16.5906 101.456 17.2869 101.58 17.9592C101.599 18.0696 101.436 18.1609 101.384 18.0408C101.097 17.407 100.522 16.9412 99.8425 16.8019C99.7085 16.7731 99.7659 16.5666 99.9 16.5954C100.417 16.7011 100.881 16.9892 101.221 17.3878C101.097 16.9652 100.915 16.557 100.608 16.2305C100.364 15.9712 100.048 15.7839 99.7324 15.6206C99.4022 15.4526 99.0623 15.3133 98.7082 15.2125C98.5741 15.1741 98.6316 14.9676 98.7656 15.006ZM96.7888 23.9424C97.5786 24.509 98.1482 25.3445 98.4162 26.2665C98.4449 26.2473 98.4784 26.2377 98.5167 26.2569C99.0863 26.5018 99.6798 26.7707 100.072 27.2605C100.283 26.2137 99.9574 25.09 99.1916 24.3361C99.0911 24.2401 99.2442 24.0864 99.3447 24.1825C100.221 25.0468 100.565 26.3673 100.23 27.5486C100.206 27.6399 100.082 27.6543 100.034 27.5726C99.6894 27.006 99.0624 26.7179 98.4736 26.4682C98.5598 26.8187 98.5981 27.1789 98.5933 27.5438C98.5933 27.6495 98.4497 27.6927 98.3923 27.5966C98.0812 27.0732 97.569 26.7035 96.9755 26.569C96.8415 26.5402 96.8989 26.3289 97.033 26.3625C97.5594 26.4826 98.0237 26.7851 98.3635 27.1981C98.2822 25.988 97.6647 24.8307 96.6788 24.12C96.5687 24.0384 96.6788 23.8559 96.7888 23.9328V23.9424ZM88.4846 16.4706C88.6904 16.1008 88.9728 15.8031 89.3126 15.5486C89.6477 15.2989 90.0306 15.0012 90.4709 15.078C90.6049 15.102 90.5475 15.3085 90.4135 15.2845C90.0114 15.2125 89.5567 15.6062 89.2695 15.8511C89.0015 16.0768 88.7813 16.3553 88.6186 16.6675C88.3506 17.1861 88.2453 17.7815 88.2692 18.3673C88.3936 18.2041 88.5659 18.0792 88.7765 18.0312C88.9106 18.0024 88.968 18.2089 88.834 18.2377C88.542 18.3049 88.341 18.5306 88.2979 18.8283C88.2835 18.9292 88.1065 18.9292 88.0921 18.8283C87.9772 18.0264 88.0825 17.1813 88.4846 16.4658V16.4706Z" fill="#828489"/>
<path d="M187.423 20.3505C190.821 20.3505 193.621 17.7479 194.004 14.401C194.033 14.1417 194.052 13.8776 194.052 13.6134C194.052 11.7503 193.31 10.0696 192.109 8.84994C191.501 8.23049 190.768 7.73109 189.959 7.39016C191.362 8.81633 191.419 11.0924 190.127 12.5906C190.227 10.886 189.275 9.22449 187.633 8.53301C188.189 8.91236 188.485 9.53662 188.48 10.1705C188.48 10.5354 188.375 10.9052 188.16 11.2317C187.882 11.6543 187.423 11.8848 186.954 11.8848C186.676 11.8848 186.398 11.8031 186.15 11.6351C185.733 11.3517 185.508 10.886 185.508 10.4154C185.508 10.1321 185.585 9.84874 185.752 9.59424C187.514 6.91957 186.8 3.29892 184.168 1.5078C184.493 2.30012 184.675 3.17407 184.675 4.08643C184.675 5.81032 184.029 7.53421 182.732 8.84994C181.531 10.0696 180.789 11.7551 180.789 13.6134C180.789 13.6519 180.789 13.6855 180.789 13.7191C180.846 17.3878 183.79 20.3457 187.418 20.3457L187.423 20.3505Z" fill="#828489"/>
<path d="M189.347 5.9976C189.242 5.37815 189.361 4.72029 189.73 4.15366C190.304 3.27971 190.074 2.09364 189.213 1.5078C189.213 1.9976 189.031 2.4874 188.662 2.85714C187.93 3.60144 187.93 4.81152 188.662 5.55582C188.854 5.7527 189.088 5.90156 189.347 5.9976Z" fill="#828489"/>
<path d="M164.128 40.4178L165.87 39.9328C166.291 39.8175 166.578 40.3553 166.243 40.6387C165.97 40.874 166.114 41.3253 166.473 41.3589L170.35 41.7143C170.671 41.7431 170.833 42.1225 170.632 42.377C170.245 42.8716 169.775 43.5006 169.914 43.5006C170.106 43.5006 176.476 43.8655 178.463 43.9808C178.745 43.9952 178.927 44.2929 178.812 44.5522L178.573 45.0948C178.424 45.431 178.759 45.7767 179.099 45.6423L180.205 45.1957C180.353 45.1381 180.526 45.1669 180.64 45.2821L183.029 47.5822C183.125 47.6783 183.263 47.7167 183.397 47.6879L188.634 46.5834C188.787 46.5498 188.94 46.6074 189.036 46.7275L189.888 47.8031C190.046 48 190.342 48.0096 190.51 47.8223L192.444 45.6567C192.558 45.527 192.745 45.4838 192.903 45.551L197.196 47.3229C197.464 47.4334 197.761 47.2365 197.761 46.9436V45.503C197.761 45.2773 197.943 45.0948 198.168 45.0948H203.907C204.271 45.0948 204.452 44.6579 204.199 44.3986L202.997 43.1645C202.744 42.9052 202.926 42.4682 203.289 42.4682H207.851C208.143 42.4682 208.339 42.1705 208.229 41.8968L208.08 41.551C207.966 41.2821 208.162 40.9796 208.459 40.9796H209.593C209.861 40.9796 210.057 40.7203 209.985 40.461C209.445 38.4874 207.257 31.4622 203.06 29.551C199.149 27.7743 203.696 29.527 205.692 30.3049C206.022 30.4346 206.348 30.108 206.219 29.7767C205.472 27.8559 203.438 23.2797 200.499 21.6711C197.929 20.2641 199.858 20.97 201.337 21.5558C201.719 21.7095 202.059 21.2581 201.81 20.9268C200.791 19.5726 198.79 17.2773 195.871 15.4382C195.574 15.2509 195.267 15.0684 194.952 14.8956C194.348 18.5594 191.204 21.3589 187.423 21.3589C183.383 21.3589 180.066 18.1561 179.808 14.1273C179.477 14.2713 179.157 14.4202 178.841 14.5786C174.935 16.5138 171.891 19.3998 170.422 20.946C170.134 21.2485 170.431 21.7335 170.828 21.623C172.154 21.2437 173.887 20.7587 173.293 20.9892C169.551 22.4682 167.382 27.6975 166.688 29.6519C166.578 29.964 166.865 30.2713 167.186 30.1801C168.416 29.8247 170.685 29.1765 170.087 29.4406C165.224 31.5918 163.912 37.9448 163.616 39.9616C163.572 40.2545 163.845 40.4946 164.128 40.4178ZM195.363 43.1501C195.325 43.2845 195.138 43.3085 195.066 43.1885C194.545 42.3289 193.597 41.8968 192.707 41.5174C192.836 42.0456 192.898 42.593 192.889 43.1453C192.889 43.3085 192.668 43.3661 192.587 43.2269C192.113 42.4346 191.343 41.8776 190.448 41.6759C190.242 41.6279 190.333 41.3157 190.534 41.3637C191.328 41.5414 192.032 41.988 192.544 42.6122C192.42 40.7875 191.486 39.0492 189.993 37.9784C189.825 37.8583 189.988 37.575 190.156 37.6999C191.352 38.5594 192.209 39.8127 192.616 41.2101C192.659 41.1861 192.712 41.1717 192.769 41.1957C193.631 41.5654 194.53 41.9736 195.124 42.7131C195.445 41.1285 194.952 39.4286 193.798 38.2905C193.65 38.1417 193.879 37.916 194.028 38.06C195.349 39.3661 195.875 41.3637 195.363 43.1501ZM197.407 28.6483C197.44 28.8163 197.192 28.9508 197.11 28.7731C196.675 27.8127 195.808 27.1164 194.779 26.9052C194.573 26.8619 194.66 26.5498 194.865 26.593C195.65 26.7515 196.359 27.1933 196.871 27.7983C196.679 27.1501 196.402 26.5306 195.938 26.0408C195.564 25.6471 195.09 25.3685 194.612 25.1188C194.114 24.8595 193.597 24.6579 193.061 24.4994C192.86 24.4418 192.946 24.1249 193.147 24.1873C193.721 24.3553 194.281 24.5762 194.808 24.8547C195.296 25.1092 195.78 25.407 196.163 25.8103C196.89 26.5786 197.211 27.6303 197.402 28.6483H197.407ZM193.43 19.8944C193.774 19.5534 194.095 19.1885 194.377 18.7947C194.593 18.5018 194.784 18.1849 194.961 17.8631C194.784 18.1849 194.593 18.497 194.377 18.7947C194.09 19.1885 193.774 19.5582 193.43 19.8944C191.874 21.4214 189.758 22.3625 187.427 22.3625C189.758 22.3625 191.879 21.4214 193.43 19.8944ZM177.606 26.401C177.917 25.8439 178.348 25.3926 178.855 25.0084C179.363 24.6291 179.937 24.1825 180.607 24.2977C180.813 24.3361 180.727 24.6483 180.521 24.6098C179.913 24.5042 179.229 25.0996 178.793 25.4646C178.386 25.8055 178.056 26.2281 177.807 26.7035C177.4 27.4862 177.237 28.3842 177.271 29.2677C177.458 29.018 177.73 28.8355 178.046 28.7635C178.247 28.7155 178.333 29.0276 178.132 29.0756C177.692 29.1765 177.391 29.5174 177.324 29.9688C177.3 30.1224 177.032 30.1224 177.012 29.9688C176.84 28.7539 176.998 27.4766 177.606 26.401Z" fill="#828489"/>
</g>
</svg>
