<svg width="248" height="248" viewBox="0 0 248 248" fill="none" xmlns="http://www.w3.org/2000/svg">
<g clip-path="url(#clip0_201_4894)">
<path d="M240.25 155C236.375 147.25 244.125 120.125 244.125 120.125C228.625 124 220.875 139.5 220.875 139.5C209.25 170.5 162.75 178.25 162.75 178.25V166.625C155 182.125 124 186 124 186C126.358 181.16 127.678 175.88 127.875 170.5L73.8769 174.123C54.5019 174.123 42.625 189.875 42.625 189.875C43.7668 186.594 44.0096 183.066 43.3282 179.659C42.6468 176.252 41.066 173.09 38.75 170.5C3.875 189.875 3.875 244.125 3.875 244.125C116.25 232.5 215.958 237.22 236.375 186C240.171 176.136 241.501 165.495 240.25 155Z" fill="#FF9901"/>
<path d="M3.875 248C2.84729 248 1.86166 247.592 1.13496 246.865C0.408258 246.138 0 245.153 0 244.125C0 241.8 0.418503 187.364 36.8706 167.113C37.6064 166.705 38.4551 166.547 39.2884 166.664C40.1217 166.781 40.8944 167.166 41.4896 167.76C44.5845 171.142 46.6143 175.361 47.3254 179.889C54.8413 173.78 64.1964 170.383 73.8808 170.244L127.615 166.625C128.146 166.589 128.678 166.663 129.178 166.842C129.679 167.021 130.137 167.301 130.525 167.664C130.913 168.027 131.222 168.467 131.432 168.955C131.643 169.443 131.751 169.969 131.75 170.5C131.643 174.045 131.082 177.561 130.08 180.963C140.046 178.75 154.861 173.724 159.282 164.877C159.672 164.094 160.316 163.466 161.109 163.096C161.901 162.725 162.796 162.634 163.647 162.836C164.498 163.039 165.256 163.523 165.797 164.211C166.337 164.899 166.629 165.75 166.625 166.625V173.453C178.196 170.64 208.603 161.188 217.244 138.14C217.294 138.012 217.345 137.888 217.407 137.752C217.756 137.055 226.149 120.609 243.183 116.351C243.842 116.189 244.532 116.203 245.183 116.392C245.835 116.58 246.426 116.937 246.896 117.425C247.367 117.913 247.701 118.517 247.866 119.175C248.03 119.833 248.019 120.523 247.833 121.175C244.307 133.529 241.723 149.304 243.699 153.252C243.91 153.675 244.042 154.134 244.086 154.605C245.377 165.717 243.96 176.977 239.956 187.422C222.704 230.706 154.938 235.86 69.1416 242.412C48.2166 244.009 26.5437 245.66 4.25475 247.965C4.1385 248 4.00675 248 3.875 248ZM37.7386 175.634C13.3261 191.638 8.77688 227.435 7.93988 239.816C28.7564 237.731 48.9761 236.193 68.5681 234.697C151.671 228.362 217.314 223.355 232.775 184.566C236.247 175.465 237.506 165.668 236.449 155.984C233.825 149.331 236.348 135.489 238.46 126.534C232.596 130.083 227.757 135.096 224.417 141.081C212.017 173.604 165.373 181.73 163.385 182.063C162.831 182.155 162.264 182.126 161.722 181.977C161.18 181.828 160.677 181.563 160.248 181.2C159.819 180.837 159.474 180.385 159.237 179.876C159 179.367 158.876 178.812 158.875 178.25V177.037C146.312 186.996 125.55 189.712 124.48 189.848C123.784 189.939 123.076 189.838 122.434 189.554C121.792 189.27 121.24 188.816 120.838 188.24C120.433 187.667 120.191 186.995 120.137 186.296C120.084 185.596 120.222 184.895 120.536 184.268C122.015 181.237 123.037 178.004 123.57 174.673L74.1404 177.987C68.6735 178.237 63.32 179.632 58.4255 182.08C53.531 184.528 49.2044 187.976 45.725 192.2C45.1695 192.93 44.3733 193.439 43.4778 193.637C42.5824 193.834 41.6458 193.708 40.8346 193.281C40.0234 192.853 39.3902 192.151 39.0475 191.301C38.7048 190.45 38.6749 189.506 38.9631 188.635C39.7109 186.508 39.9887 184.245 39.7773 182C39.5659 179.756 38.8704 177.584 37.7386 175.634Z" fill="#FF9901"/>
<path d="M131.75 168.272C121.777 174.496 110.319 177.937 98.5671 178.239C86.815 178.541 75.1961 175.693 64.9162 169.989C54.6363 164.286 46.0699 155.935 40.1061 145.804C34.1422 135.673 30.9981 124.131 31 112.375C31 75.9926 60.4926 3.875 96.875 3.875C107.021 4.3577 116.653 8.48549 124 15.5C126.887 19.1929 178.827 87.4549 151.125 143.375C146.366 152.867 139.782 161.327 131.75 168.272Z" fill="#2290D3"/>
<path d="M96.875 7.75C63.5732 7.75 34.875 77.9224 34.875 112.375C34.8734 123.412 37.8181 134.25 43.405 143.768C48.992 153.287 57.0186 161.142 66.6559 166.521C76.2933 171.901 87.192 174.61 98.2265 174.369C109.261 174.129 120.031 170.947 129.425 165.152C136.958 158.573 143.144 150.594 147.637 141.658C173.987 88.5089 125.201 23.4011 121.144 18.1389C114.539 11.9121 105.939 8.23079 96.875 7.75ZM161.2 87.2262C157.344 68.338 150.364 50.2255 140.546 33.635C136.497 26.5067 131.993 19.6466 127.061 13.0975C126.906 12.9425 126.79 12.7875 126.635 12.6325C118.578 4.94842 108 0.458317 96.875 0C57.2725 0 27.125 74.9037 27.125 112.375C27.1246 123.485 29.7783 134.435 34.8652 144.312C39.952 154.19 47.3248 162.709 56.3697 169.161C65.4146 175.613 75.8699 179.811 86.8651 181.405C97.8604 183 109.077 181.945 119.583 178.327C124.562 176.607 129.332 174.332 133.804 171.546C133.978 171.439 134.146 171.323 134.308 171.197C142.716 163.901 149.614 155.028 154.613 145.08C163.07 127.033 165.384 106.713 161.2 87.2262Z" fill="#2290D3"/>
<path d="M154.613 145.08C149.615 155.028 142.716 163.901 134.308 171.197C134.146 171.323 133.978 171.439 133.804 171.546C129.332 174.332 124.562 176.606 119.583 178.327C109.637 181.758 99.0417 182.886 88.5967 181.624C78.1518 180.362 68.1299 176.743 59.2876 171.042C119.815 167.942 148.451 120.667 161.2 87.2261C165.384 106.712 163.07 127.033 154.613 145.08Z" fill="#055177"/>
<path d="M96.8749 143.375C96.0147 143.375 95.179 143.088 94.4995 142.561L59.6245 115.436C58.8131 114.805 58.2859 113.877 58.1587 112.856C58.0315 111.836 58.3149 110.807 58.9464 109.996C59.5779 109.184 60.5059 108.657 61.5262 108.53C62.5465 108.403 63.5755 108.686 64.3869 109.317L99.2619 136.442C99.8993 136.939 100.366 137.622 100.596 138.396C100.826 139.171 100.808 139.998 100.545 140.761C100.282 141.525 99.7869 142.188 99.1288 142.656C98.4708 143.125 97.6827 143.376 96.8749 143.375Z" fill="#49AFE2"/>
<path d="M96.8749 112.375C96.0147 112.375 95.179 112.088 94.4995 111.561L59.6245 84.4361C58.8131 83.8046 58.2859 82.8766 58.1587 81.8563C58.0315 80.836 58.3149 79.807 58.9464 78.9956C59.5779 78.1842 60.5059 77.657 61.5262 77.5298C62.5465 77.4026 63.5755 77.686 64.3869 78.3175L99.2619 105.442C99.8993 105.939 100.366 106.622 100.596 107.396C100.826 108.171 100.808 108.998 100.545 109.761C100.282 110.525 99.7869 111.188 99.1288 111.656C98.4708 112.125 97.6827 112.376 96.8749 112.375Z" fill="#49AFE2"/>
<path d="M96.875 219.589C95.8473 219.589 94.8617 219.18 94.135 218.454C93.4083 217.727 93 216.741 93 215.714V42.625C93 41.5973 93.4083 40.6117 94.135 39.885C94.8617 39.1583 95.8473 38.75 96.875 38.75C97.9027 38.75 98.8883 39.1583 99.615 39.885C100.342 40.6117 100.75 41.5973 100.75 42.625V215.714C100.75 216.741 100.342 217.727 99.615 218.454C98.8883 219.18 97.9027 219.589 96.875 219.589Z" fill="#49AFE2"/>
<path d="M120.125 31C120.125 31 136.431 23.25 139.5 11.625C142.079 13.2597 144.164 15.5667 145.529 18.2979C146.895 21.029 147.49 24.0809 147.25 27.125C147.25 27.125 158.391 7.75 170.5 3.875C173.923 8.93945 176.064 14.7596 176.739 20.8346C177.414 26.9097 176.603 33.0578 174.375 38.75C174.375 38.75 217 42.625 232.5 11.625C232.5 11.625 244.125 50.375 213.125 73.625C207.017 84.0151 197.526 91.9931 186.241 96.2251C174.956 100.457 162.559 100.687 151.125 96.875C138.506 91.9524 128.256 82.3759 122.488 70.1197C116.72 57.8634 115.875 43.8614 120.125 31Z" fill="#F26522"/>
<path d="M167.741 103.633C161.632 103.643 155.567 102.594 149.815 100.533C137.437 95.7621 127.13 86.7915 120.697 75.19C114.263 63.5885 112.113 50.0946 114.623 37.0682C115.069 34.6284 116.015 32.3073 117.401 30.2507C118.788 28.1941 120.584 26.4465 122.679 25.1177C127.608 21.9829 134.168 16.6509 135.757 10.6369C135.904 10.0801 136.173 9.56307 136.545 9.12346C136.917 8.68386 137.383 8.33271 137.907 8.09554C138.432 7.85838 139.003 7.74118 139.579 7.75246C140.155 7.76373 140.721 7.90321 141.236 8.16074C144.815 10.2353 147.609 13.4318 149.188 17.2554C153.919 10.9352 161.289 2.75511 169.338 0.182111C170.102 -0.0588791 170.923 -0.0567303 171.686 0.188261C172.45 0.433252 173.118 0.909022 173.6 1.54999C176.911 6.38542 179.163 11.8656 180.21 17.6318C181.256 23.398 181.073 29.3201 179.672 35.0106C190.848 34.875 217.915 32.1315 229.032 9.89286C229.366 9.18601 229.911 8.60021 230.592 8.21636C231.272 7.83251 232.056 7.66955 232.833 7.74999C233.607 7.81664 234.343 8.1142 234.945 8.60409C235.548 9.09397 235.989 9.75357 236.212 10.4974C236.332 10.9081 248.085 51.615 216.062 76.2561C197.625 93 186.725 103.633 167.741 103.633ZM123.357 33.6931C116.308 58.3846 129.103 84.8431 152.419 93.2286C163.008 96.7817 174.499 96.5724 184.951 92.6359C195.404 88.6995 204.178 81.277 209.793 71.6216C210.054 71.194 210.396 70.8215 210.8 70.525C218.093 64.9006 223.759 57.4376 227.217 48.9013C230.675 40.365 231.8 31.0625 230.477 21.948C211.416 45.6862 175.696 42.7606 174.022 42.625C173.421 42.5705 172.841 42.3762 172.328 42.0576C171.815 41.739 171.383 41.3049 171.068 40.7899C170.752 40.2749 170.561 39.6934 170.511 39.0916C170.46 38.4898 170.55 37.8845 170.775 37.324C172.591 32.7213 173.369 27.7747 173.053 22.8369C172.738 17.8991 171.337 13.0917 168.95 8.75749C161.068 13.0897 153.21 24.5442 150.606 29.0625C150.179 29.8012 149.521 30.3785 148.733 30.7049C147.945 31.0313 147.071 31.0885 146.247 30.8678C145.423 30.647 144.695 30.1605 144.176 29.4838C143.657 28.8071 143.375 27.978 143.375 27.125C143.479 23.9531 142.609 20.8254 140.883 18.1621C136.43 24.7216 130.404 30.061 123.357 33.6931Z" fill="#F26522"/>
<path d="M15.5 155C14.4723 155 13.4867 154.592 12.76 153.865C12.0333 153.138 11.625 152.153 11.625 151.125V147.25C11.625 146.222 12.0333 145.237 12.76 144.51C13.4867 143.783 14.4723 143.375 15.5 143.375C16.5277 143.375 17.5133 143.783 18.24 144.51C18.9667 145.237 19.375 146.222 19.375 147.25V151.125C19.375 152.153 18.9667 153.138 18.24 153.865C17.5133 154.592 16.5277 155 15.5 155Z" fill="#FF9901"/>
<path d="M139.5 50.375C138.472 50.375 137.487 49.9667 136.76 49.24C136.033 48.5133 135.625 47.5277 135.625 46.5V42.625C135.625 41.5973 136.033 40.6117 136.76 39.885C137.487 39.1583 138.472 38.75 139.5 38.75C140.528 38.75 141.513 39.1583 142.24 39.885C142.967 40.6117 143.375 41.5973 143.375 42.625V46.5C143.375 47.5277 142.967 48.5133 142.24 49.24C141.513 49.9667 140.528 50.375 139.5 50.375Z" fill="#F9C87A"/>
<path d="M205.375 15.5C204.347 15.5 203.362 15.0917 202.635 14.365C201.908 13.6383 201.5 12.6527 201.5 11.625V7.75C201.5 6.72229 201.908 5.73666 202.635 5.00996C203.362 4.28326 204.347 3.875 205.375 3.875C206.403 3.875 207.388 4.28326 208.115 5.00996C208.842 5.73666 209.25 6.72229 209.25 7.75V11.625C209.25 12.6527 208.842 13.6383 208.115 14.365C207.388 15.0917 206.403 15.5 205.375 15.5Z" fill="#F9C87A"/>
<path d="M213.125 54.25C212.097 54.25 211.112 53.8417 210.385 53.115C209.658 52.3883 209.25 51.4027 209.25 50.375V46.5C209.25 45.4723 209.658 44.4867 210.385 43.76C211.112 43.0333 212.097 42.625 213.125 42.625C214.153 42.625 215.138 43.0333 215.865 43.76C216.592 44.4867 217 45.4723 217 46.5V50.375C217 51.4027 216.592 52.3883 215.865 53.115C215.138 53.8417 214.153 54.25 213.125 54.25Z" fill="#FF9901"/>
<path d="M228.625 96.875C227.597 96.875 226.612 96.4667 225.885 95.74C225.158 95.0133 224.75 94.0277 224.75 93V89.125C224.75 88.0973 225.158 87.1117 225.885 86.385C226.612 85.6583 227.597 85.25 228.625 85.25C229.653 85.25 230.638 85.6583 231.365 86.385C232.092 87.1117 232.5 88.0973 232.5 89.125V93C232.5 94.0277 232.092 95.0133 231.365 95.74C230.638 96.4667 229.653 96.875 228.625 96.875Z" fill="#F9C87A"/>
<path d="M236.375 81.375C235.347 81.375 234.362 80.9667 233.635 80.24C232.908 79.5133 232.5 78.5277 232.5 77.5V73.625C232.5 72.5973 232.908 71.6117 233.635 70.885C234.362 70.1583 235.347 69.75 236.375 69.75C237.403 69.75 238.388 70.1583 239.115 70.885C239.842 71.6117 240.25 72.5973 240.25 73.625V77.5C240.25 78.5277 239.842 79.5133 239.115 80.24C238.388 80.9667 237.403 81.375 236.375 81.375Z" fill="#F9C87A"/>
<path d="M151.125 201.5C150.097 201.5 149.112 201.092 148.385 200.365C147.658 199.638 147.25 198.653 147.25 197.625V193.75C147.25 192.722 147.658 191.737 148.385 191.01C149.112 190.283 150.097 189.875 151.125 189.875C152.153 189.875 153.138 190.283 153.865 191.01C154.592 191.737 155 192.722 155 193.75V197.625C155 198.653 154.592 199.638 153.865 200.365C153.138 201.092 152.153 201.5 151.125 201.5Z" fill="#F26522"/>
<path d="M213.125 112.375C213.125 122.338 210.171 132.078 204.635 140.362C199.1 148.646 191.233 155.103 182.028 158.915C172.823 162.728 162.694 163.726 152.922 161.782C143.151 159.838 134.175 155.041 127.13 147.995C120.084 140.95 115.287 131.974 113.343 122.203C111.399 112.431 112.397 102.302 116.21 93.0973C120.022 83.8925 126.479 76.025 134.763 70.4897C143.047 64.9544 152.787 62 162.75 62C170.183 62.4417 177.45 64.3865 184.11 67.7167C190.771 71.0469 196.687 75.6933 201.5 81.375C208.568 90.2121 212.639 101.07 213.125 112.375Z" fill="#146FB4"/>
<path d="M162.75 166.625C148.362 166.625 134.563 160.909 124.389 150.736C114.216 140.562 108.5 126.763 108.5 112.375C108.5 97.987 114.216 84.1883 124.389 74.0145C134.563 63.8406 148.362 58.125 162.75 58.125C170.759 58.5738 178.592 60.65 185.771 64.2271C192.951 67.8041 199.326 72.8069 204.507 78.9299C212.094 88.4164 216.469 100.069 217 112.204V112.375C216.984 126.758 211.263 140.547 201.092 150.717C190.922 160.888 177.133 166.609 162.75 166.625ZM162.537 65.875C153.353 65.9171 144.387 68.6779 136.77 73.8091C129.153 78.9404 123.226 86.2123 119.737 94.7077C116.248 103.203 115.352 112.542 117.163 121.545C118.975 130.549 123.412 138.815 129.915 145.3C136.418 151.785 144.696 156.2 153.704 157.986C162.713 159.773 172.049 158.852 180.535 155.339C189.021 151.827 196.276 145.88 201.387 138.249C206.497 130.618 209.233 121.644 209.25 112.46C208.781 102.017 205.015 91.9902 198.493 83.8201C194.026 78.5513 188.536 74.2441 182.356 71.1595C176.175 68.0749 169.433 66.2771 162.537 65.875Z" fill="#146FB4"/>
<path d="M162.75 218.876C161.722 218.876 160.737 218.467 160.01 217.741C159.283 217.014 158.875 216.028 158.875 215.001V89.125C158.875 88.0973 159.283 87.1117 160.01 86.385C160.737 85.6583 161.722 85.25 162.75 85.25C163.778 85.25 164.763 85.6583 165.49 86.385C166.217 87.1117 166.625 88.0973 166.625 89.125V215.001C166.625 216.028 166.217 217.014 165.49 217.741C164.763 218.467 163.778 218.876 162.75 218.876Z" fill="#2290D3"/>
<path d="M162.75 139.5C161.842 139.501 160.963 139.182 160.266 138.601L137.016 119.226C136.625 118.9 136.303 118.5 136.066 118.05C135.83 117.599 135.685 117.106 135.639 116.599C135.593 116.093 135.647 115.582 135.799 115.096C135.95 114.61 136.196 114.159 136.522 113.768C136.848 113.377 137.248 113.055 137.698 112.818C138.149 112.582 138.642 112.437 139.149 112.391C139.656 112.345 140.167 112.399 140.652 112.551C141.138 112.702 141.589 112.948 141.98 113.274L162.75 130.588L183.516 113.282C183.907 112.956 184.358 112.71 184.844 112.559C185.33 112.407 185.841 112.353 186.348 112.399C186.854 112.444 187.347 112.59 187.798 112.826C188.249 113.062 188.648 113.385 188.974 113.776C189.3 114.167 189.546 114.618 189.697 115.104C189.849 115.59 189.903 116.1 189.858 116.607C189.812 117.114 189.666 117.607 189.43 118.058C189.194 118.508 188.871 118.908 188.48 119.234L165.23 138.609C164.533 139.187 163.656 139.502 162.75 139.5Z" fill="#2290D3"/>
<path d="M162.75 112.375C161.842 112.376 160.963 112.057 160.266 111.476L137.016 92.1011C136.625 91.7752 136.303 91.3755 136.066 90.9248C135.83 90.4741 135.685 89.9813 135.639 89.4745C135.593 88.9677 135.647 88.4568 135.799 87.971C135.95 87.4852 136.196 87.034 136.522 86.6432C136.848 86.2524 137.248 85.9296 137.698 85.6933C138.149 85.4569 138.642 85.3117 139.149 85.2658C139.656 85.2199 140.167 85.2743 140.652 85.4259C141.138 85.5774 141.589 85.8232 141.98 86.1491L162.75 103.463L183.516 86.1569C183.907 85.8309 184.358 85.5852 184.844 85.4336C185.33 85.2821 185.841 85.2277 186.348 85.2735C186.854 85.3194 187.347 85.4647 187.798 85.701C188.249 85.9373 188.648 86.2601 188.974 86.6509C189.3 87.0418 189.546 87.4929 189.697 87.9787C189.849 88.4645 189.903 88.9754 189.858 89.4822C189.812 89.989 189.666 90.4819 189.43 90.9325C189.194 91.3832 188.871 91.7829 188.48 92.1089L165.23 111.484C164.533 112.062 163.656 112.377 162.75 112.375Z" fill="#2290D3"/>
<path d="M11.625 244.125C11.625 244.125 38.75 205.375 73.625 197.625C75.8109 201.108 76.9704 205.137 76.9704 209.25C76.9704 213.362 75.8109 217.391 73.625 220.875C65.875 232.5 135.625 197.625 135.625 197.625C135.625 197.625 139.5 213.125 131.75 220.875C131.75 220.875 174.375 220.875 189.875 193.75C205.375 166.625 224.75 174.375 224.75 174.375C224.75 174.375 213.125 186 217 197.625C220.875 209.25 217 213.125 217 213.125C217 213.125 240.25 208.603 244.125 197.625C244.125 197.625 244.125 232.5 228.625 244.125" fill="#F9C87A"/>
<path d="M228.625 248C227.812 248 227.019 247.744 226.359 247.269C225.699 246.793 225.206 246.122 224.949 245.351C224.692 244.579 224.684 243.746 224.926 242.97C225.169 242.193 225.649 241.513 226.3 241.025C234.527 234.852 238.134 219.856 239.51 208.51C232.804 212.575 225.433 215.424 217.736 216.926C216.922 217.085 216.079 216.978 215.33 216.622C214.581 216.266 213.967 215.679 213.576 214.947C213.186 214.215 213.041 213.378 213.162 212.557C213.283 211.737 213.664 210.977 214.249 210.389C214.202 210.389 216.136 207.289 213.323 198.85C212.357 195.155 212.238 191.29 212.976 187.543C213.714 183.796 215.29 180.264 217.585 177.212C211.606 177.405 201.926 180.478 193.242 195.672C176.812 224.421 133.583 224.75 131.75 224.75C130.984 224.75 130.235 224.523 129.598 224.097C128.96 223.671 128.464 223.066 128.171 222.358C127.877 221.65 127.801 220.871 127.95 220.119C128.1 219.368 128.469 218.677 129.01 218.135C132.552 214.594 132.978 208.227 132.606 203.453C75.7291 231.59 72.2106 227.583 70.3002 225.409C69.5146 224.467 69.0927 223.274 69.1112 222.048C69.1297 220.822 69.5873 219.642 70.401 218.725C71.9895 216.284 72.933 213.481 73.143 210.577C73.3531 207.673 72.823 204.763 71.6022 202.12C39.9822 210.87 15.0543 245.985 14.7986 246.349C14.2092 247.192 13.3094 247.765 12.2971 247.944C11.2848 248.123 10.2429 247.892 9.40071 247.303C8.5585 246.713 7.98492 245.813 7.80615 244.801C7.62738 243.789 7.85807 242.747 8.44746 241.905C9.59058 240.273 36.8512 201.83 72.7725 193.855C73.5355 193.685 74.332 193.75 75.0575 194.041C75.783 194.332 76.4034 194.836 76.8373 195.486C78.9594 198.867 80.2835 202.686 80.7092 206.655C81.1348 210.624 80.6509 214.637 79.2941 218.391C97.956 211.413 116.184 203.326 133.881 194.173C134.4 193.913 134.971 193.774 135.551 193.765C136.131 193.755 136.706 193.876 137.233 194.119C137.76 194.361 138.225 194.719 138.596 195.166C138.966 195.612 139.231 196.136 139.372 196.699C140.92 203.243 140.741 210.077 138.853 216.531C151.129 215.21 175.971 210.265 186.515 191.844C203.496 162.13 225.971 170.706 226.191 170.791C226.787 171.029 227.315 171.411 227.726 171.903C228.138 172.395 228.421 172.981 228.55 173.61C228.679 174.238 228.65 174.889 228.466 175.503C228.281 176.118 227.947 176.677 227.493 177.13C227.404 177.223 217.62 187.236 220.677 196.416C221.991 200.039 222.638 203.87 222.588 207.723C230.156 205.398 238.719 201.318 240.471 196.35C240.775 195.489 241.373 194.763 242.16 194.3C242.947 193.837 243.872 193.667 244.772 193.819C245.672 193.972 246.49 194.437 247.08 195.133C247.671 195.83 247.997 196.712 248 197.625C248 199.129 247.806 234.585 230.95 247.225C230.28 247.73 229.464 248.003 228.625 248Z" fill="#F9C87A"/>
<path d="M178.25 73.625C178.25 73.625 178.25 58.125 197.625 54.25C197.625 54.25 205.375 65.875 197.625 85.25H209.25C209.25 85.25 213.125 96.875 205.375 104.625C198.087 103.132 191.49 99.2923 186.591 93.6939C181.692 88.0955 178.763 81.0464 178.25 73.625Z" fill="#FCC670"/>
<path d="M205.375 108.5C205.115 108.499 204.855 108.472 204.6 108.419C196.483 106.759 189.133 102.485 183.674 96.252C178.216 90.0189 174.95 82.1693 174.375 73.904C174.375 73.811 174.375 73.718 174.375 73.625C174.375 67.1654 179.075 54.0098 196.85 50.4525C197.603 50.3021 198.383 50.3787 199.093 50.6726C199.802 50.9665 200.408 51.4645 200.833 52.1033C201.163 52.5993 208.196 63.4919 203.038 81.3789H209.25C210.063 81.3795 210.855 81.6358 211.514 82.1115C212.174 82.5871 212.667 83.2581 212.924 84.0294C213.113 84.5951 217.45 98.0336 208.115 107.369C207.387 108.094 206.402 108.501 205.375 108.5ZM182.125 73.5243C182.581 79.6879 184.922 85.562 188.83 90.3498C192.739 95.1377 198.025 98.6076 203.972 100.289C206.045 96.9616 206.813 92.9847 206.127 89.125H197.625C196.991 89.1255 196.367 88.9706 195.807 88.6738C195.247 88.377 194.769 87.9474 194.413 87.4226C194.058 86.8979 193.837 86.294 193.769 85.6639C193.702 85.0338 193.789 84.3968 194.025 83.8085C197.704 75.9566 198.24 66.9952 195.525 58.7605C192.015 59.4836 188.825 61.3033 186.417 63.9569C184.008 66.6106 182.506 69.9609 182.125 73.5243Z" fill="#FCC670"/>
<path d="M89.1248 248C88.1545 247.996 87.2208 247.629 86.5083 246.97C85.7959 246.311 85.3565 245.409 85.2772 244.442C85.1978 243.475 85.4841 242.513 86.0796 241.747C86.6751 240.981 87.5364 240.466 88.4932 240.304C108.07 237.042 108.496 221.51 108.504 220.852C108.51 219.829 108.92 218.85 109.645 218.128C110.371 217.407 111.352 217.001 112.375 217H112.402C113.425 217.007 114.404 217.419 115.124 218.145C115.845 218.87 116.25 219.852 116.25 220.875C116.25 228.71 110.712 244.454 89.7603 247.946C89.5503 247.981 89.3378 247.999 89.1248 248Z" fill="#FF9901"/>
<path d="M162.75 248C161.791 248.001 160.865 247.646 160.152 247.004C159.439 246.362 158.99 245.478 158.891 244.524C158.792 243.57 159.051 242.613 159.617 241.838C160.183 241.064 161.016 240.527 161.956 240.331C177.134 237.134 178.231 221.344 178.258 220.666C178.309 219.638 178.767 218.673 179.53 217.982C180.293 217.292 181.299 216.933 182.327 216.984C183.354 217.036 184.319 217.493 185.01 218.256C185.7 219.019 186.059 220.025 186.008 221.053C185.705 227.364 183.348 233.403 179.295 238.25C175.243 243.097 169.717 246.487 163.56 247.903C163.294 247.964 163.023 247.996 162.75 248Z" fill="#FF9901"/>
<path d="M65.875 155H62C60.9723 155 59.9867 154.592 59.26 153.865C58.5333 153.138 58.125 152.153 58.125 151.125C58.125 150.097 58.5333 149.112 59.26 148.385C59.9867 147.658 60.9723 147.25 62 147.25H65.875C66.9027 147.25 67.8883 147.658 68.615 148.385C69.3417 149.112 69.75 150.097 69.75 151.125C69.75 152.153 69.3417 153.138 68.615 153.865C67.8883 154.592 66.9027 155 65.875 155Z" fill="#146FB4"/>
<path d="M81.375 155H77.5C76.4723 155 75.4867 154.592 74.76 153.865C74.0333 153.138 73.625 152.153 73.625 151.125C73.625 150.097 74.0333 149.112 74.76 148.385C75.4867 147.658 76.4723 147.25 77.5 147.25H81.375C82.4027 147.25 83.3883 147.658 84.115 148.385C84.8417 149.112 85.25 150.097 85.25 151.125C85.25 152.153 84.8417 153.138 84.115 153.865C83.3883 154.592 82.4027 155 81.375 155Z" fill="#146FB4"/>
<path d="M244.125 248H3.875C2.84729 248 1.86166 247.592 1.13496 246.865C0.408258 246.138 0 245.153 0 244.125C0 243.097 0.408258 242.112 1.13496 241.385C1.86166 240.658 2.84729 240.25 3.875 240.25H244.125C245.153 240.25 246.138 240.658 246.865 241.385C247.592 242.112 248 243.097 248 244.125C248 245.153 247.592 246.138 246.865 246.865C246.138 247.592 245.153 248 244.125 248Z" fill="#FF9901"/>
<path d="M240.25 182.125C239.222 182.125 238.237 181.717 237.51 180.99C236.783 180.263 236.375 179.278 236.375 178.25V174.375C236.375 173.347 236.783 172.362 237.51 171.635C238.237 170.908 239.222 170.5 240.25 170.5C241.278 170.5 242.263 170.908 242.99 171.635C243.717 172.362 244.125 173.347 244.125 174.375V178.25C244.125 179.278 243.717 180.263 242.99 180.99C242.263 181.717 241.278 182.125 240.25 182.125Z" fill="#F26522"/>
<path d="M197.625 224.75C196.597 224.75 195.612 224.342 194.885 223.615C194.158 222.888 193.75 221.903 193.75 220.875V217C193.75 215.972 194.158 214.987 194.885 214.26C195.612 213.533 196.597 213.125 197.625 213.125C198.653 213.125 199.638 213.533 200.365 214.26C201.092 214.987 201.5 215.972 201.5 217V220.875C201.5 221.903 201.092 222.888 200.365 223.615C199.638 224.342 198.653 224.75 197.625 224.75Z" fill="#F26522"/>
<path d="M96.8752 81.3752C95.9949 81.3756 95.1408 81.0763 94.4533 80.5265L75.0783 65.0265C74.6809 64.7085 74.35 64.3153 74.1045 63.8694C73.859 63.4234 73.7038 62.9335 73.6477 62.4276C73.5915 61.9217 73.6356 61.4097 73.7773 60.9208C73.9191 60.4319 74.1557 59.9757 74.4738 59.5783C74.7918 59.1809 75.185 58.85 75.631 58.6045C76.0769 58.359 76.5668 58.2038 77.0727 58.1477C77.5786 58.0915 78.0907 58.1356 78.5795 58.2773C79.0684 58.4191 79.5246 58.6557 79.922 58.9738L96.8752 72.5363L113.828 58.9738C114.226 58.6557 114.682 58.4191 115.171 58.2773C115.66 58.1356 116.172 58.0915 116.678 58.1477C117.184 58.2038 117.673 58.359 118.119 58.6045C118.565 58.85 118.958 59.1809 119.277 59.5783C119.595 59.9757 119.831 60.4319 119.973 60.9208C120.115 61.4097 120.159 61.9217 120.103 62.4276C120.047 62.9335 119.891 63.4234 119.646 63.8694C119.4 64.3153 119.069 64.7085 118.672 65.0265L99.297 80.5265C98.6096 81.0763 97.7554 81.3756 96.8752 81.3752Z" fill="#49AFE2"/>
</g>
<defs>
<clipPath id="clip0_201_4894">
<rect width="248" height="248" fill="white"/>
</clipPath>
</defs>
</svg>
