<svg width="232" height="260" viewBox="0 0 232 260" fill="none" xmlns="http://www.w3.org/2000/svg">
<path d="M128.011 62.126L86.1414 0L44.3371 67.5662H60.2064L19.4758 128.008H33.9024L-0.000137329 177.65H163.021L131.282 123.928H145.709L110.699 62.126H128.011Z" fill="#2290D3"/>
<rect x="82.8428" y="41.2778" width="5.43631" height="191.722" rx="2.71815" fill="#49AFE2"/>
<rect width="5.33877" height="34.3488" rx="2.66939" transform="matrix(0.660379 0.750932 -0.763345 0.645991 109.09 123.02)" fill="#49AFE2"/>
<rect width="5.65107" height="29.9565" rx="2.82553" transform="matrix(0.662406 -0.749146 0.761607 0.648039 60.3174 121.374)" fill="#49AFE2"/>
<rect width="6.13841" height="16.0817" rx="3.0692" transform="matrix(0.662406 -0.749146 0.761607 0.648039 71.0986 64.9795)" fill="#49AFE2"/>
<rect width="5.51124" height="16.0817" rx="2.75562" transform="matrix(-0.662406 -0.749146 -0.761607 0.648039 99.2617 61.4238)" fill="#49AFE2"/>
<path d="M101.005 44.4758C101.005 44.4758 112.901 38.8217 115.14 30.3406C117.022 31.5332 118.542 33.2163 119.539 35.2089C120.535 37.2014 120.969 39.4279 120.794 41.6488C120.794 41.6488 128.922 27.5136 137.756 24.6865C140.253 28.3813 141.815 32.6275 142.308 37.0596C142.8 41.4917 142.208 45.9771 140.583 50.1299C140.583 50.1299 171.681 52.957 182.989 30.3406C182.989 30.3406 191.47 58.6111 168.854 75.5733C164.397 83.1535 157.473 88.974 149.24 92.0615C141.007 95.149 131.963 95.3163 123.621 92.5356C114.414 88.9442 106.937 81.9576 102.729 73.016C98.5208 64.0743 97.9038 53.859 101.005 44.4758Z" fill="#F26522"/>
<path d="M135.743 97.4661C131.286 97.4731 126.861 96.7079 122.665 95.2045C113.635 91.7238 106.115 85.1792 101.421 76.7153C96.7279 68.2513 95.1593 58.4067 96.99 48.9032C97.3155 47.1232 98.0056 45.4298 99.0171 43.9293C100.029 42.4289 101.339 41.154 102.867 40.1846C106.463 37.8975 111.25 34.0075 112.409 29.6199C112.516 29.2137 112.713 28.8365 112.984 28.5158C113.255 28.1951 113.595 27.9389 113.978 27.7659C114.361 27.5928 114.777 27.5073 115.197 27.5156C115.617 27.5238 116.03 27.6255 116.406 27.8134C119.017 29.3269 121.056 31.659 122.207 34.4485C125.659 29.8376 131.036 23.8697 136.908 21.9925C137.466 21.8167 138.064 21.8183 138.621 21.997C139.178 22.1758 139.666 22.5229 140.018 22.9905C142.433 26.5182 144.076 30.5163 144.84 34.7231C145.603 38.9299 145.47 43.2505 144.448 47.402C152.601 47.3031 172.348 45.3015 180.458 29.0771C180.702 28.5614 181.099 28.134 181.596 27.854C182.093 27.574 182.665 27.4551 183.232 27.5138C183.796 27.5624 184.333 27.7795 184.773 28.1369C185.212 28.4943 185.534 28.9755 185.697 29.5181C185.785 29.8178 194.359 59.5159 170.996 77.4931C157.545 89.7087 149.593 97.4661 135.743 97.4661ZM103.362 46.4408C98.2197 64.4547 107.555 83.7578 124.565 89.8755C132.29 92.4677 140.673 92.315 148.299 89.4431C155.925 86.5712 162.326 81.1561 166.422 74.1119C166.613 73.8 166.862 73.5282 167.157 73.3119C172.478 69.2086 176.612 63.7639 179.135 57.5361C181.657 51.3083 182.478 44.5217 181.513 37.872C167.607 55.1905 141.547 53.0561 140.326 52.9571C139.887 52.9174 139.464 52.7757 139.089 52.5432C138.715 52.3108 138.4 51.9941 138.17 51.6184C137.94 51.2427 137.801 50.8184 137.764 50.3793C137.727 49.9403 137.793 49.4987 137.957 49.0898C139.281 45.7318 139.849 42.123 139.619 38.5206C139.388 34.9181 138.366 31.4109 136.625 28.2488C130.875 31.4094 125.142 39.7662 123.242 43.0625C122.931 43.6014 122.45 44.0226 121.875 44.2607C121.301 44.4989 120.663 44.5406 120.062 44.3796C119.461 44.2185 118.93 43.8636 118.551 43.3699C118.172 42.8762 117.967 42.2713 117.967 41.649C118.042 39.3349 117.408 37.053 116.149 35.11C112.9 39.8955 108.504 43.791 103.362 46.4408Z" fill="#F26522"/>
<path d="M115.14 58.611C114.39 58.611 113.671 58.3132 113.141 57.783C112.61 57.2528 112.312 56.5338 112.312 55.784V52.9569C112.312 52.2071 112.61 51.4881 113.141 50.9579C113.671 50.4277 114.39 50.1299 115.14 50.1299C115.889 50.1299 116.608 50.4277 117.139 50.9579C117.669 51.4881 117.967 52.2071 117.967 52.9569V55.784C117.967 56.5338 117.669 57.2528 117.139 57.783C116.608 58.3132 115.889 58.611 115.14 58.611Z" fill="#F9C87A"/>
<path d="M163.199 33.1677C162.449 33.1677 161.73 32.8698 161.2 32.3396C160.67 31.8095 160.372 31.0904 160.372 30.3406V27.5136C160.372 26.7638 160.67 26.0447 161.2 25.5145C161.73 24.9844 162.449 24.6865 163.199 24.6865C163.949 24.6865 164.668 24.9844 165.198 25.5145C165.728 26.0447 166.026 26.7638 166.026 27.5136V30.3406C166.026 31.0904 165.728 31.8095 165.198 32.3396C164.668 32.8698 163.949 33.1677 163.199 33.1677Z" fill="#F26522"/>
<path d="M168.853 61.4382C168.104 61.4382 167.385 61.1403 166.854 60.6101C166.324 60.08 166.026 59.3609 166.026 58.6111V55.7841C166.026 55.0343 166.324 54.3152 166.854 53.7851C167.385 53.2549 168.104 52.957 168.853 52.957C169.603 52.957 170.322 53.2549 170.852 53.7851C171.383 54.3152 171.68 55.0343 171.68 55.7841V58.6111C171.68 59.3609 171.383 60.08 170.852 60.6101C170.322 61.1403 169.603 61.4382 168.853 61.4382Z" fill="#FF9901"/>
<path d="M217.698 191.021C214.187 185.366 221.209 165.577 221.209 165.577C207.164 168.404 200.142 179.712 200.142 179.712C189.608 202.329 147.473 207.983 147.473 207.983V199.502C140.45 210.81 112.36 213.637 112.36 213.637C114.497 210.106 115.693 206.254 115.871 202.329L66.9418 204.972C49.3855 204.972 38.6234 216.464 38.6234 216.464C39.658 214.07 39.878 211.497 39.2606 209.011C38.6432 206.525 37.2108 204.218 35.1122 202.329C3.51074 216.464 3.51074 256.043 3.51074 256.043C105.338 247.561 195.686 251.005 214.187 213.637C217.627 206.441 218.832 198.677 217.698 191.021Z" fill="#FF9901"/>
<path d="M3.51127 258.87C2.58002 258.87 1.68692 258.572 1.02843 258.042C0.369936 257.511 0 256.792 0 256.043C0 254.346 0.379219 214.632 33.4097 199.858C34.0764 199.56 34.8454 199.445 35.6005 199.53C36.3556 199.615 37.0558 199.896 37.5952 200.33C40.3995 202.797 42.2388 205.875 42.8831 209.179C49.6935 204.722 58.1706 202.243 66.9459 202.142L115.637 199.502C116.117 199.476 116.599 199.53 117.053 199.66C117.506 199.79 117.922 199.994 118.273 200.26C118.624 200.525 118.904 200.845 119.095 201.201C119.286 201.557 119.384 201.941 119.383 202.329C119.286 204.915 118.778 207.48 117.87 209.962C126.901 208.347 140.324 204.681 144.331 198.227C144.684 197.655 145.268 197.197 145.986 196.927C146.704 196.656 147.515 196.59 148.286 196.737C149.058 196.885 149.744 197.239 150.234 197.741C150.724 198.243 150.989 198.863 150.985 199.502V204.483C161.469 202.43 189.022 195.535 196.852 178.72C196.898 178.627 196.944 178.536 197 178.437C197.316 177.928 204.921 165.93 220.357 162.824C220.954 162.706 221.579 162.716 222.169 162.854C222.759 162.991 223.295 163.251 223.721 163.607C224.148 163.964 224.451 164.404 224.6 164.884C224.749 165.364 224.739 165.867 224.57 166.343C221.375 175.356 219.033 186.865 220.824 189.746C221.015 190.054 221.135 190.389 221.175 190.732C222.345 198.839 221.061 207.054 217.432 214.674C201.8 246.252 118.243 253.719 40.5 258.5C20.5 258.042 24 258.844 3.85537 258.844C3.75004 258.87 3.63065 258.87 3.51127 258.87ZM34.1963 206.075C12.0753 217.75 7.95303 243.866 7.19459 252.899C26.0571 251.378 44.3789 250.256 62.1319 249.164C137.435 244.542 196.915 240.89 210.925 212.591C214.072 205.951 215.213 198.804 214.254 191.739C211.877 186.885 214.163 176.786 216.076 170.253C210.763 172.842 206.378 176.499 203.352 180.866C192.116 204.593 149.85 210.521 148.049 210.765C147.547 210.832 147.033 210.81 146.542 210.702C146.051 210.593 145.595 210.399 145.206 210.135C144.818 209.87 144.505 209.541 144.29 209.169C144.075 208.797 143.963 208.393 143.962 207.983V207.098C132.579 214.363 113.765 216.345 112.796 216.444C112.165 216.511 111.524 216.437 110.942 216.23C110.36 216.023 109.859 215.691 109.495 215.271C109.128 214.853 108.909 214.363 108.861 213.853C108.812 213.342 108.937 212.831 109.222 212.373C110.562 210.162 111.488 207.803 111.971 205.373L67.1811 207.791C62.2274 207.974 57.3764 208.991 52.9413 210.777C48.5063 212.563 44.5858 215.078 41.433 218.16C40.9296 218.692 40.2081 219.064 39.3967 219.208C38.5854 219.352 37.7367 219.26 37.0016 218.948C36.2666 218.636 35.6928 218.125 35.3823 217.504C35.0718 216.884 35.0447 216.194 35.3058 215.559C35.9834 214.008 36.2351 212.356 36.0436 210.719C35.852 209.081 35.2218 207.497 34.1963 206.075Z" fill="#FF9901"/>
<path d="M12.0454 201.021C11.1142 201.021 10.2211 200.723 9.56261 200.193C8.90412 199.662 8.53418 198.943 8.53418 198.194V195.367C8.53418 194.617 8.90412 193.898 9.56261 193.368C10.2211 192.837 11.1142 192.54 12.0454 192.54C12.9767 192.54 13.8698 192.837 14.5283 193.368C15.1868 193.898 15.5567 194.617 15.5567 195.367V198.194C15.5567 198.943 15.1868 199.662 14.5283 200.193C13.8698 200.723 12.9767 201.021 12.0454 201.021Z" fill="#FF9901"/>
<path d="M205.067 75.7214C204.386 75.7214 203.733 75.467 203.252 75.0141C202.77 74.5612 202.5 73.947 202.5 73.3065V70.8915C202.5 70.251 202.77 69.6368 203.252 69.1839C203.733 68.731 204.386 68.4766 205.067 68.4766C205.748 68.4766 206.402 68.731 206.883 69.1839C207.365 69.6368 207.635 70.251 207.635 70.8915V73.3065C207.635 73.947 207.365 74.5612 206.883 75.0141C206.402 75.467 205.748 75.7214 205.067 75.7214Z" fill="#F9C87A"/>
<path d="M210.204 66.0613C209.523 66.0613 208.87 65.8068 208.388 65.354C207.907 64.9011 207.636 64.2868 207.636 63.6463V61.2314C207.636 60.5909 207.907 59.9766 208.388 59.5237C208.87 59.0708 209.523 58.8164 210.204 58.8164C210.885 58.8164 211.538 59.0708 212.02 59.5237C212.502 59.9766 212.772 60.5909 212.772 61.2314V63.6463C212.772 64.2868 212.502 64.9011 212.02 65.354C211.538 65.8068 210.885 66.0613 210.204 66.0613Z" fill="#F9C87A"/>
<path d="M198.605 96.7264L162.253 40.1011L125.959 101.685H139.736L104.374 156.775H116.899L87.4649 202.022H229L201.444 153.056H213.969L183.574 96.7264H198.605Z" fill="#146FB4"/>
<rect x="160.958" y="84.7461" width="5.30149" height="173.254" rx="2.65075" fill="#2290D3"/>
<rect width="4.99462" height="32.4942" rx="2.49731" transform="matrix(0.688377 0.725353 -0.786901 0.617079 186.552 158.614)" fill="#2290D3"/>
<rect width="5.28787" height="28.3335" rx="2.64393" transform="matrix(0.690347 -0.723478 0.785265 0.61916 138.99 157.126)" fill="#2290D3"/>
<rect width="5.74389" height="15.2104" rx="2.87195" transform="matrix(0.690347 -0.723478 0.785265 0.61916 149.504 106.165)" fill="#2290D3"/>
<rect width="5.15703" height="15.2104" rx="2.57852" transform="matrix(-0.690347 -0.723478 -0.785265 0.61916 176.969 102.951)" fill="#2290D3"/>
<path d="M175.248 82.0304C175.248 82.0304 175.248 72.3705 188.087 69.9556C188.087 69.9556 193.223 77.2004 188.087 89.2752H195.791C195.791 89.2752 198.359 96.5201 193.223 101.35C188.394 100.419 184.021 98.0266 180.775 94.5376C177.529 91.0486 175.587 86.6555 175.248 82.0304Z" fill="#FCC670"/>
<path d="M193.222 103.765C193.05 103.764 192.878 103.747 192.709 103.714C187.33 102.68 182.459 100.016 178.842 96.1317C175.225 92.2471 173.06 87.3552 172.679 82.2041C172.679 82.1461 172.679 82.0882 172.679 82.0302C172.679 78.0045 175.794 69.8057 187.573 67.5888C188.072 67.4951 188.589 67.5428 189.059 67.726C189.529 67.9091 189.931 68.2194 190.213 68.6176C190.431 68.9267 195.092 75.7151 191.674 86.8626H195.79C196.329 86.8629 196.854 87.0227 197.291 87.3191C197.728 87.6156 198.055 88.0337 198.225 88.5144C198.351 88.867 201.224 97.242 195.038 103.06C194.556 103.512 193.903 103.765 193.222 103.765ZM177.815 81.9674C178.117 85.8087 179.669 89.4695 182.259 92.4534C184.848 95.4372 188.352 97.5997 192.293 98.6476C193.667 96.5739 194.175 94.0955 193.721 91.6901H188.087C187.667 91.6904 187.253 91.5938 186.882 91.4088C186.511 91.2239 186.194 90.9561 185.958 90.6291C185.723 90.3021 185.576 89.9257 185.531 89.5331C185.487 89.1404 185.545 88.7433 185.701 88.3767C188.139 83.4833 188.494 77.8984 186.695 72.7665C184.369 73.2171 182.255 74.3511 180.659 76.0049C179.063 77.6587 178.067 79.7467 177.815 81.9674Z" fill="#FCC670"/>
<path d="M25.4443 255.879C25.4443 255.879 49.0638 224.531 79.4317 218.262C81.3351 221.08 82.3448 224.339 82.3448 227.666C82.3448 230.993 81.3351 234.252 79.4317 237.071C72.6833 246.475 133.419 218.262 133.419 218.262C133.419 218.262 136.793 230.801 130.045 237.071C130.045 237.071 167.161 237.071 180.658 215.127C194.155 193.183 211.026 199.453 211.026 199.453C211.026 199.453 200.903 208.857 204.277 218.262C207.652 227.666 204.277 230.801 204.277 230.801C204.277 230.801 224.523 227.143 227.897 218.262C227.897 218.262 227.897 246.475 214.4 255.879" fill="#F9C87A"/>
<path d="M214.4 259.014C213.692 259.014 213.001 258.807 212.427 258.423C211.852 258.038 211.423 257.495 211.199 256.871C210.975 256.247 210.968 255.573 211.179 254.945C211.39 254.317 211.809 253.766 212.375 253.372C219.539 248.378 222.68 236.246 223.878 227.067C218.038 230.355 211.62 232.66 204.918 233.876C204.21 234.004 203.475 233.918 202.823 233.63C202.171 233.342 201.636 232.867 201.296 232.275C200.956 231.683 200.83 231.005 200.935 230.342C201.04 229.678 201.372 229.063 201.882 228.588C201.841 228.588 203.525 226.08 201.075 219.252C200.234 216.263 200.131 213.136 200.774 210.105C201.416 207.074 202.788 204.217 204.787 201.747C199.58 201.904 191.152 204.39 183.59 216.682C169.283 239.939 131.641 240.205 130.045 240.205C129.377 240.205 128.725 240.021 128.17 239.677C127.616 239.332 127.183 238.843 126.928 238.27C126.673 237.697 126.606 237.067 126.736 236.459C126.866 235.851 127.187 235.293 127.659 234.854C130.743 231.989 131.114 226.838 130.79 222.976C81.2637 245.738 78.1999 242.497 76.5364 240.738C75.8523 239.976 75.485 239.012 75.5011 238.019C75.5172 237.027 75.9156 236.073 76.6241 235.331C78.0074 233.357 78.8289 231.089 79.0118 228.74C79.1948 226.39 78.7332 224.036 77.6701 221.898C50.1366 228.976 28.4303 257.384 28.2076 257.679C27.6944 258.36 26.9108 258.824 26.0294 258.969C25.1479 259.113 24.2407 258.927 23.5073 258.45C22.7739 257.973 22.2745 257.245 22.1188 256.426C21.9632 255.607 22.164 254.765 22.6773 254.083C23.6726 252.763 47.4102 221.663 78.6892 215.211C79.3536 215.074 80.0472 215.127 80.6789 215.362C81.3106 215.598 81.8508 216.005 82.2287 216.531C84.0765 219.266 85.2295 222.356 85.6002 225.567C85.9708 228.777 85.5494 232.024 84.3679 235.061C100.618 229.416 116.491 222.873 131.9 215.468C132.352 215.259 132.849 215.146 133.354 215.138C133.859 215.131 134.36 215.229 134.819 215.425C135.278 215.621 135.683 215.911 136.006 216.272C136.328 216.633 136.559 217.057 136.682 217.512C138.029 222.806 137.873 228.335 136.23 233.556C146.919 232.487 168.551 228.487 177.732 213.584C192.518 189.547 212.089 196.484 212.281 196.553C212.8 196.745 213.259 197.054 213.617 197.453C213.976 197.851 214.222 198.325 214.335 198.833C214.447 199.342 214.422 199.868 214.261 200.365C214.101 200.862 213.81 201.315 213.415 201.681C213.337 201.757 204.817 209.857 207.479 217.283C208.623 220.214 209.187 223.313 209.143 226.431C215.733 224.55 223.19 221.249 224.715 217.23C224.979 216.534 225.5 215.946 226.185 215.572C226.871 215.197 227.676 215.059 228.46 215.183C229.244 215.306 229.956 215.682 230.47 216.246C230.984 216.809 231.268 217.523 231.271 218.262C231.271 219.478 231.102 248.162 216.424 258.387C215.841 258.796 215.13 259.016 214.4 259.014Z" fill="#F9C87A"/>
<path d="M92.9281 259.014C92.0832 259.011 91.2701 258.714 90.6498 258.181C90.0294 257.648 89.6468 256.918 89.5777 256.136C89.5086 255.353 89.758 254.575 90.2765 253.956C90.795 253.336 91.545 252.919 92.3781 252.788C109.425 250.149 109.796 237.584 109.803 237.052C109.808 236.224 110.165 235.432 110.797 234.848C111.428 234.264 112.283 233.936 113.173 233.936H113.197C114.088 233.941 114.94 234.274 115.568 234.861C116.195 235.449 116.548 236.243 116.548 237.07C116.548 243.409 111.726 256.146 93.4815 258.97C93.2986 258.999 93.1136 259.014 92.9281 259.014Z" fill="#FF9901"/>
<path d="M157.037 259.014C156.202 259.015 155.396 258.728 154.775 258.208C154.154 257.689 153.763 256.974 153.677 256.202C153.591 255.43 153.816 254.656 154.309 254.029C154.802 253.403 155.528 252.968 156.346 252.81C169.562 250.224 170.517 237.45 170.541 236.901C170.586 236.07 170.984 235.289 171.648 234.73C172.313 234.172 173.189 233.881 174.084 233.923C174.979 233.964 175.819 234.335 176.42 234.952C177.021 235.569 177.334 236.383 177.289 237.214C177.025 242.32 174.973 247.205 171.444 251.126C167.915 255.047 163.104 257.79 157.742 258.936C157.511 258.985 157.275 259.011 157.037 259.014Z" fill="#FF9901"/>
<path d="M227.391 259H3.60938C2.65211 259 1.73405 258.684 1.05716 258.121C0.380272 257.559 0 256.796 0 256C0 255.204 0.380272 254.441 1.05716 253.879C1.73405 253.316 2.65211 253 3.60938 253H227.391C228.348 253 229.266 253.316 229.943 253.879C230.62 254.441 231 255.204 231 256C231 256.796 230.62 257.559 229.943 258.121C229.266 258.684 228.348 259 227.391 259Z" fill="#FF9901"/>
<path d="M187.406 240.205C186.512 240.205 185.653 239.875 185.021 239.287C184.388 238.699 184.032 237.902 184.032 237.07V233.936C184.032 233.104 184.388 232.307 185.021 231.719C185.653 231.131 186.512 230.801 187.406 230.801C188.301 230.801 189.16 231.131 189.792 231.719C190.425 232.307 190.781 233.104 190.781 233.936V237.07C190.781 237.902 190.425 238.699 189.792 239.287C189.16 239.875 188.301 240.205 187.406 240.205Z" fill="#F26522"/>
<path d="M146.069 218.189C145.132 218.189 144.233 217.881 143.57 217.334C142.907 216.787 142.535 216.045 142.535 215.271V212.352C142.535 211.578 142.907 210.836 143.57 210.289C144.233 209.742 145.132 209.434 146.069 209.434C147.006 209.434 147.905 209.742 148.568 210.289C149.23 210.836 149.603 211.578 149.603 212.352V215.271C149.603 216.045 149.23 216.787 148.568 217.334C147.905 217.881 147.006 218.189 146.069 218.189Z" fill="#F26522"/>
<path d="M224.596 148.327C223.659 148.327 222.76 148.02 222.097 147.472C221.435 146.925 221.062 146.183 221.062 145.409V142.491C221.062 141.717 221.435 140.974 222.097 140.427C222.76 139.88 223.659 139.572 224.596 139.572C225.533 139.572 226.432 139.88 227.095 140.427C227.758 140.974 228.13 141.717 228.13 142.491V145.409C228.13 146.183 227.758 146.925 227.095 147.472C226.432 148.02 225.533 148.327 224.596 148.327Z" fill="#F26522"/>
</svg>
