<?xml version="1.0" standalone="no"?>
<!DOCTYPE svg PUBLIC "-//W3C//DTD SVG 20010904//EN"
 "http://www.w3.org/TR/2001/REC-SVG-20010904/DTD/svg10.dtd">
<svg version="1.0" xmlns="http://www.w3.org/2000/svg"
 width="400.000000pt" height="400.000000pt" viewBox="0 0 400.000000 400.000000"
 preserveAspectRatio="xMidYMid meet">
<metadata>
Created by potrace 1.15, written by Peter Selinger 2001-2017
</metadata>
<g transform="translate(0.000000,400.000000) scale(0.100000,-0.100000)"
fill="#000000" stroke="none">
<path d="M1960 3796 c0 -167 -2 -195 -16 -207 -13 -11 -74 -15 -268 -17 -138
-1 -261 -5 -273 -8 -30 -6 -29 -32 0 -43 26 -10 252 -41 298 -41 33 0 37 -11
12 -31 -9 -8 -31 -37 -49 -65 l-33 -51 -362 -6 c-199 -4 -554 -7 -789 -7
l-427 0 -6 -47 c-3 -27 -2 -51 2 -55 3 -4 40 -12 81 -18 102 -14 601 -70 623
-70 13 0 17 -8 17 -33 0 -90 54 -180 123 -206 107 -41 204 22 243 157 l16 55
52 -7 c28 -3 130 -9 228 -13 l176 -6 28 -65 c35 -83 114 -168 196 -213 60 -32
68 -34 163 -34 89 0 106 3 157 28 90 44 152 107 199 201 l41 83 176 6 c98 4
200 10 228 13 l50 6 17 -60 c18 -65 60 -123 108 -148 55 -28 138 -13 193 35
30 27 49 73 55 136 l6 60 310 36 c171 20 334 40 363 44 l53 7 -3 52 -3 51
-625 6 c-344 3 -700 7 -791 8 -162 1 -166 2 -176 24 -6 12 -27 44 -47 70 -21
27 -36 50 -34 52 2 1 53 7 113 14 61 6 133 16 162 22 56 11 87 34 63 49 -7 4
-131 9 -276 11 -230 4 -265 6 -280 21 -14 14 -18 47 -22 207 l-5 191 -33 0
-34 0 0 -194z"/>
<path d="M805 2360 c-192 -17 -416 -137 -490 -264 -47 -81 -50 -133 -49 -963
l1 -772 34 -56 c83 -137 246 -244 420 -276 44 -8 360 -13 1024 -16 1054 -5
1516 4 1600 32 122 41 267 132 320 201 60 78 58 57 68 717 6 377 6 692 1 826
-10 217 -10 218 -42 284 -53 107 -173 201 -324 254 -58 20 -103 27 -218 34
-177 10 -2233 9 -2345 -1z m2439 -208 c92 -34 144 -69 173 -115 l27 -42 9
-435 c9 -482 3 -1094 -12 -1154 -14 -58 -62 -118 -119 -149 -105 -57 -101 -57
-1322 -57 -1192 0 -1214 1 -1307 48 -41 21 -132 113 -134 134 0 7 -3 22 -6 33
-10 36 -15 1186 -5 1380 8 161 12 196 30 230 40 77 141 131 276 145 39 4 580
7 1201 6 l1130 -1 59 -23z"/>
<path d="M2673 1839 c-65 -62 -306 -297 -535 -523 -230 -226 -426 -415 -437
-420 -15 -7 -52 13 -178 94 -332 216 -379 238 -447 215 -45 -16 -161 -91 -216
-141 -65 -59 -55 -82 81 -177 30 -21 101 -72 159 -113 189 -135 509 -345 557
-366 66 -29 157 -21 216 18 43 29 1200 1179 1276 1267 22 27 41 57 41 69 0 42
-116 116 -269 169 -105 37 -114 33 -248 -92z"/>
</g>
</svg>
