<?xml version="1.0" standalone="no"?>
<!DOCTYPE svg PUBLIC "-//W3C//DTD SVG 20010904//EN"
 "http://www.w3.org/TR/2001/REC-SVG-20010904/DTD/svg10.dtd">
<svg version="1.0" xmlns="http://www.w3.org/2000/svg"
 width="400.000000pt" height="400.000000pt" viewBox="0 0 400.000000 400.000000"
 preserveAspectRatio="xMidYMid meet">
<metadata>
Created by potrace 1.15, written by Peter Selinger 2001-2017
</metadata>
<g transform="translate(0.000000,400.000000) scale(0.100000,-0.100000)"
fill="#000000" stroke="none">
<path d="M519 3917 c-151 -163 -287 -389 -364 -602 -102 -286 -123 -645 -54
-945 18 -79 70 -236 100 -305 21 -47 130 -249 138 -255 3 -3 32 -41 64 -85 31
-44 90 -113 131 -154 l73 -73 134 128 c74 70 135 132 137 138 1 7 -23 36 -54
66 -111 107 -243 321 -298 482 -63 187 -86 377 -68 556 12 115 49 286 77 346
96 216 160 318 277 446 38 41 67 77 66 80 -5 10 -271 260 -277 260 -3 -1 -40
-38 -82 -83z"/>
<path d="M3269 3873 c-74 -70 -135 -130 -137 -133 -1 -3 28 -39 66 -80 117
-128 181 -230 277 -446 28 -60 65 -231 77 -346 18 -179 -5 -369 -68 -556 -55
-161 -187 -375 -298 -482 -31 -30 -55 -59 -54 -66 2 -6 63 -68 137 -138 l134
-128 73 73 c41 41 100 110 131 154 32 44 61 82 64 85 8 6 117 208 138 255 168
382 186 859 46 1250 -77 213 -215 442 -363 600 -41 44 -78 81 -81 83 -4 1 -68
-55 -142 -125z"/>
<path d="M1071 3463 c-24 -26 -57 -63 -74 -82 -52 -57 -128 -201 -162 -306
-96 -293 -61 -602 97 -859 45 -73 172 -226 187 -226 4 0 68 59 144 131 l137
131 -47 61 c-27 34 -51 64 -55 67 -11 9 -64 122 -84 180 -15 43 -19 84 -19
185 0 116 3 139 29 219 29 88 64 149 138 238 l38 46 -135 129 c-75 70 -139
129 -144 131 -4 1 -27 -19 -50 -45z"/>
<path d="M2747 3379 l-137 -131 38 -46 c74 -89 109 -150 138 -238 26 -80 29
-103 29 -219 0 -101 -4 -142 -19 -185 -20 -58 -73 -171 -84 -180 -4 -3 -28
-32 -54 -66 l-47 -61 92 -89 c51 -49 114 -109 140 -134 l48 -45 65 70 c253
272 337 660 219 1020 -34 105 -110 249 -162 306 -17 19 -50 55 -73 82 -24 26
-45 47 -49 47 -3 0 -68 -59 -144 -131z"/>
<path d="M1890 3126 c-60 -17 -134 -57 -195 -103 -39 -30 -60 -57 -95 -127
-45 -88 -45 -88 -45 -195 0 -101 2 -109 36 -182 21 -44 57 -97 84 -125 98
-101 98 -135 0 -403 -42 -113 -81 -217 -87 -231 -6 -14 -23 -61 -39 -105 -15
-44 -45 -127 -67 -185 -21 -58 -66 -179 -100 -270 -33 -91 -86 -235 -118 -320
-31 -85 -75 -202 -96 -260 -22 -58 -51 -139 -65 -180 -14 -41 -33 -83 -41 -92
-8 -10 -12 -18 -7 -18 4 0 2 -7 -5 -15 -7 -8 -9 -15 -5 -15 4 0 2 -7 -5 -15
-7 -8 -9 -15 -5 -15 4 0 2 -7 -5 -15 -7 -8 -9 -15 -5 -15 4 0 2 -7 -5 -15 -7
-8 -9 -15 -5 -15 4 0 0 -12 -10 -26 -20 -31 -57 -134 -47 -134 3 0 1 -5 -6
-12 -7 -7 -12 -16 -12 -20 0 -4 99 -8 220 -8 l220 0 11 28 c16 42 94 153 136
194 66 63 193 128 312 159 100 26 252 26 352 0 119 -31 246 -96 312 -159 42
-41 120 -152 136 -194 l11 -28 204 0 c112 0 211 3 219 6 13 5 12 15 -8 74 -13
37 -31 79 -40 94 -10 14 -14 26 -10 26 4 0 2 7 -5 15 -7 8 -9 15 -5 15 4 0 2
7 -5 15 -7 8 -9 15 -5 15 4 0 2 7 -5 15 -7 8 -9 15 -5 15 4 0 2 7 -5 15 -7 8
-9 15 -5 15 5 0 1 8 -7 18 -9 9 -21 35 -28 57 -7 22 -25 74 -41 115 -28 75
-138 370 -252 680 -33 91 -78 212 -99 270 -22 58 -52 141 -67 185 -16 44 -33
91 -39 105 -6 14 -46 120 -88 235 -102 275 -102 289 -3 408 143 171 155 376
34 552 -39 57 -132 124 -217 157 -67 26 -213 33 -278 14z"/>
</g>
</svg>
