<?xml version="1.0" standalone="no"?>
<!DOCTYPE svg PUBLIC "-//W3C//DTD SVG 20010904//EN"
 "http://www.w3.org/TR/2001/REC-SVG-20010904/DTD/svg10.dtd">
<svg version="1.0" xmlns="http://www.w3.org/2000/svg"
 width="400.000000pt" height="400.000000pt" viewBox="0 0 400.000000 400.000000"
 preserveAspectRatio="xMidYMid meet">
<metadata>
Created by potrace 1.15, written by Peter Selinger 2001-2017
</metadata>
<g transform="translate(0.000000,400.000000) scale(0.100000,-0.100000)"
fill="#000000" stroke="none">
<path d="M1970 3806 c0 -167 -2 -195 -16 -207 -13 -11 -74 -15 -268 -17 -138
-1 -261 -5 -273 -8 -30 -6 -29 -32 0 -43 26 -10 252 -41 298 -41 33 0 37 -11
12 -31 -9 -8 -31 -37 -49 -65 l-33 -51 -362 -6 c-199 -4 -554 -7 -789 -7
l-427 0 -6 -47 c-3 -27 -2 -51 2 -55 3 -4 40 -12 81 -18 102 -14 601 -70 623
-70 13 0 17 -8 17 -33 0 -90 54 -180 123 -206 107 -41 204 22 243 157 l16 55
52 -7 c28 -3 130 -9 228 -13 l176 -6 28 -65 c53 -125 177 -226 310 -252 51
-10 71 -9 125 4 128 33 219 108 280 231 l41 82 176 6 c98 4 200 10 228 13 l50
6 17 -60 c18 -65 60 -123 108 -148 55 -28 138 -13 193 35 30 27 49 73 55 136
l6 60 310 36 c171 20 334 40 363 44 l53 7 -3 52 -3 51 -625 6 c-344 3 -700 7
-791 8 -162 1 -166 2 -176 24 -6 12 -27 44 -47 70 -21 27 -36 50 -34 52 2 1
53 7 113 14 61 6 133 16 162 22 56 11 87 34 63 49 -7 4 -131 9 -276 11 -230 4
-265 6 -280 21 -14 14 -18 47 -22 207 l-5 191 -33 0 -34 0 0 -194z"/>
<path d="M1377 2273 c-30 -49 -123 -203 -208 -343 -84 -140 -191 -316 -236
-390 -45 -74 -109 -180 -142 -235 -33 -55 -116 -192 -184 -305 -113 -184 -387
-639 -428 -708 -9 -15 -49 -81 -88 -146 -39 -66 -71 -123 -71 -126 0 -16 176
-20 906 -20 l770 0 32 273 c18 149 32 282 32 295 l0 22 235 0 234 0 6 -32 c3
-18 16 -130 30 -248 14 -118 28 -236 31 -263 l7 -47 772 0 c795 0 895 3 895
26 0 10 -155 273 -340 579 -8 13 -40 66 -71 117 -31 51 -140 232 -244 403
-349 575 -617 1019 -679 1123 l-60 102 -172 0 c-94 0 -219 3 -279 7 l-108 6 7
-81 7 -82 -34 0 -33 0 7 53 c4 28 8 64 8 80 l1 27 -274 0 -275 0 -54 -87z
m697 -395 c10 -106 20 -203 23 -215 5 -23 4 -23 -96 -23 -56 0 -101 1 -101 3
0 2 9 90 20 197 11 107 20 202 20 212 0 15 9 18 58 18 l58 0 18 -192z m85
-705 c19 -148 35 -271 38 -275 2 -5 -86 -8 -197 -8 l-202 0 6 28 c3 15 19 134
35 265 17 131 33 242 36 247 4 6 60 10 129 10 l122 0 33 -267z"/>
</g>
</svg>
