<?xml version="1.0" standalone="no"?>
<!DOCTYPE svg PUBLIC "-//W3C//DTD SVG 20010904//EN"
 "http://www.w3.org/TR/2001/REC-SVG-20010904/DTD/svg10.dtd">
<svg version="1.0" xmlns="http://www.w3.org/2000/svg"
 width="400.000000pt" height="400.000000pt" viewBox="0 0 400.000000 400.000000"
 preserveAspectRatio="xMidYMid meet">
<metadata>
Created by potrace 1.15, written by Peter Selinger 2001-2017
</metadata>
<g transform="translate(0.000000,400.000000) scale(0.100000,-0.100000)"
fill="#000000" stroke="none">
<path d="M2273 3973 c-7 -15 -13 -33 -13 -40 0 -7 -4 -13 -10 -13 -5 0 -10 -7
-10 -15 0 -8 -9 -30 -20 -50 -11 -20 -20 -42 -20 -49 0 -7 -7 -19 -15 -26 -8
-7 -15 -23 -15 -35 0 -13 -7 -25 -15 -29 -8 -3 -14 -9 -14 -13 5 -20 -37 -106
-61 -128 -11 -10 -20 -27 -20 -37 0 -17 -19 -65 -56 -142 -7 -16 -11 -32 -8
-37 3 -5 -2 -9 -11 -9 -8 0 -18 8 -21 18 -3 9 -14 34 -25 55 -10 22 -19 45
-19 53 0 8 -4 14 -10 14 -5 0 -10 6 -10 13 0 19 -28 73 -45 87 -8 6 -19 28
-25 48 -16 51 -51 122 -62 122 -4 0 -8 8 -8 18 0 9 -9 28 -20 42 -11 14 -20
31 -20 37 0 22 -43 63 -65 63 -34 0 -110 -43 -167 -94 -28 -25 -55 -46 -60
-46 -11 0 -10 -66 1 -88 8 -14 17 -36 26 -62 9 -25 18 -48 24 -60 5 -9 12 -30
15 -48 4 -17 12 -34 17 -37 5 -4 9 -17 9 -31 0 -13 5 -24 10 -24 6 0 10 -8 10
-18 0 -9 9 -23 19 -29 11 -7 26 -27 34 -45 8 -18 24 -54 36 -80 11 -26 21 -54
21 -62 0 -7 7 -19 15 -26 8 -7 15 -21 15 -31 0 -10 5 -21 10 -24 6 -3 10 -15
10 -26 0 -10 5 -19 10 -19 6 0 10 -9 10 -20 0 -11 4 -20 8 -20 12 0 52 -78 52
-101 0 -11 -4 -28 -10 -39 -5 -11 -14 -29 -20 -40 -5 -11 -10 -26 -10 -33 0
-7 -9 -19 -20 -27 -11 -8 -20 -20 -20 -27 0 -7 -4 -21 -9 -31 -18 -34 -41 -90
-41 -101 0 -6 -10 -27 -22 -48 -12 -21 -28 -49 -35 -63 -8 -14 -23 -38 -33
-55 -10 -16 -19 -38 -19 -47 -1 -10 -5 -18 -11 -18 -5 0 -10 -7 -10 -15 0 -14
-9 -34 -32 -75 -13 -23 -30 -64 -32 -77 -1 -7 -5 -16 -9 -19 -4 -4 -7 -18 -7
-31 0 -13 -4 -23 -10 -23 -5 0 -10 -9 -10 -19 0 -11 -4 -23 -10 -26 -5 -3 -10
-14 -10 -23 0 -10 -9 -23 -20 -30 -11 -7 -20 -18 -20 -26 0 -13 -7 -28 -59
-134 -11 -24 -19 -47 -16 -51 2 -5 -7 -19 -20 -31 -14 -13 -25 -29 -25 -36 0
-8 -9 -29 -20 -49 -11 -20 -20 -42 -20 -50 0 -8 -4 -15 -10 -15 -5 0 -10 -7
-10 -15 0 -8 -10 -31 -22 -52 -40 -71 -48 -88 -48 -105 0 -9 -9 -33 -19 -55
-11 -21 -26 -54 -35 -74 -9 -20 -22 -42 -31 -49 -8 -7 -15 -21 -15 -31 0 -10
-4 -20 -9 -24 -11 -6 -41 -63 -41 -78 0 -5 -6 -23 -14 -40 -14 -32 -24 -61
-27 -75 -1 -4 -9 -18 -18 -32 -9 -14 -23 -38 -31 -55 -8 -16 -21 -38 -29 -47
-8 -10 -11 -18 -7 -18 4 0 1 -10 -6 -22 -7 -13 -12 -26 -13 -30 0 -3 -3 -10
-7 -14 -5 -4 -8 -15 -8 -24 0 -9 -9 -25 -20 -35 -11 -10 -20 -28 -20 -39 0
-12 -7 -34 -15 -50 -8 -15 -15 -35 -15 -42 0 -8 -7 -17 -15 -20 -8 -4 -15 -15
-15 -25 0 -10 -4 -19 -10 -19 -5 0 -10 -7 -10 -16 0 -9 -8 -28 -18 -42 -10
-15 -23 -38 -28 -52 -6 -14 -20 -43 -31 -65 l-19 -40 -234 -3 c-159 -2 -238
-6 -247 -14 -8 -6 -34 -11 -59 -9 l-44 2 0 -181 0 -180 1995 0 1995 0 -2 178
-3 177 -38 1 c-21 1 -43 6 -50 13 -7 7 -82 11 -242 11 -238 0 -255 3 -255 40
0 9 -9 25 -20 35 -11 10 -20 22 -20 27 0 5 -9 28 -20 50 -11 23 -20 46 -20 51
0 5 -11 18 -25 29 -14 11 -25 27 -25 37 0 10 -3 21 -7 25 -5 4 -8 11 -9 14 -1
11 -15 45 -25 64 -5 10 -9 27 -9 37 0 11 -4 23 -10 26 -5 3 -16 21 -25 40 -8
19 -22 50 -30 69 -8 18 -21 39 -30 46 -8 7 -15 18 -15 25 0 7 -9 30 -19 52
-10 21 -33 68 -50 105 -18 37 -36 70 -41 73 -6 4 -10 15 -10 26 0 10 -4 19
-10 19 -5 0 -10 8 -10 18 0 11 -9 27 -20 37 -11 10 -20 26 -20 37 0 10 -4 18
-10 18 -5 0 -10 9 -10 19 0 11 -4 22 -9 25 -5 3 -12 23 -16 43 -4 21 -11 43
-15 48 -16 20 -70 127 -70 140 0 7 -7 18 -15 25 -9 7 -23 29 -31 49 -9 20 -25
56 -36 81 -11 25 -25 56 -30 70 -6 14 -14 32 -19 40 -5 8 -16 31 -25 50 -33
71 -66 136 -89 175 -13 22 -24 49 -24 60 -1 11 -8 33 -16 49 -8 15 -15 34 -15
41 0 6 -9 20 -20 30 -11 10 -20 26 -20 37 0 10 -4 18 -10 18 -5 0 -10 9 -10
19 0 11 -4 22 -9 26 -12 7 -41 64 -41 80 0 7 -9 20 -20 30 -11 10 -20 25 -20
33 0 15 -18 59 -51 125 -10 22 -19 45 -19 53 0 8 -4 14 -8 14 -12 0 -52 78
-52 100 0 10 -5 20 -12 22 -19 7 -12 97 13 144 12 24 26 44 31 44 4 0 8 7 8
15 0 8 9 30 20 50 11 20 20 44 20 55 0 11 5 20 10 20 6 0 10 9 10 19 0 11 4
22 9 25 5 3 12 21 15 39 3 18 15 43 26 55 11 12 20 28 20 36 0 8 5 18 10 21 6
3 10 14 10 25 0 10 7 21 16 24 9 3 14 13 10 21 -3 8 -1 17 4 20 12 7 40 65 40
82 0 7 5 13 10 13 6 0 10 9 10 19 0 11 5 23 10 26 6 3 10 13 10 22 0 14 20 66
41 105 5 10 9 26 9 35 -1 21 -33 63 -49 63 -5 0 -16 8 -23 18 -15 20 -52 42
-70 42 -7 0 -19 9 -26 20 -12 20 -82 60 -104 60 -7 0 -19 -12 -25 -27z m-252
-2305 c10 -13 18 -31 19 -41 0 -10 6 -20 14 -23 8 -3 12 -12 9 -20 -3 -8 0
-14 6 -14 6 0 11 -7 11 -15 0 -8 5 -15 10 -15 6 0 10 -7 10 -15 0 -8 5 -15 10
-15 6 0 10 -7 10 -15 0 -8 9 -30 20 -50 11 -19 17 -35 14 -35 -2 0 11 -30 30
-67 19 -38 40 -83 47 -101 7 -19 17 -39 23 -45 6 -7 27 -46 46 -87 19 -41 44
-89 57 -107 13 -17 23 -38 23 -47 0 -8 4 -17 9 -20 4 -3 14 -26 21 -50 7 -25
21 -53 31 -62 11 -9 19 -23 19 -31 0 -7 22 -59 49 -116 69 -146 81 -174 81
-186 0 -6 5 -11 10 -11 6 0 10 -7 10 -15 0 -8 4 -15 9 -15 12 0 43 -61 35 -69
-8 -8 -1240 -13 -1283 -6 -25 5 -31 9 -22 18 6 6 11 17 11 25 0 7 11 28 24 45
13 18 27 43 31 57 4 14 16 45 27 70 11 25 24 54 29 65 5 11 10 27 11 35 2 8 6
17 9 20 15 11 49 82 49 100 0 11 5 20 10 20 6 0 10 9 10 20 0 11 5 20 10 20 6
0 10 6 10 14 0 13 30 82 49 116 5 8 26 50 48 93 21 43 52 106 70 140 17 34 32
69 32 78 1 9 10 24 21 34 11 10 20 23 20 29 0 16 44 120 56 133 7 7 20 33 30
57 11 25 23 46 27 46 5 0 5 5 2 10 -3 6 1 10 9 10 9 0 16 8 16 18 0 19 18 42
33 42 5 0 17 -10 28 -22z"/>
</g>
</svg>
