<?xml version="1.0" standalone="no"?>
<!DOCTYPE svg PUBLIC "-//W3C//DTD SVG 20010904//EN"
 "http://www.w3.org/TR/2001/REC-SVG-20010904/DTD/svg10.dtd">
<svg version="1.0" xmlns="http://www.w3.org/2000/svg"
 width="400.000000pt" height="400.000000pt" viewBox="0 0 400.000000 400.000000"
 preserveAspectRatio="xMidYMid meet">
<metadata>
Created by potrace 1.15, written by Peter Selinger 2001-2017
</metadata>
<g transform="translate(0.000000,400.000000) scale(0.100000,-0.100000)"
fill="#000000" stroke="none">
<path d="M1316 3913 c-9 -43 -24 -104 -32 -135 -8 -32 -14 -66 -14 -75 0 -10
-5 -35 -11 -55 l-10 -38 -128 0 -128 0 -18 -67 c-9 -38 -20 -80 -22 -95 -3
-16 -9 -28 -15 -28 -5 0 -8 -6 -6 -12 1 -7 -1 -25 -5 -40 l-7 -28 -460 0
c-511 0 -478 5 -442 -68 99 -198 226 -362 311 -398 28 -12 293 -14 1791 -14
1291 0 1766 3 1791 11 60 21 78 53 79 140 0 47 -6 92 -16 115 -30 75 -47 109
-75 152 -16 24 -29 47 -29 53 0 5 -149 9 -385 9 l-385 0 0 129 0 129 -804 4
c-442 1 -808 6 -812 10 -4 4 0 36 9 70 20 84 54 235 61 276 l6 32 -113 0 -113
0 -18 -77z"/>
<path d="M1960 2410 c0 -4 -6 -7 -13 -7 -13 0 -172 -89 -197 -111 -8 -7 -30
-26 -49 -43 -18 -16 -39 -29 -46 -29 -6 0 -30 -13 -51 -28 -21 -16 -63 -41
-91 -58 -29 -16 -53 -32 -53 -36 0 -5 -6 -8 -14 -8 -8 0 -21 -7 -29 -15 -8 -8
-44 -31 -79 -52 -34 -20 -67 -41 -73 -45 -5 -5 -23 -20 -40 -33 -16 -14 -35
-25 -41 -25 -10 0 -21 -8 -70 -49 -29 -24 -93 -59 -98 -54 -3 4 -6 1 -6 -6 0
-7 -5 -9 -10 -6 -5 3 -10 1 -10 -6 0 -7 -2 -10 -6 -7 -3 3 -21 -10 -41 -28
-33 -31 -46 -38 -65 -35 -5 0 -8 -4 -8 -10 0 -5 -4 -7 -10 -4 -5 3 -10 2 -10
-3 0 -6 -11 -13 -25 -16 -14 -4 -25 -12 -25 -19 0 -7 -16 -21 -35 -30 -19 -9
-35 -22 -35 -27 0 -6 -4 -9 -9 -6 -5 3 -14 -1 -21 -9 -14 -17 -137 -88 -143
-83 -1 2 -20 -13 -40 -33 -21 -21 -51 -42 -67 -49 -17 -7 -30 -16 -30 -21 0
-5 -6 -9 -14 -9 -8 0 -21 -6 -28 -13 -7 -7 -46 -33 -86 -56 -39 -24 -72 -50
-72 -58 0 -8 -4 -12 -9 -9 -5 4 -11 2 -13 -2 -1 -5 -33 -28 -70 -51 -38 -24
-68 -46 -68 -50 0 -4 21 -23 48 -41 26 -18 59 -46 75 -62 15 -16 27 -26 27
-21 0 4 4 3 8 -4 4 -6 43 -35 87 -64 l80 -52 72 39 c40 21 73 42 73 45 0 4 11
10 25 13 14 4 41 22 59 41 31 32 62 51 148 90 21 10 38 22 38 27 0 5 5 6 10 3
6 -3 10 -2 10 3 0 6 25 24 56 42 31 17 65 40 76 50 10 9 37 25 58 35 22 10 40
21 40 25 0 4 14 13 30 20 17 7 30 16 30 20 0 10 88 60 114 66 11 2 23 10 28
17 4 8 21 20 38 27 16 7 30 16 30 20 0 4 46 34 103 66 56 31 104 61 105 66 2
4 10 8 18 8 9 0 13 4 10 8 -3 4 15 19 40 32 24 14 44 28 44 33 0 4 4 6 9 3 5
-3 12 1 15 10 3 8 10 12 16 9 5 -3 10 -1 10 5 0 6 5 8 10 5 6 -3 10 -2 10 2 0
5 35 29 78 53 42 24 82 50 87 57 6 7 26 21 45 31 19 10 45 24 57 32 20 13 27
13 57 -4 19 -10 44 -27 54 -37 11 -10 23 -15 26 -12 3 4 6 1 6 -6 0 -7 5 -9
10 -6 6 3 10 2 10 -3 0 -6 38 -32 85 -58 47 -26 85 -52 85 -56 0 -5 5 -6 10
-3 6 3 10 1 10 -5 0 -6 4 -9 9 -5 6 3 13 -1 18 -8 4 -8 22 -21 38 -30 17 -8
41 -24 55 -36 14 -11 30 -24 35 -29 6 -4 48 -30 95 -56 46 -27 91 -55 98 -63
8 -7 32 -23 53 -34 21 -10 39 -24 39 -29 0 -6 3 -9 8 -8 10 4 122 -55 122 -64
0 -4 15 -15 33 -24 17 -9 34 -20 37 -24 3 -4 19 -14 37 -23 17 -9 37 -23 45
-31 8 -7 40 -28 71 -46 31 -17 57 -36 57 -42 0 -5 5 -6 10 -3 6 3 10 1 10 -5
0 -6 5 -8 10 -5 6 3 10 1 10 -5 0 -6 5 -8 10 -5 6 3 10 2 10 -2 0 -5 26 -22
58 -37 31 -16 68 -41 82 -55 32 -34 201 -131 228 -131 22 0 149 75 169 100 7
8 13 11 13 7 0 -5 12 5 28 21 15 16 48 43 75 61 26 18 47 36 47 41 0 6 -28 27
-62 47 -33 21 -70 48 -81 60 -11 13 -52 42 -91 65 -39 23 -77 48 -84 55 -7 7
-20 13 -28 13 -8 0 -14 4 -14 9 0 5 -13 14 -30 21 -16 7 -45 27 -64 45 -19 18
-37 30 -40 27 -4 -3 -6 0 -6 6 0 7 -3 11 -7 10 -5 -1 -28 9 -52 22 -24 14 -54
31 -67 38 -13 7 -24 18 -24 23 0 6 -4 7 -10 4 -5 -3 -10 -2 -10 3 0 4 -17 18
-37 30 -21 11 -46 30 -56 42 -10 11 -22 18 -27 15 -6 -4 -13 1 -16 9 -3 9 -10
13 -15 11 -4 -3 -17 3 -29 15 -11 11 -20 18 -20 15 0 -6 -16 6 -50 37 -10 9
-21 14 -24 11 -3 -4 -6 -1 -6 5 0 7 -3 11 -7 10 -14 -4 -94 43 -89 51 3 4 -19
20 -49 35 -30 14 -66 37 -81 51 -15 14 -33 25 -40 25 -8 0 -14 4 -14 10 0 5
-11 12 -25 16 -14 3 -25 10 -25 14 0 4 -14 13 -30 20 -17 7 -34 18 -38 25 -4
7 -43 33 -87 59 -140 83 -201 121 -219 136 -9 8 -23 21 -31 28 -8 7 -15 10
-15 5 0 -4 -6 -1 -13 8 -7 9 -41 31 -77 50 -36 19 -67 37 -68 42 -2 4 -8 5
-13 1 -5 -3 -9 0 -9 6 0 6 -4 8 -10 5 -5 -3 -10 -2 -10 3 0 5 -18 9 -40 9 -22
0 -40 -3 -40 -7z"/>
<path d="M1970 1781 c0 -11 -71 -57 -82 -53 -5 1 -8 -3 -8 -9 0 -5 -4 -7 -10
-4 -5 3 -10 1 -10 -4 0 -6 -6 -11 -13 -11 -7 0 -24 -9 -37 -20 -42 -33 -93
-68 -140 -96 -25 -15 -55 -33 -67 -41 -13 -7 -24 -12 -25 -11 -3 2 -37 -24
-62 -48 -6 -6 -33 -23 -61 -39 -27 -16 -52 -32 -55 -35 -3 -3 -30 -18 -60 -34
-67 -36 -117 -70 -139 -93 -18 -20 -17 -20 -155 -100 -54 -32 -103 -57 -107
-56 -5 2 -9 -2 -9 -8 0 -5 -4 -8 -9 -4 -5 3 -12 -3 -16 -14 -3 -10 -19 -24
-35 -31 -17 -7 -30 -17 -30 -22 0 -5 -12 -14 -27 -21 -60 -26 -163 -89 -163
-100 0 -5 -3 -8 -6 -4 -6 6 -21 -4 -54 -37 -19 -19 -20 -37 -20 -453 l0 -433
480 0 480 0 0 330 0 330 460 0 460 0 0 -330 0 -330 495 0 495 0 0 328 c0 404
-7 536 -29 556 -9 8 -26 24 -37 34 -12 11 -76 51 -143 88 -84 48 -121 74 -121
87 0 10 -4 15 -10 12 -5 -3 -10 -1 -10 4 0 6 -4 10 -9 8 -4 -1 -54 25 -110 58
-56 33 -112 65 -124 72 -11 6 -34 24 -49 38 -33 31 -187 125 -205 125 -7 0
-13 4 -13 9 0 5 -13 14 -29 21 -16 6 -37 19 -47 28 -27 24 -132 92 -142 92 -5
0 -30 16 -55 35 -25 19 -51 35 -56 35 -6 0 -11 4 -11 9 0 5 -14 14 -30 21 -17
7 -34 18 -38 25 -4 6 -40 29 -79 50 -40 22 -73 43 -73 47 0 4 -11 8 -25 8 -14
0 -25 -4 -25 -9z"/>
</g>
</svg>
