<?xml version="1.0" standalone="no"?>
<!DOCTYPE svg PUBLIC "-//W3C//DTD SVG 20010904//EN"
 "http://www.w3.org/TR/2001/REC-SVG-20010904/DTD/svg10.dtd">
<svg version="1.0" xmlns="http://www.w3.org/2000/svg"
 width="400.000000pt" height="400.000000pt" viewBox="0 0 400.000000 400.000000"
 preserveAspectRatio="xMidYMid meet">
<metadata>
Created by potrace 1.15, written by Peter Selinger 2001-2017
</metadata>
<g transform="translate(0.000000,400.000000) scale(0.100000,-0.100000)"
fill="#000000" stroke="none">
<path d="M1899 3981 c-64 -20 -120 -69 -173 -153 -20 -31 -36 -59 -36 -62 0
-15 -73 -156 -81 -156 -5 0 -8 -3 -7 -7 2 -11 -12 -43 -84 -188 -36 -71 -84
-168 -107 -215 -71 -142 -82 -162 -96 -172 -5 -4 -6 -8 -2 -8 9 0 -103 -221
-116 -231 -5 -3 -9 -9 -9 -12 0 -20 -12 -47 -21 -47 -6 0 -8 -3 -4 -6 6 -6
-242 -505 -256 -515 -5 -3 -8 -9 -7 -13 3 -9 -272 -559 -283 -567 -5 -3 -8 -9
-7 -13 2 -12 -123 -256 -131 -256 -5 0 -8 -3 -7 -7 3 -13 -13 -53 -21 -53 -4
0 -8 -6 -8 -12 0 -7 -39 -92 -88 -188 -48 -96 -93 -186 -99 -199 -6 -13 -35
-71 -65 -130 -96 -190 -111 -221 -111 -231 0 -6 -4 -10 -10 -10 -5 0 -10 -5
-10 -11 0 -7 -10 -28 -22 -48 -30 -48 -31 -50 -35 -179 -4 -101 -2 -117 18
-158 26 -51 73 -106 106 -123 33 -17 3720 -15 3749 2 32 19 82 80 104 128 28
62 28 225 0 287 -10 23 -16 42 -12 42 4 0 2 4 -5 8 -13 8 -145 262 -137 262 3
0 -2 7 -10 16 -9 8 -14 19 -11 24 3 5 1 10 -3 12 -5 1 -29 44 -53 93 -25 50
-63 126 -85 170 -60 116 -126 253 -127 262 0 4 -7 14 -14 21 -7 8 -11 17 -8
22 3 5 1 10 -3 12 -8 3 -63 108 -144 273 -40 82 -120 240 -156 310 -60 115
-110 224 -105 229 4 3 1 6 -5 6 -10 0 -23 25 -21 44 0 5 -6 13 -15 18 -9 5
-16 14 -16 21 0 7 -13 37 -30 67 -16 30 -52 102 -81 160 -28 58 -69 140 -90
183 -22 42 -36 77 -32 77 5 0 3 4 -3 8 -16 10 -143 259 -136 266 3 3 1 6 -5 6
-9 0 -21 27 -21 47 0 3 -4 9 -9 12 -9 6 -43 74 -43 86 0 4 -9 19 -19 34 -10
14 -21 35 -23 46 -1 11 -10 28 -18 37 -8 9 -27 41 -41 70 -84 171 -113 234
-111 241 1 4 -2 7 -7 7 -8 0 -24 37 -22 53 1 4 -3 7 -8 7 -5 0 -11 10 -15 23
-10 41 -106 191 -144 225 -20 18 -59 39 -86 47 -52 16 -163 19 -207 6z m241
-881 c67 -135 126 -254 132 -265 7 -11 145 -285 308 -610 163 -324 302 -599
308 -610 6 -11 99 -195 205 -410 107 -214 211 -421 230 -460 62 -122 117 -237
117 -246 0 -5 -606 -9 -1440 -9 -1219 0 -1440 2 -1440 14 0 7 139 290 309 627
169 338 349 697 400 799 51 102 117 235 148 295 30 61 172 343 315 628 214
425 263 516 274 505 7 -7 67 -123 134 -258z"/>
<path d="M1915 2811 c-38 -22 -79 -71 -105 -122 -19 -37 -20 -63 -20 -662 l0
-624 24 -45 c31 -59 62 -91 113 -117 53 -27 93 -27 146 0 51 26 80 58 112 124
l25 50 0 605 c0 549 -2 609 -17 653 -22 60 -76 125 -120 143 -46 20 -122 18
-158 -5z"/>
<path d="M1940 1080 c0 -5 -7 -10 -15 -10 -23 0 -84 -59 -107 -104 -30 -59
-36 -160 -12 -225 46 -130 168 -189 275 -135 30 15 77 71 104 124 26 49 23
174 -4 225 -28 52 -77 104 -106 111 -14 3 -25 10 -25 15 0 5 -25 9 -55 9 -30
0 -55 -4 -55 -10z"/>
</g>
</svg>
