<?xml version="1.0" standalone="no"?>
<!DOCTYPE svg PUBLIC "-//W3C//DTD SVG 20010904//EN"
 "http://www.w3.org/TR/2001/REC-SVG-20010904/DTD/svg10.dtd">
<svg version="1.0" xmlns="http://www.w3.org/2000/svg"
 width="400.000000pt" height="400.000000pt" viewBox="0 0 400.000000 400.000000"
 preserveAspectRatio="xMidYMid meet">
<metadata>
Created by potrace 1.15, written by Peter Selinger 2001-2017
</metadata>
<g transform="translate(0.000000,400.000000) scale(0.100000,-0.100000)"
fill="#000000" stroke="none">
<path d="M724 3979 c-44 -12 -68 -66 -61 -130 7 -60 29 -94 69 -108 21 -8 259
-11 734 -11 l704 0 0 -185 0 -185 -685 0 c-644 0 -686 1 -691 18 -21 62 -75
152 -118 196 -63 65 -104 89 -193 112 -67 17 -72 17 -144 0 -69 -17 -105 -37
-172 -95 -43 -38 -115 -150 -138 -216 -27 -75 -37 -252 -20 -348 26 -150 137
-299 268 -359 57 -27 80 -32 143 -32 64 0 85 4 141 32 61 29 109 71 150 129
l16 23 69 -34 c87 -43 268 -130 404 -194 58 -27 155 -73 215 -102 61 -29 131
-62 157 -74 41 -18 49 -27 59 -61 21 -78 72 -235 114 -355 21 -58 80 -137 116
-155 22 -12 78 -15 279 -15 l250 0 0 -170 0 -169 -341 -3 -340 -3 -19 -25
c-23 -30 -25 -61 -6 -99 l15 -28 143 -6 c186 -9 1209 -9 1597 0 l302 6 47 61
c26 34 52 68 57 77 6 9 40 55 77 101 72 91 84 119 74 174 -8 42 -43 63 -79 47
-12 -6 -74 -76 -137 -157 l-115 -146 -292 0 -293 0 0 170 0 170 310 0 c338 0
355 2 413 58 63 60 72 87 71 212 0 119 0 120 -71 345 -14 44 -31 96 -38 115
-7 19 -34 100 -60 180 -49 152 -66 196 -90 243 -8 16 -15 34 -15 41 0 7 -13
32 -30 54 -16 23 -30 45 -30 49 0 14 -134 137 -165 153 -17 8 -38 21 -47 28
-45 37 -122 44 -560 49 l-428 5 0 188 0 187 713 6 c391 3 720 8 729 12 53 21
73 152 33 207 l-20 27 -1520 0 c-880 -1 -1533 -5 -1551 -10z m2246 -2319 l0
-170 -235 0 -235 0 0 170 0 170 235 0 235 0 0 -170z"/>
<path d="M2106 1050 c-269 -21 -505 -52 -646 -87 -36 -9 -83 -19 -105 -24
-137 -27 -385 -130 -471 -195 -55 -42 -63 -51 -105 -113 -81 -123 14 -263 266
-389 72 -36 282 -100 415 -126 351 -70 477 -81 925 -80 361 1 591 15 719 44
25 5 74 14 108 20 168 25 389 91 523 156 176 84 265 179 265 284 0 200 -336
372 -895 458 -344 54 -718 73 -999 52z m489 -219 c341 -20 631 -124 659 -236
13 -51 -49 -120 -144 -162 -55 -25 -178 -63 -219 -68 -16 -2 -65 -12 -108 -21
-119 -26 -652 -26 -773 0 -47 10 -95 20 -107 21 -43 6 -185 56 -241 86 -105
57 -141 115 -103 167 59 83 207 149 426 187 186 33 358 41 610 26z"/>
</g>
</svg>
