<?xml version="1.0" standalone="no"?>
<!DOCTYPE svg PUBLIC "-//W3C//DTD SVG 20010904//EN"
 "http://www.w3.org/TR/2001/REC-SVG-20010904/DTD/svg10.dtd">
<svg version="1.0" xmlns="http://www.w3.org/2000/svg"
 width="400.000000pt" height="400.000000pt" viewBox="0 0 400.000000 400.000000"
 preserveAspectRatio="xMidYMid meet">
<metadata>
Created by potrace 1.15, written by Peter Selinger 2001-2017
</metadata>
<g transform="translate(0.000000,400.000000) scale(0.100000,-0.100000)"
fill="#000000" stroke="none">
<path d="M850 3976 c-118 -28 -258 -120 -306 -202 -22 -37 -31 -44 -48 -40
-68 20 -145 18 -217 -4 -114 -34 -177 -89 -236 -204 -34 -67 -35 -73 -31 -157
4 -77 8 -93 39 -144 117 -195 335 -242 541 -115 l49 31 122 -119 c67 -65 139
-131 161 -146 56 -42 128 -66 215 -73 148 -11 257 31 392 152 60 53 94 77 119
81 128 21 229 59 298 112 l44 33 93 -56 c51 -30 112 -62 135 -70 49 -17 234
-21 274 -5 40 15 54 3 92 -76 31 -66 99 -144 126 -144 4 0 8 -4 8 -10 0 -6
-75 -11 -192 -12 -209 -3 -191 2 -202 -58 -1 -8 -5 -22 -9 -30 -3 -8 -45 -213
-92 -455 -47 -242 -93 -475 -102 -518 l-16 -77 -26 16 c-14 10 -123 89 -240
177 -118 89 -236 175 -262 191 -25 17 -70 51 -99 76 -29 25 -71 57 -94 73 -22
15 -49 33 -59 40 -11 6 -45 31 -78 54 -32 24 -63 43 -69 43 -5 0 -11 -28 -11
-62 -1 -35 -4 -187 -8 -338 l-6 -275 -28 28 c-15 15 -30 27 -32 27 -2 0 -189
140 -417 310 -227 171 -418 310 -424 310 -16 0 -23 -660 -16 -1579 l5 -761
1873 0 1874 0 0 1405 0 1405 -71 0 -72 0 56 53 c45 43 59 65 72 111 20 67 15
106 -21 170 -30 53 -90 105 -154 133 -40 18 -47 26 -63 72 -33 94 -94 142
-209 166 -19 4 -37 22 -63 64 -45 74 -107 121 -203 151 -92 29 -164 23 -265
-21 l-72 -32 -55 30 c-30 17 -67 33 -82 37 -15 3 -35 19 -45 34 -21 34 -74 92
-85 92 -4 0 -31 14 -59 31 -148 87 -269 104 -394 55 -38 -15 -83 -33 -99 -39
-16 -6 -49 -25 -72 -43 -35 -27 -44 -30 -55 -19 -34 33 -232 117 -306 129 -22
4 -69 2 -103 -4 -72 -13 -216 -77 -244 -108 -25 -28 -28 -28 -79 11 -24 18
-65 41 -92 51 -28 10 -54 22 -60 26 -13 11 -121 30 -159 29 -17 0 -56 -6 -86
-13z m2573 -923 c57 -18 60 -20 90 -82 18 -35 51 -84 74 -108 24 -24 43 -46
43 -48 0 -3 -82 -6 -182 -7 l-181 -3 -54 -280 c-29 -154 -58 -289 -64 -301 -6
-11 -9 -24 -8 -30 1 -5 -1 -16 -4 -24 -11 -26 -70 -344 -69 -372 0 -16 -4 -28
-9 -28 -5 0 -9 205 -9 520 l0 520 -66 0 -66 0 55 55 c38 39 58 68 67 100 7 25
17 48 23 52 5 3 49 10 97 14 48 4 109 17 136 28 27 11 54 18 59 16 6 -2 36
-12 68 -22z"/>
</g>
</svg>
