<?xml version="1.0" standalone="no"?>
<!DOCTYPE svg PUBLIC "-//W3C//DTD SVG 20010904//EN"
 "http://www.w3.org/TR/2001/REC-SVG-20010904/DTD/svg10.dtd">
<svg version="1.0" xmlns="http://www.w3.org/2000/svg"
 width="400.000000pt" height="400.000000pt" viewBox="0 0 400.000000 400.000000"
 preserveAspectRatio="xMidYMid meet">
<metadata>
Created by potrace 1.15, written by Peter Selinger 2001-2017
</metadata>
<g transform="translate(0.000000,400.000000) scale(0.100000,-0.100000)"
fill="#000000" stroke="none">
<path d="M1945 3986 c-17 -7 -39 -25 -48 -39 -16 -24 -17 -138 -17 -1576 l0
-1550 22 -24 c46 -48 103 -60 157 -33 59 31 56 -8 61 715 l5 666 70 3 c69 3
226 -18 295 -40 60 -19 129 -44 320 -117 257 -97 309 -110 455 -110 134 0 194
12 368 70 101 34 270 112 345 159 l22 15 0 872 c0 480 -2 873 -5 873 -3 0 -22
-10 -43 -23 -164 -103 -390 -185 -584 -212 -117 -17 -173 -14 -313 19 -22 5
-239 81 -270 95 -11 5 -37 17 -58 26 -88 39 -282 98 -360 111 -18 2 -81 8
-142 12 -61 4 -110 11 -110 17 -1 23 -27 54 -59 69 -41 19 -70 20 -111 2z"/>
<path d="M1450 1229 c-166 -13 -465 -57 -595 -88 -22 -6 -62 -15 -89 -21 -28
-5 -64 -15 -80 -20 -274 -88 -253 -81 -366 -134 -62 -29 -108 -55 -128 -73 -7
-7 -17 -13 -21 -13 -4 0 -34 -25 -65 -56 -101 -98 -129 -200 -80 -296 23 -45
119 -139 185 -180 52 -33 181 -98 194 -98 4 0 21 -6 38 -14 58 -26 252 -87
342 -107 28 -6 55 -12 60 -13 10 -3 23 -5 185 -36 209 -39 343 -52 723 -71
390 -20 887 9 1217 71 162 31 175 33 185 36 6 1 33 7 60 13 90 20 284 81 342
107 17 8 34 14 38 14 13 0 141 65 195 98 66 41 161 134 184 180 49 96 21 198
-80 296 -31 31 -61 56 -65 56 -4 0 -14 6 -21 13 -68 61 -386 188 -573 227 -27
6 -68 15 -90 21 -71 17 -137 28 -285 49 -80 11 -174 24 -210 30 -36 5 -111 12
-167 15 l-103 6 0 -64 0 -64 108 -7 c228 -14 591 -66 732 -105 49 -14 113 -31
125 -34 205 -54 383 -169 400 -260 17 -90 -86 -182 -300 -267 -53 -21 -283
-83 -355 -95 -19 -4 -60 -11 -90 -16 -572 -103 -1461 -102 -2005 1 -33 6 -74
13 -90 16 -29 4 -188 45 -300 77 -83 24 -223 94 -275 137 -95 79 -101 147 -23
231 60 64 210 140 348 176 6 1 26 7 45 12 116 31 154 40 230 54 226 41 523 77
628 77 l62 0 0 65 0 65 -37 -2 c-21 -1 -81 -5 -133 -9z"/>
</g>
</svg>
