<?xml version="1.0" standalone="no"?>
<!DOCTYPE svg PUBLIC "-//W3C//DTD SVG 20010904//EN"
 "http://www.w3.org/TR/2001/REC-SVG-20010904/DTD/svg10.dtd">
<svg version="1.0" xmlns="http://www.w3.org/2000/svg"
 width="400.000000pt" height="400.000000pt" viewBox="0 0 400.000000 400.000000"
 preserveAspectRatio="xMidYMid meet">
<metadata>
Created by potrace 1.15, written by Peter Selinger 2001-2017
</metadata>
<g transform="translate(0.000000,400.000000) scale(0.100000,-0.100000)"
fill="#000000" stroke="none">
<path d="M470 3870 c-73 -11 -170 -41 -170 -53 0 -5 -6 -7 -14 -4 -16 6 -110
-86 -99 -97 4 -4 3 -10 -3 -14 -14 -9 -40 -90 -53 -166 -15 -83 -15 -3010 0
-3092 14 -79 41 -164 51 -164 5 0 7 -4 4 -8 -3 -5 15 -28 39 -52 25 -24 45
-40 45 -35 0 6 4 5 8 -1 9 -14 90 -40 166 -53 83 -15 3030 -15 3112 0 79 14
164 41 164 51 0 5 4 7 10 3 12 -8 93 73 85 85 -4 6 -2 10 3 10 10 0 37 85 51
164 15 80 15 3008 1 3092 -13 77 -43 174 -53 174 -5 0 -5 4 -2 10 8 13 -82
103 -95 95 -6 -3 -10 -3 -10 2 0 11 -102 41 -180 53 -78 12 -2978 11 -3060 0z
m2000 -965 l0 -385 390 0 390 0 0 -425 0 -425 -385 0 -385 0 0 -385 0 -385
-425 0 -425 0 0 385 0 385 -387 2 -388 3 0 420 0 420 388 3 387 2 0 385 0 385
420 0 420 0 0 -385z"/>
</g>
</svg>
