<?xml version="1.0" standalone="no"?>
<!DOCTYPE svg PUBLIC "-//W3C//DTD SVG 20010904//EN"
 "http://www.w3.org/TR/2001/REC-SVG-20010904/DTD/svg10.dtd">
<svg version="1.0" xmlns="http://www.w3.org/2000/svg"
 width="400.000000pt" height="400.000000pt" viewBox="0 0 400.000000 400.000000"
 preserveAspectRatio="xMidYMid meet">
<metadata>
Created by potrace 1.15, written by Peter Selinger 2001-2017
</metadata>
<g transform="translate(0.000000,400.000000) scale(0.100000,-0.100000)"
fill="#000000" stroke="none">
<path d="M1910 3974 c-25 -3 -52 -7 -60 -11 -8 -3 -23 -5 -33 -4 -10 1 -24 -2
-30 -7 -7 -5 -36 -13 -64 -17 -29 -4 -55 -11 -59 -16 -3 -5 -13 -9 -22 -9 -9
0 -29 -6 -43 -14 -14 -7 -39 -16 -55 -20 -35 -8 -98 -38 -102 -48 -2 -5 -11
-8 -19 -8 -15 0 -102 -39 -113 -50 -10 -10 -45 -31 -77 -45 -18 -9 -33 -20
-33 -25 0 -6 -6 -10 -13 -10 -7 0 -28 -13 -47 -30 -19 -16 -41 -29 -48 -30 -7
0 -15 -7 -18 -15 -4 -8 -12 -15 -20 -15 -26 0 -374 -360 -374 -388 0 -5 -9
-17 -20 -27 -11 -10 -20 -24 -20 -31 0 -7 -6 -17 -13 -21 -8 -4 -17 -15 -20
-23 -4 -8 -18 -33 -31 -55 -35 -58 -76 -142 -76 -154 0 -6 -4 -11 -9 -11 -5 0
-12 -12 -16 -27 -3 -15 -15 -46 -26 -70 -10 -23 -19 -49 -19 -57 0 -8 -4 -18
-10 -21 -5 -3 -12 -28 -16 -55 -4 -28 -10 -50 -14 -50 -4 0 -13 -39 -20 -87
-7 -49 -17 -93 -21 -98 -4 -6 -11 -54 -15 -108 -4 -54 -11 -100 -15 -103 -13
-8 -11 -354 1 -354 6 0 10 -13 10 -29 0 -52 8 -61 56 -61 24 0 44 4 44 9 0 4
31 11 69 15 l68 7 5 276 c3 172 9 278 16 282 5 3 13 32 17 64 4 31 11 57 15
57 4 0 10 22 14 50 4 27 11 52 16 55 6 4 8 10 5 15 -3 4 2 21 10 36 8 16 15
37 15 47 0 9 5 17 10 17 6 0 10 10 10 23 0 23 16 55 23 47 2 -3 10 -41 16 -85
6 -43 15 -82 20 -85 4 -3 11 -23 14 -45 4 -22 11 -41 17 -43 5 -2 10 -14 10
-26 0 -12 6 -30 13 -41 7 -11 19 -36 27 -55 7 -19 24 -49 37 -67 12 -17 23
-36 23 -41 0 -15 170 -172 186 -172 8 0 14 -5 14 -10 0 -6 3 -9 8 -8 4 1 21
-4 37 -12 17 -7 46 -19 65 -28 19 -8 42 -18 50 -22 9 -4 31 -11 50 -15 19 -4
41 -11 50 -15 8 -4 45 -22 82 -40 37 -19 82 -48 100 -67 27 -28 32 -40 32 -82
0 -47 -4 -54 -55 -108 -30 -32 -61 -61 -70 -65 -10 -4 -20 -12 -25 -19 -11
-18 45 -61 74 -56 12 2 22 0 22 -6 0 -13 159 -2 173 12 6 6 17 11 25 11 8 0
28 6 45 14 52 22 71 29 81 27 4 -1 13 2 20 8 6 5 30 12 53 16 24 4 45 10 48
15 3 5 24 11 48 15 23 4 47 11 52 15 6 4 27 10 48 14 20 4 37 11 37 16 0 5
-17 17 -37 26 -104 45 -211 99 -240 120 -17 13 -36 24 -42 24 -14 0 -66 110
-63 132 2 9 -1 19 -7 22 -5 4 -13 38 -17 76 -4 39 -11 73 -15 76 -5 3 -9 31
-9 63 0 58 -18 91 -49 91 -6 0 -14 7 -17 15 -7 16 -59 21 -68 6 -3 -5 -30 -12
-61 -16 -30 -3 -57 -11 -60 -16 -19 -30 -125 31 -125 71 0 10 -4 22 -10 25 -5
3 -10 24 -10 45 0 21 5 42 10 45 6 3 10 13 10 22 0 25 77 114 117 135 31 17
50 20 111 16 41 -3 77 -9 81 -14 3 -5 17 -15 31 -22 37 -18 63 -35 86 -57 11
-11 27 -24 36 -30 9 -5 49 -39 90 -75 70 -61 78 -65 121 -64 47 1 97 25 97 45
0 6 11 24 25 41 14 16 25 36 25 44 0 8 4 14 9 14 5 0 11 19 15 42 4 23 11 48
17 54 18 21 7 96 -16 108 -11 6 -24 17 -28 24 -4 6 -14 12 -22 12 -8 0 -21 15
-30 33 -14 30 -14 36 0 65 18 35 142 152 162 152 7 0 13 4 13 10 0 5 12 16 28
24 15 8 46 33 70 54 55 52 57 90 7 146 -33 37 -50 50 -105 78 -14 7 -27 15
-30 18 -8 8 -42 29 -70 42 -14 7 -27 15 -30 18 -3 3 -16 11 -30 18 -53 27 -70
39 -104 78 -22 24 -36 49 -36 66 0 23 8 32 48 50 44 22 59 23 263 23 167 0
220 -3 232 -14 9 -7 23 -11 32 -8 8 4 17 2 19 -2 3 -5 24 -11 46 -15 22 -3 40
-10 40 -15 0 -5 14 -11 31 -15 36 -7 169 -111 169 -132 0 -8 4 -14 8 -14 10 0
62 -77 62 -91 0 -5 4 -9 9 -9 5 0 13 -15 16 -32 4 -18 12 -38 17 -45 5 -7 7
-17 4 -22 -4 -5 -2 -12 3 -15 5 -4 13 -35 16 -71 4 -36 11 -65 16 -65 12 0 12
-97 0 -104 -5 -3 -12 -22 -15 -41 -5 -25 -29 -59 -79 -113 -73 -79 -80 -85
-133 -112 -16 -8 -31 -17 -34 -20 -10 -10 -75 -39 -102 -46 -15 -3 -29 -12
-32 -20 -3 -8 -12 -14 -20 -14 -8 0 -23 -11 -34 -25 -11 -14 -25 -25 -31 -25
-6 0 -11 -7 -11 -15 0 -7 -6 -18 -12 -22 -20 -12 -58 -70 -58 -87 0 -8 -4 -18
-10 -21 -5 -3 -10 -37 -10 -75 0 -38 5 -72 10 -75 6 -3 10 -14 10 -24 0 -17
39 -61 53 -61 4 0 24 -11 45 -24 20 -12 42 -24 47 -26 6 -1 29 -16 53 -32 23
-16 42 -26 42 -22 0 14 61 -51 76 -81 9 -16 19 -64 23 -105 5 -41 16 -88 26
-105 19 -31 77 -75 100 -75 7 0 15 -5 17 -11 2 -7 36 -14 81 -17 42 -2 77 -8
77 -12 0 -4 13 -10 30 -13 40 -9 130 -103 130 -138 0 -25 -45 -79 -67 -79 -6
0 -13 -7 -17 -15 -3 -8 -16 -19 -30 -24 -32 -13 -66 -86 -66 -143 0 -49 18
-71 87 -109 37 -20 68 -76 53 -94 -6 -7 -13 -43 -17 -79 -3 -37 -9 -69 -14
-71 -4 -3 -1 -18 7 -33 7 -15 14 -33 14 -39 0 -7 5 -13 10 -13 17 0 11 -35 -9
-57 -32 -34 -107 -93 -119 -93 -7 0 -17 -9 -24 -20 -7 -11 -17 -20 -22 -20 -5
0 -23 -11 -41 -24 -17 -13 -47 -31 -66 -40 -19 -9 -52 -26 -74 -37 -69 -36
-99 -49 -132 -55 -18 -4 -33 -10 -33 -14 0 -5 -18 -11 -40 -15 -22 -4 -42 -11
-45 -15 -3 -5 -26 -12 -50 -16 -25 -3 -48 -10 -51 -15 -3 -5 -15 -9 -28 -9
-40 0 -46 -18 -46 -131 0 -129 3 -134 92 -126 33 3 64 10 67 15 3 5 27 12 54
16 26 4 47 11 47 16 0 4 18 11 40 15 22 4 42 10 45 15 3 4 21 11 40 14 19 4
35 11 35 15 0 5 16 12 35 15 19 4 35 11 35 16 0 6 3 9 8 8 17 -3 112 41 132
62 3 3 16 11 30 18 39 19 64 36 73 49 4 7 14 13 22 13 7 0 22 11 33 25 11 14
24 25 29 25 11 0 246 217 252 232 2 6 27 36 56 67 85 91 124 142 142 181 3 8
18 31 33 50 14 19 31 46 38 60 7 14 30 59 52 100 22 41 40 79 40 85 0 5 6 22
14 36 7 15 19 50 27 78 7 28 16 51 20 51 4 0 11 21 15 48 3 26 10 52 14 57 5
6 11 33 15 60 4 28 13 56 19 64 16 20 16 722 0 742 -7 8 -15 42 -19 77 -4 34
-11 62 -15 62 -4 0 -11 17 -15 38 -4 20 -11 42 -17 49 -5 7 -7 17 -4 22 4 5 2
12 -3 15 -5 3 -12 21 -15 40 -4 20 -13 48 -21 63 -8 15 -15 34 -15 41 0 6 -4
12 -10 12 -5 0 -10 5 -10 12 0 6 -19 48 -41 92 -62 122 -74 142 -103 180 -14
19 -26 39 -26 44 0 5 -7 15 -15 22 -8 6 -28 32 -44 56 -33 51 -250 284 -263
284 -5 0 -21 14 -35 30 -13 17 -31 30 -38 30 -8 0 -22 10 -32 23 -18 21 -38
35 -92 63 -13 7 -27 16 -30 21 -8 11 -36 28 -101 60 -30 15 -57 31 -60 35 -3
3 -19 10 -35 14 -17 4 -32 10 -35 13 -9 11 -75 40 -105 47 -16 4 -34 10 -40
14 -5 5 -28 11 -50 15 -22 4 -45 11 -50 16 -6 4 -35 11 -65 15 -30 4 -60 11
-67 16 -7 5 -27 8 -45 7 -18 -2 -38 0 -45 4 -13 8 -445 17 -513 11z"/>
<path d="M450 1594 c-14 -7 -32 -14 -41 -14 -9 0 -22 -7 -29 -15 -7 -8 -17
-15 -23 -15 -6 0 -22 -12 -34 -27 -28 -32 -30 -83 -5 -110 24 -28 128 -113
136 -113 4 0 34 -20 66 -45 32 -25 63 -45 70 -45 6 0 13 -7 16 -15 4 -8 11
-15 16 -15 6 0 27 -13 47 -28 20 -16 44 -32 54 -35 9 -4 17 -11 17 -17 0 -5 5
-10 11 -10 7 0 30 -15 53 -33 23 -19 49 -36 59 -40 9 -3 17 -10 17 -15 0 -5
-47 -33 -104 -61 -58 -29 -106 -55 -108 -59 -2 -4 -32 -22 -68 -40 -65 -32
-100 -40 -100 -23 0 5 -12 12 -27 16 -15 3 -30 10 -33 14 -3 4 -57 32 -120 63
-98 48 -124 57 -177 59 -35 1 -66 -1 -70 -4 -3 -4 -14 -7 -23 -7 -35 0 -53
-35 -48 -97 3 -31 10 -59 16 -61 7 -2 12 -14 12 -27 0 -13 5 -27 11 -30 5 -4
26 -40 44 -80 19 -41 39 -77 45 -80 17 -11 11 -61 -10 -80 -11 -10 -20 -24
-20 -30 0 -7 -7 -18 -15 -25 -19 -16 -19 -70 0 -106 8 -16 15 -25 15 -21 0 4
17 -5 37 -20 36 -27 40 -28 150 -26 63 1 120 6 126 11 7 6 39 13 72 17 33 4
66 12 72 17 7 6 24 8 38 6 14 -3 28 -2 30 2 3 4 32 10 64 14 33 4 63 11 66 16
3 4 28 11 55 15 27 4 52 11 55 15 3 5 30 12 60 15 30 4 55 11 55 15 0 4 25 11
55 15 30 3 57 10 60 15 3 5 26 12 50 16 25 3 48 10 50 15 3 4 26 11 50 15 25
3 47 10 50 14 3 5 23 11 45 15 22 4 40 11 40 16 0 4 23 11 50 15 28 4 50 10
50 14 0 5 18 11 40 15 22 4 42 10 45 15 3 5 23 11 45 15 22 4 42 11 45 15 3 5
12 7 19 4 8 -3 17 -1 21 5 3 6 14 11 23 11 9 0 29 6 44 14 15 8 41 17 59 21
19 4 40 11 49 15 71 34 89 41 118 46 17 4 32 10 32 15 0 4 16 11 35 15 19 3
35 10 35 14 0 4 12 11 28 14 15 4 41 13 57 21 119 54 176 81 215 102 25 13 57
29 73 35 15 7 27 16 27 20 0 4 5 8 11 8 6 0 40 22 75 50 35 27 66 50 69 50 9
0 96 92 124 130 28 39 39 130 21 183 -11 35 -87 110 -106 106 -5 -1 -17 1 -26
5 -10 5 -26 5 -35 1 -10 -5 -22 -9 -28 -10 -21 -3 -58 -19 -200 -87 -38 -18
-71 -36 -73 -40 -2 -5 -11 -8 -20 -8 -10 0 -34 -9 -55 -20 l-37 -20 0 30 c0
20 6 33 18 37 9 4 19 9 22 13 3 3 55 30 117 60 62 30 113 61 113 68 0 16 -225
17 -235 1 -4 -6 -24 -9 -46 -8 -21 2 -41 0 -45 -4 -4 -4 -20 -7 -35 -7 -15 0
-31 -5 -34 -10 -4 -6 -10 -8 -15 -5 -5 3 -11 1 -15 -5 -3 -5 -18 -10 -33 -10
-15 0 -39 -6 -54 -14 -15 -8 -42 -17 -60 -21 -18 -4 -37 -11 -43 -15 -5 -4
-26 -10 -45 -14 -19 -3 -48 -12 -65 -20 -16 -8 -43 -20 -59 -27 -34 -16 -176
-16 -185 0 -3 5 -34 13 -69 17 -34 3 -62 10 -62 14 0 4 -25 11 -55 15 -30 3
-57 10 -60 15 -3 4 -24 11 -48 15 -23 4 -46 11 -52 15 -5 4 -30 11 -55 15 -25
4 -50 12 -57 17 -7 5 -21 7 -33 3 -11 -4 -20 -2 -20 4 0 6 -13 11 -29 11 -17
0 -32 4 -35 9 -3 5 -15 7 -25 4 -10 -3 -22 0 -25 6 -4 6 -18 11 -31 11 -13 0
-26 4 -30 10 -3 5 -12 7 -20 3 -9 -3 -21 -1 -28 5 -6 5 -36 13 -64 17 -29 4
-55 11 -59 16 -9 14 -176 9 -204 -7z"/>
<path d="M2136 731 c-3 -4 -20 -11 -38 -15 -29 -5 -53 -15 -119 -47 -9 -4 -33
-11 -53 -14 -20 -4 -36 -12 -36 -17 0 -6 -7 -8 -15 -5 -8 4 -17 2 -20 -2 -2
-5 -21 -12 -40 -15 -19 -4 -35 -11 -35 -15 0 -5 -16 -12 -35 -15 -19 -4 -35
-11 -35 -16 0 -4 -13 -11 -30 -15 -16 -4 -30 -11 -30 -16 0 -5 -7 -9 -15 -9
-29 0 -18 -60 20 -106 19 -23 35 -46 35 -51 0 -5 18 -26 40 -48 22 -21 38 -41
35 -43 -5 -5 -13 4 134 -146 122 -124 137 -132 208 -105 40 15 100 76 126 129
20 41 22 57 19 174 -1 72 -7 135 -13 142 -6 7 -10 32 -8 56 1 24 -1 50 -4 58
-3 8 -8 39 -11 69 -3 29 -11 59 -17 67 -13 15 -55 19 -63 5z"/>
</g>
</svg>
