<?xml version="1.0" standalone="no"?>
<!DOCTYPE svg PUBLIC "-//W3C//DTD SVG 20010904//EN"
 "http://www.w3.org/TR/2001/REC-SVG-20010904/DTD/svg10.dtd">
<svg version="1.0" xmlns="http://www.w3.org/2000/svg"
 width="400.000000pt" height="400.000000pt" viewBox="0 0 400.000000 400.000000"
 preserveAspectRatio="xMidYMid meet">
<metadata>
Created by potrace 1.15, written by Peter Selinger 2001-2017
</metadata>
<g transform="translate(0.000000,400.000000) scale(0.100000,-0.100000)"
fill="#000000" stroke="none">
<path d="M1930 3993 c-24 -10 -36 -22 -216 -193 -240 -230 -1604 -1589 -1604
-1599 0 -4 -11 -18 -25 -31 -14 -13 -25 -29 -25 -37 0 -7 -4 -13 -9 -13 -29 0
-58 -149 -32 -164 5 -3 12 -22 15 -41 4 -19 11 -35 16 -35 6 0 10 -6 10 -14 0
-8 12 -24 28 -35 15 -12 34 -26 42 -33 19 -17 227 -18 238 -2 4 6 16 14 28 18
11 3 31 17 43 30 22 24 25 24 70 10 25 -7 88 -14 139 -14 54 0 92 -4 92 -10 0
-13 2522 -14 2535 -1 6 5 57 11 115 13 58 2 112 8 120 13 23 15 38 14 51 -1 6
-8 17 -14 24 -14 8 0 15 -4 17 -8 2 -4 19 -18 39 -30 30 -18 51 -22 124 -22
89 0 129 13 175 60 45 46 51 67 48 179 l-3 109 -598 606 c-330 333 -730 732
-890 886 -353 339 -350 337 -379 345 -13 4 -26 13 -30 18 -8 12 -134 20 -158
10z m485 -993 l70 -70 -473 0 c-259 0 -472 3 -472 7 0 4 29 37 65 73 l65 65
337 -2 337 -2 71 -71z m615 -615 l64 -65 -1082 0 c-595 0 -1082 3 -1082 7 0 4
26 33 57 65 l57 58 961 0 961 0 64 -65z"/>
<path d="M1435 1700 c-4 -6 -148 -10 -398 -11 -441 0 -659 -10 -698 -31 -70
-37 -99 -96 -99 -200 0 -43 4 -78 9 -78 5 0 12 -15 15 -33 4 -19 21 -48 41
-67 27 -26 44 -34 85 -38 28 -2 53 -9 56 -13 3 -5 151 -9 328 -9 178 0 351 -3
385 -6 l61 -7 0 -63 0 -63 -422 -3 c-326 -2 -422 -6 -426 -15 -2 -7 -9 -13
-16 -13 -18 0 -96 -83 -96 -102 0 -9 -5 -20 -10 -23 -19 -12 -12 -147 10 -190
25 -48 79 -105 100 -105 9 0 21 -5 28 -12 9 -9 122 -13 422 -16 l410 -5 0 -62
0 -63 -410 -4 c-304 -3 -413 -7 -422 -16 -7 -7 -19 -12 -28 -12 -26 0 -77 -57
-106 -118 -22 -46 -25 -65 -20 -106 3 -27 10 -54 16 -60 5 -5 10 -18 10 -29 0
-10 25 -43 55 -73 l56 -54 1640 0 1641 0 56 55 57 56 3 109 4 109 -51 54 c-28
30 -51 58 -51 64 0 11 -339 23 -667 23 l-213 0 0 55 c0 48 3 55 19 55 11 0 22
4 25 9 3 4 182 10 398 13 275 4 393 9 396 17 2 6 12 11 21 11 22 0 70 45 100
93 21 34 23 47 19 135 l-3 97 -42 42 c-91 88 -57 83 -527 83 l-416 0 0 70 0
70 434 0 434 0 62 68 61 67 -3 106 -3 105 -61 62 -61 62 -191 0 c-121 0 -192
4 -192 10 0 14 -1816 14 -1825 0z m1013 -852 l2 -518 -450 0 -450 0 0 513 c0
283 3 517 7 520 3 4 205 6 447 5 l441 -3 3 -517z"/>
</g>
</svg>
