<?xml version="1.0" standalone="no"?>
<!DOCTYPE svg PUBLIC "-//W3C//DTD SVG 20010904//EN"
 "http://www.w3.org/TR/2001/REC-SVG-20010904/DTD/svg10.dtd">
<svg version="1.0" xmlns="http://www.w3.org/2000/svg"
 width="400.000000pt" height="400.000000pt" viewBox="0 0 400.000000 400.000000"
 preserveAspectRatio="xMidYMid meet">
<metadata>
Created by potrace 1.15, written by Peter Selinger 2001-2017
</metadata>
<g transform="translate(0.000000,400.000000) scale(0.100000,-0.100000)"
fill="#000000" stroke="none">
<path d="M780 3994 c-199 -39 -350 -219 -350 -419 0 -122 41 -216 132 -308 64
-65 128 -97 229 -117 170 -33 366 70 455 241 27 51 29 62 29 174 0 133 -6 157
-66 245 -35 53 -99 114 -145 138 -69 36 -213 60 -284 46z"/>
<path d="M1891 3984 c-83 -22 -117 -42 -185 -108 -71 -69 -110 -141 -127 -231
-26 -142 31 -304 141 -398 35 -29 59 -44 130 -77 8 -4 45 -13 83 -20 56 -11
78 -11 135 0 37 7 74 16 82 20 8 4 33 16 55 26 60 28 147 120 179 189 81 173
48 357 -90 491 -69 67 -102 86 -190 109 -71 18 -142 18 -213 -1z"/>
<path d="M3070 3994 c-122 -25 -212 -84 -278 -182 -61 -91 -67 -114 -67 -247
0 -112 2 -123 29 -174 64 -123 185 -213 323 -242 121 -25 266 22 361 118 90
90 132 187 132 303 0 181 -117 346 -285 404 -51 18 -170 28 -215 20z"/>
<path d="M204 2985 c-90 -28 -138 -66 -177 -138 l-22 -42 0 -586 0 -586 29
-57 c40 -78 98 -117 216 -144 l35 -8 3 -712 2 -712 425 0 425 0 0 568 0 568
-52 13 c-71 18 -116 42 -159 84 -71 69 -69 45 -69 905 0 658 2 776 15 812 8
23 15 44 15 46 0 2 -145 4 -322 3 -234 -1 -334 -5 -364 -14z"/>
<path d="M1344 2985 c-109 -34 -165 -92 -193 -200 -15 -55 -15 -1085 0 -1140
6 -22 16 -53 24 -70 30 -65 123 -127 211 -141 l44 -6 0 -714 0 -714 570 0 570
0 0 714 0 714 44 6 c61 9 135 47 171 88 76 84 77 94 73 713 -4 611 -3 601 -88
686 -82 81 -63 79 -769 78 -476 -1 -625 -4 -657 -14z"/>
<path d="M3110 2996 c0 -2 7 -23 15 -46 13 -36 15 -154 15 -812 0 -860 2 -836
-69 -905 -43 -42 -88 -66 -158 -84 l-53 -13 0 -568 0 -568 425 0 425 0 2 712
3 712 35 8 c118 27 176 66 216 144 l29 57 0 566 c0 586 -2 625 -42 672 -7 8
-13 19 -13 23 0 23 -77 76 -139 95 -31 10 -691 17 -691 7z"/>
</g>
</svg>
