<?xml version="1.0" encoding="UTF-8" standalone="no"?>
<svg
   xmlns:dc="http://purl.org/dc/elements/1.1/"
   xmlns:cc="http://creativecommons.org/ns#"
   xmlns:rdf="http://www.w3.org/1999/02/22-rdf-syntax-ns#"
   xmlns:svg="http://www.w3.org/2000/svg"
   xmlns="http://www.w3.org/2000/svg"
   xmlns:sodipodi="http://sodipodi.sourceforge.net/DTD/sodipodi-0.dtd"
   xmlns:inkscape="http://www.inkscape.org/namespaces/inkscape"
   version="1.0"
   width="189.000000pt"
   height="191.000000pt"
   viewBox="0 0 189.000000 191.000000"
   preserveAspectRatio="xMidYMid meet"
   id="svg885"
   sodipodi:docname="incident-under-control.svg"
   inkscape:export-filename="/home/kevin/git/wfwm-map-lib/wfwm-map-lib/src/main/javascript/incident-under-control.png"
   inkscape:export-xdpi="7.8085527"
   inkscape:export-ydpi="7.8085527"
   inkscape:version="1.0.1 (3bc2e813f5, 2020-09-07)">
  <defs
     id="defs889" />
  <sodipodi:namedview
     pagecolor="#ffffff"
     bordercolor="#666666"
     borderopacity="1"
     objecttolerance="10"
     gridtolerance="10"
     guidetolerance="10"
     inkscape:pageopacity="0"
     inkscape:pageshadow="2"
     inkscape:window-width="1920"
     inkscape:window-height="981"
     id="namedview887"
     showgrid="false"
     inkscape:pagecheckerboard="true"
     inkscape:zoom="3.0667539"
     inkscape:cx="126"
     inkscape:cy="127.33333"
     inkscape:window-x="1920"
     inkscape:window-y="28"
     inkscape:window-maximized="1"
     inkscape:current-layer="svg885" />
  <metadata
     id="metadata879">
Created by potrace 1.15, written by Peter Selinger 2001-2017
<rdf:RDF>
  <cc:Work
     rdf:about="">
    <dc:format>image/svg+xml</dc:format>
    <dc:type
       rdf:resource="http://purl.org/dc/dcmitype/StillImage" />
    <dc:title></dc:title>
  </cc:Work>
</rdf:RDF>
</metadata>
  <g
     transform="translate(0.000000,191.000000) scale(0.100000,-0.100000)"
     fill="#000000"
     stroke="none"
     id="g883"
     style="fill:#ffffff">
    <path
       d="M910 1870 c-39 -24 -882 -878 -887 -898 -3 -13 -2 -32 3 -43 10 -22 860 -875 887 -891 11 -5 29 -7 40 -4 29 7 903 884 912 914 6 21 -44 75 -447 478 -297 298 -460 454 -473 454 -11 0 -27 -4 -35 -10z"
       id="path881"
       style="fill:#ffffff" />
  </g>
  <g
     transform="matrix(0.1,0,0,-0.1,0.22626296,191)"
     fill="#000000"
     stroke="none"
     id="g959"
     style="fill:#e69f00;fill-opacity:1">
    <path
       d="M 493,1407 C 127,1042 70,981 70,955 70,930 108,888 332,663 L 594,400 h 103 c 57,0 103,4 103,9 0,4 -30,26 -66,47 -122,71 -191,172 -201,293 -8,95 14,161 90,271 84,123 117,187 117,229 0,47 12,67 28,48 22,-26 40,-82 47,-147 l 8,-65 27,34 c 78,93 58,271 -47,409 -18,23 -33,45 -33,48 0,12 76,-8 130,-34 67,-33 191,-154 239,-235 79,-133 109,-267 91,-399 -6,-39 -13,-74 -16,-79 -14,-23 17,-5 44,25 33,38 51,84 62,160 l 7,51 28,-59 c 90,-190 -11,-466 -203,-555 -80,-37 -69,-51 41,-51 h 92 l 262,262 c 143,145 264,274 268,287 6,21 -40,70 -421,452 -337,337 -434,429 -454,429 -19,0 -116,-91 -447,-423 z"
       id="path955"
       style="fill:#e69f00;fill-opacity:1" />
    <path
       d="m 878,985 c -48,-80 -53,-95 -37,-95 10,0 19,-2 19,-4 0,-2 -16,-32 -34,-65 -25,-44 -31,-61 -20,-61 19,0 19,-2 -18,-73 -18,-34 -34,-65 -36,-69 -2,-5 6,-8 17,-8 12,0 21,-2 21,-3 0,-2 -13,-28 -30,-58 -16,-30 -30,-57 -30,-61 0,-4 33,-8 73,-10 l 72,-3 3,-59 3,-59 -120,6 c -67,3 -121,2 -121,-2 0,-4 62,-69 138,-144 99,-98 145,-137 162,-137 17,0 63,39 162,137 76,75 138,141 138,146 0,5 -49,8 -112,6 l -113,-4 -3,52 c -3,60 -2,61 100,65 l 56,3 -34,58 c -19,32 -34,60 -34,62 0,3 9,5 20,5 26,0 26,3 -15,77 -29,52 -32,65 -20,69 13,5 10,16 -16,62 -28,48 -30,56 -17,66 14,10 8,24 -39,104 -31,50 -61,92 -67,92 -6,-1 -36,-43 -68,-95 z"
       id="path957"
       style="fill:#e69f00;fill-opacity:1" />
  </g>
</svg>
