<svg width="325" height="219" viewBox="0 0 325 219" fill="none" xmlns="http://www.w3.org/2000/svg">
<path d="M88.4378 116.099C80.7565 111.122 85.8334 75.9939 85.8334 75.9939L93.4117 82.8143C93.4117 82.8143 96.443 75.1632 96.443 67.6577V52.5011L114.042 71.3009C114.042 71.3009 116.147 64.6264 115.389 58.5638C114.631 52.5011 114.042 44.9228 114.042 44.9228L122.209 50.9855C122.209 50.9855 122.209 41.1337 132.689 27.4927C143.169 13.8518 153.28 7.03132 153.28 7.03132C153.28 7.03132 151.007 24.4614 151.765 32.7975C152.522 41.1337 160.101 49.4698 160.101 49.4698C160.101 49.4698 162.374 47.1963 162.374 44.9228V36.5867C162.374 36.5867 172.226 46.4385 173.742 54.0168C175.257 61.5951 177.531 71.3009 177.531 71.3009C182.134 64.7068 185.076 61.4523 191.172 56.2903C191.172 56.2903 190.414 65.2382 191.172 71.3009C191.93 77.3635 194.203 82.8143 194.203 82.8143C194.203 82.8143 198.75 75.236 199.508 69.9312C200.266 64.6264 198.536 51.3905 198.536 51.3905C198.536 51.3905 206.328 58.0649 208.602 61.3457C210.875 64.6264 215.422 71.3009 215.422 71.3009C215.422 71.3009 218.454 66.1421 218.454 60.8373C218.454 55.5325 217.696 44.9228 217.696 44.9228L226.032 49.4698C226.032 49.4698 228.435 41.8573 237.399 28.9913C246.364 16.1253 257.731 4 257.731 4C257.731 4 255.587 16.8831 256.345 32.0397C257.103 47.1963 263.166 50.2276 263.166 50.2276L267.713 38.1024C267.713 38.1024 275.004 51.3127 277.564 56.2903C280.125 61.2679 280.596 69.9312 280.596 69.9312L293.273 56.3681L294.237 76.7517L298.026 75.236C300.677 86.0453 304.955 98.4949 300.927 109.338C297.268 119.19 278.322 122.221 278.322 122.221L279.08 113.885L266.955 122.221L260.892 103.276L255.587 110.854L258.489 99.4866L253.942 102.518C253.942 102.518 251.668 100.244 252.426 94.9396C253.184 89.6348 253.942 83.5722 253.942 83.5722C253.942 83.5722 246.364 88.1191 241.817 95.6974C237.27 103.276 234.368 112.37 234.368 112.37L227.548 109.338L226.79 121.464L215.422 113.885L216.18 121.464H175.257V114.643L163.89 120.706L157.827 103.276L153.28 110.854L152.522 104.791L149.888 106.144C149.888 106.144 148.603 101.76 149.361 97.2131C150.119 92.6661 151.765 83.5722 151.765 83.5722C151.765 83.5722 145.572 88.877 140.267 96.4553C134.962 104.034 130.545 111.612 130.545 111.612L122.967 108.581C122.967 108.581 124.353 111.612 124.483 114.643C124.613 117.675 124.483 120.706 124.483 120.706L111.6 112.37L112.357 120.706C112.357 120.706 96.1191 121.077 88.4378 116.099Z" fill="#828489"/>
<path d="M177.614 137.892C180.013 139.462 174.061 143.471 168.019 144.953C167.329 145.123 123.239 137.892 123.239 137.892C123.239 137.892 72.0626 131.616 72.0626 130.047C72.0626 128.478 76.0608 124.555 80.059 123.77C84.0572 122.986 175.216 136.323 177.614 137.892Z" fill="#828489"/>
<path d="M296.38 141.576C298.654 144.608 293.013 152.354 287.286 155.217C286.632 155.544 244.848 141.576 244.848 141.576C244.848 141.576 196.347 129.451 196.347 126.42C196.347 123.389 200.136 115.81 203.925 114.295C207.714 112.779 294.107 138.545 296.38 141.576Z" fill="#828489"/>
<path d="M176.225 129.41C179.008 130.279 173.863 135.446 168.063 138.293C167.401 138.618 121.066 142.664 121.066 142.664C121.066 142.664 67.7545 149.321 67.4051 147.867C67.0557 146.413 70.2379 141.803 74.119 140.101C78.0001 138.4 173.442 128.54 176.225 129.41Z" fill="#828489"/>
<path d="M308.039 119.855C310.607 119.849 307.038 125.176 302.498 128.844C301.98 129.263 262.456 143.89 262.456 143.89C262.456 143.89 217.328 162.292 216.772 161.237C216.215 160.182 218.176 155.777 221.25 153.482C224.324 151.187 305.472 119.86 308.039 119.855Z" fill="#828489"/>
<path d="M106.827 159.213C105.202 159.571 106.209 155.534 108.22 152.466C108.45 152.116 130.034 136.922 130.034 136.922C130.034 136.922 154.278 118.442 154.879 119.067C155.479 119.692 155.273 122.894 153.867 124.845C152.461 126.797 108.451 158.854 106.827 159.213Z" fill="#828489"/>
<path d="M89.8253 152.331C88.17 152.494 89.6493 148.605 92.0118 145.799C92.2816 145.478 115.52 132.96 115.52 132.96C115.52 132.96 141.791 117.496 142.312 118.188C142.834 118.88 142.249 122.034 140.621 123.805C138.992 125.575 91.4807 152.169 89.8253 152.331Z" fill="#828489"/>
<path d="M174.661 155.283C171.604 154.879 176.658 149.069 182.616 145.402C183.297 144.983 232.555 133.778 232.555 133.778C232.555 133.778 289.052 118.949 289.555 120.301C290.057 121.654 287.056 126.616 283.051 128.874C279.045 131.131 177.717 155.687 174.661 155.283Z" fill="#828489"/>
<path d="M118.126 169.43C115.496 169.123 117.951 162.949 121.777 158.954C122.214 158.498 159.431 145.181 159.431 145.181C159.431 145.181 201.539 127.866 202.348 129.243C203.156 130.62 202.14 135.846 199.507 138.318C196.875 140.789 120.757 169.737 118.126 169.43Z" fill="#828489"/>
<path d="M128.503 149.817C127.227 148.582 130.31 145.341 133.467 144.116C133.828 143.976 157.06 149.436 157.06 149.436C157.06 149.436 184.004 154.085 184.021 155.337C184.038 156.589 181.98 159.747 179.888 160.401C177.797 161.055 129.78 151.052 128.503 149.817Z" fill="#828489"/>
<path d="M140.409 124.277C139.884 123.895 141.16 122.884 142.464 122.5C142.613 122.456 152.188 124.119 152.188 124.119C152.188 124.119 163.295 125.526 163.301 125.915C163.306 126.304 162.453 127.287 161.589 127.493C160.725 127.699 140.934 124.658 140.409 124.277Z" fill="#828489"/>
<path d="M208.613 157.621C208.089 157.239 209.365 156.229 210.669 155.844C210.818 155.8 220.393 157.464 220.393 157.464C220.393 157.464 231.5 158.871 231.505 159.26C231.51 159.648 230.657 160.632 229.794 160.838C228.93 161.043 209.138 158.003 208.613 157.621Z" fill="#828489"/>
<path d="M151.556 129.772C150.938 129.573 151.836 128.215 152.955 127.444C153.083 127.356 162.7 125.955 162.7 125.955C162.7 125.955 173.693 123.833 173.819 124.2C173.945 124.568 173.441 125.768 172.684 126.233C171.928 126.697 152.173 129.972 151.556 129.772Z" fill="#828489"/>
<path d="M206.119 152.507C205.502 152.308 206.4 150.95 207.519 150.179C207.647 150.09 217.264 148.69 217.264 148.69C217.264 148.69 228.257 146.567 228.383 146.935C228.509 147.303 228.005 148.503 227.248 148.968C226.492 149.432 206.737 152.707 206.119 152.507Z" fill="#828489"/>
<path d="M225.506 151.333C224.229 150.097 227.312 146.856 230.47 145.631C230.83 145.491 254.063 150.952 254.063 150.952C254.063 150.952 281.007 155.601 281.023 156.853C281.04 158.105 278.982 161.263 276.891 161.917C274.799 162.571 226.782 152.568 225.506 151.333Z" fill="#828489"/>
<path d="M172.33 139.726C171.846 137.881 175.59 134.828 178.557 134.227C178.896 134.159 194.738 147.197 194.738 147.197C194.738 147.197 213.808 160.288 213.303 161.803C212.798 163.317 209.888 166.555 207.988 166.763C206.088 166.971 172.813 141.57 172.33 139.726Z" fill="#828489"/>
<path d="M47 182H309" stroke="#828489" stroke-width="7"/>
<path d="M50 185L50 16" stroke="#828489" stroke-width="7"/>
<path d="M50 0L59.5263 16.5H40.4737L50 0Z" fill="#828489"/>
<path d="M325 182L308.5 191.526L308.5 172.474L325 182Z" fill="#828489"/>
<path d="M173.053 214.214C171.912 214.214 170.895 214.018 170.004 213.626C169.118 213.228 168.417 212.683 167.903 211.99C167.393 211.293 167.131 210.488 167.116 209.576H170.447C170.467 209.958 170.592 210.294 170.822 210.584C171.056 210.87 171.367 211.091 171.754 211.249C172.141 211.407 172.576 211.486 173.06 211.486C173.565 211.486 174.01 211.397 174.398 211.219C174.785 211.04 175.088 210.793 175.307 210.477C175.526 210.162 175.635 209.797 175.635 209.385C175.635 208.967 175.518 208.598 175.284 208.277C175.055 207.951 174.724 207.696 174.291 207.513C173.863 207.329 173.353 207.238 172.762 207.238H171.303V204.808H172.762C173.262 204.808 173.702 204.721 174.084 204.548C174.471 204.375 174.772 204.135 174.986 203.83C175.2 203.519 175.307 203.157 175.307 202.745C175.307 202.352 175.213 202.009 175.024 201.713C174.841 201.413 174.581 201.178 174.245 201.01C173.914 200.842 173.526 200.758 173.083 200.758C172.635 200.758 172.225 200.84 171.853 201.003C171.481 201.16 171.183 201.387 170.959 201.683C170.735 201.978 170.615 202.324 170.6 202.722H167.429C167.444 201.82 167.701 201.025 168.201 200.338C168.7 199.65 169.372 199.113 170.218 198.726C171.069 198.333 172.029 198.137 173.099 198.137C174.178 198.137 175.123 198.333 175.933 198.726C176.743 199.118 177.372 199.648 177.821 200.315C178.274 200.977 178.498 201.721 178.493 202.546C178.498 203.422 178.226 204.153 177.676 204.739C177.13 205.325 176.42 205.697 175.544 205.855V205.977C176.695 206.125 177.571 206.524 178.172 207.177C178.778 207.823 179.079 208.633 179.074 209.606C179.079 210.498 178.822 211.29 178.302 211.983C177.788 212.676 177.077 213.221 176.17 213.618C175.264 214.015 174.224 214.214 173.053 214.214ZM181.483 214V202.263H184.585V204.334H184.723C184.967 203.646 185.375 203.104 185.945 202.707C186.516 202.309 187.198 202.111 187.993 202.111C188.798 202.111 189.483 202.312 190.048 202.714C190.614 203.111 190.991 203.651 191.179 204.334H191.301C191.541 203.662 191.974 203.124 192.6 202.722C193.232 202.314 193.978 202.111 194.839 202.111C195.935 202.111 196.823 202.459 197.506 203.157C198.194 203.85 198.538 204.833 198.538 206.107V214H195.29V206.749C195.29 206.097 195.117 205.608 194.771 205.282C194.424 204.956 193.991 204.793 193.472 204.793C192.881 204.793 192.42 204.981 192.089 205.358C191.757 205.73 191.592 206.221 191.592 206.833V214H188.436V206.68C188.436 206.104 188.271 205.646 187.939 205.304C187.613 204.963 187.183 204.793 186.648 204.793C186.286 204.793 185.96 204.884 185.67 205.068C185.385 205.246 185.158 205.498 184.99 205.824C184.822 206.145 184.738 206.522 184.738 206.955V214H181.483Z" fill="#828489"/>
<path d="M1.26842 102V99.616L6.83875 94.4583C7.3125 93.9998 7.70984 93.5872 8.03076 93.2204C8.35678 92.8536 8.60384 92.4945 8.77194 92.143C8.94005 91.7864 9.0241 91.4018 9.0241 90.9892C9.0241 90.5308 8.91967 90.136 8.71082 89.8049C8.50196 89.4687 8.21669 89.2114 7.85502 89.0331C7.49334 88.8497 7.08327 88.758 6.6248 88.758C6.14596 88.758 5.72825 88.8548 5.37167 89.0484C5.01509 89.242 4.74001 89.5196 4.54643 89.8813C4.35286 90.2429 4.25607 90.6734 4.25607 91.1726H1.1156C1.1156 90.1487 1.34737 89.2598 1.81093 88.5059C2.27449 87.752 2.92398 87.1687 3.7594 86.7561C4.59483 86.3435 5.5576 86.1371 6.64773 86.1371C7.76842 86.1371 8.74393 86.3358 9.57426 86.7331C10.4097 87.1254 11.0592 87.6705 11.5227 88.3683C11.9863 89.0662 12.2181 89.866 12.2181 90.7676C12.2181 91.3585 12.1009 91.9418 11.8666 92.5174C11.6373 93.0931 11.2273 93.7324 10.6364 94.4353C10.0455 95.1332 9.21258 95.9712 8.13774 96.9493L5.85306 99.1881V99.2951H12.4244V102H1.26842ZM14.8523 102V90.2633H17.9546V92.3341H18.0921C18.3366 91.6464 18.7442 91.1038 19.3147 90.7065C19.8852 90.3092 20.5678 90.1105 21.3625 90.1105C22.1674 90.1105 22.8525 90.3117 23.418 90.7141C23.9834 91.1115 24.3604 91.6514 24.5488 92.3341H24.6711C24.9105 91.6616 25.3435 91.1242 25.9701 90.7218C26.6017 90.3143 27.348 90.1105 28.2089 90.1105C29.3041 90.1105 30.193 90.4594 30.8756 91.1573C31.5633 91.8501 31.9072 92.8333 31.9072 94.1068V102H28.6597V94.7486C28.6597 94.0966 28.4865 93.6076 28.1401 93.2815C27.7937 92.9555 27.3607 92.7925 26.8412 92.7925C26.2502 92.7925 25.7892 92.981 25.4581 93.358C25.127 93.7298 24.9615 94.2214 24.9615 94.8327V102H21.8057V94.6799C21.8057 94.1042 21.6401 93.6458 21.309 93.3045C20.983 92.9632 20.5526 92.7925 20.0177 92.7925C19.656 92.7925 19.33 92.8842 19.0396 93.0676C18.7544 93.2459 18.5277 93.498 18.3596 93.8241C18.1915 94.145 18.1074 94.5219 18.1074 94.9549V102H14.8523Z" fill="#828489"/>
</svg>
