<?xml version="1.0" standalone="no"?>
<!DOCTYPE svg PUBLIC "-//W3C//DTD SVG 20010904//EN"
 "http://www.w3.org/TR/2001/REC-SVG-20010904/DTD/svg10.dtd">
<svg version="1.0" xmlns="http://www.w3.org/2000/svg"
 width="400.000000pt" height="400.000000pt" viewBox="0 0 400.000000 400.000000"
 preserveAspectRatio="xMidYMid meet">
<metadata>
Created by potrace 1.15, written by Peter Selinger 2001-2017
</metadata>
<g transform="translate(0.000000,400.000000) scale(0.100000,-0.100000)"
fill="#000000" stroke="none">
<path d="M1970 3806 c0 -167 -2 -195 -16 -207 -13 -11 -74 -15 -268 -17 -138
-1 -261 -5 -273 -8 -30 -6 -29 -32 0 -43 26 -10 252 -41 298 -41 33 0 37 -11
12 -31 -9 -8 -31 -37 -49 -65 l-33 -51 -362 -6 c-199 -4 -554 -7 -789 -7
l-427 0 -6 -47 c-3 -27 -2 -51 2 -55 3 -4 40 -12 81 -18 102 -14 601 -70 623
-70 13 0 17 -8 17 -33 0 -90 54 -180 123 -206 107 -41 204 22 243 157 l16 55
52 -7 c28 -3 130 -9 228 -13 l176 -6 28 -65 c53 -125 177 -226 310 -252 51
-10 71 -9 125 4 128 33 219 108 280 231 l41 82 176 6 c98 4 200 10 228 13 l50
6 17 -60 c18 -65 60 -123 108 -148 55 -28 138 -13 193 35 30 27 49 73 55 136
l6 60 310 36 c171 20 334 40 363 44 l53 7 -3 52 -3 51 -625 6 c-344 3 -700 7
-791 8 -162 1 -166 2 -176 24 -6 12 -27 44 -47 70 -21 27 -36 50 -34 52 2 1
53 7 113 14 61 6 133 16 162 22 56 11 87 34 63 49 -7 4 -131 9 -276 11 -231 4
-265 6 -280 21 -15 14 -18 43 -21 185 -2 92 -3 178 -3 191 0 19 -5 22 -35 22
l-35 0 0 -194z"/>
<path d="M1847 2353 c-75 -43 -137 -83 -137 -88 0 -6 -57 -44 -127 -84 -71
-41 -136 -81 -145 -90 -34 -32 -50 -43 -160 -107 -62 -37 -115 -69 -118 -73
-17 -22 -116 -94 -180 -131 -41 -24 -76 -47 -78 -51 -2 -5 -30 -23 -63 -41
-32 -18 -59 -36 -59 -39 0 -4 -29 -24 -65 -43 -35 -20 -67 -41 -70 -46 -3 -5
-38 -28 -77 -51 -40 -23 -81 -52 -92 -64 -12 -12 -34 -29 -51 -38 -16 -8 -41
-24 -54 -36 -13 -11 -59 -41 -102 -67 -44 -25 -79 -50 -79 -54 0 -5 -8 -11
-17 -14 -10 -3 -34 -19 -53 -36 l-34 -29 -23 21 c-13 12 -23 16 -23 10 0 -6 8
-16 18 -21 16 -10 16 -12 -3 -27 -19 -15 -18 -17 55 -85 66 -61 166 -135 229
-168 19 -11 37 -4 136 51 63 35 115 68 115 74 0 5 60 46 132 90 73 43 140 86
150 94 37 34 52 43 145 96 54 30 100 59 103 63 3 4 28 21 55 36 28 16 51 33
53 37 2 4 37 26 78 48 41 23 80 47 86 54 7 7 42 29 78 50 36 21 67 42 70 46 3
4 35 24 73 46 37 21 67 41 67 45 0 4 39 31 88 60 48 29 89 56 90 61 2 5 21 18
43 28 21 11 39 24 39 29 0 5 13 14 29 21 32 13 56 5 94 -31 10 -9 32 -23 48
-29 16 -7 29 -16 29 -21 0 -4 33 -27 73 -50 39 -23 79 -50 87 -59 8 -9 44 -33
80 -54 36 -21 67 -41 70 -45 3 -4 34 -25 70 -45 36 -21 67 -42 70 -46 3 -4 43
-29 90 -56 47 -26 87 -52 88 -56 2 -5 21 -17 42 -28 21 -11 44 -25 52 -33 7
-7 57 -39 111 -70 54 -31 105 -62 112 -69 45 -40 84 -65 253 -163 34 -20 62
-42 62 -48 1 -15 202 -127 227 -127 25 0 183 96 213 129 14 16 46 42 73 60 26
18 47 36 47 41 0 6 -19 22 -42 36 -24 15 -46 32 -50 39 -4 7 -21 18 -38 25
-16 7 -30 16 -30 20 0 5 -35 29 -79 54 -43 26 -89 56 -102 67 -13 12 -37 28
-53 36 -16 8 -41 26 -55 40 -14 13 -54 40 -88 59 -35 20 -65 40 -68 45 -3 5
-38 28 -78 51 -40 23 -76 48 -82 54 -5 6 -28 21 -50 34 -22 13 -44 28 -50 34
-5 7 -48 34 -95 61 -47 27 -94 58 -106 69 -42 43 -74 65 -180 127 -60 34 -117
70 -126 78 -10 9 -26 23 -35 32 -10 8 -75 48 -145 88 -71 41 -128 79 -128 85
0 11 -267 166 -286 166 -5 0 -71 -35 -147 -77z"/>
<path d="M1950 1809 c-25 -21 -65 -46 -212 -134 -43 -26 -78 -50 -78 -55 0 -5
-29 -25 -64 -44 -36 -20 -71 -42 -78 -49 -7 -7 -35 -26 -63 -42 -27 -15 -55
-34 -60 -40 -6 -7 -52 -36 -103 -65 -50 -29 -92 -56 -92 -60 0 -5 -8 -11 -18
-14 -10 -4 -27 -14 -38 -24 -10 -10 -68 -47 -129 -82 -60 -36 -117 -71 -125
-80 -42 -40 -75 -62 -187 -126 -76 -44 -124 -78 -131 -93 -9 -18 -12 -152 -12
-463 l0 -438 480 0 480 0 0 340 0 340 470 0 470 0 0 -340 0 -340 501 0 501 0
-4 438 c-4 337 -8 443 -18 463 -9 15 -56 50 -124 89 -125 72 -117 67 -171 113
-22 19 -89 63 -150 98 -60 35 -113 68 -117 75 -4 6 -21 17 -38 24 -16 7 -30
16 -30 20 0 4 -41 31 -92 60 -50 29 -98 59 -106 66 -8 8 -31 23 -52 34 -21 11
-44 25 -51 33 -8 7 -48 33 -89 57 -41 24 -78 49 -83 56 -4 7 -41 31 -82 54
-41 23 -75 45 -75 49 0 5 -13 14 -30 21 -16 7 -51 28 -77 46 -55 39 -87 42
-123 13z"/>
</g>
</svg>
