<?xml version="1.0" standalone="no"?>
<!DOCTYPE svg PUBLIC "-//W3C//DTD SVG 20010904//EN"
 "http://www.w3.org/TR/2001/REC-SVG-20010904/DTD/svg10.dtd">
<svg version="1.0" xmlns="http://www.w3.org/2000/svg"
 width="400.000000pt" height="400.000000pt" viewBox="0 0 400.000000 400.000000"
 preserveAspectRatio="xMidYMid meet">
<metadata>
Created by potrace 1.15, written by Peter Selinger 2001-2017
</metadata>
<g transform="translate(0.000000,400.000000) scale(0.100000,-0.100000)"
fill="#000000" stroke="none">
<path d="M1705 3985 c-27 -9 -60 -14 -72 -12 -12 2 -20 0 -17 -4 3 -5 -5 -8
-18 -7 -13 0 -41 -4 -63 -10 -22 -6 -58 -14 -80 -18 -22 -3 -74 -13 -115 -21
-41 -9 -85 -16 -97 -17 -11 0 -19 -4 -16 -8 2 -5 -15 -8 -37 -8 -23 0 -69 -7
-101 -15 -33 -9 -65 -13 -71 -9 -7 4 -8 3 -4 -4 5 -8 -1 -12 -16 -12 -13 1
-52 -6 -88 -15 -36 -8 -87 -20 -114 -25 -27 -6 -55 -15 -62 -21 -7 -6 -19 -7
-25 -3 -8 4 -9 3 -5 -4 4 -7 2 -12 -5 -12 -18 0 -112 -100 -118 -125 -2 -11
-5 -787 -5 -1724 -1 -1355 2 -1705 12 -1709 6 -2 12 -10 12 -18 0 -22 67 -90
116 -119 l43 -25 1221 0 1221 0 45 26 c24 14 54 39 68 54 13 16 25 28 27 27 2
-1 3 0 2 1 -1 2 9 24 23 48 l24 43 0 1212 c0 667 -3 1209 -7 1205 -6 -5 -29
38 -33 62 -3 14 -22 32 -30 27 -9 -5 -28 15 -29 29 0 6 -6 11 -13 12 -21 3
-88 45 -88 56 0 5 -4 6 -10 3 -14 -9 -12 1 7 38 9 18 18 38 19 45 1 8 9 21 17
30 8 10 17 29 21 43 3 15 14 37 25 50 18 23 18 23 47 4 16 -11 35 -20 43 -21
7 -2 18 -7 24 -13 17 -17 24 -13 37 19 7 17 16 30 21 30 5 0 8 3 8 8 -3 20 2
32 13 26 6 -4 8 -3 5 3 -8 13 20 88 32 85 6 -1 10 1 9 5 -1 5 4 25 11 45 7 21
10 42 6 47 -5 10 -113 74 -127 77 -5 1 -13 2 -19 3 -5 0 -7 6 -4 11 4 6 3 9
-2 8 -18 -5 -83 24 -77 34 4 6 2 8 -4 4 -6 -3 -26 2 -44 12 -70 39 -83 46 -96
48 -8 1 -21 9 -30 17 -10 8 -30 17 -45 21 -17 4 -25 11 -21 18 4 6 3 8 -3 5
-6 -4 -37 7 -68 23 -31 17 -63 30 -70 30 -7 0 -15 5 -17 10 -2 6 -23 18 -48
26 -25 9 -55 25 -67 36 -13 12 -23 18 -23 15 0 -4 -22 4 -50 18 -58 30 -75 31
-84 8 -13 -35 -33 -63 -41 -55 -5 4 -5 2 -1 -5 8 -15 -28 -85 -39 -75 -5 4 -5
1 -1 -5 4 -7 0 -23 -8 -35 -9 -12 -16 -31 -16 -41 0 -10 -4 -16 -8 -13 -4 2
-8 -4 -8 -14 0 -10 3 -17 7 -14 4 2 12 -3 19 -11 7 -8 15 -13 19 -10 4 2 22
-5 39 -15 35 -22 35 -19 -10 -118 -13 -29 -28 -49 -32 -45 -4 4 -4 0 -1 -8 3
-9 -1 -22 -10 -29 -8 -7 -15 -21 -15 -31 0 -23 -27 -25 -77 -4 -19 8 -46 15
-60 15 -13 0 -22 4 -19 9 3 4 -6 6 -19 3 -20 -3 -27 1 -36 24 -36 91 -48 128
-42 137 3 6 1 7 -5 3 -6 -3 -13 4 -17 16 -3 13 -10 32 -15 43 -27 61 -137 344
-147 380 -10 34 -43 75 -94 115 -26 21 -45 41 -41 45 4 5 1 5 -6 1 -7 -4 -20
-2 -28 5 -22 18 -151 21 -209 4z m99 -330 c8 -12 21 -42 30 -68 9 -26 20 -55
26 -64 22 -39 50 -125 44 -135 -4 -6 -3 -8 2 -5 6 3 20 -22 33 -56 13 -34 27
-70 33 -81 12 -23 -6 -38 -39 -33 -12 2 -20 0 -17 -4 3 -5 -10 -9 -28 -9 -19
0 -38 -4 -43 -9 -10 -9 -159 -42 -202 -45 -11 0 -19 -4 -17 -8 4 -7 -21 -13
-90 -24 -22 -3 -50 -10 -64 -15 -13 -5 -28 -6 -34 -3 -6 4 -8 2 -5 -3 4 -7 -6
-13 -26 -16 -43 -6 -157 -34 -237 -57 -36 -11 -85 -22 -110 -26 -24 -3 -53
-10 -63 -16 -10 -5 -25 -7 -33 -4 -9 3 -12 1 -9 -4 3 -6 -5 -10 -19 -10 -13 0
-36 -4 -50 -10 l-26 -10 0 78 c0 42 3 168 7 280 5 167 9 202 20 198 8 -3 11
-2 8 4 -3 5 11 12 32 15 21 3 74 13 118 22 44 9 91 17 105 19 14 2 48 10 77
17 29 8 80 18 115 22 34 4 81 14 103 22 22 7 69 18 105 24 36 5 81 12 100 16
19 3 47 7 62 7 14 1 24 4 21 9 -11 19 59 1 71 -18z m-701 -1158 c18 -8 109
-89 203 -180 l172 -167 502 0 502 0 178 174 c190 185 207 196 280 176 20 -5
44 -18 53 -28 27 -30 49 -92 42 -122 -4 -17 -70 -93 -180 -208 l-175 -180 0
-514 1 -513 173 -176 c193 -196 200 -208 168 -283 -25 -54 -61 -79 -119 -82
-43 -2 -49 1 -132 76 -47 43 -131 124 -186 179 l-100 101 -505 0 -505 0 -165
-163 c-91 -89 -182 -170 -202 -180 -74 -35 -155 5 -178 87 -11 40 -10 49 6 81
11 19 92 109 182 199 l162 163 0 513 0 513 -137 140 c-76 77 -150 151 -165
164 -42 39 -61 97 -47 142 15 46 45 79 83 90 44 13 53 13 89 -2z"/>
<path d="M1560 1448 l0 -423 420 0 420 0 0 423 0 422 -420 0 -420 0 0 -422z"/>
</g>
</svg>
