<?xml version="1.0" standalone="no"?>
<!DOCTYPE svg PUBLIC "-//W3C//DTD SVG 20010904//EN"
 "http://www.w3.org/TR/2001/REC-SVG-20010904/DTD/svg10.dtd">
<svg version="1.0" xmlns="http://www.w3.org/2000/svg"
 width="400.000000pt" height="400.000000pt" viewBox="0 0 400.000000 400.000000"
 preserveAspectRatio="xMidYMid meet">
<metadata>
Created by potrace 1.15, written by Peter Selinger 2001-2017
</metadata>
<g transform="translate(0.000000,400.000000) scale(0.100000,-0.100000)"
fill="#000000" stroke="none">
<path d="M3396 3985 c-8 -8 -19 -15 -24 -15 -7 0 -86 -77 -179 -175 -19 -20
-16 -49 7 -70 11 -10 20 -24 20 -31 0 -7 18 -32 40 -56 22 -23 40 -49 40 -57
0 -7 11 -22 25 -33 14 -11 25 -28 25 -38 0 -10 9 -22 20 -25 11 -3 20 -13 20
-21 0 -9 7 -22 15 -30 8 -9 15 -24 15 -35 0 -10 5 -19 10 -19 6 0 10 -9 10
-20 0 -11 4 -20 9 -20 10 0 24 -38 22 -57 -1 -7 3 -13 9 -13 5 0 10 -7 10 -15
0 -8 5 -15 10 -15 6 0 10 -9 10 -20 0 -11 4 -20 9 -20 6 0 13 -21 17 -47 4
-27 10 -50 13 -53 13 -11 31 -51 31 -70 0 -11 4 -20 10 -20 5 0 7 -13 4 -29
-4 -16 -1 -32 5 -35 6 -4 11 -23 11 -42 0 -19 5 -34 10 -34 6 0 10 -22 10 -50
0 -27 5 -50 10 -50 6 0 10 -100 10 -279 0 -176 -4 -282 -10 -286 -5 -3 -10
-26 -10 -51 0 -24 -4 -44 -10 -44 -5 0 -10 -11 -10 -24 0 -14 -5 -28 -11 -32
-6 -3 -9 -19 -5 -35 3 -15 1 -31 -4 -34 -6 -3 -10 -17 -10 -30 0 -13 -4 -27
-10 -30 -5 -3 -10 -17 -10 -31 0 -13 -4 -24 -9 -24 -5 0 -12 -16 -15 -35 -4
-19 -11 -35 -16 -35 -6 0 -10 -9 -10 -20 0 -19 -18 -59 -31 -70 -3 -3 -9 -17
-13 -32 -3 -16 -11 -28 -16 -28 -6 0 -10 -9 -10 -20 0 -11 -4 -20 -10 -20 -5
0 -10 -9 -10 -20 0 -11 -7 -23 -15 -26 -8 -4 -15 -15 -15 -25 0 -10 -4 -19
-10 -19 -5 0 -10 -6 -10 -13 0 -8 -11 -24 -25 -37 -14 -13 -25 -30 -25 -37 0
-8 -10 -25 -22 -38 -37 -39 -48 -54 -48 -63 0 -5 -16 -24 -35 -43 -19 -19 -35
-43 -35 -55 0 -12 40 -61 105 -127 58 -59 105 -114 105 -122 0 -30 37 -14 68
30 17 25 36 45 42 45 5 0 10 8 10 18 0 9 18 34 40 56 22 21 40 44 40 51 0 7
13 24 28 37 16 13 32 36 36 51 3 15 11 27 16 27 6 0 10 9 10 20 0 11 5 20 10
20 6 0 10 6 10 14 0 8 6 21 13 28 7 7 20 28 28 46 7 17 17 32 21 32 5 0 8 8 8
18 0 9 7 30 15 46 8 15 15 35 15 42 0 8 5 14 10 14 6 0 10 7 10 15 0 8 4 15 9
15 6 0 13 20 17 45 3 25 10 45 15 45 5 0 9 9 9 20 0 11 5 20 10 20 6 0 10 13
10 29 0 17 5 33 11 37 6 3 9 15 6 25 -3 10 -1 22 4 25 5 3 9 18 9 34 0 16 5
32 10 35 6 3 10 22 10 41 0 19 4 34 9 34 5 0 12 39 16 88 4 48 12 90 18 93 14
10 14 608 -1 634 -6 11 -14 55 -17 98 -4 42 -11 77 -16 77 -5 0 -9 18 -9 40 0
22 -4 40 -10 40 -5 0 -10 15 -10 34 0 19 -4 37 -9 40 -5 3 -7 15 -4 25 3 10 0
22 -6 25 -6 4 -11 18 -11 32 0 13 -4 24 -10 24 -5 0 -10 9 -10 19 0 11 -4 22
-9 25 -4 3 -11 24 -15 46 -3 22 -11 40 -16 40 -6 0 -10 9 -10 20 0 11 -3 20
-8 20 -9 0 -42 74 -42 95 0 8 -4 15 -10 15 -5 0 -10 9 -10 20 0 11 -4 20 -10
20 -5 0 -10 9 -10 19 0 10 -7 21 -15 25 -8 3 -15 14 -15 23 0 10 -9 25 -20 33
-11 8 -20 19 -20 25 0 6 -11 22 -25 37 -14 15 -25 33 -25 41 0 7 -11 24 -25
37 -14 13 -25 30 -25 37 0 8 -16 27 -35 44 -19 17 -35 37 -35 43 0 15 -52 66
-67 66 -7 0 -18 -7 -27 -15z"/>
<path d="M542 3978 c-7 -7 -12 -16 -12 -21 0 -5 -25 -34 -55 -64 -30 -31 -55
-61 -55 -67 0 -6 -11 -23 -25 -38 -14 -15 -25 -34 -25 -41 0 -8 -7 -20 -15
-27 -8 -7 -15 -18 -15 -24 0 -6 -9 -18 -20 -26 -11 -8 -20 -22 -20 -32 0 -10
-5 -18 -11 -18 -5 0 -8 -4 -5 -9 3 -4 -3 -16 -14 -26 -11 -10 -20 -26 -20 -37
0 -10 -4 -18 -10 -18 -5 0 -10 -7 -10 -15 0 -21 -33 -95 -42 -95 -5 0 -8 -9
-8 -20 0 -11 -4 -20 -10 -20 -5 0 -13 -18 -16 -40 -4 -22 -11 -43 -15 -46 -5
-3 -9 -14 -9 -25 0 -10 -4 -19 -10 -19 -5 0 -10 -11 -10 -24 0 -14 -5 -28 -11
-32 -6 -3 -9 -15 -6 -25 3 -10 1 -22 -4 -25 -5 -3 -9 -16 -9 -30 0 -13 -4 -24
-10 -24 -5 0 -10 -16 -10 -35 0 -19 -4 -35 -9 -35 -5 0 -12 -42 -16 -92 -4
-52 -12 -96 -18 -100 -16 -10 -17 -639 -1 -659 7 -8 15 -53 19 -101 4 -49 11
-88 16 -88 5 0 9 -16 9 -35 0 -19 5 -35 10 -35 6 0 10 -11 10 -24 0 -14 4 -27
8 -30 5 -3 7 -18 4 -34 -2 -16 1 -33 7 -36 6 -4 11 -16 11 -27 0 -10 5 -19 10
-19 6 0 10 -8 10 -19 0 -10 7 -32 15 -47 8 -16 15 -39 15 -51 0 -13 5 -23 10
-23 6 0 10 -9 10 -20 0 -11 5 -20 10 -20 6 0 10 -6 10 -14 0 -7 7 -27 15 -42
8 -16 15 -36 15 -44 0 -8 9 -21 20 -28 11 -7 20 -19 20 -27 0 -8 5 -15 11 -15
6 0 9 -6 6 -13 -3 -8 3 -20 14 -28 10 -7 19 -21 19 -31 0 -10 4 -18 10 -18 5
0 13 -12 16 -27 4 -15 20 -38 36 -51 15 -13 28 -29 28 -36 0 -7 15 -28 34 -47
19 -18 32 -37 30 -41 -3 -5 8 -20 25 -34 16 -13 40 -40 51 -59 22 -35 60 -48
60 -20 0 8 47 63 105 122 65 66 105 115 105 128 0 11 -20 39 -45 63 -25 23
-45 48 -45 56 0 7 -14 29 -31 47 -16 19 -34 43 -40 54 -15 32 -33 59 -51 76
-10 9 -18 21 -18 26 0 6 -7 16 -15 23 -8 7 -15 21 -15 31 0 11 -4 19 -9 19 -5
0 -12 18 -16 40 -4 22 -10 40 -14 40 -4 0 -13 16 -21 35 -8 19 -17 35 -21 35
-4 0 -11 20 -15 45 -3 25 -10 45 -15 45 -5 0 -9 11 -9 24 0 14 -4 28 -10 31
-5 3 -10 17 -10 30 0 13 -5 27 -10 30 -6 4 -8 15 -5 25 3 10 1 21 -5 25 -5 3
-10 22 -10 41 0 19 -4 34 -10 34 -5 0 -10 24 -10 54 0 30 -4 58 -10 61 -5 3
-10 37 -10 76 0 38 -3 69 -7 69 -12 0 5 394 17 398 5 2 10 30 10 63 0 33 4 59
10 59 6 0 10 16 10 35 0 19 5 35 11 35 7 0 9 10 5 25 -4 14 -2 25 4 25 5 0 10
11 10 24 0 14 4 28 10 31 6 3 10 17 10 31 0 13 4 24 9 24 5 0 12 18 16 40 4
22 11 40 16 40 5 0 9 11 9 24 0 14 9 31 20 39 12 8 20 18 19 23 -2 16 13 54
22 54 5 0 9 9 9 20 0 11 5 20 10 20 6 0 10 9 10 19 0 11 7 26 15 35 8 8 15 21
15 30 0 8 9 18 20 21 11 3 20 15 20 25 0 10 11 27 25 38 14 11 25 26 25 33 0
8 17 33 38 55 72 80 82 94 82 120 0 14 -6 31 -12 38 -182 190 -189 196 -222
196 -17 0 -37 -5 -44 -12z"/>
<path d="M998 3450 c-21 -21 -38 -43 -38 -48 0 -4 -11 -19 -25 -32 -14 -13
-25 -29 -25 -35 0 -7 -9 -20 -20 -30 -11 -10 -20 -26 -20 -37 0 -10 -4 -18
-10 -18 -5 0 -12 -11 -16 -25 -3 -14 -10 -25 -15 -25 -5 0 -9 -9 -9 -20 0 -11
-4 -20 -9 -20 -7 0 -19 -25 -25 -52 0 -3 -4 -10 -8 -14 -5 -4 -8 -18 -8 -30 0
-13 -4 -26 -10 -29 -5 -3 -10 -15 -10 -26 0 -10 -4 -19 -10 -19 -5 0 -12 -27
-16 -60 -4 -33 -11 -60 -15 -60 -5 0 -9 -16 -9 -35 0 -19 -4 -35 -10 -35 -6 0
-10 -27 -10 -60 0 -33 -4 -60 -10 -60 -6 0 -10 -68 -10 -185 0 -117 4 -185 10
-185 6 0 10 -25 10 -55 0 -30 5 -55 10 -55 6 0 10 -16 10 -35 0 -19 4 -35 9
-35 5 0 12 -29 16 -65 3 -36 11 -65 16 -65 5 0 9 -13 9 -30 0 -16 4 -30 9 -30
10 0 24 -38 22 -57 -1 -7 3 -13 9 -13 5 0 10 -7 10 -15 0 -8 5 -15 10 -15 6 0
10 -6 10 -13 0 -18 28 -75 41 -82 5 -4 9 -15 9 -26 0 -10 5 -19 10 -19 6 0 10
-6 10 -13 0 -8 11 -24 25 -37 14 -13 25 -28 25 -32 0 -5 6 -15 13 -22 15 -16
89 -105 100 -120 5 -8 11 -6 20 5 46 60 90 110 154 174 40 40 73 79 73 87 0 7
-22 36 -50 63 -28 27 -50 56 -50 65 0 8 -9 21 -20 28 -12 7 -22 28 -26 52 -4
22 -10 40 -15 40 -5 0 -9 7 -9 15 0 8 -4 15 -10 15 -5 0 -10 9 -10 20 0 11 -4
20 -10 20 -5 0 -12 16 -16 35 -3 19 -10 35 -15 35 -5 0 -9 11 -9 24 0 14 -4
28 -10 31 -5 3 -10 21 -10 39 0 18 -3 36 -7 40 -4 4 -6 25 -4 46 1 24 -2 40
-8 40 -7 0 -11 50 -11 150 0 100 4 150 11 150 6 0 9 16 8 40 -2 21 0 42 4 46
4 4 7 20 7 35 0 15 5 31 10 34 6 3 10 19 10 36 0 16 4 29 9 29 5 0 12 16 15
35 4 19 11 35 16 35 6 0 10 9 10 20 0 11 5 20 10 20 6 0 10 7 10 15 0 8 5 15
10 15 6 0 10 9 10 20 0 11 7 23 15 26 8 4 15 14 15 23 0 10 11 28 25 41 14 13
25 30 25 37 0 8 16 31 35 51 19 20 35 42 35 48 0 6 -49 61 -109 122 -124 128
-135 132 -193 72z"/>
<path d="M2920 3480 c0 -5 -5 -10 -12 -10 -6 0 -51 -41 -100 -91 -99 -103
-109 -131 -63 -181 14 -15 25 -33 25 -41 0 -7 11 -24 25 -37 14 -13 25 -31 25
-41 0 -9 7 -19 15 -23 8 -3 15 -15 15 -26 0 -11 5 -20 10 -20 6 0 10 -7 10
-15 0 -8 5 -15 10 -15 6 0 10 -9 10 -20 0 -11 4 -20 10 -20 5 0 12 -16 16 -35
3 -19 10 -35 15 -35 5 0 9 -13 9 -29 0 -17 5 -33 10 -36 6 -3 10 -17 10 -31 0
-13 3 -24 8 -24 4 0 6 -18 4 -40 -3 -25 0 -40 7 -40 8 0 11 -53 11 -170 0 -93
-4 -170 -9 -170 -4 0 -11 -30 -14 -67 -4 -37 -11 -71 -17 -77 -5 -5 -10 -20
-10 -33 0 -13 -4 -23 -9 -23 -4 0 -11 -19 -14 -42 -3 -24 -11 -44 -16 -46 -6
-2 -11 -12 -11 -23 0 -10 -4 -19 -10 -19 -5 0 -10 -6 -10 -14 0 -7 -7 -19 -15
-26 -8 -7 -15 -21 -15 -31 0 -10 -9 -24 -20 -31 -11 -7 -20 -20 -20 -29 0 -9
-16 -31 -35 -47 -25 -22 -36 -43 -41 -72 -7 -40 -5 -42 57 -104 57 -56 110
-116 145 -165 11 -14 14 -13 32 9 11 14 34 41 51 60 17 19 31 38 31 42 0 4 9
10 20 13 11 3 20 14 20 24 0 10 7 24 15 31 8 7 15 18 15 26 0 7 8 19 19 26 10
7 21 27 25 44 4 17 16 41 26 52 11 12 20 28 20 37 0 8 5 15 11 15 5 0 10 8 9
18 -3 24 10 62 21 62 5 0 9 13 9 29 0 16 5 31 11 33 6 2 14 27 17 56 2 29 8
52 13 52 5 0 9 16 9 35 0 19 5 35 10 35 6 0 10 20 10 45 0 25 5 45 10 45 6 0
10 78 10 215 0 137 -4 215 -10 215 -5 0 -10 24 -10 54 0 30 -4 58 -10 61 -5 3
-10 19 -10 35 0 16 -4 31 -9 34 -5 4 -12 29 -16 56 -4 28 -11 50 -16 50 -5 0
-9 11 -9 25 0 13 -9 40 -20 60 -11 19 -20 36 -20 38 -4 25 -14 47 -21 47 -5 0
-9 9 -9 20 0 11 -4 20 -9 20 -5 0 -12 11 -15 25 -4 14 -11 25 -16 25 -6 0 -10
8 -10 18 0 11 -9 27 -20 37 -11 10 -20 23 -20 30 0 6 -11 22 -25 35 -14 13
-25 28 -25 33 0 17 -80 87 -100 87 -11 0 -20 -4 -20 -10z"/>
<path d="M1910 3210 c0 -5 -20 -10 -45 -10 -25 0 -45 -4 -45 -10 0 -5 -11 -10
-25 -10 -14 0 -25 -4 -25 -9 0 -5 -20 -12 -44 -15 -32 -5 -47 -13 -51 -27 -4
-10 -15 -19 -25 -19 -10 0 -20 -7 -24 -15 -3 -8 -15 -15 -26 -15 -11 0 -20 -3
-20 -7 0 -5 -25 -35 -55 -67 -31 -33 -54 -64 -52 -70 4 -11 -30 -46 -45 -46
-4 0 -8 -7 -8 -15 0 -21 -33 -95 -42 -95 -5 0 -8 -13 -8 -29 0 -16 -4 -31 -10
-33 -5 -1 -13 -38 -16 -80 -4 -43 -11 -78 -15 -78 -5 0 -9 -27 -9 -60 0 -33 4
-60 9 -60 4 0 11 -42 15 -92 4 -51 11 -94 16 -96 6 -2 10 -15 10 -28 0 -13 5
-24 10 -24 6 0 10 -6 10 -14 0 -7 7 -19 15 -26 8 -7 15 -20 15 -29 0 -9 9 -22
20 -29 11 -7 20 -20 20 -30 0 -19 136 -162 154 -162 7 0 18 -9 26 -20 8 -11
20 -20 27 -20 7 0 13 -4 13 -10 0 -5 9 -10 20 -10 11 0 20 -5 20 -11 0 -6 6
-9 14 -6 8 3 16 -2 19 -14 5 -20 37 -27 37 -8 0 6 7 4 15 -5 13 -13 15 -127
15 -910 l0 -896 170 0 170 0 0 565 c0 370 3 565 10 565 6 0 10 117 10 331 0
280 2 333 15 345 8 9 15 11 15 5 0 -6 5 -11 10 -11 6 0 10 8 10 19 0 14 6 17
25 13 15 -2 25 0 25 7 0 6 9 11 20 11 11 0 20 5 20 10 0 6 6 10 13 10 7 0 19
9 27 20 8 11 19 20 26 20 17 0 154 143 154 162 0 9 8 23 19 30 10 7 22 28 25
46 4 17 12 32 17 32 5 0 9 9 9 20 0 11 5 20 10 20 6 0 10 6 10 14 0 8 6 16 13
18 9 4 12 59 12 233 0 174 -3 229 -12 232 -7 3 -13 18 -13 34 0 16 -3 29 -8
29 -9 0 -42 74 -42 94 0 8 -9 18 -20 21 -11 3 -20 13 -20 21 0 8 -8 23 -17 34
-10 10 -38 43 -63 74 -25 30 -53 55 -63 56 -10 0 -20 7 -23 15 -4 8 -15 15
-25 15 -10 0 -19 5 -19 10 0 6 -7 10 -15 10 -8 0 -15 5 -15 10 0 6 -6 10 -12
9 -20 -2 -58 12 -58 22 0 5 -11 9 -25 9 -14 0 -25 5 -25 10 0 6 -20 10 -45 10
-25 0 -45 5 -45 10 0 6 -37 10 -90 10 -53 0 -90 -4 -90 -10z m135 -380 c3 -5
17 -10 31 -10 25 0 64 -18 76 -35 4 -5 10 -6 14 -3 8 8 97 -80 109 -107 4 -11
7 -26 6 -32 -1 -7 3 -13 9 -13 5 0 10 -9 10 -20 0 -11 5 -20 10 -20 6 0 10
-38 10 -95 0 -57 -4 -95 -10 -95 -5 0 -10 -11 -10 -25 0 -14 -5 -25 -11 -25
-6 0 -9 -6 -6 -14 3 -7 -4 -22 -16 -33 -12 -11 -43 -43 -69 -72 -27 -29 -48
-48 -48 -42 0 18 -28 12 -35 -8 -4 -13 -12 -17 -30 -13 -15 2 -25 0 -25 -7 0
-7 -25 -11 -70 -11 -45 0 -70 4 -70 11 0 7 -10 9 -24 7 -18 -4 -26 0 -29 14
-3 10 -9 18 -14 17 -21 -4 -33 2 -33 16 0 8 -8 15 -17 15 -22 0 -53 29 -53 49
0 9 -9 22 -20 29 -11 7 -17 18 -14 27 4 8 1 15 -5 15 -6 0 -11 9 -11 20 0 11
-4 20 -10 20 -6 0 -10 40 -10 100 0 60 4 100 10 100 6 0 10 14 10 30 0 17 5
30 11 30 6 0 9 6 7 12 -5 14 83 108 99 108 6 0 16 7 23 15 7 8 23 15 36 15 13
0 24 5 24 10 0 6 11 10 24 10 14 0 28 5 31 10 3 6 24 10 45 10 21 0 42 -4 45
-10z"/>
</g>
</svg>
