<?xml version="1.0" standalone="no"?>
<!DOCTYPE svg PUBLIC "-//W3C//DTD SVG 20010904//EN"
 "http://www.w3.org/TR/2001/REC-SVG-20010904/DTD/svg10.dtd">
<svg version="1.0" xmlns="http://www.w3.org/2000/svg"
 width="400.000000pt" height="400.000000pt" viewBox="0 0 400.000000 400.000000"
 preserveAspectRatio="xMidYMid meet">
<metadata>
Created by potrace 1.15, written by Peter Selinger 2001-2017
</metadata>
<g transform="translate(0.000000,400.000000) scale(0.100000,-0.100000)"
fill="#000000" stroke="none">
<path d="M1725 3990 c-49 -5 -106 -13 -125 -18 -19 -6 -80 -22 -135 -37 -300
-79 -632 -268 -856 -486 -180 -176 -318 -370 -427 -599 -74 -158 -103 -236
-137 -370 -34 -136 -45 -479 -24 -754 17 -234 47 -337 167 -586 206 -428 524
-746 952 -952 245 -117 356 -149 579 -167 352 -28 725 -2 902 65 212 78 403
178 554 287 277 202 486 453 637 767 120 249 150 352 167 586 27 357 3 698
-64 900 -32 94 -136 312 -197 413 -201 331 -494 597 -846 769 -83 41 -146 66
-302 123 -128 45 -621 80 -845 59z m460 -385 c205 -28 354 -74 530 -162 241
-120 439 -289 602 -513 55 -76 152 -252 181 -330 141 -370 158 -699 55 -1045
-33 -114 -96 -256 -152 -350 -17 -27 -34 -57 -38 -65 -4 -8 -25 -40 -47 -70
-284 -383 -680 -618 -1136 -676 -241 -30 -440 -8 -693 77 -542 183 -963 659
-1073 1214 -25 128 -25 501 0 630 31 156 63 248 143 406 155 308 421 572 731
727 81 41 268 108 367 132 154 38 369 48 530 25z"/>
<path d="M2222 2170 c-358 -357 -657 -650 -663 -650 -6 0 -83 72 -172 159 -89
88 -193 184 -230 215 -66 53 -71 56 -125 56 -163 -1 -276 -158 -213 -295 27
-61 69 -107 364 -403 l272 -272 105 0 105 0 617 618 c557 557 699 702 850 866
64 70 77 117 53 197 -23 74 -70 131 -123 147 -22 7 -73 12 -113 12 l-74 0
-653 -650z"/>
</g>
</svg>
