<?xml version="1.0" standalone="no"?>
<!DOCTYPE svg PUBLIC "-//W3C//DTD SVG 20010904//EN"
 "http://www.w3.org/TR/2001/REC-SVG-20010904/DTD/svg10.dtd">
<svg version="1.0" xmlns="http://www.w3.org/2000/svg"
 width="400.000000pt" height="400.000000pt" viewBox="0 0 400.000000 400.000000"
 preserveAspectRatio="xMidYMid meet">
<metadata>
Created by potrace 1.15, written by Peter Selinger 2001-2017
</metadata>
<g transform="translate(0.000000,400.000000) scale(0.100000,-0.100000)"
fill="#000000" stroke="none">
<path d="M358 3993 c-16 -2 -28 -9 -28 -14 0 -5 -11 -9 -24 -9 -14 0 -31 -7
-40 -15 -8 -8 -18 -15 -23 -15 -21 0 -143 -110 -143 -129 0 -6 -6 -14 -14 -17
-8 -3 -17 -17 -21 -32 -4 -15 -11 -30 -17 -33 -5 -3 -12 -25 -15 -48 -3 -22
-10 -41 -14 -41 -5 0 -9 -49 -9 -110 0 -67 4 -110 10 -110 6 0 10 -11 10 -24
0 -14 6 -31 14 -38 7 -8 16 -23 20 -35 4 -12 13 -24 21 -27 8 -3 15 -11 15
-17 0 -7 29 -41 65 -76 36 -35 65 -68 65 -73 0 -9 927 -940 936 -940 3 0 40
34 81 75 83 82 83 80 19 135 -16 14 -36 33 -45 44 -9 10 -31 33 -49 50 -19 17
-41 40 -50 50 -10 10 -25 26 -36 35 -10 9 -33 31 -50 49 -17 19 -40 41 -50 50
-10 10 -26 25 -35 36 -9 10 -31 33 -49 50 -19 17 -41 39 -50 50 -10 10 -32 33
-50 50 -19 17 -41 39 -50 50 -36 39 -85 86 -93 86 -4 0 -11 10 -14 21 -4 12
-91 106 -194 209 -102 104 -192 195 -198 204 -18 21 -16 53 3 60 47 18 53 13
280 -211 84 -83 162 -154 172 -157 10 -4 25 -18 32 -31 7 -14 17 -25 20 -25 7
0 217 -207 262 -256 9 -11 31 -33 50 -50 18 -17 41 -40 50 -50 9 -11 34 -36
55 -57 21 -20 43 -42 48 -47 6 -6 49 -49 97 -96 l88 -85 85 84 c47 47 85 88
85 92 0 4 -220 227 -490 497 -269 269 -490 494 -490 499 0 5 -16 24 -35 42
-19 17 -35 38 -35 44 0 7 -4 13 -9 13 -11 0 -19 30 -14 48 5 14 73 17 73 2 0
-5 7 -10 15 -10 8 0 37 -22 64 -50 27 -27 52 -50 56 -50 4 0 155 -147 336
-327 181 -181 334 -332 339 -338 6 -5 71 -72 146 -148 l136 -137 75 75 75 75
-500 500 c-276 275 -504 500 -508 500 -3 0 -26 20 -50 44 -24 25 -53 47 -64
51 -11 3 -20 10 -20 15 0 5 -15 12 -32 15 -18 4 -36 12 -40 18 -7 11 -201 19
-250 10z"/>
<path d="M2913 3993 c-29 -2 -53 -8 -53 -12 0 -5 -22 -11 -50 -15 -27 -4 -50
-11 -50 -15 0 -5 -16 -12 -35 -15 -19 -4 -35 -10 -35 -15 0 -4 -19 -13 -42
-20 -22 -7 -47 -18 -54 -24 -33 -29 -44 -37 -53 -37 -6 0 -15 -9 -21 -20 -6
-11 -17 -20 -24 -20 -18 0 -173 -154 -181 -180 -4 -11 -11 -20 -16 -20 -5 0
-9 -7 -9 -15 0 -9 -7 -18 -15 -21 -8 -4 -15 -13 -15 -20 0 -8 -6 -17 -14 -20
-8 -3 -19 -25 -26 -50 -7 -24 -16 -44 -21 -44 -4 0 -11 -15 -14 -32 -4 -18
-11 -36 -16 -39 -5 -3 -15 -42 -21 -87 -7 -45 -16 -82 -20 -82 -4 0 -8 -52 -8
-115 0 -70 4 -115 10 -115 6 0 10 -16 10 -36 0 -34 -21 -57 -384 -420 -211
-211 -387 -384 -391 -384 -11 0 -225 -218 -225 -229 0 -6 -4 -11 -10 -11 -11
0 -80 -65 -80 -75 0 -4 -182 -189 -405 -412 -223 -223 -405 -408 -405 -412 0
-5 -31 -41 -70 -82 -96 -102 -99 -105 -106 -136 -4 -16 -11 -31 -15 -34 -5 -3
-12 -33 -15 -67 -4 -34 -11 -62 -15 -62 -5 0 -9 -22 -9 -50 0 -27 4 -50 9 -50
4 0 11 -28 14 -61 3 -34 10 -65 15 -68 5 -3 13 -21 17 -38 3 -18 10 -33 15
-33 5 0 11 -14 15 -31 4 -17 13 -33 21 -36 8 -3 14 -10 14 -15 0 -6 18 -28 40
-50 22 -22 40 -44 40 -49 0 -5 11 -11 25 -15 14 -3 30 -15 36 -25 5 -11 16
-19 24 -19 8 0 15 -4 15 -9 0 -5 19 -11 42 -15 23 -4 46 -12 50 -19 10 -16
326 -16 336 0 4 6 21 15 37 19 17 4 42 20 56 35 14 16 31 29 37 29 10 0 48 35
83 76 8 11 28 28 44 39 15 11 142 133 280 271 139 139 262 255 274 259 11 3
21 10 21 15 0 4 18 25 41 46 22 22 48 47 57 58 9 10 32 33 50 50 19 17 41 40
50 50 10 10 26 26 36 35 10 9 26 24 35 35 9 10 31 33 49 50 19 17 41 39 50 50
10 10 32 33 50 50 19 17 41 39 50 50 10 10 32 33 50 50 19 17 41 39 50 50 22
23 135 136 158 158 11 9 33 31 50 50 17 18 40 41 50 50 11 9 36 34 57 55 20
21 42 43 47 48 6 6 41 42 79 80 38 39 77 77 87 87 11 9 33 31 50 50 17 18 40
40 50 50 11 9 33 31 50 50 17 18 40 40 50 49 11 9 30 30 44 47 l25 31 115 1
c122 0 280 18 280 31 0 4 20 11 45 15 25 3 45 10 45 15 0 4 18 14 40 20 22 7
40 16 40 20 0 4 13 10 29 14 16 3 32 13 35 21 3 8 12 14 21 14 8 0 15 4 15 8
0 5 12 15 27 23 36 19 173 158 173 175 0 8 7 17 15 20 8 4 15 13 15 20 0 8 7
17 15 20 8 4 15 13 15 20 0 8 6 17 14 20 8 3 20 28 27 55 7 27 16 49 21 49 4
0 11 18 14 40 4 22 10 40 15 40 4 0 11 21 15 48 4 26 11 50 17 53 15 10 15
301 0 306 -7 3 -13 10 -13 16 0 7 -11 22 -24 35 -44 41 -120 28 -174 -30 -9
-10 -20 -18 -25 -18 -4 0 -66 -58 -138 -130 -72 -71 -134 -130 -138 -130 -4 0
-33 -24 -64 -52 -31 -29 -64 -60 -74 -68 -24 -20 -144 -19 -167 1 -31 29 -45
39 -52 39 -4 0 -45 38 -90 85 -46 47 -88 85 -94 85 -5 0 -10 4 -10 10 0 5 -13
23 -30 38 -16 16 -30 34 -30 40 0 6 -8 15 -17 21 -15 8 -18 24 -18 87 0 53 4
79 13 82 6 2 12 9 12 16 0 14 24 47 68 93 17 18 32 36 32 39 0 7 37 49 64 72
10 10 26 25 35 36 21 23 64 66 87 87 23 19 54 57 54 65 0 3 24 28 53 56 50 50
52 53 52 106 0 35 -5 57 -12 60 -7 2 -13 10 -13 18 0 8 -4 14 -9 14 -5 0 -17
8 -26 17 -14 13 -41 17 -143 18 -70 2 -151 1 -179 -2z m-2273 -3202 c0 -5 14
-12 30 -16 17 -4 30 -11 30 -16 0 -5 6 -9 13 -9 15 0 67 -54 67 -69 0 -6 4
-11 10 -11 5 0 12 -16 16 -35 3 -19 10 -35 15 -35 5 0 9 -31 9 -70 0 -38 -4
-70 -9 -70 -5 0 -12 -14 -16 -30 -4 -17 -11 -30 -16 -30 -5 0 -9 -6 -9 -13 0
-7 -8 -20 -17 -28 -10 -9 -29 -29 -43 -46 -27 -32 -76 -53 -121 -53 -16 0 -29
-4 -29 -10 0 -5 -13 -10 -30 -10 -16 0 -30 3 -30 8 0 4 -23 13 -50 19 -39 9
-61 23 -100 63 -27 27 -52 60 -56 72 -4 13 -12 26 -18 30 -7 5 -11 41 -10 96
0 70 4 93 17 107 9 9 17 21 17 27 0 18 96 107 123 113 15 4 27 11 27 16 0 5
41 9 90 9 50 0 90 -4 90 -9z"/>
<path d="M2642 1572 c-8 -2 -61 -51 -118 -108 l-105 -104 251 -250 c137 -138
250 -253 250 -256 0 -4 18 -24 40 -46 22 -22 40 -46 40 -53 0 -7 7 -15 15 -19
8 -3 15 -12 15 -21 0 -8 4 -15 8 -15 5 0 14 -29 21 -65 7 -36 17 -65 22 -65 5
0 9 -7 9 -15 0 -9 7 -18 15 -21 8 -4 15 -12 15 -19 0 -15 97 -115 111 -115 5
0 22 -13 37 -30 16 -16 34 -30 41 -30 6 0 14 -7 17 -15 4 -8 13 -15 20 -15 8
0 17 -6 20 -14 3 -8 16 -17 28 -20 12 -3 33 -15 46 -26 13 -11 29 -20 37 -20
7 0 13 -5 13 -10 0 -6 11 -15 25 -20 14 -5 25 -14 25 -19 0 -5 11 -12 25 -15
14 -4 25 -11 25 -16 0 -6 6 -10 13 -10 8 0 24 -9 36 -19 13 -11 36 -23 52 -26
16 -4 29 -10 29 -15 0 -5 10 -12 23 -16 12 -4 25 -11 28 -17 10 -14 92 -14 97
1 2 6 9 12 16 12 6 0 19 8 27 18 9 9 30 28 47 42 29 23 44 70 23 70 -5 0 -12
16 -15 35 -4 19 -11 35 -16 35 -5 0 -12 11 -16 25 -3 14 -9 25 -13 25 -4 0
-13 16 -20 35 -7 19 -16 35 -21 35 -4 0 -11 11 -14 25 -4 14 -11 25 -16 25 -6
0 -10 7 -10 15 0 9 -6 18 -14 21 -8 3 -18 19 -21 36 -4 16 -13 32 -21 35 -8 3
-14 11 -14 19 0 7 -6 17 -13 21 -7 4 -19 23 -26 41 -8 17 -17 32 -22 32 -4 0
-11 9 -14 20 -6 20 -24 42 -92 116 -18 19 -33 38 -33 43 0 4 -12 17 -26 27
-14 10 -32 25 -39 32 -8 6 -18 12 -24 12 -5 0 -14 6 -18 14 -4 8 -31 21 -58
28 -28 7 -52 15 -55 19 -3 3 -21 9 -42 13 -20 4 -39 13 -42 21 -3 8 -11 15
-17 15 -6 0 -53 42 -103 93 -51 50 -104 98 -119 106 -15 8 -27 18 -27 22 0 4
-18 24 -41 45 -22 22 -48 47 -57 58 -9 10 -32 33 -50 50 -19 17 -41 40 -50 50
-10 10 -25 26 -36 35 -36 31 -86 84 -86 91 0 11 -23 18 -38 12z"/>
</g>
</svg>
