<?xml version="1.0" standalone="no"?>
<!DOCTYPE svg PUBLIC "-//W3C//DTD SVG 20010904//EN"
 "http://www.w3.org/TR/2001/REC-SVG-20010904/DTD/svg10.dtd">
<svg version="1.0" xmlns="http://www.w3.org/2000/svg"
 width="400.000000pt" height="400.000000pt" viewBox="0 0 400.000000 400.000000"
 preserveAspectRatio="xMidYMid meet">
<metadata>
Created by potrace 1.15, written by Peter Selinger 2001-2017
</metadata>
<g transform="translate(0.000000,400.000000) scale(0.100000,-0.100000)"
fill="#000000" stroke="none">
<path d="M2280 3937 c-126 -42 -194 -170 -144 -270 42 -84 112 -127 206 -127
175 0 445 -61 611 -139 206 -97 372 -257 461 -446 40 -84 43 -93 59 -155 29
-112 36 -158 42 -284 8 -153 24 -198 88 -243 42 -30 124 -57 149 -48 7 2 32 9
56 15 49 12 104 57 127 102 32 66 16 379 -30 553 -34 129 -127 348 -160 375
-8 7 -15 19 -15 26 0 8 -4 14 -8 14 -4 0 -16 14 -26 31 -27 46 -141 164 -221
228 -188 152 -412 258 -679 320 -102 25 -123 28 -276 45 -156 17 -196 17 -240
3z"/>
<path d="M688 3333 c-69 -63 -149 -172 -200 -272 -26 -52 -48 -102 -48 -111 0
-9 -4 -20 -9 -26 -18 -18 -43 -151 -57 -302 -13 -133 31 -397 93 -567 26 -70
117 -263 151 -320 71 -120 179 -264 281 -375 28 -30 50 -58 51 -62 0 -4 -28
-33 -61 -65 -82 -78 -138 -167 -189 -301 -13 -33 -53 -62 -87 -62 -29 0 -195
-86 -259 -133 -200 -151 -323 -379 -328 -608 -2 -120 -91 -109 874 -109 l829
0 21 28 c20 25 22 34 16 116 -14 185 -101 363 -243 500 -107 102 -201 158
-350 207 -37 13 -70 24 -72 26 -2 1 3 17 12 35 23 48 86 118 106 118 10 0 76
-38 146 -85 113 -76 330 -190 425 -224 19 -7 44 -17 55 -21 246 -101 650 -156
885 -120 81 13 209 39 235 50 11 4 54 20 95 36 165 61 370 205 370 260 0 20
-19 55 -40 74 -30 26 -201 183 -264 241 -34 31 -135 123 -226 204 -91 82 -212
191 -269 244 -57 53 -113 104 -123 113 -11 9 -60 54 -110 100 -50 46 -103 94
-119 107 -16 13 -29 28 -29 34 0 5 44 57 98 116 194 214 212 238 212 286 0 62
-39 124 -97 154 -53 27 -163 6 -203 -39 -26 -29 -162 -180 -214 -237 -27 -29
-52 -52 -56 -51 -4 2 -47 40 -96 85 -49 45 -99 90 -111 100 -12 11 -68 62
-125 115 -57 52 -202 184 -323 293 -121 109 -249 225 -285 259 -131 122 -233
211 -249 218 -39 16 -72 7 -113 -29z"/>
<path d="M2246 3270 c-54 -27 -85 -58 -107 -105 -36 -77 -15 -168 51 -225 51
-44 100 -60 192 -60 233 0 396 -132 428 -347 6 -37 13 -95 16 -127 5 -55 10
-63 57 -110 64 -64 120 -81 206 -63 73 15 142 80 158 147 23 94 -6 320 -55
432 -88 200 -257 344 -492 421 -181 59 -377 75 -454 37z"/>
</g>
</svg>
