<?xml version="1.0" standalone="no"?>
<!DOCTYPE svg PUBLIC "-//W3C//DTD SVG 20010904//EN"
 "http://www.w3.org/TR/2001/REC-SVG-20010904/DTD/svg10.dtd">
<svg version="1.0" xmlns="http://www.w3.org/2000/svg"
 width="400.000000pt" height="400.000000pt" viewBox="0 0 400.000000 400.000000"
 preserveAspectRatio="xMidYMid meet">
<metadata>
Created by potrace 1.15, written by Peter Selinger 2001-2017
</metadata>
<g transform="translate(0.000000,400.000000) scale(0.100000,-0.100000)"
fill="#000000" stroke="none">
<path d="M30 3341 c0 -649 4 -732 41 -851 28 -88 45 -115 123 -188 68 -64 91
-82 118 -93 15 -6 28 -15 28 -19 0 -4 28 -16 63 -26 88 -26 344 -27 437 -1 35
10 67 21 70 26 3 4 25 18 49 32 77 42 153 125 205 225 54 103 56 131 56 857
l0 667 -130 0 -130 0 0 -653 c0 -713 1 -697 -58 -792 -64 -102 -142 -140 -282
-139 -120 1 -180 27 -239 102 -24 31 -55 85 -67 121 l-24 66 0 648 0 647 -130
0 -130 0 0 -629z"/>
<path d="M1530 3065 l0 -905 520 0 520 0 0 120 0 120 -400 0 -400 0 0 290 0
290 345 0 345 0 0 120 0 120 -345 0 -345 0 0 255 0 255 395 0 395 0 0 120 0
120 -515 0 -515 0 0 -905z"/>
<path d="M2800 3066 l0 -906 268 0 c248 0 422 13 422 31 0 4 12 10 28 13 42
11 112 40 112 48 0 4 14 15 30 23 38 20 170 151 170 170 0 7 7 15 15 19 8 3
15 12 15 20 0 9 9 23 19 33 47 44 97 248 107 438 12 246 -38 574 -100 647 -9
11 -22 30 -28 44 -6 13 -15 24 -19 24 -4 0 -10 9 -14 20 -9 27 -114 133 -167
167 -24 15 -48 33 -55 39 -7 6 -43 20 -80 30 -37 10 -71 23 -75 28 -5 7 -116
12 -328 14 l-320 4 0 -906z m551 654 c29 -6 55 -14 58 -19 4 -4 18 -11 32 -14
14 -4 36 -16 50 -28 13 -11 36 -27 52 -35 73 -38 149 -195 178 -366 16 -98 7
-397 -15 -468 -9 -30 -20 -66 -23 -80 -8 -37 -89 -156 -124 -182 -16 -13 -41
-33 -56 -46 -15 -12 -37 -25 -50 -28 -13 -4 -23 -9 -23 -13 0 -19 -87 -33
-222 -38 l-148 -5 0 666 0 666 119 0 c65 0 142 -5 172 -10z"/>
<path d="M1817 2020 c-166 -89 -454 -240 -817 -429 -492 -257 -723 -378 -810
-427 -52 -29 -116 -63 -142 -75 -35 -17 -48 -29 -48 -43 0 -23 43 -46 860
-468 234 -121 495 -257 580 -302 330 -176 530 -276 555 -276 l25 0 0 255 0
255 988 2 987 3 0 535 0 535 -987 3 -988 2 -2 257 c-3 220 -5 258 -18 260 -8
2 -91 -37 -183 -87z"/>
</g>
</svg>
