<svg xmlns="http://www.w3.org/2000/svg" width="20" height="20"><path style="line-height:normal;font-variant-ligatures:normal;font-variant-position:normal;font-variant-caps:normal;font-variant-numeric:normal;font-variant-alternates:normal;font-variant-east-asian:normal;font-feature-settings:normal;font-variation-settings:normal;text-indent:0;text-align:start;text-decoration-line:none;text-decoration-style:solid;text-decoration-color:#000;text-transform:none;text-orientation:mixed;white-space:normal;shape-padding:0;shape-margin:0;inline-size:0;isolation:auto;mix-blend-mode:normal;solid-color:#000;solid-opacity:1" d="M5.34 1.004a1.04 1.04 0 00-.777.168l-1.014.709a1.047 1.047 0 00-.256 1.447l.031.043-.123.086-.431.104L.553 4.1a.728.728 0 00-.551.746c.033.53.187 1.935 1.066 3.191.88 1.257 2.146 1.882 2.633 2.096.318.139.699.026.89-.262l1.266-1.896.247-.371.123-.084 5.892 8.416c.326.465.982.58 1.447.255l1.014-.707c.466-.325.582-.983.256-1.449L8.908 5.568c.366-.357.478-.919.176-1.35L7.404 1.82a1.075 1.075 0 00-1.486-.261l.123-.086-.031-.045a1.033 1.033 0 00-.67-.424zm9.32 0a1.033 1.033 0 00-.67.424l-.031.045.123.086a1.075 1.075 0 00-1.486.261l-1.68 2.399c-.302.43-.19.992.176 1.35l-.942 1.345 2.024 2.89 1.6-2.284.122.084 1.512 2.267a.727.727 0 00.89.262c.488-.214 1.754-.84 2.634-2.096.879-1.256 1.032-2.658 1.066-3.19a.729.729 0 00-.55-.747l-2.65-.643-.122-.086.031-.043a1.047 1.047 0 00-.256-1.447l-1.014-.71a1.04 1.04 0 00-.777-.167zm-6.834 9.228l-.408.586-2.254 3.217a1.049 1.049 0 00.256 1.45l1.014.706c.465.326 1.121.21 1.447-.255l1.969-2.813-2.024-2.89z" color="#000" font-weight="400" font-family="sans-serif" overflow="visible" fill="#fff" paint-order="markers stroke fill"/><path style="line-height:normal;font-variant-ligatures:normal;font-variant-position:normal;font-variant-caps:normal;font-variant-numeric:normal;font-variant-alternates:normal;font-variant-east-asian:normal;font-feature-settings:normal;font-variation-settings:normal;text-indent:0;text-align:start;text-decoration-line:none;text-decoration-style:solid;text-decoration-color:#000;text-transform:none;text-orientation:mixed;white-space:normal;shape-padding:0;shape-margin:0;inline-size:0;isolation:auto;mix-blend-mode:normal;solid-color:#000;solid-opacity:1" d="M14.426 14.323L8.247 5.496l.287-.2a.567.567 0 00.14-.79L6.995 2.107a.568.568 0 00-.79-.14l-.287.2-.317-.453a.54.54 0 00-.752-.133l-1.013.709a.539.539 0 00-.133.751l.317.453-.609.425-.524.127-2.217.538a.223.223 0 00-.17.23c.03.481.186 1.803.978 2.935.793 1.132 1.982 1.73 2.424 1.924.099.043.214.01.274-.08l1.266-1.897.299-.449.608-.425 6.18 8.827a.54.54 0 00.75.132l1.014-.708a.539.539 0 00.133-.751zm-6.6-3.219l-2.252 3.219a.539.539 0 00.133.75l1.013.71a.54.54 0 00.752-.133l1.768-2.527zm11.504-6.52l-2.741-.664-.609-.425.317-.453a.539.539 0 00-.133-.751l-1.013-.709a.54.54 0 00-.752.133l-.317.453-.286-.2a.568.568 0 00-.791.14l-1.679 2.397a.567.567 0 00.14.79l.287.201-.993 1.418 1.413 2.02 1.478-2.111.608.425 1.565 2.345c.06.09.175.124.274.08.442-.193 1.631-.791 2.424-1.923.792-1.132.947-2.454.978-2.935a.222.222 0 00-.17-.23z" color="#000" font-weight="400" font-family="sans-serif" overflow="visible" fill="#a7a9ac" paint-order="markers stroke fill"/></svg>