<?xml version="1.0" standalone="no"?>
<!DOCTYPE svg PUBLIC "-//W3C//DTD SVG 20010904//EN"
 "http://www.w3.org/TR/2001/REC-SVG-20010904/DTD/svg10.dtd">
<svg version="1.0" xmlns="http://www.w3.org/2000/svg"
 width="245.000000pt" height="245.000000pt" viewBox="0 0 245.000000 245.000000"
 preserveAspectRatio="xMidYMid meet">
<metadata>
Created by potrace 1.15, written by Peter Selinger 2001-2017
</metadata>
<g transform="translate(0.000000,245.000000) scale(0.100000,-0.100000)"
fill="#ff4545" stroke="none">
<path d="M1631 2331 c-14 -14 -21 -34 -21 -59 0 -104 -52 -218 -162 -357 -107
-135 -123 -176 -123 -310 0 -96 3 -116 24 -155 47 -91 122 -146 229 -169 80
-17 79 -17 87 46 4 32 16 87 27 123 22 70 91 214 108 225 14 9 104 -183 124
-266 9 -36 16 -82 16 -103 l0 -38 48 6 c107 15 152 35 208 90 44 45 56 65 75
126 18 61 21 87 16 164 -10 156 -60 276 -117 276 -12 0 -54 -32 -100 -75 -122
-114 -119 -114 -113 8 10 192 -58 350 -189 440 -70 48 -109 56 -137 28z"/>
<path d="M525 2190 c-36 -15 -353 -343 -360 -373 -11 -41 1 -95 41 -190 219
-525 1022 -1308 1541 -1503 53 -20 77 -24 113 -19 42 6 56 18 216 178 183 183
196 204 175 270 -8 23 -84 105 -239 259 -288 285 -280 283 -430 135 l-82 -82
-287 287 -287 287 87 90 c87 90 87 90 87 143 l0 52 -222 224 c-123 123 -235
230 -250 238 -30 15 -72 17 -103 4z"/>
</g>
</svg>
