<?xml version="1.0" standalone="no"?>
<!DOCTYPE svg PUBLIC "-//W3C//DTD SVG 20010904//EN"
 "http://www.w3.org/TR/2001/REC-SVG-20010904/DTD/svg10.dtd">
<svg version="1.0" xmlns="http://www.w3.org/2000/svg"
 width="245.000000pt" height="245.000000pt" viewBox="0 0 245.000000 245.000000"
 preserveAspectRatio="xMidYMid meet">
<metadata>
Created by potrace 1.15, written by Peter Selinger 2001-2017
</metadata>
<g transform="translate(0.000000,245.000000) scale(0.100000,-0.100000)"
fill="white" stroke="none">
<path d="M1600 2428 c-60 -30 -90 -77 -90 -139 0 -100 -37 -179 -150 -319 -29
-36 -71 -103 -94 -150 l-41 -85 0 -130 c0 -125 1 -132 32 -197 62 -132 175
-209 335 -229 133 -17 154 0 177 147 6 39 16 84 22 100 l12 29 18 -55 c10 -30
18 -72 18 -93 2 -95 54 -131 176 -125 145 8 255 75 318 196 66 124 74 305 23
468 -34 105 -58 141 -109 164 -54 25 -98 25 -148 0 -44 -23 -40 -26 -59 55
-34 149 -146 295 -272 355 -75 36 -109 37 -168 8z"/>
<path d="M480 2279 c-63 -28 -362 -326 -395 -393 -48 -96 -30 -189 75 -396
145 -283 403 -604 717 -893 259 -237 470 -390 693 -502 201 -101 284 -115 379
-65 46 24 363 343 387 390 26 50 24 143 -3 195 -26 48 -465 486 -510 509 -43
21 -154 21 -195 0 -18 -9 -55 -38 -83 -65 l-51 -48 -214 214 -215 215 52 52
c28 29 58 67 67 85 23 45 21 144 -3 191 -29 54 -477 498 -523 517 -51 21 -124
19 -178 -6z"/>
</g>
</svg>
